G04*
G04 #@! TF.GenerationSoftware,Altium Limited,Altium Designer,18.1.6 (161)*
G04*
G04 Layer_Color=255*
%FSTAX24Y24*%
%MOIN*%
G70*
G01*
G75*
%ADD22R,0.0500X0.0550*%
%ADD23R,0.0453X0.0551*%
%ADD24R,0.0580X0.0140*%
%ADD25R,0.0550X0.0500*%
%ADD26R,0.0433X0.0472*%
%ADD27R,0.0370X0.0980*%
%ADD28R,0.2190X0.2480*%
%ADD29R,0.0472X0.0433*%
%ADD30R,0.0669X0.0709*%
%ADD31R,0.0394X0.0945*%
%ADD32R,0.1299X0.0945*%
%ADD33R,0.0787X0.0787*%
%ADD69C,0.0591*%
%ADD70C,0.0512*%
%ADD71O,0.0850X0.0650*%
%ADD72R,0.0850X0.0650*%
%ADD73C,0.0551*%
%ADD74O,0.0650X0.0750*%
%ADD75R,0.0650X0.0750*%
%ADD76R,0.1000X0.0700*%
%ADD77O,0.1000X0.0700*%
%ADD78C,0.0650*%
%ADD79R,0.0750X0.0650*%
%ADD80O,0.0750X0.0650*%
%ADD81C,0.0600*%
%ADD82C,0.0800*%
%ADD83R,0.0800X0.0800*%
%ADD84R,0.1000X0.1600*%
%ADD85R,0.1600X0.1000*%
%ADD86C,0.0700*%
%ADD87C,0.0900*%
%ADD88C,0.1380*%
D22*
X043767Y0252D02*
D03*
X042867D02*
D03*
X039858Y02525D02*
D03*
X038958D02*
D03*
X03505Y0252D02*
D03*
X03595D02*
D03*
X0256Y03825D02*
D03*
X0247D02*
D03*
X02465Y04105D02*
D03*
X02555D02*
D03*
X027874Y0397D02*
D03*
X026974D02*
D03*
X027874Y04055D02*
D03*
X026974D02*
D03*
X02965Y0397D02*
D03*
X02875D02*
D03*
X02965Y04055D02*
D03*
X02875D02*
D03*
X03033Y047947D02*
D03*
X02943D02*
D03*
X0266Y04485D02*
D03*
X0275D02*
D03*
X01505Y038581D02*
D03*
X01415D02*
D03*
X01075Y03875D02*
D03*
X01165D02*
D03*
X02245Y04425D02*
D03*
X02335D02*
D03*
X03285Y04755D02*
D03*
X03195D02*
D03*
X02942Y0456D02*
D03*
X03032D02*
D03*
X03765Y04015D02*
D03*
X03855D02*
D03*
D23*
X02462Y040016D02*
D03*
Y03915D02*
D03*
X02525D02*
D03*
Y040016D02*
D03*
D24*
X0272Y038802D02*
D03*
X0272Y038546D02*
D03*
X0272Y03829D02*
D03*
X0272Y038034D02*
D03*
X0272Y037778D02*
D03*
Y037522D02*
D03*
Y037266D02*
D03*
Y03701D02*
D03*
Y036754D02*
D03*
Y036498D02*
D03*
X0295D02*
D03*
Y036754D02*
D03*
Y03701D02*
D03*
Y037266D02*
D03*
Y037522D02*
D03*
X0295Y037778D02*
D03*
X0295Y038034D02*
D03*
X0295Y03829D02*
D03*
X0295Y038546D02*
D03*
X0295Y038802D02*
D03*
D25*
X03945Y0461D02*
D03*
Y047D02*
D03*
Y04935D02*
D03*
Y04845D02*
D03*
X02465Y04725D02*
D03*
Y04815D02*
D03*
X027442Y02395D02*
D03*
Y02305D02*
D03*
X02578Y02395D02*
D03*
Y02305D02*
D03*
X0201Y0473D02*
D03*
Y0464D02*
D03*
X03545Y0293D02*
D03*
Y0302D02*
D03*
X029104Y02305D02*
D03*
Y02395D02*
D03*
X030767Y02305D02*
D03*
Y02395D02*
D03*
X039327Y0293D02*
D03*
Y0302D02*
D03*
X0432Y0293D02*
D03*
Y0302D02*
D03*
X0397Y0402D02*
D03*
Y0411D02*
D03*
X0407Y0402D02*
D03*
Y0411D02*
D03*
D26*
X029437Y0491D02*
D03*
X030263D02*
D03*
X011663Y03975D02*
D03*
X010837D02*
D03*
X030313Y0467D02*
D03*
X029487D02*
D03*
D27*
X0216Y045485D02*
D03*
X0234D02*
D03*
D28*
X0225Y048695D02*
D03*
D29*
X030787Y02715D02*
D03*
Y026323D02*
D03*
X029124Y02715D02*
D03*
Y026323D02*
D03*
X0258Y02715D02*
D03*
Y026323D02*
D03*
X027462Y02715D02*
D03*
Y026323D02*
D03*
D30*
X018637Y0464D02*
D03*
X017437D02*
D03*
D31*
X027506Y048442D02*
D03*
X0266D02*
D03*
X025694D02*
D03*
D32*
X0266Y046158D02*
D03*
D33*
X018637Y04475D02*
D03*
X017063D02*
D03*
D69*
X03422Y028336D02*
D03*
Y026564D02*
D03*
X03678Y028336D02*
D03*
Y026564D02*
D03*
X03812Y028286D02*
D03*
Y026514D02*
D03*
X04068Y028286D02*
D03*
Y026514D02*
D03*
X044546Y026564D02*
D03*
Y028336D02*
D03*
X041987Y026564D02*
D03*
Y028336D02*
D03*
D70*
X02885Y0298D02*
D03*
X02785D02*
D03*
X02685D02*
D03*
X02985D02*
D03*
Y0328D02*
D03*
X02885D02*
D03*
X02785D02*
D03*
X02685D02*
D03*
D71*
X04395Y036D02*
D03*
Y033D02*
D03*
Y034D02*
D03*
Y035D02*
D03*
Y037D02*
D03*
D72*
Y032D02*
D03*
D73*
X04075Y033566D02*
D03*
Y03455D02*
D03*
Y035534D02*
D03*
X03945Y033566D02*
D03*
Y03455D02*
D03*
Y035534D02*
D03*
D74*
X04065Y047D02*
D03*
X04064Y0484D02*
D03*
X03289Y049D02*
D03*
X0339D02*
D03*
X03488D02*
D03*
X03589D02*
D03*
X02129Y03712D02*
D03*
X02028D02*
D03*
X0193D02*
D03*
X01829D02*
D03*
D75*
X04166Y047D02*
D03*
X04165Y0484D02*
D03*
D76*
X0148Y04175D02*
D03*
D77*
Y04275D02*
D03*
D78*
X01105Y03712D02*
D03*
X01205D02*
D03*
X01305D02*
D03*
X01405D02*
D03*
X01505D02*
D03*
X01605D02*
D03*
X0377Y0389D02*
D03*
X0387D02*
D03*
X0397D02*
D03*
X0407D02*
D03*
X0417D02*
D03*
X0427D02*
D03*
X0437D02*
D03*
X0447D02*
D03*
D79*
X020425Y04109D02*
D03*
X0171D02*
D03*
D80*
X020425Y0421D02*
D03*
Y04308D02*
D03*
X0171Y0421D02*
D03*
Y04308D02*
D03*
D81*
X03585Y04535D02*
D03*
Y04435D02*
D03*
Y04335D02*
D03*
Y04235D02*
D03*
Y04135D02*
D03*
Y04035D02*
D03*
Y03935D02*
D03*
Y03835D02*
D03*
Y03735D02*
D03*
Y03635D02*
D03*
Y03535D02*
D03*
D82*
X0116Y041472D02*
D03*
D83*
Y04285D02*
D03*
D84*
X01265Y04575D02*
D03*
D85*
X01465Y04725D02*
D03*
Y04475D02*
D03*
D86*
X01895Y028D02*
D03*
Y027D02*
D03*
Y026D02*
D03*
X01395Y031D02*
D03*
X01495D02*
D03*
X01595D02*
D03*
X0137Y024D02*
D03*
X0162D02*
D03*
X0137Y022D02*
D03*
X0162D02*
D03*
D87*
X01195Y024375D02*
D03*
Y029625D02*
D03*
X01795D02*
D03*
Y024375D02*
D03*
D88*
X0113Y0213D02*
D03*
X04475D02*
D03*
Y04835D02*
D03*
X0113D02*
D03*
M02*
