G04*
G04 #@! TF.GenerationSoftware,Altium Limited,Altium Designer,18.1.6 (161)*
G04*
G04 Layer_Color=255*
%FSTAX24Y24*%
%MOIN*%
G70*
G01*
G75*
%ADD22R,0.0550X0.0500*%
%ADD23R,0.0500X0.0550*%
%ADD68R,0.1600X0.1000*%
%ADD69R,0.1000X0.1600*%
%ADD70C,0.0591*%
%ADD71C,0.0512*%
%ADD72O,0.0850X0.0650*%
%ADD73R,0.0850X0.0650*%
%ADD74C,0.0551*%
%ADD75O,0.0750X0.0650*%
%ADD76R,0.0750X0.0650*%
%ADD77O,0.0650X0.0750*%
%ADD78R,0.1000X0.0700*%
%ADD79O,0.1000X0.0700*%
%ADD80C,0.0650*%
%ADD81C,0.0600*%
%ADD82C,0.0800*%
%ADD83R,0.0800X0.0800*%
%ADD84C,0.0700*%
%ADD85C,0.0900*%
%ADD86C,0.1380*%
D22*
X03445Y04445D02*
D03*
Y04535D02*
D03*
D23*
X0198Y02985D02*
D03*
X0189D02*
D03*
X0151Y03235D02*
D03*
X016D02*
D03*
D68*
X01465Y04475D02*
D03*
Y04725D02*
D03*
D69*
X01265Y04575D02*
D03*
D70*
X03422Y028336D02*
D03*
Y026564D02*
D03*
X03678Y028336D02*
D03*
Y026564D02*
D03*
X03812Y028336D02*
D03*
Y026564D02*
D03*
X04068Y028336D02*
D03*
Y026564D02*
D03*
X044546D02*
D03*
Y028336D02*
D03*
X041987Y026564D02*
D03*
Y028336D02*
D03*
D71*
X02885Y0298D02*
D03*
X02785D02*
D03*
X02685D02*
D03*
X02985D02*
D03*
Y0328D02*
D03*
X02885D02*
D03*
X02785D02*
D03*
X02685D02*
D03*
D72*
X04395Y036D02*
D03*
Y033D02*
D03*
Y034D02*
D03*
Y035D02*
D03*
Y037D02*
D03*
D73*
Y032D02*
D03*
D74*
X04075Y033566D02*
D03*
Y03455D02*
D03*
Y035534D02*
D03*
X03945Y033566D02*
D03*
Y03455D02*
D03*
Y035534D02*
D03*
D75*
X0389Y04614D02*
D03*
X04065Y04615D02*
D03*
X01985Y04211D02*
D03*
Y04309D02*
D03*
X0171Y0421D02*
D03*
Y04308D02*
D03*
D76*
X0389Y04715D02*
D03*
X04065Y04716D02*
D03*
X01985Y0411D02*
D03*
X0171Y04109D02*
D03*
D77*
X03189Y04765D02*
D03*
X0329D02*
D03*
X03388D02*
D03*
X03489D02*
D03*
X0206Y03712D02*
D03*
X01959D02*
D03*
X01861D02*
D03*
X0176D02*
D03*
D78*
X0148Y04175D02*
D03*
D79*
Y04275D02*
D03*
D80*
X010884Y03712D02*
D03*
X011884D02*
D03*
X012884D02*
D03*
X013884D02*
D03*
X014884D02*
D03*
X015884D02*
D03*
X0377Y0389D02*
D03*
X0387D02*
D03*
X0397D02*
D03*
X0407D02*
D03*
X0417D02*
D03*
X0427D02*
D03*
X0437D02*
D03*
X0447D02*
D03*
D81*
X03585Y04535D02*
D03*
Y04435D02*
D03*
Y04335D02*
D03*
Y04235D02*
D03*
Y04135D02*
D03*
Y04035D02*
D03*
Y03935D02*
D03*
Y03835D02*
D03*
Y03735D02*
D03*
Y03635D02*
D03*
Y03535D02*
D03*
D82*
X0116Y041472D02*
D03*
D83*
Y04285D02*
D03*
D84*
X01895Y028D02*
D03*
Y027D02*
D03*
Y026D02*
D03*
X01395Y031D02*
D03*
X01495D02*
D03*
X01595D02*
D03*
X0137Y024D02*
D03*
X0162D02*
D03*
X0137Y022D02*
D03*
X0162D02*
D03*
D85*
X01195Y024375D02*
D03*
Y029625D02*
D03*
X01795D02*
D03*
Y024375D02*
D03*
D86*
X0113Y0213D02*
D03*
X04475D02*
D03*
Y04835D02*
D03*
X0113D02*
D03*
M02*
