G04*
G04 #@! TF.GenerationSoftware,Altium Limited,Altium Designer,18.1.6 (161)*
G04*
G04 Layer_Physical_Order=1*
G04 Layer_Color=255*
%FSTAX24Y24*%
%MOIN*%
G70*
G01*
G75*
%ADD13C,0.0150*%
%ADD21C,0.0140*%
%ADD22R,0.0550X0.0500*%
%ADD23R,0.0500X0.0550*%
%ADD24R,0.0453X0.0551*%
%ADD25R,0.0580X0.0140*%
%ADD26R,0.0433X0.0472*%
%ADD27R,0.0370X0.0980*%
%ADD28R,0.2190X0.2480*%
%ADD29R,0.0472X0.0433*%
%ADD30R,0.0669X0.0709*%
%ADD31R,0.0394X0.0945*%
%ADD32R,0.1299X0.0945*%
%ADD33R,0.0787X0.0787*%
%ADD63C,0.0200*%
%ADD64C,0.0350*%
%ADD65C,0.0400*%
%ADD66C,0.0300*%
%ADD67C,0.0600*%
%ADD68C,0.0500*%
%ADD69C,0.0450*%
%ADD70C,0.0591*%
%ADD71C,0.0512*%
%ADD72O,0.0850X0.0650*%
%ADD73R,0.0850X0.0650*%
%ADD74C,0.0551*%
%ADD75O,0.0650X0.0750*%
%ADD76R,0.0650X0.0750*%
%ADD77R,0.1000X0.0700*%
%ADD78O,0.1000X0.0700*%
%ADD79C,0.0650*%
%ADD80R,0.0750X0.0650*%
%ADD81O,0.0750X0.0650*%
%ADD82C,0.0600*%
%ADD83C,0.0800*%
%ADD84R,0.0800X0.0800*%
%ADD85R,0.1000X0.1600*%
%ADD86R,0.1600X0.1000*%
%ADD87C,0.0700*%
%ADD88C,0.0900*%
%ADD89C,0.1380*%
%ADD90C,0.0315*%
G36*
X046447Y020003D02*
X010053D01*
Y049947D01*
X033303D01*
X033345Y049847D01*
X032966Y049469D01*
X03289Y049479D01*
X032779Y049464D01*
X032676Y049421D01*
X032587Y049353D01*
X032519Y049264D01*
X032476Y049161D01*
X032461Y04905D01*
Y04895D01*
X032476Y048839D01*
X032519Y048736D01*
X032587Y048647D01*
X032613Y048627D01*
Y047925D01*
X0325D01*
Y047175D01*
X032613D01*
Y046405D01*
X032271Y046064D01*
X032234Y04603D01*
X032196Y046004D01*
X032161Y045986D01*
X03213Y045977D01*
X0321Y045974D01*
X03207Y045977D01*
X032039Y045986D01*
X032004Y046004D01*
X031966Y04603D01*
X031929Y046064D01*
X031096Y046896D01*
X031039Y04694D01*
X030972Y046968D01*
X0309Y046977D01*
X03063D01*
Y047036D01*
X029997D01*
Y046364D01*
X03063D01*
Y046423D01*
X030785D01*
X031536Y045671D01*
X03157Y045634D01*
X031596Y045596D01*
X031614Y045561D01*
X031623Y04553D01*
X031626Y0455D01*
X031623Y04547D01*
X031614Y045439D01*
X031596Y045404D01*
X03157Y045366D01*
X031536Y045329D01*
X02987Y043662D01*
X02712D01*
X02707Y043665D01*
X027024Y043673D01*
X026987Y043685D01*
X026958Y043701D01*
X026935Y04372D01*
X026916Y043743D01*
X0269Y043772D01*
X026888Y043809D01*
X02688Y043855D01*
X026877Y043904D01*
Y044475D01*
X02695D01*
Y045225D01*
X026877D01*
Y045586D01*
X02735D01*
Y046731D01*
X026877D01*
Y047869D01*
X026897D01*
Y048996D01*
X02912D01*
Y048764D01*
X029753D01*
Y049436D01*
X02912D01*
Y049404D01*
X02585D01*
X025772Y049388D01*
X025706Y049344D01*
X02555Y049189D01*
X025506Y049123D01*
X025491Y049044D01*
Y049014D01*
X025398D01*
Y047869D01*
X025417D01*
Y047759D01*
X025185Y047527D01*
X025025D01*
Y0476D01*
X024275D01*
Y0469D01*
X024347D01*
Y045375D01*
X024104Y045132D01*
X023703D01*
Y045485D01*
X023692Y045563D01*
X023685Y045581D01*
Y046075D01*
X023115D01*
Y045581D01*
X023108Y045563D01*
X023097Y045485D01*
Y04485D01*
Y044625D01*
X023D01*
Y043875D01*
X023047D01*
Y04315D01*
Y042675D01*
X020125Y039753D01*
X01545D01*
X015372Y039742D01*
X015299Y039712D01*
X015236Y039664D01*
X014636Y039064D01*
X014588Y039001D01*
X014558Y038928D01*
X014547Y03885D01*
Y038825D01*
X0145D01*
Y038075D01*
X014547D01*
Y037379D01*
X014513Y037334D01*
X01447Y037231D01*
X014456Y03712D01*
X01447Y037009D01*
X014513Y036906D01*
X014581Y036817D01*
X01467Y036749D01*
X014773Y036706D01*
X014884Y036691D01*
X014995Y036706D01*
X015099Y036749D01*
X015187Y036817D01*
X015255Y036906D01*
X015298Y037009D01*
X015313Y03712D01*
X015298Y037231D01*
X015255Y037334D01*
X015187Y037423D01*
X015153Y03745D01*
Y038075D01*
X0152D01*
Y038772D01*
X015575Y039147D01*
X02025D01*
X020328Y039158D01*
X020401Y039188D01*
X020464Y039236D01*
X023564Y042336D01*
X023612Y042399D01*
X023642Y042472D01*
X023653Y04255D01*
Y04315D01*
Y043875D01*
X0237D01*
Y04428D01*
X023703Y0443D01*
X023703Y0443D01*
Y044527D01*
X02423D01*
X024308Y044537D01*
X024381Y044568D01*
X024444Y044616D01*
X024864Y045036D01*
X024912Y045099D01*
X024942Y045172D01*
X024953Y04525D01*
Y0469D01*
X025025D01*
Y046973D01*
X0253D01*
X025372Y046982D01*
X025439Y04701D01*
X025496Y047054D01*
X025891Y047448D01*
X025935Y047506D01*
X025962Y047573D01*
X025972Y047644D01*
Y047869D01*
X025991D01*
Y048996D01*
X026303D01*
Y047869D01*
X026323D01*
Y046731D01*
X02585D01*
Y045586D01*
X026323D01*
Y045225D01*
X02625D01*
Y044475D01*
X026323D01*
Y043904D01*
X02632Y043855D01*
X026312Y043809D01*
X0263Y043772D01*
X026284Y043743D01*
X026265Y04372D01*
X026242Y043701D01*
X026213Y043685D01*
X026176Y043673D01*
X02613Y043665D01*
X02608Y043662D01*
X025285D01*
X025213Y043653D01*
X025146Y043625D01*
X025088Y043581D01*
X020235Y038727D01*
X017614D01*
X017543Y038718D01*
X017476Y03869D01*
X017418Y038646D01*
X016534Y037762D01*
X01649Y037704D01*
X016462Y037637D01*
X016453Y037566D01*
Y03557D01*
X016462Y035498D01*
X01649Y035431D01*
X01653Y035378D01*
X016527Y035357D01*
X016494Y035278D01*
X014144D01*
X013063Y03636D01*
Y036734D01*
X013099Y036749D01*
X013187Y036817D01*
X013255Y036906D01*
X013298Y037009D01*
X013313Y03712D01*
X013298Y037231D01*
X013255Y037334D01*
X013187Y037423D01*
X013099Y037491D01*
X012995Y037534D01*
X012884Y037549D01*
X012773Y037534D01*
X01267Y037491D01*
X012663Y037486D01*
X012563Y037535D01*
Y03841D01*
X014324Y040172D01*
X01636D01*
X016428Y040185D01*
X016486Y040224D01*
X016927Y040665D01*
X017575D01*
Y041515D01*
X016625D01*
Y040867D01*
X016286Y040528D01*
X01425D01*
X014182Y040515D01*
X014124Y040476D01*
X012258Y03861D01*
X012219Y038553D01*
X012206Y038484D01*
Y037535D01*
X012106Y037486D01*
X012099Y037491D01*
X011995Y037534D01*
X011884Y037549D01*
X011773Y037534D01*
X01167Y037491D01*
X011581Y037423D01*
X011513Y037334D01*
X01147Y037231D01*
X011456Y03712D01*
X01147Y037009D01*
X011513Y036906D01*
X011581Y036817D01*
X01167Y036749D01*
X011706Y036734D01*
Y036216D01*
X011719Y036147D01*
X011758Y03609D01*
X013524Y034324D01*
X013524Y034324D01*
X013582Y034285D01*
X01365Y034272D01*
X01365Y034272D01*
X026D01*
X026068Y034285D01*
X026126Y034324D01*
X027867Y036064D01*
X027905Y036122D01*
X027919Y036191D01*
X027914Y036216D01*
Y03692D01*
X027901Y036986D01*
X027863Y037042D01*
X027773Y037133D01*
X027716Y03717D01*
X02765Y037184D01*
X02759D01*
Y037614D01*
X027611Y037618D01*
X027667Y037655D01*
X027997Y037985D01*
X028034Y038041D01*
X028048Y038108D01*
Y039325D01*
X028224D01*
Y040075D01*
X028152D01*
Y040175D01*
X028224D01*
Y040832D01*
X028365Y040973D01*
X029135D01*
X0293Y040808D01*
Y040175D01*
X029373D01*
Y040075D01*
X0293D01*
Y039545D01*
X028777Y039023D01*
X02874Y038966D01*
X028727Y0389D01*
Y038D01*
X02874Y037934D01*
X028777Y037877D01*
X028999Y037655D01*
X029056Y037618D01*
X029122Y037605D01*
X0295D01*
X029517Y037608D01*
X02989D01*
Y037608D01*
X029971Y037563D01*
X030001Y037539D01*
X029987Y037462D01*
X029975Y037439D01*
X028816D01*
X02875Y037426D01*
X028694Y037389D01*
X028694Y037389D01*
X028377Y037073D01*
X02834Y037016D01*
X028327Y03695D01*
Y035329D01*
X026724Y033726D01*
X026685Y033668D01*
X026672Y0336D01*
Y033111D01*
X026671Y033111D01*
X026596Y033054D01*
X026539Y032979D01*
X026503Y032893D01*
X026491Y0328D01*
X026503Y032707D01*
X026539Y032621D01*
X026596Y032546D01*
X026671Y032489D01*
X026757Y032453D01*
X02685Y032441D01*
X026943Y032453D01*
X027029Y032489D01*
X027104Y032546D01*
X027161Y032621D01*
X027197Y032707D01*
X027209Y0328D01*
X027197Y032893D01*
X027161Y032979D01*
X027104Y033054D01*
X027029Y033111D01*
X027028Y033111D01*
Y033526D01*
X027574Y034072D01*
X027618Y034062D01*
X027672Y034028D01*
Y033111D01*
X027671Y033111D01*
X027596Y033054D01*
X027539Y032979D01*
X027503Y032893D01*
X027491Y0328D01*
X027503Y032707D01*
X027539Y032621D01*
X027596Y032546D01*
X027671Y032489D01*
X027757Y032453D01*
X02785Y032441D01*
X027943Y032453D01*
X028029Y032489D01*
X028104Y032546D01*
X028161Y032621D01*
X028197Y032707D01*
X028209Y0328D01*
X028197Y032893D01*
X028161Y032979D01*
X028104Y033054D01*
X028029Y033111D01*
X028028Y033111D01*
Y033983D01*
X028774Y034729D01*
X028867Y034691D01*
Y033174D01*
X02885Y033159D01*
X028757Y033147D01*
X028671Y033111D01*
X028596Y033054D01*
X028539Y032979D01*
X028503Y032893D01*
X028491Y0328D01*
X028503Y032707D01*
X028539Y032621D01*
X028596Y032546D01*
X028671Y032489D01*
X028757Y032453D01*
X02885Y032441D01*
X028943Y032453D01*
X029029Y032489D01*
X029104Y032546D01*
X029161Y032621D01*
X029197Y032707D01*
X029209Y0328D01*
X029197Y032893D01*
X02919Y032909D01*
X0292Y032924D01*
X029213Y03299D01*
X029213Y03299D01*
Y036328D01*
X029483D01*
X0295Y036325D01*
X030908D01*
X030915Y036324D01*
X030921Y036322D01*
X030923Y036321D01*
X030923Y036319D01*
X030925Y036314D01*
X030927Y036306D01*
Y034122D01*
X029949Y033144D01*
X029943Y033147D01*
X02985Y033159D01*
X029757Y033147D01*
X029671Y033111D01*
X029596Y033054D01*
X029539Y032979D01*
X029503Y032893D01*
X029491Y0328D01*
X029503Y032707D01*
X029539Y032621D01*
X029596Y032546D01*
X029671Y032489D01*
X029757Y032453D01*
X02985Y032441D01*
X029943Y032453D01*
X030029Y032489D01*
X030104Y032546D01*
X030161Y032621D01*
X030197Y032707D01*
X030209Y0328D01*
X030197Y032893D01*
X030194Y032899D01*
X031223Y033927D01*
X03126Y033984D01*
X031273Y03405D01*
Y036306D01*
X031275Y036314D01*
X031277Y036319D01*
X031277Y036321D01*
X031279Y036322D01*
X031285Y036324D01*
X031292Y036325D01*
X032898D01*
X032965Y036338D01*
X033021Y036376D01*
X035647Y039002D01*
X035648Y039001D01*
X035746Y03896D01*
X03585Y038947D01*
X035954Y03896D01*
X036052Y039001D01*
X036135Y039065D01*
X036238Y039034D01*
X036245Y03899D01*
X035983Y038728D01*
X035954Y03874D01*
X03585Y038753D01*
X035746Y03874D01*
X035648Y038699D01*
X035565Y038635D01*
X035501Y038552D01*
X03546Y038454D01*
X035447Y03835D01*
X03546Y038246D01*
X035501Y038148D01*
X035565Y038065D01*
X035648Y038001D01*
X035746Y03796D01*
X03585Y037947D01*
X035954Y03796D01*
X036052Y038001D01*
X036135Y038065D01*
X036199Y038148D01*
X03624Y038246D01*
X036253Y03835D01*
X03624Y038454D01*
X036228Y038483D01*
X036573Y038827D01*
X03661Y038884D01*
X036623Y03895D01*
Y0395D01*
X03661Y039566D01*
X036573Y039623D01*
X036223Y039973D01*
X036198Y039989D01*
X036193Y039995D01*
X03617Y040088D01*
X036171Y040111D01*
X036199Y040148D01*
X03624Y040246D01*
X036253Y04035D01*
X03624Y040454D01*
X036199Y040552D01*
X036135Y040635D01*
X036052Y040699D01*
X035954Y04074D01*
X03585Y040753D01*
X035746Y04074D01*
X035648Y040699D01*
X035565Y040635D01*
X035501Y040552D01*
X03546Y040454D01*
X035447Y04035D01*
X03546Y040246D01*
X035501Y040148D01*
X03552Y040123D01*
X03547Y040023D01*
X03475D01*
X034684Y04001D01*
X034627Y039973D01*
X032106Y037451D01*
X032004Y037491D01*
X032001Y037517D01*
X031975Y03758D01*
X031934Y037634D01*
X03188Y037675D01*
X031817Y037701D01*
X03175Y03771D01*
X031683Y037701D01*
X03162Y037675D01*
X031566Y037634D01*
X031558Y037623D01*
X031235D01*
X031168Y03761D01*
X031112Y037573D01*
X030979Y037439D01*
X030325D01*
X030313Y037462D01*
X030299Y037539D01*
X030334Y037566D01*
X030375Y03762D01*
X030401Y037683D01*
X030405Y037716D01*
X030508Y03773D01*
X030512Y03772D01*
X030553Y037666D01*
X030607Y037625D01*
X030669Y037599D01*
X030737Y03759D01*
X030804Y037599D01*
X030867Y037625D01*
X03092Y037666D01*
X030962Y03772D01*
X030988Y037783D01*
X030996Y03785D01*
X030988Y037917D01*
X030962Y03798D01*
X03092Y038034D01*
X030899Y03805D01*
X030897Y038061D01*
X030859Y038117D01*
X030859Y038117D01*
X030564Y038412D01*
X030508Y03845D01*
X030442Y038463D01*
X03025D01*
X030211Y038555D01*
X030843Y039187D01*
X030882Y039245D01*
X030895Y039313D01*
Y040593D01*
X035006Y044704D01*
X035045Y044762D01*
X035058Y04483D01*
Y048564D01*
X035094Y048579D01*
X035183Y048647D01*
X035251Y048736D01*
X035294Y048839D01*
X035309Y04895D01*
Y04905D01*
X035294Y049161D01*
X035251Y049264D01*
X035207Y049323D01*
X035246Y049419D01*
X03525Y049423D01*
X038985D01*
X039075Y049333D01*
Y049D01*
X039825D01*
Y049073D01*
X040585D01*
X041225Y048433D01*
Y047925D01*
X041733D01*
X042083Y047575D01*
X042041Y047475D01*
X042003Y047475D01*
X041235D01*
Y047003D01*
X040635Y046403D01*
X039825D01*
Y04645D01*
X039075D01*
Y046403D01*
X0377D01*
X037622Y046392D01*
X037549Y046362D01*
X037486Y046314D01*
X036825Y045653D01*
X036113D01*
X036052Y045699D01*
X035954Y04574D01*
X03585Y045753D01*
X035746Y04574D01*
X035648Y045699D01*
X035565Y045635D01*
X035501Y045552D01*
X03546Y045454D01*
X035447Y04535D01*
X03546Y045246D01*
X035501Y045148D01*
X035565Y045065D01*
X035648Y045001D01*
X035746Y04496D01*
X03585Y044947D01*
X035954Y04496D01*
X036052Y045001D01*
X036113Y045047D01*
X03695D01*
X037028Y045058D01*
X037101Y045088D01*
X037164Y045136D01*
X037825Y045797D01*
X039075D01*
Y04575D01*
X039825D01*
Y045797D01*
X04076D01*
X040838Y045808D01*
X040911Y045838D01*
X040974Y045886D01*
X041613Y046525D01*
X042085D01*
Y047388D01*
X042085Y047431D01*
X042185Y047473D01*
X045273Y044385D01*
Y042618D01*
X038258D01*
X038186Y042609D01*
X038119Y042581D01*
X038062Y042537D01*
X037454Y041929D01*
X03741Y041871D01*
X037382Y041804D01*
X037373Y041733D01*
Y040525D01*
X0373D01*
Y039775D01*
X037423D01*
Y039223D01*
X037397Y039203D01*
X037329Y039114D01*
X037286Y039011D01*
X037271Y0389D01*
X037286Y038789D01*
X037329Y038686D01*
X037397Y038597D01*
X037486Y038529D01*
X037589Y038486D01*
X0377Y038471D01*
X037811Y038486D01*
X037914Y038529D01*
X038003Y038597D01*
X038071Y038686D01*
X038114Y038789D01*
X038129Y0389D01*
X038114Y039011D01*
X038071Y039114D01*
X038003Y039203D01*
X037977Y039223D01*
Y039775D01*
X038D01*
Y040525D01*
X037927D01*
Y041618D01*
X038373Y042064D01*
X03918D01*
X03923Y042061D01*
X039276Y042053D01*
X039313Y04204D01*
X039342Y042025D01*
X039365Y042006D01*
X039384Y041983D01*
X0394Y041954D01*
X039412Y041917D01*
X03942Y041871D01*
X039423Y041821D01*
Y04145D01*
X039325D01*
Y04075D01*
X040075D01*
Y04145D01*
X039977D01*
Y041821D01*
X03998Y041871D01*
X039988Y041917D01*
X04Y041954D01*
X040016Y041983D01*
X040035Y042006D01*
X040058Y042025D01*
X040087Y04204D01*
X040124Y042053D01*
X04017Y042061D01*
X0402Y042062D01*
X04023Y042061D01*
X040276Y042053D01*
X040313Y04204D01*
X040342Y042025D01*
X040365Y042006D01*
X040384Y041983D01*
X0404Y041954D01*
X040412Y041917D01*
X04042Y041871D01*
X040423Y041821D01*
Y04145D01*
X040325D01*
Y04075D01*
X041075D01*
Y04145D01*
X040977D01*
Y041821D01*
X04098Y041871D01*
X040988Y041917D01*
X041Y041954D01*
X041016Y041983D01*
X041035Y042006D01*
X041058Y042025D01*
X041087Y04204D01*
X041124Y042053D01*
X04117Y042061D01*
X04122Y042064D01*
X045273D01*
X045273Y031665D01*
X044635Y031027D01*
X036045D01*
X035973Y031018D01*
X035906Y03099D01*
X035849Y030946D01*
X035453Y03055D01*
X03512D01*
Y02985D01*
X03587D01*
Y030183D01*
X03616Y030473D01*
X038875D01*
X038925Y03047D01*
X038971Y030462D01*
X039008Y03045D01*
X03902Y030443D01*
Y02985D01*
X03977D01*
Y030443D01*
X039782Y03045D01*
X039819Y030462D01*
X039865Y03047D01*
X039915Y030473D01*
X042742D01*
X042791Y03047D01*
X042837Y030462D01*
X042874Y03045D01*
X042887Y030443D01*
Y02985D01*
X043637D01*
Y030443D01*
X043649Y03045D01*
X043686Y030462D01*
X043732Y03047D01*
X043781Y030473D01*
X04475D01*
X044822Y030482D01*
X044889Y03051D01*
X044946Y030554D01*
X045746Y031354D01*
X04579Y031411D01*
X045818Y031478D01*
X045827Y03155D01*
X045827Y04235D01*
Y0445D01*
X045827Y0445D01*
X045818Y044572D01*
X04579Y044639D01*
X045746Y044696D01*
X042075Y048367D01*
Y048875D01*
X041567D01*
X040896Y049546D01*
X040839Y04959D01*
X040772Y049618D01*
X0407Y049627D01*
X039825D01*
Y0497D01*
X039492D01*
X039345Y049847D01*
X039387Y049947D01*
X046447D01*
Y020003D01*
D02*
G37*
G36*
X0321Y0455D02*
X031605Y045253D01*
X03165Y045302D01*
X031684Y045352D01*
X031709Y045401D01*
X031724Y045451D01*
X031729Y0455D01*
X031724Y04555D01*
X031709Y045599D01*
X031684Y045648D01*
X03165Y045698D01*
X031605Y045747D01*
X031853Y045995D01*
X031902Y04595D01*
X031952Y045916D01*
X032001Y045891D01*
X03205Y045876D01*
X0321Y045871D01*
X03215Y045876D01*
X032199Y045891D01*
X032248Y045916D01*
X032298Y04595D01*
X032347Y045995D01*
X0321Y0455D01*
D02*
G37*
G36*
X026779Y043843D02*
X026789Y043784D01*
X026806Y043731D01*
X026831Y043686D01*
X026862Y043647D01*
X026901Y043616D01*
X026946Y043591D01*
X026999Y043574D01*
X027058Y043563D01*
X027125Y04356D01*
X0266Y04321D01*
X026075Y04356D01*
X026142Y043563D01*
X026201Y043574D01*
X026253Y043591D01*
X026299Y043616D01*
X026337Y043647D01*
X026369Y043686D01*
X026393Y043731D01*
X026411Y043784D01*
X026421Y043843D01*
X026425Y04391D01*
X026775D01*
X026779Y043843D01*
D02*
G37*
G36*
X029275Y04321D02*
X029209Y043206D01*
X029149Y043196D01*
X029097Y043178D01*
X029051Y043154D01*
X029012Y043122D01*
X028981Y043084D01*
X028956Y043038D01*
X028939Y042986D01*
X028928Y042926D01*
X028925Y04286D01*
X028575D01*
X028572Y042926D01*
X028561Y042986D01*
X028544Y043038D01*
X028519Y043084D01*
X028488Y043122D01*
X028449Y043154D01*
X028403Y043178D01*
X028351Y043196D01*
X028291Y043206D01*
X028225Y04321D01*
X02875Y04356D01*
X029275Y04321D01*
D02*
G37*
G36*
X041225Y042166D02*
X041158Y042162D01*
X041099Y042152D01*
X041047Y042134D01*
X041001Y04211D01*
X040963Y042078D01*
X040931Y04204D01*
X040907Y041994D01*
X040889Y041942D01*
X040879Y041882D01*
X040875Y041816D01*
X040525D01*
X040521Y041882D01*
X040511Y041942D01*
X040493Y041994D01*
X040469Y04204D01*
X040437Y042078D01*
X040399Y04211D01*
X040353Y042134D01*
X040301Y042152D01*
X040241Y042162D01*
X0402Y042165D01*
X040159Y042162D01*
X040099Y042152D01*
X040047Y042134D01*
X040001Y04211D01*
X039962Y042078D01*
X039931Y04204D01*
X039906Y041994D01*
X039889Y041942D01*
X039878Y041882D01*
X039875Y041816D01*
X039525D01*
X039522Y041882D01*
X039511Y041942D01*
X039494Y041994D01*
X039469Y04204D01*
X039437Y042078D01*
X039399Y04211D01*
X039353Y042134D01*
X039301Y042152D01*
X039241Y042162D01*
X039175Y042166D01*
X0397Y042516D01*
X0402Y042183D01*
X0407Y042516D01*
X041225Y042166D01*
D02*
G37*
G36*
X02828Y043105D02*
X028326Y043097D01*
X028363Y043084D01*
X028392Y043068D01*
X028415Y04305D01*
X028434Y043027D01*
X02845Y042998D01*
X028462Y042961D01*
X02847Y042915D01*
X028473Y042865D01*
Y041769D01*
X02847Y041719D01*
X028463Y041672D01*
X028451Y041635D01*
X028436Y041605D01*
X028419Y041582D01*
X028398Y041564D01*
X028373Y041549D01*
X02834Y041538D01*
X028299Y04153D01*
X028254Y041527D01*
X02825D01*
X028247Y041527D01*
X028244Y041527D01*
X028243Y041526D01*
X028235Y041525D01*
X028232Y041525D01*
X028231Y041525D01*
X028178Y041518D01*
X028111Y04149D01*
X028054Y041446D01*
X027678Y04107D01*
X027634Y041013D01*
X027606Y040946D01*
X027604Y040925D01*
X027524D01*
Y040175D01*
X027597D01*
Y040075D01*
X027524D01*
Y039325D01*
X027701D01*
Y038261D01*
X02769Y038253D01*
X02759Y0383D01*
Y038376D01*
X02759D01*
Y038716D01*
X02759D01*
Y038972D01*
X027217D01*
X0272Y038975D01*
X026822D01*
X026623Y039173D01*
Y040239D01*
X02661Y040305D01*
X026573Y040362D01*
X025632Y041302D01*
X025576Y041339D01*
X02551Y041353D01*
X023829D01*
X023759Y04144D01*
X023756Y041463D01*
X0254Y043107D01*
X02823D01*
X02828Y043105D01*
D02*
G37*
G36*
X028928Y041708D02*
X028938Y041649D01*
X028954Y041596D01*
X028977Y041551D01*
X029006Y041512D01*
X029042Y041481D01*
X029084Y041456D01*
X029133Y041439D01*
X029188Y041428D01*
X02925Y041425D01*
X02875Y041075D01*
X02825Y041425D01*
X028312Y041428D01*
X028367Y041439D01*
X028416Y041456D01*
X028458Y041481D01*
X028494Y041512D01*
X028523Y041551D01*
X028546Y041596D01*
X028562Y041649D01*
X028572Y041708D01*
X028575Y041775D01*
X028925D01*
X028928Y041708D01*
D02*
G37*
G36*
X033471Y049023D02*
Y04895D01*
X033486Y048839D01*
X033529Y048736D01*
X033597Y048647D01*
X033686Y048579D01*
X033722Y048564D01*
Y044474D01*
X030224Y040976D01*
X030185Y040918D01*
X030172Y04085D01*
Y039374D01*
X030084Y039286D01*
X03Y039344D01*
Y040075D01*
X029927D01*
Y040175D01*
X03D01*
Y040925D01*
X029917D01*
X02989Y040989D01*
X029846Y041046D01*
X029446Y041446D01*
X029389Y04149D01*
X029322Y041518D01*
X029269Y041525D01*
X029268Y041525D01*
X029265Y041525D01*
X029257Y041526D01*
X029256Y041527D01*
X029253Y041527D01*
X02925Y041527D01*
X029246D01*
X029201Y04153D01*
X02916Y041538D01*
X029127Y041549D01*
X029102Y041564D01*
X029081Y041582D01*
X029064Y041605D01*
X029049Y041635D01*
X029037Y041672D01*
X02903Y041719D01*
X029027Y041769D01*
Y042865D01*
X02903Y042915D01*
X029038Y042961D01*
X02905Y042998D01*
X029066Y043027D01*
X029085Y04305D01*
X029108Y043068D01*
X029137Y043084D01*
X029174Y043097D01*
X02922Y043105D01*
X02927Y043107D01*
X029985D01*
X030056Y043117D01*
X030123Y043144D01*
X030181Y043188D01*
X032296Y045304D01*
X032296Y045304D01*
X033086Y046094D01*
X03313Y046151D01*
X033158Y046218D01*
X033167Y04629D01*
Y047175D01*
X0332D01*
Y047925D01*
X033167D01*
Y048627D01*
X033193Y048647D01*
X033261Y048736D01*
X033304Y048839D01*
X033319Y04895D01*
Y04902D01*
X03338Y049068D01*
X033471Y049023D01*
D02*
G37*
G36*
X025872Y039926D02*
Y03915D01*
X025885Y039082D01*
X025924Y039024D01*
X026387Y038561D01*
X026349Y038468D01*
X02609D01*
X02609Y038468D01*
X026021Y038455D01*
X025964Y038416D01*
X025964Y038416D01*
X025592Y038045D01*
X0255Y038083D01*
Y038125D01*
X025328D01*
Y0383D01*
X025328Y0383D01*
X025315Y038368D01*
X025276Y038426D01*
X025276Y038426D01*
X02515Y038552D01*
Y03989D01*
X02514Y0399D01*
X024817D01*
X024779Y039992D01*
X024962Y040175D01*
X02545D01*
Y040217D01*
X025542Y040255D01*
X025872Y039926D01*
D02*
G37*
G36*
X022939Y040621D02*
X023027Y04055D01*
Y039826D01*
X023022Y0398D01*
Y039654D01*
X020868Y0375D01*
X020814Y037541D01*
X020711Y037584D01*
X0206Y037599D01*
X020489Y037584D01*
X020386Y037541D01*
X020297Y037473D01*
X020229Y037384D01*
X020186Y037281D01*
X020171Y03717D01*
Y03707D01*
X020186Y036959D01*
X02022Y036876D01*
X020135Y03682D01*
X020002Y036953D01*
X020004Y036959D01*
X020019Y03707D01*
Y03717D01*
X020004Y037281D01*
X019961Y037384D01*
X019893Y037473D01*
X019804Y037541D01*
X019701Y037584D01*
X01959Y037599D01*
X019479Y037584D01*
X019376Y037541D01*
X019287Y037473D01*
X019219Y037384D01*
X019176Y037281D01*
X019161Y03717D01*
Y03707D01*
X019176Y036959D01*
X019219Y036856D01*
X019287Y036767D01*
X019376Y036699D01*
X019479Y036656D01*
X01959Y036641D01*
X019701Y036656D01*
X019777Y036688D01*
X020187Y036277D01*
X020244Y03624D01*
X02031Y036227D01*
X02508D01*
X025121Y036127D01*
X025018Y036023D01*
X020026D01*
X02Y036028D01*
X018944D01*
X018372Y0366D01*
X018429Y036685D01*
X018499Y036656D01*
X01861Y036641D01*
X018721Y036656D01*
X018824Y036699D01*
X018913Y036767D01*
X018981Y036856D01*
X019024Y036959D01*
X019039Y03707D01*
Y03717D01*
X019024Y037281D01*
X018981Y037384D01*
X018913Y037473D01*
X018824Y037541D01*
X018721Y037584D01*
X01861Y037599D01*
X018499Y037584D01*
X018396Y037541D01*
X018307Y037473D01*
X018239Y037384D01*
X018196Y037281D01*
X018181Y03717D01*
Y03707D01*
X018196Y036959D01*
X018225Y036889D01*
X01814Y036832D01*
X018014Y036958D01*
X018014Y036959D01*
X018029Y03707D01*
Y03717D01*
X018014Y037281D01*
X017971Y037384D01*
X017903Y037473D01*
X017814Y037541D01*
X017711Y037584D01*
X0176Y037599D01*
X017489Y037584D01*
X017386Y037541D01*
X017297Y037473D01*
X017229Y037384D01*
X017186Y037281D01*
X017171Y03717D01*
Y03707D01*
X017186Y036959D01*
X017229Y036856D01*
X017297Y036767D01*
X017386Y036699D01*
X017489Y036656D01*
X0176Y036641D01*
X017711Y036656D01*
X017782Y036685D01*
X018744Y035724D01*
X018744Y035724D01*
X018802Y035685D01*
X01887Y035672D01*
X02D01*
X020026Y035677D01*
X02509D01*
X025156Y03569D01*
X025212Y035727D01*
X026578Y037093D01*
X02681D01*
Y036924D01*
X026786Y036919D01*
X02677Y036908D01*
X026769Y036908D01*
X026711Y03687D01*
X026711Y03687D01*
X026609Y036767D01*
X026597Y036749D01*
X025126Y035278D01*
X016966D01*
X016933Y035357D01*
X01693Y035378D01*
X01697Y035431D01*
X016998Y035498D01*
X017007Y03557D01*
Y037451D01*
X017729Y038173D01*
X02035D01*
X020422Y038182D01*
X020489Y03821D01*
X020546Y038254D01*
X022916Y040623D01*
X022939Y040621D01*
D02*
G37*
G36*
X02475Y040925D02*
Y040468D01*
X024182Y0399D01*
X02385D01*
Y039892D01*
X023844D01*
Y039141D01*
X02385D01*
Y03825D01*
X024948D01*
X024972Y038226D01*
Y038125D01*
X0248D01*
Y037375D01*
X025249D01*
X025287Y037283D01*
X025113Y037108D01*
X0251Y03711D01*
X025033Y037101D01*
X02497Y037075D01*
X024916Y037034D01*
X024875Y03698D01*
X024849Y036917D01*
X02484Y03685D01*
X024849Y036783D01*
X024875Y03672D01*
X024911Y036673D01*
X024905Y036643D01*
X024873Y036573D01*
X020773D01*
X020753Y036673D01*
X020814Y036699D01*
X020903Y036767D01*
X020971Y036856D01*
X021014Y036959D01*
X021029Y03707D01*
Y037156D01*
X023326Y039454D01*
X023326Y039454D01*
X023365Y039512D01*
X023378Y03958D01*
Y0398D01*
X023373Y039826D01*
Y040478D01*
X023901Y041006D01*
X024704D01*
X02475Y040925D01*
D02*
G37*
G36*
X03552Y039577D02*
X035501Y039552D01*
X03546Y039454D01*
X035447Y03935D01*
X035453Y039298D01*
X032865Y03671D01*
X032803Y036718D01*
X032745Y036819D01*
X032751Y036833D01*
X03276Y0369D01*
X032751Y036967D01*
X032725Y03703D01*
X032684Y037084D01*
X03263Y037125D01*
X032567Y037151D01*
X0325Y03716D01*
X032438Y037152D01*
X03243Y037158D01*
X032391Y037246D01*
X034822Y039677D01*
X03547D01*
X03552Y039577D01*
D02*
G37*
G36*
X03131Y036428D02*
X031283Y036427D01*
X03126Y036423D01*
X031239Y036416D01*
X03122Y036406D01*
X031205Y036393D01*
X031192Y036378D01*
X031183Y03636D01*
X031176Y036339D01*
X031171Y036315D01*
X03117Y036288D01*
X03103D01*
X031029Y036315D01*
X031024Y036339D01*
X031017Y03636D01*
X031008Y036378D01*
X030995Y036393D01*
X03098Y036406D01*
X030961Y036416D01*
X03094Y036423D01*
X030917Y036427D01*
X03089Y036428D01*
X0311Y036568D01*
X03131Y036428D01*
D02*
G37*
G36*
X043787Y030575D02*
X04372Y030571D01*
X043661Y030561D01*
X043608Y030543D01*
X043563Y030519D01*
X043524Y030487D01*
X043493Y030449D01*
X043468Y030403D01*
X043451Y030351D01*
X04344Y030292D01*
X043437Y030225D01*
X043087D01*
X043083Y030292D01*
X043073Y030351D01*
X043055Y030403D01*
X043031Y030449D01*
X042999Y030487D01*
X042961Y030519D01*
X042915Y030543D01*
X042863Y030561D01*
X042803Y030571D01*
X042737Y030575D01*
X043262Y030925D01*
X043787Y030575D01*
D02*
G37*
G36*
X03992D02*
X039853Y030571D01*
X039794Y030561D01*
X039741Y030543D01*
X039696Y030519D01*
X039657Y030487D01*
X039626Y030449D01*
X039602Y030403D01*
X039584Y030351D01*
X039574Y030292D01*
X03957Y030225D01*
X03922D01*
X039216Y030292D01*
X039206Y030351D01*
X039188Y030403D01*
X039164Y030449D01*
X039132Y030487D01*
X039094Y030519D01*
X039049Y030543D01*
X038996Y030561D01*
X038937Y030571D01*
X03887Y030575D01*
X039395Y030925D01*
X03992Y030575D01*
D02*
G37*
%LPC*%
G36*
X03058Y049436D02*
X029947D01*
Y048764D01*
X030085D01*
Y048322D01*
X02998D01*
Y047572D01*
X03068D01*
Y048322D01*
X030442D01*
Y048764D01*
X03058D01*
Y049436D01*
D02*
G37*
G36*
X04475Y049144D02*
X044595Y049129D01*
X044446Y049083D01*
X044309Y04901D01*
X044189Y048911D01*
X04409Y048791D01*
X044017Y048654D01*
X043971Y048505D01*
X043956Y04835D01*
X043971Y048195D01*
X044017Y048046D01*
X04409Y047909D01*
X044189Y047789D01*
X044309Y04769D01*
X044446Y047617D01*
X044595Y047571D01*
X04475Y047556D01*
X044905Y047571D01*
X045054Y047617D01*
X045191Y04769D01*
X045311Y047789D01*
X04541Y047909D01*
X045483Y048046D01*
X045529Y048195D01*
X045544Y04835D01*
X045529Y048505D01*
X045483Y048654D01*
X04541Y048791D01*
X045311Y048911D01*
X045191Y04901D01*
X045054Y049083D01*
X044905Y049129D01*
X04475Y049144D01*
D02*
G37*
G36*
X0113D02*
X011145Y049129D01*
X010996Y049083D01*
X010859Y04901D01*
X010739Y048911D01*
X01064Y048791D01*
X010567Y048654D01*
X010521Y048505D01*
X010506Y04835D01*
X010521Y048195D01*
X010567Y048046D01*
X01064Y047909D01*
X010739Y047789D01*
X010859Y04769D01*
X010996Y047617D01*
X011145Y047571D01*
X0113Y047556D01*
X011455Y047571D01*
X011604Y047617D01*
X011741Y04769D01*
X011861Y047789D01*
X01196Y047909D01*
X012033Y048046D01*
X012079Y048195D01*
X012094Y04835D01*
X012079Y048505D01*
X012033Y048654D01*
X01196Y048791D01*
X011861Y048911D01*
X011741Y04901D01*
X011604Y049083D01*
X011455Y049129D01*
X0113Y049144D01*
D02*
G37*
G36*
X029803Y047036D02*
X02917D01*
Y046364D01*
X029308D01*
Y045975D01*
X02907D01*
Y045225D01*
X02977D01*
Y045975D01*
X029665D01*
Y046364D01*
X029803D01*
Y047036D01*
D02*
G37*
G36*
X019072Y046854D02*
X018203D01*
Y045946D01*
X018234D01*
Y045244D01*
X018144D01*
Y044257D01*
X019131D01*
Y045244D01*
X019041D01*
Y045946D01*
X019072D01*
Y046047D01*
X0201D01*
X020123Y04605D01*
X020475D01*
Y046123D01*
X021135D01*
X021315Y045943D01*
Y044895D01*
X021885D01*
Y046075D01*
X021874D01*
X021868Y046122D01*
X02184Y046189D01*
X021796Y046246D01*
X021446Y046596D01*
X021389Y04664D01*
X021322Y046668D01*
X02125Y046677D01*
X020475D01*
Y04675D01*
X020123D01*
X0201Y046753D01*
X019072D01*
Y046854D01*
D02*
G37*
G36*
X01325Y04665D02*
X01205D01*
Y04485D01*
X01325D01*
Y04665D01*
D02*
G37*
G36*
X01745Y045352D02*
X01385D01*
X01384Y04535D01*
X01375D01*
Y04526D01*
X013748Y04525D01*
Y04425D01*
X01375Y04424D01*
Y04415D01*
X01384D01*
X01385Y044148D01*
X01745D01*
X017489Y044156D01*
X017522Y044178D01*
X017544Y044211D01*
X017552Y04425D01*
Y044257D01*
X017556D01*
Y045244D01*
X017552D01*
Y04525D01*
X017544Y045289D01*
X017522Y045322D01*
X017489Y045344D01*
X01745Y045352D01*
D02*
G37*
G36*
X0199Y042539D02*
X0198D01*
X019689Y042524D01*
X019586Y042481D01*
X019497Y042413D01*
X019489Y042403D01*
X017454D01*
X017453Y042403D01*
X017364Y042471D01*
X017261Y042514D01*
X01715Y042529D01*
X01705D01*
X016939Y042514D01*
X016836Y042471D01*
X016779Y042428D01*
X0163D01*
X016215Y042417D01*
X016136Y042384D01*
X016068Y042332D01*
X015814Y042078D01*
X0154D01*
Y0422D01*
X0142D01*
Y042078D01*
X014D01*
X013958Y042072D01*
X013915Y042067D01*
X013836Y042034D01*
X013768Y041982D01*
X013586Y0418D01*
X011979D01*
X011957Y041829D01*
X011852Y041909D01*
X011731Y041959D01*
X0116Y041976D01*
X011469Y041959D01*
X011348Y041909D01*
X011243Y041829D01*
X011163Y041724D01*
X011113Y041603D01*
X011096Y041472D01*
X011113Y041342D01*
X011163Y04122D01*
X011243Y041115D01*
X011348Y041035D01*
X011396Y041015D01*
Y040086D01*
X011347D01*
Y039414D01*
X01198D01*
Y040086D01*
X011804D01*
Y041015D01*
X011852Y041035D01*
X011957Y041115D01*
X011979Y041144D01*
X013722D01*
X013764Y04115D01*
X013807Y041155D01*
X013886Y041188D01*
X013954Y04124D01*
X0141Y041386D01*
X0142Y041345D01*
Y0413D01*
X0154D01*
Y041422D01*
X01595D01*
X015992Y041428D01*
X016035Y041433D01*
X016114Y041466D01*
X016182Y041518D01*
X016436Y041772D01*
X016779D01*
X016836Y041729D01*
X016939Y041686D01*
X01705Y041671D01*
X01715D01*
X017261Y041686D01*
X017364Y041729D01*
X017453Y041797D01*
X017454Y041797D01*
X019509D01*
X019586Y041739D01*
X019689Y041696D01*
X0198Y041681D01*
X0199D01*
X020011Y041696D01*
X020114Y041739D01*
X020203Y041807D01*
X020271Y041896D01*
X020314Y041999D01*
X020329Y04211D01*
X020314Y042221D01*
X020271Y042324D01*
X020203Y042413D01*
X020114Y042481D01*
X020011Y042524D01*
X0199Y042539D01*
D02*
G37*
G36*
X03585Y042753D02*
X035746Y04274D01*
X035648Y042699D01*
X035565Y042635D01*
X035501Y042552D01*
X03546Y042454D01*
X035447Y04235D01*
X03546Y042246D01*
X035501Y042148D01*
X035565Y042065D01*
X035648Y042001D01*
X035746Y04196D01*
X03585Y041947D01*
X035954Y04196D01*
X036052Y042001D01*
X036135Y042065D01*
X036199Y042148D01*
X03624Y042246D01*
X036253Y04235D01*
X03624Y042454D01*
X036199Y042552D01*
X036135Y042635D01*
X036052Y042699D01*
X035954Y04274D01*
X03585Y042753D01*
D02*
G37*
G36*
Y041753D02*
X035746Y04174D01*
X035648Y041699D01*
X035565Y041635D01*
X035501Y041552D01*
X03546Y041454D01*
X035447Y04135D01*
X03546Y041246D01*
X035501Y041148D01*
X035565Y041065D01*
X035648Y041001D01*
X035746Y04096D01*
X03585Y040947D01*
X035954Y04096D01*
X036052Y041001D01*
X036135Y041065D01*
X036199Y041148D01*
X03624Y041246D01*
X036253Y04135D01*
X03624Y041454D01*
X036199Y041552D01*
X036135Y041635D01*
X036052Y041699D01*
X035954Y04174D01*
X03585Y041753D01*
D02*
G37*
G36*
X020325Y041525D02*
X019375D01*
Y040675D01*
X020325D01*
Y041525D01*
D02*
G37*
G36*
X0447Y039329D02*
X044589Y039314D01*
X044486Y039271D01*
X044397Y039203D01*
X044329Y039114D01*
X044286Y039011D01*
X044271Y0389D01*
X044286Y038789D01*
X044329Y038686D01*
X044397Y038597D01*
X044486Y038529D01*
X044589Y038486D01*
X0447Y038471D01*
X044811Y038486D01*
X044914Y038529D01*
X045003Y038597D01*
X045071Y038686D01*
X045114Y038789D01*
X045129Y0389D01*
X045114Y039011D01*
X045071Y039114D01*
X045003Y039203D01*
X044914Y039271D01*
X044811Y039314D01*
X0447Y039329D01*
D02*
G37*
G36*
X0437D02*
X043589Y039314D01*
X043486Y039271D01*
X043397Y039203D01*
X043329Y039114D01*
X043286Y039011D01*
X043271Y0389D01*
X043286Y038789D01*
X043329Y038686D01*
X043397Y038597D01*
X043486Y038529D01*
X043589Y038486D01*
X0437Y038471D01*
X043811Y038486D01*
X043914Y038529D01*
X044003Y038597D01*
X044071Y038686D01*
X044114Y038789D01*
X044129Y0389D01*
X044114Y039011D01*
X044071Y039114D01*
X044003Y039203D01*
X043914Y039271D01*
X043811Y039314D01*
X0437Y039329D01*
D02*
G37*
G36*
X0427D02*
X042589Y039314D01*
X042486Y039271D01*
X042397Y039203D01*
X042329Y039114D01*
X042286Y039011D01*
X042271Y0389D01*
X042286Y038789D01*
X042329Y038686D01*
X042397Y038597D01*
X042486Y038529D01*
X042589Y038486D01*
X0427Y038471D01*
X042811Y038486D01*
X042914Y038529D01*
X043003Y038597D01*
X043071Y038686D01*
X043114Y038789D01*
X043129Y0389D01*
X043114Y039011D01*
X043071Y039114D01*
X043003Y039203D01*
X042914Y039271D01*
X042811Y039314D01*
X0427Y039329D01*
D02*
G37*
G36*
X0417D02*
X041589Y039314D01*
X041486Y039271D01*
X041397Y039203D01*
X041329Y039114D01*
X041286Y039011D01*
X041271Y0389D01*
X041286Y038789D01*
X041329Y038686D01*
X041397Y038597D01*
X041486Y038529D01*
X041589Y038486D01*
X0417Y038471D01*
X041811Y038486D01*
X041914Y038529D01*
X042003Y038597D01*
X042071Y038686D01*
X042114Y038789D01*
X042129Y0389D01*
X042114Y039011D01*
X042071Y039114D01*
X042003Y039203D01*
X041914Y039271D01*
X041811Y039314D01*
X0417Y039329D01*
D02*
G37*
G36*
X040075Y04055D02*
X039325D01*
Y03985D01*
X039522D01*
Y039286D01*
X039486Y039271D01*
X039397Y039203D01*
X039329Y039114D01*
X039286Y039011D01*
X039271Y0389D01*
X039286Y038789D01*
X039306Y03874D01*
X03929Y038717D01*
X039277Y03865D01*
Y035869D01*
X039261Y035862D01*
X039183Y035802D01*
X039122Y035724D01*
X039084Y035632D01*
X039072Y035534D01*
X039084Y035436D01*
X039122Y035345D01*
X039183Y035266D01*
X039261Y035206D01*
X039352Y035168D01*
X03945Y035155D01*
X039548Y035168D01*
X03964Y035206D01*
X039718Y035266D01*
X039778Y035345D01*
X039816Y035436D01*
X039829Y035534D01*
X039816Y035632D01*
X039778Y035724D01*
X039718Y035802D01*
X03964Y035862D01*
X039624Y035869D01*
Y038406D01*
X039699Y038471D01*
X0397Y038471D01*
X039811Y038486D01*
X039914Y038529D01*
X040003Y038597D01*
X040071Y038686D01*
X040114Y038789D01*
X040129Y0389D01*
X040114Y039011D01*
X040071Y039114D01*
X040003Y039203D01*
X039914Y039271D01*
X039878Y039286D01*
Y03985D01*
X040075D01*
Y04055D01*
D02*
G37*
G36*
X011153Y040086D02*
X01052D01*
Y039414D01*
X010572D01*
Y039125D01*
X0104D01*
Y038375D01*
X0111D01*
Y039125D01*
X010928D01*
Y039414D01*
X011153D01*
Y040086D01*
D02*
G37*
G36*
X03585Y037753D02*
X035746Y03774D01*
X035648Y037699D01*
X035565Y037635D01*
X035501Y037552D01*
X03546Y037454D01*
X035447Y03735D01*
X03546Y037248D01*
X034606Y036394D01*
X034562Y036328D01*
X034546Y03625D01*
Y0343D01*
X034562Y034222D01*
X034606Y034156D01*
X036906Y031856D01*
X036972Y031812D01*
X03705Y031796D01*
X043425D01*
Y031575D01*
X044475D01*
Y032425D01*
X043425D01*
Y032204D01*
X037134D01*
X034954Y034384D01*
Y036166D01*
X035748Y03696D01*
X03585Y036947D01*
X035954Y03696D01*
X036052Y037001D01*
X036135Y037065D01*
X036199Y037148D01*
X03624Y037246D01*
X036253Y03735D01*
X03624Y037454D01*
X036199Y037552D01*
X036135Y037635D01*
X036052Y037699D01*
X035954Y03774D01*
X03585Y037753D01*
D02*
G37*
G36*
X015884Y037549D02*
X015773Y037534D01*
X01567Y037491D01*
X015581Y037423D01*
X015513Y037334D01*
X01547Y037231D01*
X015456Y03712D01*
X01547Y037009D01*
X015513Y036906D01*
X015581Y036817D01*
X01567Y036749D01*
X015773Y036706D01*
X015884Y036691D01*
X015995Y036706D01*
X016099Y036749D01*
X016187Y036817D01*
X016255Y036906D01*
X016298Y037009D01*
X016313Y03712D01*
X016298Y037231D01*
X016255Y037334D01*
X016187Y037423D01*
X016099Y037491D01*
X015995Y037534D01*
X015884Y037549D01*
D02*
G37*
G36*
X010884D02*
X010773Y037534D01*
X01067Y037491D01*
X010581Y037423D01*
X010513Y037334D01*
X01047Y037231D01*
X010456Y03712D01*
X01047Y037009D01*
X010513Y036906D01*
X010581Y036817D01*
X01067Y036749D01*
X010773Y036706D01*
X010884Y036691D01*
X010995Y036706D01*
X011099Y036749D01*
X011187Y036817D01*
X011255Y036906D01*
X011298Y037009D01*
X011313Y03712D01*
X011298Y037231D01*
X011255Y037334D01*
X011187Y037423D01*
X011099Y037491D01*
X010995Y037534D01*
X010884Y037549D01*
D02*
G37*
G36*
X041075Y04055D02*
X040325D01*
Y03985D01*
X040522D01*
Y039286D01*
X040486Y039271D01*
X040397Y039203D01*
X040329Y039114D01*
X040286Y039011D01*
X040271Y0389D01*
X040286Y038789D01*
X040329Y038686D01*
X040397Y038597D01*
X040486Y038529D01*
X040576Y038491D01*
Y035869D01*
X04056Y035862D01*
X040482Y035802D01*
X040422Y035724D01*
X040384Y035632D01*
X040371Y035534D01*
X040384Y035436D01*
X040414Y035362D01*
X040391Y035304D01*
X040359Y035262D01*
X039989D01*
X039923Y035249D01*
X039866Y035211D01*
X039565Y034909D01*
X039548Y034916D01*
X03945Y034929D01*
X039352Y034916D01*
X039261Y034878D01*
X039183Y034818D01*
X039122Y034739D01*
X039084Y034648D01*
X039072Y03455D01*
X039084Y034452D01*
X039122Y034361D01*
X039183Y034282D01*
X039261Y034222D01*
X039352Y034184D01*
X03945Y034171D01*
X039548Y034184D01*
X03964Y034222D01*
X039718Y034282D01*
X039778Y034361D01*
X039816Y034452D01*
X039829Y03455D01*
X039816Y034648D01*
X03981Y034664D01*
X040061Y034915D01*
X040444D01*
X040478Y034827D01*
X04048Y034815D01*
X040422Y034739D01*
X040384Y034648D01*
X040371Y03455D01*
X040384Y034452D01*
X040422Y034361D01*
X040482Y034282D01*
X04056Y034222D01*
X040652Y034184D01*
X04075Y034171D01*
X040848Y034184D01*
X040939Y034222D01*
X041017Y034282D01*
X041078Y034361D01*
X041084Y034377D01*
X0425D01*
X042566Y03439D01*
X042623Y034427D01*
X043344Y035148D01*
X043407Y035122D01*
X043434Y035098D01*
X043421Y035D01*
X043436Y034889D01*
X043479Y034786D01*
X043547Y034697D01*
X043636Y034629D01*
X043739Y034586D01*
X04385Y034571D01*
X04405D01*
X044161Y034586D01*
X044264Y034629D01*
X044353Y034697D01*
X044421Y034786D01*
X044464Y034889D01*
X044479Y035D01*
X044464Y035111D01*
X044421Y035214D01*
X044353Y035303D01*
X044264Y035371D01*
X044161Y035414D01*
X04405Y035429D01*
X04385D01*
X043752Y035416D01*
X043728Y035443D01*
X043702Y035506D01*
X043776Y035581D01*
X04385Y035571D01*
X04405D01*
X044161Y035586D01*
X044264Y035629D01*
X044353Y035697D01*
X044421Y035786D01*
X044464Y035889D01*
X044479Y036D01*
X044464Y036111D01*
X044421Y036214D01*
X044353Y036303D01*
X044264Y036371D01*
X044161Y036414D01*
X04405Y036429D01*
X04385D01*
X043752Y036416D01*
X043728Y036443D01*
X043702Y036506D01*
X043776Y036581D01*
X04385Y036571D01*
X04405D01*
X044161Y036586D01*
X044264Y036629D01*
X044353Y036697D01*
X044421Y036786D01*
X044464Y036889D01*
X044479Y037D01*
X044464Y037111D01*
X044421Y037214D01*
X044353Y037303D01*
X044264Y037371D01*
X044161Y037414D01*
X04405Y037429D01*
X04385D01*
X043739Y037414D01*
X043636Y037371D01*
X043547Y037303D01*
X043479Y037214D01*
X043436Y037111D01*
X043421Y037D01*
X043436Y036889D01*
X043479Y036786D01*
X043484Y036779D01*
X041967Y035262D01*
X04114D01*
X041108Y035304D01*
X041085Y035362D01*
X041116Y035436D01*
X041128Y035534D01*
X041116Y035632D01*
X041078Y035724D01*
X041017Y035802D01*
X040939Y035862D01*
X040923Y035869D01*
Y038535D01*
X041003Y038597D01*
X041071Y038686D01*
X041114Y038789D01*
X041129Y0389D01*
X041114Y039011D01*
X041071Y039114D01*
X041003Y039203D01*
X040914Y039271D01*
X040878Y039286D01*
Y03985D01*
X041075D01*
Y04055D01*
D02*
G37*
G36*
X03585Y036753D02*
X035746Y03674D01*
X035648Y036699D01*
X035565Y036635D01*
X035501Y036552D01*
X03546Y036454D01*
X035447Y03635D01*
X03546Y036246D01*
X035501Y036148D01*
X035565Y036065D01*
X035648Y036001D01*
X035746Y03596D01*
X03585Y035947D01*
X035954Y03596D01*
X036052Y036001D01*
X036135Y036065D01*
X036199Y036148D01*
X03624Y036246D01*
X036253Y03635D01*
X03624Y036454D01*
X036199Y036552D01*
X036135Y036635D01*
X036052Y036699D01*
X035954Y03674D01*
X03585Y036753D01*
D02*
G37*
G36*
Y035753D02*
X035746Y03574D01*
X035648Y035699D01*
X035565Y035635D01*
X035501Y035552D01*
X03546Y035454D01*
X035447Y03535D01*
X03546Y035246D01*
X035501Y035148D01*
X035565Y035065D01*
X035648Y035001D01*
X035746Y03496D01*
X03585Y034947D01*
X035954Y03496D01*
X035983Y034972D01*
X038127Y032827D01*
X038127Y032827D01*
X038184Y03279D01*
X03825Y032777D01*
X03825Y032777D01*
X0429D01*
X042966Y03279D01*
X043023Y032827D01*
X043344Y033148D01*
X043407Y033122D01*
X043434Y033098D01*
X043421Y033D01*
X043436Y032889D01*
X043479Y032786D01*
X043547Y032697D01*
X043636Y032629D01*
X043739Y032586D01*
X04385Y032571D01*
X04405D01*
X044161Y032586D01*
X044264Y032629D01*
X044353Y032697D01*
X044421Y032786D01*
X044464Y032889D01*
X044479Y033D01*
X044464Y033111D01*
X044421Y033214D01*
X044353Y033303D01*
X044264Y033371D01*
X044161Y033414D01*
X04405Y033429D01*
X04385D01*
X043752Y033416D01*
X043728Y033443D01*
X043702Y033506D01*
X043776Y033581D01*
X04385Y033571D01*
X04405D01*
X044161Y033586D01*
X044264Y033629D01*
X044353Y033697D01*
X044421Y033786D01*
X044464Y033889D01*
X044479Y034D01*
X044464Y034111D01*
X044421Y034214D01*
X044353Y034303D01*
X044264Y034371D01*
X044161Y034414D01*
X04405Y034429D01*
X04385D01*
X043739Y034414D01*
X043636Y034371D01*
X043547Y034303D01*
X043479Y034214D01*
X043436Y034111D01*
X043421Y034D01*
X043436Y033889D01*
X043479Y033786D01*
X043484Y033779D01*
X042828Y033123D01*
X040924D01*
X040904Y033223D01*
X040939Y033238D01*
X041017Y033298D01*
X041078Y033376D01*
X041116Y033468D01*
X041128Y033566D01*
X041116Y033664D01*
X041078Y033755D01*
X041017Y033834D01*
X040939Y033894D01*
X040848Y033932D01*
X04075Y033945D01*
X040652Y033932D01*
X04056Y033894D01*
X040482Y033834D01*
X040422Y033755D01*
X040384Y033664D01*
X040371Y033566D01*
X040384Y033468D01*
X040422Y033376D01*
X040482Y033298D01*
X04056Y033238D01*
X040595Y033223D01*
X040575Y033123D01*
X039625D01*
X039605Y033223D01*
X03964Y033238D01*
X039718Y033298D01*
X039778Y033376D01*
X039816Y033468D01*
X039829Y033566D01*
X039816Y033664D01*
X039778Y033755D01*
X039718Y033834D01*
X03964Y033894D01*
X039548Y033932D01*
X03945Y033945D01*
X039352Y033932D01*
X039261Y033894D01*
X039183Y033834D01*
X039122Y033755D01*
X039084Y033664D01*
X039072Y033566D01*
X039084Y033468D01*
X039122Y033376D01*
X039183Y033298D01*
X039261Y033238D01*
X039296Y033223D01*
X039276Y033123D01*
X038322D01*
X036228Y035217D01*
X03624Y035246D01*
X036253Y03535D01*
X03624Y035454D01*
X036199Y035552D01*
X036135Y035635D01*
X036052Y035699D01*
X035954Y03574D01*
X03585Y035753D01*
D02*
G37*
G36*
X01595Y031454D02*
X015833Y031438D01*
X015723Y031393D01*
X015629Y031321D01*
X015557Y031227D01*
X015512Y031117D01*
X015505Y031065D01*
X0155Y031033D01*
X0154D01*
X015395Y031065D01*
X015388Y031117D01*
X015343Y031227D01*
X015271Y031321D01*
X015177Y031393D01*
X015067Y031438D01*
X01495Y031454D01*
X014833Y031438D01*
X014723Y031393D01*
X014629Y031321D01*
X014557Y031227D01*
X014512Y031117D01*
X014496Y031D01*
X014512Y030883D01*
X014557Y030773D01*
X014629Y030679D01*
X014723Y030607D01*
X014833Y030562D01*
X01495Y030546D01*
X015067Y030562D01*
X015177Y030607D01*
X015271Y030679D01*
X015343Y030773D01*
X015388Y030883D01*
X015395Y030935D01*
X0154Y030967D01*
X0155D01*
X015505Y030935D01*
X015512Y030883D01*
X015557Y030773D01*
X015629Y030679D01*
X015723Y030607D01*
X015833Y030562D01*
X01595Y030546D01*
X016067Y030562D01*
X016177Y030607D01*
X016271Y030679D01*
X016343Y030773D01*
X016388Y030883D01*
X016404Y031D01*
X016388Y031117D01*
X016343Y031227D01*
X016271Y031321D01*
X016177Y031393D01*
X016067Y031438D01*
X01595Y031454D01*
D02*
G37*
G36*
X02685Y030159D02*
X026757Y030147D01*
X026671Y030111D01*
X026596Y030054D01*
X026539Y029979D01*
X026503Y029893D01*
X026491Y0298D01*
X026503Y029707D01*
X026506Y029701D01*
X025677Y028873D01*
X02564Y028816D01*
X025627Y02875D01*
Y027467D01*
X025464D01*
Y026833D01*
X026136D01*
Y027467D01*
X025973D01*
Y028678D01*
X026751Y029456D01*
X026757Y029453D01*
X02685Y029441D01*
X026943Y029453D01*
X027029Y029489D01*
X027104Y029546D01*
X027161Y029621D01*
X027197Y029707D01*
X027209Y0298D01*
X027197Y029893D01*
X027161Y029979D01*
X027104Y030054D01*
X027029Y030111D01*
X026943Y030147D01*
X02685Y030159D01*
D02*
G37*
G36*
X01795Y03018D02*
X017806Y030161D01*
X017673Y030105D01*
X017558Y030017D01*
X01747Y029902D01*
X017414Y029769D01*
X017395Y029625D01*
X017414Y029481D01*
X01747Y029348D01*
X017558Y029233D01*
X017673Y029145D01*
X017806Y029089D01*
X01795Y02907D01*
X018094Y029089D01*
X018227Y029145D01*
X018342Y029233D01*
X01843Y029348D01*
X018486Y029481D01*
X018505Y029625D01*
X018486Y029769D01*
X01843Y029902D01*
X018342Y030017D01*
X018227Y030105D01*
X018094Y030161D01*
X01795Y03018D01*
D02*
G37*
G36*
X01195D02*
X011806Y030161D01*
X011673Y030105D01*
X011558Y030017D01*
X01147Y029902D01*
X011414Y029769D01*
X011395Y029625D01*
X011414Y029481D01*
X01147Y029348D01*
X011558Y029233D01*
X011673Y029145D01*
X011806Y029089D01*
X01195Y02907D01*
X012094Y029089D01*
X012227Y029145D01*
X012342Y029233D01*
X01243Y029348D01*
X012486Y029481D01*
X012505Y029625D01*
X012486Y029769D01*
X01243Y029902D01*
X012342Y030017D01*
X012227Y030105D01*
X012094Y030161D01*
X01195Y03018D01*
D02*
G37*
G36*
X043637Y02965D02*
X042887D01*
Y02895D01*
X043083D01*
Y028541D01*
X043081Y028532D01*
X043079Y028525D01*
X043077Y028522D01*
X043077Y028521D01*
X043076Y02852D01*
X043072Y028518D01*
X043065Y028516D01*
X043056Y028514D01*
X042341D01*
X042332Y028535D01*
X042269Y028618D01*
X042186Y028681D01*
X04209Y028721D01*
X041987Y028735D01*
X041884Y028721D01*
X041788Y028681D01*
X041705Y028618D01*
X041642Y028535D01*
X041602Y028439D01*
X041588Y028336D01*
X041602Y028233D01*
X041642Y028136D01*
X041705Y028054D01*
X041788Y027991D01*
X041884Y027951D01*
X041987Y027937D01*
X04209Y027951D01*
X042186Y027991D01*
X042269Y028054D01*
X042332Y028136D01*
X042341Y028157D01*
X043056D01*
X043065Y028156D01*
X043072Y028153D01*
X043076Y028152D01*
X043077Y028151D01*
X043077Y02815D01*
X043079Y028147D01*
X043081Y02814D01*
X043083Y02813D01*
Y02596D01*
X042887D01*
Y02526D01*
X043637D01*
Y02596D01*
X04344D01*
Y02813D01*
X043442Y02814D01*
X043444Y028147D01*
X043446Y02815D01*
X043446Y028151D01*
X043447Y028152D01*
X043451Y028153D01*
X043458Y028156D01*
X043467Y028157D01*
X044192D01*
X044201Y028136D01*
X044264Y028054D01*
X044347Y027991D01*
X044443Y027951D01*
X044546Y027937D01*
X044649Y027951D01*
X044745Y027991D01*
X044828Y028054D01*
X044891Y028136D01*
X044931Y028233D01*
X044945Y028336D01*
X044931Y028439D01*
X044891Y028535D01*
X044828Y028618D01*
X044745Y028681D01*
X044649Y028721D01*
X044546Y028735D01*
X044443Y028721D01*
X044347Y028681D01*
X044264Y028618D01*
X044201Y028535D01*
X044192Y028514D01*
X043467D01*
X043458Y028516D01*
X043451Y028518D01*
X043447Y02852D01*
X043446Y028521D01*
X043446Y028522D01*
X043444Y028525D01*
X043442Y028532D01*
X04344Y028541D01*
Y02895D01*
X043637D01*
Y02965D01*
D02*
G37*
G36*
X03977D02*
X03902D01*
Y02895D01*
X039217D01*
Y028541D01*
X039215Y028532D01*
X039213Y028525D01*
X039211Y028522D01*
X03921Y028521D01*
X039209Y02852D01*
X039206Y028518D01*
X039199Y028516D01*
X039189Y028514D01*
X038474D01*
X038466Y028535D01*
X038402Y028618D01*
X03832Y028681D01*
X038224Y028721D01*
X03812Y028735D01*
X038017Y028721D01*
X037921Y028681D01*
X037839Y028618D01*
X037775Y028535D01*
X037735Y028439D01*
X037722Y028336D01*
X037735Y028233D01*
X037775Y028136D01*
X037839Y028054D01*
X037921Y027991D01*
X038017Y027951D01*
X03812Y027937D01*
X038224Y027951D01*
X03832Y027991D01*
X038402Y028054D01*
X038466Y028136D01*
X038474Y028157D01*
X039189D01*
X039199Y028156D01*
X039206Y028153D01*
X039209Y028152D01*
X03921Y028151D01*
X039211Y02815D01*
X039213Y028147D01*
X039215Y02814D01*
X039217Y02813D01*
Y02596D01*
X03902D01*
Y02526D01*
X03977D01*
Y02596D01*
X039573D01*
Y02813D01*
X039575Y02814D01*
X039577Y028147D01*
X039579Y02815D01*
X03958Y028151D01*
X039581Y028152D01*
X039584Y028153D01*
X039591Y028156D01*
X039601Y028157D01*
X040326D01*
X040334Y028136D01*
X040398Y028054D01*
X04048Y027991D01*
X040576Y027951D01*
X04068Y027937D01*
X040783Y027951D01*
X040879Y027991D01*
X040961Y028054D01*
X041025Y028136D01*
X041065Y028233D01*
X041078Y028336D01*
X041065Y028439D01*
X041025Y028535D01*
X040961Y028618D01*
X040879Y028681D01*
X040783Y028721D01*
X04068Y028735D01*
X040576Y028721D01*
X04048Y028681D01*
X040398Y028618D01*
X040334Y028535D01*
X040326Y028514D01*
X039601D01*
X039591Y028516D01*
X039584Y028518D01*
X039581Y02852D01*
X03958Y028521D01*
X039579Y028522D01*
X039577Y028525D01*
X039575Y028532D01*
X039573Y028541D01*
Y02895D01*
X03977D01*
Y02965D01*
D02*
G37*
G36*
X03587D02*
X03512D01*
Y02895D01*
X035317D01*
Y028541D01*
X035315Y028532D01*
X035313Y028525D01*
X035311Y028522D01*
X03531Y028521D01*
X035309Y02852D01*
X035306Y028518D01*
X035299Y028516D01*
X035289Y028514D01*
X034574D01*
X034566Y028535D01*
X034502Y028618D01*
X03442Y028681D01*
X034324Y028721D01*
X03422Y028735D01*
X034117Y028721D01*
X034021Y028681D01*
X033939Y028618D01*
X033875Y028535D01*
X033835Y028439D01*
X033822Y028336D01*
X033835Y028233D01*
X033875Y028136D01*
X033939Y028054D01*
X034021Y027991D01*
X034117Y027951D01*
X03422Y027937D01*
X034324Y027951D01*
X03442Y027991D01*
X034502Y028054D01*
X034566Y028136D01*
X034574Y028157D01*
X035289D01*
X035299Y028156D01*
X035306Y028153D01*
X035309Y028152D01*
X03531Y028151D01*
X035311Y02815D01*
X035313Y028147D01*
X035315Y02814D01*
X035317Y02813D01*
Y02596D01*
X03512D01*
Y02526D01*
X03587D01*
Y02596D01*
X035673D01*
Y02813D01*
X035675Y02814D01*
X035677Y028147D01*
X035679Y02815D01*
X03568Y028151D01*
X035681Y028152D01*
X035684Y028153D01*
X035691Y028156D01*
X035701Y028157D01*
X036426D01*
X036434Y028136D01*
X036498Y028054D01*
X03658Y027991D01*
X036676Y027951D01*
X03678Y027937D01*
X036883Y027951D01*
X036979Y027991D01*
X037061Y028054D01*
X037125Y028136D01*
X037165Y028233D01*
X037178Y028336D01*
X037165Y028439D01*
X037125Y028535D01*
X037061Y028618D01*
X036979Y028681D01*
X036883Y028721D01*
X03678Y028735D01*
X036676Y028721D01*
X03658Y028681D01*
X036498Y028618D01*
X036434Y028535D01*
X036426Y028514D01*
X035701D01*
X035691Y028516D01*
X035684Y028518D01*
X035681Y02852D01*
X03568Y028521D01*
X035679Y028522D01*
X035677Y028525D01*
X035675Y028532D01*
X035673Y028541D01*
Y02895D01*
X03587D01*
Y02965D01*
D02*
G37*
G36*
X02985Y030159D02*
X029757Y030147D01*
X029671Y030111D01*
X029596Y030054D01*
X029539Y029979D01*
X029503Y029893D01*
X029491Y0298D01*
X029503Y029707D01*
X029539Y029621D01*
X029596Y029546D01*
X029671Y029489D01*
X029757Y029453D01*
X02985Y029441D01*
X029943Y029453D01*
X029949Y029456D01*
X030613Y028792D01*
Y027467D01*
X03045D01*
Y026833D01*
X031123D01*
Y027467D01*
X03096D01*
Y028863D01*
X030947Y02893D01*
X030909Y028986D01*
X030194Y029701D01*
X030197Y029707D01*
X030209Y0298D01*
X030197Y029893D01*
X030161Y029979D01*
X030104Y030054D01*
X030029Y030111D01*
X029943Y030147D01*
X02985Y030159D01*
D02*
G37*
G36*
X02885D02*
X028757Y030147D01*
X028671Y030111D01*
X028596Y030054D01*
X028539Y029979D01*
X028503Y029893D01*
X028491Y0298D01*
X028503Y029707D01*
X028539Y029621D01*
X028596Y029546D01*
X028671Y029489D01*
X028677Y029487D01*
Y028853D01*
X02869Y028787D01*
X028727Y028731D01*
X028951Y028507D01*
Y027467D01*
X028788D01*
Y026833D01*
X029461D01*
Y027467D01*
X029298D01*
Y028579D01*
X029285Y028645D01*
X029247Y028701D01*
X029023Y028925D01*
Y029487D01*
X029029Y029489D01*
X029104Y029546D01*
X029161Y029621D01*
X029197Y029707D01*
X029209Y0298D01*
X029197Y029893D01*
X029161Y029979D01*
X029104Y030054D01*
X029029Y030111D01*
X028943Y030147D01*
X02885Y030159D01*
D02*
G37*
G36*
X02785D02*
X027757Y030147D01*
X027671Y030111D01*
X027596Y030054D01*
X027539Y029979D01*
X027503Y029893D01*
X027491Y0298D01*
X027503Y029707D01*
X027539Y029621D01*
X027596Y029546D01*
X027671Y029489D01*
X027677Y029487D01*
Y028972D01*
X02734Y028635D01*
X027302Y028579D01*
X027289Y028512D01*
Y027467D01*
X027126D01*
Y026833D01*
X027798D01*
Y027467D01*
X027636D01*
Y02844D01*
X027973Y028777D01*
X027973Y028777D01*
X02801Y028834D01*
X028023Y0289D01*
Y029487D01*
X028029Y029489D01*
X028104Y029546D01*
X028161Y029621D01*
X028197Y029707D01*
X028209Y0298D01*
X028197Y029893D01*
X028161Y029979D01*
X028104Y030054D01*
X028029Y030111D01*
X027943Y030147D01*
X02785Y030159D01*
D02*
G37*
G36*
X01895Y027454D02*
X018833Y027438D01*
X018723Y027393D01*
X018629Y027321D01*
X018557Y027227D01*
X018512Y027117D01*
X018496Y027D01*
X018512Y026883D01*
X018557Y026773D01*
X018629Y026679D01*
X018723Y026607D01*
X018833Y026562D01*
X018885Y026555D01*
X018917Y02655D01*
Y02645D01*
X018885Y026445D01*
X018833Y026438D01*
X018723Y026393D01*
X018629Y026321D01*
X018557Y026227D01*
X018512Y026117D01*
X018496Y026D01*
X018512Y025883D01*
X018557Y025773D01*
X018629Y025679D01*
X018723Y025607D01*
X018833Y025562D01*
X01895Y025546D01*
X019067Y025562D01*
X019177Y025607D01*
X019271Y025679D01*
X019343Y025773D01*
X019388Y025883D01*
X019404Y026D01*
X019388Y026117D01*
X019343Y026227D01*
X019271Y026321D01*
X019177Y026393D01*
X019067Y026438D01*
X019015Y026445D01*
X018983Y02645D01*
Y02655D01*
X019015Y026555D01*
X019067Y026562D01*
X019177Y026607D01*
X019271Y026679D01*
X019343Y026773D01*
X019388Y026883D01*
X019404Y027D01*
X019388Y027117D01*
X019343Y027227D01*
X019271Y027321D01*
X019177Y027393D01*
X019067Y027438D01*
X01895Y027454D01*
D02*
G37*
G36*
X01795Y02493D02*
X017806Y024911D01*
X017673Y024855D01*
X017558Y024767D01*
X01747Y024652D01*
X017414Y024519D01*
X017395Y024375D01*
X017414Y024231D01*
X01747Y024098D01*
X017558Y023983D01*
X017673Y023895D01*
X017806Y023839D01*
X01795Y02382D01*
X018094Y023839D01*
X018227Y023895D01*
X018342Y023983D01*
X01843Y024098D01*
X018486Y024231D01*
X018505Y024375D01*
X018486Y024519D01*
X01843Y024652D01*
X018342Y024767D01*
X018227Y024855D01*
X018094Y024911D01*
X01795Y02493D01*
D02*
G37*
G36*
X01195D02*
X011806Y024911D01*
X011673Y024855D01*
X011558Y024767D01*
X01147Y024652D01*
X011414Y024519D01*
X011395Y024375D01*
X011414Y024231D01*
X01147Y024098D01*
X011558Y023983D01*
X011673Y023895D01*
X011806Y023839D01*
X01195Y02382D01*
X012094Y023839D01*
X012227Y023895D01*
X012342Y023983D01*
X01243Y024098D01*
X012486Y024231D01*
X012505Y024375D01*
X012486Y024519D01*
X01243Y024652D01*
X012342Y024767D01*
X012227Y024855D01*
X012094Y024911D01*
X01195Y02493D01*
D02*
G37*
G36*
X031123Y02664D02*
X03045D01*
Y026007D01*
X030613D01*
Y0243D01*
X030392D01*
Y0236D01*
X031142D01*
Y0243D01*
X03096D01*
Y026007D01*
X031123D01*
Y02664D01*
D02*
G37*
G36*
X029461D02*
X028788D01*
Y026007D01*
X028951D01*
Y0243D01*
X028729D01*
Y0236D01*
X029479D01*
Y0243D01*
X029298D01*
Y026007D01*
X029461D01*
Y02664D01*
D02*
G37*
G36*
X027798D02*
X027126D01*
Y026007D01*
X027289D01*
Y0243D01*
X027067D01*
Y0236D01*
X027817D01*
Y0243D01*
X027636D01*
Y026007D01*
X027798D01*
Y02664D01*
D02*
G37*
G36*
X026136D02*
X025464D01*
Y026007D01*
X025627D01*
Y0243D01*
X025405D01*
Y0236D01*
X026155D01*
Y0243D01*
X025973D01*
Y026007D01*
X026136D01*
Y02664D01*
D02*
G37*
G36*
X0162Y024454D02*
X016083Y024438D01*
X015973Y024393D01*
X015879Y024321D01*
X015807Y024227D01*
X015762Y024117D01*
X015746Y024D01*
X015762Y023883D01*
X015807Y023773D01*
X015879Y023679D01*
X015973Y023607D01*
X016083Y023562D01*
X0162Y023546D01*
X016317Y023562D01*
X016427Y023607D01*
X016521Y023679D01*
X016593Y023773D01*
X016638Y023883D01*
X016654Y024D01*
X016638Y024117D01*
X016593Y024227D01*
X016521Y024321D01*
X016427Y024393D01*
X016317Y024438D01*
X0162Y024454D01*
D02*
G37*
G36*
X0137D02*
X013583Y024438D01*
X013473Y024393D01*
X013379Y024321D01*
X013307Y024227D01*
X013262Y024117D01*
X013246Y024D01*
X013262Y023883D01*
X013307Y023773D01*
X013379Y023679D01*
X013473Y023607D01*
X013583Y023562D01*
X0137Y023546D01*
X013817Y023562D01*
X013927Y023607D01*
X014021Y023679D01*
X014093Y023773D01*
X014138Y023883D01*
X014154Y024D01*
X014138Y024117D01*
X014093Y024227D01*
X014021Y024321D01*
X013927Y024393D01*
X013817Y024438D01*
X0137Y024454D01*
D02*
G37*
G36*
X0162Y022454D02*
X016083Y022438D01*
X015973Y022393D01*
X015879Y022321D01*
X015807Y022227D01*
X015762Y022117D01*
X015746Y022D01*
X015762Y021883D01*
X015807Y021773D01*
X015879Y021679D01*
X015973Y021607D01*
X016083Y021562D01*
X0162Y021546D01*
X016317Y021562D01*
X016427Y021607D01*
X016521Y021679D01*
X016593Y021773D01*
X016638Y021883D01*
X016654Y022D01*
X016638Y022117D01*
X016593Y022227D01*
X016521Y022321D01*
X016427Y022393D01*
X016317Y022438D01*
X0162Y022454D01*
D02*
G37*
G36*
X0137D02*
X013583Y022438D01*
X013473Y022393D01*
X013379Y022321D01*
X013307Y022227D01*
X013262Y022117D01*
X013246Y022D01*
X013262Y021883D01*
X013307Y021773D01*
X013379Y021679D01*
X013473Y021607D01*
X013583Y021562D01*
X0137Y021546D01*
X013817Y021562D01*
X013927Y021607D01*
X014021Y021679D01*
X014093Y021773D01*
X014138Y021883D01*
X014154Y022D01*
X014138Y022117D01*
X014093Y022227D01*
X014021Y022321D01*
X013927Y022393D01*
X013817Y022438D01*
X0137Y022454D01*
D02*
G37*
G36*
X04475Y022094D02*
X044595Y022079D01*
X044446Y022033D01*
X044309Y02196D01*
X044189Y021861D01*
X04409Y021741D01*
X044017Y021604D01*
X043971Y021455D01*
X043956Y0213D01*
X043971Y021145D01*
X044017Y020996D01*
X04409Y020859D01*
X044189Y020739D01*
X044309Y02064D01*
X044446Y020567D01*
X044595Y020521D01*
X04475Y020506D01*
X044905Y020521D01*
X045054Y020567D01*
X045191Y02064D01*
X045311Y020739D01*
X04541Y020859D01*
X045483Y020996D01*
X045529Y021145D01*
X045544Y0213D01*
X045529Y021455D01*
X045483Y021604D01*
X04541Y021741D01*
X045311Y021861D01*
X045191Y02196D01*
X045054Y022033D01*
X044905Y022079D01*
X04475Y022094D01*
D02*
G37*
G36*
X0113D02*
X011145Y022079D01*
X010996Y022033D01*
X010859Y02196D01*
X010739Y021861D01*
X01064Y021741D01*
X010567Y021604D01*
X010521Y021455D01*
X010506Y0213D01*
X010521Y021145D01*
X010567Y020996D01*
X01064Y020859D01*
X010739Y020739D01*
X010859Y02064D01*
X010996Y020567D01*
X011145Y020521D01*
X0113Y020506D01*
X011455Y020521D01*
X011604Y020567D01*
X011741Y02064D01*
X011861Y020739D01*
X01196Y020859D01*
X012033Y020996D01*
X012079Y021145D01*
X012094Y0213D01*
X012079Y021455D01*
X012033Y021604D01*
X01196Y021741D01*
X011861Y021861D01*
X011741Y02196D01*
X011604Y022033D01*
X011455Y022079D01*
X0113Y022094D01*
D02*
G37*
%LPD*%
G36*
X01745Y04425D02*
X01385D01*
Y04525D01*
X01745D01*
Y04425D01*
D02*
G37*
G36*
X043338Y028532D02*
X043343Y028507D01*
X04335Y028484D01*
X043361Y028465D01*
X043374Y028448D01*
X043391Y028435D01*
X04341Y028424D01*
X043433Y028417D01*
X043458Y028412D01*
X043487Y028411D01*
Y028261D01*
X043458Y028259D01*
X043433Y028255D01*
X04341Y028247D01*
X043391Y028237D01*
X043374Y028223D01*
X043361Y028207D01*
X04335Y028187D01*
X043343Y028165D01*
X043338Y028139D01*
X043337Y028111D01*
X043187D01*
X043185Y028139D01*
X043181Y028165D01*
X043173Y028187D01*
X043163Y028207D01*
X043149Y028223D01*
X043133Y028237D01*
X043113Y028247D01*
X043091Y028255D01*
X043065Y028259D01*
X043037Y028261D01*
Y028411D01*
X043065Y028412D01*
X043091Y028417D01*
X043113Y028424D01*
X043133Y028435D01*
X043149Y028448D01*
X043163Y028465D01*
X043173Y028484D01*
X043181Y028507D01*
X043185Y028532D01*
X043187Y028561D01*
X043337D01*
X043338Y028532D01*
D02*
G37*
G36*
X039471D02*
X039476Y028507D01*
X039483Y028484D01*
X039494Y028465D01*
X039508Y028448D01*
X039524Y028435D01*
X039543Y028424D01*
X039566Y028417D01*
X039592Y028412D01*
X03962Y028411D01*
Y028261D01*
X039592Y028259D01*
X039566Y028255D01*
X039543Y028247D01*
X039524Y028237D01*
X039508Y028223D01*
X039494Y028207D01*
X039483Y028187D01*
X039476Y028165D01*
X039471Y028139D01*
X03947Y028111D01*
X03932D01*
X039318Y028139D01*
X039314Y028165D01*
X039306Y028187D01*
X039296Y028207D01*
X039283Y028223D01*
X039266Y028237D01*
X039246Y028247D01*
X039224Y028255D01*
X039199Y028259D01*
X03917Y028261D01*
Y028411D01*
X039199Y028412D01*
X039224Y028417D01*
X039246Y028424D01*
X039266Y028435D01*
X039283Y028448D01*
X039296Y028465D01*
X039306Y028484D01*
X039314Y028507D01*
X039318Y028532D01*
X03932Y028561D01*
X03947D01*
X039471Y028532D01*
D02*
G37*
G36*
X035571D02*
X035576Y028507D01*
X035584Y028484D01*
X035594Y028465D01*
X035608Y028448D01*
X035624Y028435D01*
X035643Y028424D01*
X035666Y028417D01*
X035691Y028412D01*
X03572Y028411D01*
Y028261D01*
X035691Y028259D01*
X035666Y028255D01*
X035643Y028247D01*
X035624Y028237D01*
X035608Y028223D01*
X035594Y028207D01*
X035584Y028187D01*
X035576Y028165D01*
X035571Y028139D01*
X03557Y028111D01*
X03542D01*
X035419Y028139D01*
X035414Y028165D01*
X035406Y028187D01*
X035396Y028207D01*
X035382Y028223D01*
X035366Y028237D01*
X035347Y028247D01*
X035324Y028255D01*
X035299Y028259D01*
X03527Y028261D01*
Y028411D01*
X035299Y028412D01*
X035324Y028417D01*
X035347Y028424D01*
X035366Y028435D01*
X035382Y028448D01*
X035396Y028465D01*
X035406Y028484D01*
X035414Y028507D01*
X035419Y028532D01*
X03542Y028561D01*
X03557D01*
X035571Y028532D01*
D02*
G37*
D13*
X043262Y028336D02*
Y0293D01*
Y02561D02*
Y028336D01*
X044546D01*
X041987D02*
X043262D01*
X039395D02*
Y0293D01*
Y02561D02*
Y028336D01*
X04068D01*
X03812D02*
X039395D01*
X035495D02*
Y0293D01*
Y02561D02*
Y028336D01*
X03678D01*
X03422D02*
X035495D01*
X0176Y03712D02*
X01887Y03585D01*
X0206Y03712D02*
X02074D01*
X012884Y036286D02*
Y03712D01*
X011884Y036216D02*
Y03712D01*
X012384Y038484D02*
X01425Y04035D01*
X012384Y036266D02*
X01385Y0348D01*
X012384Y036266D02*
Y038484D01*
X01887Y03585D02*
X02D01*
X0232Y03958D02*
Y0398D01*
X02074Y03712D02*
X0232Y03958D01*
X0255Y04055D02*
X02605Y04D01*
Y03915D02*
Y04D01*
Y03915D02*
X026654Y038546D01*
X0251Y04055D02*
X0255D01*
X02609Y03829D02*
X0272D01*
X02555Y03775D02*
X02609Y03829D01*
X02515Y03775D02*
X02555D01*
X02515D02*
Y0383D01*
X0248Y03865D02*
X02515Y0383D01*
X026654Y038546D02*
X0272D01*
X0251Y03685D02*
X025175Y036925D01*
X01075Y03875D02*
Y039663D01*
X010837Y03975D01*
X02942Y0456D02*
X029487Y045667D01*
Y0467D01*
X026Y03445D02*
X027741Y036191D01*
X01365Y03445D02*
X026D01*
X011884Y036216D02*
X01365Y03445D01*
X02785Y0328D02*
Y03405D01*
X025254Y0348D02*
X026952Y036498D01*
X01385Y0348D02*
X025254D01*
X0397Y0389D02*
Y0402D01*
X0407Y0389D02*
Y0402D01*
X02685Y0336D02*
X0285Y03525D01*
X025084Y04055D02*
X0251D01*
X02417Y039636D02*
X025084Y04055D01*
X02417Y039516D02*
Y039636D01*
X03035Y04085D02*
X0339Y0444D01*
X03035Y0393D02*
Y04085D01*
X029852Y038802D02*
X03035Y0393D01*
X0295Y038552D02*
X029955D01*
X030717Y040667D02*
X03488Y04483D01*
X030717Y039313D02*
Y040667D01*
X029955Y038552D02*
X030717Y039313D01*
X030263Y048013D02*
X03033Y047947D01*
X030263Y048013D02*
Y0491D01*
X0252Y0351D02*
X026735Y036635D01*
X026952Y036498D02*
X0272D01*
X02685Y0328D02*
Y0336D01*
X01407Y0351D02*
X0252D01*
X012884Y036286D02*
X01407Y0351D01*
X0295Y038546D02*
Y038552D01*
X03488Y04483D02*
Y049D01*
X0295Y038802D02*
X029852D01*
X0339Y0444D02*
Y049D01*
X01636Y04035D02*
X0171Y04109D01*
X01425Y04035D02*
X01636D01*
X026843Y036743D02*
X026854Y036754D01*
X026838Y036743D02*
X026843D01*
X026735Y036641D02*
X026838Y036743D01*
X026735Y036635D02*
Y036641D01*
X026854Y036754D02*
X0272D01*
D21*
X0285Y03805D02*
Y03945D01*
X027874Y038108D02*
Y0397D01*
X0289Y0389D02*
X02965Y03965D01*
X01959Y03712D02*
X02031Y0364D01*
X02Y03585D02*
X02509D01*
X02031Y0364D02*
X02514D01*
X0232Y0398D02*
Y04055D01*
X02551Y041179D02*
X02645Y040239D01*
X023829Y041179D02*
X02551D01*
X0232Y04055D02*
X023829Y041179D01*
X02645Y039102D02*
Y040239D01*
X03015Y03775D02*
Y03785D01*
X029966Y038034D02*
X03015Y03785D01*
X023536Y03865D02*
X02417D01*
X0248Y039665D02*
X02515Y040015D01*
X0248Y039516D02*
Y039665D01*
X0295Y036498D02*
X0311D01*
Y03405D02*
Y036498D01*
X02985Y0328D02*
X0311Y03405D01*
Y036498D02*
X032898D01*
X0288Y035D02*
Y03685D01*
X02785Y03405D02*
X0288Y035D01*
X027741Y036191D02*
Y03692D01*
X0285Y03945D02*
X02875Y0397D01*
X0285Y03805D02*
X029028Y037522D01*
X0295D01*
X029122Y037778D02*
X0295D01*
X0289Y038D02*
X029122Y037778D01*
X0289Y038D02*
Y0389D01*
X02875Y0397D02*
Y04055D01*
X030767Y02395D02*
X030787Y02397D01*
Y026323D01*
X029104Y02395D02*
X029124Y02397D01*
Y026323D01*
X027442Y02395D02*
X027462Y02397D01*
Y026323D01*
X02578Y02395D02*
X0258Y02397D01*
Y026323D01*
X02785Y0289D02*
Y0298D01*
X027462Y028512D02*
X02785Y0289D01*
X027462Y02715D02*
Y028512D01*
X029124Y02715D02*
Y028579D01*
X02885Y028853D02*
X029124Y028579D01*
X02885Y028853D02*
Y0298D01*
X030787Y02715D02*
Y028863D01*
X02985Y0298D02*
X030787Y028863D01*
X0258Y02715D02*
Y02875D01*
X02685Y0298D01*
X032898Y036498D02*
X03575Y03935D01*
X02885Y0328D02*
X02904Y03299D01*
Y03664D01*
X02765Y03701D02*
X027741Y03692D01*
X0272Y03701D02*
X02765D01*
X028816Y037266D02*
X0295D01*
X0285Y03695D02*
X028816Y037266D01*
X0285Y03525D02*
Y03695D01*
X02904Y03664D02*
X029154Y036754D01*
X0295D01*
X0425Y03455D02*
X04395Y036D01*
X04075Y03455D02*
X0425D01*
X03945D02*
X039989Y035089D01*
X042039D01*
X04395Y037D01*
X0429Y03295D02*
X04395Y034D01*
X03825Y03295D02*
X0429D01*
X0407Y0389D02*
X04075Y03885D01*
Y035534D02*
Y03885D01*
X03945Y03865D02*
X0397Y0389D01*
X03945Y035534D02*
Y03865D01*
X030737Y03785D02*
Y037995D01*
X030442Y03829D02*
X030737Y037995D01*
X0295Y03829D02*
X030442D01*
X0295Y038034D02*
X029966D01*
X031235Y03745D02*
X03175D01*
X031051Y037266D02*
X031235Y03745D01*
X0295Y037266D02*
X031051D01*
X03475Y03985D02*
X0361D01*
X03191Y03701D02*
X03475Y03985D01*
X0295Y03701D02*
X03191D01*
X03575Y03935D02*
X03585D01*
X032354Y036754D02*
X0325Y0369D01*
X0295Y036754D02*
X032354D01*
X03585Y03835D02*
X03645Y03895D01*
Y0395D01*
X0361Y03985D02*
X03645Y0395D01*
X03585Y03535D02*
X03825Y03295D01*
X02645Y039102D02*
X02675Y038802D01*
X0272D01*
X02509Y03585D02*
X026506Y037266D01*
X0272D01*
X02514Y0364D02*
X026262Y037522D01*
X0272D01*
X025175Y036925D02*
X026284Y038034D01*
X0272D01*
X0288Y03685D02*
X02896Y03701D01*
X0295D01*
X0272Y037778D02*
X027545D01*
X027874Y038108D01*
D22*
X043262Y02561D02*
D03*
Y02471D02*
D03*
X039395Y02561D02*
D03*
Y02471D02*
D03*
X035495D02*
D03*
Y02561D02*
D03*
X03945Y0461D02*
D03*
Y047D02*
D03*
Y04935D02*
D03*
Y04845D02*
D03*
X02465Y04725D02*
D03*
Y04815D02*
D03*
X027442Y02395D02*
D03*
Y02305D02*
D03*
X02578Y02395D02*
D03*
Y02305D02*
D03*
X0201Y0473D02*
D03*
Y0464D02*
D03*
X035495Y0293D02*
D03*
Y0302D02*
D03*
X029104Y02305D02*
D03*
Y02395D02*
D03*
X030767Y02305D02*
D03*
Y02395D02*
D03*
X039395Y0293D02*
D03*
Y0302D02*
D03*
X043262Y0293D02*
D03*
Y0302D02*
D03*
X0397Y0402D02*
D03*
Y0411D02*
D03*
X0407Y0402D02*
D03*
Y0411D02*
D03*
D23*
X02515Y03775D02*
D03*
X02425D02*
D03*
X0242Y04055D02*
D03*
X0251D02*
D03*
X027874Y0397D02*
D03*
X026974D02*
D03*
X027874Y04055D02*
D03*
X026974D02*
D03*
X02965Y0397D02*
D03*
X02875D02*
D03*
X02965Y04055D02*
D03*
X02875D02*
D03*
X03033Y047947D02*
D03*
X02943D02*
D03*
X0266Y04485D02*
D03*
X0275D02*
D03*
X01485Y03845D02*
D03*
X01395D02*
D03*
X01075Y03875D02*
D03*
X01165D02*
D03*
X02245Y04425D02*
D03*
X02335D02*
D03*
X03285Y04755D02*
D03*
X03195D02*
D03*
X02942Y0456D02*
D03*
X03032D02*
D03*
X03765Y04015D02*
D03*
X03855D02*
D03*
D24*
X02417Y039516D02*
D03*
Y03865D02*
D03*
X0248D02*
D03*
Y039516D02*
D03*
D25*
X0272Y038802D02*
D03*
X0272Y038546D02*
D03*
X0272Y03829D02*
D03*
X0272Y038034D02*
D03*
X0272Y037778D02*
D03*
Y037522D02*
D03*
Y037266D02*
D03*
Y03701D02*
D03*
Y036754D02*
D03*
Y036498D02*
D03*
X0295D02*
D03*
Y036754D02*
D03*
Y03701D02*
D03*
Y037266D02*
D03*
Y037522D02*
D03*
X0295Y037778D02*
D03*
X0295Y038034D02*
D03*
X0295Y03829D02*
D03*
X0295Y038546D02*
D03*
X0295Y038802D02*
D03*
D26*
X029437Y0491D02*
D03*
X030263D02*
D03*
X011663Y03975D02*
D03*
X010837D02*
D03*
X030313Y0467D02*
D03*
X029487D02*
D03*
D27*
X0216Y045485D02*
D03*
X0234D02*
D03*
D28*
X0225Y048695D02*
D03*
D29*
X030787Y02715D02*
D03*
Y026323D02*
D03*
X029124Y02715D02*
D03*
Y026323D02*
D03*
X0258Y02715D02*
D03*
Y026323D02*
D03*
X027462Y02715D02*
D03*
Y026323D02*
D03*
D30*
X018637Y0464D02*
D03*
X017437D02*
D03*
D31*
X027506Y048442D02*
D03*
X0266D02*
D03*
X025694D02*
D03*
D32*
X0266Y046158D02*
D03*
D33*
X018637Y04475D02*
D03*
X017063D02*
D03*
D63*
X0387Y0389D02*
Y04D01*
X03855Y04015D02*
X0387Y04D01*
X044546Y0252D02*
Y026564D01*
X044056Y02471D02*
X044546Y0252D01*
X043262Y02471D02*
X044056D01*
X04254D02*
X043262D01*
X041987Y025263D02*
X04254Y02471D01*
X041987Y025263D02*
Y026564D01*
X04068Y025229D02*
Y026564D01*
X04016Y02471D02*
X04068Y025229D01*
X039395Y02471D02*
X04016D01*
X0386D02*
X039395D01*
X03812Y02519D02*
X0386Y02471D01*
X03812Y02519D02*
Y026564D01*
X03678Y02533D02*
Y026564D01*
X03616Y02471D02*
X03678Y02533D01*
X035495Y02471D02*
X03616D01*
X0348D02*
X035495D01*
X03422Y02529D02*
X0348Y02471D01*
X03422Y02529D02*
Y026564D01*
X03705Y032D02*
X04395D01*
X026974Y0397D02*
Y04055D01*
X013884Y03712D02*
X01395Y037186D01*
Y03845D01*
X0275Y04485D02*
X027506Y044856D01*
Y048442D01*
X029337Y0492D02*
X029437Y0491D01*
X02585Y0492D02*
X029337D01*
X025694Y049044D02*
X02585Y0492D01*
X03475Y0343D02*
X03705Y032D01*
X03475Y0343D02*
Y03625D01*
X03585Y03735D01*
X0116Y039813D02*
X011663Y03975D01*
X0116Y039813D02*
Y041472D01*
X025694Y048442D02*
Y049044D01*
D64*
X043262Y03075D02*
X04475D01*
X039395D02*
X043262D01*
Y0302D02*
Y03075D01*
X04475D02*
X04555Y03155D01*
X036045Y03075D02*
X039395D01*
Y0302D02*
Y03075D01*
X035495Y0302D02*
X036045Y03075D01*
X03289Y04629D02*
Y049D01*
X01673Y037566D02*
X017614Y03845D01*
X01673Y03557D02*
Y037566D01*
X017614Y03845D02*
X02035D01*
X025285Y043385D01*
X0266D01*
X03765Y041733D02*
X038258Y042341D01*
X03765Y04015D02*
Y041733D01*
X038258Y042341D02*
X0397D01*
X0407D02*
X045541D01*
X0397D02*
X0407D01*
Y0411D02*
Y042341D01*
X0397Y0411D02*
Y042341D01*
X04555Y04235D02*
Y0445D01*
Y04235D02*
X04555Y03155D01*
X045541Y042341D02*
X04555Y04235D01*
X03765Y04015D02*
X0377Y0401D01*
Y0389D02*
Y0401D01*
X0266Y043385D02*
X02875D01*
X0266D02*
Y04485D01*
X0321Y0455D02*
X03289Y04629D01*
X029985Y043385D02*
X0321Y0455D01*
X0309Y0467D02*
X0321Y0455D01*
X030313Y0467D02*
X0309D01*
X0266Y04485D02*
Y046158D01*
X04165Y0484D02*
X04555Y0445D01*
X0407Y04935D02*
X04165Y0484D01*
X03945Y04935D02*
X0407D01*
X0391Y0497D02*
X03945Y04935D01*
X03359Y0497D02*
X0391D01*
X02875Y043385D02*
X029985D01*
X02875Y04125D02*
X02925D01*
X02825D02*
X02875D01*
Y043385D01*
X02965Y04055D02*
Y04085D01*
X02925Y04125D02*
X02965Y04085D01*
X027874Y040874D02*
X02825Y04125D01*
X027874Y04055D02*
Y040874D01*
X02965Y03965D02*
Y0397D01*
Y04055D01*
X0216Y045485D02*
Y04605D01*
X02125Y0464D02*
X0216Y04605D01*
X0201Y0464D02*
X02125D01*
X027874Y0397D02*
Y04055D01*
X025694Y047644D02*
Y048442D01*
X0253Y04725D02*
X025694Y047644D01*
X02465Y04725D02*
X0253D01*
X03289Y049D02*
X03359Y0497D01*
X0266Y046158D02*
Y048442D01*
D65*
X01545Y03945D02*
X02025D01*
X01485Y03885D02*
X01545Y03945D01*
X01485Y03845D02*
Y03885D01*
Y037154D02*
X014884Y03712D01*
X01485Y037154D02*
Y03845D01*
X01984Y0421D02*
X01985Y04211D01*
X0171Y0421D02*
X01984D01*
X0234Y04485D02*
Y045485D01*
X02423Y04483D02*
X02465Y04525D01*
Y04725D01*
X0234Y0443D02*
Y04485D01*
X02342Y04483D02*
X02423D01*
X0234Y04485D02*
X02342Y04483D01*
X02335Y04315D02*
Y04425D01*
Y04255D02*
Y04315D01*
X02025Y03945D02*
X02335Y04255D01*
Y04425D02*
X0234Y0443D01*
X04076Y0461D02*
X04166Y047D01*
X03945Y0461D02*
X04076D01*
X0377D02*
X03945D01*
X03695Y04535D02*
X0377Y0461D01*
X03585Y04535D02*
X03695D01*
D66*
X0177Y0473D02*
X0201D01*
X017437Y047037D02*
X0177Y0473D01*
X017437Y0464D02*
Y047037D01*
X02465Y04815D02*
Y0485D01*
X024455Y048695D02*
X02465Y0485D01*
X0225Y048695D02*
X024455D01*
X0201Y04785D02*
X020945Y048695D01*
X0201Y0473D02*
Y04785D01*
X020945Y048695D02*
X0225D01*
D67*
X01465Y04475D02*
X017063D01*
X018637D02*
Y0464D01*
D68*
X0201D01*
D69*
X0163Y0421D02*
X0171D01*
X01595Y04175D02*
X0163Y0421D01*
X0148Y04175D02*
X01595D01*
X014D02*
X0148D01*
X013722Y041472D02*
X014Y04175D01*
X0116Y041472D02*
X013722D01*
D70*
X03422Y028336D02*
D03*
Y026564D02*
D03*
X03678Y028336D02*
D03*
Y026564D02*
D03*
X03812Y028336D02*
D03*
Y026564D02*
D03*
X04068Y028336D02*
D03*
Y026564D02*
D03*
X044546D02*
D03*
Y028336D02*
D03*
X041987Y026564D02*
D03*
Y028336D02*
D03*
D71*
X02885Y0298D02*
D03*
X02785D02*
D03*
X02685D02*
D03*
X02985D02*
D03*
Y0328D02*
D03*
X02885D02*
D03*
X02785D02*
D03*
X02685D02*
D03*
D72*
X04395Y036D02*
D03*
Y033D02*
D03*
Y034D02*
D03*
Y035D02*
D03*
Y037D02*
D03*
D73*
Y032D02*
D03*
D74*
X04075Y033566D02*
D03*
Y03455D02*
D03*
Y035534D02*
D03*
X03945Y033566D02*
D03*
Y03455D02*
D03*
Y035534D02*
D03*
D75*
X04065Y047D02*
D03*
X04064Y0484D02*
D03*
X03289Y049D02*
D03*
X0339D02*
D03*
X03488D02*
D03*
X03589D02*
D03*
X0206Y03712D02*
D03*
X01959D02*
D03*
X01861D02*
D03*
X0176D02*
D03*
D76*
X04166Y047D02*
D03*
X04165Y0484D02*
D03*
D77*
X0148Y04175D02*
D03*
D78*
Y04275D02*
D03*
D79*
X010884Y03712D02*
D03*
X011884D02*
D03*
X012884D02*
D03*
X013884D02*
D03*
X014884D02*
D03*
X015884D02*
D03*
X0377Y0389D02*
D03*
X0387D02*
D03*
X0397D02*
D03*
X0407D02*
D03*
X0417D02*
D03*
X0427D02*
D03*
X0437D02*
D03*
X0447D02*
D03*
D80*
X01985Y0411D02*
D03*
X0171Y04109D02*
D03*
D81*
X01985Y04211D02*
D03*
Y04309D02*
D03*
X0171Y0421D02*
D03*
Y04308D02*
D03*
D82*
X03585Y04535D02*
D03*
Y04435D02*
D03*
Y04335D02*
D03*
Y04235D02*
D03*
Y04135D02*
D03*
Y04035D02*
D03*
Y03935D02*
D03*
Y03835D02*
D03*
Y03735D02*
D03*
Y03635D02*
D03*
Y03535D02*
D03*
D83*
X0116Y041472D02*
D03*
D84*
Y04285D02*
D03*
D85*
X01265Y04575D02*
D03*
D86*
X01465Y04725D02*
D03*
Y04475D02*
D03*
D87*
X01895Y028D02*
D03*
Y027D02*
D03*
Y026D02*
D03*
X01395Y031D02*
D03*
X01495D02*
D03*
X01595D02*
D03*
X0137Y024D02*
D03*
X0162D02*
D03*
X0137Y022D02*
D03*
X0162D02*
D03*
D88*
X01195Y024375D02*
D03*
Y029625D02*
D03*
X01795D02*
D03*
Y024375D02*
D03*
D89*
X0113Y0213D02*
D03*
X04475D02*
D03*
Y04835D02*
D03*
X0113D02*
D03*
D90*
X01905Y03636D02*
D03*
X017414Y0361D02*
D03*
X02175Y037042D02*
D03*
X024444Y041672D02*
D03*
X028178Y041797D02*
D03*
X029322Y041807D02*
D03*
X02975Y035862D02*
D03*
X02735Y033526D02*
D03*
X02855Y034056D02*
D03*
X0417Y036065D02*
D03*
X03775Y0372D02*
D03*
X03521Y037877D02*
D03*
X03488Y039192D02*
D03*
X017921Y045298D02*
D03*
X018165Y044006D02*
D03*
X019391Y044481D02*
D03*
X019562Y045785D02*
D03*
X020875Y045861D02*
D03*
X022146Y045523D02*
D03*
X021665Y046747D02*
D03*
X04395Y0274D02*
D03*
X0426D02*
D03*
X0348D02*
D03*
X03616D02*
D03*
X03875D02*
D03*
X04D02*
D03*
X025592Y038635D02*
D03*
X028224Y049663D02*
D03*
X026797D02*
D03*
X025398Y04945D02*
D03*
X024019Y047538D02*
D03*
X022836Y045378D02*
D03*
X02275Y043117D02*
D03*
X020894Y040892D02*
D03*
X015969Y040014D02*
D03*
X014742Y039541D02*
D03*
X01555Y03869D02*
D03*
X016552Y038886D02*
D03*
X017867D02*
D03*
X019182D02*
D03*
X025604Y042586D02*
D03*
X026918D02*
D03*
X0281Y0426D02*
D03*
X029548Y042586D02*
D03*
X03074Y043142D02*
D03*
X03167Y044071D02*
D03*
X032947Y044383D02*
D03*
Y041753D02*
D03*
Y040438D02*
D03*
Y039123D02*
D03*
X033481Y037921D02*
D03*
X034411Y036991D02*
D03*
X036499Y040477D02*
D03*
X035259Y040914D02*
D03*
X034076Y041488D02*
D03*
Y042803D02*
D03*
X03521Y044786D02*
D03*
X036525D02*
D03*
X037724Y045325D02*
D03*
X039023Y045526D02*
D03*
X040338Y045536D02*
D03*
X041536Y046078D02*
D03*
X041164Y047691D02*
D03*
X037713Y046664D02*
D03*
X035294D02*
D03*
X024019Y044211D02*
D03*
X025214Y045283D02*
D03*
Y046598D02*
D03*
X02915Y048512D02*
D03*
X029846Y04965D02*
D03*
X045Y044D02*
D03*
Y04D02*
D03*
X044Y038D02*
D03*
X045Y036D02*
D03*
Y032D02*
D03*
X044Y03D02*
D03*
X045Y028D02*
D03*
Y024D02*
D03*
X044Y022D02*
D03*
X043Y044D02*
D03*
Y04D02*
D03*
X042Y038D02*
D03*
Y034D02*
D03*
Y026D02*
D03*
X043Y024D02*
D03*
X042Y022D02*
D03*
X041Y044D02*
D03*
X04Y034D02*
D03*
Y03D02*
D03*
X041Y024D02*
D03*
X04Y022D02*
D03*
X039Y048D02*
D03*
Y044D02*
D03*
Y036D02*
D03*
X038Y03D02*
D03*
X039Y024D02*
D03*
X038Y022D02*
D03*
X037Y048D02*
D03*
X036Y046D02*
D03*
X037Y044D02*
D03*
Y04D02*
D03*
Y036D02*
D03*
Y024D02*
D03*
X036Y022D02*
D03*
X035Y044D02*
D03*
Y032D02*
D03*
X034Y03D02*
D03*
Y026D02*
D03*
X035Y024D02*
D03*
X034Y022D02*
D03*
X032Y038D02*
D03*
Y034D02*
D03*
X033Y032D02*
D03*
X032Y03D02*
D03*
X033Y028D02*
D03*
X032Y026D02*
D03*
X033Y024D02*
D03*
X032Y022D02*
D03*
X031Y048D02*
D03*
X03Y034D02*
D03*
X031Y032D02*
D03*
X03Y022D02*
D03*
X028Y046D02*
D03*
X029Y032D02*
D03*
X028Y022D02*
D03*
X026Y034D02*
D03*
X027Y032D02*
D03*
X026Y03D02*
D03*
Y022D02*
D03*
X024Y046D02*
D03*
X025Y044D02*
D03*
X024Y034D02*
D03*
X025Y032D02*
D03*
X024Y03D02*
D03*
X025Y028D02*
D03*
X024Y026D02*
D03*
X025Y024D02*
D03*
X024Y022D02*
D03*
X022Y042D02*
D03*
Y034D02*
D03*
X023Y032D02*
D03*
X022Y03D02*
D03*
X023Y028D02*
D03*
X022Y026D02*
D03*
X023Y024D02*
D03*
X022Y022D02*
D03*
X021Y048D02*
D03*
Y044D02*
D03*
Y032D02*
D03*
Y028D02*
D03*
X02Y026D02*
D03*
X021Y024D02*
D03*
X02Y022D02*
D03*
X019Y048D02*
D03*
X018Y046D02*
D03*
X019Y04D02*
D03*
X018Y038D02*
D03*
Y034D02*
D03*
X019Y032D02*
D03*
Y024D02*
D03*
X018Y022D02*
D03*
X017Y048D02*
D03*
X016Y046D02*
D03*
X017Y04D02*
D03*
X016Y038D02*
D03*
Y034D02*
D03*
Y03D02*
D03*
X017Y028D02*
D03*
X016Y026D02*
D03*
X017Y024D02*
D03*
X015Y048D02*
D03*
X014Y046D02*
D03*
X015Y036D02*
D03*
X014Y034D02*
D03*
Y03D02*
D03*
X015Y028D02*
D03*
X014Y026D02*
D03*
X015Y024D02*
D03*
X013Y048D02*
D03*
Y044D02*
D03*
X012Y042D02*
D03*
X013Y04D02*
D03*
X012Y038D02*
D03*
Y034D02*
D03*
X013Y032D02*
D03*
Y028D02*
D03*
X012Y026D02*
D03*
X013Y024D02*
D03*
X025491Y0394D02*
D03*
X01673Y03557D02*
D03*
X023536Y03865D02*
D03*
X0251Y03685D02*
D03*
X03015Y03775D02*
D03*
X0281Y036216D02*
D03*
X028393Y038783D02*
D03*
X02515Y040015D02*
D03*
X032213Y04884D02*
D03*
X032106Y04635D02*
D03*
X03101Y047121D02*
D03*
X03035Y04615D02*
D03*
X030697Y044895D02*
D03*
X029767Y043966D02*
D03*
X028452Y043949D02*
D03*
X027217Y043966D02*
D03*
X02595Y0471D02*
D03*
X025989Y044921D02*
D03*
X015933Y032986D02*
D03*
X015436Y031768D02*
D03*
X01677Y03146D02*
D03*
X017819Y031682D02*
D03*
X018336Y030473D02*
D03*
X01765Y02595D02*
D03*
X019464Y029228D02*
D03*
X019464Y030543D02*
D03*
X018326Y03277D02*
D03*
X0197Y037886D02*
D03*
X02189Y039192D02*
D03*
X02282Y040122D02*
D03*
X027404Y041179D02*
D03*
X027889Y037512D02*
D03*
X030056Y04125D02*
D03*
X033454Y046726D02*
D03*
Y048041D02*
D03*
X036814Y049136D02*
D03*
X038129D02*
D03*
X042546Y046706D02*
D03*
X043475Y045776D02*
D03*
X044405Y044847D02*
D03*
X0449Y04305D02*
D03*
X043913Y042905D02*
D03*
X042598D02*
D03*
X041283D02*
D03*
X039968D02*
D03*
X038653D02*
D03*
X037464Y042345D02*
D03*
X039064Y04133D02*
D03*
X041336Y040947D02*
D03*
X042356Y041776D02*
D03*
X043671D02*
D03*
X044986Y041736D02*
D03*
X045Y0375D02*
D03*
X044986Y0342D02*
D03*
Y033D02*
D03*
X044508Y031306D02*
D03*
X041881Y031214D02*
D03*
X037936D02*
D03*
X036621D02*
D03*
X035346Y030894D02*
D03*
X0367Y03D02*
D03*
X04175Y0301D02*
D03*
X045233Y030435D02*
D03*
X046097Y031426D02*
D03*
X046114Y032741D02*
D03*
Y034056D02*
D03*
Y035371D02*
D03*
Y036686D02*
D03*
Y038001D02*
D03*
Y039316D02*
D03*
Y040631D02*
D03*
Y041946D02*
D03*
Y04326D02*
D03*
X046107Y044575D02*
D03*
X045264Y045585D02*
D03*
X044334Y046515D02*
D03*
X043404Y047444D02*
D03*
X042474Y048374D02*
D03*
X041544Y049304D02*
D03*
X02335Y04315D02*
D03*
X030737Y03785D02*
D03*
X03175Y03745D02*
D03*
X0325Y0369D02*
D03*
M02*
