G04*
G04 #@! TF.GenerationSoftware,Altium Limited,Altium Designer,18.1.6 (161)*
G04*
G04 Layer_Physical_Order=1*
G04 Layer_Color=255*
%FSTAX24Y24*%
%MOIN*%
G70*
G01*
G75*
%ADD13C,0.0150*%
%ADD21C,0.0140*%
%ADD22R,0.0500X0.0550*%
%ADD23R,0.0453X0.0551*%
%ADD24R,0.0580X0.0140*%
%ADD25R,0.0550X0.0500*%
%ADD26R,0.0433X0.0472*%
%ADD27R,0.0370X0.0980*%
%ADD28R,0.2190X0.2480*%
%ADD29R,0.0472X0.0433*%
%ADD30R,0.0669X0.0709*%
%ADD31R,0.0394X0.0945*%
%ADD32R,0.1299X0.0945*%
%ADD33R,0.0787X0.0787*%
%ADD63C,0.0200*%
%ADD64C,0.0400*%
%ADD65C,0.0350*%
%ADD66C,0.0500*%
%ADD67C,0.0600*%
%ADD68C,0.0450*%
%ADD69C,0.0591*%
%ADD70C,0.0512*%
%ADD71O,0.0850X0.0650*%
%ADD72R,0.0850X0.0650*%
%ADD73C,0.0551*%
%ADD74O,0.0650X0.0750*%
%ADD75R,0.0650X0.0750*%
%ADD76R,0.1000X0.0700*%
%ADD77O,0.1000X0.0700*%
%ADD78C,0.0650*%
%ADD79R,0.0750X0.0650*%
%ADD80O,0.0750X0.0650*%
%ADD81C,0.0600*%
%ADD82C,0.0800*%
%ADD83R,0.0800X0.0800*%
%ADD84R,0.1000X0.1600*%
%ADD85R,0.1600X0.1000*%
%ADD86C,0.0700*%
%ADD87C,0.0900*%
%ADD88C,0.1380*%
%ADD89C,0.0315*%
G36*
X046447Y020003D02*
X010053D01*
Y049947D01*
X033268D01*
X033309Y049847D01*
X032935Y049473D01*
X03289Y049479D01*
X032779Y049464D01*
X032676Y049421D01*
X032587Y049353D01*
X032519Y049264D01*
X032476Y049161D01*
X032461Y04905D01*
Y04895D01*
X032476Y048839D01*
X032519Y048736D01*
X032587Y048647D01*
X032587Y048646D01*
Y047925D01*
X0325D01*
Y047175D01*
X032587D01*
Y046415D01*
X0322Y046028D01*
X032172Y046001D01*
X03208Y045925D01*
X032044Y045901D01*
X032014Y045885D01*
X031992Y045877D01*
X031979Y045874D01*
X031978Y045874D01*
X031026Y046826D01*
X030968Y046865D01*
X0309Y046878D01*
X03063D01*
Y047036D01*
X029997D01*
Y046364D01*
X03063D01*
Y046522D01*
X030826D01*
X031726Y045622D01*
X031726Y045621D01*
X031723Y045608D01*
X031715Y045586D01*
X031699Y045556D01*
X031675Y045519D01*
X031642Y045477D01*
X0316Y045429D01*
X031572Y0454D01*
X029859Y043687D01*
X027191D01*
X027136Y04369D01*
X027081Y0437D01*
X027037Y043715D01*
X027001Y043734D01*
X026972Y043757D01*
X026949Y043786D01*
X02693Y043821D01*
X026915Y043866D01*
X026905Y04392D01*
X026903Y043975D01*
Y044475D01*
X02695D01*
Y045225D01*
X026903D01*
Y045586D01*
X02735D01*
Y046731D01*
X026903D01*
Y048442D01*
X026897Y048485D01*
Y049014D01*
X026303D01*
Y048485D01*
X026297Y048442D01*
Y046731D01*
X02585D01*
Y045586D01*
X026297D01*
Y045225D01*
X02625D01*
Y044475D01*
X026297D01*
Y043975D01*
X026295Y04392D01*
X026285Y043866D01*
X02627Y043821D01*
X026251Y043786D01*
X026228Y043757D01*
X026199Y043734D01*
X026163Y043715D01*
X026119Y0437D01*
X026064Y04369D01*
X026009Y043687D01*
X025285D01*
X025206Y043677D01*
X025133Y043647D01*
X025071Y043599D01*
X020225Y038753D01*
X0182D01*
X018122Y038742D01*
X018049Y038712D01*
X017986Y038664D01*
X017086Y037764D01*
X017038Y037701D01*
X017008Y037628D01*
X016997Y03755D01*
Y036686D01*
X015523Y035278D01*
X014144D01*
X013228Y036194D01*
Y036734D01*
X013264Y036749D01*
X013353Y036817D01*
X013421Y036906D01*
X013464Y037009D01*
X013479Y03712D01*
X013464Y037231D01*
X013421Y037334D01*
X013353Y037423D01*
X013264Y037491D01*
X013161Y037534D01*
X01305Y037549D01*
X012939Y037534D01*
X012836Y037491D01*
X012828Y037486D01*
X012728Y037535D01*
Y038576D01*
X014324Y040172D01*
X01636D01*
X016428Y040185D01*
X016486Y040224D01*
X016927Y040665D01*
X017575D01*
Y041515D01*
X016625D01*
Y040867D01*
X016286Y040528D01*
X01425D01*
X014182Y040515D01*
X014124Y040476D01*
X012424Y038776D01*
X012385Y038718D01*
X012372Y03865D01*
Y037535D01*
X012272Y037486D01*
X012264Y037491D01*
X012161Y037534D01*
X01205Y037549D01*
X011939Y037534D01*
X011836Y037491D01*
X011747Y037423D01*
X011679Y037334D01*
X011636Y037231D01*
X011621Y03712D01*
X011636Y037009D01*
X011679Y036906D01*
X011747Y036817D01*
X011836Y036749D01*
X011872Y036734D01*
Y03605D01*
X011885Y035982D01*
X011924Y035924D01*
X013524Y034324D01*
X013524Y034324D01*
X013582Y034285D01*
X01365Y034272D01*
X01365Y034272D01*
X026D01*
X026068Y034285D01*
X026126Y034324D01*
X027867Y036064D01*
X027905Y036122D01*
X027919Y036191D01*
X027914Y036216D01*
Y03692D01*
X027901Y036986D01*
X027863Y037042D01*
X027773Y037133D01*
X027716Y03717D01*
X02765Y037184D01*
X02759D01*
Y037614D01*
X027611Y037618D01*
X027667Y037655D01*
X027997Y037985D01*
X028034Y038041D01*
X028048Y038108D01*
Y039325D01*
X028224D01*
Y040075D01*
X028177D01*
Y040175D01*
X028224D01*
Y040796D01*
X028375Y040947D01*
X029125D01*
X0293Y040772D01*
Y040175D01*
X029347D01*
Y040075D01*
X0293D01*
Y039545D01*
X028777Y039023D01*
X02874Y038966D01*
X028727Y0389D01*
Y038D01*
X02874Y037934D01*
X028777Y037877D01*
X028999Y037655D01*
X029056Y037618D01*
X029122Y037605D01*
X0295D01*
X029517Y037608D01*
X02989D01*
Y037608D01*
X029975Y037643D01*
X02999Y037648D01*
X03002Y037625D01*
X030083Y037599D01*
X03015Y03759D01*
X030217Y037599D01*
X03028Y037625D01*
X030334Y037666D01*
X030375Y03772D01*
X030392Y037761D01*
X030409Y037765D01*
X030478D01*
X030495Y037761D01*
X030512Y03772D01*
X030553Y037666D01*
X030607Y037625D01*
X030669Y037599D01*
X030737Y03759D01*
X030804Y037599D01*
X030867Y037625D01*
X03092Y037666D01*
X030962Y03772D01*
X030988Y037783D01*
X030996Y03785D01*
X030988Y037917D01*
X030962Y03798D01*
X03092Y038034D01*
X030899Y03805D01*
X030897Y038061D01*
X030859Y038117D01*
X030859Y038117D01*
X030564Y038412D01*
X030508Y03845D01*
X030442Y038463D01*
X03025D01*
X030211Y038555D01*
X030843Y039187D01*
X030882Y039245D01*
X030895Y039313D01*
Y040593D01*
X035006Y044704D01*
X035045Y044762D01*
X035058Y04483D01*
Y048564D01*
X035094Y048579D01*
X035183Y048647D01*
X035251Y048736D01*
X035294Y048839D01*
X035309Y04895D01*
Y04905D01*
X035294Y049161D01*
X035251Y049264D01*
X035226Y049297D01*
X035275Y049397D01*
X038975D01*
X039075Y049297D01*
Y049D01*
X039825D01*
Y049047D01*
X040575D01*
X041225Y048397D01*
Y047925D01*
X041697D01*
X042047Y047575D01*
X042006Y047475D01*
X041235D01*
Y047003D01*
X040635Y046403D01*
X039825D01*
Y04645D01*
X039075D01*
Y046403D01*
X0377D01*
X037622Y046392D01*
X037549Y046362D01*
X037486Y046314D01*
X036825Y045653D01*
X036113D01*
X036052Y045699D01*
X035954Y04574D01*
X03585Y045753D01*
X035746Y04574D01*
X035648Y045699D01*
X035565Y045635D01*
X035501Y045552D01*
X03546Y045454D01*
X035447Y04535D01*
X03546Y045246D01*
X035501Y045148D01*
X035565Y045065D01*
X035648Y045001D01*
X035746Y04496D01*
X03585Y044947D01*
X035954Y04496D01*
X036052Y045001D01*
X036113Y045047D01*
X03695D01*
X037028Y045058D01*
X037101Y045088D01*
X037164Y045136D01*
X037825Y045797D01*
X039075D01*
Y04575D01*
X039825D01*
Y045797D01*
X04076D01*
X040838Y045808D01*
X040911Y045838D01*
X040974Y045886D01*
X041613Y046525D01*
X042085D01*
Y047396D01*
X042185Y047437D01*
X045247Y044375D01*
Y042643D01*
X038258D01*
X03818Y042633D01*
X038107Y042603D01*
X038044Y042555D01*
X037436Y041947D01*
X037388Y041884D01*
X037358Y041811D01*
X037347Y041733D01*
Y040525D01*
X0373D01*
Y039775D01*
X037397D01*
Y039204D01*
X037397Y039203D01*
X037329Y039114D01*
X037286Y039011D01*
X037271Y0389D01*
X037286Y038789D01*
X037329Y038686D01*
X037397Y038597D01*
X037486Y038529D01*
X037589Y038486D01*
X0377Y038471D01*
X037811Y038486D01*
X037914Y038529D01*
X038003Y038597D01*
X038071Y038686D01*
X038114Y038789D01*
X038129Y0389D01*
X038114Y039011D01*
X038071Y039114D01*
X038003Y039203D01*
X038003Y039204D01*
Y0401D01*
X038003Y0401D01*
X038Y04012D01*
Y040525D01*
X037953D01*
Y041607D01*
X038384Y042038D01*
X039109D01*
X039164Y042035D01*
X039219Y042026D01*
X039263Y042011D01*
X039299Y041992D01*
X039328Y041968D01*
X039351Y04194D01*
X03937Y041904D01*
X039385Y04186D01*
X039395Y041805D01*
X039397Y04175D01*
Y04145D01*
X039325D01*
Y04075D01*
X040075D01*
Y04145D01*
X040003D01*
Y04175D01*
X040005Y041805D01*
X040015Y04186D01*
X04003Y041904D01*
X040049Y04194D01*
X040072Y041968D01*
X040101Y041992D01*
X040137Y042011D01*
X040181Y042026D01*
X0402Y042029D01*
X040219Y042026D01*
X040263Y042011D01*
X040299Y041992D01*
X040328Y041968D01*
X040351Y04194D01*
X04037Y041904D01*
X040385Y04186D01*
X040395Y041805D01*
X040397Y04175D01*
Y04145D01*
X040325D01*
Y04075D01*
X041075D01*
Y04145D01*
X041003D01*
Y04175D01*
X041005Y041805D01*
X041015Y04186D01*
X04103Y041904D01*
X041049Y04194D01*
X041072Y041968D01*
X041101Y041992D01*
X041137Y042011D01*
X041181Y042026D01*
X041236Y042035D01*
X041291Y042038D01*
X045247D01*
X045247Y031675D01*
X044525Y030953D01*
X0359D01*
X035822Y030942D01*
X035749Y030912D01*
X035686Y030864D01*
X035372Y03055D01*
X035075D01*
Y02985D01*
X035825D01*
Y030147D01*
X036025Y030347D01*
X038744D01*
X038795Y030346D01*
X038854Y030339D01*
X038904Y030329D01*
X038943Y030316D01*
X038952Y030311D01*
Y02985D01*
X039702D01*
Y030311D01*
X03971Y030316D01*
X039749Y030329D01*
X039799Y030339D01*
X039858Y030346D01*
X039909Y030347D01*
X042617D01*
X042669Y030346D01*
X042728Y030339D01*
X042777Y030329D01*
X042816Y030316D01*
X042825Y030311D01*
Y02985D01*
X043575D01*
Y030311D01*
X043584Y030316D01*
X043623Y030329D01*
X043672Y030339D01*
X043731Y030346D01*
X043783Y030347D01*
X04465D01*
X044728Y030358D01*
X044801Y030388D01*
X044864Y030436D01*
X045764Y031336D01*
X045812Y031399D01*
X045842Y031472D01*
X045853Y03155D01*
X045853Y04235D01*
Y0445D01*
X045853Y0445D01*
X045842Y044578D01*
X045812Y044651D01*
X045764Y044714D01*
X042075Y048403D01*
Y048875D01*
X041603D01*
X040914Y049564D01*
X040851Y049612D01*
X040778Y049642D01*
X0407Y049653D01*
X039825D01*
Y0497D01*
X039528D01*
X039381Y049847D01*
X039422Y049947D01*
X046447D01*
Y020003D01*
D02*
G37*
G36*
X0321Y0455D02*
X031623Y045306D01*
X031675Y04536D01*
X03172Y045412D01*
X031757Y045459D01*
X031787Y045504D01*
X031808Y045544D01*
X031822Y045581D01*
X031828Y045615D01*
X031826Y045645D01*
X031817Y045671D01*
X031799Y045694D01*
X031906Y045801D01*
X031929Y045783D01*
X031955Y045774D01*
X031985Y045772D01*
X032019Y045778D01*
X032056Y045792D01*
X032096Y045813D01*
X032141Y045843D01*
X03224Y045925D01*
X032294Y045977D01*
X0321Y0455D01*
D02*
G37*
G36*
X026804Y043909D02*
X026816Y043841D01*
X026836Y043781D01*
X026864Y043729D01*
X0269Y043685D01*
X026944Y043649D01*
X026996Y043621D01*
X027056Y043601D01*
X027124Y043589D01*
X0272Y043585D01*
X0266Y043185D01*
X026Y043585D01*
X026076Y043589D01*
X026144Y043601D01*
X026204Y043621D01*
X026256Y043649D01*
X0263Y043685D01*
X026336Y043729D01*
X026364Y043781D01*
X026384Y043841D01*
X026396Y043909D01*
X0264Y043985D01*
X0268D01*
X026804Y043909D01*
D02*
G37*
G36*
X02935Y043185D02*
X029274Y043181D01*
X029206Y043169D01*
X029146Y043149D01*
X029094Y043121D01*
X02905Y043085D01*
X029014Y043041D01*
X028986Y042989D01*
X028966Y042929D01*
X028954Y042861D01*
X02895Y042785D01*
X02855D01*
X028546Y042861D01*
X028534Y042929D01*
X028514Y042989D01*
X028486Y043041D01*
X02845Y043085D01*
X028406Y043121D01*
X028354Y043149D01*
X028294Y043169D01*
X028226Y043181D01*
X02815Y043185D01*
X02875Y043585D01*
X02935Y043185D01*
D02*
G37*
G36*
X0413Y042141D02*
X041224Y042137D01*
X041156Y042125D01*
X041096Y042105D01*
X041044Y042077D01*
X041Y042041D01*
X040964Y041997D01*
X040936Y041945D01*
X040916Y041885D01*
X040904Y041817D01*
X0409Y041741D01*
X0405D01*
X040496Y041817D01*
X040484Y041885D01*
X040464Y041945D01*
X040436Y041997D01*
X0404Y042041D01*
X040356Y042077D01*
X040304Y042105D01*
X040244Y042125D01*
X0402Y042133D01*
X040156Y042125D01*
X040096Y042105D01*
X040044Y042077D01*
X04Y042041D01*
X039964Y041997D01*
X039936Y041945D01*
X039916Y041885D01*
X039904Y041817D01*
X0399Y041741D01*
X0395D01*
X039496Y041817D01*
X039484Y041885D01*
X039464Y041945D01*
X039436Y041997D01*
X0394Y042041D01*
X039356Y042077D01*
X039304Y042105D01*
X039244Y042125D01*
X039176Y042137D01*
X0391Y042141D01*
X0397Y042541D01*
X0402Y042208D01*
X0407Y042541D01*
X0413Y042141D01*
D02*
G37*
G36*
X028214Y043079D02*
X028269Y04307D01*
X028313Y043055D01*
X028349Y043035D01*
X028378Y043012D01*
X028401Y042984D01*
X02842Y042948D01*
X028435Y042903D01*
X028445Y042849D01*
X028447Y042794D01*
Y041836D01*
X028445Y041783D01*
X028438Y041725D01*
X028426Y041678D01*
X028411Y04164D01*
X028393Y041612D01*
X028374Y041591D01*
X028352Y041575D01*
X028325Y041563D01*
X028292Y041555D01*
X028255Y041553D01*
X02825D01*
X028244Y041552D01*
X028243Y041552D01*
X028242Y041552D01*
X02824Y041551D01*
X028239Y041551D01*
X028238Y041551D01*
X028172Y041542D01*
X028099Y041512D01*
X028036Y041464D01*
X02766Y041088D01*
X027612Y041026D01*
X027582Y040953D01*
X027578Y040925D01*
X027524D01*
Y040175D01*
X027572D01*
Y040075D01*
X027524D01*
Y039325D01*
X027701D01*
Y038261D01*
X02769Y038253D01*
X02759Y0383D01*
Y038376D01*
X02759D01*
Y038716D01*
X02759D01*
Y038972D01*
X027217D01*
X0272Y038975D01*
X026822D01*
X026623Y039173D01*
Y04115D01*
X02661Y041216D01*
X026573Y041273D01*
X025923Y041923D01*
X025866Y04196D01*
X0258Y041973D01*
X02445D01*
X024441Y041972D01*
X024392Y042064D01*
X02541Y043082D01*
X028159D01*
X028214Y043079D01*
D02*
G37*
G36*
X028953Y041774D02*
X028962Y041706D01*
X028977Y041646D01*
X028998Y041594D01*
X029025Y04155D01*
X029058Y041514D01*
X029097Y041486D01*
X029142Y041466D01*
X029193Y041454D01*
X02925Y04145D01*
X02875Y04105D01*
X02825Y04145D01*
X028307Y041454D01*
X028358Y041466D01*
X028403Y041486D01*
X028442Y041514D01*
X028475Y04155D01*
X028502Y041594D01*
X028523Y041646D01*
X028538Y041706D01*
X028547Y041774D01*
X02855Y04185D01*
X02895D01*
X028953Y041774D01*
D02*
G37*
G36*
X033471Y048981D02*
Y04895D01*
X033486Y048839D01*
X033529Y048736D01*
X033597Y048647D01*
X033686Y048579D01*
X033722Y048564D01*
Y044474D01*
X030224Y040976D01*
X030185Y040918D01*
X030172Y04085D01*
Y039374D01*
X030084Y039286D01*
X03Y039344D01*
Y040075D01*
X029953D01*
Y040175D01*
X03D01*
Y040925D01*
X029943D01*
X029942Y040928D01*
X029912Y041001D01*
X029864Y041064D01*
X029864Y041064D01*
X029464Y041464D01*
X029401Y041512D01*
X029328Y041542D01*
X029262Y041551D01*
X029261Y041551D01*
X02926Y041551D01*
X029258Y041552D01*
X029257Y041552D01*
X029256Y041552D01*
X02925Y041553D01*
X029245D01*
X029208Y041555D01*
X029175Y041563D01*
X029148Y041575D01*
X029126Y041591D01*
X029107Y041612D01*
X029089Y04164D01*
X029074Y041678D01*
X029062Y041725D01*
X029055Y041783D01*
X029053Y041836D01*
Y042794D01*
X029055Y042849D01*
X029065Y042903D01*
X02908Y042948D01*
X029099Y042984D01*
X029122Y043012D01*
X029151Y043035D01*
X029187Y043055D01*
X029231Y04307D01*
X029286Y043079D01*
X029341Y043082D01*
X029985D01*
X030063Y043092D01*
X030136Y043123D01*
X030199Y043171D01*
X032314Y045286D01*
X032314Y045286D01*
X033104Y046076D01*
X033152Y046139D01*
X033182Y046212D01*
X033193Y04629D01*
X033193Y04629D01*
Y047175D01*
X0332D01*
Y047925D01*
X033193D01*
Y048646D01*
X033193Y048647D01*
X033261Y048736D01*
X033304Y048839D01*
X033319Y04895D01*
Y04898D01*
X033377Y049025D01*
X033471Y048981D01*
D02*
G37*
G36*
X025772Y040576D02*
Y03925D01*
X025785Y039182D01*
X025824Y039124D01*
X026387Y038561D01*
X026349Y038468D01*
X02595D01*
Y038625D01*
X025747D01*
X025726Y038657D01*
X025726Y038657D01*
X0256Y038783D01*
Y04039D01*
X02559Y0404D01*
X025267D01*
X025229Y040492D01*
X025412Y040675D01*
X025673D01*
X025772Y040576D01*
D02*
G37*
G36*
X023228Y040759D02*
X023227Y04075D01*
Y039302D01*
X021477Y037552D01*
X021401Y037584D01*
X02129Y037599D01*
X021179Y037584D01*
X021076Y037541D01*
X020987Y037473D01*
X020919Y037384D01*
X020876Y037281D01*
X020861Y03717D01*
Y03707D01*
X020876Y036959D01*
X02091Y036876D01*
X020825Y03682D01*
X020692Y036953D01*
X020694Y036959D01*
X020709Y03707D01*
Y03717D01*
X020694Y037281D01*
X020651Y037384D01*
X020583Y037473D01*
X020494Y037541D01*
X020391Y037584D01*
X02028Y037599D01*
X020169Y037584D01*
X020066Y037541D01*
X019977Y037473D01*
X019909Y037384D01*
X019866Y037281D01*
X019851Y03717D01*
Y03707D01*
X019866Y036959D01*
X019909Y036856D01*
X019977Y036767D01*
X020066Y036699D01*
X020169Y036656D01*
X02028Y036641D01*
X020391Y036656D01*
X020467Y036688D01*
X020877Y036277D01*
X020934Y03624D01*
X021Y036227D01*
X02508D01*
X025121Y036127D01*
X025018Y036023D01*
X019632D01*
X01905Y036605D01*
X019106Y03669D01*
X019189Y036656D01*
X0193Y036641D01*
X019411Y036656D01*
X019514Y036699D01*
X019603Y036767D01*
X019671Y036856D01*
X019714Y036959D01*
X019729Y03707D01*
Y03717D01*
X019714Y037281D01*
X019671Y037384D01*
X019603Y037473D01*
X019514Y037541D01*
X019411Y037584D01*
X0193Y037599D01*
X019189Y037584D01*
X019086Y037541D01*
X018997Y037473D01*
X018929Y037384D01*
X018886Y037281D01*
X018871Y03717D01*
Y03707D01*
X018886Y036959D01*
X01892Y036876D01*
X018835Y03682D01*
X018702Y036953D01*
X018704Y036959D01*
X018719Y03707D01*
Y03717D01*
X018704Y037281D01*
X018661Y037384D01*
X018593Y037473D01*
X018504Y037541D01*
X018401Y037584D01*
X01829Y037599D01*
X018179Y037584D01*
X018076Y037541D01*
X017987Y037473D01*
X017919Y037384D01*
X017876Y037281D01*
X017861Y03717D01*
Y03707D01*
X017876Y036959D01*
X017919Y036856D01*
X017987Y036767D01*
X018076Y036699D01*
X018179Y036656D01*
X01829Y036641D01*
X018401Y036656D01*
X018477Y036688D01*
X019437Y035727D01*
X019494Y03569D01*
X01956Y035677D01*
X02509D01*
X025156Y03569D01*
X025212Y035727D01*
X026578Y037093D01*
X02681D01*
Y036924D01*
X026786Y036919D01*
X02677Y036908D01*
X026769Y036908D01*
X026711Y03687D01*
X026711Y03687D01*
X026609Y036767D01*
X026597Y036749D01*
X025126Y035278D01*
X017448D01*
X017428Y035378D01*
X017451Y035388D01*
X017514Y035436D01*
X017562Y035499D01*
X017592Y035572D01*
X017603Y03565D01*
Y037425D01*
X018325Y038147D01*
X02035D01*
X020428Y038158D01*
X020501Y038188D01*
X020564Y038236D01*
X023136Y040808D01*
X023228Y040759D01*
D02*
G37*
G36*
X02583Y041525D02*
X025788Y041425D01*
X0252D01*
Y040968D01*
X024632Y0404D01*
X0243D01*
Y040392D01*
X024294D01*
Y039641D01*
X0243D01*
Y03875D01*
X025128D01*
X025186Y038693D01*
X02525Y038625D01*
X02525D01*
X02525Y038625D01*
Y037875D01*
X025621D01*
X025652Y037812D01*
X02566Y037775D01*
X025625Y03773D01*
X025599Y037667D01*
X02559Y0376D01*
X025599Y037533D01*
X025625Y03747D01*
X025666Y037416D01*
X02572Y037375D01*
X025726Y037373D01*
X025751Y037257D01*
X025068Y036573D01*
X021463D01*
X021443Y036673D01*
X021504Y036699D01*
X021593Y036767D01*
X021661Y036856D01*
X021704Y036959D01*
X021719Y03707D01*
Y03717D01*
X021704Y037281D01*
X021702Y037287D01*
X023523Y039107D01*
X02356Y039164D01*
X023573Y03923D01*
X023573Y03923D01*
Y040678D01*
X024522Y041627D01*
X025728D01*
X02583Y041525D01*
D02*
G37*
G36*
X0438Y03045D02*
X043724Y030447D01*
X043656Y03044D01*
X043596Y030427D01*
X043544Y03041D01*
X0435Y030387D01*
X043464Y03036D01*
X043436Y030327D01*
X043416Y03029D01*
X043404Y030247D01*
X0434Y0302D01*
X043D01*
X042996Y030247D01*
X042984Y03029D01*
X042964Y030327D01*
X042936Y03036D01*
X0429Y030387D01*
X042856Y03041D01*
X042804Y030427D01*
X042744Y03044D01*
X042676Y030447D01*
X0426Y03045D01*
X0432Y03085D01*
X0438Y03045D01*
D02*
G37*
G36*
X039927D02*
X039851Y030447D01*
X039783Y03044D01*
X039723Y030427D01*
X039671Y03041D01*
X039627Y030387D01*
X039591Y03036D01*
X039563Y030327D01*
X039543Y03029D01*
X039531Y030247D01*
X039527Y0302D01*
X039127D01*
X039123Y030247D01*
X039111Y03029D01*
X039091Y030327D01*
X039063Y03036D01*
X039027Y030387D01*
X038983Y03041D01*
X038931Y030427D01*
X038871Y03044D01*
X038803Y030447D01*
X038727Y03045D01*
X039327Y03085D01*
X039927Y03045D01*
D02*
G37*
%LPC*%
G36*
X029137Y049604D02*
X02605D01*
X025972Y049588D01*
X025906Y049544D01*
X02555Y049189D01*
X025506Y049123D01*
X025491Y049044D01*
Y049014D01*
X025398D01*
Y047869D01*
X025417D01*
Y047759D01*
X025185Y047527D01*
X025025D01*
Y0476D01*
X024275D01*
Y047203D01*
X023186Y046114D01*
X023156Y046075D01*
X023115D01*
Y045996D01*
X023108Y045978D01*
X023097Y0459D01*
Y045485D01*
Y044625D01*
X023D01*
Y043875D01*
X023047D01*
Y04315D01*
Y042675D01*
X020974Y040602D01*
X0209Y040669D01*
X0209Y040763D01*
Y041515D01*
X01995D01*
Y040665D01*
X0208D01*
X020896Y040665D01*
X020963Y040591D01*
X020125Y039753D01*
X015919D01*
X015841Y039742D01*
X015768Y039712D01*
X015705Y039664D01*
X014997Y038956D01*
X0147D01*
Y038206D01*
X014747D01*
Y037424D01*
X014747Y037423D01*
X014679Y037334D01*
X014636Y037231D01*
X014621Y03712D01*
X014636Y037009D01*
X014679Y036906D01*
X014747Y036817D01*
X014836Y036749D01*
X014939Y036706D01*
X01505Y036691D01*
X015161Y036706D01*
X015264Y036749D01*
X015353Y036817D01*
X015421Y036906D01*
X015464Y037009D01*
X015479Y03712D01*
X015464Y037231D01*
X015421Y037334D01*
X015353Y037423D01*
X015353Y037424D01*
Y038206D01*
X0154D01*
Y038503D01*
X016045Y039147D01*
X02025D01*
X020328Y039158D01*
X020401Y039188D01*
X020464Y039236D01*
X023564Y042336D01*
X023612Y042399D01*
X023642Y042472D01*
X023653Y04255D01*
Y04315D01*
Y043875D01*
X0237D01*
Y04428D01*
X023703Y0443D01*
X023703Y0443D01*
Y045485D01*
Y045775D01*
X024828Y0469D01*
X025025D01*
Y046973D01*
X0253D01*
X025372Y046982D01*
X025439Y04701D01*
X025496Y047054D01*
X025891Y047448D01*
X025935Y047506D01*
X025962Y047573D01*
X025972Y047644D01*
Y047869D01*
X025991D01*
Y049014D01*
X025991D01*
X02598Y049042D01*
X026134Y049196D01*
X029052D01*
X02912Y049128D01*
Y048764D01*
X029753D01*
Y049436D01*
X029389D01*
X029281Y049544D01*
X029215Y049588D01*
X029137Y049604D01*
D02*
G37*
G36*
X03058Y049436D02*
X029947D01*
Y048764D01*
X030085D01*
Y048322D01*
X02998D01*
Y047572D01*
X03068D01*
Y048322D01*
X030442D01*
Y048764D01*
X03058D01*
Y049436D01*
D02*
G37*
G36*
X04475Y049144D02*
X044595Y049129D01*
X044446Y049083D01*
X044309Y04901D01*
X044189Y048911D01*
X04409Y048791D01*
X044017Y048654D01*
X043971Y048505D01*
X043956Y04835D01*
X043971Y048195D01*
X044017Y048046D01*
X04409Y047909D01*
X044189Y047789D01*
X044309Y04769D01*
X044446Y047617D01*
X044595Y047571D01*
X04475Y047556D01*
X044905Y047571D01*
X045054Y047617D01*
X045191Y04769D01*
X045311Y047789D01*
X04541Y047909D01*
X045483Y048046D01*
X045529Y048195D01*
X045544Y04835D01*
X045529Y048505D01*
X045483Y048654D01*
X04541Y048791D01*
X045311Y048911D01*
X045191Y04901D01*
X045054Y049083D01*
X044905Y049129D01*
X04475Y049144D01*
D02*
G37*
G36*
X0113D02*
X011145Y049129D01*
X010996Y049083D01*
X010859Y04901D01*
X010739Y048911D01*
X01064Y048791D01*
X010567Y048654D01*
X010521Y048505D01*
X010506Y04835D01*
X010521Y048195D01*
X010567Y048046D01*
X01064Y047909D01*
X010739Y047789D01*
X010859Y04769D01*
X010996Y047617D01*
X011145Y047571D01*
X0113Y047556D01*
X011455Y047571D01*
X011604Y047617D01*
X011741Y04769D01*
X011861Y047789D01*
X01196Y047909D01*
X012033Y048046D01*
X012079Y048195D01*
X012094Y04835D01*
X012079Y048505D01*
X012033Y048654D01*
X01196Y048791D01*
X011861Y048911D01*
X011741Y04901D01*
X011604Y049083D01*
X011455Y049129D01*
X0113Y049144D01*
D02*
G37*
G36*
X029803Y047036D02*
X02917D01*
Y046364D01*
X029308D01*
Y045975D01*
X02907D01*
Y045225D01*
X02977D01*
Y045975D01*
X029665D01*
Y046364D01*
X029803D01*
Y047036D01*
D02*
G37*
G36*
X019072Y046854D02*
X018203D01*
Y045946D01*
X018234D01*
Y045244D01*
X018144D01*
Y044257D01*
X019131D01*
Y045244D01*
X019041D01*
Y045946D01*
X019072D01*
Y046047D01*
X0201D01*
X020123Y04605D01*
X020475D01*
Y046097D01*
X02116D01*
X021315Y045943D01*
Y044895D01*
X021885D01*
Y046075D01*
X021874D01*
X021868Y046122D01*
X02184Y046189D01*
X021796Y046246D01*
X021527Y046515D01*
X021512Y046551D01*
X021464Y046614D01*
X021401Y046662D01*
X021328Y046692D01*
X02125Y046703D01*
X020475D01*
Y04675D01*
X020123D01*
X0201Y046753D01*
X019072D01*
Y046854D01*
D02*
G37*
G36*
X01325Y04665D02*
X01205D01*
Y04485D01*
X01325D01*
Y04665D01*
D02*
G37*
G36*
X01745Y045352D02*
X01385D01*
X01384Y04535D01*
X01375D01*
Y04526D01*
X013748Y04525D01*
Y04425D01*
X01375Y04424D01*
Y04415D01*
X01384D01*
X01385Y044148D01*
X01745D01*
X017489Y044156D01*
X017522Y044178D01*
X017544Y044211D01*
X017552Y04425D01*
Y044257D01*
X017556D01*
Y045244D01*
X017552D01*
Y04525D01*
X017544Y045289D01*
X017522Y045322D01*
X017489Y045344D01*
X01745Y045352D01*
D02*
G37*
G36*
X020475Y042529D02*
X020375D01*
X020264Y042514D01*
X020161Y042471D01*
X020104Y042428D01*
X017421D01*
X017364Y042471D01*
X017261Y042514D01*
X01715Y042529D01*
X01705D01*
X016939Y042514D01*
X016836Y042471D01*
X016779Y042428D01*
X0163D01*
X016215Y042417D01*
X016136Y042384D01*
X016068Y042332D01*
X015814Y042078D01*
X0154D01*
Y0422D01*
X0142D01*
Y042078D01*
X014D01*
X013958Y042072D01*
X013915Y042067D01*
X013836Y042034D01*
X013768Y041982D01*
X013586Y0418D01*
X011979D01*
X011957Y041829D01*
X011852Y041909D01*
X011731Y041959D01*
X0116Y041976D01*
X011469Y041959D01*
X011348Y041909D01*
X011243Y041829D01*
X011163Y041724D01*
X011113Y041603D01*
X011096Y041472D01*
X011113Y041342D01*
X011163Y04122D01*
X011243Y041115D01*
X011348Y041035D01*
X011396Y041015D01*
Y040086D01*
X011347D01*
Y039414D01*
X01198D01*
Y040086D01*
X011804D01*
Y041015D01*
X011852Y041035D01*
X011957Y041115D01*
X011979Y041144D01*
X013722D01*
X013764Y04115D01*
X013807Y041155D01*
X013886Y041188D01*
X013954Y04124D01*
X0141Y041386D01*
X0142Y041345D01*
Y0413D01*
X0154D01*
Y041422D01*
X01595D01*
X015992Y041428D01*
X016035Y041433D01*
X016114Y041466D01*
X016182Y041518D01*
X016436Y041772D01*
X016779D01*
X016836Y041729D01*
X016939Y041686D01*
X01705Y041671D01*
X01715D01*
X017261Y041686D01*
X017364Y041729D01*
X017421Y041772D01*
X020104D01*
X020161Y041729D01*
X020264Y041686D01*
X020375Y041671D01*
X020475D01*
X020586Y041686D01*
X020689Y041729D01*
X020778Y041797D01*
X020846Y041886D01*
X020889Y041989D01*
X020904Y0421D01*
X020889Y042211D01*
X020846Y042314D01*
X020778Y042403D01*
X020689Y042471D01*
X020586Y042514D01*
X020475Y042529D01*
D02*
G37*
G36*
X03585Y042753D02*
X035746Y04274D01*
X035648Y042699D01*
X035565Y042635D01*
X035501Y042552D01*
X03546Y042454D01*
X035447Y04235D01*
X03546Y042246D01*
X035501Y042148D01*
X035565Y042065D01*
X035648Y042001D01*
X035746Y04196D01*
X03585Y041947D01*
X035954Y04196D01*
X036052Y042001D01*
X036135Y042065D01*
X036199Y042148D01*
X03624Y042246D01*
X036253Y04235D01*
X03624Y042454D01*
X036199Y042552D01*
X036135Y042635D01*
X036052Y042699D01*
X035954Y04274D01*
X03585Y042753D01*
D02*
G37*
G36*
Y041753D02*
X035746Y04174D01*
X035648Y041699D01*
X035565Y041635D01*
X035501Y041552D01*
X03546Y041454D01*
X035447Y04135D01*
X03546Y041246D01*
X035501Y041148D01*
X035565Y041065D01*
X035648Y041001D01*
X035746Y04096D01*
X03585Y040947D01*
X035954Y04096D01*
X036052Y041001D01*
X036135Y041065D01*
X036199Y041148D01*
X03624Y041246D01*
X036253Y04135D01*
X03624Y041454D01*
X036199Y041552D01*
X036135Y041635D01*
X036052Y041699D01*
X035954Y04174D01*
X03585Y041753D01*
D02*
G37*
G36*
Y040753D02*
X035746Y04074D01*
X035648Y040699D01*
X035565Y040635D01*
X035501Y040552D01*
X03546Y040454D01*
X035447Y04035D01*
X03546Y040246D01*
X035501Y040148D01*
X03552Y040123D01*
X03547Y040023D01*
X03475D01*
X034684Y04001D01*
X034627Y039973D01*
X032106Y037451D01*
X032004Y037491D01*
X032001Y037517D01*
X031975Y03758D01*
X031934Y037634D01*
X03188Y037675D01*
X031817Y037701D01*
X03175Y03771D01*
X031683Y037701D01*
X03162Y037675D01*
X031566Y037634D01*
X031558Y037623D01*
X031235D01*
X031168Y03761D01*
X031112Y037573D01*
X030979Y037439D01*
X028816D01*
X02875Y037426D01*
X028694Y037389D01*
X028694Y037389D01*
X028377Y037073D01*
X02834Y037016D01*
X028327Y03695D01*
Y035329D01*
X026724Y033726D01*
X026685Y033668D01*
X026672Y0336D01*
Y033111D01*
X026671Y033111D01*
X026596Y033054D01*
X026539Y032979D01*
X026503Y032893D01*
X026491Y0328D01*
X026503Y032707D01*
X026539Y032621D01*
X026596Y032546D01*
X026671Y032489D01*
X026757Y032453D01*
X02685Y032441D01*
X026943Y032453D01*
X027029Y032489D01*
X027104Y032546D01*
X027161Y032621D01*
X027197Y032707D01*
X027209Y0328D01*
X027197Y032893D01*
X027161Y032979D01*
X027104Y033054D01*
X027029Y033111D01*
X027028Y033111D01*
Y033526D01*
X027574Y034072D01*
X027618Y034062D01*
X027672Y034028D01*
Y033111D01*
X027671Y033111D01*
X027596Y033054D01*
X027539Y032979D01*
X027503Y032893D01*
X027491Y0328D01*
X027503Y032707D01*
X027539Y032621D01*
X027596Y032546D01*
X027671Y032489D01*
X027757Y032453D01*
X02785Y032441D01*
X027943Y032453D01*
X028029Y032489D01*
X028104Y032546D01*
X028161Y032621D01*
X028197Y032707D01*
X028209Y0328D01*
X028197Y032893D01*
X028161Y032979D01*
X028104Y033054D01*
X028029Y033111D01*
X028028Y033111D01*
Y033983D01*
X028774Y034729D01*
X028867Y034691D01*
Y033174D01*
X02885Y033159D01*
X028757Y033147D01*
X028671Y033111D01*
X028596Y033054D01*
X028539Y032979D01*
X028503Y032893D01*
X028491Y0328D01*
X028503Y032707D01*
X028539Y032621D01*
X028596Y032546D01*
X028671Y032489D01*
X028757Y032453D01*
X02885Y032441D01*
X028943Y032453D01*
X029029Y032489D01*
X029104Y032546D01*
X029161Y032621D01*
X029197Y032707D01*
X029209Y0328D01*
X029197Y032893D01*
X02919Y032909D01*
X0292Y032924D01*
X029213Y03299D01*
X029213Y03299D01*
Y036328D01*
X029483D01*
X0295Y036325D01*
X030908D01*
X030915Y036324D01*
X030921Y036322D01*
X030923Y036321D01*
X030923Y036319D01*
X030925Y036314D01*
X030927Y036306D01*
Y034122D01*
X029949Y033144D01*
X029943Y033147D01*
X02985Y033159D01*
X029757Y033147D01*
X029671Y033111D01*
X029596Y033054D01*
X029539Y032979D01*
X029503Y032893D01*
X029491Y0328D01*
X029503Y032707D01*
X029539Y032621D01*
X029596Y032546D01*
X029671Y032489D01*
X029757Y032453D01*
X02985Y032441D01*
X029943Y032453D01*
X030029Y032489D01*
X030104Y032546D01*
X030161Y032621D01*
X030197Y032707D01*
X030209Y0328D01*
X030197Y032893D01*
X030194Y032899D01*
X031223Y033927D01*
X03126Y033984D01*
X031273Y03405D01*
Y036306D01*
X031275Y036314D01*
X031277Y036319D01*
X031277Y036321D01*
X031279Y036322D01*
X031285Y036324D01*
X031292Y036325D01*
X032898D01*
X032965Y036338D01*
X033021Y036376D01*
X035647Y039002D01*
X035648Y039001D01*
X035746Y03896D01*
X03585Y038947D01*
X035954Y03896D01*
X036052Y039001D01*
X036135Y039065D01*
X036238Y039034D01*
X036245Y03899D01*
X035983Y038728D01*
X035954Y03874D01*
X03585Y038753D01*
X035746Y03874D01*
X035648Y038699D01*
X035565Y038635D01*
X035501Y038552D01*
X03546Y038454D01*
X035447Y03835D01*
X03546Y038246D01*
X035501Y038148D01*
X035565Y038065D01*
X035648Y038001D01*
X035746Y03796D01*
X03585Y037947D01*
X035954Y03796D01*
X036052Y038001D01*
X036135Y038065D01*
X036199Y038148D01*
X03624Y038246D01*
X036253Y03835D01*
X03624Y038454D01*
X036228Y038483D01*
X036573Y038827D01*
X03661Y038884D01*
X036623Y03895D01*
Y0395D01*
X03661Y039566D01*
X036573Y039623D01*
X036223Y039973D01*
X036198Y039989D01*
X036193Y039995D01*
X03617Y040088D01*
X036171Y040111D01*
X036199Y040148D01*
X03624Y040246D01*
X036253Y04035D01*
X03624Y040454D01*
X036199Y040552D01*
X036135Y040635D01*
X036052Y040699D01*
X035954Y04074D01*
X03585Y040753D01*
D02*
G37*
G36*
X0447Y039329D02*
X044589Y039314D01*
X044486Y039271D01*
X044397Y039203D01*
X044329Y039114D01*
X044286Y039011D01*
X044271Y0389D01*
X044286Y038789D01*
X044329Y038686D01*
X044397Y038597D01*
X044486Y038529D01*
X044589Y038486D01*
X0447Y038471D01*
X044811Y038486D01*
X044914Y038529D01*
X045003Y038597D01*
X045071Y038686D01*
X045114Y038789D01*
X045129Y0389D01*
X045114Y039011D01*
X045071Y039114D01*
X045003Y039203D01*
X044914Y039271D01*
X044811Y039314D01*
X0447Y039329D01*
D02*
G37*
G36*
X0437D02*
X043589Y039314D01*
X043486Y039271D01*
X043397Y039203D01*
X043329Y039114D01*
X043286Y039011D01*
X043271Y0389D01*
X043286Y038789D01*
X043329Y038686D01*
X043397Y038597D01*
X043486Y038529D01*
X043589Y038486D01*
X0437Y038471D01*
X043811Y038486D01*
X043914Y038529D01*
X044003Y038597D01*
X044071Y038686D01*
X044114Y038789D01*
X044129Y0389D01*
X044114Y039011D01*
X044071Y039114D01*
X044003Y039203D01*
X043914Y039271D01*
X043811Y039314D01*
X0437Y039329D01*
D02*
G37*
G36*
X0427D02*
X042589Y039314D01*
X042486Y039271D01*
X042397Y039203D01*
X042329Y039114D01*
X042286Y039011D01*
X042271Y0389D01*
X042286Y038789D01*
X042329Y038686D01*
X042397Y038597D01*
X042486Y038529D01*
X042589Y038486D01*
X0427Y038471D01*
X042811Y038486D01*
X042914Y038529D01*
X043003Y038597D01*
X043071Y038686D01*
X043114Y038789D01*
X043129Y0389D01*
X043114Y039011D01*
X043071Y039114D01*
X043003Y039203D01*
X042914Y039271D01*
X042811Y039314D01*
X0427Y039329D01*
D02*
G37*
G36*
X0417D02*
X041589Y039314D01*
X041486Y039271D01*
X041397Y039203D01*
X041329Y039114D01*
X041286Y039011D01*
X041271Y0389D01*
X041286Y038789D01*
X041329Y038686D01*
X041397Y038597D01*
X041486Y038529D01*
X041589Y038486D01*
X0417Y038471D01*
X041811Y038486D01*
X041914Y038529D01*
X042003Y038597D01*
X042071Y038686D01*
X042114Y038789D01*
X042129Y0389D01*
X042114Y039011D01*
X042071Y039114D01*
X042003Y039203D01*
X041914Y039271D01*
X041811Y039314D01*
X0417Y039329D01*
D02*
G37*
G36*
X040075Y04055D02*
X039325D01*
Y03985D01*
X039522D01*
Y039286D01*
X039486Y039271D01*
X039397Y039203D01*
X039329Y039114D01*
X039286Y039011D01*
X039271Y0389D01*
X039286Y038789D01*
X039306Y03874D01*
X03929Y038717D01*
X039277Y03865D01*
Y035869D01*
X039261Y035862D01*
X039183Y035802D01*
X039122Y035724D01*
X039084Y035632D01*
X039072Y035534D01*
X039084Y035436D01*
X039122Y035345D01*
X039183Y035266D01*
X039261Y035206D01*
X039352Y035168D01*
X03945Y035155D01*
X039548Y035168D01*
X03964Y035206D01*
X039718Y035266D01*
X039778Y035345D01*
X039816Y035436D01*
X039829Y035534D01*
X039816Y035632D01*
X039778Y035724D01*
X039718Y035802D01*
X03964Y035862D01*
X039624Y035869D01*
Y038406D01*
X039699Y038471D01*
X0397Y038471D01*
X039811Y038486D01*
X039914Y038529D01*
X040003Y038597D01*
X040071Y038686D01*
X040114Y038789D01*
X040129Y0389D01*
X040114Y039011D01*
X040071Y039114D01*
X040003Y039203D01*
X039914Y039271D01*
X039878Y039286D01*
Y03985D01*
X040075D01*
Y04055D01*
D02*
G37*
G36*
X011153Y040086D02*
X01052D01*
Y039414D01*
X010572D01*
Y039125D01*
X0104D01*
Y038375D01*
X0111D01*
Y039125D01*
X010928D01*
Y039414D01*
X011153D01*
Y040086D01*
D02*
G37*
G36*
X03585Y037753D02*
X035746Y03774D01*
X035648Y037699D01*
X035565Y037635D01*
X035501Y037552D01*
X03546Y037454D01*
X035447Y03735D01*
X03546Y037248D01*
X034606Y036394D01*
X034562Y036328D01*
X034546Y03625D01*
Y0343D01*
X034562Y034222D01*
X034606Y034156D01*
X036906Y031856D01*
X036972Y031812D01*
X03705Y031796D01*
X043425D01*
Y031575D01*
X044475D01*
Y032425D01*
X043425D01*
Y032204D01*
X037134D01*
X034954Y034384D01*
Y036166D01*
X035748Y03696D01*
X03585Y036947D01*
X035954Y03696D01*
X036052Y037001D01*
X036135Y037065D01*
X036199Y037148D01*
X03624Y037246D01*
X036253Y03735D01*
X03624Y037454D01*
X036199Y037552D01*
X036135Y037635D01*
X036052Y037699D01*
X035954Y03774D01*
X03585Y037753D01*
D02*
G37*
G36*
X01605Y037549D02*
X015939Y037534D01*
X015836Y037491D01*
X015747Y037423D01*
X015679Y037334D01*
X015636Y037231D01*
X015621Y03712D01*
X015636Y037009D01*
X015679Y036906D01*
X015747Y036817D01*
X015836Y036749D01*
X015939Y036706D01*
X01605Y036691D01*
X016161Y036706D01*
X016264Y036749D01*
X016353Y036817D01*
X016421Y036906D01*
X016464Y037009D01*
X016479Y03712D01*
X016464Y037231D01*
X016421Y037334D01*
X016353Y037423D01*
X016264Y037491D01*
X016161Y037534D01*
X01605Y037549D01*
D02*
G37*
G36*
X01105D02*
X010939Y037534D01*
X010836Y037491D01*
X010747Y037423D01*
X010679Y037334D01*
X010636Y037231D01*
X010621Y03712D01*
X010636Y037009D01*
X010679Y036906D01*
X010747Y036817D01*
X010836Y036749D01*
X010939Y036706D01*
X01105Y036691D01*
X011161Y036706D01*
X011264Y036749D01*
X011353Y036817D01*
X011421Y036906D01*
X011464Y037009D01*
X011479Y03712D01*
X011464Y037231D01*
X011421Y037334D01*
X011353Y037423D01*
X011264Y037491D01*
X011161Y037534D01*
X01105Y037549D01*
D02*
G37*
G36*
X041075Y04055D02*
X040325D01*
Y03985D01*
X040522D01*
Y039286D01*
X040486Y039271D01*
X040397Y039203D01*
X040329Y039114D01*
X040286Y039011D01*
X040271Y0389D01*
X040286Y038789D01*
X040329Y038686D01*
X040397Y038597D01*
X040486Y038529D01*
X040576Y038491D01*
Y035869D01*
X04056Y035862D01*
X040482Y035802D01*
X040422Y035724D01*
X040384Y035632D01*
X040371Y035534D01*
X040384Y035436D01*
X040414Y035362D01*
X040391Y035304D01*
X040359Y035262D01*
X039989D01*
X039923Y035249D01*
X039866Y035211D01*
X039565Y034909D01*
X039548Y034916D01*
X03945Y034929D01*
X039352Y034916D01*
X039261Y034878D01*
X039183Y034818D01*
X039122Y034739D01*
X039084Y034648D01*
X039072Y03455D01*
X039084Y034452D01*
X039122Y034361D01*
X039183Y034282D01*
X039261Y034222D01*
X039352Y034184D01*
X03945Y034171D01*
X039548Y034184D01*
X03964Y034222D01*
X039718Y034282D01*
X039778Y034361D01*
X039816Y034452D01*
X039829Y03455D01*
X039816Y034648D01*
X03981Y034664D01*
X040061Y034915D01*
X040444D01*
X040478Y034827D01*
X04048Y034815D01*
X040422Y034739D01*
X040384Y034648D01*
X040371Y03455D01*
X040384Y034452D01*
X040422Y034361D01*
X040482Y034282D01*
X04056Y034222D01*
X040652Y034184D01*
X04075Y034171D01*
X040848Y034184D01*
X040939Y034222D01*
X041017Y034282D01*
X041078Y034361D01*
X041084Y034377D01*
X0425D01*
X042566Y03439D01*
X042623Y034427D01*
X043344Y035148D01*
X043407Y035122D01*
X043434Y035098D01*
X043421Y035D01*
X043436Y034889D01*
X043479Y034786D01*
X043547Y034697D01*
X043636Y034629D01*
X043739Y034586D01*
X04385Y034571D01*
X04405D01*
X044161Y034586D01*
X044264Y034629D01*
X044353Y034697D01*
X044421Y034786D01*
X044464Y034889D01*
X044479Y035D01*
X044464Y035111D01*
X044421Y035214D01*
X044353Y035303D01*
X044264Y035371D01*
X044161Y035414D01*
X04405Y035429D01*
X04385D01*
X043752Y035416D01*
X043728Y035443D01*
X043702Y035506D01*
X043776Y035581D01*
X04385Y035571D01*
X04405D01*
X044161Y035586D01*
X044264Y035629D01*
X044353Y035697D01*
X044421Y035786D01*
X044464Y035889D01*
X044479Y036D01*
X044464Y036111D01*
X044421Y036214D01*
X044353Y036303D01*
X044264Y036371D01*
X044161Y036414D01*
X04405Y036429D01*
X04385D01*
X043752Y036416D01*
X043728Y036443D01*
X043702Y036506D01*
X043776Y036581D01*
X04385Y036571D01*
X04405D01*
X044161Y036586D01*
X044264Y036629D01*
X044353Y036697D01*
X044421Y036786D01*
X044464Y036889D01*
X044479Y037D01*
X044464Y037111D01*
X044421Y037214D01*
X044353Y037303D01*
X044264Y037371D01*
X044161Y037414D01*
X04405Y037429D01*
X04385D01*
X043739Y037414D01*
X043636Y037371D01*
X043547Y037303D01*
X043479Y037214D01*
X043436Y037111D01*
X043421Y037D01*
X043436Y036889D01*
X043479Y036786D01*
X043484Y036779D01*
X041967Y035262D01*
X04114D01*
X041108Y035304D01*
X041085Y035362D01*
X041116Y035436D01*
X041128Y035534D01*
X041116Y035632D01*
X041078Y035724D01*
X041017Y035802D01*
X040939Y035862D01*
X040923Y035869D01*
Y038535D01*
X041003Y038597D01*
X041071Y038686D01*
X041114Y038789D01*
X041129Y0389D01*
X041114Y039011D01*
X041071Y039114D01*
X041003Y039203D01*
X040914Y039271D01*
X040878Y039286D01*
Y03985D01*
X041075D01*
Y04055D01*
D02*
G37*
G36*
X03585Y036753D02*
X035746Y03674D01*
X035648Y036699D01*
X035565Y036635D01*
X035501Y036552D01*
X03546Y036454D01*
X035447Y03635D01*
X03546Y036246D01*
X035501Y036148D01*
X035565Y036065D01*
X035648Y036001D01*
X035746Y03596D01*
X03585Y035947D01*
X035954Y03596D01*
X036052Y036001D01*
X036135Y036065D01*
X036199Y036148D01*
X03624Y036246D01*
X036253Y03635D01*
X03624Y036454D01*
X036199Y036552D01*
X036135Y036635D01*
X036052Y036699D01*
X035954Y03674D01*
X03585Y036753D01*
D02*
G37*
G36*
Y035753D02*
X035746Y03574D01*
X035648Y035699D01*
X035565Y035635D01*
X035501Y035552D01*
X03546Y035454D01*
X035447Y03535D01*
X03546Y035246D01*
X035501Y035148D01*
X035565Y035065D01*
X035648Y035001D01*
X035746Y03496D01*
X03585Y034947D01*
X035954Y03496D01*
X035983Y034972D01*
X038127Y032827D01*
X038127Y032827D01*
X038184Y03279D01*
X03825Y032777D01*
X03825Y032777D01*
X0429D01*
X042966Y03279D01*
X043023Y032827D01*
X043344Y033148D01*
X043407Y033122D01*
X043434Y033098D01*
X043421Y033D01*
X043436Y032889D01*
X043479Y032786D01*
X043547Y032697D01*
X043636Y032629D01*
X043739Y032586D01*
X04385Y032571D01*
X04405D01*
X044161Y032586D01*
X044264Y032629D01*
X044353Y032697D01*
X044421Y032786D01*
X044464Y032889D01*
X044479Y033D01*
X044464Y033111D01*
X044421Y033214D01*
X044353Y033303D01*
X044264Y033371D01*
X044161Y033414D01*
X04405Y033429D01*
X04385D01*
X043752Y033416D01*
X043728Y033443D01*
X043702Y033506D01*
X043776Y033581D01*
X04385Y033571D01*
X04405D01*
X044161Y033586D01*
X044264Y033629D01*
X044353Y033697D01*
X044421Y033786D01*
X044464Y033889D01*
X044479Y034D01*
X044464Y034111D01*
X044421Y034214D01*
X044353Y034303D01*
X044264Y034371D01*
X044161Y034414D01*
X04405Y034429D01*
X04385D01*
X043739Y034414D01*
X043636Y034371D01*
X043547Y034303D01*
X043479Y034214D01*
X043436Y034111D01*
X043421Y034D01*
X043436Y033889D01*
X043479Y033786D01*
X043484Y033779D01*
X042828Y033123D01*
X040924D01*
X040904Y033223D01*
X040939Y033238D01*
X041017Y033298D01*
X041078Y033376D01*
X041116Y033468D01*
X041128Y033566D01*
X041116Y033664D01*
X041078Y033755D01*
X041017Y033834D01*
X040939Y033894D01*
X040848Y033932D01*
X04075Y033945D01*
X040652Y033932D01*
X04056Y033894D01*
X040482Y033834D01*
X040422Y033755D01*
X040384Y033664D01*
X040371Y033566D01*
X040384Y033468D01*
X040422Y033376D01*
X040482Y033298D01*
X04056Y033238D01*
X040595Y033223D01*
X040575Y033123D01*
X039625D01*
X039605Y033223D01*
X03964Y033238D01*
X039718Y033298D01*
X039778Y033376D01*
X039816Y033468D01*
X039829Y033566D01*
X039816Y033664D01*
X039778Y033755D01*
X039718Y033834D01*
X03964Y033894D01*
X039548Y033932D01*
X03945Y033945D01*
X039352Y033932D01*
X039261Y033894D01*
X039183Y033834D01*
X039122Y033755D01*
X039084Y033664D01*
X039072Y033566D01*
X039084Y033468D01*
X039122Y033376D01*
X039183Y033298D01*
X039261Y033238D01*
X039296Y033223D01*
X039276Y033123D01*
X038322D01*
X036228Y035217D01*
X03624Y035246D01*
X036253Y03535D01*
X03624Y035454D01*
X036199Y035552D01*
X036135Y035635D01*
X036052Y035699D01*
X035954Y03574D01*
X03585Y035753D01*
D02*
G37*
G36*
X01595Y031454D02*
X015833Y031438D01*
X015723Y031393D01*
X015629Y031321D01*
X015557Y031227D01*
X015512Y031117D01*
X015505Y031065D01*
X0155Y031033D01*
X0154D01*
X015395Y031065D01*
X015388Y031117D01*
X015343Y031227D01*
X015271Y031321D01*
X015177Y031393D01*
X015067Y031438D01*
X01495Y031454D01*
X014833Y031438D01*
X014723Y031393D01*
X014629Y031321D01*
X014557Y031227D01*
X014512Y031117D01*
X014496Y031D01*
X014512Y030883D01*
X014557Y030773D01*
X014629Y030679D01*
X014723Y030607D01*
X014833Y030562D01*
X01495Y030546D01*
X015067Y030562D01*
X015177Y030607D01*
X015271Y030679D01*
X015343Y030773D01*
X015388Y030883D01*
X015395Y030935D01*
X0154Y030967D01*
X0155D01*
X015505Y030935D01*
X015512Y030883D01*
X015557Y030773D01*
X015629Y030679D01*
X015723Y030607D01*
X015833Y030562D01*
X01595Y030546D01*
X016067Y030562D01*
X016177Y030607D01*
X016271Y030679D01*
X016343Y030773D01*
X016388Y030883D01*
X016404Y031D01*
X016388Y031117D01*
X016343Y031227D01*
X016271Y031321D01*
X016177Y031393D01*
X016067Y031438D01*
X01595Y031454D01*
D02*
G37*
G36*
X02685Y030159D02*
X026757Y030147D01*
X026671Y030111D01*
X026596Y030054D01*
X026539Y029979D01*
X026503Y029893D01*
X026491Y0298D01*
X026503Y029707D01*
X026506Y029701D01*
X025677Y028873D01*
X02564Y028816D01*
X025627Y02875D01*
Y027467D01*
X025464D01*
Y026833D01*
X026136D01*
Y027467D01*
X025973D01*
Y028678D01*
X026751Y029456D01*
X026757Y029453D01*
X02685Y029441D01*
X026943Y029453D01*
X027029Y029489D01*
X027104Y029546D01*
X027161Y029621D01*
X027197Y029707D01*
X027209Y0298D01*
X027197Y029893D01*
X027161Y029979D01*
X027104Y030054D01*
X027029Y030111D01*
X026943Y030147D01*
X02685Y030159D01*
D02*
G37*
G36*
X01795Y03018D02*
X017806Y030161D01*
X017673Y030105D01*
X017558Y030017D01*
X01747Y029902D01*
X017414Y029769D01*
X017395Y029625D01*
X017414Y029481D01*
X01747Y029348D01*
X017558Y029233D01*
X017673Y029145D01*
X017806Y029089D01*
X01795Y02907D01*
X018094Y029089D01*
X018227Y029145D01*
X018342Y029233D01*
X01843Y029348D01*
X018486Y029481D01*
X018505Y029625D01*
X018486Y029769D01*
X01843Y029902D01*
X018342Y030017D01*
X018227Y030105D01*
X018094Y030161D01*
X01795Y03018D01*
D02*
G37*
G36*
X01195D02*
X011806Y030161D01*
X011673Y030105D01*
X011558Y030017D01*
X01147Y029902D01*
X011414Y029769D01*
X011395Y029625D01*
X011414Y029481D01*
X01147Y029348D01*
X011558Y029233D01*
X011673Y029145D01*
X011806Y029089D01*
X01195Y02907D01*
X012094Y029089D01*
X012227Y029145D01*
X012342Y029233D01*
X01243Y029348D01*
X012486Y029481D01*
X012505Y029625D01*
X012486Y029769D01*
X01243Y029902D01*
X012342Y030017D01*
X012227Y030105D01*
X012094Y030161D01*
X01195Y03018D01*
D02*
G37*
G36*
X043575Y02965D02*
X042825D01*
Y02895D01*
X043022D01*
Y028541D01*
X04302Y028532D01*
X043018Y028525D01*
X043016Y028522D01*
X043015Y028521D01*
X043014Y02852D01*
X043011Y028518D01*
X043004Y028516D01*
X042994Y028514D01*
X042341D01*
X042332Y028535D01*
X042269Y028618D01*
X042186Y028681D01*
X04209Y028721D01*
X041987Y028735D01*
X041884Y028721D01*
X041788Y028681D01*
X041705Y028618D01*
X041642Y028535D01*
X041602Y028439D01*
X041588Y028336D01*
X041602Y028233D01*
X041642Y028136D01*
X041705Y028054D01*
X041788Y027991D01*
X041884Y027951D01*
X041987Y027937D01*
X04209Y027951D01*
X042186Y027991D01*
X042269Y028054D01*
X042332Y028136D01*
X042341Y028157D01*
X042994D01*
X043004Y028156D01*
X043011Y028153D01*
X043014Y028152D01*
X043015Y028151D01*
X043016Y02815D01*
X043018Y028147D01*
X04302Y02814D01*
X043022Y02813D01*
Y0268D01*
X043035Y026732D01*
X043074Y026674D01*
X043096Y026659D01*
X043593Y026162D01*
Y025575D01*
X043417D01*
Y024825D01*
X044117D01*
Y025575D01*
X04394D01*
Y026233D01*
X043927Y0263D01*
X043889Y026356D01*
X043378Y026867D01*
Y02813D01*
X04338Y02814D01*
X043382Y028147D01*
X043384Y02815D01*
X043385Y028151D01*
X043386Y028152D01*
X043389Y028153D01*
X043396Y028156D01*
X043406Y028157D01*
X044192D01*
X044201Y028136D01*
X044264Y028054D01*
X044347Y027991D01*
X044443Y027951D01*
X044546Y027937D01*
X044649Y027951D01*
X044745Y027991D01*
X044828Y028054D01*
X044891Y028136D01*
X044931Y028233D01*
X044945Y028336D01*
X044931Y028439D01*
X044891Y028535D01*
X044828Y028618D01*
X044745Y028681D01*
X044649Y028721D01*
X044546Y028735D01*
X044443Y028721D01*
X044347Y028681D01*
X044264Y028618D01*
X044201Y028535D01*
X044192Y028514D01*
X043406D01*
X043396Y028516D01*
X043389Y028518D01*
X043386Y02852D01*
X043385Y028521D01*
X043384Y028522D01*
X043382Y028525D01*
X04338Y028532D01*
X043378Y028541D01*
Y02895D01*
X043575D01*
Y02965D01*
D02*
G37*
G36*
X035825D02*
X035075D01*
Y02895D01*
X035272D01*
Y028541D01*
X03527Y028532D01*
X035268Y028525D01*
X035266Y028522D01*
X035265Y028521D01*
X035264Y02852D01*
X035261Y028518D01*
X035254Y028516D01*
X035244Y028514D01*
X034574D01*
X034566Y028535D01*
X034502Y028618D01*
X03442Y028681D01*
X034324Y028721D01*
X03422Y028735D01*
X034117Y028721D01*
X034021Y028681D01*
X033939Y028618D01*
X033875Y028535D01*
X033835Y028439D01*
X033822Y028336D01*
X033835Y028233D01*
X033875Y028136D01*
X033939Y028054D01*
X034021Y027991D01*
X034117Y027951D01*
X03422Y027937D01*
X034324Y027951D01*
X03442Y027991D01*
X034502Y028054D01*
X034566Y028136D01*
X034574Y028157D01*
X035244D01*
X035254Y028156D01*
X035261Y028153D01*
X035264Y028152D01*
X035265Y028151D01*
X035266Y02815D01*
X035268Y028147D01*
X03527Y02814D01*
X035272Y02813D01*
Y0268D01*
X035285Y026732D01*
X035324Y026674D01*
X035772Y026226D01*
Y025575D01*
X0356D01*
Y024825D01*
X0363D01*
Y025575D01*
X036128D01*
Y0263D01*
X036128Y0263D01*
X036115Y026368D01*
X036076Y026426D01*
X036076Y026426D01*
X035628Y026874D01*
Y02813D01*
X03563Y02814D01*
X035632Y028147D01*
X035634Y02815D01*
X035635Y028151D01*
X035636Y028152D01*
X035639Y028153D01*
X035646Y028156D01*
X035656Y028157D01*
X036426D01*
X036434Y028136D01*
X036498Y028054D01*
X03658Y027991D01*
X036676Y027951D01*
X03678Y027937D01*
X036883Y027951D01*
X036979Y027991D01*
X037061Y028054D01*
X037125Y028136D01*
X037165Y028233D01*
X037178Y028336D01*
X037165Y028439D01*
X037125Y028535D01*
X037061Y028618D01*
X036979Y028681D01*
X036883Y028721D01*
X03678Y028735D01*
X036676Y028721D01*
X03658Y028681D01*
X036498Y028618D01*
X036434Y028535D01*
X036426Y028514D01*
X035656D01*
X035646Y028516D01*
X035639Y028518D01*
X035636Y02852D01*
X035635Y028521D01*
X035634Y028522D01*
X035632Y028525D01*
X03563Y028532D01*
X035628Y028541D01*
Y02895D01*
X035825D01*
Y02965D01*
D02*
G37*
G36*
X039702D02*
X038952D01*
Y02895D01*
X039148D01*
Y028491D01*
X039146Y028482D01*
X039144Y028475D01*
X039142Y028472D01*
X039142Y028471D01*
X039141Y02847D01*
X039137Y028468D01*
X03913Y028466D01*
X039121Y028464D01*
X038474D01*
X038466Y028485D01*
X038402Y028568D01*
X03832Y028631D01*
X038224Y028671D01*
X03812Y028685D01*
X038017Y028671D01*
X037921Y028631D01*
X037839Y028568D01*
X037775Y028485D01*
X037735Y028389D01*
X037722Y028286D01*
X037735Y028183D01*
X037775Y028086D01*
X037839Y028004D01*
X037921Y027941D01*
X038017Y027901D01*
X03812Y027887D01*
X038224Y027901D01*
X03832Y027941D01*
X038402Y028004D01*
X038466Y028086D01*
X038474Y028107D01*
X039121D01*
X03913Y028106D01*
X039137Y028103D01*
X039141Y028102D01*
X039142Y028101D01*
X039142Y0281D01*
X039144Y028097D01*
X039146Y02809D01*
X039148Y02808D01*
Y0268D01*
X039162Y026732D01*
X0392Y026674D01*
X03968Y026194D01*
Y025625D01*
X039508D01*
Y024875D01*
X040208D01*
Y025625D01*
X040037D01*
Y026268D01*
X040037Y026268D01*
X040023Y026337D01*
X039984Y026394D01*
X039984Y026394D01*
X039505Y026874D01*
Y02808D01*
X039507Y02809D01*
X039509Y028097D01*
X039511Y0281D01*
X039511Y028101D01*
X039512Y028102D01*
X039516Y028103D01*
X039523Y028106D01*
X039532Y028107D01*
X040326D01*
X040334Y028086D01*
X040398Y028004D01*
X04048Y027941D01*
X040576Y027901D01*
X04068Y027887D01*
X040783Y027901D01*
X040879Y027941D01*
X040961Y028004D01*
X041025Y028086D01*
X041065Y028183D01*
X041078Y028286D01*
X041065Y028389D01*
X041025Y028485D01*
X040961Y028568D01*
X040879Y028631D01*
X040783Y028671D01*
X04068Y028685D01*
X040576Y028671D01*
X04048Y028631D01*
X040398Y028568D01*
X040334Y028485D01*
X040326Y028464D01*
X039532D01*
X039523Y028466D01*
X039516Y028468D01*
X039512Y02847D01*
X039511Y028471D01*
X039511Y028472D01*
X039509Y028475D01*
X039507Y028482D01*
X039505Y028491D01*
Y02895D01*
X039702D01*
Y02965D01*
D02*
G37*
G36*
X02985Y030159D02*
X029757Y030147D01*
X029671Y030111D01*
X029596Y030054D01*
X029539Y029979D01*
X029503Y029893D01*
X029491Y0298D01*
X029503Y029707D01*
X029539Y029621D01*
X029596Y029546D01*
X029671Y029489D01*
X029757Y029453D01*
X02985Y029441D01*
X029943Y029453D01*
X029949Y029456D01*
X030613Y028792D01*
Y027467D01*
X03045D01*
Y026833D01*
X031123D01*
Y027467D01*
X03096D01*
Y028863D01*
X030947Y02893D01*
X030909Y028986D01*
X030194Y029701D01*
X030197Y029707D01*
X030209Y0298D01*
X030197Y029893D01*
X030161Y029979D01*
X030104Y030054D01*
X030029Y030111D01*
X029943Y030147D01*
X02985Y030159D01*
D02*
G37*
G36*
X02885D02*
X028757Y030147D01*
X028671Y030111D01*
X028596Y030054D01*
X028539Y029979D01*
X028503Y029893D01*
X028491Y0298D01*
X028503Y029707D01*
X028539Y029621D01*
X028596Y029546D01*
X028671Y029489D01*
X028677Y029487D01*
Y028853D01*
X02869Y028787D01*
X028727Y028731D01*
X028951Y028507D01*
Y027467D01*
X028788D01*
Y026833D01*
X029461D01*
Y027467D01*
X029298D01*
Y028579D01*
X029285Y028645D01*
X029247Y028701D01*
X029023Y028925D01*
Y029487D01*
X029029Y029489D01*
X029104Y029546D01*
X029161Y029621D01*
X029197Y029707D01*
X029209Y0298D01*
X029197Y029893D01*
X029161Y029979D01*
X029104Y030054D01*
X029029Y030111D01*
X028943Y030147D01*
X02885Y030159D01*
D02*
G37*
G36*
X02785D02*
X027757Y030147D01*
X027671Y030111D01*
X027596Y030054D01*
X027539Y029979D01*
X027503Y029893D01*
X027491Y0298D01*
X027503Y029707D01*
X027539Y029621D01*
X027596Y029546D01*
X027671Y029489D01*
X027677Y029487D01*
Y028972D01*
X02734Y028635D01*
X027302Y028579D01*
X027289Y028512D01*
Y027467D01*
X027126D01*
Y026833D01*
X027798D01*
Y027467D01*
X027636D01*
Y02844D01*
X027973Y028777D01*
X027973Y028777D01*
X02801Y028834D01*
X028023Y0289D01*
Y029487D01*
X028029Y029489D01*
X028104Y029546D01*
X028161Y029621D01*
X028197Y029707D01*
X028209Y0298D01*
X028197Y029893D01*
X028161Y029979D01*
X028104Y030054D01*
X028029Y030111D01*
X027943Y030147D01*
X02785Y030159D01*
D02*
G37*
G36*
X01895Y027454D02*
X018833Y027438D01*
X018723Y027393D01*
X018629Y027321D01*
X018557Y027227D01*
X018512Y027117D01*
X018496Y027D01*
X018512Y026883D01*
X018557Y026773D01*
X018629Y026679D01*
X018723Y026607D01*
X018833Y026562D01*
X018885Y026555D01*
X018917Y02655D01*
Y02645D01*
X018885Y026445D01*
X018833Y026438D01*
X018723Y026393D01*
X018629Y026321D01*
X018557Y026227D01*
X018512Y026117D01*
X018496Y026D01*
X018512Y025883D01*
X018557Y025773D01*
X018629Y025679D01*
X018723Y025607D01*
X018833Y025562D01*
X01895Y025546D01*
X019067Y025562D01*
X019177Y025607D01*
X019271Y025679D01*
X019343Y025773D01*
X019388Y025883D01*
X019404Y026D01*
X019388Y026117D01*
X019343Y026227D01*
X019271Y026321D01*
X019177Y026393D01*
X019067Y026438D01*
X019015Y026445D01*
X018983Y02645D01*
Y02655D01*
X019015Y026555D01*
X019067Y026562D01*
X019177Y026607D01*
X019271Y026679D01*
X019343Y026773D01*
X019388Y026883D01*
X019404Y027D01*
X019388Y027117D01*
X019343Y027227D01*
X019271Y027321D01*
X019177Y027393D01*
X019067Y027438D01*
X01895Y027454D01*
D02*
G37*
G36*
X01795Y02493D02*
X017806Y024911D01*
X017673Y024855D01*
X017558Y024767D01*
X01747Y024652D01*
X017414Y024519D01*
X017395Y024375D01*
X017414Y024231D01*
X01747Y024098D01*
X017558Y023983D01*
X017673Y023895D01*
X017806Y023839D01*
X01795Y02382D01*
X018094Y023839D01*
X018227Y023895D01*
X018342Y023983D01*
X01843Y024098D01*
X018486Y024231D01*
X018505Y024375D01*
X018486Y024519D01*
X01843Y024652D01*
X018342Y024767D01*
X018227Y024855D01*
X018094Y024911D01*
X01795Y02493D01*
D02*
G37*
G36*
X01195D02*
X011806Y024911D01*
X011673Y024855D01*
X011558Y024767D01*
X01147Y024652D01*
X011414Y024519D01*
X011395Y024375D01*
X011414Y024231D01*
X01147Y024098D01*
X011558Y023983D01*
X011673Y023895D01*
X011806Y023839D01*
X01195Y02382D01*
X012094Y023839D01*
X012227Y023895D01*
X012342Y023983D01*
X01243Y024098D01*
X012486Y024231D01*
X012505Y024375D01*
X012486Y024519D01*
X01243Y024652D01*
X012342Y024767D01*
X012227Y024855D01*
X012094Y024911D01*
X01195Y02493D01*
D02*
G37*
G36*
X031123Y02664D02*
X03045D01*
Y026007D01*
X030613D01*
Y0243D01*
X030392D01*
Y0236D01*
X031142D01*
Y0243D01*
X03096D01*
Y026007D01*
X031123D01*
Y02664D01*
D02*
G37*
G36*
X029461D02*
X028788D01*
Y026007D01*
X028951D01*
Y0243D01*
X028729D01*
Y0236D01*
X029479D01*
Y0243D01*
X029298D01*
Y026007D01*
X029461D01*
Y02664D01*
D02*
G37*
G36*
X027798D02*
X027126D01*
Y026007D01*
X027289D01*
Y0243D01*
X027067D01*
Y0236D01*
X027817D01*
Y0243D01*
X027636D01*
Y026007D01*
X027798D01*
Y02664D01*
D02*
G37*
G36*
X026136D02*
X025464D01*
Y026007D01*
X025627D01*
Y0243D01*
X025405D01*
Y0236D01*
X026155D01*
Y0243D01*
X025973D01*
Y026007D01*
X026136D01*
Y02664D01*
D02*
G37*
G36*
X0162Y024454D02*
X016083Y024438D01*
X015973Y024393D01*
X015879Y024321D01*
X015807Y024227D01*
X015762Y024117D01*
X015746Y024D01*
X015762Y023883D01*
X015807Y023773D01*
X015879Y023679D01*
X015973Y023607D01*
X016083Y023562D01*
X0162Y023546D01*
X016317Y023562D01*
X016427Y023607D01*
X016521Y023679D01*
X016593Y023773D01*
X016638Y023883D01*
X016654Y024D01*
X016638Y024117D01*
X016593Y024227D01*
X016521Y024321D01*
X016427Y024393D01*
X016317Y024438D01*
X0162Y024454D01*
D02*
G37*
G36*
X0137D02*
X013583Y024438D01*
X013473Y024393D01*
X013379Y024321D01*
X013307Y024227D01*
X013262Y024117D01*
X013246Y024D01*
X013262Y023883D01*
X013307Y023773D01*
X013379Y023679D01*
X013473Y023607D01*
X013583Y023562D01*
X0137Y023546D01*
X013817Y023562D01*
X013927Y023607D01*
X014021Y023679D01*
X014093Y023773D01*
X014138Y023883D01*
X014154Y024D01*
X014138Y024117D01*
X014093Y024227D01*
X014021Y024321D01*
X013927Y024393D01*
X013817Y024438D01*
X0137Y024454D01*
D02*
G37*
G36*
X0162Y022454D02*
X016083Y022438D01*
X015973Y022393D01*
X015879Y022321D01*
X015807Y022227D01*
X015762Y022117D01*
X015746Y022D01*
X015762Y021883D01*
X015807Y021773D01*
X015879Y021679D01*
X015973Y021607D01*
X016083Y021562D01*
X0162Y021546D01*
X016317Y021562D01*
X016427Y021607D01*
X016521Y021679D01*
X016593Y021773D01*
X016638Y021883D01*
X016654Y022D01*
X016638Y022117D01*
X016593Y022227D01*
X016521Y022321D01*
X016427Y022393D01*
X016317Y022438D01*
X0162Y022454D01*
D02*
G37*
G36*
X0137D02*
X013583Y022438D01*
X013473Y022393D01*
X013379Y022321D01*
X013307Y022227D01*
X013262Y022117D01*
X013246Y022D01*
X013262Y021883D01*
X013307Y021773D01*
X013379Y021679D01*
X013473Y021607D01*
X013583Y021562D01*
X0137Y021546D01*
X013817Y021562D01*
X013927Y021607D01*
X014021Y021679D01*
X014093Y021773D01*
X014138Y021883D01*
X014154Y022D01*
X014138Y022117D01*
X014093Y022227D01*
X014021Y022321D01*
X013927Y022393D01*
X013817Y022438D01*
X0137Y022454D01*
D02*
G37*
G36*
X04475Y022094D02*
X044595Y022079D01*
X044446Y022033D01*
X044309Y02196D01*
X044189Y021861D01*
X04409Y021741D01*
X044017Y021604D01*
X043971Y021455D01*
X043956Y0213D01*
X043971Y021145D01*
X044017Y020996D01*
X04409Y020859D01*
X044189Y020739D01*
X044309Y02064D01*
X044446Y020567D01*
X044595Y020521D01*
X04475Y020506D01*
X044905Y020521D01*
X045054Y020567D01*
X045191Y02064D01*
X045311Y020739D01*
X04541Y020859D01*
X045483Y020996D01*
X045529Y021145D01*
X045544Y0213D01*
X045529Y021455D01*
X045483Y021604D01*
X04541Y021741D01*
X045311Y021861D01*
X045191Y02196D01*
X045054Y022033D01*
X044905Y022079D01*
X04475Y022094D01*
D02*
G37*
G36*
X0113D02*
X011145Y022079D01*
X010996Y022033D01*
X010859Y02196D01*
X010739Y021861D01*
X01064Y021741D01*
X010567Y021604D01*
X010521Y021455D01*
X010506Y0213D01*
X010521Y021145D01*
X010567Y020996D01*
X01064Y020859D01*
X010739Y020739D01*
X010859Y02064D01*
X010996Y020567D01*
X011145Y020521D01*
X0113Y020506D01*
X011455Y020521D01*
X011604Y020567D01*
X011741Y02064D01*
X011861Y020739D01*
X01196Y020859D01*
X012033Y020996D01*
X012079Y021145D01*
X012094Y0213D01*
X012079Y021455D01*
X012033Y021604D01*
X01196Y021741D01*
X011861Y021861D01*
X011741Y02196D01*
X011604Y022033D01*
X011455Y022079D01*
X0113Y022094D01*
D02*
G37*
%LPD*%
G36*
X01745Y04425D02*
X01385D01*
Y04525D01*
X01745D01*
Y04425D01*
D02*
G37*
G36*
X03552Y039577D02*
X035501Y039552D01*
X03546Y039454D01*
X035447Y03935D01*
X035453Y039298D01*
X032865Y03671D01*
X032803Y036718D01*
X032745Y036819D01*
X032751Y036833D01*
X03276Y0369D01*
X032751Y036967D01*
X032725Y03703D01*
X032684Y037084D01*
X03263Y037125D01*
X032567Y037151D01*
X0325Y03716D01*
X032438Y037152D01*
X03243Y037158D01*
X032391Y037246D01*
X034822Y039677D01*
X03547D01*
X03552Y039577D01*
D02*
G37*
G36*
X03131Y036428D02*
X031283Y036427D01*
X03126Y036423D01*
X031239Y036416D01*
X03122Y036406D01*
X031205Y036393D01*
X031192Y036378D01*
X031183Y03636D01*
X031176Y036339D01*
X031171Y036315D01*
X03117Y036288D01*
X03103D01*
X031029Y036315D01*
X031024Y036339D01*
X031017Y03636D01*
X031008Y036378D01*
X030995Y036393D01*
X03098Y036406D01*
X030961Y036416D01*
X03094Y036423D01*
X030917Y036427D01*
X03089Y036428D01*
X0311Y036568D01*
X03131Y036428D01*
D02*
G37*
G36*
X043277Y028532D02*
X043281Y028507D01*
X043288Y028484D01*
X043299Y028465D01*
X043313Y028448D01*
X043329Y028435D01*
X043348Y028424D01*
X043371Y028417D01*
X043397Y028412D01*
X043425Y028411D01*
Y028261D01*
X043397Y028259D01*
X043371Y028255D01*
X043348Y028247D01*
X043329Y028237D01*
X043313Y028223D01*
X043299Y028207D01*
X043288Y028187D01*
X043281Y028165D01*
X043277Y028139D01*
X043275Y028111D01*
X043125D01*
X043123Y028139D01*
X043119Y028165D01*
X043112Y028187D01*
X043101Y028207D01*
X043088Y028223D01*
X043071Y028237D01*
X043052Y028247D01*
X043029Y028255D01*
X043004Y028259D01*
X042975Y028261D01*
Y028411D01*
X043004Y028412D01*
X043029Y028417D01*
X043052Y028424D01*
X043071Y028435D01*
X043088Y028448D01*
X043101Y028465D01*
X043112Y028484D01*
X043119Y028507D01*
X043123Y028532D01*
X043125Y028561D01*
X043275D01*
X043277Y028532D01*
D02*
G37*
G36*
X035526D02*
X035531Y028507D01*
X035538Y028484D01*
X035549Y028465D01*
X035563Y028448D01*
X035579Y028435D01*
X035598Y028424D01*
X035621Y028417D01*
X035647Y028412D01*
X035675Y028411D01*
Y028261D01*
X035647Y028259D01*
X035621Y028255D01*
X035598Y028247D01*
X035579Y028237D01*
X035563Y028223D01*
X035549Y028207D01*
X035538Y028187D01*
X035531Y028165D01*
X035526Y028139D01*
X035525Y028111D01*
X035375D01*
X035373Y028139D01*
X035369Y028165D01*
X035361Y028187D01*
X035351Y028207D01*
X035338Y028223D01*
X035321Y028237D01*
X035301Y028247D01*
X035279Y028255D01*
X035254Y028259D01*
X035225Y028261D01*
Y028411D01*
X035254Y028412D01*
X035279Y028417D01*
X035301Y028424D01*
X035321Y028435D01*
X035338Y028448D01*
X035351Y028465D01*
X035361Y028484D01*
X035369Y028507D01*
X035373Y028532D01*
X035375Y028561D01*
X035525D01*
X035526Y028532D01*
D02*
G37*
G36*
X039403Y028482D02*
X039408Y028457D01*
X039415Y028434D01*
X039426Y028415D01*
X039439Y028398D01*
X039456Y028385D01*
X039475Y028374D01*
X039498Y028367D01*
X039523Y028362D01*
X039552Y028361D01*
Y028211D01*
X039523Y028209D01*
X039498Y028205D01*
X039475Y028197D01*
X039456Y028187D01*
X039439Y028173D01*
X039426Y028157D01*
X039415Y028137D01*
X039408Y028115D01*
X039403Y028089D01*
X039402Y028061D01*
X039252D01*
X03925Y028089D01*
X039246Y028115D01*
X039238Y028137D01*
X039228Y028157D01*
X039214Y028173D01*
X039198Y028187D01*
X039178Y028197D01*
X039156Y028205D01*
X03913Y028209D01*
X039102Y028211D01*
Y028361D01*
X03913Y028362D01*
X039156Y028367D01*
X039178Y028374D01*
X039198Y028385D01*
X039214Y028398D01*
X039228Y028415D01*
X039238Y028434D01*
X039246Y028457D01*
X03925Y028482D01*
X039252Y028511D01*
X039402D01*
X039403Y028482D01*
D02*
G37*
D13*
X01075Y03875D02*
Y039663D01*
X010837Y03975D01*
X0432Y0268D02*
Y028336D01*
X039858Y02525D02*
Y026268D01*
X039327Y0268D02*
X039858Y026268D01*
X039327Y0268D02*
Y028286D01*
X0309Y0467D02*
X0321Y0455D01*
X030313Y0467D02*
X0309D01*
X02942Y0456D02*
X029487Y045667D01*
Y0467D01*
X026Y03445D02*
X027741Y036191D01*
X01365Y03445D02*
X026D01*
X01205Y03605D02*
X01365Y03445D01*
X02785Y0328D02*
Y03405D01*
X025254Y0348D02*
X026952Y036498D01*
X01385Y0348D02*
X025254D01*
X01255Y0361D02*
X01385Y0348D01*
X0397Y0389D02*
Y0402D01*
X0407Y0389D02*
Y0402D01*
X03595Y0252D02*
Y0263D01*
X03545Y0268D02*
X03595Y0263D01*
X03545Y0268D02*
Y028336D01*
X02685Y0336D02*
X0285Y03525D01*
X03545Y028336D02*
X03678D01*
X03422D02*
X03545D01*
Y0293D01*
X039327Y028286D02*
X04068D01*
X03812D02*
X039327D01*
Y0293D01*
X0432Y028336D02*
X044546D01*
X041987D02*
X0432D01*
Y0293D01*
X025534Y04105D02*
X02555D01*
X02462Y040136D02*
X025534Y04105D01*
X02462Y040016D02*
Y040136D01*
X02555Y04105D02*
X02595Y04065D01*
Y03925D02*
Y04065D01*
Y03925D02*
X026654Y038546D01*
X03035Y04085D02*
X0339Y0444D01*
X03035Y0393D02*
Y04085D01*
X029852Y038802D02*
X03035Y0393D01*
X0295Y038552D02*
X029955D01*
X030717Y040667D02*
X03488Y04483D01*
X030717Y039313D02*
Y040667D01*
X029955Y038552D02*
X030717Y039313D01*
X030263Y048013D02*
X03033Y047947D01*
X030263Y048013D02*
Y0491D01*
X0256Y03825D02*
Y038531D01*
X02525Y038881D02*
X0256Y038531D01*
X02525Y038881D02*
Y03915D01*
X0256Y03825D02*
X02564Y03829D01*
X0272D01*
X0252Y0351D02*
X026735Y036635D01*
X026952Y036498D02*
X0272D01*
X026654Y038546D02*
X0272D01*
X02685Y0328D02*
Y0336D01*
X01407Y0351D02*
X0252D01*
X01305Y03612D02*
X01407Y0351D01*
X0295Y038546D02*
Y038552D01*
X03488Y04483D02*
Y049D01*
X0295Y038802D02*
X029852D01*
X0339Y0444D02*
Y049D01*
X01636Y04035D02*
X0171Y04109D01*
X01425Y04035D02*
X01636D01*
X01255Y03865D02*
X01425Y04035D01*
X01255Y0361D02*
Y03865D01*
X026843Y036743D02*
X026854Y036754D01*
X026838Y036743D02*
X026843D01*
X026735Y036641D02*
X026838Y036743D01*
X026735Y036635D02*
Y036641D01*
X026854Y036754D02*
X0272D01*
X01305Y03612D02*
Y03712D01*
X01205Y03605D02*
Y03712D01*
D21*
X0239Y039236D02*
X023986Y03915D01*
X02462D01*
X02525Y040165D02*
X0256Y040515D01*
X02525Y040016D02*
Y040165D01*
X0295Y036498D02*
X0311D01*
Y03405D02*
Y036498D01*
X02985Y0328D02*
X0311Y03405D01*
Y036498D02*
X032898D01*
X02445Y0418D02*
X0258D01*
X0234Y04075D02*
X02445Y0418D01*
X0234Y03923D02*
Y04075D01*
X0288Y035D02*
Y03685D01*
X02785Y03405D02*
X0288Y035D01*
X027741Y036191D02*
Y03692D01*
X0258Y0418D02*
X02645Y04115D01*
X02129Y03712D02*
X0234Y03923D01*
X0285Y03945D02*
X02875Y0397D01*
X0285Y03805D02*
Y03945D01*
Y03805D02*
X029028Y037522D01*
X0295D01*
X029122Y037778D02*
X0295D01*
X0289Y038D02*
X029122Y037778D01*
X0289Y038D02*
Y0389D01*
X02965Y03965D01*
X02875Y0397D02*
Y04055D01*
X02965Y03965D02*
Y0397D01*
X043767Y0252D02*
Y026233D01*
X0432Y0268D02*
X043767Y026233D01*
X030767Y02395D02*
X030787Y02397D01*
Y026323D01*
X029104Y02395D02*
X029124Y02397D01*
Y026323D01*
X027442Y02395D02*
X027462Y02397D01*
Y026323D01*
X02578Y02395D02*
X0258Y02397D01*
Y026323D01*
X02785Y0289D02*
Y0298D01*
X027462Y028512D02*
X02785Y0289D01*
X027462Y02715D02*
Y028512D01*
X029124Y02715D02*
Y028579D01*
X02885Y028853D02*
X029124Y028579D01*
X02885Y028853D02*
Y0298D01*
X030787Y02715D02*
Y028863D01*
X02985Y0298D02*
X030787Y028863D01*
X0258Y02715D02*
Y02875D01*
X02685Y0298D01*
X032898Y036498D02*
X03575Y03935D01*
X02885Y0328D02*
X02904Y03299D01*
Y03664D01*
X02765Y03701D02*
X027741Y03692D01*
X0272Y03701D02*
X02765D01*
X028816Y037266D02*
X0295D01*
X0285Y03695D02*
X028816Y037266D01*
X0285Y03525D02*
Y03695D01*
X02904Y03664D02*
X029154Y036754D01*
X0295D01*
X0425Y03455D02*
X04395Y036D01*
X04075Y03455D02*
X0425D01*
X03945D02*
X039989Y035089D01*
X042039D01*
X04395Y037D01*
X0429Y03295D02*
X04395Y034D01*
X03825Y03295D02*
X0429D01*
X0407Y0389D02*
X04075Y03885D01*
Y035534D02*
Y03885D01*
X03945Y03865D02*
X0397Y0389D01*
X03945Y035534D02*
Y03865D01*
X030737Y03785D02*
Y037995D01*
X030442Y03829D02*
X030737Y037995D01*
X0295Y03829D02*
X030442D01*
X029966Y038034D02*
X03015Y03785D01*
X0295Y038034D02*
X029966D01*
X031235Y03745D02*
X03175D01*
X031051Y037266D02*
X031235Y03745D01*
X0295Y037266D02*
X031051D01*
X03475Y03985D02*
X0361D01*
X03191Y03701D02*
X03475Y03985D01*
X0295Y03701D02*
X03191D01*
X03575Y03935D02*
X03585D01*
X032354Y036754D02*
X0325Y0369D01*
X0295Y036754D02*
X032354D01*
X03585Y03835D02*
X03645Y03895D01*
Y0395D01*
X0361Y03985D02*
X03645Y0395D01*
X03585Y03535D02*
X03825Y03295D01*
X02645Y039102D02*
Y04115D01*
Y039102D02*
X02675Y038802D01*
X0272D01*
X01829Y03712D02*
X01956Y03585D01*
X02509D01*
X026506Y037266D01*
X0272D01*
X02028Y03712D02*
X021Y0364D01*
X02514D01*
X026262Y037522D01*
X0272D01*
X02585Y0376D02*
X026284Y038034D01*
X0272D01*
X0288Y03685D02*
X02896Y03701D01*
X0295D01*
X027874Y038108D02*
Y0397D01*
X0272Y037778D02*
X027545D01*
X027874Y038108D01*
D22*
X043767Y0252D02*
D03*
X042867D02*
D03*
X039858Y02525D02*
D03*
X038958D02*
D03*
X03505Y0252D02*
D03*
X03595D02*
D03*
X0256Y03825D02*
D03*
X0247D02*
D03*
X02465Y04105D02*
D03*
X02555D02*
D03*
X027874Y0397D02*
D03*
X026974D02*
D03*
X027874Y04055D02*
D03*
X026974D02*
D03*
X02965Y0397D02*
D03*
X02875D02*
D03*
X02965Y04055D02*
D03*
X02875D02*
D03*
X03033Y047947D02*
D03*
X02943D02*
D03*
X0266Y04485D02*
D03*
X0275D02*
D03*
X01505Y038581D02*
D03*
X01415D02*
D03*
X01075Y03875D02*
D03*
X01165D02*
D03*
X02245Y04425D02*
D03*
X02335D02*
D03*
X03285Y04755D02*
D03*
X03195D02*
D03*
X02942Y0456D02*
D03*
X03032D02*
D03*
X03765Y04015D02*
D03*
X03855D02*
D03*
D23*
X02462Y040016D02*
D03*
Y03915D02*
D03*
X02525D02*
D03*
Y040016D02*
D03*
D24*
X0272Y038802D02*
D03*
X0272Y038546D02*
D03*
X0272Y03829D02*
D03*
X0272Y038034D02*
D03*
X0272Y037778D02*
D03*
Y037522D02*
D03*
Y037266D02*
D03*
Y03701D02*
D03*
Y036754D02*
D03*
Y036498D02*
D03*
X0295D02*
D03*
Y036754D02*
D03*
Y03701D02*
D03*
Y037266D02*
D03*
Y037522D02*
D03*
X0295Y037778D02*
D03*
X0295Y038034D02*
D03*
X0295Y03829D02*
D03*
X0295Y038546D02*
D03*
X0295Y038802D02*
D03*
D25*
X03945Y0461D02*
D03*
Y047D02*
D03*
Y04935D02*
D03*
Y04845D02*
D03*
X02465Y04725D02*
D03*
Y04815D02*
D03*
X027442Y02395D02*
D03*
Y02305D02*
D03*
X02578Y02395D02*
D03*
Y02305D02*
D03*
X0201Y0473D02*
D03*
Y0464D02*
D03*
X03545Y0293D02*
D03*
Y0302D02*
D03*
X029104Y02305D02*
D03*
Y02395D02*
D03*
X030767Y02305D02*
D03*
Y02395D02*
D03*
X039327Y0293D02*
D03*
Y0302D02*
D03*
X0432Y0293D02*
D03*
Y0302D02*
D03*
X0397Y0402D02*
D03*
Y0411D02*
D03*
X0407Y0402D02*
D03*
Y0411D02*
D03*
D26*
X029437Y0491D02*
D03*
X030263D02*
D03*
X011663Y03975D02*
D03*
X010837D02*
D03*
X030313Y0467D02*
D03*
X029487D02*
D03*
D27*
X0216Y045485D02*
D03*
X0234D02*
D03*
D28*
X0225Y048695D02*
D03*
D29*
X030787Y02715D02*
D03*
Y026323D02*
D03*
X029124Y02715D02*
D03*
Y026323D02*
D03*
X0258Y02715D02*
D03*
Y026323D02*
D03*
X027462Y02715D02*
D03*
Y026323D02*
D03*
D30*
X018637Y0464D02*
D03*
X017437D02*
D03*
D31*
X027506Y048442D02*
D03*
X0266D02*
D03*
X025694D02*
D03*
D32*
X0266Y046158D02*
D03*
D33*
X018637Y04475D02*
D03*
X017063D02*
D03*
D63*
X03705Y032D02*
X04395D01*
X03475Y0343D02*
X03705Y032D01*
X03475Y0343D02*
Y03625D01*
X03585Y03735D01*
X0116Y039813D02*
X011663Y03975D01*
X0116Y039813D02*
Y041472D01*
X02605Y0494D02*
X029137D01*
X025694Y049044D02*
X02605Y0494D01*
X025694Y048442D02*
Y049044D01*
X029137Y0494D02*
X029437Y0491D01*
D64*
X03765Y041733D02*
X038258Y042341D01*
X03765Y04015D02*
Y041733D01*
X038258Y042341D02*
X0397D01*
X0359Y03065D02*
X039327D01*
X0432D01*
X04465D01*
X03289Y04629D02*
Y049D01*
X0407Y042341D02*
X045541D01*
X0397D02*
X0407D01*
Y0411D02*
Y042341D01*
X0397Y0411D02*
Y042341D01*
X04555Y04235D02*
Y0445D01*
Y04235D02*
X04555Y03155D01*
X045541Y042341D02*
X04555Y04235D01*
X03765Y04015D02*
X0377Y0401D01*
Y0389D02*
Y0401D01*
X0432Y0302D02*
Y03065D01*
X039327Y0302D02*
Y03065D01*
X0182Y03845D02*
X02035D01*
X0173Y03755D02*
X0182Y03845D01*
X0173Y03565D02*
Y03755D01*
X0266Y043385D02*
X02875D01*
X025285D02*
X0266D01*
X02035Y03845D02*
X025285Y043385D01*
X0234Y0459D02*
X02465Y04715D01*
Y04725D01*
X02335Y04315D02*
Y04425D01*
Y04255D02*
Y04315D01*
X02025Y03945D02*
X02335Y04255D01*
Y04425D02*
X0234Y0443D01*
Y045485D01*
X0266Y043385D02*
Y04485D01*
X0321Y0455D02*
X03289Y04629D01*
X029985Y043385D02*
X0321Y0455D01*
X0266Y04485D02*
Y046158D01*
X015919Y03945D02*
X02025D01*
X01505Y038581D02*
X015919Y03945D01*
X04165Y0484D02*
X04555Y0445D01*
X04076Y0461D02*
X04166Y047D01*
X03945Y0461D02*
X04076D01*
X0377D02*
X03945D01*
X03695Y04535D02*
X0377Y0461D01*
X03585Y04535D02*
X03695D01*
X0407Y04935D02*
X04165Y0484D01*
X03945Y04935D02*
X0407D01*
X0391Y0497D02*
X03945Y04935D01*
X03359Y0497D02*
X0391D01*
X02875Y043385D02*
X029985D01*
X02875Y04125D02*
X02925D01*
X02825D02*
X02875D01*
Y043385D01*
X02965Y04055D02*
Y04085D01*
X02925Y04125D02*
X02965Y04085D01*
X027874Y040874D02*
X02825Y04125D01*
X027874Y04055D02*
Y040874D01*
X02965Y0397D02*
Y04055D01*
X0201Y0464D02*
X02125D01*
X03545Y0302D02*
X0359Y03065D01*
X027874Y0397D02*
Y04055D01*
X0234Y045485D02*
Y0459D01*
X04465Y03065D02*
X04555Y03155D01*
X03289Y049D02*
X03359Y0497D01*
X01505Y03712D02*
Y038581D01*
X0266Y046158D02*
Y048442D01*
D65*
X0216Y045485D02*
Y04605D01*
X02125Y0464D02*
X0216Y04605D01*
X025694Y047644D02*
Y048442D01*
X0253Y04725D02*
X025694Y047644D01*
X02465Y04725D02*
X0253D01*
D66*
X018637Y0464D02*
X0201D01*
D67*
X018637Y04475D02*
Y0464D01*
D68*
X0171Y0421D02*
X020425D01*
X0163D02*
X0171D01*
X01595Y04175D02*
X0163Y0421D01*
X0148Y04175D02*
X01595D01*
X014D02*
X0148D01*
X013722Y041472D02*
X014Y04175D01*
X0116Y041472D02*
X013722D01*
D69*
X03422Y028336D02*
D03*
Y026564D02*
D03*
X03678Y028336D02*
D03*
Y026564D02*
D03*
X03812Y028286D02*
D03*
Y026514D02*
D03*
X04068Y028286D02*
D03*
Y026514D02*
D03*
X044546Y026564D02*
D03*
Y028336D02*
D03*
X041987Y026564D02*
D03*
Y028336D02*
D03*
D70*
X02885Y0298D02*
D03*
X02785D02*
D03*
X02685D02*
D03*
X02985D02*
D03*
Y0328D02*
D03*
X02885D02*
D03*
X02785D02*
D03*
X02685D02*
D03*
D71*
X04395Y036D02*
D03*
Y033D02*
D03*
Y034D02*
D03*
Y035D02*
D03*
Y037D02*
D03*
D72*
Y032D02*
D03*
D73*
X04075Y033566D02*
D03*
Y03455D02*
D03*
Y035534D02*
D03*
X03945Y033566D02*
D03*
Y03455D02*
D03*
Y035534D02*
D03*
D74*
X04065Y047D02*
D03*
X04064Y0484D02*
D03*
X03289Y049D02*
D03*
X0339D02*
D03*
X03488D02*
D03*
X03589D02*
D03*
X02129Y03712D02*
D03*
X02028D02*
D03*
X0193D02*
D03*
X01829D02*
D03*
D75*
X04166Y047D02*
D03*
X04165Y0484D02*
D03*
D76*
X0148Y04175D02*
D03*
D77*
Y04275D02*
D03*
D78*
X01105Y03712D02*
D03*
X01205D02*
D03*
X01305D02*
D03*
X01405D02*
D03*
X01505D02*
D03*
X01605D02*
D03*
X0377Y0389D02*
D03*
X0387D02*
D03*
X0397D02*
D03*
X0407D02*
D03*
X0417D02*
D03*
X0427D02*
D03*
X0437D02*
D03*
X0447D02*
D03*
D79*
X020425Y04109D02*
D03*
X0171D02*
D03*
D80*
X020425Y0421D02*
D03*
Y04308D02*
D03*
X0171Y0421D02*
D03*
Y04308D02*
D03*
D81*
X03585Y04535D02*
D03*
Y04435D02*
D03*
Y04335D02*
D03*
Y04235D02*
D03*
Y04135D02*
D03*
Y04035D02*
D03*
Y03935D02*
D03*
Y03835D02*
D03*
Y03735D02*
D03*
Y03635D02*
D03*
Y03535D02*
D03*
D82*
X0116Y041472D02*
D03*
D83*
Y04285D02*
D03*
D84*
X01265Y04575D02*
D03*
D85*
X01465Y04725D02*
D03*
Y04475D02*
D03*
D86*
X01895Y028D02*
D03*
Y027D02*
D03*
Y026D02*
D03*
X01395Y031D02*
D03*
X01495D02*
D03*
X01595D02*
D03*
X0137Y024D02*
D03*
X0162D02*
D03*
X0137Y022D02*
D03*
X0162D02*
D03*
D87*
X01195Y024375D02*
D03*
Y029625D02*
D03*
X01795D02*
D03*
Y024375D02*
D03*
D88*
X0113Y0213D02*
D03*
X04475D02*
D03*
Y04835D02*
D03*
X0113D02*
D03*
D89*
X0281Y036216D02*
D03*
X028393Y038783D02*
D03*
X0256Y040515D02*
D03*
X02583Y04975D02*
D03*
X025146Y048979D02*
D03*
X02358Y046879D02*
D03*
X022836Y045795D02*
D03*
X022786Y043169D02*
D03*
X021139Y041137D02*
D03*
X020209Y040207D02*
D03*
X017593Y040014D02*
D03*
X016278D02*
D03*
X015101Y03943D02*
D03*
X015637Y038185D02*
D03*
X01675Y038886D02*
D03*
X025889Y042586D02*
D03*
X027204D02*
D03*
X029834D02*
D03*
X030922Y043324D02*
D03*
X031852Y044254D02*
D03*
X033054Y044786D02*
D03*
X034386Y038767D02*
D03*
Y037452D02*
D03*
X036904Y040505D02*
D03*
X037314Y043069D02*
D03*
Y044384D02*
D03*
X03795Y045536D02*
D03*
X039264Y045489D02*
D03*
X040578Y045536D02*
D03*
X041048Y047588D02*
D03*
X040112Y046664D02*
D03*
X038797D02*
D03*
X037483Y046619D02*
D03*
X036372Y045914D02*
D03*
X02396Y043972D02*
D03*
X023964Y045287D02*
D03*
X024685Y046387D02*
D03*
X0287Y048937D02*
D03*
X0239Y039236D02*
D03*
Y040421D02*
D03*
X02585Y038807D02*
D03*
X032213Y04884D02*
D03*
X031982Y046236D02*
D03*
X03101Y047121D02*
D03*
X030177Y046103D02*
D03*
X030697Y044895D02*
D03*
X029767Y043966D02*
D03*
X028452Y043949D02*
D03*
X027164Y044214D02*
D03*
X027538Y045475D02*
D03*
X027571Y046789D02*
D03*
X02595Y0471D02*
D03*
X02559Y046174D02*
D03*
X025989Y044921D02*
D03*
X017846Y038886D02*
D03*
X016912Y03796D02*
D03*
X016736Y036657D02*
D03*
X015933Y032986D02*
D03*
X015436Y031768D02*
D03*
X015494Y030455D02*
D03*
X016658Y031065D02*
D03*
X017819Y031682D02*
D03*
X018336Y030473D02*
D03*
X017636Y027941D02*
D03*
Y026626D02*
D03*
X018353Y025524D02*
D03*
X019636Y025814D02*
D03*
X019464Y029228D02*
D03*
X019464Y030543D02*
D03*
X018326Y03277D02*
D03*
X017864Y036631D02*
D03*
X018386Y037838D02*
D03*
X0197Y037886D02*
D03*
X02096Y038262D02*
D03*
X02189Y039192D02*
D03*
X02282Y040122D02*
D03*
X027404Y041179D02*
D03*
X027889Y037512D02*
D03*
X029753Y041545D02*
D03*
X033454Y046726D02*
D03*
Y048041D02*
D03*
X036814Y049136D02*
D03*
X038129D02*
D03*
X041616Y047636D02*
D03*
X042546Y046706D02*
D03*
X043475Y045776D02*
D03*
X044405Y044847D02*
D03*
X044986Y043667D02*
D03*
X043913Y042905D02*
D03*
X042598D02*
D03*
X041283D02*
D03*
X039968D02*
D03*
X038653D02*
D03*
X037464Y042345D02*
D03*
X039064Y04133D02*
D03*
X041336Y040947D02*
D03*
X042356Y041776D02*
D03*
X043671D02*
D03*
X044986Y041736D02*
D03*
Y040421D02*
D03*
Y037791D02*
D03*
Y036476D02*
D03*
Y035161D02*
D03*
Y033846D02*
D03*
Y032531D02*
D03*
X044508Y031306D02*
D03*
X043196Y031214D02*
D03*
X041881D02*
D03*
X037936D02*
D03*
X036621D02*
D03*
X035346Y030894D02*
D03*
X036399Y030086D02*
D03*
X04175Y0301D02*
D03*
X045233Y030435D02*
D03*
X046097Y031426D02*
D03*
X046114Y032741D02*
D03*
Y034056D02*
D03*
Y035371D02*
D03*
Y036686D02*
D03*
Y038001D02*
D03*
Y039316D02*
D03*
Y040631D02*
D03*
Y041946D02*
D03*
Y04326D02*
D03*
X046107Y044575D02*
D03*
X045264Y045585D02*
D03*
X044334Y046515D02*
D03*
X043404Y047444D02*
D03*
X042474Y048374D02*
D03*
X041544Y049304D02*
D03*
X045Y044D02*
D03*
Y04D02*
D03*
X044Y038D02*
D03*
X045Y036D02*
D03*
Y032D02*
D03*
X044Y03D02*
D03*
X045Y024D02*
D03*
X044Y022D02*
D03*
X043Y048D02*
D03*
X042Y046D02*
D03*
X043Y044D02*
D03*
Y04D02*
D03*
X042Y038D02*
D03*
Y034D02*
D03*
Y026D02*
D03*
X043Y024D02*
D03*
X042Y022D02*
D03*
X041Y044D02*
D03*
X04Y034D02*
D03*
Y03D02*
D03*
X041Y024D02*
D03*
X04Y022D02*
D03*
X039Y048D02*
D03*
Y044D02*
D03*
Y036D02*
D03*
X038Y03D02*
D03*
Y026D02*
D03*
X039Y024D02*
D03*
X038Y022D02*
D03*
X037Y048D02*
D03*
X036Y046D02*
D03*
X037Y04D02*
D03*
Y036D02*
D03*
X036Y03D02*
D03*
X037Y024D02*
D03*
X036Y022D02*
D03*
X035Y044D02*
D03*
X034Y042D02*
D03*
X035Y032D02*
D03*
X034Y03D02*
D03*
Y026D02*
D03*
X035Y024D02*
D03*
X034Y022D02*
D03*
X033Y04D02*
D03*
X032Y038D02*
D03*
Y034D02*
D03*
X033Y032D02*
D03*
X032Y03D02*
D03*
X033Y028D02*
D03*
X032Y026D02*
D03*
X033Y024D02*
D03*
X032Y022D02*
D03*
X031Y048D02*
D03*
X03Y034D02*
D03*
X031Y032D02*
D03*
X03Y026D02*
D03*
Y022D02*
D03*
X028Y046D02*
D03*
Y042D02*
D03*
X029Y032D02*
D03*
X028Y026D02*
D03*
Y022D02*
D03*
X027Y032D02*
D03*
X026Y03D02*
D03*
X027Y028D02*
D03*
X026Y022D02*
D03*
X025Y044D02*
D03*
X024Y038D02*
D03*
Y034D02*
D03*
X025Y032D02*
D03*
X024Y03D02*
D03*
X025Y028D02*
D03*
X024Y026D02*
D03*
X025Y024D02*
D03*
X024Y022D02*
D03*
X022Y042D02*
D03*
Y034D02*
D03*
X023Y032D02*
D03*
X022Y03D02*
D03*
X023Y028D02*
D03*
X022Y026D02*
D03*
X023Y024D02*
D03*
X022Y022D02*
D03*
X021Y048D02*
D03*
Y044D02*
D03*
Y032D02*
D03*
Y028D02*
D03*
Y024D02*
D03*
X02Y022D02*
D03*
X019Y048D02*
D03*
X018Y046D02*
D03*
X019Y044D02*
D03*
Y04D02*
D03*
X018Y034D02*
D03*
X019Y032D02*
D03*
Y024D02*
D03*
X018Y022D02*
D03*
X017Y048D02*
D03*
X016Y046D02*
D03*
Y034D02*
D03*
Y03D02*
D03*
X017Y028D02*
D03*
X016Y026D02*
D03*
X017Y024D02*
D03*
X015Y048D02*
D03*
X014Y046D02*
D03*
X015Y04D02*
D03*
X014Y038D02*
D03*
X015Y036D02*
D03*
X014Y034D02*
D03*
Y03D02*
D03*
X015Y028D02*
D03*
X014Y026D02*
D03*
X015Y024D02*
D03*
X013Y048D02*
D03*
Y044D02*
D03*
X012Y042D02*
D03*
X013Y04D02*
D03*
X012Y038D02*
D03*
Y034D02*
D03*
X013Y032D02*
D03*
Y028D02*
D03*
X012Y026D02*
D03*
X013Y024D02*
D03*
X012Y022D02*
D03*
X02335Y04315D02*
D03*
X0173Y03565D02*
D03*
X030737Y03785D02*
D03*
X03015D02*
D03*
X03175Y03745D02*
D03*
X0325Y0369D02*
D03*
X02585Y0376D02*
D03*
M02*
