G04*
G04 #@! TF.GenerationSoftware,Altium Limited,Altium Designer,18.1.6 (161)*
G04*
G04 Layer_Color=65535*
%FSTAX24Y24*%
%MOIN*%
G70*
G01*
G75*
%ADD10C,0.0079*%
%ADD11C,0.0070*%
%ADD12C,0.0098*%
%ADD13C,0.0150*%
%ADD14C,0.0040*%
%ADD15C,0.0050*%
%ADD16C,0.0060*%
%ADD17C,0.0080*%
%ADD18C,0.0100*%
%ADD19C,0.0039*%
%ADD20C,0.0158*%
%ADD21C,0.0140*%
G36*
X04165Y04896D02*
X0414Y04921D01*
X0419D01*
X04165Y04896D01*
D02*
G37*
G36*
X03314Y04819D02*
X03264D01*
X03289Y04844D01*
X03314Y04819D01*
D02*
G37*
G36*
X04166Y04756D02*
X04141Y04781D01*
X04191D01*
X04166Y04756D01*
D02*
G37*
G36*
X03519Y04535D02*
X03494Y0451D01*
Y0456D01*
X03519Y04535D01*
D02*
G37*
G36*
X01495Y04346D02*
X01516Y04342D01*
X01549Y04327D01*
X01566Y04314D01*
X01579Y04299D01*
X01587Y0429D01*
X01514D01*
X01511Y04295D01*
X01508Y04299D01*
X01504Y04303D01*
X01499Y04307D01*
X01494Y0431D01*
X01486Y04312D01*
X01475D01*
X01465Y0431D01*
X0146Y04308D01*
X01455Y04304D01*
X01449Y04297D01*
X01444Y0429D01*
X01375D01*
X01387Y04306D01*
X01413Y04328D01*
X0145Y04342D01*
X0148Y043466D01*
X01495Y04346D01*
D02*
G37*
G36*
X01064Y04333D02*
X010653Y0433D01*
Y0423D01*
X01064Y04227D01*
X01061Y042257D01*
X01011D01*
X01008Y04227D01*
X010067Y0423D01*
Y0433D01*
X01008Y04333D01*
X01011Y043343D01*
X01061D01*
X01064Y04333D01*
D02*
G37*
G36*
X010658Y041978D02*
X010674Y04194D01*
Y04094D01*
X010658Y040902D01*
X01062Y040886D01*
X01012D01*
X010082Y040902D01*
X010066Y04094D01*
Y04194D01*
X010082Y041978D01*
X01012Y041994D01*
X01062D01*
X010658Y041978D01*
D02*
G37*
G36*
X02125Y040865D02*
X021Y041115D01*
X02125Y041365D01*
Y040865D01*
D02*
G37*
G36*
X017925D02*
X017675Y041115D01*
X017925Y041365D01*
Y040865D01*
D02*
G37*
G36*
X02999Y038727D02*
X02989D01*
Y038877D01*
X02999D01*
Y038727D01*
D02*
G37*
G36*
X03795Y03794D02*
X03745D01*
X0377Y03819D01*
X03795Y03794D01*
D02*
G37*
G36*
X02129Y03768D02*
X02104Y03793D01*
X02154D01*
X02129Y03768D01*
D02*
G37*
G36*
X02681Y036423D02*
X02671Y036423D01*
Y036573D01*
X02681Y036573D01*
Y036423D01*
D02*
G37*
G36*
X0113Y03626D02*
X0108D01*
X01105Y03651D01*
X0113Y03626D01*
D02*
G37*
G36*
X04494Y03176D02*
X04469Y03201D01*
X04494Y03226D01*
Y03176D01*
D02*
G37*
G36*
X023147Y031576D02*
X023148Y031576D01*
X023223Y031568D01*
X023224Y031567D01*
X023224Y031567D01*
X023282Y031551D01*
X023283Y031551D01*
X023283Y031551D01*
X023358Y031526D01*
X023358Y031525D01*
X023359Y031525D01*
X023479Y031463D01*
X02348Y031463D01*
X02348Y031463D01*
X023588Y031392D01*
X023589Y03139D01*
X023591Y031389D01*
X023591Y031388D01*
X023591Y031388D01*
X023591Y031386D01*
X023591Y031384D01*
X023562Y031313D01*
X023561Y031313D01*
X023561Y031313D01*
X023511Y031209D01*
X023511Y031208D01*
X023511Y031208D01*
X023407Y031029D01*
X023406Y031029D01*
X023406Y031028D01*
X023344Y030961D01*
X023343Y030961D01*
X023343Y030961D01*
X023264Y030898D01*
X023264Y030898D01*
X023264Y030898D01*
X023214Y030861D01*
X023213Y03086D01*
X023212Y03086D01*
X023141Y03083D01*
X023141D01*
X023141Y03083D01*
X023028Y030797D01*
X023028Y030797D01*
X023027Y030797D01*
X022852Y030772D01*
X022852Y030772D01*
X022851Y030772D01*
X022705Y030776D01*
X022705Y030776D01*
X022704Y030776D01*
X022517Y030818D01*
X022516Y030818D01*
X022515Y030818D01*
X022349Y030897D01*
X022348Y030898D01*
X022348Y030898D01*
X022347Y030898D01*
X022347Y030898D01*
X022346Y0309D01*
X022345Y030901D01*
X022345Y030901D01*
X022345Y030902D01*
X022324Y03104D01*
X022325Y031042D01*
X022325Y031044D01*
X02235Y031086D01*
X02235Y031086D01*
X02235Y031086D01*
X022429Y031215D01*
X02243Y031215D01*
X02243Y031215D01*
X022546Y031365D01*
X022547Y031366D01*
X022548Y031367D01*
X022669Y031446D01*
X022669Y031446D01*
X022669Y031446D01*
X022731Y031479D01*
X022732Y03148D01*
X022803Y031517D01*
X022803Y031517D01*
X022804Y031517D01*
X02287Y031538D01*
X022871Y031538D01*
X022871Y031539D01*
X022962Y031564D01*
X022963Y031563D01*
X022964Y031564D01*
X023147Y031576D01*
X023147Y031576D01*
D02*
G37*
G36*
X02163Y031515D02*
X021631Y031515D01*
X021631Y031515D01*
X02171Y031498D01*
X021711Y031498D01*
X021711Y031498D01*
X021803Y03146D01*
X021803Y03146D01*
X021803Y03146D01*
X021874Y031426D01*
X021885Y031422D01*
X021885Y031422D01*
X021885Y031422D01*
X021906Y031411D01*
X021907Y031411D01*
X021907Y031411D01*
X021928Y0314D01*
X021928Y0314D01*
X021928Y0314D01*
X021948Y031387D01*
X021948Y031387D01*
X021948Y031387D01*
X021958Y03138D01*
X021958Y03138D01*
X021959Y03138D01*
X022047Y031308D01*
X022047Y031308D01*
X022048Y031308D01*
X022118Y031238D01*
X022118Y031237D01*
X022118Y031237D01*
X022168Y031162D01*
X022168Y031162D01*
X022169Y031161D01*
X02224Y031024D01*
X02224Y031023D01*
X02224Y031022D01*
X022261Y030893D01*
X022261Y030892D01*
X022261Y030892D01*
X022261Y030891D01*
X022261Y03089D01*
X02226Y030889D01*
X02226Y030888D01*
X022259Y030888D01*
X022259Y030887D01*
X022258Y030887D01*
X022258Y030886D01*
X022187Y030844D01*
X022187Y030844D01*
X022186Y030844D01*
X022136Y030827D01*
X022136Y030827D01*
X022136Y030827D01*
X022073Y03081D01*
X022073Y030811D01*
X022072Y03081D01*
X021985Y030798D01*
X021985Y030798D01*
X021985Y030798D01*
X021789Y030777D01*
X021788Y030777D01*
X021788Y030777D01*
X021684Y030785D01*
X021683Y030786D01*
X021682Y030786D01*
X021628Y030802D01*
X021628Y030802D01*
X021627Y030802D01*
X021527Y03084D01*
X021527Y03084D01*
X021526Y03084D01*
X02141Y030915D01*
X021409Y030915D01*
X021409Y030916D01*
X02133Y030974D01*
X02133Y030974D01*
X021329Y030975D01*
X021279Y031033D01*
X021279Y031033D01*
X021279Y031033D01*
X021229Y031096D01*
X021229Y031097D01*
X021228Y031097D01*
X021182Y031189D01*
X021182Y031189D01*
X021182Y031189D01*
X021145Y031264D01*
X021145Y031264D01*
X021145Y031264D01*
X02112Y031326D01*
X021103Y031359D01*
X021103Y031361D01*
X021103Y031363D01*
X021103Y031364D01*
X021103Y031364D01*
X021104Y031366D01*
X021105Y031368D01*
X021189Y031426D01*
X021189Y031426D01*
X02119Y031427D01*
X021256Y031456D01*
X021256D01*
X021256Y031456D01*
X021323Y031485D01*
X021324Y031485D01*
X021324Y031485D01*
X021416Y031506D01*
X021416Y031506D01*
X021416Y031506D01*
X021516Y031523D01*
X021517Y031523D01*
X021518Y031523D01*
X02163Y031515D01*
D02*
G37*
G36*
X022518Y032794D02*
X022518Y032794D01*
X02252Y032793D01*
X022522Y032791D01*
X022543Y03275D01*
X022588Y032684D01*
X022588Y032683D01*
X022588Y032683D01*
X022646Y032587D01*
X022647Y032587D01*
X022647Y032586D01*
X022676Y032511D01*
X022676Y032511D01*
X022676Y032511D01*
X022705Y032432D01*
X022705Y032431D01*
X022706Y032431D01*
X022718Y032318D01*
X022718Y032318D01*
X022718Y032318D01*
X022727Y032222D01*
X022727Y032222D01*
X022727Y032222D01*
Y032063D01*
X022727Y032063D01*
X022727Y032063D01*
X022722Y031988D01*
X022722Y031987D01*
X022722Y031987D01*
X022702Y031903D01*
X022702Y031903D01*
X022702Y031903D01*
X022681Y03182D01*
X02268Y03182D01*
X02268Y031819D01*
X022651Y031744D01*
X022614Y031644D01*
X022613Y031644D01*
X022613Y031644D01*
X022576Y031577D01*
X022576Y031577D01*
X022575Y031576D01*
X022492Y031468D01*
X022491Y031467D01*
X022491Y031467D01*
X022395Y031392D01*
X022395Y031392D01*
X022394Y031391D01*
X02234Y031358D01*
X022339Y031358D01*
X022339Y031357D01*
X022234Y031328D01*
X022233Y031328D01*
X022233Y031328D01*
X022231Y031328D01*
X02223Y031328D01*
X022229Y031329D01*
X022228Y03133D01*
X022227Y031331D01*
X022227Y031332D01*
X022227Y031333D01*
X022226Y031334D01*
X022227Y031367D01*
X022214Y031377D01*
X022213Y031378D01*
X022213Y031378D01*
X022157Y031442D01*
X022156Y031442D01*
X022156Y031443D01*
X02212Y031495D01*
X02212Y031495D01*
X022119Y031496D01*
X022091Y03156D01*
X022091Y03156D01*
X022091Y03156D01*
X022081Y031595D01*
X022081Y031595D01*
X022081Y031595D01*
X022064Y031683D01*
X022064Y031683D01*
X022064Y031683D01*
X022056Y031733D01*
X022056Y031733D01*
X022056Y031734D01*
X022047Y031842D01*
X022047Y031842D01*
X022047Y031842D01*
X022039Y031971D01*
X022039Y031971D01*
X022039Y031972D01*
Y032063D01*
X022039Y032064D01*
X022039Y032064D01*
X022051Y032152D01*
X022051Y032152D01*
X022051Y032152D01*
X022068Y032231D01*
X022068Y032231D01*
X022068Y032231D01*
X022093Y032344D01*
X022093Y032344D01*
X022093Y032345D01*
X022114Y032395D01*
X022114Y032395D01*
X022114Y032395D01*
X022143Y032462D01*
X022144Y032462D01*
X022144Y032463D01*
X022178Y032509D01*
X022178Y032509D01*
X022178Y032509D01*
X02224Y032592D01*
X022241Y032592D01*
X022241Y032593D01*
X022303Y032651D01*
X022303Y032651D01*
X022303Y032651D01*
X022383Y032722D01*
X022383Y032722D01*
X022384Y032723D01*
X022442Y03276D01*
X022442Y03276D01*
X022443Y032761D01*
X022513Y032794D01*
X022516Y032794D01*
X022518Y032794D01*
X022518Y032794D01*
D02*
G37*
G36*
X02361Y030689D02*
X023611Y030689D01*
X023611Y030689D01*
X023699Y030664D01*
X023699Y030664D01*
X023699Y030664D01*
X023795Y030635D01*
X023795Y030635D01*
X023796Y030635D01*
X023871Y030601D01*
X023871Y030601D01*
X023872Y030601D01*
X023988Y030522D01*
X023989Y03052D01*
X023991Y030518D01*
X023991Y030518D01*
X023991Y030518D01*
X023991Y030515D01*
X02399Y030513D01*
X023957Y030451D01*
X023957Y030451D01*
X023957Y03045D01*
X02389Y030334D01*
X023857Y030272D01*
X023856Y030271D01*
X023856Y030271D01*
X02381Y030216D01*
X02381Y030216D01*
X02381Y030216D01*
X023739Y030141D01*
X023739Y030141D01*
X023739Y030141D01*
X023623Y03002D01*
X023622Y03002D01*
X023621Y030019D01*
X023563Y029982D01*
X023563Y029982D01*
X023563Y029981D01*
X02345Y029919D01*
X023449Y029919D01*
X023449Y029919D01*
X023349Y029889D01*
X023349Y029889D01*
X023348Y029889D01*
X023278Y029872D01*
X023277Y029873D01*
X023277Y029872D01*
X023185Y029864D01*
X023185Y029864D01*
X023185Y029864D01*
X023093D01*
X023092Y029864D01*
X023092Y029864D01*
X022996Y029881D01*
X022996Y029881D01*
X022996Y029881D01*
X022887Y029902D01*
X022887Y029902D01*
X022887Y029902D01*
X022808Y029918D01*
X022808Y029919D01*
X022808Y029919D01*
X022754Y029935D01*
X022678Y029953D01*
X022677Y029954D01*
X022677Y029954D01*
X022676Y029955D01*
X022675Y029955D01*
X022675Y029956D01*
X022674Y029956D01*
X022674Y029957D01*
X022673Y029957D01*
X022624Y030081D01*
X022624Y030082D01*
X022624Y030083D01*
Y0301D01*
X022625Y030101D01*
X022625Y030103D01*
X022654Y030161D01*
X022679Y030211D01*
X022679Y030211D01*
X022679Y030211D01*
X022763Y03034D01*
X022763Y03034D01*
X022763Y030341D01*
X022813Y030416D01*
X022813Y030416D01*
X022813Y030416D01*
X022854Y030474D01*
X022855Y030474D01*
X022855Y030475D01*
X022905Y030521D01*
X022906Y030521D01*
X022906Y030522D01*
X022994Y030572D01*
X022994Y030572D01*
X022995Y030572D01*
X023174Y030647D01*
X023174Y030647D01*
X023175Y030647D01*
X023308Y030685D01*
X023309Y030685D01*
X023309Y030685D01*
X02348Y030698D01*
X02348Y030698D01*
X023481Y030698D01*
X02361Y030689D01*
D02*
G37*
G36*
X021891Y030536D02*
X021891Y030536D01*
X021892Y030536D01*
X022042Y030507D01*
X022042Y030506D01*
X022043Y030506D01*
X02213Y030464D01*
X022131Y030464D01*
X022131Y030464D01*
X022235Y030397D01*
X022236Y030397D01*
X022236Y030397D01*
X022299Y030343D01*
X022299Y030342D01*
X022299Y030342D01*
X022341Y030292D01*
X022432Y030184D01*
X022456Y030168D01*
X022457Y030167D01*
X022459Y030165D01*
X022538Y029915D01*
X022538Y029914D01*
X022538Y029913D01*
X022538Y029913D01*
X022538Y029912D01*
X022538Y029911D01*
X022538Y02991D01*
X022537Y029909D01*
X022537Y029908D01*
X022536Y029908D01*
X022536Y029908D01*
X022482Y029866D01*
X022481Y029866D01*
X022481Y029866D01*
X022406Y02982D01*
X022406Y02982D01*
X022405Y02982D01*
X022305Y029774D01*
X022305Y029774D01*
X022304Y029774D01*
X022204Y029744D01*
X022204Y029744D01*
X022204Y029744D01*
X022083Y029719D01*
X022083Y029719D01*
X022082Y029719D01*
X021924Y029711D01*
X021924Y029711D01*
X021923Y029711D01*
X021774Y029715D01*
X021773Y029715D01*
X021773Y029715D01*
X021673Y029732D01*
X021672Y029732D01*
X021671Y029732D01*
X021613Y029757D01*
X021613Y029757D01*
X021613Y029757D01*
X021517Y029803D01*
X021517Y029803D01*
X021516Y029803D01*
X02145Y029836D01*
X02145Y029837D01*
X021449Y029837D01*
X021382Y029883D01*
X021382Y029883D01*
X021381Y029883D01*
X021323Y029942D01*
X021323Y029942D01*
X021322Y029943D01*
X021235Y030068D01*
X021235Y030068D01*
X021235Y030068D01*
X021201Y030131D01*
X021201Y030131D01*
X021201Y030131D01*
X021155Y030218D01*
X021155Y030219D01*
X021155Y030219D01*
X021126Y030294D01*
X021126Y030296D01*
X021126Y030297D01*
X021126Y030298D01*
X021126Y030299D01*
X021127Y0303D01*
X021128Y030301D01*
X02117Y030335D01*
X02117Y030335D01*
X02117Y030335D01*
X02127Y030402D01*
X02127Y030402D01*
X021271Y030402D01*
X021383Y03046D01*
X021383Y03046D01*
X021384Y030461D01*
X021434Y030481D01*
X021434D01*
X021434Y030482D01*
X021584Y030519D01*
X021659Y03054D01*
X02166Y03054D01*
X02166Y03054D01*
X02174Y030548D01*
X02174Y030548D01*
X021741Y030548D01*
X021891Y030536D01*
D02*
G37*
D10*
X024659Y040528D02*
G03*
X024659Y040528I-000039J0D01*
G01*
X026799Y038802D02*
G03*
X026799Y038802I-000039J0D01*
G01*
X017371Y021744D02*
G03*
X017371Y021744I-000039J0D01*
G01*
X034457Y02867D02*
X036543D01*
X03428Y026978D02*
Y027922D01*
X03672Y026978D02*
Y027922D01*
X034457Y02623D02*
X036543D01*
X038357Y02862D02*
X040443D01*
X03818Y026928D02*
Y027872D01*
X04062Y026928D02*
Y027872D01*
X038357Y02618D02*
X040443D01*
X042223Y02623D02*
X04431D01*
X044487Y026978D02*
Y027922D01*
X042046Y026978D02*
Y027922D01*
X042223Y02867D02*
X04431D01*
X026114Y033268D02*
X030586D01*
X026114Y029332D02*
Y033268D01*
Y029332D02*
X030586D01*
Y033268D01*
X039411Y036322D02*
X040789D01*
X039411Y032778D02*
X040789D01*
Y035928D02*
Y036322D01*
X039411Y035928D02*
Y036322D01*
Y032778D02*
Y033172D01*
X040789Y032778D02*
Y033172D01*
X025281Y047851D02*
X027919D01*
X025281Y046749D02*
X027919D01*
Y047851D01*
X025281Y046749D02*
Y047851D01*
X01912Y04493D02*
Y04523D01*
X01658Y04492D02*
Y04524D01*
Y04427D02*
X01911D01*
X01658Y04524D02*
X01912D01*
X01911Y04427D02*
Y044499D01*
X01658Y04427D02*
Y044499D01*
D11*
X01605Y042216D02*
G03*
X01605Y042216I-00125J0D01*
G01*
X04339Y03251D02*
X04452D01*
X04337Y0315D02*
Y03756D01*
X04452Y0315D02*
Y03756D01*
X04337Y0315D02*
X04452D01*
X04337Y03756D02*
X04452D01*
X03334Y0485D02*
Y04949D01*
X03639Y0485D02*
Y0495D01*
X03239D02*
X03639D01*
X03239Y0485D02*
Y0495D01*
Y0485D02*
X03639D01*
X02084Y03663D02*
Y03762D01*
X01779Y03662D02*
Y03762D01*
Y03662D02*
X02179D01*
Y03762D01*
X01779D02*
X02179D01*
X01475Y0412D02*
X01485D01*
X0148Y0411D02*
Y0413D01*
X01485Y0412D02*
X0149D01*
X0147D02*
X01475D01*
X01062Y04094D02*
Y04194D01*
X01012Y04094D02*
X01062D01*
X01012D02*
Y04194D01*
X01062D01*
X01011Y0423D02*
Y0433D01*
Y0423D02*
X01061D01*
Y0433D01*
X01011D02*
X01061D01*
X01285Y04955D02*
X01615D01*
X01285Y0448D02*
Y05025D01*
X01615Y0448D02*
Y05025D01*
X01285Y0448D02*
X01615D01*
X01285Y05025D02*
X01615D01*
D12*
X027968Y048442D02*
G03*
X027968Y048442I-000049J0D01*
G01*
X016349Y04528D02*
G03*
X016349Y04528I-000049J0D01*
G01*
D13*
X0383Y03405D02*
Y03505D01*
D14*
X043147Y02545D02*
X043487D01*
X043147Y02495D02*
X043487D01*
X039238Y0255D02*
X039578D01*
X039238Y025D02*
X039578D01*
X03533Y02495D02*
X03567D01*
X03533Y02545D02*
X03567D01*
X02498Y0385D02*
X02532D01*
X02498Y038D02*
X02532D01*
X02493Y0408D02*
X02527D01*
X02493Y0413D02*
X02527D01*
X027254Y03995D02*
X027594D01*
X027254Y03945D02*
X027594D01*
X027254Y0408D02*
X027594D01*
X027254Y0403D02*
X027594D01*
X02903Y03995D02*
X02937D01*
X02903Y03945D02*
X02937D01*
X02903Y0408D02*
X02937D01*
X02903Y0403D02*
X02937D01*
X0397Y04638D02*
Y04672D01*
X0392Y04638D02*
Y04672D01*
Y04873D02*
Y04907D01*
X0397Y04873D02*
Y04907D01*
X02971Y048197D02*
X03005D01*
X02971Y047697D02*
X03005D01*
X02688Y0446D02*
X02722D01*
X02688Y0451D02*
X02722D01*
X01443Y038831D02*
X01477D01*
X01443Y038331D02*
X01477D01*
X01103Y0385D02*
X01137D01*
X01103Y039D02*
X01137D01*
X02273Y044D02*
X02307D01*
X02273Y0445D02*
X02307D01*
X03223Y0478D02*
X03257D01*
X03223Y0473D02*
X03257D01*
X0297Y04535D02*
X03004D01*
X0297Y04585D02*
X03004D01*
X0249Y04753D02*
Y04787D01*
X0244Y04753D02*
Y04787D01*
X03793Y0399D02*
X03827D01*
X03793Y0404D02*
X03827D01*
X027192Y02333D02*
Y02367D01*
X027692Y02333D02*
Y02367D01*
X02553Y02333D02*
Y02367D01*
X02603Y02333D02*
Y02367D01*
X01985Y04668D02*
Y04702D01*
X02035Y04668D02*
Y04702D01*
X0357Y02958D02*
Y02992D01*
X0352Y02958D02*
Y02992D01*
X029354Y02333D02*
Y02367D01*
X028854Y02333D02*
Y02367D01*
X031017Y02333D02*
Y02367D01*
X030517Y02333D02*
Y02367D01*
X039577Y02958D02*
Y02992D01*
X039077Y02958D02*
Y02992D01*
X04345Y02958D02*
Y02992D01*
X04295Y02958D02*
Y02992D01*
X03995Y04048D02*
Y04082D01*
X03945Y04048D02*
Y04082D01*
X04095Y04048D02*
Y04082D01*
X04045Y04048D02*
Y04082D01*
D15*
X042547Y02486D02*
X044077D01*
Y02553D01*
X042547D02*
X044077D01*
X042547Y02486D02*
Y02553D01*
X038638Y02491D02*
X040168D01*
Y02558D01*
X038638D02*
X040168D01*
X038638Y02491D02*
Y02558D01*
X03473Y02486D02*
Y02553D01*
X03626D01*
Y02486D02*
Y02553D01*
X03473Y02486D02*
X03626D01*
X02438Y03791D02*
X02591D01*
Y03858D01*
X02438D02*
X02591D01*
X02438Y03791D02*
Y03858D01*
X025427Y039504D02*
Y039662D01*
X024443Y039504D02*
Y039662D01*
X02434Y04139D02*
X02587D01*
X02434Y04072D02*
Y04139D01*
Y04072D02*
X02587D01*
Y04139D01*
X026654Y03936D02*
X028184D01*
Y04003D01*
X026654D02*
X028184D01*
X026654Y03936D02*
Y04003D01*
Y04021D02*
X028184D01*
Y04088D01*
X026654D02*
X028184D01*
X026654Y04021D02*
Y04088D01*
X02843Y03936D02*
X02996D01*
Y04003D01*
X02843D02*
X02996D01*
X02843Y03936D02*
Y04003D01*
Y04021D02*
X02996D01*
Y04088D01*
X02843D02*
X02996D01*
X02843Y04021D02*
Y04088D01*
X03911Y04579D02*
Y04732D01*
Y04579D02*
X03978D01*
Y04732D01*
X03911D02*
X03978D01*
X03979Y04813D02*
Y04966D01*
X03912D02*
X03979D01*
X03912Y04813D02*
Y04966D01*
Y04813D02*
X03979D01*
X03005Y04875D02*
X03055D01*
X0291D02*
X02965D01*
X03005Y04945D02*
X03055D01*
X0291D02*
X02965D01*
X03065Y04885D02*
Y04935D01*
X03055Y04875D02*
X03065Y04885D01*
X03055Y04945D02*
X03065Y04935D01*
X0291Y04875D02*
Y04945D01*
X02911Y047607D02*
X03064D01*
Y048277D01*
X02911D02*
X03064D01*
X02911Y047607D02*
Y048277D01*
X02629Y04519D02*
X02782D01*
X02629Y04452D02*
Y04519D01*
Y04452D02*
X02782D01*
Y04519D01*
X01383Y038241D02*
X01536D01*
Y038911D01*
X01383D02*
X01536D01*
X01383Y038241D02*
Y038911D01*
X030437Y026037D02*
Y026537D01*
Y026937D02*
Y027487D01*
X031137Y026037D02*
Y026537D01*
Y026937D02*
Y027487D01*
X030537Y025937D02*
X031037D01*
X030437Y026037D02*
X030537Y025937D01*
X031037D02*
X031137Y026037D01*
X030437Y027487D02*
X031137D01*
X028774Y026037D02*
Y026537D01*
Y026937D02*
Y027487D01*
X029474Y026037D02*
Y026537D01*
Y026937D02*
Y027487D01*
X028874Y025937D02*
X029374D01*
X028774Y026037D02*
X028874Y025937D01*
X029374D02*
X029474Y026037D01*
X028774Y027487D02*
X029474D01*
X02545Y026037D02*
Y026537D01*
Y026937D02*
Y027487D01*
X02615Y026037D02*
Y026537D01*
Y026937D02*
Y027487D01*
X02555Y025937D02*
X02605D01*
X02545Y026037D02*
X02555Y025937D01*
X02605D02*
X02615Y026037D01*
X02545Y027487D02*
X02615D01*
X01044Y03909D02*
X01197D01*
X01044Y03842D02*
Y03909D01*
Y03842D02*
X01197D01*
Y03909D01*
X01055Y0401D02*
X01105D01*
X01145D02*
X012D01*
X01055Y0394D02*
X01105D01*
X01145D02*
X012D01*
X01045Y0395D02*
Y04D01*
X01055Y0401D01*
X01045Y0395D02*
X01055Y0394D01*
X012D02*
Y0401D01*
X02214Y04459D02*
X02367D01*
X02214Y04392D02*
Y04459D01*
Y04392D02*
X02367D01*
Y04459D01*
X03163Y04721D02*
X03316D01*
Y04788D01*
X03163D02*
X03316D01*
X03163Y04721D02*
Y04788D01*
X0292Y04705D02*
X0297D01*
X0301D02*
X03065D01*
X0292Y04635D02*
X0297D01*
X0301D02*
X03065D01*
X0291Y04645D02*
Y04695D01*
X0292Y04705D01*
X0291Y04645D02*
X0292Y04635D01*
X03065D02*
Y04705D01*
X02911Y04594D02*
X03064D01*
X02911Y04527D02*
Y04594D01*
Y04527D02*
X03064D01*
Y04594D01*
X02431Y04694D02*
Y04847D01*
Y04694D02*
X02498D01*
Y04847D01*
X02431D02*
X02498D01*
X027112Y026037D02*
Y026537D01*
Y026937D02*
Y027487D01*
X027812Y026037D02*
Y026537D01*
Y026937D02*
Y027487D01*
X027212Y025937D02*
X027712D01*
X027112Y026037D02*
X027212Y025937D01*
X027712D02*
X027812Y026037D01*
X027112Y027487D02*
X027812D01*
X03734Y04049D02*
X03887D01*
X03734Y03982D02*
Y04049D01*
Y03982D02*
X03887D01*
Y04049D01*
X01808Y025071D02*
X01932D01*
Y028929D01*
X01808D02*
X01932D01*
X01808D02*
Y029035D01*
X016859Y03011D02*
X01734D01*
X016859D02*
Y03137D01*
X013041Y03011D02*
Y03137D01*
X012556Y03011D02*
X013041D01*
X01182Y028575D02*
Y029016D01*
X01121Y028575D02*
X01182D01*
X01121Y025386D02*
Y028575D01*
Y025386D02*
X01182D01*
X012556Y02385D02*
X012804D01*
Y02137D02*
Y02385D01*
Y02137D02*
X017096D01*
Y02385D01*
X01734D01*
X027782Y02273D02*
Y02426D01*
X027112D02*
X027782D01*
X027112Y02273D02*
Y02426D01*
Y02273D02*
X027782D01*
X02612D02*
Y02426D01*
X02545D02*
X02612D01*
X02545Y02273D02*
Y02426D01*
Y02273D02*
X02612D01*
X01976Y04762D02*
X02043D01*
Y04609D02*
Y04762D01*
X01976Y04609D02*
X02043D01*
X01976D02*
Y04762D01*
X03512Y02898D02*
X03579D01*
X03512D02*
Y03051D01*
X03579D01*
Y02898D02*
Y03051D01*
X028774Y02273D02*
X029444D01*
X028774D02*
Y02426D01*
X029444D01*
Y02273D02*
Y02426D01*
X030437Y02273D02*
X031107D01*
X030437D02*
Y02426D01*
X031107D01*
Y02273D02*
Y02426D01*
X038997Y02898D02*
X039667D01*
X038997D02*
Y03051D01*
X039667D01*
Y02898D02*
Y03051D01*
X04287Y02898D02*
X04354D01*
X04287D02*
Y03051D01*
X04354D01*
Y02898D02*
Y03051D01*
X03937Y03988D02*
X04004D01*
X03937D02*
Y04141D01*
X04004D01*
Y03988D02*
Y04141D01*
X04037Y03988D02*
X04104D01*
X04037D02*
Y04141D01*
X04104D01*
Y03988D02*
Y04141D01*
D16*
X027516Y0363D02*
X029184D01*
X027516Y039D02*
X029184Y039D01*
X021425Y046115D02*
Y046535D01*
X021775Y046115D02*
Y046535D01*
X023225Y046115D02*
Y046535D01*
X023575Y046115D02*
Y046535D01*
X021125Y049275D02*
X021274D01*
X021125Y046725D02*
X022275D01*
Y046325D02*
Y046725D01*
Y046325D02*
X022725D01*
Y046725D01*
X023875D01*
Y049275D01*
X023726D02*
X023875D01*
X021125Y046725D02*
Y049275D01*
D17*
X04016Y0465D02*
X040598D01*
X04016D02*
Y0475D01*
X041473Y0465D02*
X04216D01*
Y0475D01*
X04166D02*
X04216D01*
X040598Y0465D02*
X041473D01*
X04016Y0475D02*
X04166D01*
X04015Y0479D02*
X040588D01*
X04015D02*
Y0489D01*
X041462Y0479D02*
X04215D01*
Y0489D01*
X04165D02*
X04215D01*
X040588Y0479D02*
X041462D01*
X04015Y0489D02*
X04165D01*
X01055Y03712D02*
Y03762D01*
X01655D01*
Y03662D02*
Y03762D01*
X01055Y03662D02*
X01655D01*
X01055D02*
Y03712D01*
X01155Y03662D02*
Y03762D01*
X020425Y04159D02*
X020925D01*
X019925D02*
X020425D01*
X019925Y04059D02*
Y04359D01*
X020925D01*
Y04059D02*
Y04359D01*
X019925Y04059D02*
X020925D01*
X0171Y04159D02*
X0176D01*
X0166D02*
X0171D01*
X0166Y04059D02*
Y04359D01*
X0176D01*
Y04059D02*
Y04359D01*
X0166Y04059D02*
X0176D01*
X03635Y03485D02*
Y04585D01*
X03535Y03485D02*
X03635D01*
X03535D02*
Y04585D01*
X03635D01*
Y04485D02*
Y04585D01*
X03535Y04485D02*
X03635D01*
X0382Y038408D02*
Y039392D01*
Y0389D02*
Y039392D01*
X0372Y038408D02*
X0382D01*
X0372D02*
Y039392D01*
X0377D01*
Y038408D02*
X045318D01*
Y039392D01*
X0377D02*
X045318D01*
X03135Y0491D02*
X0314Y04915D01*
X0315D01*
X03155Y0491D01*
Y04905D01*
X0315Y049D01*
X03145D01*
X0315D01*
X03155Y04895D01*
Y0489D01*
X0315Y04885D01*
X0314D01*
X03135Y0489D01*
X03165Y04915D02*
Y04895D01*
X03175Y04885D01*
X03185Y04895D01*
Y04915D01*
X03195Y0491D02*
X032Y04915D01*
X0321D01*
X03215Y0491D01*
Y04905D01*
X0321Y049D01*
X03205D01*
X0321D01*
X03215Y04895D01*
Y0489D01*
X0321Y04885D01*
X032D01*
X03195Y0489D01*
X03575Y04825D02*
X0357Y0483D01*
X0356D01*
X03555Y04825D01*
Y04805D01*
X0356Y048D01*
X0357D01*
X03575Y04805D01*
Y04815D01*
X03565D01*
X03585Y048D02*
Y0483D01*
X03605Y048D01*
Y0483D01*
X03615D02*
Y048D01*
X0363D01*
X03635Y04805D01*
Y04825D01*
X0363Y0483D01*
X03615D01*
X03455D02*
Y048D01*
X0347D01*
X03475Y04805D01*
Y04825D01*
X0347Y0483D01*
X03455D01*
X03485D02*
X03495D01*
X0349D01*
Y048D01*
X03485D01*
X03495D01*
X03525Y0483D02*
X03515D01*
X0351Y04825D01*
Y04805D01*
X03515Y048D01*
X03525D01*
X0353Y04805D01*
Y04825D01*
X03525Y0483D01*
X03365Y04825D02*
X0336Y0483D01*
X0335D01*
X03345Y04825D01*
Y04805D01*
X0335Y048D01*
X0336D01*
X03365Y04805D01*
X03375Y0483D02*
Y048D01*
X03395D01*
X03405Y0483D02*
Y048D01*
Y0481D01*
X03425Y0483D01*
X0341Y04815D01*
X03425Y048D01*
X0113Y03815D02*
Y03785D01*
Y038D01*
X0115D01*
Y03815D01*
Y03785D01*
X0118Y0381D02*
X01175Y03815D01*
X01165D01*
X0116Y0381D01*
Y0379D01*
X01165Y03785D01*
X01175D01*
X0118Y0379D01*
X0119Y038D02*
X0121D01*
X0122Y0381D02*
X01225Y03815D01*
X01235D01*
X0124Y0381D01*
Y0379D01*
X01235Y03785D01*
X01225D01*
X0122Y0379D01*
Y0381D01*
X0127Y03815D02*
X0125D01*
Y038D01*
X0126Y03805D01*
X01265D01*
X0127Y038D01*
Y0379D01*
X01265Y03785D01*
X01255D01*
X0125Y0379D01*
X01497Y03625D02*
X01477D01*
Y0361D01*
X01487Y03615D01*
X01492D01*
X01497Y0361D01*
Y036D01*
X01492Y03595D01*
X01482D01*
X01477Y036D01*
X01507Y03625D02*
Y03605D01*
X01517Y03595D01*
X01527Y03605D01*
Y03625D01*
X01182Y03595D02*
Y03625D01*
X01197D01*
X01202Y0362D01*
Y0361D01*
X01197Y03605D01*
X01182D01*
X01192D02*
X01202Y03595D01*
X01212Y03625D02*
X01232Y03595D01*
Y03625D02*
X01212Y03595D01*
X0128Y03625D02*
X013D01*
X0129D01*
Y03595D01*
X0131Y03625D02*
X0133Y03595D01*
Y03625D02*
X0131Y03595D01*
X0406Y0379D02*
X04055Y03795D01*
X04045D01*
X0404Y0379D01*
Y03785D01*
X04045Y0378D01*
X04055D01*
X0406Y03775D01*
Y0377D01*
X04055Y03765D01*
X04045D01*
X0404Y0377D01*
X0407Y03795D02*
Y03765D01*
X04085D01*
X0409Y0377D01*
Y0379D01*
X04085Y03795D01*
X0407D01*
X041Y03765D02*
Y03785D01*
X0411Y03795D01*
X0412Y03785D01*
Y03765D01*
Y0378D01*
X041D01*
X03955Y0379D02*
X0395Y03795D01*
X0394D01*
X03935Y0379D01*
Y03785D01*
X0394Y0378D01*
X0395D01*
X03955Y03775D01*
Y0377D01*
X0395Y03765D01*
X0394D01*
X03935Y0377D01*
X03985Y0379D02*
X0398Y03795D01*
X0397D01*
X03965Y0379D01*
Y0377D01*
X0397Y03765D01*
X0398D01*
X03985Y0377D01*
X03995Y03795D02*
Y03765D01*
X04015D01*
X03415Y04445D02*
X0341Y0445D01*
X034D01*
X03395Y04445D01*
Y04425D01*
X034Y0442D01*
X0341D01*
X03415Y04425D01*
Y04435D01*
X03405D01*
X03425Y0442D02*
Y0445D01*
X03445Y0442D01*
Y0445D01*
X03455D02*
Y0442D01*
X0347D01*
X03475Y04425D01*
Y04445D01*
X0347Y0445D01*
X03455D01*
X03435Y03545D02*
X0343Y0355D01*
X0342D01*
X03415Y03545D01*
Y03525D01*
X0342Y0352D01*
X0343D01*
X03435Y03525D01*
X03465Y03545D02*
X0346Y0355D01*
X0345D01*
X03445Y03545D01*
Y0354D01*
X0345Y03535D01*
X0346D01*
X03465Y0353D01*
Y03525D01*
X0346Y0352D01*
X0345D01*
X03445Y03525D01*
X03435Y03655D02*
X03415D01*
Y0364D01*
X03425Y03645D01*
X0343D01*
X03435Y0364D01*
Y0363D01*
X0343Y03625D01*
X0342D01*
X03415Y0363D01*
X03445Y03655D02*
Y03635D01*
X03455Y03625D01*
X03465Y03635D01*
Y03655D01*
X03415Y03725D02*
Y03755D01*
X0343D01*
X03435Y0375D01*
Y0374D01*
X0343Y03735D01*
X03415D01*
X03425D02*
X03435Y03725D01*
X03465Y0375D02*
X0346Y03755D01*
X0345D01*
X03445Y0375D01*
Y03745D01*
X0345Y0374D01*
X0346D01*
X03465Y03735D01*
Y0373D01*
X0346Y03725D01*
X0345D01*
X03445Y0373D01*
X03395Y0382D02*
Y0385D01*
X03405Y0384D01*
X03415Y0385D01*
Y0382D01*
X0344Y0385D02*
X0343D01*
X03425Y03845D01*
Y03825D01*
X0343Y0382D01*
X0344D01*
X03445Y03825D01*
Y03845D01*
X0344Y0385D01*
X03475Y03845D02*
X0347Y0385D01*
X0346D01*
X03455Y03845D01*
Y0384D01*
X0346Y03835D01*
X0347D01*
X03475Y0383D01*
Y03825D01*
X0347Y0382D01*
X0346D01*
X03455Y03825D01*
X03485Y0385D02*
X03495D01*
X0349D01*
Y0382D01*
X03485D01*
X03495D01*
X0342Y0395D02*
X03415Y03955D01*
X03405D01*
X034Y0395D01*
Y0393D01*
X03405Y03925D01*
X03415D01*
X0342Y0393D01*
X0343Y03955D02*
Y03925D01*
X0345D01*
X0346Y03955D02*
Y03925D01*
Y03935D01*
X0348Y03955D01*
X03465Y0394D01*
X0348Y03925D01*
X03445Y04051D02*
X03425D01*
Y04036D01*
X03435Y04041D01*
X0344D01*
X03445Y04036D01*
Y04026D01*
X0344Y04021D01*
X0343D01*
X03425Y04026D01*
X03455Y04051D02*
Y04031D01*
X03465Y04021D01*
X03475Y04031D01*
Y04051D01*
X0343Y045525D02*
X0341D01*
Y045375D01*
X0342Y045425D01*
X03425D01*
X0343Y045375D01*
Y045275D01*
X03425Y045225D01*
X03415D01*
X0341Y045275D01*
X0344Y045525D02*
Y045325D01*
X0345Y045225D01*
X0346Y045325D01*
Y045525D01*
X0373Y03765D02*
X03735Y0377D01*
X03745D01*
X0375Y03765D01*
Y0376D01*
X03745Y03755D01*
X0374D01*
X03745D01*
X0375Y0375D01*
Y03745D01*
X03745Y0374D01*
X03735D01*
X0373Y03745D01*
X0376Y0377D02*
Y0375D01*
X0377Y0374D01*
X0378Y0375D01*
Y0377D01*
X0379Y03765D02*
X03795Y0377D01*
X03805D01*
X0381Y03765D01*
Y0376D01*
X03805Y03755D01*
X038D01*
X03805D01*
X0381Y0375D01*
Y03745D01*
X03805Y0374D01*
X03795D01*
X0379Y03745D01*
X04255Y0485D02*
X0426Y04855D01*
X0427D01*
X04275Y0485D01*
Y04845D01*
X0427Y0484D01*
X04265D01*
X0427D01*
X04275Y04835D01*
Y0483D01*
X0427Y04825D01*
X0426D01*
X04255Y0483D01*
X04285Y04855D02*
Y04835D01*
X04295Y04825D01*
X04305Y04835D01*
Y04855D01*
X04315Y0485D02*
X0432Y04855D01*
X0433D01*
X04335Y0485D01*
Y04845D01*
X0433Y0484D01*
X04325D01*
X0433D01*
X04335Y04835D01*
Y0483D01*
X0433Y04825D01*
X0432D01*
X04315Y0483D01*
X0428Y04715D02*
X0426D01*
Y047D01*
X0427Y04705D01*
X04275D01*
X0428Y047D01*
Y0469D01*
X04275Y04685D01*
X04265D01*
X0426Y0469D01*
X0429Y04715D02*
Y04695D01*
X043Y04685D01*
X0431Y04695D01*
Y04715D01*
X0427Y0321D02*
Y0322D01*
Y03215D01*
X043D01*
Y0321D01*
Y0322D01*
Y03235D02*
X0427D01*
Y0325D01*
X04275Y03255D01*
X04285D01*
X0429Y0325D01*
Y03235D01*
Y03245D02*
X043Y03255D01*
X04305Y03265D02*
Y03285D01*
X04275Y03315D02*
X0427Y0331D01*
Y033D01*
X04275Y03295D01*
X0428D01*
X04285Y033D01*
Y0331D01*
X0429Y03315D01*
X04295D01*
X043Y0331D01*
Y033D01*
X04295Y03295D01*
X0427Y03345D02*
Y03325D01*
X043D01*
Y03345D01*
X04285Y03325D02*
Y03335D01*
X043Y03355D02*
X0427D01*
X043Y033749D01*
X0427D01*
X04275Y034049D02*
X0427Y033999D01*
Y033899D01*
X04275Y033849D01*
X0428D01*
X04285Y033899D01*
Y033999D01*
X0429Y034049D01*
X04295D01*
X043Y033999D01*
Y033899D01*
X04295Y033849D01*
X0427Y034299D02*
Y034199D01*
X04275Y034149D01*
X04295D01*
X043Y034199D01*
Y034299D01*
X04295Y034349D01*
X04275D01*
X0427Y034299D01*
X043Y034449D02*
X0427D01*
Y034599D01*
X04275Y034649D01*
X04285D01*
X0429Y034599D01*
Y034449D01*
Y034549D02*
X043Y034649D01*
X03795Y0337D02*
Y0334D01*
X0381D01*
X03815Y03345D01*
Y0335D01*
X0381Y03355D01*
X03795D01*
X0381D01*
X03815Y0336D01*
Y03365D01*
X0381Y0337D01*
X03795D01*
X03825D02*
X03845D01*
X03835D01*
Y0334D01*
X03855D02*
Y0337D01*
X03875Y0334D01*
Y0337D01*
X03795Y0357D02*
X03805D01*
X038D01*
Y0354D01*
X03795D01*
X03805D01*
X0382D02*
Y0357D01*
X0383Y0356D01*
X0384Y0357D01*
Y0354D01*
X0385Y0357D02*
Y03545D01*
X03855Y0354D01*
X03865D01*
X0387Y03545D01*
Y0357D01*
X027719Y030426D02*
Y03044D01*
X027733Y030469D01*
X027747Y030483D01*
X027776Y030498D01*
X027833D01*
X027861Y030483D01*
X027876Y030469D01*
X02789Y03044D01*
Y030412D01*
X027876Y030383D01*
X027847Y03034D01*
X027704Y030198D01*
X027904D01*
X026759Y03044D02*
X026788Y030455D01*
X026831Y030498D01*
Y030198D01*
X026621Y032309D02*
X026592Y032294D01*
X026564Y032266D01*
X026549Y032237D01*
X026535Y032194D01*
Y032123D01*
X026549Y03208D01*
X026564Y032052D01*
X026592Y032023D01*
X026621Y032009D01*
X026678D01*
X026706Y032023D01*
X026735Y032052D01*
X026749Y03208D01*
X026764Y032123D01*
Y032194D01*
X026749Y032237D01*
X026735Y032266D01*
X026706Y032294D01*
X026678Y032309D01*
X026621D01*
X026834D02*
Y032009D01*
Y032309D02*
X027034Y032009D01*
Y032309D02*
Y032009D01*
X028733Y030498D02*
X02889D01*
X028804Y030383D01*
X028847D01*
X028876Y030369D01*
X02889Y030355D01*
X028904Y030312D01*
Y030283D01*
X02889Y03024D01*
X028861Y030212D01*
X028819Y030198D01*
X028776D01*
X028733Y030212D01*
X028719Y030226D01*
X028704Y030255D01*
X029847Y030498D02*
X029704Y030298D01*
X029919D01*
X029847Y030498D02*
Y030198D01*
X0272Y0357D02*
X02715Y03575D01*
X02705D01*
X027Y0357D01*
Y03565D01*
X02705Y0356D01*
X02715D01*
X0272Y03555D01*
Y0355D01*
X02715Y03545D01*
X02705D01*
X027Y0355D01*
X0273Y03575D02*
X0275D01*
X0274D01*
Y03545D01*
X0276D02*
Y03575D01*
X0277Y03565D01*
X0278Y03575D01*
Y03545D01*
X0279Y0357D02*
X02795Y03575D01*
X02805D01*
X0281Y0357D01*
Y03565D01*
X02805Y0356D01*
X028D01*
X02805D01*
X0281Y03555D01*
Y0355D01*
X02805Y03545D01*
X02795D01*
X0279Y0355D01*
X0284Y03545D02*
X0282D01*
X0284Y03565D01*
Y0357D01*
X02835Y03575D01*
X02825D01*
X0282Y0357D01*
X028699Y03575D02*
X0285D01*
Y0356D01*
X028599D01*
X0285D01*
Y03545D01*
X028799Y0357D02*
X028849Y03575D01*
X028949D01*
X028999Y0357D01*
Y0355D01*
X028949Y03545D01*
X028849D01*
X028799Y0355D01*
Y0357D01*
X029249Y03545D02*
Y03575D01*
X029099Y0356D01*
X029299D01*
X029599Y03545D02*
X029399D01*
X029599Y03565D01*
Y0357D01*
X029549Y03575D01*
X029449D01*
X029399Y0357D01*
X02075Y03595D02*
Y03625D01*
X0209D01*
X02095Y0362D01*
Y0361D01*
X0209Y03605D01*
X02075D01*
X02105Y03625D02*
Y03595D01*
X02115Y03605D01*
X02125Y03595D01*
Y03625D01*
X02135Y03595D02*
Y03625D01*
X02145Y03615D01*
X02155Y03625D01*
Y03595D01*
X02185D02*
X02165D01*
X02185Y03615D01*
Y0362D01*
X0218Y03625D01*
X0217D01*
X02165Y0362D01*
X0188Y03595D02*
Y03625D01*
X01895D01*
X019Y0362D01*
Y0361D01*
X01895Y03605D01*
X0188D01*
X0191Y03625D02*
Y03595D01*
X0192Y03605D01*
X0193Y03595D01*
Y03625D01*
X0194Y03595D02*
Y03625D01*
X0195Y03615D01*
X0196Y03625D01*
Y03595D01*
X0197D02*
X0198D01*
X01975D01*
Y03625D01*
X0197Y0362D01*
X01825Y040921D02*
Y041221D01*
X0184D01*
X01845Y041171D01*
Y041071D01*
X0184Y041021D01*
X01825D01*
X01855Y041221D02*
Y040921D01*
X01865Y041021D01*
X01875Y040921D01*
Y041221D01*
X01885Y040921D02*
Y041221D01*
X01895Y041121D01*
X01905Y041221D01*
Y040921D01*
X018514Y04224D02*
X018314D01*
Y04209D01*
X018414Y04214D01*
X018464D01*
X018514Y04209D01*
Y04199D01*
X018464Y04194D01*
X018364D01*
X018314Y04199D01*
X018614Y04224D02*
Y04204D01*
X018714Y04194D01*
X018814Y04204D01*
Y04224D01*
X019114Y04219D02*
X019064Y04224D01*
X018964D01*
X018914Y04219D01*
Y04214D01*
X018964Y04209D01*
X019064D01*
X019114Y04204D01*
Y04199D01*
X019064Y04194D01*
X018964D01*
X018914Y04199D01*
X0185Y0432D02*
X01845Y04325D01*
X01835D01*
X0183Y0432D01*
Y043D01*
X01835Y04295D01*
X01845D01*
X0185Y043D01*
Y0431D01*
X0184D01*
X0186Y04295D02*
Y04325D01*
X0188Y04295D01*
Y04325D01*
X0189D02*
Y04295D01*
X01905D01*
X0191Y043D01*
Y0432D01*
X01905Y04325D01*
X0189D01*
X021Y02835D02*
Y02865D01*
X02115D01*
X0212Y0286D01*
Y0285D01*
X02115Y02845D01*
X021D01*
X02135Y02865D02*
X02145D01*
X0215Y0286D01*
Y02845D01*
X02135D01*
X0213Y0285D01*
X02135Y02855D01*
X0215D01*
X0216Y02865D02*
Y0285D01*
X02165Y02845D01*
X0218D01*
Y0284D01*
X02175Y02835D01*
X0217D01*
X0218Y02845D02*
Y02865D01*
X0219Y02845D02*
X022D01*
X02195D01*
Y02865D01*
X0219D01*
X0222Y0287D02*
Y02865D01*
X02215D01*
X02225D01*
X0222D01*
Y0285D01*
X02225Y02845D01*
X02245D02*
Y0287D01*
Y0286D01*
X0224D01*
X0225D01*
X02245D01*
Y0287D01*
X0225Y02875D01*
X022699Y02845D02*
X022799D01*
X022849Y0285D01*
Y0286D01*
X022799Y02865D01*
X022699D01*
X022649Y0286D01*
Y0285D01*
X022699Y02845D01*
X022949Y02865D02*
Y02845D01*
Y02855D01*
X022999Y0286D01*
X023049Y02865D01*
X023099D01*
X023249D02*
Y0285D01*
X023299Y02845D01*
X023349Y0285D01*
X023399Y02845D01*
X023449Y0285D01*
Y02865D01*
X023599D02*
X023699D01*
X023749Y0286D01*
Y02845D01*
X023599D01*
X023549Y0285D01*
X023599Y02855D01*
X023749D01*
X023849Y02865D02*
Y02845D01*
Y02855D01*
X023899Y0286D01*
X023949Y02865D01*
X023999D01*
X024349Y02875D02*
Y02845D01*
X024199D01*
X024149Y0285D01*
Y0286D01*
X024199Y02865D01*
X024349D01*
X02367Y0399D02*
Y03985D01*
X02377Y03975D01*
X02387Y03985D01*
Y0399D01*
X02377Y03975D02*
Y0396D01*
X02397D02*
X02407D01*
X02402D01*
Y0399D01*
X02397Y03985D01*
X02055Y0492D02*
Y04895D01*
X0206Y0489D01*
X0207D01*
X02075Y04895D01*
Y0492D01*
X02085Y0489D02*
X02095D01*
X0209D01*
Y0492D01*
X02085Y04915D01*
X03995Y037D02*
X0399Y03705D01*
X0398D01*
X03975Y037D01*
Y03695D01*
X0398Y0369D01*
X0399D01*
X03995Y03685D01*
Y0368D01*
X0399Y03675D01*
X0398D01*
X03975Y0368D01*
X04025Y03675D02*
X04005D01*
X04025Y03695D01*
Y037D01*
X0402Y03705D01*
X0401D01*
X04005Y037D01*
X0265Y0339D02*
X02645Y03395D01*
X02635D01*
X0263Y0339D01*
Y03385D01*
X02635Y0338D01*
X02645D01*
X0265Y03375D01*
Y0337D01*
X02645Y03365D01*
X02635D01*
X0263Y0337D01*
X0266Y03365D02*
X0267D01*
X02665D01*
Y03395D01*
X0266Y0339D01*
X039057Y03082D02*
Y03112D01*
X039206D01*
X039256Y03107D01*
Y03097D01*
X039206Y03092D01*
X039057D01*
X039156D02*
X039256Y03082D01*
X039356D02*
X039456D01*
X039406D01*
Y03112D01*
X039356Y03107D01*
X039606D02*
X039656Y03112D01*
X039756D01*
X039806Y03107D01*
Y03102D01*
X039756Y03097D01*
X039706D01*
X039756D01*
X039806Y03092D01*
Y03087D01*
X039756Y03082D01*
X039656D01*
X039606Y03087D01*
X04292Y03082D02*
Y03112D01*
X04307D01*
X04312Y03107D01*
Y03097D01*
X04307Y03092D01*
X04292D01*
X04302D02*
X04312Y03082D01*
X04322D02*
X04332D01*
X04327D01*
Y03112D01*
X04322Y03107D01*
X04367Y03082D02*
X04347D01*
X04367Y03102D01*
Y03107D01*
X04362Y03112D01*
X04352D01*
X04347Y03107D01*
X03049Y02456D02*
Y02486D01*
X03064D01*
X03069Y02481D01*
Y02471D01*
X03064Y02466D01*
X03049D01*
X03059D02*
X03069Y02456D01*
X03079D02*
X03089D01*
X03084D01*
Y02486D01*
X03079Y02481D01*
X03104Y02456D02*
X03114D01*
X03109D01*
Y02486D01*
X03104Y02481D01*
X02883Y02456D02*
Y02486D01*
X02898D01*
X02903Y02481D01*
Y02471D01*
X02898Y02466D01*
X02883D01*
X02893D02*
X02903Y02456D01*
X02913D02*
X02923D01*
X02918D01*
Y02486D01*
X02913Y02481D01*
X02938D02*
X02943Y02486D01*
X02953D01*
X02958Y02481D01*
Y02461D01*
X02953Y02456D01*
X02943D01*
X02938Y02461D01*
Y02481D01*
X02717Y02456D02*
Y02486D01*
X02732D01*
X02737Y02481D01*
Y02471D01*
X02732Y02466D01*
X02717D01*
X02727D02*
X02737Y02456D01*
X02747Y02461D02*
X02752Y02456D01*
X02762D01*
X02767Y02461D01*
Y02481D01*
X02762Y02486D01*
X02752D01*
X02747Y02481D01*
Y02476D01*
X02752Y02471D01*
X02767D01*
X02551Y02456D02*
Y02486D01*
X02566D01*
X02571Y02481D01*
Y02471D01*
X02566Y02466D01*
X02551D01*
X02561D02*
X02571Y02456D01*
X02581Y02481D02*
X02586Y02486D01*
X02596D01*
X02601Y02481D01*
Y02476D01*
X02596Y02471D01*
X02601Y02466D01*
Y02461D01*
X02596Y02456D01*
X02586D01*
X02581Y02461D01*
Y02466D01*
X02586Y02471D01*
X02581Y02476D01*
Y02481D01*
X02586Y02471D02*
X02596D01*
X01225Y0396D02*
Y0399D01*
X0124D01*
X01245Y03985D01*
Y03975D01*
X0124Y0397D01*
X01225D01*
X01235D02*
X01245Y0396D01*
X01275Y0399D02*
X01265Y03985D01*
X01255Y03975D01*
Y03965D01*
X0126Y0396D01*
X0127D01*
X01275Y03965D01*
Y0397D01*
X0127Y03975D01*
X01255D01*
X03942Y04172D02*
Y04202D01*
X03957D01*
X03962Y04197D01*
Y04187D01*
X03957Y04182D01*
X03942D01*
X03952D02*
X03962Y04172D01*
X03992Y04202D02*
X03972D01*
Y04187D01*
X03982Y04192D01*
X03987D01*
X03992Y04187D01*
Y04177D01*
X03987Y04172D01*
X03977D01*
X03972Y04177D01*
X04042Y04172D02*
Y04202D01*
X04057D01*
X04062Y04197D01*
Y04187D01*
X04057Y04182D01*
X04042D01*
X04052D02*
X04062Y04172D01*
X04087D02*
Y04202D01*
X04072Y04187D01*
X04092D01*
X0309Y04545D02*
Y04575D01*
X03105D01*
X0311Y0457D01*
Y0456D01*
X03105Y04555D01*
X0309D01*
X031D02*
X0311Y04545D01*
X0312Y0457D02*
X03125Y04575D01*
X03135D01*
X0314Y0457D01*
Y04565D01*
X03135Y0456D01*
X0313D01*
X03135D01*
X0314Y04555D01*
Y0455D01*
X03135Y04545D01*
X03125D01*
X0312Y0455D01*
X02835Y0478D02*
Y0481D01*
X0285D01*
X02855Y04805D01*
Y04795D01*
X0285Y0479D01*
X02835D01*
X02845D02*
X02855Y0478D01*
X02885D02*
X02865D01*
X02885Y048D01*
Y04805D01*
X0288Y0481D01*
X0287D01*
X02865Y04805D01*
X03518Y03081D02*
Y03111D01*
X03533D01*
X03538Y03106D01*
Y03096D01*
X03533Y03091D01*
X03518D01*
X03528D02*
X03538Y03081D01*
X03548D02*
X03558D01*
X03553D01*
Y03111D01*
X03548Y03106D01*
X01785Y03821D02*
Y03791D01*
X01805D01*
X01835D02*
X01815D01*
X01835Y03811D01*
Y03816D01*
X0183Y03821D01*
X0182D01*
X01815Y03816D01*
X01845Y03796D02*
X0185Y03791D01*
X0186D01*
X01865Y03796D01*
Y03816D01*
X0186Y03821D01*
X0185D01*
X01845Y03816D01*
Y03811D01*
X0185Y03806D01*
X01865D01*
X01875Y03816D02*
X0188Y03821D01*
X0189D01*
X01895Y03816D01*
Y03811D01*
X0189Y03806D01*
X01895Y03801D01*
Y03796D01*
X0189Y03791D01*
X0188D01*
X01875Y03796D01*
Y03801D01*
X0188Y03806D01*
X01875Y03811D01*
Y03816D01*
X0188Y03806D02*
X0189D01*
X01905Y03791D02*
Y03821D01*
X01925Y03791D01*
Y03821D01*
X01065Y04425D02*
X0106Y0443D01*
X0105D01*
X01045Y04425D01*
Y0442D01*
X0105Y04415D01*
X0106D01*
X01065Y0441D01*
Y04405D01*
X0106Y044D01*
X0105D01*
X01045Y04405D01*
X01095Y0443D02*
X01075D01*
Y044D01*
X01095D01*
X01075Y04415D02*
X01085D01*
X01105Y044D02*
Y0443D01*
X0112D01*
X01125Y04425D01*
Y04415D01*
X0112Y0441D01*
X01105D01*
X01115D02*
X01125Y044D01*
X01135Y0443D02*
Y0441D01*
X01145Y044D01*
X01155Y0441D01*
Y0443D01*
X0118D02*
X0117D01*
X01165Y04425D01*
Y04405D01*
X0117Y044D01*
X0118D01*
X01185Y04405D01*
Y04425D01*
X0118Y0443D01*
X02015Y04005D02*
Y04035D01*
X0203D01*
X02035Y0403D01*
Y0402D01*
X0203Y04015D01*
X02015D01*
X02065Y04035D02*
X02055Y0403D01*
X02045Y0402D01*
Y0401D01*
X0205Y04005D01*
X0206D01*
X02065Y0401D01*
Y04015D01*
X0206Y0402D01*
X02045D01*
X016885Y04005D02*
Y04035D01*
X017035D01*
X017085Y0403D01*
Y0402D01*
X017035Y04015D01*
X016885D01*
X017385Y04035D02*
X017185D01*
Y0402D01*
X017285Y04025D01*
X017335D01*
X017385Y0402D01*
Y0401D01*
X017335Y04005D01*
X017235D01*
X017185Y0401D01*
X04265Y03695D02*
Y03725D01*
X0428D01*
X04285Y0372D01*
Y0371D01*
X0428Y03705D01*
X04265D01*
X0431Y03695D02*
Y03725D01*
X04295Y0371D01*
X04315D01*
X03665Y0488D02*
Y0491D01*
X0368D01*
X03685Y04905D01*
Y04895D01*
X0368Y0489D01*
X03665D01*
X03695Y04905D02*
X037Y0491D01*
X0371D01*
X03715Y04905D01*
Y049D01*
X0371Y04895D01*
X03705D01*
X0371D01*
X03715Y0489D01*
Y04885D01*
X0371Y0488D01*
X037D01*
X03695Y04885D01*
X04025Y04915D02*
Y04945D01*
X0404D01*
X04045Y0494D01*
Y0493D01*
X0404Y04925D01*
X04025D01*
X04075Y04915D02*
X04055D01*
X04075Y04935D01*
Y0494D01*
X0407Y04945D01*
X0406D01*
X04055Y0494D01*
X04037Y0459D02*
Y0462D01*
X04052D01*
X04057Y04615D01*
Y04605D01*
X04052Y046D01*
X04037D01*
X04067Y0459D02*
X04077D01*
X04072D01*
Y0462D01*
X04067Y04615D01*
X0337Y02904D02*
Y02934D01*
X0339Y02904D01*
Y02934D01*
X034Y02904D02*
Y02934D01*
X03415D01*
X0342Y02929D01*
Y02919D01*
X03415Y02914D01*
X034D01*
X0341D02*
X0342Y02904D01*
X0345Y02929D02*
X03445Y02934D01*
X03435D01*
X0343Y02929D01*
Y02924D01*
X03435Y02919D01*
X03445D01*
X0345Y02914D01*
Y02909D01*
X03445Y02904D01*
X03435D01*
X0343Y02909D01*
X0346Y02934D02*
X0348D01*
X0347D01*
Y02904D01*
X04205Y03965D02*
Y03995D01*
X04215Y03985D01*
X04225Y03995D01*
Y03965D01*
X0425D02*
Y03995D01*
X04235Y0398D01*
X04255D01*
X03555Y04625D02*
Y04655D01*
X03565Y04645D01*
X03575Y04655D01*
Y04625D01*
X03605D02*
X03585D01*
X03605Y04645D01*
Y0465D01*
X036Y04655D01*
X0359D01*
X03585Y0465D01*
X0109Y03575D02*
Y03605D01*
X011Y03595D01*
X0111Y03605D01*
Y03575D01*
X0112D02*
X0113D01*
X01125D01*
Y03605D01*
X0112Y036D01*
X03028Y0281D02*
Y0278D01*
X03048D01*
X03078Y0281D02*
X03058D01*
Y0278D01*
X03078D01*
X03058Y02795D02*
X03068D01*
X03088Y0281D02*
Y0278D01*
X03103D01*
X03108Y02785D01*
Y02805D01*
X03103Y0281D01*
X03088D01*
X03133Y0278D02*
Y0281D01*
X03118Y02795D01*
X03138D01*
X0286Y0281D02*
Y0278D01*
X0288D01*
X0291Y0281D02*
X0289D01*
Y0278D01*
X0291D01*
X0289Y02795D02*
X029D01*
X0292Y0281D02*
Y0278D01*
X02935D01*
X0294Y02785D01*
Y02805D01*
X02935Y0281D01*
X0292D01*
X0295Y02805D02*
X02955Y0281D01*
X02965D01*
X0297Y02805D01*
Y028D01*
X02965Y02795D01*
X0296D01*
X02965D01*
X0297Y0279D01*
Y02785D01*
X02965Y0278D01*
X02955D01*
X0295Y02785D01*
X02695Y0281D02*
Y0278D01*
X02715D01*
X02745Y0281D02*
X02725D01*
Y0278D01*
X02745D01*
X02725Y02795D02*
X02735D01*
X02755Y0281D02*
Y0278D01*
X0277D01*
X02775Y02785D01*
Y02805D01*
X0277Y0281D01*
X02755D01*
X02805Y0278D02*
X02785D01*
X02805Y028D01*
Y02805D01*
X028Y0281D01*
X0279D01*
X02785Y02805D01*
X02535Y0281D02*
Y0278D01*
X02555D01*
X02585Y0281D02*
X02565D01*
Y0278D01*
X02585D01*
X02565Y02795D02*
X02575D01*
X02595Y0281D02*
Y0278D01*
X0261D01*
X02615Y02785D01*
Y02805D01*
X0261Y0281D01*
X02595D01*
X02625Y0278D02*
X02635D01*
X0263D01*
Y0281D01*
X02625Y02805D01*
X0251Y04635D02*
X0252D01*
X02515D01*
Y04605D01*
X0251D01*
X0252D01*
X02555Y0463D02*
X0255Y04635D01*
X0254D01*
X02535Y0463D01*
Y0461D01*
X0254Y04605D01*
X0255D01*
X02555Y0461D01*
X02565Y04605D02*
X02575D01*
X0257D01*
Y04635D01*
X02565Y0463D01*
X01225Y0389D02*
Y0386D01*
X0124D01*
X01245Y03865D01*
Y03885D01*
X0124Y0389D01*
X01225D01*
X01275Y0386D02*
X01255D01*
X01275Y0388D01*
Y03885D01*
X0127Y0389D01*
X0126D01*
X01255Y03885D01*
X01955Y04489D02*
Y04459D01*
X0197D01*
X01975Y04464D01*
Y04484D01*
X0197Y04489D01*
X01955D01*
X01985Y04459D02*
X01995D01*
X0199D01*
Y04489D01*
X01985Y04484D01*
X01463Y0407D02*
X01458Y04075D01*
X01448D01*
X01443Y0407D01*
Y0405D01*
X01448Y04045D01*
X01458D01*
X01463Y0405D01*
X01493Y04045D02*
X01473D01*
X01493Y04065D01*
Y0407D01*
X01488Y04075D01*
X01478D01*
X01473Y0407D01*
X01503D02*
X01508Y04075D01*
X01518D01*
X01523Y0407D01*
Y04065D01*
X01518Y0406D01*
X01513D01*
X01518D01*
X01523Y04055D01*
Y0405D01*
X01518Y04045D01*
X01508D01*
X01503Y0405D01*
X03825Y049D02*
X0382Y04905D01*
X0381D01*
X03805Y049D01*
Y0488D01*
X0381Y04875D01*
X0382D01*
X03825Y0488D01*
X03855Y04875D02*
X03835D01*
X03855Y04895D01*
Y049D01*
X0385Y04905D01*
X0384D01*
X03835Y049D01*
X03885Y04875D02*
X03865D01*
X03885Y04895D01*
Y049D01*
X0388Y04905D01*
X0387D01*
X03865Y049D01*
X0383Y046785D02*
X03825Y046835D01*
X03815D01*
X0381Y046785D01*
Y046585D01*
X03815Y046535D01*
X03825D01*
X0383Y046585D01*
X0386Y046535D02*
X0384D01*
X0386Y046735D01*
Y046785D01*
X03855Y046835D01*
X03845D01*
X0384Y046785D01*
X0387Y046535D02*
X0388D01*
X03875D01*
Y046835D01*
X0387Y046785D01*
X0227Y04515D02*
X02265Y0452D01*
X02255D01*
X0225Y04515D01*
Y04495D01*
X02255Y0449D01*
X02265D01*
X0227Y04495D01*
X023Y0449D02*
X0228D01*
X023Y0451D01*
Y04515D01*
X02295Y0452D01*
X02285D01*
X0228Y04515D01*
X0231D02*
X02315Y0452D01*
X02325D01*
X0233Y04515D01*
Y04495D01*
X02325Y0449D01*
X02315D01*
X0231Y04495D01*
Y04515D01*
X0269Y04145D02*
X02685Y0415D01*
X02675D01*
X0267Y04145D01*
Y04125D01*
X02675Y0412D01*
X02685D01*
X0269Y04125D01*
X027Y0412D02*
X0271D01*
X02705D01*
Y0415D01*
X027Y04145D01*
X02725Y04125D02*
X0273Y0412D01*
X0274D01*
X02745Y04125D01*
Y04145D01*
X0274Y0415D01*
X0273D01*
X02725Y04145D01*
Y0414D01*
X0273Y04135D01*
X02745D01*
X0259Y0398D02*
X02585Y03985D01*
X02575D01*
X0257Y0398D01*
Y0396D01*
X02575Y03955D01*
X02585D01*
X0259Y0396D01*
X026Y03955D02*
X0261D01*
X02605D01*
Y03985D01*
X026Y0398D01*
X02625D02*
X0263Y03985D01*
X0264D01*
X02645Y0398D01*
Y03975D01*
X0264Y0397D01*
X02645Y03965D01*
Y0396D01*
X0264Y03955D01*
X0263D01*
X02625Y0396D01*
Y03965D01*
X0263Y0397D01*
X02625Y03975D01*
Y0398D01*
X0263Y0397D02*
X0264D01*
X0305Y040778D02*
X03045Y040828D01*
X03035D01*
X0303Y040778D01*
Y040578D01*
X03035Y040528D01*
X03045D01*
X0305Y040578D01*
X0306Y040528D02*
X0307D01*
X03065D01*
Y040828D01*
X0306Y040778D01*
X03085Y040828D02*
X03105D01*
Y040778D01*
X03085Y040578D01*
Y040528D01*
X04055Y02535D02*
X0405Y0254D01*
X0404D01*
X04035Y02535D01*
Y02515D01*
X0404Y0251D01*
X0405D01*
X04055Y02515D01*
X04065Y0251D02*
X04075D01*
X0407D01*
Y0254D01*
X04065Y02535D01*
X0411Y0254D02*
X041Y02535D01*
X0409Y02525D01*
Y02515D01*
X04095Y0251D01*
X04105D01*
X0411Y02515D01*
Y0252D01*
X04105Y02525D01*
X0409D01*
X0445Y0253D02*
X04445Y02535D01*
X04435D01*
X0443Y0253D01*
Y0251D01*
X04435Y02505D01*
X04445D01*
X0445Y0251D01*
X0446Y02505D02*
X0447D01*
X04465D01*
Y02535D01*
X0446Y0253D01*
X04505Y02535D02*
X04485D01*
Y0252D01*
X04495Y02525D01*
X045D01*
X04505Y0252D01*
Y0251D01*
X045Y02505D01*
X0449D01*
X04485Y0251D01*
X0379Y041D02*
X03785Y04105D01*
X03775D01*
X0377Y041D01*
Y0408D01*
X03775Y04075D01*
X03785D01*
X0379Y0408D01*
X038Y04075D02*
X0381D01*
X03805D01*
Y04105D01*
X038Y041D01*
X03825D02*
X0383Y04105D01*
X0384D01*
X03845Y041D01*
Y04095D01*
X0384Y0409D01*
X03835D01*
X0384D01*
X03845Y04085D01*
Y0408D01*
X0384Y04075D01*
X0383D01*
X03825Y0408D01*
X01445Y0394D02*
X0144Y03945D01*
X0143D01*
X01425Y0394D01*
Y0392D01*
X0143Y03915D01*
X0144D01*
X01445Y0392D01*
X01455Y03915D02*
X01465D01*
X0146D01*
Y03945D01*
X01455Y0394D01*
X0148Y03915D02*
X0149D01*
X01485D01*
Y03945D01*
X0148Y0394D01*
X02385Y0412D02*
X0238Y04125D01*
X0237D01*
X02365Y0412D01*
Y041D01*
X0237Y04095D01*
X0238D01*
X02385Y041D01*
X02395D02*
X024Y04095D01*
X0241D01*
X02415Y041D01*
Y0412D01*
X0241Y04125D01*
X024D01*
X02395Y0412D01*
Y04115D01*
X024Y0411D01*
X02415D01*
X0336Y0476D02*
X03355Y04765D01*
X03345D01*
X0334Y0476D01*
Y0474D01*
X03345Y04735D01*
X03355D01*
X0336Y0474D01*
X0337Y0476D02*
X03375Y04765D01*
X03385D01*
X0339Y0476D01*
Y04755D01*
X03385Y0475D01*
X0339Y04745D01*
Y0474D01*
X03385Y04735D01*
X03375D01*
X0337Y0474D01*
Y04745D01*
X03375Y0475D01*
X0337Y04755D01*
Y0476D01*
X03375Y0475D02*
X03385D01*
X026999Y0442D02*
X026949Y04425D01*
X026849D01*
X026799Y0442D01*
Y044D01*
X026849Y04395D01*
X026949D01*
X026999Y044D01*
X027099Y04425D02*
X027299D01*
Y0442D01*
X027099Y044D01*
Y04395D01*
X0246Y04895D02*
X02455Y049D01*
X02445D01*
X0244Y04895D01*
Y04875D01*
X02445Y0487D01*
X02455D01*
X0246Y04875D01*
X0249Y049D02*
X0248Y04895D01*
X0247Y04885D01*
Y04875D01*
X02475Y0487D01*
X02485D01*
X0249Y04875D01*
Y0488D01*
X02485Y04885D01*
X0247D01*
X03665Y0253D02*
X0366Y02535D01*
X0365D01*
X03645Y0253D01*
Y0251D01*
X0365Y02505D01*
X0366D01*
X03665Y0251D01*
X03695Y02535D02*
X03675D01*
Y0252D01*
X03685Y02525D01*
X0369D01*
X03695Y0252D01*
Y0251D01*
X0369Y02505D01*
X0368D01*
X03675Y0251D01*
X0246Y0376D02*
X02455Y03765D01*
X02445D01*
X0244Y0376D01*
Y0374D01*
X02445Y03735D01*
X02455D01*
X0246Y0374D01*
X02485Y03735D02*
Y03765D01*
X0247Y0375D01*
X0249D01*
X0305Y039754D02*
X03045Y039804D01*
X03035D01*
X0303Y039754D01*
Y039554D01*
X03035Y039504D01*
X03045D01*
X0305Y039554D01*
X0306Y039754D02*
X03065Y039804D01*
X03075D01*
X0308Y039754D01*
Y039704D01*
X03075Y039654D01*
X0307D01*
X03075D01*
X0308Y039604D01*
Y039554D01*
X03075Y039504D01*
X03065D01*
X0306Y039554D01*
X02001Y04817D02*
X01996Y04822D01*
X01986D01*
X01981Y04817D01*
Y04797D01*
X01986Y04792D01*
X01996D01*
X02001Y04797D01*
X02031Y04792D02*
X02011D01*
X02031Y04812D01*
Y04817D01*
X02026Y04822D01*
X02016D01*
X02011Y04817D01*
X01745Y0475D02*
X0174Y04755D01*
X0173D01*
X01725Y0475D01*
Y0473D01*
X0173Y04725D01*
X0174D01*
X01745Y0473D01*
X01755Y04725D02*
X01765D01*
X0176D01*
Y04755D01*
X01755Y0475D01*
X03765Y0293D02*
Y029D01*
X0378D01*
X03785Y02905D01*
Y0291D01*
X0378Y02915D01*
X03765D01*
X0378D01*
X03785Y0292D01*
Y02925D01*
X0378Y0293D01*
X03765D01*
X03795D02*
X03815D01*
X03805D01*
Y029D01*
X03825D02*
Y0293D01*
X03845Y029D01*
Y0293D01*
X03855Y029D02*
X03865D01*
X0386D01*
Y0293D01*
X03855Y02925D01*
X04135Y02934D02*
Y02904D01*
X0415D01*
X04155Y02909D01*
Y02914D01*
X0415Y02919D01*
X04135D01*
X0415D01*
X04155Y02924D01*
Y02929D01*
X0415Y02934D01*
X04135D01*
X04165D02*
X04185D01*
X04175D01*
Y02904D01*
X04195D02*
Y02934D01*
X04215Y02904D01*
Y02934D01*
X04225Y02929D02*
X0423Y02934D01*
X0424D01*
X04245Y02929D01*
Y02909D01*
X0424Y02904D01*
X0423D01*
X04225Y02909D01*
Y02929D01*
X0286Y04925D02*
X0284D01*
Y0491D01*
X0285Y04915D01*
X02855D01*
X0286Y0491D01*
Y049D01*
X02855Y04895D01*
X02845D01*
X0284Y049D01*
X0287Y04925D02*
Y04905D01*
X0288Y04895D01*
X0289Y04905D01*
Y04925D01*
X0309Y046785D02*
X03095Y046835D01*
X03105D01*
X0311Y046785D01*
Y046735D01*
X03105Y046685D01*
X031D01*
X03105D01*
X0311Y046635D01*
Y046585D01*
X03105Y046535D01*
X03095D01*
X0309Y046585D01*
X0312Y046535D02*
Y046585D01*
X03125D01*
Y046535D01*
X0312D01*
X03145Y046785D02*
X0315Y046835D01*
X0316D01*
X03165Y046785D01*
Y046735D01*
X0316Y046685D01*
X03155D01*
X0316D01*
X03165Y046635D01*
Y046585D01*
X0316Y046535D01*
X0315D01*
X03145Y046585D01*
X03175Y046835D02*
Y046635D01*
X03185Y046535D01*
X03195Y046635D01*
Y046835D01*
D18*
X01911Y045908D02*
Y046892D01*
X016984D02*
X01911D01*
X016984Y046498D02*
Y046892D01*
X016885Y0464D02*
X016984Y046498D01*
X016885Y0464D02*
X016885D01*
X016885D02*
X016984Y046302D01*
X016984D01*
Y045908D02*
Y046302D01*
Y045908D02*
X01911D01*
X0126Y0407D02*
Y04365D01*
X0101D02*
X0131D01*
Y040684D02*
Y04365D01*
X0101Y040684D02*
X0131D01*
X0101D02*
Y04365D01*
X01665Y048767D02*
X016717Y0487D01*
X01685D01*
X016917Y048767D01*
Y049033D01*
X01685Y0491D01*
X016717D01*
X01665Y049033D01*
Y048967D01*
X016717Y0489D01*
X016917D01*
X01705D02*
X017316D01*
X01745Y0487D02*
X017583D01*
X017516D01*
Y0491D01*
X01745Y049033D01*
X01805Y0487D02*
X017783D01*
X01805Y048967D01*
Y049033D01*
X017983Y0491D01*
X01785D01*
X017783Y049033D01*
X018183Y0491D02*
Y048833D01*
X018316Y0487D01*
X018449Y048833D01*
Y0491D01*
D19*
X019208Y046105D02*
X019366D01*
X019287Y046026D02*
Y046183D01*
D20*
X022296Y031207D02*
X0223Y031116D01*
X022309Y031012D01*
X022317Y030907D01*
X022773Y029682D02*
X022927Y029536D01*
X023044Y029441D01*
X023369Y029241D02*
X023592Y029139D01*
X022284Y031548D02*
X022296Y031207D01*
X022623Y029891D02*
X022702Y029774D01*
X022773Y029682D01*
X022552Y030061D02*
X022623Y029891D01*
X023592Y029139D02*
X023882Y029036D01*
X022415Y03047D02*
X022427Y030416D01*
X022552Y030061D01*
X022317Y030907D02*
X02234Y030807D01*
X023044Y029441D02*
X023369Y029241D01*
X022377Y030636D02*
X022415Y03047D01*
X02234Y030807D02*
X022377Y030636D01*
D21*
X033867Y023583D02*
X03375Y0237D01*
X033517D01*
X0334Y023583D01*
Y023117D01*
X033517Y023D01*
X03375D01*
X033867Y023117D01*
X0341Y0237D02*
Y023D01*
Y02335D01*
X034566D01*
Y0237D01*
Y023D01*
X0348Y0237D02*
X035033D01*
X034916D01*
Y023D01*
X0348D01*
X035033D01*
X035849Y023583D02*
X035733Y0237D01*
X035499D01*
X035383Y023583D01*
Y023117D01*
X035499Y023D01*
X035733D01*
X035849Y023117D01*
X036082Y0237D02*
Y023D01*
Y023233D01*
X036549Y0237D01*
X036199Y02335D01*
X036549Y023D01*
X037249Y0237D02*
X036782D01*
Y023D01*
X037249D01*
X036782Y02335D02*
X037016D01*
X037482Y023D02*
Y0237D01*
X037949Y023D01*
Y0237D01*
X038882D02*
Y023D01*
X039231D01*
X039348Y023117D01*
Y023233D01*
X039231Y02335D01*
X038882D01*
X039231D01*
X039348Y023467D01*
Y023583D01*
X039231Y0237D01*
X038882D01*
X039931D02*
X039698D01*
X039581Y023583D01*
Y023117D01*
X039698Y023D01*
X039931D01*
X040048Y023117D01*
Y023583D01*
X039931Y0237D01*
X040281Y023D02*
Y023467D01*
X040514Y0237D01*
X040748Y023467D01*
Y023D01*
Y02335D01*
X040281D01*
X040981Y023D02*
Y0237D01*
X041331D01*
X041447Y023583D01*
Y02335D01*
X041331Y023233D01*
X040981D01*
X041214D02*
X041447Y023D01*
X041681Y0237D02*
Y023D01*
X042031D01*
X042147Y023117D01*
Y023583D01*
X042031Y0237D01*
X041681D01*
X043547Y023583D02*
X04343Y0237D01*
X043197D01*
X04308Y023583D01*
Y023117D01*
X043197Y023D01*
X04343D01*
X043547Y023117D01*
X044247Y023D02*
X04378D01*
X044247Y023467D01*
Y023583D01*
X04413Y0237D01*
X043897D01*
X04378Y023583D01*
X044946Y023D02*
X04448D01*
X044946Y023467D01*
Y023583D01*
X04483Y0237D01*
X044596D01*
X04448Y023583D01*
M02*
