G04*
G04 #@! TF.GenerationSoftware,Altium Limited,Altium Designer,18.1.6 (161)*
G04*
G04 Layer_Color=128*
%FSTAX24Y24*%
%MOIN*%
G70*
G01*
G75*
%ADD94C,0.0020*%
D94*
X034024Y028336D02*
X034417D01*
X03422Y028139D02*
Y028533D01*
X034024Y026564D02*
X034417D01*
X03422Y026367D02*
Y026761D01*
X036583Y028336D02*
X036976D01*
X03678Y028139D02*
Y028533D01*
X036583Y026564D02*
X036976D01*
X03678Y026367D02*
Y026761D01*
X037924Y028286D02*
X038317D01*
X03812Y028089D02*
Y028483D01*
X037924Y026514D02*
X038317D01*
X03812Y026317D02*
Y026711D01*
X040483Y028286D02*
X040876D01*
X04068Y028089D02*
Y028483D01*
X040483Y026514D02*
X040876D01*
X04068Y026317D02*
Y026711D01*
X044349Y026564D02*
X044743D01*
X044546Y026367D02*
Y026761D01*
X044349Y028336D02*
X044743D01*
X044546Y028139D02*
Y028533D01*
X04179Y026564D02*
X042184D01*
X041987Y026367D02*
Y026761D01*
X04179Y028336D02*
X042184D01*
X041987Y028139D02*
Y028533D01*
X028693Y0298D02*
X029007D01*
X02885Y029643D02*
Y029957D01*
X027693Y0298D02*
X028007D01*
X02785Y029643D02*
Y029957D01*
X026693Y0298D02*
X027007D01*
X02685Y029643D02*
Y029957D01*
X029693Y0298D02*
X030007D01*
X02985Y029643D02*
Y029957D01*
X029693Y0328D02*
X030007D01*
X02985Y032643D02*
Y032957D01*
X028693Y0328D02*
X029007D01*
X02885Y032643D02*
Y032957D01*
X027693Y0328D02*
X028007D01*
X02785Y032643D02*
Y032957D01*
X026693Y0328D02*
X027007D01*
X02685Y032643D02*
Y032957D01*
X04377Y036D02*
X04413D01*
X04395Y03582D02*
Y03618D01*
X04377Y032D02*
X04413D01*
X04395Y03182D02*
Y03218D01*
X04377Y033D02*
X04413D01*
X04395Y03282D02*
Y03318D01*
X04377Y034D02*
X04413D01*
X04395Y03382D02*
Y03418D01*
X04377Y035D02*
X04413D01*
X04395Y03482D02*
Y03518D01*
X04377Y037D02*
X04413D01*
X04395Y03682D02*
Y03718D01*
X040572Y033566D02*
X040927D01*
X04075Y033389D02*
Y033743D01*
X040572Y03455D02*
X040927D01*
X04075Y034373D02*
Y034727D01*
X040572Y035534D02*
X040927D01*
X04075Y035357D02*
Y035711D01*
X039273Y033566D02*
X039628D01*
X03945Y033389D02*
Y033743D01*
X039273Y03455D02*
X039628D01*
X03945Y034373D02*
Y034727D01*
X039273Y035534D02*
X039628D01*
X03945Y035357D02*
Y035711D01*
X04047Y047D02*
X04083D01*
X04065Y04682D02*
Y04718D01*
X04148Y047D02*
X04184D01*
X04166Y04682D02*
Y04718D01*
X04046Y0484D02*
X04082D01*
X04064Y04822D02*
Y04858D01*
X04147Y0484D02*
X04183D01*
X04165Y04822D02*
Y04858D01*
X03271Y049D02*
X03307D01*
X03289Y04882D02*
Y04918D01*
X03372Y049D02*
X03408D01*
X0339Y04882D02*
Y04918D01*
X0347Y049D02*
X03506D01*
X03488Y04882D02*
Y04918D01*
X03571Y049D02*
X03607D01*
X03589Y04882D02*
Y04918D01*
X02111Y03712D02*
X02147D01*
X02129Y03694D02*
Y0373D01*
X0201Y03712D02*
X02046D01*
X02028Y03694D02*
Y0373D01*
X01912Y03712D02*
X01948D01*
X0193Y03694D02*
Y0373D01*
X01811Y03712D02*
X01847D01*
X01829Y03694D02*
Y0373D01*
X01464Y04175D02*
X01496D01*
X0148Y04159D02*
Y04191D01*
X01464Y04275D02*
X01496D01*
X0148Y04259D02*
Y04291D01*
X01087Y03712D02*
X01123D01*
X01105Y03694D02*
Y0373D01*
X01187Y03712D02*
X01223D01*
X01205Y03694D02*
Y0373D01*
X01287Y03712D02*
X01323D01*
X01305Y03694D02*
Y0373D01*
X01387Y03712D02*
X01423D01*
X01405Y03694D02*
Y0373D01*
X01487Y03712D02*
X01523D01*
X01505Y03694D02*
Y0373D01*
X01587Y03712D02*
X01623D01*
X01605Y03694D02*
Y0373D01*
X020245Y04109D02*
X020605D01*
X020425Y04091D02*
Y04127D01*
X020245Y0421D02*
X020605D01*
X020425Y04192D02*
Y04228D01*
X020245Y04308D02*
X020605D01*
X020425Y0429D02*
Y04326D01*
X01692Y04109D02*
X01728D01*
X0171Y04091D02*
Y04127D01*
X01692Y0421D02*
X01728D01*
X0171Y04192D02*
Y04228D01*
X01692Y04308D02*
X01728D01*
X0171Y0429D02*
Y04326D01*
X0357Y04535D02*
X036D01*
X03585Y0452D02*
Y0455D01*
X0357Y04435D02*
X036D01*
X03585Y0442D02*
Y0445D01*
X0357Y04335D02*
X036D01*
X03585Y0432D02*
Y0435D01*
X0357Y04235D02*
X036D01*
X03585Y0422D02*
Y0425D01*
X0357Y04135D02*
X036D01*
X03585Y0412D02*
Y0415D01*
X0357Y04035D02*
X036D01*
X03585Y0402D02*
Y0405D01*
X0357Y03935D02*
X036D01*
X03585Y0392D02*
Y0395D01*
X0357Y03835D02*
X036D01*
X03585Y0382D02*
Y0385D01*
X0357Y03735D02*
X036D01*
X03585Y0372D02*
Y0375D01*
X0357Y03635D02*
X036D01*
X03585Y0362D02*
Y0365D01*
X0357Y03535D02*
X036D01*
X03585Y0352D02*
Y0355D01*
X011375Y041472D02*
X011825D01*
X0116Y041247D02*
Y041697D01*
X011375Y04285D02*
X011825D01*
X0116Y042625D02*
Y043075D01*
X0124Y04575D02*
X0129D01*
X01265Y0455D02*
Y046D01*
X0144Y04725D02*
X0149D01*
X01465Y047D02*
Y0475D01*
X0144Y04475D02*
X0149D01*
X01465Y0445D02*
Y045D01*
X037525Y0389D02*
X037875D01*
X0377Y038725D02*
Y039075D01*
X038525Y0389D02*
X038875D01*
X0387Y038725D02*
Y039075D01*
X039525Y0389D02*
X039875D01*
X0397Y038725D02*
Y039075D01*
X040525Y0389D02*
X040875D01*
X0407Y038725D02*
Y039075D01*
X041525Y0389D02*
X041875D01*
X0417Y038725D02*
Y039075D01*
X042525Y0389D02*
X042875D01*
X0427Y038725D02*
Y039075D01*
X043525Y0389D02*
X043875D01*
X0437Y038725D02*
Y039075D01*
X044525Y0389D02*
X044875D01*
X0447Y038725D02*
Y039075D01*
X018775Y028D02*
X019125D01*
X01895Y027825D02*
Y028175D01*
X018775Y027D02*
X019125D01*
X01895Y026825D02*
Y027175D01*
X018775Y026D02*
X019125D01*
X01895Y025825D02*
Y026175D01*
X011675Y024375D02*
X012225D01*
X01195Y0241D02*
Y02465D01*
X011675Y029625D02*
X012225D01*
X01195Y02935D02*
Y0299D01*
X017675Y029625D02*
X018225D01*
X01795Y02935D02*
Y0299D01*
X017675Y024375D02*
X018225D01*
X01795Y0241D02*
Y02465D01*
X013775Y031D02*
X014125D01*
X01395Y030825D02*
Y031175D01*
X014775Y031D02*
X015125D01*
X01495Y030825D02*
Y031175D01*
X015775Y031D02*
X016125D01*
X01595Y030825D02*
Y031175D01*
X013523Y024D02*
X013877D01*
X0137Y023823D02*
Y024177D01*
X016023Y024D02*
X016377D01*
X0162Y023823D02*
Y024177D01*
X013523Y022D02*
X013877D01*
X0137Y021823D02*
Y022177D01*
X016023Y022D02*
X016377D01*
X0162Y021823D02*
Y022177D01*
X01071Y0213D02*
X01189D01*
X0113Y02071D02*
Y02189D01*
X044159Y0213D02*
X04534D01*
X04475Y02071D02*
Y02189D01*
X044159Y04835D02*
X04534D01*
X04475Y047759D02*
Y048941D01*
X01071Y04835D02*
X01189D01*
X0113Y047759D02*
Y048941D01*
X028021Y036216D02*
X028179D01*
X0281Y036137D02*
Y036295D01*
X028314Y038783D02*
X028472D01*
X028393Y038704D02*
Y038862D01*
X025521Y040515D02*
X025679D01*
X0256Y040436D02*
Y040594D01*
X025751Y04975D02*
X025909D01*
X02583Y049671D02*
Y049829D01*
X025067Y048979D02*
X025224D01*
X025146Y048901D02*
Y049058D01*
X023501Y046879D02*
X023659D01*
X02358Y0468D02*
Y046957D01*
X022757Y045795D02*
X022914D01*
X022836Y045716D02*
Y045873D01*
X022707Y043169D02*
X022864D01*
X022786Y04309D02*
Y043248D01*
X02106Y041137D02*
X021217D01*
X021139Y041058D02*
Y041216D01*
X02013Y040207D02*
X020288D01*
X020209Y040128D02*
Y040286D01*
X017514Y040014D02*
X017672D01*
X017593Y039936D02*
Y040093D01*
X016199Y040014D02*
X016357D01*
X016278Y039936D02*
Y040093D01*
X015022Y03943D02*
X015179D01*
X015101Y039351D02*
Y039508D01*
X015558Y038185D02*
X015716D01*
X015637Y038107D02*
Y038264D01*
X016672Y038886D02*
X016829D01*
X01675Y038807D02*
Y038964D01*
X02581Y042586D02*
X025968D01*
X025889Y042507D02*
Y042664D01*
X027125Y042586D02*
X027283D01*
X027204Y042507D02*
Y042664D01*
X029755Y042586D02*
X029913D01*
X029834Y042507D02*
Y042664D01*
X030843Y043324D02*
X031001D01*
X030922Y043245D02*
Y043402D01*
X031773Y044254D02*
X031931D01*
X031852Y044175D02*
Y044332D01*
X032976Y044786D02*
X033133D01*
X033054Y044707D02*
Y044864D01*
X034307Y038767D02*
X034464D01*
X034386Y038689D02*
Y038846D01*
X034307Y037452D02*
X034464D01*
X034386Y037374D02*
Y037531D01*
X036825Y040505D02*
X036982D01*
X036904Y040427D02*
Y040584D01*
X037236Y043069D02*
X037393D01*
X037314Y042991D02*
Y043148D01*
X037236Y044384D02*
X037393D01*
X037314Y044306D02*
Y044463D01*
X037871Y045536D02*
X038029D01*
X03795Y045457D02*
Y045614D01*
X039186Y045489D02*
X039343D01*
X039264Y045411D02*
Y045568D01*
X0405Y045536D02*
X040657D01*
X040578Y045457D02*
Y045614D01*
X040969Y047588D02*
X041127D01*
X041048Y047509D02*
Y047667D01*
X040033Y046664D02*
X04019D01*
X040112Y046586D02*
Y046743D01*
X038718Y046664D02*
X038876D01*
X038797Y046586D02*
Y046743D01*
X037404Y046619D02*
X037561D01*
X037483Y04654D02*
Y046697D01*
X036293Y045914D02*
X036451D01*
X036372Y045836D02*
Y045993D01*
X023881Y043972D02*
X024039D01*
X02396Y043894D02*
Y044051D01*
X023886Y045287D02*
X024043D01*
X023964Y045208D02*
Y045366D01*
X024607Y046387D02*
X024764D01*
X024685Y046308D02*
Y046466D01*
X028622Y048937D02*
X028779D01*
X0287Y048859D02*
Y049016D01*
X023821Y039236D02*
X023979D01*
X0239Y039157D02*
Y039315D01*
X023821Y040421D02*
X023979D01*
X0239Y040342D02*
Y0405D01*
X025772Y038807D02*
X025929D01*
X02585Y038728D02*
Y038885D01*
X032134Y04884D02*
X032292D01*
X032213Y048761D02*
Y048919D01*
X031904Y046236D02*
X032061D01*
X031982Y046157D02*
Y046314D01*
X030931Y047121D02*
X031089D01*
X03101Y047042D02*
Y047199D01*
X030098Y046103D02*
X030256D01*
X030177Y046024D02*
Y046182D01*
X030618Y044895D02*
X030776D01*
X030697Y044817D02*
Y044974D01*
X029689Y043966D02*
X029846D01*
X029767Y043887D02*
Y044044D01*
X028374Y043949D02*
X028531D01*
X028452Y04387D02*
Y044028D01*
X027086Y044214D02*
X027243D01*
X027164Y044135D02*
Y044293D01*
X02746Y045475D02*
X027617D01*
X027538Y045396D02*
Y045554D01*
X027492Y046789D02*
X02765D01*
X027571Y046711D02*
Y046868D01*
X025871Y0471D02*
X026029D01*
X02595Y047021D02*
Y047179D01*
X025511Y046174D02*
X025669D01*
X02559Y046095D02*
Y046253D01*
X025911Y044921D02*
X026068D01*
X025989Y044842D02*
Y045D01*
X017767Y038886D02*
X017925D01*
X017846Y038807D02*
Y038964D01*
X016833Y03796D02*
X016991D01*
X016912Y037881D02*
Y038039D01*
X016657Y036657D02*
X016814D01*
X016736Y036578D02*
Y036736D01*
X015854Y032986D02*
X016012D01*
X015933Y032907D02*
Y033064D01*
X015357Y031768D02*
X015514D01*
X015436Y03169D02*
Y031847D01*
X015415Y030455D02*
X015572D01*
X015494Y030376D02*
Y030533D01*
X016579Y031065D02*
X016737D01*
X016658Y030987D02*
Y031144D01*
X017741Y031682D02*
X017898D01*
X017819Y031604D02*
Y031761D01*
X018257Y030473D02*
X018414D01*
X018336Y030394D02*
Y030552D01*
X017557Y027941D02*
X017714D01*
X017636Y027862D02*
Y02802D01*
X017557Y026626D02*
X017714D01*
X017636Y026547D02*
Y026705D01*
X018275Y025524D02*
X018432D01*
X018353Y025445D02*
Y025603D01*
X019557Y025814D02*
X019715D01*
X019636Y025736D02*
Y025893D01*
X019385Y029228D02*
X019542D01*
X019464Y029149D02*
Y029307D01*
X019386Y030543D02*
X019543D01*
X019464Y030464D02*
Y030622D01*
X018247Y03277D02*
X018404D01*
X018326Y032691D02*
Y032848D01*
X017786Y036631D02*
X017943D01*
X017864Y036552D02*
Y03671D01*
X018307Y037838D02*
X018465D01*
X018386Y037759D02*
Y037917D01*
X019622Y037886D02*
X019779D01*
X0197Y037807D02*
Y037964D01*
X020882Y038262D02*
X021039D01*
X02096Y038183D02*
Y038341D01*
X021811Y039192D02*
X021969D01*
X02189Y039113D02*
Y039271D01*
X022741Y040122D02*
X022899D01*
X02282Y040043D02*
Y0402D01*
X027325Y041179D02*
X027483D01*
X027404Y0411D02*
Y041258D01*
X027811Y037512D02*
X027968D01*
X027889Y037433D02*
Y037591D01*
X029674Y041545D02*
X029832D01*
X029753Y041467D02*
Y041624D01*
X033376Y046726D02*
X033533D01*
X033454Y046648D02*
Y046805D01*
X033376Y048041D02*
X033533D01*
X033454Y047963D02*
Y04812D01*
X036735Y049136D02*
X036892D01*
X036814Y049057D02*
Y049214D01*
X03805Y049136D02*
X038207D01*
X038129Y049057D02*
Y049214D01*
X041537Y047636D02*
X041694D01*
X041616Y047557D02*
Y047715D01*
X042467Y046706D02*
X042624D01*
X042546Y046627D02*
Y046785D01*
X043397Y045776D02*
X043554D01*
X043475Y045698D02*
Y045855D01*
X044326Y044847D02*
X044484D01*
X044405Y044768D02*
Y044925D01*
X044907Y043667D02*
X045064D01*
X044986Y043588D02*
Y043745D01*
X043834Y042905D02*
X043992D01*
X043913Y042827D02*
Y042984D01*
X04252Y042905D02*
X042677D01*
X042598Y042827D02*
Y042984D01*
X041205Y042905D02*
X041362D01*
X041283Y042827D02*
Y042984D01*
X03989Y042905D02*
X040047D01*
X039968Y042827D02*
Y042984D01*
X038575Y042905D02*
X038732D01*
X038653Y042827D02*
Y042984D01*
X037385Y042345D02*
X037543D01*
X037464Y042266D02*
Y042424D01*
X038986Y04133D02*
X039143D01*
X039064Y041251D02*
Y041409D01*
X041257Y040947D02*
X041414D01*
X041336Y040869D02*
Y041026D01*
X042277Y041776D02*
X042435D01*
X042356Y041698D02*
Y041855D01*
X043592Y041776D02*
X04375D01*
X043671Y041698D02*
Y041855D01*
X044907Y041736D02*
X045064D01*
X044986Y041657D02*
Y041815D01*
X044907Y040421D02*
X045064D01*
X044986Y040342D02*
Y0405D01*
X044907Y037791D02*
X045064D01*
X044986Y037712D02*
Y03787D01*
X044907Y036476D02*
X045064D01*
X044986Y036397D02*
Y036555D01*
X044907Y035161D02*
X045064D01*
X044986Y035082D02*
Y03524D01*
X044907Y033846D02*
X045064D01*
X044986Y033767D02*
Y033925D01*
X044907Y032531D02*
X045064D01*
X044986Y032452D02*
Y03261D01*
X044429Y031306D02*
X044586D01*
X044508Y031227D02*
Y031385D01*
X043117Y031214D02*
X043275D01*
X043196Y031136D02*
Y031293D01*
X041802Y031214D02*
X04196D01*
X041881Y031136D02*
Y031293D01*
X037857Y031214D02*
X038015D01*
X037936Y031136D02*
Y031293D01*
X036542Y031214D02*
X0367D01*
X036621Y031136D02*
Y031293D01*
X035267Y030894D02*
X035425D01*
X035346Y030815D02*
Y030973D01*
X03632Y030086D02*
X036478D01*
X036399Y030007D02*
Y030164D01*
X041671Y0301D02*
X041829D01*
X04175Y030021D02*
Y030179D01*
X045154Y030435D02*
X045312D01*
X045233Y030356D02*
Y030513D01*
X046018Y031426D02*
X046176D01*
X046097Y031347D02*
Y031505D01*
X046036Y032741D02*
X046193D01*
X046114Y032662D02*
Y03282D01*
X046036Y034056D02*
X046193D01*
X046114Y033977D02*
Y034135D01*
X046036Y035371D02*
X046193D01*
X046114Y035292D02*
Y035449D01*
X046036Y036686D02*
X046193D01*
X046114Y036607D02*
Y036764D01*
X046036Y038001D02*
X046193D01*
X046114Y037922D02*
Y038079D01*
X046036Y039316D02*
X046193D01*
X046114Y039237D02*
Y039394D01*
X046036Y040631D02*
X046193D01*
X046114Y040552D02*
Y040709D01*
X046036Y041946D02*
X046193D01*
X046114Y041867D02*
Y042024D01*
X046036Y04326D02*
X046193D01*
X046114Y043182D02*
Y043339D01*
X046028Y044575D02*
X046185D01*
X046107Y044497D02*
Y044654D01*
X045185Y045585D02*
X045342D01*
X045264Y045506D02*
Y045663D01*
X044255Y046515D02*
X044413D01*
X044334Y046436D02*
Y046593D01*
X043325Y047444D02*
X043483D01*
X043404Y047366D02*
Y047523D01*
X042395Y048374D02*
X042553D01*
X042474Y048295D02*
Y048453D01*
X041466Y049304D02*
X041623D01*
X041544Y049225D02*
Y049383D01*
X044921Y044D02*
X045079D01*
X045Y043921D02*
Y044079D01*
X044921Y04D02*
X045079D01*
X045Y039921D02*
Y040079D01*
X043921Y038D02*
X044079D01*
X044Y037921D02*
Y038079D01*
X044921Y036D02*
X045079D01*
X045Y035921D02*
Y036079D01*
X044921Y032D02*
X045079D01*
X045Y031921D02*
Y032079D01*
X043921Y03D02*
X044079D01*
X044Y029921D02*
Y030079D01*
X044921Y024D02*
X045079D01*
X045Y023921D02*
Y024079D01*
X043921Y022D02*
X044079D01*
X044Y021921D02*
Y022079D01*
X042921Y048D02*
X043079D01*
X043Y047921D02*
Y048079D01*
X041921Y046D02*
X042079D01*
X042Y045921D02*
Y046079D01*
X042921Y044D02*
X043079D01*
X043Y043921D02*
Y044079D01*
X042921Y04D02*
X043079D01*
X043Y039921D02*
Y040079D01*
X041921Y038D02*
X042079D01*
X042Y037921D02*
Y038079D01*
X041921Y034D02*
X042079D01*
X042Y033921D02*
Y034079D01*
X041921Y026D02*
X042079D01*
X042Y025921D02*
Y026079D01*
X042921Y024D02*
X043079D01*
X043Y023921D02*
Y024079D01*
X041921Y022D02*
X042079D01*
X042Y021921D02*
Y022079D01*
X040921Y044D02*
X041079D01*
X041Y043921D02*
Y044079D01*
X039921Y034D02*
X040079D01*
X04Y033921D02*
Y034079D01*
X039921Y03D02*
X040079D01*
X04Y029921D02*
Y030079D01*
X040921Y024D02*
X041079D01*
X041Y023921D02*
Y024079D01*
X039921Y022D02*
X040079D01*
X04Y021921D02*
Y022079D01*
X038921Y048D02*
X039079D01*
X039Y047921D02*
Y048079D01*
X038921Y044D02*
X039079D01*
X039Y043921D02*
Y044079D01*
X038921Y036D02*
X039079D01*
X039Y035921D02*
Y036079D01*
X037921Y03D02*
X038079D01*
X038Y029921D02*
Y030079D01*
X037921Y026D02*
X038079D01*
X038Y025921D02*
Y026079D01*
X038921Y024D02*
X039079D01*
X039Y023921D02*
Y024079D01*
X037921Y022D02*
X038079D01*
X038Y021921D02*
Y022079D01*
X036921Y048D02*
X037079D01*
X037Y047921D02*
Y048079D01*
X035921Y046D02*
X036079D01*
X036Y045921D02*
Y046079D01*
X036921Y04D02*
X037079D01*
X037Y039921D02*
Y040079D01*
X036921Y036D02*
X037079D01*
X037Y035921D02*
Y036079D01*
X035921Y03D02*
X036079D01*
X036Y029921D02*
Y030079D01*
X036921Y024D02*
X037079D01*
X037Y023921D02*
Y024079D01*
X035921Y022D02*
X036079D01*
X036Y021921D02*
Y022079D01*
X034921Y044D02*
X035079D01*
X035Y043921D02*
Y044079D01*
X033921Y042D02*
X034079D01*
X034Y041921D02*
Y042079D01*
X034921Y032D02*
X035079D01*
X035Y031921D02*
Y032079D01*
X033921Y03D02*
X034079D01*
X034Y029921D02*
Y030079D01*
X033921Y026D02*
X034079D01*
X034Y025921D02*
Y026079D01*
X034921Y024D02*
X035079D01*
X035Y023921D02*
Y024079D01*
X033921Y022D02*
X034079D01*
X034Y021921D02*
Y022079D01*
X032921Y04D02*
X033079D01*
X033Y039921D02*
Y040079D01*
X031921Y038D02*
X032079D01*
X032Y037921D02*
Y038079D01*
X031921Y034D02*
X032079D01*
X032Y033921D02*
Y034079D01*
X032921Y032D02*
X033079D01*
X033Y031921D02*
Y032079D01*
X031921Y03D02*
X032079D01*
X032Y029921D02*
Y030079D01*
X032921Y028D02*
X033079D01*
X033Y027921D02*
Y028079D01*
X031921Y026D02*
X032079D01*
X032Y025921D02*
Y026079D01*
X032921Y024D02*
X033079D01*
X033Y023921D02*
Y024079D01*
X031921Y022D02*
X032079D01*
X032Y021921D02*
Y022079D01*
X030921Y048D02*
X031079D01*
X031Y047921D02*
Y048079D01*
X029921Y034D02*
X030079D01*
X03Y033921D02*
Y034079D01*
X030921Y032D02*
X031079D01*
X031Y031921D02*
Y032079D01*
X029921Y026D02*
X030079D01*
X03Y025921D02*
Y026079D01*
X029921Y022D02*
X030079D01*
X03Y021921D02*
Y022079D01*
X027921Y046D02*
X028079D01*
X028Y045921D02*
Y046079D01*
X027921Y042D02*
X028079D01*
X028Y041921D02*
Y042079D01*
X028921Y032D02*
X029079D01*
X029Y031921D02*
Y032079D01*
X027921Y026D02*
X028079D01*
X028Y025921D02*
Y026079D01*
X027921Y022D02*
X028079D01*
X028Y021921D02*
Y022079D01*
X026921Y032D02*
X027079D01*
X027Y031921D02*
Y032079D01*
X025921Y03D02*
X026079D01*
X026Y029921D02*
Y030079D01*
X026921Y028D02*
X027079D01*
X027Y027921D02*
Y028079D01*
X025921Y022D02*
X026079D01*
X026Y021921D02*
Y022079D01*
X024921Y044D02*
X025079D01*
X025Y043921D02*
Y044079D01*
X023921Y038D02*
X024079D01*
X024Y037921D02*
Y038079D01*
X023921Y034D02*
X024079D01*
X024Y033921D02*
Y034079D01*
X024921Y032D02*
X025079D01*
X025Y031921D02*
Y032079D01*
X023921Y03D02*
X024079D01*
X024Y029921D02*
Y030079D01*
X024921Y028D02*
X025079D01*
X025Y027921D02*
Y028079D01*
X023921Y026D02*
X024079D01*
X024Y025921D02*
Y026079D01*
X024921Y024D02*
X025079D01*
X025Y023921D02*
Y024079D01*
X023921Y022D02*
X024079D01*
X024Y021921D02*
Y022079D01*
X021921Y042D02*
X022079D01*
X022Y041921D02*
Y042079D01*
X021921Y034D02*
X022079D01*
X022Y033921D02*
Y034079D01*
X022921Y032D02*
X023079D01*
X023Y031921D02*
Y032079D01*
X021921Y03D02*
X022079D01*
X022Y029921D02*
Y030079D01*
X022921Y028D02*
X023079D01*
X023Y027921D02*
Y028079D01*
X021921Y026D02*
X022079D01*
X022Y025921D02*
Y026079D01*
X022921Y024D02*
X023079D01*
X023Y023921D02*
Y024079D01*
X021921Y022D02*
X022079D01*
X022Y021921D02*
Y022079D01*
X020921Y048D02*
X021079D01*
X021Y047921D02*
Y048079D01*
X020921Y044D02*
X021079D01*
X021Y043921D02*
Y044079D01*
X020921Y032D02*
X021079D01*
X021Y031921D02*
Y032079D01*
X020921Y028D02*
X021079D01*
X021Y027921D02*
Y028079D01*
X020921Y024D02*
X021079D01*
X021Y023921D02*
Y024079D01*
X019921Y022D02*
X020079D01*
X02Y021921D02*
Y022079D01*
X018921Y048D02*
X019079D01*
X019Y047921D02*
Y048079D01*
X017921Y046D02*
X018079D01*
X018Y045921D02*
Y046079D01*
X018921Y044D02*
X019079D01*
X019Y043921D02*
Y044079D01*
X018921Y04D02*
X019079D01*
X019Y039921D02*
Y040079D01*
X017921Y034D02*
X018079D01*
X018Y033921D02*
Y034079D01*
X018921Y032D02*
X019079D01*
X019Y031921D02*
Y032079D01*
X018921Y024D02*
X019079D01*
X019Y023921D02*
Y024079D01*
X017921Y022D02*
X018079D01*
X018Y021921D02*
Y022079D01*
X016921Y048D02*
X017079D01*
X017Y047921D02*
Y048079D01*
X015921Y046D02*
X016079D01*
X016Y045921D02*
Y046079D01*
X015921Y034D02*
X016079D01*
X016Y033921D02*
Y034079D01*
X015921Y03D02*
X016079D01*
X016Y029921D02*
Y030079D01*
X016921Y028D02*
X017079D01*
X017Y027921D02*
Y028079D01*
X015921Y026D02*
X016079D01*
X016Y025921D02*
Y026079D01*
X016921Y024D02*
X017079D01*
X017Y023921D02*
Y024079D01*
X014921Y048D02*
X015079D01*
X015Y047921D02*
Y048079D01*
X013921Y046D02*
X014079D01*
X014Y045921D02*
Y046079D01*
X014921Y04D02*
X015079D01*
X015Y039921D02*
Y040079D01*
X013921Y038D02*
X014079D01*
X014Y037921D02*
Y038079D01*
X014921Y036D02*
X015079D01*
X015Y035921D02*
Y036079D01*
X013921Y034D02*
X014079D01*
X014Y033921D02*
Y034079D01*
X013921Y03D02*
X014079D01*
X014Y029921D02*
Y030079D01*
X014921Y028D02*
X015079D01*
X015Y027921D02*
Y028079D01*
X013921Y026D02*
X014079D01*
X014Y025921D02*
Y026079D01*
X014921Y024D02*
X015079D01*
X015Y023921D02*
Y024079D01*
X012921Y048D02*
X013079D01*
X013Y047921D02*
Y048079D01*
X012921Y044D02*
X013079D01*
X013Y043921D02*
Y044079D01*
X011921Y042D02*
X012079D01*
X012Y041921D02*
Y042079D01*
X012921Y04D02*
X013079D01*
X013Y039921D02*
Y040079D01*
X011921Y038D02*
X012079D01*
X012Y037921D02*
Y038079D01*
X011921Y034D02*
X012079D01*
X012Y033921D02*
Y034079D01*
X012921Y032D02*
X013079D01*
X013Y031921D02*
Y032079D01*
X012921Y028D02*
X013079D01*
X013Y027921D02*
Y028079D01*
X011921Y026D02*
X012079D01*
X012Y025921D02*
Y026079D01*
X012921Y024D02*
X013079D01*
X013Y023921D02*
Y024079D01*
X011921Y022D02*
X012079D01*
X012Y021921D02*
Y022079D01*
X023271Y04315D02*
X023429D01*
X02335Y043071D02*
Y043229D01*
X017221Y03565D02*
X017379D01*
X0173Y035571D02*
Y035729D01*
X030658Y03785D02*
X030815D01*
X030737Y037771D02*
Y037929D01*
X030071Y03785D02*
X030229D01*
X03015Y037771D02*
Y037929D01*
X031671Y03745D02*
X031829D01*
X03175Y037371D02*
Y037529D01*
X032421Y0369D02*
X032579D01*
X0325Y036821D02*
Y036979D01*
X025771Y0376D02*
X025929D01*
X02585Y037521D02*
Y037679D01*
M02*
