G04*
G04 #@! TF.GenerationSoftware,Altium Limited,Altium Designer,18.1.6 (161)*
G04*
G04 Layer_Physical_Order=2*
G04 Layer_Color=16711680*
%FSTAX24Y24*%
%MOIN*%
G70*
G01*
G75*
%ADD15C,0.0150*%
%ADD21C,0.0140*%
%ADD22R,0.0550X0.0500*%
%ADD23R,0.0500X0.0550*%
%ADD62C,0.0400*%
%ADD63C,0.0300*%
%ADD64C,0.0350*%
%ADD65C,0.0200*%
%ADD68R,0.1600X0.1000*%
%ADD69R,0.1000X0.1600*%
%ADD70C,0.0591*%
%ADD71C,0.0512*%
%ADD72O,0.0850X0.0650*%
%ADD73R,0.0850X0.0650*%
%ADD74C,0.0551*%
%ADD75O,0.0750X0.0650*%
%ADD76R,0.0750X0.0650*%
%ADD77O,0.0650X0.0750*%
%ADD78R,0.1000X0.0700*%
%ADD79O,0.1000X0.0700*%
%ADD80C,0.0650*%
%ADD81C,0.0600*%
%ADD82C,0.0800*%
%ADD83R,0.0800X0.0800*%
%ADD84C,0.0700*%
%ADD85C,0.0900*%
%ADD86C,0.1380*%
%ADD87C,0.0315*%
G36*
X046447Y020003D02*
X010053D01*
Y049947D01*
X046447D01*
Y020003D01*
D02*
G37*
%LPC*%
G36*
X04475Y049144D02*
X044595Y049129D01*
X044446Y049083D01*
X044309Y04901D01*
X044189Y048911D01*
X04409Y048791D01*
X044017Y048654D01*
X043971Y048505D01*
X043956Y04835D01*
X043971Y048195D01*
X044017Y048046D01*
X04409Y047909D01*
X044189Y047789D01*
X044309Y04769D01*
X044446Y047617D01*
X044595Y047571D01*
X04475Y047556D01*
X044905Y047571D01*
X045054Y047617D01*
X045191Y04769D01*
X045311Y047789D01*
X04541Y047909D01*
X045483Y048046D01*
X045529Y048195D01*
X045544Y04835D01*
X045529Y048505D01*
X045483Y048654D01*
X04541Y048791D01*
X045311Y048911D01*
X045191Y04901D01*
X045054Y049083D01*
X044905Y049129D01*
X04475Y049144D01*
D02*
G37*
G36*
X0113D02*
X011145Y049129D01*
X010996Y049083D01*
X010859Y04901D01*
X010739Y048911D01*
X01064Y048791D01*
X010567Y048654D01*
X010521Y048505D01*
X010506Y04835D01*
X010521Y048195D01*
X010567Y048046D01*
X01064Y047909D01*
X010739Y047789D01*
X010859Y04769D01*
X010996Y047617D01*
X011145Y047571D01*
X0113Y047556D01*
X011455Y047571D01*
X011604Y047617D01*
X011741Y04769D01*
X011861Y047789D01*
X01196Y047909D01*
X012033Y048046D01*
X012079Y048195D01*
X012094Y04835D01*
X012079Y048505D01*
X012033Y048654D01*
X01196Y048791D01*
X011861Y048911D01*
X011741Y04901D01*
X011604Y049083D01*
X011455Y049129D01*
X0113Y049144D01*
D02*
G37*
G36*
X03388Y048129D02*
X033769Y048114D01*
X033666Y048071D01*
X033577Y048003D01*
X033509Y047914D01*
X033466Y047811D01*
X033451Y0477D01*
Y0476D01*
X033466Y047489D01*
X033509Y047386D01*
X033577Y047297D01*
X033666Y047229D01*
X033769Y047186D01*
X03388Y047171D01*
X033991Y047186D01*
X034094Y047229D01*
X034183Y047297D01*
X034251Y047386D01*
X034294Y047489D01*
X034309Y0476D01*
Y0477D01*
X034294Y047811D01*
X034251Y047914D01*
X034183Y048003D01*
X034094Y048071D01*
X033991Y048114D01*
X03388Y048129D01*
D02*
G37*
G36*
X0329D02*
X032789Y048114D01*
X032686Y048071D01*
X032597Y048003D01*
X032529Y047914D01*
X032486Y047811D01*
X032471Y0477D01*
Y0476D01*
X032486Y047489D01*
X032529Y047386D01*
X032597Y047297D01*
X032686Y047229D01*
X032789Y047186D01*
X0329Y047171D01*
X033011Y047186D01*
X033114Y047229D01*
X033203Y047297D01*
X033271Y047386D01*
X033314Y047489D01*
X033329Y0476D01*
Y0477D01*
X033314Y047811D01*
X033271Y047914D01*
X033203Y048003D01*
X033114Y048071D01*
X033011Y048114D01*
X0329Y048129D01*
D02*
G37*
G36*
X03189D02*
X031779Y048114D01*
X031676Y048071D01*
X031587Y048003D01*
X031519Y047914D01*
X031476Y047811D01*
X031461Y0477D01*
Y0476D01*
X031476Y047489D01*
X031519Y047386D01*
X031587Y047297D01*
X031676Y047229D01*
X031779Y047186D01*
X03189Y047171D01*
X032001Y047186D01*
X032104Y047229D01*
X032193Y047297D01*
X032261Y047386D01*
X032304Y047489D01*
X032319Y0476D01*
Y0477D01*
X032304Y047811D01*
X032261Y047914D01*
X032193Y048003D01*
X032104Y048071D01*
X032001Y048114D01*
X03189Y048129D01*
D02*
G37*
G36*
X041125Y047585D02*
X040175D01*
Y046735D01*
X041125D01*
Y047585D01*
D02*
G37*
G36*
X039375Y047575D02*
X038425D01*
Y046725D01*
X039375D01*
Y047575D01*
D02*
G37*
G36*
X03585Y045753D02*
X035746Y04574D01*
X035648Y045699D01*
X035587Y045653D01*
X034825D01*
Y0457D01*
X034075D01*
Y045653D01*
X03215D01*
X032072Y045642D01*
X031999Y045612D01*
X031936Y045564D01*
X029825Y043453D01*
X028762D01*
Y044664D01*
X028766Y0447D01*
X028757Y044767D01*
X028732Y04483D01*
X02869Y044884D01*
X028636Y044925D01*
X028574Y044951D01*
X028507Y04496D01*
X028439Y044951D01*
X028377Y044925D01*
X028323Y044884D01*
X028282Y04483D01*
X028256Y044767D01*
X028247Y0447D01*
X028252Y044664D01*
Y043454D01*
X022352D01*
X022273Y043444D01*
X0222Y043414D01*
X022138Y043366D01*
X02209Y043303D01*
X022059Y04323D01*
X022049Y043152D01*
X022059Y043073D01*
X02209Y043D01*
X022138Y042938D01*
X0222Y04289D01*
X022273Y042859D01*
X022352Y042849D01*
X028496D01*
X028508Y042847D01*
X02995D01*
X030028Y042858D01*
X030101Y042888D01*
X030164Y042936D01*
X032275Y045047D01*
X032921D01*
X032976Y045045D01*
X033031Y045035D01*
X033075Y04502D01*
X033111Y045001D01*
X033139Y044978D01*
X033163Y044949D01*
X033182Y044913D01*
X033197Y044869D01*
X033206Y044814D01*
X033209Y044759D01*
Y04035D01*
Y038688D01*
X03322Y03861D01*
X03325Y038537D01*
X033298Y038474D01*
X03545Y036322D01*
X03546Y036246D01*
X035501Y036148D01*
X03552Y036123D01*
X03547Y036023D01*
X034322D01*
X032773Y037573D01*
X032716Y03761D01*
X03265Y037623D01*
X031942D01*
X031934Y037634D01*
X03188Y037675D01*
X031817Y037701D01*
X03175Y03771D01*
X031683Y037701D01*
X03162Y037675D01*
X031566Y037634D01*
X031525Y03758D01*
X031499Y037517D01*
X031494Y037479D01*
X03142Y037443D01*
X031392Y03744D01*
X030995Y037837D01*
X030996Y03785D01*
X030988Y037917D01*
X030962Y03798D01*
X03092Y038034D01*
X030867Y038075D01*
X030804Y038101D01*
X030737Y03811D01*
X030669Y038101D01*
X030607Y038075D01*
X030553Y038034D01*
X030512Y03798D01*
X030486Y037917D01*
X030481Y037884D01*
X030379Y03787D01*
X030375Y03788D01*
X030334Y037934D01*
X03028Y037975D01*
X030217Y038001D01*
X03015Y03801D01*
X030083Y038001D01*
X03002Y037975D01*
X029966Y037934D01*
X029925Y03788D01*
X029899Y037817D01*
X02989Y03775D01*
X029899Y037683D01*
X029925Y03762D01*
X029966Y037566D01*
X03002Y037525D01*
X030083Y037499D01*
X03015Y03749D01*
X030163Y037492D01*
X033577Y034077D01*
X033634Y03404D01*
X0337Y034027D01*
X0391D01*
X039167Y03404D01*
X039223Y034077D01*
X039336Y034191D01*
X039352Y034184D01*
X03945Y034171D01*
X039548Y034184D01*
X03964Y034222D01*
X039718Y034282D01*
X039778Y034361D01*
X039816Y034452D01*
X039829Y03455D01*
X039816Y034648D01*
X039778Y034739D01*
X03975Y034777D01*
X039799Y034877D01*
X040178D01*
X04039Y034664D01*
X040384Y034648D01*
X040371Y03455D01*
X040384Y034452D01*
X040422Y034361D01*
X040482Y034282D01*
X04056Y034222D01*
X040652Y034184D01*
X04075Y034171D01*
X040848Y034184D01*
X040939Y034222D01*
X041017Y034282D01*
X041078Y034361D01*
X041116Y034452D01*
X041128Y03455D01*
X041116Y034648D01*
X041078Y034739D01*
X041017Y034818D01*
X040939Y034878D01*
X040848Y034916D01*
X04075Y034929D01*
X040652Y034916D01*
X040635Y034909D01*
X040372Y035173D01*
X040316Y03521D01*
X04025Y035223D01*
X039811D01*
X039762Y035323D01*
X039778Y035345D01*
X039816Y035436D01*
X039829Y035534D01*
X039816Y035632D01*
X039778Y035724D01*
X039718Y035802D01*
X03964Y035862D01*
X039548Y0359D01*
X03945Y035913D01*
X039352Y0359D01*
X039261Y035862D01*
X039183Y035802D01*
X039122Y035724D01*
X039084Y035632D01*
X039072Y035534D01*
X039084Y035436D01*
X039122Y035345D01*
X039139Y035323D01*
X03909Y035223D01*
X0389D01*
X038834Y03521D01*
X038777Y035173D01*
X038428Y034823D01*
X034008D01*
X03174Y037092D01*
X031743Y03712D01*
X031779Y037194D01*
X031817Y037199D01*
X03188Y037225D01*
X031934Y037266D01*
X031942Y037277D01*
X032523D01*
X032535Y037256D01*
X032519Y037212D01*
X032479Y037157D01*
X032433Y037151D01*
X03237Y037125D01*
X032316Y037084D01*
X032275Y03703D01*
X032249Y036967D01*
X03224Y0369D01*
X032249Y036833D01*
X032275Y03677D01*
X032316Y036716D01*
X03237Y036675D01*
X032433Y036649D01*
X0325Y03664D01*
X032513Y036642D01*
X033927Y035227D01*
X033984Y03519D01*
X03405Y035177D01*
X035489D01*
X035501Y035148D01*
X035565Y035065D01*
X035648Y035001D01*
X035746Y03496D01*
X03585Y034947D01*
X035954Y03496D01*
X036052Y035001D01*
X036135Y035065D01*
X036199Y035148D01*
X03624Y035246D01*
X036253Y03535D01*
X03624Y035454D01*
X036199Y035552D01*
X036171Y035589D01*
X03617Y035612D01*
X036193Y035705D01*
X036198Y035711D01*
X036223Y035727D01*
X036573Y036077D01*
X03661Y036134D01*
X036623Y0362D01*
Y03675D01*
X03661Y036816D01*
X036573Y036873D01*
X036228Y037217D01*
X03624Y037246D01*
X036253Y03735D01*
X03624Y037454D01*
X036199Y037552D01*
X036135Y037635D01*
X036052Y037699D01*
X035954Y03774D01*
X03585Y037753D01*
X035746Y03774D01*
X035648Y037699D01*
X035565Y037635D01*
X035501Y037552D01*
X03546Y037454D01*
X035447Y03735D01*
X035451Y037319D01*
X035356Y037272D01*
X033814Y038813D01*
Y039759D01*
X033817Y039814D01*
X033827Y039869D01*
X033842Y039913D01*
X033861Y039949D01*
X033884Y039978D01*
X033913Y040001D01*
X033949Y04002D01*
X033993Y040035D01*
X034048Y040045D01*
X034103Y040047D01*
X035587D01*
X035648Y040001D01*
X035746Y03996D01*
X03585Y039947D01*
X035954Y03996D01*
X036052Y040001D01*
X036135Y040065D01*
X036199Y040148D01*
X03624Y040246D01*
X036253Y04035D01*
X03624Y040454D01*
X036199Y040552D01*
X036135Y040635D01*
X036052Y040699D01*
X035954Y04074D01*
X03585Y040753D01*
X035746Y04074D01*
X035648Y040699D01*
X035587Y040653D01*
X034103D01*
X034047Y040655D01*
X033993Y040665D01*
X033949Y04068D01*
X033913Y040699D01*
X033884Y040722D01*
X033861Y040751D01*
X033842Y040787D01*
X033827Y040831D01*
X033817Y040886D01*
X033814Y040941D01*
Y044759D01*
X033817Y044814D01*
X033827Y044869D01*
X033842Y044913D01*
X033861Y044949D01*
X033884Y044978D01*
X033913Y045001D01*
X033949Y04502D01*
X033975Y045029D01*
X034075Y045D01*
Y045D01*
X034825D01*
Y045047D01*
X035587D01*
X035648Y045001D01*
X035746Y04496D01*
X03585Y044947D01*
X035954Y04496D01*
X036052Y045001D01*
X036135Y045065D01*
X036199Y045148D01*
X03624Y045246D01*
X036253Y04535D01*
X03624Y045454D01*
X036199Y045552D01*
X036135Y045635D01*
X036052Y045699D01*
X035954Y04574D01*
X03585Y045753D01*
D02*
G37*
G36*
X01325Y04665D02*
X01205D01*
Y04485D01*
X01325D01*
Y04665D01*
D02*
G37*
G36*
X01555Y04535D02*
X01375D01*
Y04415D01*
X01555D01*
Y04535D01*
D02*
G37*
G36*
X03585Y042753D02*
X035746Y04274D01*
X035648Y042699D01*
X035565Y042635D01*
X035501Y042552D01*
X03546Y042454D01*
X035447Y04235D01*
X03546Y042246D01*
X035501Y042148D01*
X035565Y042065D01*
X035648Y042001D01*
X035746Y04196D01*
X03585Y041947D01*
X035954Y04196D01*
X036052Y042001D01*
X036135Y042065D01*
X036199Y042148D01*
X03624Y042246D01*
X036253Y04235D01*
X03624Y042454D01*
X036199Y042552D01*
X036135Y042635D01*
X036052Y042699D01*
X035954Y04274D01*
X03585Y042753D01*
D02*
G37*
G36*
X0199Y042539D02*
X0198D01*
X019689Y042524D01*
X019586Y042481D01*
X019497Y042413D01*
X019429Y042324D01*
X019386Y042221D01*
X019371Y04211D01*
X019386Y041999D01*
X019429Y041896D01*
X019497Y041807D01*
X019586Y041739D01*
X019689Y041696D01*
X0198Y041681D01*
X0199D01*
X020011Y041696D01*
X020114Y041739D01*
X020203Y041807D01*
X020271Y041896D01*
X020314Y041999D01*
X020329Y04211D01*
X020314Y042221D01*
X020271Y042324D01*
X020203Y042413D01*
X020114Y042481D01*
X020011Y042524D01*
X0199Y042539D01*
D02*
G37*
G36*
X01715Y042529D02*
X01705D01*
X016939Y042514D01*
X016836Y042471D01*
X016747Y042403D01*
X016679Y042314D01*
X016636Y042211D01*
X016621Y0421D01*
X016636Y041989D01*
X016679Y041886D01*
X016747Y041797D01*
X016836Y041729D01*
X016939Y041686D01*
X01705Y041671D01*
X01715D01*
X017261Y041686D01*
X017364Y041729D01*
X017453Y041797D01*
X017521Y041886D01*
X017564Y041989D01*
X017579Y0421D01*
X017564Y042211D01*
X017521Y042314D01*
X017453Y042403D01*
X017364Y042471D01*
X017261Y042514D01*
X01715Y042529D01*
D02*
G37*
G36*
X0154Y0422D02*
X0142D01*
Y0413D01*
X0154D01*
Y0422D01*
D02*
G37*
G36*
X0116Y041976D02*
X011469Y041959D01*
X011348Y041909D01*
X011243Y041829D01*
X011163Y041724D01*
X011113Y041603D01*
X011096Y041472D01*
X011113Y041342D01*
X011163Y04122D01*
X011243Y041115D01*
X011348Y041035D01*
X011469Y040985D01*
X0116Y040968D01*
X011731Y040985D01*
X011852Y041035D01*
X011957Y041115D01*
X012037Y04122D01*
X012087Y041342D01*
X012104Y041472D01*
X012087Y041603D01*
X012037Y041724D01*
X011957Y041829D01*
X011852Y041909D01*
X011731Y041959D01*
X0116Y041976D01*
D02*
G37*
G36*
X03585Y041753D02*
X035746Y04174D01*
X035648Y041699D01*
X035565Y041635D01*
X035501Y041552D01*
X03546Y041454D01*
X035447Y04135D01*
X03546Y041246D01*
X035501Y041148D01*
X035565Y041065D01*
X035648Y041001D01*
X035746Y04096D01*
X03585Y040947D01*
X035954Y04096D01*
X036052Y041001D01*
X036135Y041065D01*
X036199Y041148D01*
X03624Y041246D01*
X036253Y04135D01*
X03624Y041454D01*
X036199Y041552D01*
X036135Y041635D01*
X036052Y041699D01*
X035954Y04174D01*
X03585Y041753D01*
D02*
G37*
G36*
X0447Y039329D02*
X044589Y039314D01*
X044486Y039271D01*
X044397Y039203D01*
X044329Y039114D01*
X044286Y039011D01*
X044271Y0389D01*
X044286Y038789D01*
X044329Y038686D01*
X044397Y038597D01*
X044486Y038529D01*
X044589Y038486D01*
X0447Y038471D01*
X044811Y038486D01*
X044914Y038529D01*
X045003Y038597D01*
X045071Y038686D01*
X045114Y038789D01*
X045129Y0389D01*
X045114Y039011D01*
X045071Y039114D01*
X045003Y039203D01*
X044914Y039271D01*
X044811Y039314D01*
X0447Y039329D01*
D02*
G37*
G36*
X0437D02*
X043589Y039314D01*
X043486Y039271D01*
X043397Y039203D01*
X043329Y039114D01*
X043286Y039011D01*
X043271Y0389D01*
X043286Y038789D01*
X043329Y038686D01*
X043397Y038597D01*
X043486Y038529D01*
X043589Y038486D01*
X0437Y038471D01*
X043811Y038486D01*
X043914Y038529D01*
X044003Y038597D01*
X044071Y038686D01*
X044114Y038789D01*
X044129Y0389D01*
X044114Y039011D01*
X044071Y039114D01*
X044003Y039203D01*
X043914Y039271D01*
X043811Y039314D01*
X0437Y039329D01*
D02*
G37*
G36*
X0427D02*
X042589Y039314D01*
X042486Y039271D01*
X042397Y039203D01*
X042329Y039114D01*
X042286Y039011D01*
X042271Y0389D01*
X042286Y038789D01*
X042329Y038686D01*
X042397Y038597D01*
X042486Y038529D01*
X042589Y038486D01*
X0427Y038471D01*
X042811Y038486D01*
X042914Y038529D01*
X043003Y038597D01*
X043071Y038686D01*
X043114Y038789D01*
X043129Y0389D01*
X043114Y039011D01*
X043071Y039114D01*
X043003Y039203D01*
X042914Y039271D01*
X042811Y039314D01*
X0427Y039329D01*
D02*
G37*
G36*
X0417D02*
X041589Y039314D01*
X041486Y039271D01*
X041397Y039203D01*
X041329Y039114D01*
X041286Y039011D01*
X041271Y0389D01*
X041286Y038789D01*
X041329Y038686D01*
X041397Y038597D01*
X041486Y038529D01*
X041589Y038486D01*
X0417Y038471D01*
X041811Y038486D01*
X041914Y038529D01*
X042003Y038597D01*
X042071Y038686D01*
X042114Y038789D01*
X042129Y0389D01*
X042114Y039011D01*
X042071Y039114D01*
X042003Y039203D01*
X041914Y039271D01*
X041811Y039314D01*
X0417Y039329D01*
D02*
G37*
G36*
X0407D02*
X040589Y039314D01*
X040486Y039271D01*
X040397Y039203D01*
X040329Y039114D01*
X040286Y039011D01*
X040271Y0389D01*
X040286Y038789D01*
X040329Y038686D01*
X040397Y038597D01*
X040486Y038529D01*
X040589Y038486D01*
X0407Y038471D01*
X040811Y038486D01*
X040914Y038529D01*
X041003Y038597D01*
X041071Y038686D01*
X041114Y038789D01*
X041129Y0389D01*
X041114Y039011D01*
X041071Y039114D01*
X041003Y039203D01*
X040914Y039271D01*
X040811Y039314D01*
X0407Y039329D01*
D02*
G37*
G36*
X0397D02*
X039589Y039314D01*
X039486Y039271D01*
X039397Y039203D01*
X039329Y039114D01*
X039286Y039011D01*
X039271Y0389D01*
X039286Y038789D01*
X039329Y038686D01*
X039397Y038597D01*
X039486Y038529D01*
X039589Y038486D01*
X0397Y038471D01*
X039811Y038486D01*
X039914Y038529D01*
X040003Y038597D01*
X040071Y038686D01*
X040114Y038789D01*
X040129Y0389D01*
X040114Y039011D01*
X040071Y039114D01*
X040003Y039203D01*
X039914Y039271D01*
X039811Y039314D01*
X0397Y039329D01*
D02*
G37*
G36*
X0377D02*
X037589Y039314D01*
X037486Y039271D01*
X037397Y039203D01*
X037329Y039114D01*
X037286Y039011D01*
X037271Y0389D01*
X037286Y038789D01*
X037329Y038686D01*
X037397Y038597D01*
X037486Y038529D01*
X037589Y038486D01*
X0377Y038471D01*
X037811Y038486D01*
X037914Y038529D01*
X038003Y038597D01*
X038071Y038686D01*
X038114Y038789D01*
X038129Y0389D01*
X038114Y039011D01*
X038071Y039114D01*
X038003Y039203D01*
X037914Y039271D01*
X037811Y039314D01*
X0377Y039329D01*
D02*
G37*
G36*
X015884Y037549D02*
X015773Y037534D01*
X01567Y037491D01*
X015581Y037423D01*
X015513Y037334D01*
X01547Y037231D01*
X015456Y03712D01*
X01547Y037009D01*
X015513Y036906D01*
X015581Y036817D01*
X01567Y036749D01*
X015773Y036706D01*
X015884Y036691D01*
X015995Y036706D01*
X016099Y036749D01*
X016187Y036817D01*
X016255Y036906D01*
X016298Y037009D01*
X016313Y03712D01*
X016298Y037231D01*
X016255Y037334D01*
X016187Y037423D01*
X016099Y037491D01*
X015995Y037534D01*
X015884Y037549D01*
D02*
G37*
G36*
X014884D02*
X014773Y037534D01*
X01467Y037491D01*
X014581Y037423D01*
X014513Y037334D01*
X01447Y037231D01*
X014456Y03712D01*
X01447Y037009D01*
X014513Y036906D01*
X014581Y036817D01*
X01467Y036749D01*
X014773Y036706D01*
X014884Y036691D01*
X014995Y036706D01*
X015099Y036749D01*
X015187Y036817D01*
X015255Y036906D01*
X015298Y037009D01*
X015313Y03712D01*
X015298Y037231D01*
X015255Y037334D01*
X015187Y037423D01*
X015099Y037491D01*
X014995Y037534D01*
X014884Y037549D01*
D02*
G37*
G36*
X012884D02*
X012773Y037534D01*
X01267Y037491D01*
X012581Y037423D01*
X012513Y037334D01*
X01247Y037231D01*
X012456Y03712D01*
X01247Y037009D01*
X012513Y036906D01*
X012581Y036817D01*
X01267Y036749D01*
X012773Y036706D01*
X012884Y036691D01*
X012995Y036706D01*
X013099Y036749D01*
X013187Y036817D01*
X013255Y036906D01*
X013298Y037009D01*
X013313Y03712D01*
X013298Y037231D01*
X013255Y037334D01*
X013187Y037423D01*
X013099Y037491D01*
X012995Y037534D01*
X012884Y037549D01*
D02*
G37*
G36*
X011884D02*
X011773Y037534D01*
X01167Y037491D01*
X011581Y037423D01*
X011513Y037334D01*
X01147Y037231D01*
X011456Y03712D01*
X01147Y037009D01*
X011513Y036906D01*
X011581Y036817D01*
X01167Y036749D01*
X011773Y036706D01*
X011884Y036691D01*
X011995Y036706D01*
X012099Y036749D01*
X012187Y036817D01*
X012255Y036906D01*
X012298Y037009D01*
X012313Y03712D01*
X012298Y037231D01*
X012255Y037334D01*
X012187Y037423D01*
X012099Y037491D01*
X011995Y037534D01*
X011884Y037549D01*
D02*
G37*
G36*
X010884D02*
X010773Y037534D01*
X01067Y037491D01*
X010581Y037423D01*
X010513Y037334D01*
X01047Y037231D01*
X010456Y03712D01*
X01047Y037009D01*
X010513Y036906D01*
X010581Y036817D01*
X01067Y036749D01*
X010773Y036706D01*
X010884Y036691D01*
X010995Y036706D01*
X011099Y036749D01*
X011187Y036817D01*
X011255Y036906D01*
X011298Y037009D01*
X011313Y03712D01*
X011298Y037231D01*
X011255Y037334D01*
X011187Y037423D01*
X011099Y037491D01*
X010995Y037534D01*
X010884Y037549D01*
D02*
G37*
G36*
X020325Y041525D02*
X019375D01*
Y040675D01*
X020023D01*
X020422Y040276D01*
Y037556D01*
X020386Y037541D01*
X020297Y037473D01*
X020229Y037384D01*
X020186Y037281D01*
X020171Y03717D01*
Y03707D01*
X020186Y036959D01*
X020229Y036856D01*
X020297Y036767D01*
X020386Y036699D01*
X020489Y036656D01*
X0206Y036641D01*
X020711Y036656D01*
X020814Y036699D01*
X020903Y036767D01*
X020971Y036856D01*
X021014Y036959D01*
X021029Y03707D01*
Y03717D01*
X021014Y037281D01*
X020971Y037384D01*
X020903Y037473D01*
X020814Y037541D01*
X020778Y037556D01*
Y04035D01*
X020765Y040418D01*
X020726Y040476D01*
X020325Y040877D01*
Y041525D01*
D02*
G37*
G36*
X017575Y041515D02*
X016625D01*
Y040665D01*
X01728D01*
X018432Y039513D01*
Y037556D01*
X018396Y037541D01*
X018307Y037473D01*
X018239Y037384D01*
X018196Y037281D01*
X018181Y03717D01*
Y03707D01*
X018196Y036959D01*
X018239Y036856D01*
X018307Y036767D01*
X018396Y036699D01*
X018499Y036656D01*
X01861Y036641D01*
X018721Y036656D01*
X018824Y036699D01*
X018913Y036767D01*
X018981Y036856D01*
X019024Y036959D01*
X019039Y03707D01*
Y03717D01*
X019024Y037281D01*
X018981Y037384D01*
X018913Y037473D01*
X018824Y037541D01*
X018788Y037556D01*
Y03958D01*
X018775Y039648D01*
X018736Y039706D01*
X018714Y039721D01*
X017575Y04086D01*
Y041515D01*
D02*
G37*
G36*
X01959Y037599D02*
X019479Y037584D01*
X019376Y037541D01*
X019287Y037473D01*
X019219Y037384D01*
X019176Y037281D01*
X019161Y03717D01*
Y03707D01*
X019176Y036959D01*
X019219Y036856D01*
X019287Y036767D01*
X019376Y036699D01*
X019417Y036682D01*
Y03594D01*
X01943Y035874D01*
X019467Y035817D01*
X020107Y035178D01*
Y028402D01*
X019121Y027416D01*
X019067Y027438D01*
X01895Y027454D01*
X018833Y027438D01*
X018723Y027393D01*
X018629Y027321D01*
X018577Y027254D01*
X018477Y027287D01*
Y028435D01*
X019096Y029054D01*
X01914Y029111D01*
X019168Y029178D01*
X019177Y02925D01*
Y029475D01*
X01925D01*
Y030225D01*
X019177D01*
Y0314D01*
X019168Y031472D01*
X01914Y031539D01*
X019096Y031596D01*
X018146Y032546D01*
X018089Y03259D01*
X018022Y032618D01*
X01795Y032627D01*
X01725D01*
X0172Y03263D01*
X017154Y032638D01*
X017117Y03265D01*
X017088Y032666D01*
X017065Y032685D01*
X017046Y032708D01*
X01703Y032737D01*
X017018Y032774D01*
X01701Y03282D01*
X017007Y03287D01*
Y03594D01*
X016998Y036012D01*
X01697Y036079D01*
X016926Y036136D01*
X016869Y03618D01*
X016802Y036208D01*
X01673Y036217D01*
X016708Y036215D01*
X016662Y036309D01*
X017149Y036797D01*
X017281Y036787D01*
X017297Y036767D01*
X017386Y036699D01*
X017489Y036656D01*
X0176Y036641D01*
X017711Y036656D01*
X017814Y036699D01*
X017903Y036767D01*
X017971Y036856D01*
X018014Y036959D01*
X018029Y03707D01*
Y03717D01*
X018014Y037281D01*
X017971Y037384D01*
X017903Y037473D01*
X017814Y037541D01*
X017711Y037584D01*
X0176Y037599D01*
X017489Y037584D01*
X017386Y037541D01*
X017297Y037473D01*
X017229Y037384D01*
X017191Y037293D01*
X017152Y037285D01*
X017094Y037246D01*
X013024Y033176D01*
X012985Y033118D01*
X012972Y03305D01*
Y03075D01*
X012985Y030682D01*
X013024Y030624D01*
X013524Y030124D01*
X013524Y030124D01*
X013582Y030085D01*
X01365Y030072D01*
X01365Y030072D01*
X0142D01*
X014268Y030085D01*
X014326Y030124D01*
X014784Y030582D01*
X014833Y030562D01*
X01495Y030546D01*
X015067Y030562D01*
X015177Y030607D01*
X015271Y030679D01*
X015343Y030773D01*
X015388Y030883D01*
X015395Y030935D01*
X0154Y030967D01*
X0155D01*
X015505Y030935D01*
X015512Y030883D01*
X015557Y030773D01*
X015629Y030679D01*
X015723Y030607D01*
X015833Y030562D01*
X01595Y030546D01*
X016067Y030562D01*
X016177Y030607D01*
X016271Y030679D01*
X016343Y030773D01*
X016388Y030883D01*
X016404Y031D01*
X016388Y031117D01*
X016343Y031227D01*
X016271Y031321D01*
X016227Y031354D01*
Y031975D01*
X01635D01*
Y032073D01*
X017835D01*
X018623Y031285D01*
Y030225D01*
X01855D01*
Y029875D01*
X01845Y029855D01*
X01843Y029902D01*
X018342Y030017D01*
X018227Y030105D01*
X018094Y030161D01*
X01795Y03018D01*
X017806Y030161D01*
X017673Y030105D01*
X017558Y030017D01*
X01747Y029902D01*
X017414Y029769D01*
X017395Y029625D01*
X017414Y029481D01*
X01747Y029348D01*
X017558Y029233D01*
X017673Y029145D01*
X017806Y029089D01*
X01795Y02907D01*
X018094Y029089D01*
X018227Y029145D01*
X018342Y029233D01*
X01843Y029348D01*
X018453Y029401D01*
X018559Y029446D01*
X018567Y029442D01*
X018599Y029342D01*
X018004Y028746D01*
X01796Y028689D01*
X017932Y028622D01*
X017923Y02855D01*
Y02645D01*
X017932Y026378D01*
X01796Y026311D01*
X018004Y026254D01*
X018454Y025804D01*
X018511Y02576D01*
X018578Y025732D01*
X01859Y025731D01*
X018629Y025679D01*
X018723Y025607D01*
X018833Y025562D01*
X01895Y025546D01*
X019067Y025562D01*
X019177Y025607D01*
X019271Y025679D01*
X019343Y025773D01*
X019388Y025883D01*
X019404Y026D01*
X019388Y026117D01*
X019343Y026227D01*
X019271Y026321D01*
X019177Y026393D01*
X019067Y026438D01*
X019015Y026445D01*
X018983Y02645D01*
Y02655D01*
X019015Y026555D01*
X019067Y026562D01*
X019177Y026607D01*
X019271Y026679D01*
X019343Y026773D01*
X019388Y026883D01*
X019404Y027D01*
X019388Y027117D01*
X019366Y027171D01*
X020403Y028207D01*
X02044Y028264D01*
X020453Y02833D01*
Y03525D01*
X02044Y035316D01*
X020403Y035373D01*
X019763Y036012D01*
Y036682D01*
X019804Y036699D01*
X019893Y036767D01*
X019961Y036856D01*
X020004Y036959D01*
X020019Y03707D01*
Y03717D01*
X020004Y037281D01*
X019961Y037384D01*
X019893Y037473D01*
X019804Y037541D01*
X019701Y037584D01*
X01959Y037599D01*
D02*
G37*
G36*
X04405Y037429D02*
X04385D01*
X043739Y037414D01*
X043636Y037371D01*
X043547Y037303D01*
X043479Y037214D01*
X043436Y037111D01*
X043421Y037D01*
X043436Y036889D01*
X043479Y036786D01*
X043547Y036697D01*
X043636Y036629D01*
X043739Y036586D01*
X04385Y036571D01*
X04405D01*
X044161Y036586D01*
X044264Y036629D01*
X044353Y036697D01*
X044421Y036786D01*
X044464Y036889D01*
X044479Y037D01*
X044464Y037111D01*
X044421Y037214D01*
X044353Y037303D01*
X044264Y037371D01*
X044161Y037414D01*
X04405Y037429D01*
D02*
G37*
G36*
X03585Y038753D02*
X035746Y03874D01*
X035648Y038699D01*
X035565Y038635D01*
X035501Y038552D01*
X03546Y038454D01*
X035447Y03835D01*
X03546Y038246D01*
X035501Y038148D01*
X035565Y038065D01*
X035648Y038001D01*
X035746Y03796D01*
X03585Y037947D01*
X035954Y03796D01*
X035983Y037972D01*
X037677Y036277D01*
X037734Y03624D01*
X0378Y036227D01*
X040628D01*
X040855Y036D01*
X040808Y035905D01*
X04075Y035913D01*
X040652Y0359D01*
X04056Y035862D01*
X040482Y035802D01*
X040422Y035724D01*
X040384Y035632D01*
X040371Y035534D01*
X040384Y035436D01*
X040422Y035345D01*
X040482Y035266D01*
X04056Y035206D01*
X040652Y035168D01*
X04075Y035155D01*
X040848Y035168D01*
X040939Y035206D01*
X041017Y035266D01*
X041078Y035345D01*
X041116Y035436D01*
X041128Y035534D01*
X041121Y035593D01*
X041215Y035639D01*
X043547Y033308D01*
X043547Y033303D01*
X043479Y033214D01*
X043436Y033111D01*
X043421Y033D01*
X043436Y032889D01*
X043479Y032786D01*
X043547Y032697D01*
X043636Y032629D01*
X043739Y032586D01*
X04385Y032571D01*
X04405D01*
X044161Y032586D01*
X044264Y032629D01*
X044353Y032697D01*
X044421Y032786D01*
X044464Y032889D01*
X044479Y033D01*
X044464Y033111D01*
X044421Y033214D01*
X044353Y033303D01*
X044264Y033371D01*
X044161Y033414D01*
X04405Y033429D01*
X043962D01*
X04393Y033471D01*
X04398Y033571D01*
X04405D01*
X044161Y033586D01*
X044264Y033629D01*
X044353Y033697D01*
X044421Y033786D01*
X044464Y033889D01*
X044479Y034D01*
X044464Y034111D01*
X044421Y034214D01*
X044353Y034303D01*
X044264Y034371D01*
X044161Y034414D01*
X04405Y034429D01*
X04385D01*
X043739Y034414D01*
X043636Y034371D01*
X043547Y034303D01*
X043479Y034214D01*
X043436Y034111D01*
X043429Y034058D01*
X043323Y034022D01*
X040823Y036523D01*
X040766Y03656D01*
X0407Y036573D01*
X037872D01*
X036228Y038217D01*
X03624Y038246D01*
X036253Y03835D01*
X03624Y038454D01*
X036199Y038552D01*
X036135Y038635D01*
X036052Y038699D01*
X035954Y03874D01*
X03585Y038753D01*
D02*
G37*
G36*
X04405Y036429D02*
X04385D01*
X043739Y036414D01*
X043636Y036371D01*
X043547Y036303D01*
X043479Y036214D01*
X043436Y036111D01*
X043421Y036D01*
X043436Y035889D01*
X043479Y035786D01*
X043547Y035697D01*
X043636Y035629D01*
X043739Y035586D01*
X04385Y035571D01*
X04405D01*
X044161Y035586D01*
X044264Y035629D01*
X044353Y035697D01*
X044421Y035786D01*
X044464Y035889D01*
X044479Y036D01*
X044464Y036111D01*
X044421Y036214D01*
X044353Y036303D01*
X044264Y036371D01*
X044161Y036414D01*
X04405Y036429D01*
D02*
G37*
G36*
X03585Y039753D02*
X035746Y03974D01*
X035648Y039699D01*
X035565Y039635D01*
X035501Y039552D01*
X03546Y039454D01*
X035447Y03935D01*
X03546Y039246D01*
X035501Y039148D01*
X035565Y039065D01*
X035648Y039001D01*
X035746Y03896D01*
X03585Y038947D01*
X035954Y03896D01*
X035983Y038972D01*
X037327Y037627D01*
X037384Y03759D01*
X03745Y037577D01*
X040628D01*
X043327Y034877D01*
X043384Y03484D01*
X04345Y034827D01*
X043462D01*
X043479Y034786D01*
X043547Y034697D01*
X043636Y034629D01*
X043739Y034586D01*
X04385Y034571D01*
X04405D01*
X044161Y034586D01*
X044264Y034629D01*
X044353Y034697D01*
X044421Y034786D01*
X044464Y034889D01*
X044479Y035D01*
X044464Y035111D01*
X044421Y035214D01*
X044353Y035303D01*
X044264Y035371D01*
X044161Y035414D01*
X04405Y035429D01*
X04385D01*
X043739Y035414D01*
X043636Y035371D01*
X043547Y035303D01*
X043526Y035276D01*
X043426Y035269D01*
X040823Y037873D01*
X040766Y03791D01*
X0407Y037923D01*
X037522D01*
X036228Y039217D01*
X03624Y039246D01*
X036253Y03935D01*
X03624Y039454D01*
X036199Y039552D01*
X036135Y039635D01*
X036052Y039699D01*
X035954Y03974D01*
X03585Y039753D01*
D02*
G37*
G36*
X02985Y033159D02*
X029757Y033147D01*
X029671Y033111D01*
X029596Y033054D01*
X029539Y032979D01*
X029503Y032893D01*
X029491Y0328D01*
X029503Y032707D01*
X029539Y032621D01*
X029596Y032546D01*
X029671Y032489D01*
X029757Y032453D01*
X02985Y032441D01*
X029943Y032453D01*
X030029Y032489D01*
X030104Y032546D01*
X030161Y032621D01*
X030197Y032707D01*
X030209Y0328D01*
X030197Y032893D01*
X030161Y032979D01*
X030104Y033054D01*
X030029Y033111D01*
X029943Y033147D01*
X02985Y033159D01*
D02*
G37*
G36*
X02885D02*
X028757Y033147D01*
X028671Y033111D01*
X028596Y033054D01*
X028539Y032979D01*
X028503Y032893D01*
X028491Y0328D01*
X028503Y032707D01*
X028539Y032621D01*
X028596Y032546D01*
X028671Y032489D01*
X028757Y032453D01*
X02885Y032441D01*
X028943Y032453D01*
X029029Y032489D01*
X029104Y032546D01*
X029161Y032621D01*
X029197Y032707D01*
X029209Y0328D01*
X029197Y032893D01*
X029161Y032979D01*
X029104Y033054D01*
X029029Y033111D01*
X028943Y033147D01*
X02885Y033159D01*
D02*
G37*
G36*
X02785D02*
X027757Y033147D01*
X027671Y033111D01*
X027596Y033054D01*
X027539Y032979D01*
X027503Y032893D01*
X027491Y0328D01*
X027503Y032707D01*
X027539Y032621D01*
X027596Y032546D01*
X027671Y032489D01*
X027757Y032453D01*
X02785Y032441D01*
X027943Y032453D01*
X028029Y032489D01*
X028104Y032546D01*
X028161Y032621D01*
X028197Y032707D01*
X028209Y0328D01*
X028197Y032893D01*
X028161Y032979D01*
X028104Y033054D01*
X028029Y033111D01*
X027943Y033147D01*
X02785Y033159D01*
D02*
G37*
G36*
X02685D02*
X026757Y033147D01*
X026671Y033111D01*
X026596Y033054D01*
X026539Y032979D01*
X026503Y032893D01*
X026491Y0328D01*
X026503Y032707D01*
X026539Y032621D01*
X026596Y032546D01*
X026671Y032489D01*
X026757Y032453D01*
X02685Y032441D01*
X026943Y032453D01*
X027029Y032489D01*
X027104Y032546D01*
X027161Y032621D01*
X027197Y032707D01*
X027209Y0328D01*
X027197Y032893D01*
X027161Y032979D01*
X027104Y033054D01*
X027029Y033111D01*
X026943Y033147D01*
X02685Y033159D01*
D02*
G37*
G36*
X044475Y032425D02*
X043425D01*
Y031575D01*
X044475D01*
Y032425D01*
D02*
G37*
G36*
X02985Y030159D02*
X029757Y030147D01*
X029671Y030111D01*
X029596Y030054D01*
X029539Y029979D01*
X029503Y029893D01*
X029491Y0298D01*
X029503Y029707D01*
X029539Y029621D01*
X029596Y029546D01*
X029671Y029489D01*
X029757Y029453D01*
X02985Y029441D01*
X029943Y029453D01*
X030029Y029489D01*
X030104Y029546D01*
X030161Y029621D01*
X030197Y029707D01*
X030209Y0298D01*
X030197Y029893D01*
X030161Y029979D01*
X030104Y030054D01*
X030029Y030111D01*
X029943Y030147D01*
X02985Y030159D01*
D02*
G37*
G36*
X02885D02*
X028757Y030147D01*
X028671Y030111D01*
X028596Y030054D01*
X028539Y029979D01*
X028503Y029893D01*
X028491Y0298D01*
X028503Y029707D01*
X028539Y029621D01*
X028596Y029546D01*
X028671Y029489D01*
X028757Y029453D01*
X02885Y029441D01*
X028943Y029453D01*
X029029Y029489D01*
X029104Y029546D01*
X029161Y029621D01*
X029197Y029707D01*
X029209Y0298D01*
X029197Y029893D01*
X029161Y029979D01*
X029104Y030054D01*
X029029Y030111D01*
X028943Y030147D01*
X02885Y030159D01*
D02*
G37*
G36*
X02785D02*
X027757Y030147D01*
X027671Y030111D01*
X027596Y030054D01*
X027539Y029979D01*
X027503Y029893D01*
X027491Y0298D01*
X027503Y029707D01*
X027539Y029621D01*
X027596Y029546D01*
X027671Y029489D01*
X027757Y029453D01*
X02785Y029441D01*
X027943Y029453D01*
X028029Y029489D01*
X028104Y029546D01*
X028161Y029621D01*
X028197Y029707D01*
X028209Y0298D01*
X028197Y029893D01*
X028161Y029979D01*
X028104Y030054D01*
X028029Y030111D01*
X027943Y030147D01*
X02785Y030159D01*
D02*
G37*
G36*
X02685D02*
X026757Y030147D01*
X026671Y030111D01*
X026596Y030054D01*
X026539Y029979D01*
X026503Y029893D01*
X026491Y0298D01*
X026503Y029707D01*
X026539Y029621D01*
X026596Y029546D01*
X026671Y029489D01*
X026757Y029453D01*
X02685Y029441D01*
X026943Y029453D01*
X027029Y029489D01*
X027104Y029546D01*
X027161Y029621D01*
X027197Y029707D01*
X027209Y0298D01*
X027197Y029893D01*
X027161Y029979D01*
X027104Y030054D01*
X027029Y030111D01*
X026943Y030147D01*
X02685Y030159D01*
D02*
G37*
G36*
X01195Y03018D02*
X011806Y030161D01*
X011673Y030105D01*
X011558Y030017D01*
X01147Y029902D01*
X011414Y029769D01*
X011395Y029625D01*
X011414Y029481D01*
X01147Y029348D01*
X011558Y029233D01*
X011673Y029145D01*
X011806Y029089D01*
X01195Y02907D01*
X012094Y029089D01*
X012227Y029145D01*
X012342Y029233D01*
X01243Y029348D01*
X012486Y029481D01*
X012505Y029625D01*
X012486Y029769D01*
X01243Y029902D01*
X012342Y030017D01*
X012227Y030105D01*
X012094Y030161D01*
X01195Y03018D01*
D02*
G37*
G36*
X03945Y033945D02*
X039352Y033932D01*
X039261Y033894D01*
X039183Y033834D01*
X039122Y033755D01*
X039084Y033664D01*
X039072Y033566D01*
X039084Y033468D01*
X039122Y033376D01*
X039183Y033298D01*
X039261Y033238D01*
X039272Y033233D01*
Y02969D01*
X03828Y028698D01*
X038224Y028721D01*
X03812Y028735D01*
X038017Y028721D01*
X037921Y028681D01*
X037839Y028618D01*
X037775Y028535D01*
X037735Y028439D01*
X037722Y028336D01*
X037735Y028233D01*
X037775Y028136D01*
X037839Y028054D01*
X037921Y027991D01*
X038017Y027951D01*
X03812Y027937D01*
X038224Y027951D01*
X03832Y027991D01*
X038402Y028054D01*
X038466Y028136D01*
X038506Y028233D01*
X038519Y028336D01*
X038508Y028421D01*
X039577Y02949D01*
X039577Y02949D01*
X039615Y029547D01*
X039629Y029616D01*
X039629Y029616D01*
Y033233D01*
X03964Y033238D01*
X039718Y033298D01*
X039778Y033376D01*
X039816Y033468D01*
X039829Y033566D01*
X039816Y033664D01*
X039778Y033755D01*
X039718Y033834D01*
X03964Y033894D01*
X039548Y033932D01*
X03945Y033945D01*
D02*
G37*
G36*
X044546Y028735D02*
X044443Y028721D01*
X044347Y028681D01*
X044264Y028618D01*
X044201Y028535D01*
X044161Y028439D01*
X044147Y028336D01*
X044161Y028233D01*
X044201Y028136D01*
X044264Y028054D01*
X044347Y027991D01*
X044443Y027951D01*
X044546Y027937D01*
X044649Y027951D01*
X044745Y027991D01*
X044828Y028054D01*
X044891Y028136D01*
X044931Y028233D01*
X044945Y028336D01*
X044931Y028439D01*
X044891Y028535D01*
X044828Y028618D01*
X044745Y028681D01*
X044649Y028721D01*
X044546Y028735D01*
D02*
G37*
G36*
X04075Y033945D02*
X040652Y033932D01*
X04056Y033894D01*
X040482Y033834D01*
X040422Y033755D01*
X040384Y033664D01*
X040371Y033566D01*
X040384Y033468D01*
X040422Y033376D01*
X040482Y033298D01*
X04056Y033238D01*
X040571Y033233D01*
Y029573D01*
X040585Y029505D01*
X040623Y029447D01*
X041611Y02846D01*
X041602Y028439D01*
X041588Y028336D01*
X041602Y028233D01*
X041642Y028136D01*
X041705Y028054D01*
X041788Y027991D01*
X041884Y027951D01*
X041987Y027937D01*
X04209Y027951D01*
X042186Y027991D01*
X042269Y028054D01*
X042332Y028136D01*
X042372Y028233D01*
X042386Y028336D01*
X042372Y028439D01*
X042332Y028535D01*
X042269Y028618D01*
X042186Y028681D01*
X04209Y028721D01*
X041987Y028735D01*
X041884Y028721D01*
X041863Y028712D01*
X040928Y029647D01*
Y033233D01*
X040939Y033238D01*
X041017Y033298D01*
X041078Y033376D01*
X041116Y033468D01*
X041128Y033566D01*
X041116Y033664D01*
X041078Y033755D01*
X041017Y033834D01*
X040939Y033894D01*
X040848Y033932D01*
X04075Y033945D01*
D02*
G37*
G36*
X04068Y028735D02*
X040576Y028721D01*
X04048Y028681D01*
X040398Y028618D01*
X040334Y028535D01*
X040294Y028439D01*
X040281Y028336D01*
X040294Y028233D01*
X040334Y028136D01*
X040398Y028054D01*
X04048Y027991D01*
X040576Y027951D01*
X04068Y027937D01*
X040783Y027951D01*
X040879Y027991D01*
X040961Y028054D01*
X041025Y028136D01*
X041065Y028233D01*
X041078Y028336D01*
X041065Y028439D01*
X041025Y028535D01*
X040961Y028618D01*
X040879Y028681D01*
X040783Y028721D01*
X04068Y028735D01*
D02*
G37*
G36*
X03678D02*
X036676Y028721D01*
X03658Y028681D01*
X036498Y028618D01*
X036434Y028535D01*
X036394Y028439D01*
X036381Y028336D01*
X036394Y028233D01*
X036434Y028136D01*
X036498Y028054D01*
X03658Y027991D01*
X036676Y027951D01*
X03678Y027937D01*
X036883Y027951D01*
X036979Y027991D01*
X037061Y028054D01*
X037125Y028136D01*
X037165Y028233D01*
X037178Y028336D01*
X037165Y028439D01*
X037125Y028535D01*
X037061Y028618D01*
X036979Y028681D01*
X036883Y028721D01*
X03678Y028735D01*
D02*
G37*
G36*
X0251Y03711D02*
X025033Y037101D01*
X02497Y037075D01*
X024916Y037034D01*
X024875Y03698D01*
X024849Y036917D01*
X02484Y03685D01*
X024849Y036783D01*
X024875Y03672D01*
X024916Y036666D01*
X024922Y036662D01*
Y036D01*
X024927Y035974D01*
Y03315D01*
X02494Y033084D01*
X024977Y033027D01*
X027427Y030577D01*
X027484Y03054D01*
X02755Y030527D01*
X031785D01*
X033846Y028465D01*
X033835Y028439D01*
X033822Y028336D01*
X033835Y028233D01*
X033875Y028136D01*
X033939Y028054D01*
X034021Y027991D01*
X034117Y027951D01*
X03422Y027937D01*
X034324Y027951D01*
X03442Y027991D01*
X034502Y028054D01*
X034566Y028136D01*
X034606Y028233D01*
X034619Y028336D01*
X034606Y028439D01*
X034566Y028535D01*
X034502Y028618D01*
X03442Y028681D01*
X034324Y028721D01*
X03422Y028735D01*
X034117Y028721D01*
X034091Y02871D01*
X031979Y030823D01*
X031923Y03086D01*
X031856Y030873D01*
X027622D01*
X025273Y033222D01*
Y035974D01*
X025278Y036D01*
Y036662D01*
X025284Y036666D01*
X025325Y03672D01*
X025351Y036783D01*
X02536Y03685D01*
X025351Y036917D01*
X025325Y03698D01*
X025284Y037034D01*
X02523Y037075D01*
X025167Y037101D01*
X0251Y03711D01*
D02*
G37*
G36*
X01795Y02493D02*
X017806Y024911D01*
X017673Y024855D01*
X017558Y024767D01*
X01747Y024652D01*
X017414Y024519D01*
X017395Y024375D01*
X017414Y024231D01*
X01747Y024098D01*
X017558Y023983D01*
X017673Y023895D01*
X017806Y023839D01*
X01795Y02382D01*
X018094Y023839D01*
X018227Y023895D01*
X018342Y023983D01*
X01843Y024098D01*
X018486Y024231D01*
X018505Y024375D01*
X018486Y024519D01*
X01843Y024652D01*
X018342Y024767D01*
X018227Y024855D01*
X018094Y024911D01*
X01795Y02493D01*
D02*
G37*
G36*
X01195D02*
X011806Y024911D01*
X011673Y024855D01*
X011558Y024767D01*
X01147Y024652D01*
X011414Y024519D01*
X011395Y024375D01*
X011414Y024231D01*
X01147Y024098D01*
X011558Y023983D01*
X011673Y023895D01*
X011806Y023839D01*
X01195Y02382D01*
X012094Y023839D01*
X012227Y023895D01*
X012342Y023983D01*
X01243Y024098D01*
X012486Y024231D01*
X012505Y024375D01*
X012486Y024519D01*
X01243Y024652D01*
X012342Y024767D01*
X012227Y024855D01*
X012094Y024911D01*
X01195Y02493D01*
D02*
G37*
G36*
X0162Y024454D02*
X016083Y024438D01*
X015973Y024393D01*
X015879Y024321D01*
X015807Y024227D01*
X015762Y024117D01*
X015746Y024D01*
X015762Y023883D01*
X015807Y023773D01*
X015879Y023679D01*
X015973Y023607D01*
X016083Y023562D01*
X0162Y023546D01*
X016317Y023562D01*
X016427Y023607D01*
X016521Y023679D01*
X016593Y023773D01*
X016638Y023883D01*
X016654Y024D01*
X016638Y024117D01*
X016593Y024227D01*
X016521Y024321D01*
X016427Y024393D01*
X016317Y024438D01*
X0162Y024454D01*
D02*
G37*
G36*
X0137D02*
X013583Y024438D01*
X013473Y024393D01*
X013379Y024321D01*
X013307Y024227D01*
X013262Y024117D01*
X013246Y024D01*
X013262Y023883D01*
X013307Y023773D01*
X013379Y023679D01*
X013473Y023607D01*
X013583Y023562D01*
X0137Y023546D01*
X013817Y023562D01*
X013927Y023607D01*
X014021Y023679D01*
X014093Y023773D01*
X014138Y023883D01*
X014154Y024D01*
X014138Y024117D01*
X014093Y024227D01*
X014021Y024321D01*
X013927Y024393D01*
X013817Y024438D01*
X0137Y024454D01*
D02*
G37*
G36*
X0162Y022454D02*
X016083Y022438D01*
X015973Y022393D01*
X015879Y022321D01*
X015807Y022227D01*
X015762Y022117D01*
X015746Y022D01*
X015762Y021883D01*
X015807Y021773D01*
X015879Y021679D01*
X015973Y021607D01*
X016083Y021562D01*
X0162Y021546D01*
X016317Y021562D01*
X016427Y021607D01*
X016521Y021679D01*
X016593Y021773D01*
X016638Y021883D01*
X016654Y022D01*
X016638Y022117D01*
X016593Y022227D01*
X016521Y022321D01*
X016427Y022393D01*
X016317Y022438D01*
X0162Y022454D01*
D02*
G37*
G36*
X0137D02*
X013583Y022438D01*
X013473Y022393D01*
X013379Y022321D01*
X013307Y022227D01*
X013262Y022117D01*
X013246Y022D01*
X013262Y021883D01*
X013307Y021773D01*
X013379Y021679D01*
X013473Y021607D01*
X013583Y021562D01*
X0137Y021546D01*
X013817Y021562D01*
X013927Y021607D01*
X014021Y021679D01*
X014093Y021773D01*
X014138Y021883D01*
X014154Y022D01*
X014138Y022117D01*
X014093Y022227D01*
X014021Y022321D01*
X013927Y022393D01*
X013817Y022438D01*
X0137Y022454D01*
D02*
G37*
G36*
X04475Y022094D02*
X044595Y022079D01*
X044446Y022033D01*
X044309Y02196D01*
X044189Y021861D01*
X04409Y021741D01*
X044017Y021604D01*
X043971Y021455D01*
X043956Y0213D01*
X043971Y021145D01*
X044017Y020996D01*
X04409Y020859D01*
X044189Y020739D01*
X044309Y02064D01*
X044446Y020567D01*
X044595Y020521D01*
X04475Y020506D01*
X044905Y020521D01*
X045054Y020567D01*
X045191Y02064D01*
X045311Y020739D01*
X04541Y020859D01*
X045483Y020996D01*
X045529Y021145D01*
X045544Y0213D01*
X045529Y021455D01*
X045483Y021604D01*
X04541Y021741D01*
X045311Y021861D01*
X045191Y02196D01*
X045054Y022033D01*
X044905Y022079D01*
X04475Y022094D01*
D02*
G37*
G36*
X0113D02*
X011145Y022079D01*
X010996Y022033D01*
X010859Y02196D01*
X010739Y021861D01*
X01064Y021741D01*
X010567Y021604D01*
X010521Y021455D01*
X010506Y0213D01*
X010521Y021145D01*
X010567Y020996D01*
X01064Y020859D01*
X010739Y020739D01*
X010859Y02064D01*
X010996Y020567D01*
X011145Y020521D01*
X0113Y020506D01*
X011455Y020521D01*
X011604Y020567D01*
X011741Y02064D01*
X011861Y020739D01*
X01196Y020859D01*
X012033Y020996D01*
X012079Y021145D01*
X012094Y0213D01*
X012079Y021455D01*
X012033Y021604D01*
X01196Y021741D01*
X011861Y021861D01*
X011741Y02196D01*
X011604Y022033D01*
X011455Y022079D01*
X0113Y022094D01*
D02*
G37*
%LPD*%
G36*
X034112Y04515D02*
X034036Y045146D01*
X033968Y045134D01*
X033908Y045114D01*
X033856Y045086D01*
X033812Y04505D01*
X033776Y045006D01*
X033748Y044954D01*
X033728Y044894D01*
X033716Y044826D01*
X033712Y04475D01*
X033312D01*
X033308Y044826D01*
X033296Y044894D01*
X033276Y044954D01*
X033248Y045006D01*
X033212Y04505D01*
X033168Y045086D01*
X033116Y045114D01*
X033056Y045134D01*
X032988Y045146D01*
X032912Y04515D01*
X033512Y04555D01*
X034112Y04515D01*
D02*
G37*
G36*
X033716Y040874D02*
X033728Y040806D01*
X033748Y040746D01*
X033776Y040694D01*
X033812Y04065D01*
X033856Y040614D01*
X033908Y040586D01*
X033968Y040566D01*
X034036Y040554D01*
X034112Y04055D01*
Y04015D01*
X034036Y040146D01*
X033968Y040134D01*
X033908Y040114D01*
X033856Y040086D01*
X033812Y04005D01*
X033776Y040006D01*
X033748Y039954D01*
X033728Y039894D01*
X033716Y039826D01*
X033712Y03975D01*
X033312Y04035D01*
X033712Y04095D01*
X033716Y040874D01*
D02*
G37*
G36*
X016909Y032808D02*
X016919Y032749D01*
X016937Y032696D01*
X016961Y032651D01*
X016992Y032613D01*
X017031Y032581D01*
X017076Y032557D01*
X017129Y032539D01*
X017189Y032529D01*
X017255Y032525D01*
X01673Y032175D01*
X016205Y032525D01*
X016272Y032529D01*
X016331Y032539D01*
X016384Y032557D01*
X016429Y032581D01*
X016467Y032613D01*
X016499Y032651D01*
X016523Y032696D01*
X016541Y032749D01*
X016552Y032808D01*
X016555Y032875D01*
X016905D01*
X016909Y032808D01*
D02*
G37*
G36*
X016455Y035962D02*
X016453Y03594D01*
Y03287D01*
X01645Y03282D01*
X016442Y032774D01*
X016436Y032758D01*
X01635Y032725D01*
X01635Y032725D01*
X01565D01*
Y031975D01*
X015673D01*
Y031354D01*
X015629Y031321D01*
X015557Y031227D01*
X015512Y031117D01*
X015505Y031065D01*
X0155Y031033D01*
X0154D01*
X015395Y031065D01*
X015388Y031117D01*
X015343Y031227D01*
X015271Y031321D01*
X015177Y031393D01*
X015067Y031438D01*
X01495Y031454D01*
X014833Y031438D01*
X014723Y031393D01*
X014629Y031321D01*
X014557Y031227D01*
X014512Y031117D01*
X014496Y031D01*
X014512Y030883D01*
X014532Y030834D01*
X014126Y030428D01*
X013724D01*
X013328Y030824D01*
Y032976D01*
X016361Y036008D01*
X016455Y035962D01*
D02*
G37*
D15*
X0142Y03025D02*
X01495Y031D01*
X01365Y03025D02*
X0142D01*
X01315Y03305D02*
X01722Y03712D01*
X01315Y03075D02*
Y03305D01*
Y03075D02*
X01365Y03025D01*
X01722Y03712D02*
X0176D01*
X03812Y028286D02*
X03945Y029616D01*
X01985Y0411D02*
X0206Y04035D01*
Y03712D02*
Y04035D01*
X01861Y03712D02*
Y03958D01*
X0251Y036D02*
Y03685D01*
X04075Y029573D02*
X041987Y028336D01*
X04075Y029573D02*
Y033566D01*
X03945Y029616D02*
Y033566D01*
D21*
X01959Y03594D02*
X02028Y03525D01*
X01959Y03594D02*
Y03712D01*
X02028Y02833D02*
Y03525D01*
X0171Y04109D02*
X01861Y03958D01*
X0251Y03315D02*
Y036D01*
Y03315D02*
X02755Y0307D01*
X0337Y0342D02*
X0391D01*
X03015Y03775D02*
X0337Y0342D01*
X01895Y027D02*
X02028Y02833D01*
X04025Y03505D02*
X04075Y03455D01*
X0389Y03505D02*
X04025D01*
X0385Y03465D02*
X0389Y03505D01*
X033937Y03465D02*
X0385D01*
X030737Y03785D02*
X033937Y03465D01*
X0391Y0342D02*
X03945Y03455D01*
X04395Y033D02*
Y03315D01*
X0407Y0364D02*
X04395Y03315D01*
X0378Y0364D02*
X0407D01*
X03585Y03835D02*
X0378Y0364D01*
X04345Y035D02*
X04395D01*
X0407Y03775D02*
X04345Y035D01*
X03745Y03775D02*
X0407D01*
X03585Y03935D02*
X03745Y03775D01*
X03585Y03735D02*
X03645Y03675D01*
Y0362D02*
Y03675D01*
X0361Y03585D02*
X03645Y0362D01*
X03425Y03585D02*
X0361D01*
X03265Y03745D02*
X03425Y03585D01*
X03175Y03745D02*
X03265D01*
X03405Y03535D02*
X03585D01*
X0325Y0369D02*
X03405Y03535D01*
X03575Y04445D02*
X03585Y04435D01*
X03445Y04445D02*
X03575D01*
X031856Y0307D02*
X03422Y028336D01*
X02755Y0307D02*
X031856D01*
D22*
X03445Y04445D02*
D03*
Y04535D02*
D03*
D23*
X0198Y02985D02*
D03*
X0189D02*
D03*
X0151Y03235D02*
D03*
X016D02*
D03*
D62*
X022352Y043152D02*
X028507D01*
X028508Y04315D02*
X02995D01*
X033512Y04535D02*
X03445D01*
X03215D02*
X033512D01*
Y04035D02*
Y04535D01*
Y038688D02*
Y04035D01*
Y038688D02*
X03585Y03635D01*
X033512Y04035D02*
X03585D01*
X02995Y04315D02*
X03215Y04535D01*
X01595Y031D02*
X016Y03105D01*
X03445Y04535D02*
X03585D01*
D63*
X02235Y04315D02*
X022352Y043152D01*
X028507D02*
X028508Y04315D01*
X028507Y043152D02*
Y0447D01*
D64*
X01673Y03235D02*
Y03594D01*
X01595Y0323D02*
X016Y03235D01*
X01595Y031D02*
Y0323D01*
X01673Y03235D02*
X01795D01*
X016D02*
X01673D01*
X0182Y02855D02*
X0189Y02925D01*
X0182Y02645D02*
Y02855D01*
Y02645D02*
X01865Y026D01*
X01895D01*
X0189Y02925D02*
Y02985D01*
Y0314D01*
X01795Y03235D02*
X0189Y0314D01*
D65*
X01395Y031D02*
Y03195D01*
X01435Y03235D01*
X0151D01*
X0198Y02885D02*
Y02985D01*
X01895Y028D02*
X0198Y02885D01*
D68*
X01465Y04475D02*
D03*
Y04725D02*
D03*
D69*
X01265Y04575D02*
D03*
D70*
X03422Y028336D02*
D03*
Y026564D02*
D03*
X03678Y028336D02*
D03*
Y026564D02*
D03*
X03812Y028336D02*
D03*
Y026564D02*
D03*
X04068Y028336D02*
D03*
Y026564D02*
D03*
X044546D02*
D03*
Y028336D02*
D03*
X041987Y026564D02*
D03*
Y028336D02*
D03*
D71*
X02885Y0298D02*
D03*
X02785D02*
D03*
X02685D02*
D03*
X02985D02*
D03*
Y0328D02*
D03*
X02885D02*
D03*
X02785D02*
D03*
X02685D02*
D03*
D72*
X04395Y036D02*
D03*
Y033D02*
D03*
Y034D02*
D03*
Y035D02*
D03*
Y037D02*
D03*
D73*
Y032D02*
D03*
D74*
X04075Y033566D02*
D03*
Y03455D02*
D03*
Y035534D02*
D03*
X03945Y033566D02*
D03*
Y03455D02*
D03*
Y035534D02*
D03*
D75*
X0389Y04614D02*
D03*
X04065Y04615D02*
D03*
X01985Y04211D02*
D03*
Y04309D02*
D03*
X0171Y0421D02*
D03*
Y04308D02*
D03*
D76*
X0389Y04715D02*
D03*
X04065Y04716D02*
D03*
X01985Y0411D02*
D03*
X0171Y04109D02*
D03*
D77*
X03189Y04765D02*
D03*
X0329D02*
D03*
X03388D02*
D03*
X03489D02*
D03*
X0206Y03712D02*
D03*
X01959D02*
D03*
X01861D02*
D03*
X0176D02*
D03*
D78*
X0148Y04175D02*
D03*
D79*
Y04275D02*
D03*
D80*
X010884Y03712D02*
D03*
X011884D02*
D03*
X012884D02*
D03*
X013884D02*
D03*
X014884D02*
D03*
X015884D02*
D03*
X0377Y0389D02*
D03*
X0387D02*
D03*
X0397D02*
D03*
X0407D02*
D03*
X0417D02*
D03*
X0427D02*
D03*
X0437D02*
D03*
X0447D02*
D03*
D81*
X03585Y04535D02*
D03*
Y04435D02*
D03*
Y04335D02*
D03*
Y04235D02*
D03*
Y04135D02*
D03*
Y04035D02*
D03*
Y03935D02*
D03*
Y03835D02*
D03*
Y03735D02*
D03*
Y03635D02*
D03*
Y03535D02*
D03*
D82*
X0116Y041472D02*
D03*
D83*
Y04285D02*
D03*
D84*
X01895Y028D02*
D03*
Y027D02*
D03*
Y026D02*
D03*
X01395Y031D02*
D03*
X01495D02*
D03*
X01595D02*
D03*
X0137Y024D02*
D03*
X0162D02*
D03*
X0137Y022D02*
D03*
X0162D02*
D03*
D85*
X01195Y024375D02*
D03*
Y029625D02*
D03*
X01795D02*
D03*
Y024375D02*
D03*
D86*
X0113Y0213D02*
D03*
X04475D02*
D03*
Y04835D02*
D03*
X0113D02*
D03*
D87*
X02895Y0477D02*
D03*
X0279Y0487D02*
D03*
X0294Y0452D02*
D03*
X017875Y042664D02*
D03*
X012482Y042062D02*
D03*
X011137Y040843D02*
D03*
X012211Y03938D02*
D03*
X01323Y040882D02*
D03*
X015773Y04109D02*
D03*
X018617Y041536D02*
D03*
X0149Y0486D02*
D03*
X02345Y0442D02*
D03*
X02785Y0452D02*
D03*
Y04655D02*
D03*
X0267Y0441D02*
D03*
X028507Y0447D02*
D03*
X0183Y0483D02*
D03*
X02595Y048135D02*
D03*
X017326Y045644D02*
D03*
X014066Y04385D02*
D03*
X01588D02*
D03*
X017695D02*
D03*
X01285Y0383D02*
D03*
X0225Y041339D02*
D03*
X0213Y04015D02*
D03*
X029373Y0346D02*
D03*
X028377D02*
D03*
X0273D02*
D03*
X02779Y036856D02*
D03*
X02834Y037783D02*
D03*
X04495Y044D02*
D03*
Y04D02*
D03*
X04395Y038D02*
D03*
X04495Y036D02*
D03*
X04395Y03D02*
D03*
X04495Y024D02*
D03*
X04395Y022D02*
D03*
X04295Y048D02*
D03*
X04195Y046D02*
D03*
X04295Y044D02*
D03*
Y04D02*
D03*
X04195Y038D02*
D03*
Y034D02*
D03*
Y03D02*
D03*
X04295Y024D02*
D03*
X04195Y022D02*
D03*
X03995Y046D02*
D03*
X04095Y044D02*
D03*
X03995Y034D02*
D03*
Y03D02*
D03*
X04095Y024D02*
D03*
X03995Y022D02*
D03*
X03895Y048D02*
D03*
Y044D02*
D03*
Y036D02*
D03*
X03795Y03D02*
D03*
X03895Y024D02*
D03*
X03795Y022D02*
D03*
X03695Y048D02*
D03*
Y044D02*
D03*
Y04D02*
D03*
Y036D02*
D03*
Y024D02*
D03*
X03595Y022D02*
D03*
X03495Y044D02*
D03*
Y032D02*
D03*
X03395Y03D02*
D03*
X03495Y024D02*
D03*
X03395Y022D02*
D03*
X03195Y038D02*
D03*
Y034D02*
D03*
X03295Y032D02*
D03*
X03195Y03D02*
D03*
X03295Y028D02*
D03*
X03195Y026D02*
D03*
X03295Y024D02*
D03*
X03195Y022D02*
D03*
X02995Y046D02*
D03*
Y042D02*
D03*
X03095Y036D02*
D03*
Y032D02*
D03*
X02995Y022D02*
D03*
X02895Y044D02*
D03*
Y032D02*
D03*
X02795Y022D02*
D03*
X02595Y042D02*
D03*
X02695Y036D02*
D03*
X02595Y034D02*
D03*
X02695Y032D02*
D03*
X02595Y03D02*
D03*
Y022D02*
D03*
X02395Y046D02*
D03*
Y034D02*
D03*
X02495Y032D02*
D03*
X02395Y03D02*
D03*
X02495Y028D02*
D03*
X02395Y026D02*
D03*
X02495Y024D02*
D03*
X02395Y022D02*
D03*
X02295Y048D02*
D03*
X02195Y034D02*
D03*
X02295Y032D02*
D03*
X02195Y03D02*
D03*
X02295Y028D02*
D03*
X02195Y026D02*
D03*
X02295Y024D02*
D03*
X02195Y022D02*
D03*
X01995Y046D02*
D03*
Y038D02*
D03*
X02095Y032D02*
D03*
Y028D02*
D03*
Y024D02*
D03*
X01995Y022D02*
D03*
X01895Y044D02*
D03*
Y04D02*
D03*
X01795Y038D02*
D03*
Y034D02*
D03*
Y026D02*
D03*
X01895Y024D02*
D03*
X01795Y022D02*
D03*
X01595Y046D02*
D03*
X01695Y04D02*
D03*
X01595Y034D02*
D03*
Y03D02*
D03*
X01695Y028D02*
D03*
X01595Y026D02*
D03*
X01695Y024D02*
D03*
X01395Y046D02*
D03*
X01495Y04D02*
D03*
Y036D02*
D03*
Y028D02*
D03*
X01395Y026D02*
D03*
X01495Y024D02*
D03*
X01295Y048D02*
D03*
Y044D02*
D03*
Y04D02*
D03*
X01195Y034D02*
D03*
X01295Y028D02*
D03*
X01195Y026D02*
D03*
Y022D02*
D03*
X024074Y049547D02*
D03*
X024545Y047794D02*
D03*
X025088Y0462D02*
D03*
X02375Y0426D02*
D03*
X018993Y038989D02*
D03*
X018176Y031362D02*
D03*
X019654Y025902D02*
D03*
X019426Y029149D02*
D03*
X019439Y030964D02*
D03*
X018528Y032534D02*
D03*
X019153Y037911D02*
D03*
X02105Y0383D02*
D03*
X022216Y039553D02*
D03*
X024782Y04212D02*
D03*
X028211Y042422D02*
D03*
X02725Y039139D02*
D03*
X030114Y041119D02*
D03*
X032526Y046615D02*
D03*
X032785Y048411D02*
D03*
X0346D02*
D03*
X036415D02*
D03*
X03823D02*
D03*
X041351Y047937D02*
D03*
X042634Y046653D02*
D03*
X043918Y04537D02*
D03*
X043524Y04288D02*
D03*
X041709D02*
D03*
X039895D02*
D03*
X038133Y042445D02*
D03*
X037161Y040912D02*
D03*
X038239Y039452D02*
D03*
X041419Y041802D02*
D03*
X043234D02*
D03*
X045011Y041431D02*
D03*
Y037801D02*
D03*
Y034171D02*
D03*
Y032356D02*
D03*
X043543Y031289D02*
D03*
X041728D02*
D03*
X039913D02*
D03*
X038098D02*
D03*
X036638Y030211D02*
D03*
X038453D02*
D03*
X045588Y030826D02*
D03*
X046089Y03257D02*
D03*
Y034385D02*
D03*
Y0362D02*
D03*
Y038015D02*
D03*
Y03983D02*
D03*
Y041645D02*
D03*
Y04346D02*
D03*
X045603Y045209D02*
D03*
X04432Y046492D02*
D03*
X041753Y049059D02*
D03*
X03999Y049489D02*
D03*
X038175D02*
D03*
X03636D02*
D03*
X034545D02*
D03*
X03273D02*
D03*
X030938Y049201D02*
D03*
X030161Y04756D02*
D03*
X03005Y0442D02*
D03*
X028Y04405D02*
D03*
X02275Y0378D02*
D03*
X0236Y037042D02*
D03*
X0216Y038927D02*
D03*
X0228Y04015D02*
D03*
X034076Y041484D02*
D03*
X03594Y046936D02*
D03*
X035112Y045914D02*
D03*
X032482D02*
D03*
X031314Y045312D02*
D03*
X02551Y0441D02*
D03*
X026544Y045157D02*
D03*
X026549Y046472D02*
D03*
X02665Y047742D02*
D03*
X024215Y044864D02*
D03*
X022914Y045058D02*
D03*
X022434Y046282D02*
D03*
X021786Y045322D02*
D03*
Y043823D02*
D03*
Y042509D02*
D03*
X02115Y041431D02*
D03*
X014294Y038927D02*
D03*
X01432Y037613D02*
D03*
X015844Y036319D02*
D03*
X015449Y037632D02*
D03*
X015844Y038886D02*
D03*
X017159D02*
D03*
X0201Y039001D02*
D03*
X02285Y0426D02*
D03*
X027Y042635D02*
D03*
X029503Y04265D02*
D03*
X030743Y043145D02*
D03*
X031817Y0443D02*
D03*
X032947Y041769D02*
D03*
Y040454D02*
D03*
Y039139D02*
D03*
X033469Y037932D02*
D03*
X034399Y037003D02*
D03*
X0365Y040874D02*
D03*
X035262Y040914D02*
D03*
X034076Y042799D02*
D03*
X035207Y044786D02*
D03*
X03685Y046394D02*
D03*
X038142Y046637D02*
D03*
X016785Y047479D02*
D03*
X018307Y04697D02*
D03*
X0185Y0455D02*
D03*
X01985Y044814D02*
D03*
X02115Y045322D02*
D03*
X0205Y0463D02*
D03*
X01954Y047065D02*
D03*
X039Y040973D02*
D03*
X03835Y040976D02*
D03*
X039Y041635D02*
D03*
X01673Y03594D02*
D03*
X02235Y04315D02*
D03*
X02175Y037042D02*
D03*
X024444Y041672D02*
D03*
X028178Y041797D02*
D03*
X029322Y041807D02*
D03*
X0417Y036065D02*
D03*
X03775Y0372D02*
D03*
X03521Y037877D02*
D03*
X03488Y039192D02*
D03*
X04395Y0274D02*
D03*
X0426D02*
D03*
X0348D02*
D03*
X03616D02*
D03*
X03875D02*
D03*
X04D02*
D03*
X025592Y038635D02*
D03*
X025491Y0394D02*
D03*
X023536Y03865D02*
D03*
X0251Y03685D02*
D03*
X03015Y03775D02*
D03*
X028393Y038783D02*
D03*
X02515Y040015D02*
D03*
X030737Y03785D02*
D03*
X03175Y03745D02*
D03*
X0325Y0369D02*
D03*
M02*
