G04*
G04 #@! TF.GenerationSoftware,Altium Limited,Altium Designer,18.1.6 (161)*
G04*
G04 Layer_Color=65535*
%FSTAX24Y24*%
%MOIN*%
G70*
G01*
G75*
%ADD10C,0.0079*%
%ADD11C,0.0070*%
%ADD12C,0.0098*%
%ADD13C,0.0150*%
%ADD14C,0.0040*%
%ADD15C,0.0050*%
%ADD16C,0.0060*%
%ADD17C,0.0080*%
%ADD18C,0.0100*%
%ADD19C,0.0039*%
%ADD20C,0.0158*%
%ADD21C,0.0140*%
G36*
X04165Y04896D02*
X0414Y04921D01*
X0419D01*
X04165Y04896D01*
D02*
G37*
G36*
X03314Y04819D02*
X03264D01*
X03289Y04844D01*
X03314Y04819D01*
D02*
G37*
G36*
X04166Y04756D02*
X04141Y04781D01*
X04191D01*
X04166Y04756D01*
D02*
G37*
G36*
X03519Y04535D02*
X03494Y0451D01*
Y0456D01*
X03519Y04535D01*
D02*
G37*
G36*
X01495Y04346D02*
X01516Y04342D01*
X01549Y04327D01*
X01566Y04314D01*
X01579Y04299D01*
X01587Y0429D01*
X01514D01*
X01511Y04295D01*
X01508Y04299D01*
X01504Y04303D01*
X01499Y04307D01*
X01494Y0431D01*
X01486Y04312D01*
X01475D01*
X01465Y0431D01*
X0146Y04308D01*
X01455Y04304D01*
X01449Y04297D01*
X01444Y0429D01*
X01375D01*
X01387Y04306D01*
X01413Y04328D01*
X0145Y04342D01*
X0148Y043466D01*
X01495Y04346D01*
D02*
G37*
G36*
X01064Y04333D02*
X010653Y0433D01*
Y0423D01*
X01064Y04227D01*
X01061Y042257D01*
X01011D01*
X01008Y04227D01*
X010067Y0423D01*
Y0433D01*
X01008Y04333D01*
X01011Y043343D01*
X01061D01*
X01064Y04333D01*
D02*
G37*
G36*
X010658Y041978D02*
X010674Y04194D01*
Y04094D01*
X010658Y040902D01*
X01062Y040886D01*
X01012D01*
X010082Y040902D01*
X010066Y04094D01*
Y04194D01*
X010082Y041978D01*
X01012Y041994D01*
X01062D01*
X010658Y041978D01*
D02*
G37*
G36*
X020675Y040875D02*
X020425Y041125D01*
X020675Y041375D01*
Y040875D01*
D02*
G37*
G36*
X017925Y040865D02*
X017675Y041115D01*
X017925Y041365D01*
Y040865D01*
D02*
G37*
G36*
X02999Y038727D02*
X02989D01*
Y038877D01*
X02999D01*
Y038727D01*
D02*
G37*
G36*
X03795Y03794D02*
X03745D01*
X0377Y03819D01*
X03795Y03794D01*
D02*
G37*
G36*
X0206Y03768D02*
X02035Y03793D01*
X02085D01*
X0206Y03768D01*
D02*
G37*
G36*
X02681Y036423D02*
X02671Y036423D01*
Y036573D01*
X02681Y036573D01*
Y036423D01*
D02*
G37*
G36*
X011134Y03626D02*
X010634D01*
X010884Y03651D01*
X011134Y03626D01*
D02*
G37*
G36*
X04494Y03176D02*
X04469Y03201D01*
X04494Y03226D01*
Y03176D01*
D02*
G37*
G36*
X023247Y030226D02*
X023248Y030226D01*
X023323Y030218D01*
X023324Y030217D01*
X023324Y030217D01*
X023382Y030201D01*
X023383Y030201D01*
X023383Y030201D01*
X023458Y030176D01*
X023458Y030175D01*
X023459Y030175D01*
X023579Y030113D01*
X02358Y030113D01*
X02358Y030113D01*
X023688Y030042D01*
X023689Y03004D01*
X023691Y030039D01*
X023691Y030038D01*
X023691Y030038D01*
X023691Y030036D01*
X023691Y030034D01*
X023662Y029963D01*
X023661Y029963D01*
X023661Y029963D01*
X023611Y029859D01*
X023611Y029858D01*
X023611Y029858D01*
X023507Y029679D01*
X023506Y029679D01*
X023506Y029678D01*
X023444Y029611D01*
X023443Y029611D01*
X023443Y029611D01*
X023364Y029548D01*
X023364Y029548D01*
X023364Y029548D01*
X023314Y029511D01*
X023313Y02951D01*
X023312Y02951D01*
X023241Y02948D01*
X023241D01*
X023241Y02948D01*
X023128Y029447D01*
X023128Y029447D01*
X023127Y029447D01*
X022952Y029422D01*
X022952Y029422D01*
X022951Y029422D01*
X022805Y029426D01*
X022805Y029426D01*
X022804Y029426D01*
X022617Y029468D01*
X022616Y029468D01*
X022615Y029468D01*
X022449Y029547D01*
X022448Y029548D01*
X022448Y029548D01*
X022447Y029548D01*
X022447Y029548D01*
X022446Y02955D01*
X022445Y029551D01*
X022445Y029551D01*
X022445Y029552D01*
X022424Y02969D01*
X022425Y029692D01*
X022425Y029694D01*
X02245Y029736D01*
X02245Y029736D01*
X02245Y029736D01*
X022529Y029865D01*
X02253Y029865D01*
X02253Y029865D01*
X022646Y030015D01*
X022647Y030016D01*
X022648Y030017D01*
X022769Y030096D01*
X022769Y030096D01*
X022769Y030096D01*
X022831Y030129D01*
X022832Y03013D01*
X022903Y030167D01*
X022903Y030167D01*
X022904Y030167D01*
X02297Y030188D01*
X022971Y030188D01*
X022971Y030189D01*
X023062Y030214D01*
X023063Y030213D01*
X023064Y030214D01*
X023247Y030226D01*
X023247Y030226D01*
D02*
G37*
G36*
X02173Y030165D02*
X021731Y030165D01*
X021731Y030165D01*
X02181Y030148D01*
X021811Y030148D01*
X021811Y030148D01*
X021903Y03011D01*
X021903Y03011D01*
X021903Y03011D01*
X021974Y030076D01*
X021985Y030072D01*
X021985Y030072D01*
X021985Y030072D01*
X022006Y030061D01*
X022007Y030061D01*
X022007Y030061D01*
X022028Y03005D01*
X022028Y03005D01*
X022028Y03005D01*
X022048Y030037D01*
X022048Y030037D01*
X022048Y030037D01*
X022058Y03003D01*
X022058Y03003D01*
X022059Y03003D01*
X022147Y029958D01*
X022147Y029958D01*
X022148Y029958D01*
X022218Y029888D01*
X022218Y029887D01*
X022218Y029887D01*
X022268Y029812D01*
X022268Y029812D01*
X022269Y029811D01*
X02234Y029674D01*
X02234Y029673D01*
X02234Y029672D01*
X022361Y029543D01*
X022361Y029542D01*
X022361Y029542D01*
X022361Y029541D01*
X022361Y02954D01*
X02236Y029539D01*
X02236Y029538D01*
X022359Y029538D01*
X022359Y029537D01*
X022358Y029537D01*
X022358Y029536D01*
X022287Y029494D01*
X022287Y029494D01*
X022286Y029494D01*
X022236Y029477D01*
X022236Y029477D01*
X022236Y029477D01*
X022173Y02946D01*
X022173Y029461D01*
X022172Y02946D01*
X022085Y029448D01*
X022085Y029448D01*
X022085Y029448D01*
X021889Y029427D01*
X021888Y029427D01*
X021888Y029427D01*
X021784Y029435D01*
X021783Y029436D01*
X021782Y029436D01*
X021728Y029452D01*
X021728Y029452D01*
X021727Y029452D01*
X021627Y02949D01*
X021627Y02949D01*
X021626Y02949D01*
X02151Y029565D01*
X021509Y029565D01*
X021509Y029566D01*
X02143Y029624D01*
X02143Y029624D01*
X021429Y029625D01*
X021379Y029683D01*
X021379Y029683D01*
X021379Y029683D01*
X021329Y029746D01*
X021329Y029747D01*
X021328Y029747D01*
X021282Y029839D01*
X021282Y029839D01*
X021282Y029839D01*
X021245Y029914D01*
X021245Y029914D01*
X021245Y029914D01*
X02122Y029976D01*
X021203Y030009D01*
X021203Y030011D01*
X021203Y030013D01*
X021203Y030014D01*
X021203Y030014D01*
X021204Y030016D01*
X021205Y030018D01*
X021289Y030076D01*
X021289Y030076D01*
X02129Y030077D01*
X021356Y030106D01*
X021356D01*
X021356Y030106D01*
X021423Y030135D01*
X021424Y030135D01*
X021424Y030135D01*
X021516Y030156D01*
X021516Y030156D01*
X021516Y030156D01*
X021616Y030173D01*
X021617Y030173D01*
X021618Y030173D01*
X02173Y030165D01*
D02*
G37*
G36*
X022618Y031444D02*
X022618Y031444D01*
X02262Y031443D01*
X022622Y031441D01*
X022643Y0314D01*
X022688Y031334D01*
X022688Y031333D01*
X022688Y031333D01*
X022746Y031237D01*
X022747Y031237D01*
X022747Y031236D01*
X022776Y031161D01*
X022776Y031161D01*
X022776Y031161D01*
X022805Y031082D01*
X022805Y031081D01*
X022806Y031081D01*
X022818Y030968D01*
X022818Y030968D01*
X022818Y030968D01*
X022827Y030872D01*
X022827Y030872D01*
X022827Y030872D01*
Y030713D01*
X022827Y030713D01*
X022827Y030713D01*
X022822Y030638D01*
X022822Y030637D01*
X022822Y030637D01*
X022802Y030553D01*
X022802Y030553D01*
X022802Y030553D01*
X022781Y03047D01*
X02278Y03047D01*
X02278Y030469D01*
X022751Y030394D01*
X022714Y030294D01*
X022713Y030294D01*
X022713Y030294D01*
X022676Y030227D01*
X022676Y030227D01*
X022675Y030226D01*
X022592Y030118D01*
X022591Y030117D01*
X022591Y030117D01*
X022495Y030042D01*
X022495Y030042D01*
X022494Y030041D01*
X02244Y030008D01*
X022439Y030008D01*
X022439Y030007D01*
X022334Y029978D01*
X022333Y029978D01*
X022333Y029978D01*
X022331Y029978D01*
X02233Y029978D01*
X022329Y029979D01*
X022328Y02998D01*
X022327Y029981D01*
X022327Y029982D01*
X022327Y029983D01*
X022326Y029984D01*
X022327Y030017D01*
X022314Y030027D01*
X022313Y030028D01*
X022313Y030028D01*
X022257Y030092D01*
X022256Y030092D01*
X022256Y030093D01*
X02222Y030145D01*
X02222Y030145D01*
X022219Y030146D01*
X022191Y03021D01*
X022191Y03021D01*
X022191Y03021D01*
X022181Y030245D01*
X022181Y030245D01*
X022181Y030245D01*
X022164Y030333D01*
X022164Y030333D01*
X022164Y030333D01*
X022156Y030383D01*
X022156Y030383D01*
X022156Y030384D01*
X022147Y030492D01*
X022147Y030492D01*
X022147Y030492D01*
X022139Y030621D01*
X022139Y030621D01*
X022139Y030622D01*
Y030713D01*
X022139Y030714D01*
X022139Y030714D01*
X022151Y030802D01*
X022151Y030802D01*
X022151Y030802D01*
X022168Y030881D01*
X022168Y030881D01*
X022168Y030881D01*
X022193Y030994D01*
X022193Y030994D01*
X022193Y030995D01*
X022214Y031045D01*
X022214Y031045D01*
X022214Y031045D01*
X022243Y031112D01*
X022244Y031112D01*
X022244Y031113D01*
X022278Y031159D01*
X022278Y031159D01*
X022278Y031159D01*
X02234Y031242D01*
X022341Y031242D01*
X022341Y031243D01*
X022403Y031301D01*
X022403Y031301D01*
X022403Y031301D01*
X022483Y031372D01*
X022483Y031372D01*
X022484Y031373D01*
X022542Y03141D01*
X022542Y03141D01*
X022543Y031411D01*
X022613Y031444D01*
X022616Y031444D01*
X022618Y031444D01*
X022618Y031444D01*
D02*
G37*
G36*
X02371Y029339D02*
X023711Y029339D01*
X023711Y029339D01*
X023799Y029314D01*
X023799Y029314D01*
X023799Y029314D01*
X023895Y029285D01*
X023895Y029285D01*
X023896Y029285D01*
X023971Y029251D01*
X023971Y029251D01*
X023972Y029251D01*
X024088Y029172D01*
X024089Y02917D01*
X024091Y029168D01*
X024091Y029168D01*
X024091Y029168D01*
X024091Y029165D01*
X02409Y029163D01*
X024057Y029101D01*
X024057Y029101D01*
X024057Y0291D01*
X02399Y028984D01*
X023957Y028922D01*
X023956Y028921D01*
X023956Y028921D01*
X02391Y028866D01*
X02391Y028866D01*
X02391Y028866D01*
X023839Y028791D01*
X023839Y028791D01*
X023839Y028791D01*
X023723Y02867D01*
X023722Y02867D01*
X023721Y028669D01*
X023663Y028632D01*
X023663Y028632D01*
X023663Y028631D01*
X02355Y028569D01*
X023549Y028569D01*
X023549Y028569D01*
X023449Y028539D01*
X023449Y028539D01*
X023448Y028539D01*
X023378Y028522D01*
X023377Y028523D01*
X023377Y028522D01*
X023285Y028514D01*
X023285Y028514D01*
X023285Y028514D01*
X023193D01*
X023192Y028514D01*
X023192Y028514D01*
X023096Y028531D01*
X023096Y028531D01*
X023096Y028531D01*
X022987Y028552D01*
X022987Y028552D01*
X022987Y028552D01*
X022908Y028568D01*
X022908Y028569D01*
X022908Y028569D01*
X022854Y028585D01*
X022778Y028603D01*
X022777Y028604D01*
X022777Y028604D01*
X022776Y028605D01*
X022775Y028605D01*
X022775Y028606D01*
X022774Y028606D01*
X022774Y028607D01*
X022773Y028607D01*
X022724Y028731D01*
X022724Y028732D01*
X022724Y028733D01*
Y02875D01*
X022725Y028751D01*
X022725Y028753D01*
X022754Y028811D01*
X022779Y028861D01*
X022779Y028861D01*
X022779Y028861D01*
X022863Y02899D01*
X022863Y02899D01*
X022863Y028991D01*
X022913Y029066D01*
X022913Y029066D01*
X022913Y029066D01*
X022954Y029124D01*
X022955Y029124D01*
X022955Y029125D01*
X023005Y029171D01*
X023006Y029171D01*
X023006Y029172D01*
X023094Y029222D01*
X023094Y029222D01*
X023095Y029222D01*
X023274Y029297D01*
X023274Y029297D01*
X023275Y029297D01*
X023408Y029335D01*
X023409Y029335D01*
X023409Y029335D01*
X02358Y029348D01*
X02358Y029348D01*
X023581Y029348D01*
X02371Y029339D01*
D02*
G37*
G36*
X021991Y029186D02*
X021991Y029186D01*
X021992Y029186D01*
X022142Y029157D01*
X022142Y029156D01*
X022143Y029156D01*
X02223Y029114D01*
X022231Y029114D01*
X022231Y029114D01*
X022335Y029047D01*
X022336Y029047D01*
X022336Y029047D01*
X022399Y028993D01*
X022399Y028992D01*
X022399Y028992D01*
X022441Y028942D01*
X022532Y028834D01*
X022556Y028818D01*
X022557Y028817D01*
X022559Y028815D01*
X022638Y028565D01*
X022638Y028564D01*
X022638Y028563D01*
X022638Y028563D01*
X022638Y028562D01*
X022638Y028561D01*
X022638Y02856D01*
X022637Y028559D01*
X022637Y028558D01*
X022636Y028558D01*
X022636Y028558D01*
X022582Y028516D01*
X022581Y028516D01*
X022581Y028516D01*
X022506Y02847D01*
X022506Y02847D01*
X022505Y02847D01*
X022405Y028424D01*
X022405Y028424D01*
X022404Y028424D01*
X022304Y028394D01*
X022304Y028394D01*
X022304Y028394D01*
X022183Y028369D01*
X022183Y028369D01*
X022182Y028369D01*
X022024Y028361D01*
X022024Y028361D01*
X022023Y028361D01*
X021874Y028365D01*
X021873Y028365D01*
X021873Y028365D01*
X021773Y028382D01*
X021772Y028382D01*
X021771Y028382D01*
X021713Y028407D01*
X021713Y028407D01*
X021713Y028407D01*
X021617Y028453D01*
X021617Y028453D01*
X021616Y028453D01*
X02155Y028486D01*
X02155Y028487D01*
X021549Y028487D01*
X021482Y028533D01*
X021482Y028533D01*
X021481Y028533D01*
X021423Y028592D01*
X021423Y028592D01*
X021422Y028593D01*
X021335Y028718D01*
X021335Y028718D01*
X021335Y028718D01*
X021301Y028781D01*
X021301Y028781D01*
X021301Y028781D01*
X021255Y028868D01*
X021255Y028869D01*
X021255Y028869D01*
X021226Y028944D01*
X021226Y028946D01*
X021226Y028947D01*
X021226Y028948D01*
X021226Y028949D01*
X021227Y02895D01*
X021228Y028951D01*
X02127Y028985D01*
X02127Y028985D01*
X02127Y028985D01*
X02137Y029052D01*
X02137Y029052D01*
X021371Y029052D01*
X021483Y02911D01*
X021483Y02911D01*
X021484Y029111D01*
X021534Y029131D01*
X021534D01*
X021534Y029132D01*
X021684Y029169D01*
X021759Y02919D01*
X02176Y02919D01*
X02176Y02919D01*
X02184Y029198D01*
X02184Y029198D01*
X021841Y029198D01*
X021991Y029186D01*
D02*
G37*
D10*
X024209Y040028D02*
G03*
X024209Y040028I-000039J0D01*
G01*
X026799Y038802D02*
G03*
X026799Y038802I-000039J0D01*
G01*
X017371Y021744D02*
G03*
X017371Y021744I-000039J0D01*
G01*
X034457Y02867D02*
X036543D01*
X03428Y026978D02*
Y027922D01*
X03672Y026978D02*
Y027922D01*
X034457Y02623D02*
X036543D01*
X038357Y02867D02*
X040443D01*
X03818Y026978D02*
Y027922D01*
X04062Y026978D02*
Y027922D01*
X038357Y02623D02*
X040443D01*
X042223D02*
X04431D01*
X044487Y026978D02*
Y027922D01*
X042046Y026978D02*
Y027922D01*
X042223Y02867D02*
X04431D01*
X026114Y033268D02*
X030586D01*
X026114Y029332D02*
Y033268D01*
Y029332D02*
X030586D01*
Y033268D01*
X039411Y036322D02*
X040789D01*
X039411Y032778D02*
X040789D01*
Y035928D02*
Y036322D01*
X039411Y035928D02*
Y036322D01*
Y032778D02*
Y033172D01*
X040789Y032778D02*
Y033172D01*
X025281Y047851D02*
X027919D01*
X025281Y046749D02*
X027919D01*
Y047851D01*
X025281Y046749D02*
Y047851D01*
X01912Y04493D02*
Y04523D01*
X01658Y04492D02*
Y04524D01*
Y04427D02*
X01911D01*
X01658Y04524D02*
X01912D01*
X01911Y04427D02*
Y044499D01*
X01658Y04427D02*
Y044499D01*
D11*
X01605Y042216D02*
G03*
X01605Y042216I-00125J0D01*
G01*
X04339Y03251D02*
X04452D01*
X04337Y0315D02*
Y03756D01*
X04452Y0315D02*
Y03756D01*
X04337Y0315D02*
X04452D01*
X04337Y03756D02*
X04452D01*
X03334Y0485D02*
Y04949D01*
X03639Y0485D02*
Y0495D01*
X03239D02*
X03639D01*
X03239Y0485D02*
Y0495D01*
Y0485D02*
X03639D01*
X02015Y03663D02*
Y03762D01*
X0171Y03662D02*
Y03762D01*
Y03662D02*
X0211D01*
Y03762D01*
X0171D02*
X0211D01*
X01475Y0412D02*
X01485D01*
X0148Y0411D02*
Y0413D01*
X01485Y0412D02*
X0149D01*
X0147D02*
X01475D01*
X01062Y04094D02*
Y04194D01*
X01012Y04094D02*
X01062D01*
X01012D02*
Y04194D01*
X01062D01*
X01011Y0423D02*
Y0433D01*
Y0423D02*
X01061D01*
Y0433D01*
X01011D02*
X01061D01*
X01285Y04955D02*
X01615D01*
X01285Y0448D02*
Y05025D01*
X01615Y0448D02*
Y05025D01*
X01285Y0448D02*
X01615D01*
X01285Y05025D02*
X01615D01*
D12*
X027968Y048442D02*
G03*
X027968Y048442I-000049J0D01*
G01*
X016349Y04528D02*
G03*
X016349Y04528I-000049J0D01*
G01*
D13*
X0383Y03405D02*
Y03505D01*
D14*
X043012Y02499D02*
Y02533D01*
X043512Y02499D02*
Y02533D01*
X039145Y02499D02*
Y02533D01*
X039645Y02499D02*
Y02533D01*
X035745Y02499D02*
Y02533D01*
X035245Y02499D02*
Y02533D01*
X02453Y038D02*
X02487D01*
X02453Y0375D02*
X02487D01*
X02448Y0403D02*
X02482D01*
X02448Y0408D02*
X02482D01*
X027254Y03995D02*
X027594D01*
X027254Y03945D02*
X027594D01*
X027254Y0408D02*
X027594D01*
X027254Y0403D02*
X027594D01*
X02903Y03995D02*
X02937D01*
X02903Y03945D02*
X02937D01*
X02903Y0408D02*
X02937D01*
X02903Y0403D02*
X02937D01*
X0397Y04638D02*
Y04672D01*
X0392Y04638D02*
Y04672D01*
Y04873D02*
Y04907D01*
X0397Y04873D02*
Y04907D01*
X02971Y048197D02*
X03005D01*
X02971Y047697D02*
X03005D01*
X02688Y0446D02*
X02722D01*
X02688Y0451D02*
X02722D01*
X01423Y0387D02*
X01457D01*
X01423Y0382D02*
X01457D01*
X01103Y0385D02*
X01137D01*
X01103Y039D02*
X01137D01*
X02273Y044D02*
X02307D01*
X02273Y0445D02*
X02307D01*
X03223Y0478D02*
X03257D01*
X03223Y0473D02*
X03257D01*
X0297Y04535D02*
X03004D01*
X0297Y04585D02*
X03004D01*
X0249Y04753D02*
Y04787D01*
X0244Y04753D02*
Y04787D01*
X03793Y0399D02*
X03827D01*
X03793Y0404D02*
X03827D01*
X027192Y02333D02*
Y02367D01*
X027692Y02333D02*
Y02367D01*
X02553Y02333D02*
Y02367D01*
X02603Y02333D02*
Y02367D01*
X01985Y04668D02*
Y04702D01*
X02035Y04668D02*
Y04702D01*
X035745Y02958D02*
Y02992D01*
X035245Y02958D02*
Y02992D01*
X029354Y02333D02*
Y02367D01*
X028854Y02333D02*
Y02367D01*
X031017Y02333D02*
Y02367D01*
X030517Y02333D02*
Y02367D01*
X039645Y02958D02*
Y02992D01*
X039145Y02958D02*
Y02992D01*
X043512Y02958D02*
Y02992D01*
X043012Y02958D02*
Y02992D01*
X03995Y04048D02*
Y04082D01*
X03945Y04048D02*
Y04082D01*
X04095Y04048D02*
Y04082D01*
X04045Y04048D02*
Y04082D01*
D15*
X043602Y02439D02*
Y02592D01*
X042932D02*
X043602D01*
X042932Y02439D02*
Y02592D01*
Y02439D02*
X043602D01*
X039735D02*
Y02592D01*
X039065D02*
X039735D01*
X039065Y02439D02*
Y02592D01*
Y02439D02*
X039735D01*
X035165D02*
X035835D01*
X035165D02*
Y02592D01*
X035835D01*
Y02439D02*
Y02592D01*
X02393Y03741D02*
X02546D01*
Y03808D01*
X02393D02*
X02546D01*
X02393Y03741D02*
Y03808D01*
X024977Y039004D02*
Y039162D01*
X023993Y039004D02*
Y039162D01*
X02389Y04089D02*
X02542D01*
X02389Y04022D02*
Y04089D01*
Y04022D02*
X02542D01*
Y04089D01*
X026654Y03936D02*
X028184D01*
Y04003D01*
X026654D02*
X028184D01*
X026654Y03936D02*
Y04003D01*
Y04021D02*
X028184D01*
Y04088D01*
X026654D02*
X028184D01*
X026654Y04021D02*
Y04088D01*
X02843Y03936D02*
X02996D01*
Y04003D01*
X02843D02*
X02996D01*
X02843Y03936D02*
Y04003D01*
Y04021D02*
X02996D01*
Y04088D01*
X02843D02*
X02996D01*
X02843Y04021D02*
Y04088D01*
X03911Y04579D02*
Y04732D01*
Y04579D02*
X03978D01*
Y04732D01*
X03911D02*
X03978D01*
X03979Y04813D02*
Y04966D01*
X03912D02*
X03979D01*
X03912Y04813D02*
Y04966D01*
Y04813D02*
X03979D01*
X03005Y04875D02*
X03055D01*
X0291D02*
X02965D01*
X03005Y04945D02*
X03055D01*
X0291D02*
X02965D01*
X03065Y04885D02*
Y04935D01*
X03055Y04875D02*
X03065Y04885D01*
X03055Y04945D02*
X03065Y04935D01*
X0291Y04875D02*
Y04945D01*
X02911Y047607D02*
X03064D01*
Y048277D01*
X02911D02*
X03064D01*
X02911Y047607D02*
Y048277D01*
X02629Y04519D02*
X02782D01*
X02629Y04452D02*
Y04519D01*
Y04452D02*
X02782D01*
Y04519D01*
X01363Y03811D02*
X01516D01*
Y03878D01*
X01363D02*
X01516D01*
X01363Y03811D02*
Y03878D01*
X030437Y026037D02*
Y026537D01*
Y026937D02*
Y027487D01*
X031137Y026037D02*
Y026537D01*
Y026937D02*
Y027487D01*
X030537Y025937D02*
X031037D01*
X030437Y026037D02*
X030537Y025937D01*
X031037D02*
X031137Y026037D01*
X030437Y027487D02*
X031137D01*
X028774Y026037D02*
Y026537D01*
Y026937D02*
Y027487D01*
X029474Y026037D02*
Y026537D01*
Y026937D02*
Y027487D01*
X028874Y025937D02*
X029374D01*
X028774Y026037D02*
X028874Y025937D01*
X029374D02*
X029474Y026037D01*
X028774Y027487D02*
X029474D01*
X02545Y026037D02*
Y026537D01*
Y026937D02*
Y027487D01*
X02615Y026037D02*
Y026537D01*
Y026937D02*
Y027487D01*
X02555Y025937D02*
X02605D01*
X02545Y026037D02*
X02555Y025937D01*
X02605D02*
X02615Y026037D01*
X02545Y027487D02*
X02615D01*
X01044Y03909D02*
X01197D01*
X01044Y03842D02*
Y03909D01*
Y03842D02*
X01197D01*
Y03909D01*
X01055Y0401D02*
X01105D01*
X01145D02*
X012D01*
X01055Y0394D02*
X01105D01*
X01145D02*
X012D01*
X01045Y0395D02*
Y04D01*
X01055Y0401D01*
X01045Y0395D02*
X01055Y0394D01*
X012D02*
Y0401D01*
X02214Y04459D02*
X02367D01*
X02214Y04392D02*
Y04459D01*
Y04392D02*
X02367D01*
Y04459D01*
X03163Y04721D02*
X03316D01*
Y04788D01*
X03163D02*
X03316D01*
X03163Y04721D02*
Y04788D01*
X0292Y04705D02*
X0297D01*
X0301D02*
X03065D01*
X0292Y04635D02*
X0297D01*
X0301D02*
X03065D01*
X0291Y04645D02*
Y04695D01*
X0292Y04705D01*
X0291Y04645D02*
X0292Y04635D01*
X03065D02*
Y04705D01*
X02911Y04594D02*
X03064D01*
X02911Y04527D02*
Y04594D01*
Y04527D02*
X03064D01*
Y04594D01*
X02431Y04694D02*
Y04847D01*
Y04694D02*
X02498D01*
Y04847D01*
X02431D02*
X02498D01*
X027112Y026037D02*
Y026537D01*
Y026937D02*
Y027487D01*
X027812Y026037D02*
Y026537D01*
Y026937D02*
Y027487D01*
X027212Y025937D02*
X027712D01*
X027112Y026037D02*
X027212Y025937D01*
X027712D02*
X027812Y026037D01*
X027112Y027487D02*
X027812D01*
X03734Y04049D02*
X03887D01*
X03734Y03982D02*
Y04049D01*
Y03982D02*
X03887D01*
Y04049D01*
X01808Y025071D02*
X01932D01*
Y028929D01*
X01808D02*
X01932D01*
X01808D02*
Y029035D01*
X016859Y03011D02*
X01734D01*
X016859D02*
Y03137D01*
X013041Y03011D02*
Y03137D01*
X012556Y03011D02*
X013041D01*
X01182Y028575D02*
Y029016D01*
X01121Y028575D02*
X01182D01*
X01121Y025386D02*
Y028575D01*
Y025386D02*
X01182D01*
X012556Y02385D02*
X012804D01*
Y02137D02*
Y02385D01*
Y02137D02*
X017096D01*
Y02385D01*
X01734D01*
X027782Y02273D02*
Y02426D01*
X027112D02*
X027782D01*
X027112Y02273D02*
Y02426D01*
Y02273D02*
X027782D01*
X02612D02*
Y02426D01*
X02545D02*
X02612D01*
X02545Y02273D02*
Y02426D01*
Y02273D02*
X02612D01*
X01976Y04762D02*
X02043D01*
Y04609D02*
Y04762D01*
X01976Y04609D02*
X02043D01*
X01976D02*
Y04762D01*
X035165Y02898D02*
X035835D01*
X035165D02*
Y03051D01*
X035835D01*
Y02898D02*
Y03051D01*
X028774Y02273D02*
X029444D01*
X028774D02*
Y02426D01*
X029444D01*
Y02273D02*
Y02426D01*
X030437Y02273D02*
X031107D01*
X030437D02*
Y02426D01*
X031107D01*
Y02273D02*
Y02426D01*
X039065Y02898D02*
X039735D01*
X039065D02*
Y03051D01*
X039735D01*
Y02898D02*
Y03051D01*
X042932Y02898D02*
X043602D01*
X042932D02*
Y03051D01*
X043602D01*
Y02898D02*
Y03051D01*
X03937Y03988D02*
X04004D01*
X03937D02*
Y04141D01*
X04004D01*
Y03988D02*
Y04141D01*
X04037Y03988D02*
X04104D01*
X04037D02*
Y04141D01*
X04104D01*
Y03988D02*
Y04141D01*
D16*
X027516Y0363D02*
X029184D01*
X027516Y039D02*
X029184Y039D01*
X021425Y046115D02*
Y046535D01*
X021775Y046115D02*
Y046535D01*
X023225Y046115D02*
Y046535D01*
X023575Y046115D02*
Y046535D01*
X021125Y049275D02*
X021274D01*
X021125Y046725D02*
X022275D01*
Y046325D02*
Y046725D01*
Y046325D02*
X022725D01*
Y046725D01*
X023875D01*
Y049275D01*
X023726D02*
X023875D01*
X021125Y046725D02*
Y049275D01*
D17*
X04016Y0465D02*
X040598D01*
X04016D02*
Y0475D01*
X041473Y0465D02*
X04216D01*
Y0475D01*
X04166D02*
X04216D01*
X040598Y0465D02*
X041473D01*
X04016Y0475D02*
X04166D01*
X04015Y0479D02*
X040588D01*
X04015D02*
Y0489D01*
X041462Y0479D02*
X04215D01*
Y0489D01*
X04165D02*
X04215D01*
X040588Y0479D02*
X041462D01*
X04015Y0489D02*
X04165D01*
X010384Y03712D02*
Y03762D01*
X016384D01*
Y03662D02*
Y03762D01*
X010384Y03662D02*
X016384D01*
X010384D02*
Y03712D01*
X011384Y03662D02*
Y03762D01*
X01985Y0416D02*
X02035D01*
X01935D02*
X01985D01*
X01935Y0406D02*
Y0436D01*
X02035D01*
Y0406D02*
Y0436D01*
X01935Y0406D02*
X02035D01*
X0171Y04159D02*
X0176D01*
X0166D02*
X0171D01*
X0166Y04059D02*
Y04359D01*
X0176D01*
Y04059D02*
Y04359D01*
X0166Y04059D02*
X0176D01*
X03635Y03485D02*
Y04585D01*
X03535Y03485D02*
X03635D01*
X03535D02*
Y04585D01*
X03635D01*
Y04485D02*
Y04585D01*
X03535Y04485D02*
X03635D01*
X0382Y038408D02*
Y039392D01*
Y0389D02*
Y039392D01*
X0372Y038408D02*
X0382D01*
X0372D02*
Y039392D01*
X0377D01*
Y038408D02*
X045318D01*
Y039392D01*
X0377D02*
X045318D01*
X03135Y0491D02*
X0314Y04915D01*
X0315D01*
X03155Y0491D01*
Y04905D01*
X0315Y049D01*
X03145D01*
X0315D01*
X03155Y04895D01*
Y0489D01*
X0315Y04885D01*
X0314D01*
X03135Y0489D01*
X03165Y04915D02*
Y04895D01*
X03175Y04885D01*
X03185Y04895D01*
Y04915D01*
X03195Y0491D02*
X032Y04915D01*
X0321D01*
X03215Y0491D01*
Y04905D01*
X0321Y049D01*
X03205D01*
X0321D01*
X03215Y04895D01*
Y0489D01*
X0321Y04885D01*
X032D01*
X03195Y0489D01*
X03575Y04825D02*
X0357Y0483D01*
X0356D01*
X03555Y04825D01*
Y04805D01*
X0356Y048D01*
X0357D01*
X03575Y04805D01*
Y04815D01*
X03565D01*
X03585Y048D02*
Y0483D01*
X03605Y048D01*
Y0483D01*
X03615D02*
Y048D01*
X0363D01*
X03635Y04805D01*
Y04825D01*
X0363Y0483D01*
X03615D01*
X03455D02*
Y048D01*
X0347D01*
X03475Y04805D01*
Y04825D01*
X0347Y0483D01*
X03455D01*
X03485D02*
X03495D01*
X0349D01*
Y048D01*
X03485D01*
X03495D01*
X03525Y0483D02*
X03515D01*
X0351Y04825D01*
Y04805D01*
X03515Y048D01*
X03525D01*
X0353Y04805D01*
Y04825D01*
X03525Y0483D01*
X03365Y04825D02*
X0336Y0483D01*
X0335D01*
X03345Y04825D01*
Y04805D01*
X0335Y048D01*
X0336D01*
X03365Y04805D01*
X03375Y0483D02*
Y048D01*
X03395D01*
X03405Y0483D02*
Y048D01*
Y0481D01*
X03425Y0483D01*
X0341Y04815D01*
X03425Y048D01*
X0113Y03815D02*
Y03785D01*
Y038D01*
X0115D01*
Y03815D01*
Y03785D01*
X0118Y0381D02*
X01175Y03815D01*
X01165D01*
X0116Y0381D01*
Y0379D01*
X01165Y03785D01*
X01175D01*
X0118Y0379D01*
X0119Y038D02*
X0121D01*
X0122Y0381D02*
X01225Y03815D01*
X01235D01*
X0124Y0381D01*
Y0379D01*
X01235Y03785D01*
X01225D01*
X0122Y0379D01*
Y0381D01*
X0127Y03815D02*
X0125D01*
Y038D01*
X0126Y03805D01*
X01265D01*
X0127Y038D01*
Y0379D01*
X01265Y03785D01*
X01255D01*
X0125Y0379D01*
X01497Y03625D02*
X01477D01*
Y0361D01*
X01487Y03615D01*
X01492D01*
X01497Y0361D01*
Y036D01*
X01492Y03595D01*
X01482D01*
X01477Y036D01*
X01507Y03625D02*
Y03605D01*
X01517Y03595D01*
X01527Y03605D01*
Y03625D01*
X01182Y03595D02*
Y03625D01*
X01197D01*
X01202Y0362D01*
Y0361D01*
X01197Y03605D01*
X01182D01*
X01192D02*
X01202Y03595D01*
X01212Y03625D02*
X01232Y03595D01*
Y03625D02*
X01212Y03595D01*
X0128Y03625D02*
X013D01*
X0129D01*
Y03595D01*
X0131Y03625D02*
X0133Y03595D01*
Y03625D02*
X0131Y03595D01*
X0406Y0379D02*
X04055Y03795D01*
X04045D01*
X0404Y0379D01*
Y03785D01*
X04045Y0378D01*
X04055D01*
X0406Y03775D01*
Y0377D01*
X04055Y03765D01*
X04045D01*
X0404Y0377D01*
X0407Y03795D02*
Y03765D01*
X04085D01*
X0409Y0377D01*
Y0379D01*
X04085Y03795D01*
X0407D01*
X041Y03765D02*
Y03785D01*
X0411Y03795D01*
X0412Y03785D01*
Y03765D01*
Y0378D01*
X041D01*
X03955Y0379D02*
X0395Y03795D01*
X0394D01*
X03935Y0379D01*
Y03785D01*
X0394Y0378D01*
X0395D01*
X03955Y03775D01*
Y0377D01*
X0395Y03765D01*
X0394D01*
X03935Y0377D01*
X03985Y0379D02*
X0398Y03795D01*
X0397D01*
X03965Y0379D01*
Y0377D01*
X0397Y03765D01*
X0398D01*
X03985Y0377D01*
X03995Y03795D02*
Y03765D01*
X04015D01*
X03415Y04445D02*
X0341Y0445D01*
X034D01*
X03395Y04445D01*
Y04425D01*
X034Y0442D01*
X0341D01*
X03415Y04425D01*
Y04435D01*
X03405D01*
X03425Y0442D02*
Y0445D01*
X03445Y0442D01*
Y0445D01*
X03455D02*
Y0442D01*
X0347D01*
X03475Y04425D01*
Y04445D01*
X0347Y0445D01*
X03455D01*
X03435Y03545D02*
X0343Y0355D01*
X0342D01*
X03415Y03545D01*
Y03525D01*
X0342Y0352D01*
X0343D01*
X03435Y03525D01*
X03465Y03545D02*
X0346Y0355D01*
X0345D01*
X03445Y03545D01*
Y0354D01*
X0345Y03535D01*
X0346D01*
X03465Y0353D01*
Y03525D01*
X0346Y0352D01*
X0345D01*
X03445Y03525D01*
X03435Y03655D02*
X03415D01*
Y0364D01*
X03425Y03645D01*
X0343D01*
X03435Y0364D01*
Y0363D01*
X0343Y03625D01*
X0342D01*
X03415Y0363D01*
X03445Y03655D02*
Y03635D01*
X03455Y03625D01*
X03465Y03635D01*
Y03655D01*
X03415Y03725D02*
Y03755D01*
X0343D01*
X03435Y0375D01*
Y0374D01*
X0343Y03735D01*
X03415D01*
X03425D02*
X03435Y03725D01*
X03465Y0375D02*
X0346Y03755D01*
X0345D01*
X03445Y0375D01*
Y03745D01*
X0345Y0374D01*
X0346D01*
X03465Y03735D01*
Y0373D01*
X0346Y03725D01*
X0345D01*
X03445Y0373D01*
X03395Y0382D02*
Y0385D01*
X03405Y0384D01*
X03415Y0385D01*
Y0382D01*
X0344Y0385D02*
X0343D01*
X03425Y03845D01*
Y03825D01*
X0343Y0382D01*
X0344D01*
X03445Y03825D01*
Y03845D01*
X0344Y0385D01*
X03475Y03845D02*
X0347Y0385D01*
X0346D01*
X03455Y03845D01*
Y0384D01*
X0346Y03835D01*
X0347D01*
X03475Y0383D01*
Y03825D01*
X0347Y0382D01*
X0346D01*
X03455Y03825D01*
X03485Y0385D02*
X03495D01*
X0349D01*
Y0382D01*
X03485D01*
X03495D01*
X0342Y0395D02*
X03415Y03955D01*
X03405D01*
X034Y0395D01*
Y0393D01*
X03405Y03925D01*
X03415D01*
X0342Y0393D01*
X0343Y03955D02*
Y03925D01*
X0345D01*
X0346Y03955D02*
Y03925D01*
Y03935D01*
X0348Y03955D01*
X03465Y0394D01*
X0348Y03925D01*
X03445Y04051D02*
X03425D01*
Y04036D01*
X03435Y04041D01*
X0344D01*
X03445Y04036D01*
Y04026D01*
X0344Y04021D01*
X0343D01*
X03425Y04026D01*
X03455Y04051D02*
Y04031D01*
X03465Y04021D01*
X03475Y04031D01*
Y04051D01*
X0343Y045525D02*
X0341D01*
Y045375D01*
X0342Y045425D01*
X03425D01*
X0343Y045375D01*
Y045275D01*
X03425Y045225D01*
X03415D01*
X0341Y045275D01*
X0344Y045525D02*
Y045325D01*
X0345Y045225D01*
X0346Y045325D01*
Y045525D01*
X0373Y03765D02*
X03735Y0377D01*
X03745D01*
X0375Y03765D01*
Y0376D01*
X03745Y03755D01*
X0374D01*
X03745D01*
X0375Y0375D01*
Y03745D01*
X03745Y0374D01*
X03735D01*
X0373Y03745D01*
X0376Y0377D02*
Y0375D01*
X0377Y0374D01*
X0378Y0375D01*
Y0377D01*
X0379Y03765D02*
X03795Y0377D01*
X03805D01*
X0381Y03765D01*
Y0376D01*
X03805Y03755D01*
X038D01*
X03805D01*
X0381Y0375D01*
Y03745D01*
X03805Y0374D01*
X03795D01*
X0379Y03745D01*
X04255Y0485D02*
X0426Y04855D01*
X0427D01*
X04275Y0485D01*
Y04845D01*
X0427Y0484D01*
X04265D01*
X0427D01*
X04275Y04835D01*
Y0483D01*
X0427Y04825D01*
X0426D01*
X04255Y0483D01*
X04285Y04855D02*
Y04835D01*
X04295Y04825D01*
X04305Y04835D01*
Y04855D01*
X04315Y0485D02*
X0432Y04855D01*
X0433D01*
X04335Y0485D01*
Y04845D01*
X0433Y0484D01*
X04325D01*
X0433D01*
X04335Y04835D01*
Y0483D01*
X0433Y04825D01*
X0432D01*
X04315Y0483D01*
X0428Y04715D02*
X0426D01*
Y047D01*
X0427Y04705D01*
X04275D01*
X0428Y047D01*
Y0469D01*
X04275Y04685D01*
X04265D01*
X0426Y0469D01*
X0429Y04715D02*
Y04695D01*
X043Y04685D01*
X0431Y04695D01*
Y04715D01*
X0427Y0321D02*
Y0322D01*
Y03215D01*
X043D01*
Y0321D01*
Y0322D01*
Y03235D02*
X0427D01*
Y0325D01*
X04275Y03255D01*
X04285D01*
X0429Y0325D01*
Y03235D01*
Y03245D02*
X043Y03255D01*
X04305Y03265D02*
Y03285D01*
X04275Y03315D02*
X0427Y0331D01*
Y033D01*
X04275Y03295D01*
X0428D01*
X04285Y033D01*
Y0331D01*
X0429Y03315D01*
X04295D01*
X043Y0331D01*
Y033D01*
X04295Y03295D01*
X0427Y03345D02*
Y03325D01*
X043D01*
Y03345D01*
X04285Y03325D02*
Y03335D01*
X043Y03355D02*
X0427D01*
X043Y033749D01*
X0427D01*
X04275Y034049D02*
X0427Y033999D01*
Y033899D01*
X04275Y033849D01*
X0428D01*
X04285Y033899D01*
Y033999D01*
X0429Y034049D01*
X04295D01*
X043Y033999D01*
Y033899D01*
X04295Y033849D01*
X0427Y034299D02*
Y034199D01*
X04275Y034149D01*
X04295D01*
X043Y034199D01*
Y034299D01*
X04295Y034349D01*
X04275D01*
X0427Y034299D01*
X043Y034449D02*
X0427D01*
Y034599D01*
X04275Y034649D01*
X04285D01*
X0429Y034599D01*
Y034449D01*
Y034549D02*
X043Y034649D01*
X03795Y0337D02*
Y0334D01*
X0381D01*
X03815Y03345D01*
Y0335D01*
X0381Y03355D01*
X03795D01*
X0381D01*
X03815Y0336D01*
Y03365D01*
X0381Y0337D01*
X03795D01*
X03825D02*
X03845D01*
X03835D01*
Y0334D01*
X03855D02*
Y0337D01*
X03875Y0334D01*
Y0337D01*
X03795Y0357D02*
X03805D01*
X038D01*
Y0354D01*
X03795D01*
X03805D01*
X0382D02*
Y0357D01*
X0383Y0356D01*
X0384Y0357D01*
Y0354D01*
X0385Y0357D02*
Y03545D01*
X03855Y0354D01*
X03865D01*
X0387Y03545D01*
Y0357D01*
X027719Y030426D02*
Y03044D01*
X027733Y030469D01*
X027747Y030483D01*
X027776Y030498D01*
X027833D01*
X027861Y030483D01*
X027876Y030469D01*
X02789Y03044D01*
Y030412D01*
X027876Y030383D01*
X027847Y03034D01*
X027704Y030198D01*
X027904D01*
X026759Y03044D02*
X026788Y030455D01*
X026831Y030498D01*
Y030198D01*
X026621Y032309D02*
X026592Y032294D01*
X026564Y032266D01*
X026549Y032237D01*
X026535Y032194D01*
Y032123D01*
X026549Y03208D01*
X026564Y032052D01*
X026592Y032023D01*
X026621Y032009D01*
X026678D01*
X026706Y032023D01*
X026735Y032052D01*
X026749Y03208D01*
X026764Y032123D01*
Y032194D01*
X026749Y032237D01*
X026735Y032266D01*
X026706Y032294D01*
X026678Y032309D01*
X026621D01*
X026834D02*
Y032009D01*
Y032309D02*
X027034Y032009D01*
Y032309D02*
Y032009D01*
X028733Y030498D02*
X02889D01*
X028804Y030383D01*
X028847D01*
X028876Y030369D01*
X02889Y030355D01*
X028904Y030312D01*
Y030283D01*
X02889Y03024D01*
X028861Y030212D01*
X028819Y030198D01*
X028776D01*
X028733Y030212D01*
X028719Y030226D01*
X028704Y030255D01*
X029847Y030498D02*
X029704Y030298D01*
X029919D01*
X029847Y030498D02*
Y030198D01*
X0272Y0357D02*
X02715Y03575D01*
X02705D01*
X027Y0357D01*
Y03565D01*
X02705Y0356D01*
X02715D01*
X0272Y03555D01*
Y0355D01*
X02715Y03545D01*
X02705D01*
X027Y0355D01*
X0273Y03575D02*
X0275D01*
X0274D01*
Y03545D01*
X0276D02*
Y03575D01*
X0277Y03565D01*
X0278Y03575D01*
Y03545D01*
X0279Y0357D02*
X02795Y03575D01*
X02805D01*
X0281Y0357D01*
Y03565D01*
X02805Y0356D01*
X028D01*
X02805D01*
X0281Y03555D01*
Y0355D01*
X02805Y03545D01*
X02795D01*
X0279Y0355D01*
X0284Y03545D02*
X0282D01*
X0284Y03565D01*
Y0357D01*
X02835Y03575D01*
X02825D01*
X0282Y0357D01*
X028699Y03575D02*
X0285D01*
Y0356D01*
X028599D01*
X0285D01*
Y03545D01*
X028799Y0357D02*
X028849Y03575D01*
X028949D01*
X028999Y0357D01*
Y0355D01*
X028949Y03545D01*
X028849D01*
X028799Y0355D01*
Y0357D01*
X029249Y03545D02*
Y03575D01*
X029099Y0356D01*
X029299D01*
X029599Y03545D02*
X029399D01*
X029599Y03565D01*
Y0357D01*
X029549Y03575D01*
X029449D01*
X029399Y0357D01*
X02008Y03596D02*
Y03626D01*
X02023D01*
X02028Y03621D01*
Y03611D01*
X02023Y03606D01*
X02008D01*
X02038Y03626D02*
Y03596D01*
X02048Y03606D01*
X02058Y03596D01*
Y03626D01*
X02068Y03596D02*
Y03626D01*
X02078Y03616D01*
X02088Y03626D01*
Y03596D01*
X02118D02*
X02098D01*
X02118Y03616D01*
Y03621D01*
X02113Y03626D01*
X02103D01*
X02098Y03621D01*
X01809Y03597D02*
Y03627D01*
X01824D01*
X01829Y03622D01*
Y03612D01*
X01824Y03607D01*
X01809D01*
X01839Y03627D02*
Y03597D01*
X01849Y03607D01*
X01859Y03597D01*
Y03627D01*
X01869Y03597D02*
Y03627D01*
X01879Y03617D01*
X01889Y03627D01*
Y03597D01*
X01899D02*
X01909D01*
X01904D01*
Y03627D01*
X01899Y03622D01*
X018137Y040911D02*
Y041211D01*
X018287D01*
X018337Y041161D01*
Y041061D01*
X018287Y041011D01*
X018137D01*
X018437Y041211D02*
Y040911D01*
X018537Y041011D01*
X018637Y040911D01*
Y041211D01*
X018737Y040911D02*
Y041211D01*
X018837Y041111D01*
X018937Y041211D01*
Y040911D01*
X018401Y04223D02*
X018201D01*
Y04208D01*
X018301Y04213D01*
X018351D01*
X018401Y04208D01*
Y04198D01*
X018351Y04193D01*
X018251D01*
X018201Y04198D01*
X018501Y04223D02*
Y04203D01*
X018601Y04193D01*
X018701Y04203D01*
Y04223D01*
X019001Y04218D02*
X018951Y04223D01*
X018851D01*
X018801Y04218D01*
Y04213D01*
X018851Y04208D01*
X018951D01*
X019001Y04203D01*
Y04198D01*
X018951Y04193D01*
X018851D01*
X018801Y04198D01*
X018387Y04319D02*
X018337Y04324D01*
X018237D01*
X018187Y04319D01*
Y04299D01*
X018237Y04294D01*
X018337D01*
X018387Y04299D01*
Y04309D01*
X018287D01*
X018487Y04294D02*
Y04324D01*
X018687Y04294D01*
Y04324D01*
X018787D02*
Y04294D01*
X018937D01*
X018987Y04299D01*
Y04319D01*
X018937Y04324D01*
X018787D01*
X0211Y027D02*
Y0273D01*
X02125D01*
X0213Y02725D01*
Y02715D01*
X02125Y0271D01*
X0211D01*
X02145Y0273D02*
X02155D01*
X0216Y02725D01*
Y0271D01*
X02145D01*
X0214Y02715D01*
X02145Y0272D01*
X0216D01*
X0217Y0273D02*
Y02715D01*
X02175Y0271D01*
X0219D01*
Y02705D01*
X02185Y027D01*
X0218D01*
X0219Y0271D02*
Y0273D01*
X022Y0271D02*
X0221D01*
X02205D01*
Y0273D01*
X022D01*
X0223Y02735D02*
Y0273D01*
X02225D01*
X02235D01*
X0223D01*
Y02715D01*
X02235Y0271D01*
X02255D02*
Y02735D01*
Y02725D01*
X0225D01*
X0226D01*
X02255D01*
Y02735D01*
X0226Y0274D01*
X022799Y0271D02*
X022899D01*
X022949Y02715D01*
Y02725D01*
X022899Y0273D01*
X022799D01*
X022749Y02725D01*
Y02715D01*
X022799Y0271D01*
X023049Y0273D02*
Y0271D01*
Y0272D01*
X023099Y02725D01*
X023149Y0273D01*
X023199D01*
X023349D02*
Y02715D01*
X023399Y0271D01*
X023449Y02715D01*
X023499Y0271D01*
X023549Y02715D01*
Y0273D01*
X023699D02*
X023799D01*
X023849Y02725D01*
Y0271D01*
X023699D01*
X023649Y02715D01*
X023699Y0272D01*
X023849D01*
X023949Y0273D02*
Y0271D01*
Y0272D01*
X023999Y02725D01*
X024049Y0273D01*
X024099D01*
X024449Y0274D02*
Y0271D01*
X024299D01*
X024249Y02715D01*
Y02725D01*
X024299Y0273D01*
X024449D01*
X02322Y0394D02*
Y03935D01*
X02332Y03925D01*
X02342Y03935D01*
Y0394D01*
X02332Y03925D02*
Y0391D01*
X02352D02*
X02362D01*
X02357D01*
Y0394D01*
X02352Y03935D01*
X02055Y0492D02*
Y04895D01*
X0206Y0489D01*
X0207D01*
X02075Y04895D01*
Y0492D01*
X02085Y0489D02*
X02095D01*
X0209D01*
Y0492D01*
X02085Y04915D01*
X03995Y037D02*
X0399Y03705D01*
X0398D01*
X03975Y037D01*
Y03695D01*
X0398Y0369D01*
X0399D01*
X03995Y03685D01*
Y0368D01*
X0399Y03675D01*
X0398D01*
X03975Y0368D01*
X04025Y03675D02*
X04005D01*
X04025Y03695D01*
Y037D01*
X0402Y03705D01*
X0401D01*
X04005Y037D01*
X0265Y0339D02*
X02645Y03395D01*
X02635D01*
X0263Y0339D01*
Y03385D01*
X02635Y0338D01*
X02645D01*
X0265Y03375D01*
Y0337D01*
X02645Y03365D01*
X02635D01*
X0263Y0337D01*
X0266Y03365D02*
X0267D01*
X02665D01*
Y03395D01*
X0266Y0339D01*
X039125Y03082D02*
Y03112D01*
X039275D01*
X039325Y03107D01*
Y03097D01*
X039275Y03092D01*
X039125D01*
X039225D02*
X039325Y03082D01*
X039425D02*
X039525D01*
X039475D01*
Y03112D01*
X039425Y03107D01*
X039675D02*
X039725Y03112D01*
X039825D01*
X039875Y03107D01*
Y03102D01*
X039825Y03097D01*
X039775D01*
X039825D01*
X039875Y03092D01*
Y03087D01*
X039825Y03082D01*
X039725D01*
X039675Y03087D01*
X042982Y03082D02*
Y03112D01*
X043131D01*
X043181Y03107D01*
Y03097D01*
X043131Y03092D01*
X042982D01*
X043081D02*
X043181Y03082D01*
X043281D02*
X043381D01*
X043331D01*
Y03112D01*
X043281Y03107D01*
X043731Y03082D02*
X043531D01*
X043731Y03102D01*
Y03107D01*
X043681Y03112D01*
X043581D01*
X043531Y03107D01*
X03049Y02456D02*
Y02486D01*
X03064D01*
X03069Y02481D01*
Y02471D01*
X03064Y02466D01*
X03049D01*
X03059D02*
X03069Y02456D01*
X03079D02*
X03089D01*
X03084D01*
Y02486D01*
X03079Y02481D01*
X03104Y02456D02*
X03114D01*
X03109D01*
Y02486D01*
X03104Y02481D01*
X02883Y02456D02*
Y02486D01*
X02898D01*
X02903Y02481D01*
Y02471D01*
X02898Y02466D01*
X02883D01*
X02893D02*
X02903Y02456D01*
X02913D02*
X02923D01*
X02918D01*
Y02486D01*
X02913Y02481D01*
X02938D02*
X02943Y02486D01*
X02953D01*
X02958Y02481D01*
Y02461D01*
X02953Y02456D01*
X02943D01*
X02938Y02461D01*
Y02481D01*
X02717Y02456D02*
Y02486D01*
X02732D01*
X02737Y02481D01*
Y02471D01*
X02732Y02466D01*
X02717D01*
X02727D02*
X02737Y02456D01*
X02747Y02461D02*
X02752Y02456D01*
X02762D01*
X02767Y02461D01*
Y02481D01*
X02762Y02486D01*
X02752D01*
X02747Y02481D01*
Y02476D01*
X02752Y02471D01*
X02767D01*
X02551Y02456D02*
Y02486D01*
X02566D01*
X02571Y02481D01*
Y02471D01*
X02566Y02466D01*
X02551D01*
X02561D02*
X02571Y02456D01*
X02581Y02481D02*
X02586Y02486D01*
X02596D01*
X02601Y02481D01*
Y02476D01*
X02596Y02471D01*
X02601Y02466D01*
Y02461D01*
X02596Y02456D01*
X02586D01*
X02581Y02461D01*
Y02466D01*
X02586Y02471D01*
X02581Y02476D01*
Y02481D01*
X02586Y02471D02*
X02596D01*
X01225Y0396D02*
Y0399D01*
X0124D01*
X01245Y03985D01*
Y03975D01*
X0124Y0397D01*
X01225D01*
X01235D02*
X01245Y0396D01*
X01275Y0399D02*
X01265Y03985D01*
X01255Y03975D01*
Y03965D01*
X0126Y0396D01*
X0127D01*
X01275Y03965D01*
Y0397D01*
X0127Y03975D01*
X01255D01*
X03942Y04172D02*
Y04202D01*
X03957D01*
X03962Y04197D01*
Y04187D01*
X03957Y04182D01*
X03942D01*
X03952D02*
X03962Y04172D01*
X03992Y04202D02*
X03972D01*
Y04187D01*
X03982Y04192D01*
X03987D01*
X03992Y04187D01*
Y04177D01*
X03987Y04172D01*
X03977D01*
X03972Y04177D01*
X04042Y04172D02*
Y04202D01*
X04057D01*
X04062Y04197D01*
Y04187D01*
X04057Y04182D01*
X04042D01*
X04052D02*
X04062Y04172D01*
X04087D02*
Y04202D01*
X04072Y04187D01*
X04092D01*
X0309Y04545D02*
Y04575D01*
X03105D01*
X0311Y0457D01*
Y0456D01*
X03105Y04555D01*
X0309D01*
X031D02*
X0311Y04545D01*
X0312Y0457D02*
X03125Y04575D01*
X03135D01*
X0314Y0457D01*
Y04565D01*
X03135Y0456D01*
X0313D01*
X03135D01*
X0314Y04555D01*
Y0455D01*
X03135Y04545D01*
X03125D01*
X0312Y0455D01*
X02835Y0478D02*
Y0481D01*
X0285D01*
X02855Y04805D01*
Y04795D01*
X0285Y0479D01*
X02835D01*
X02845D02*
X02855Y0478D01*
X02885D02*
X02865D01*
X02885Y048D01*
Y04805D01*
X0288Y0481D01*
X0287D01*
X02865Y04805D01*
X035225Y03081D02*
Y03111D01*
X035375D01*
X035425Y03106D01*
Y03096D01*
X035375Y03091D01*
X035225D01*
X035325D02*
X035425Y03081D01*
X035525D02*
X035625D01*
X035575D01*
Y03111D01*
X035525Y03106D01*
X01741Y0382D02*
Y0379D01*
X01761D01*
X01791D02*
X01771D01*
X01791Y0381D01*
Y03815D01*
X01786Y0382D01*
X01776D01*
X01771Y03815D01*
X01801Y03795D02*
X01806Y0379D01*
X01816D01*
X01821Y03795D01*
Y03815D01*
X01816Y0382D01*
X01806D01*
X01801Y03815D01*
Y0381D01*
X01806Y03805D01*
X01821D01*
X01831Y03815D02*
X01836Y0382D01*
X01846D01*
X01851Y03815D01*
Y0381D01*
X01846Y03805D01*
X01851Y038D01*
Y03795D01*
X01846Y0379D01*
X01836D01*
X01831Y03795D01*
Y038D01*
X01836Y03805D01*
X01831Y0381D01*
Y03815D01*
X01836Y03805D02*
X01846D01*
X01861Y0379D02*
Y0382D01*
X01881Y0379D01*
Y0382D01*
X01065Y04425D02*
X0106Y0443D01*
X0105D01*
X01045Y04425D01*
Y0442D01*
X0105Y04415D01*
X0106D01*
X01065Y0441D01*
Y04405D01*
X0106Y044D01*
X0105D01*
X01045Y04405D01*
X01095Y0443D02*
X01075D01*
Y044D01*
X01095D01*
X01075Y04415D02*
X01085D01*
X01105Y044D02*
Y0443D01*
X0112D01*
X01125Y04425D01*
Y04415D01*
X0112Y0441D01*
X01105D01*
X01115D02*
X01125Y044D01*
X01135Y0443D02*
Y0441D01*
X01145Y044D01*
X01155Y0441D01*
Y0443D01*
X0118D02*
X0117D01*
X01165Y04425D01*
Y04405D01*
X0117Y044D01*
X0118D01*
X01185Y04405D01*
Y04425D01*
X0118Y0443D01*
X019575Y04006D02*
Y04036D01*
X019725D01*
X019775Y04031D01*
Y04021D01*
X019725Y04016D01*
X019575D01*
X020075Y04036D02*
X019975Y04031D01*
X019875Y04021D01*
Y04011D01*
X019925Y04006D01*
X020025D01*
X020075Y04011D01*
Y04016D01*
X020025Y04021D01*
X019875D01*
X016885Y04005D02*
Y04035D01*
X017035D01*
X017085Y0403D01*
Y0402D01*
X017035Y04015D01*
X016885D01*
X017385Y04035D02*
X017185D01*
Y0402D01*
X017285Y04025D01*
X017335D01*
X017385Y0402D01*
Y0401D01*
X017335Y04005D01*
X017235D01*
X017185Y0401D01*
X04265Y03695D02*
Y03725D01*
X0428D01*
X04285Y0372D01*
Y0371D01*
X0428Y03705D01*
X04265D01*
X0431Y03695D02*
Y03725D01*
X04295Y0371D01*
X04315D01*
X03665Y0488D02*
Y0491D01*
X0368D01*
X03685Y04905D01*
Y04895D01*
X0368Y0489D01*
X03665D01*
X03695Y04905D02*
X037Y0491D01*
X0371D01*
X03715Y04905D01*
Y049D01*
X0371Y04895D01*
X03705D01*
X0371D01*
X03715Y0489D01*
Y04885D01*
X0371Y0488D01*
X037D01*
X03695Y04885D01*
X04025Y04915D02*
Y04945D01*
X0404D01*
X04045Y0494D01*
Y0493D01*
X0404Y04925D01*
X04025D01*
X04075Y04915D02*
X04055D01*
X04075Y04935D01*
Y0494D01*
X0407Y04945D01*
X0406D01*
X04055Y0494D01*
X04037Y0459D02*
Y0462D01*
X04052D01*
X04057Y04615D01*
Y04605D01*
X04052Y046D01*
X04037D01*
X04067Y0459D02*
X04077D01*
X04072D01*
Y0462D01*
X04067Y04615D01*
X0337Y02904D02*
Y02934D01*
X0339Y02904D01*
Y02934D01*
X034Y02904D02*
Y02934D01*
X03415D01*
X0342Y02929D01*
Y02919D01*
X03415Y02914D01*
X034D01*
X0341D02*
X0342Y02904D01*
X0345Y02929D02*
X03445Y02934D01*
X03435D01*
X0343Y02929D01*
Y02924D01*
X03435Y02919D01*
X03445D01*
X0345Y02914D01*
Y02909D01*
X03445Y02904D01*
X03435D01*
X0343Y02909D01*
X0346Y02934D02*
X0348D01*
X0347D01*
Y02904D01*
X04205Y03965D02*
Y03995D01*
X04215Y03985D01*
X04225Y03995D01*
Y03965D01*
X0425D02*
Y03995D01*
X04235Y0398D01*
X04255D01*
X03555Y04625D02*
Y04655D01*
X03565Y04645D01*
X03575Y04655D01*
Y04625D01*
X03605D02*
X03585D01*
X03605Y04645D01*
Y0465D01*
X036Y04655D01*
X0359D01*
X03585Y0465D01*
X010734Y03575D02*
Y03605D01*
X010834Y03595D01*
X010934Y03605D01*
Y03575D01*
X011034D02*
X011134D01*
X011084D01*
Y03605D01*
X011034Y036D01*
X03028Y0281D02*
Y0278D01*
X03048D01*
X03078Y0281D02*
X03058D01*
Y0278D01*
X03078D01*
X03058Y02795D02*
X03068D01*
X03088Y0281D02*
Y0278D01*
X03103D01*
X03108Y02785D01*
Y02805D01*
X03103Y0281D01*
X03088D01*
X03133Y0278D02*
Y0281D01*
X03118Y02795D01*
X03138D01*
X0286Y0281D02*
Y0278D01*
X0288D01*
X0291Y0281D02*
X0289D01*
Y0278D01*
X0291D01*
X0289Y02795D02*
X029D01*
X0292Y0281D02*
Y0278D01*
X02935D01*
X0294Y02785D01*
Y02805D01*
X02935Y0281D01*
X0292D01*
X0295Y02805D02*
X02955Y0281D01*
X02965D01*
X0297Y02805D01*
Y028D01*
X02965Y02795D01*
X0296D01*
X02965D01*
X0297Y0279D01*
Y02785D01*
X02965Y0278D01*
X02955D01*
X0295Y02785D01*
X02695Y0281D02*
Y0278D01*
X02715D01*
X02745Y0281D02*
X02725D01*
Y0278D01*
X02745D01*
X02725Y02795D02*
X02735D01*
X02755Y0281D02*
Y0278D01*
X0277D01*
X02775Y02785D01*
Y02805D01*
X0277Y0281D01*
X02755D01*
X02805Y0278D02*
X02785D01*
X02805Y028D01*
Y02805D01*
X028Y0281D01*
X0279D01*
X02785Y02805D01*
X02535Y0281D02*
Y0278D01*
X02555D01*
X02585Y0281D02*
X02565D01*
Y0278D01*
X02585D01*
X02565Y02795D02*
X02575D01*
X02595Y0281D02*
Y0278D01*
X0261D01*
X02615Y02785D01*
Y02805D01*
X0261Y0281D01*
X02595D01*
X02625Y0278D02*
X02635D01*
X0263D01*
Y0281D01*
X02625Y02805D01*
X0251Y04635D02*
X0252D01*
X02515D01*
Y04605D01*
X0251D01*
X0252D01*
X02555Y0463D02*
X0255Y04635D01*
X0254D01*
X02535Y0463D01*
Y0461D01*
X0254Y04605D01*
X0255D01*
X02555Y0461D01*
X02565Y04605D02*
X02575D01*
X0257D01*
Y04635D01*
X02565Y0463D01*
X01225Y0389D02*
Y0386D01*
X0124D01*
X01245Y03865D01*
Y03885D01*
X0124Y0389D01*
X01225D01*
X01275Y0386D02*
X01255D01*
X01275Y0388D01*
Y03885D01*
X0127Y0389D01*
X0126D01*
X01255Y03885D01*
X01955Y04489D02*
Y04459D01*
X0197D01*
X01975Y04464D01*
Y04484D01*
X0197Y04489D01*
X01955D01*
X01985Y04459D02*
X01995D01*
X0199D01*
Y04489D01*
X01985Y04484D01*
X01463Y0407D02*
X01458Y04075D01*
X01448D01*
X01443Y0407D01*
Y0405D01*
X01448Y04045D01*
X01458D01*
X01463Y0405D01*
X01493Y04045D02*
X01473D01*
X01493Y04065D01*
Y0407D01*
X01488Y04075D01*
X01478D01*
X01473Y0407D01*
X01503D02*
X01508Y04075D01*
X01518D01*
X01523Y0407D01*
Y04065D01*
X01518Y0406D01*
X01513D01*
X01518D01*
X01523Y04055D01*
Y0405D01*
X01518Y04045D01*
X01508D01*
X01503Y0405D01*
X03825Y049D02*
X0382Y04905D01*
X0381D01*
X03805Y049D01*
Y0488D01*
X0381Y04875D01*
X0382D01*
X03825Y0488D01*
X03855Y04875D02*
X03835D01*
X03855Y04895D01*
Y049D01*
X0385Y04905D01*
X0384D01*
X03835Y049D01*
X03885Y04875D02*
X03865D01*
X03885Y04895D01*
Y049D01*
X0388Y04905D01*
X0387D01*
X03865Y049D01*
X0383Y046785D02*
X03825Y046835D01*
X03815D01*
X0381Y046785D01*
Y046585D01*
X03815Y046535D01*
X03825D01*
X0383Y046585D01*
X0386Y046535D02*
X0384D01*
X0386Y046735D01*
Y046785D01*
X03855Y046835D01*
X03845D01*
X0384Y046785D01*
X0387Y046535D02*
X0388D01*
X03875D01*
Y046835D01*
X0387Y046785D01*
X0227Y04515D02*
X02265Y0452D01*
X02255D01*
X0225Y04515D01*
Y04495D01*
X02255Y0449D01*
X02265D01*
X0227Y04495D01*
X023Y0449D02*
X0228D01*
X023Y0451D01*
Y04515D01*
X02295Y0452D01*
X02285D01*
X0228Y04515D01*
X0231D02*
X02315Y0452D01*
X02325D01*
X0233Y04515D01*
Y04495D01*
X02325Y0449D01*
X02315D01*
X0231Y04495D01*
Y04515D01*
X0269Y04145D02*
X02685Y0415D01*
X02675D01*
X0267Y04145D01*
Y04125D01*
X02675Y0412D01*
X02685D01*
X0269Y04125D01*
X027Y0412D02*
X0271D01*
X02705D01*
Y0415D01*
X027Y04145D01*
X02725Y04125D02*
X0273Y0412D01*
X0274D01*
X02745Y04125D01*
Y04145D01*
X0274Y0415D01*
X0273D01*
X02725Y04145D01*
Y0414D01*
X0273Y04135D01*
X02745D01*
X0259Y0398D02*
X02585Y03985D01*
X02575D01*
X0257Y0398D01*
Y0396D01*
X02575Y03955D01*
X02585D01*
X0259Y0396D01*
X026Y03955D02*
X0261D01*
X02605D01*
Y03985D01*
X026Y0398D01*
X02625D02*
X0263Y03985D01*
X0264D01*
X02645Y0398D01*
Y03975D01*
X0264Y0397D01*
X02645Y03965D01*
Y0396D01*
X0264Y03955D01*
X0263D01*
X02625Y0396D01*
Y03965D01*
X0263Y0397D01*
X02625Y03975D01*
Y0398D01*
X0263Y0397D02*
X0264D01*
X0305Y040778D02*
X03045Y040828D01*
X03035D01*
X0303Y040778D01*
Y040578D01*
X03035Y040528D01*
X03045D01*
X0305Y040578D01*
X0306Y040528D02*
X0307D01*
X03065D01*
Y040828D01*
X0306Y040778D01*
X03085Y040828D02*
X03105D01*
Y040778D01*
X03085Y040578D01*
Y040528D01*
X0403Y025386D02*
X04025Y025436D01*
X04015D01*
X0401Y025386D01*
Y025186D01*
X04015Y025136D01*
X04025D01*
X0403Y025186D01*
X0404Y025136D02*
X0405D01*
X04045D01*
Y025436D01*
X0404Y025386D01*
X04085Y025436D02*
X04075Y025386D01*
X04065Y025286D01*
Y025186D01*
X0407Y025136D01*
X0408D01*
X04085Y025186D01*
Y025236D01*
X0408Y025286D01*
X04065D01*
X044157Y025336D02*
X044107Y025386D01*
X044008D01*
X043958Y025336D01*
Y025136D01*
X044008Y025086D01*
X044107D01*
X044157Y025136D01*
X044257Y025086D02*
X044357D01*
X044307D01*
Y025386D01*
X044257Y025336D01*
X044707Y025386D02*
X044507D01*
Y025236D01*
X044607Y025286D01*
X044657D01*
X044707Y025236D01*
Y025136D01*
X044657Y025086D01*
X044557D01*
X044507Y025136D01*
X0379Y041D02*
X03785Y04105D01*
X03775D01*
X0377Y041D01*
Y0408D01*
X03775Y04075D01*
X03785D01*
X0379Y0408D01*
X038Y04075D02*
X0381D01*
X03805D01*
Y04105D01*
X038Y041D01*
X03825D02*
X0383Y04105D01*
X0384D01*
X03845Y041D01*
Y04095D01*
X0384Y0409D01*
X03835D01*
X0384D01*
X03845Y04085D01*
Y0408D01*
X0384Y04075D01*
X0383D01*
X03825Y0408D01*
X01425Y039269D02*
X0142Y039319D01*
X0141D01*
X01405Y039269D01*
Y039069D01*
X0141Y039019D01*
X0142D01*
X01425Y039069D01*
X01435Y039019D02*
X01445D01*
X0144D01*
Y039319D01*
X01435Y039269D01*
X0146Y039019D02*
X0147D01*
X01465D01*
Y039319D01*
X0146Y039269D01*
X0234Y0407D02*
X02335Y04075D01*
X02325D01*
X0232Y0407D01*
Y0405D01*
X02325Y04045D01*
X02335D01*
X0234Y0405D01*
X0235D02*
X02355Y04045D01*
X02365D01*
X0237Y0405D01*
Y0407D01*
X02365Y04075D01*
X02355D01*
X0235Y0407D01*
Y04065D01*
X02355Y0406D01*
X0237D01*
X0336Y0476D02*
X03355Y04765D01*
X03345D01*
X0334Y0476D01*
Y0474D01*
X03345Y04735D01*
X03355D01*
X0336Y0474D01*
X0337Y0476D02*
X03375Y04765D01*
X03385D01*
X0339Y0476D01*
Y04755D01*
X03385Y0475D01*
X0339Y04745D01*
Y0474D01*
X03385Y04735D01*
X03375D01*
X0337Y0474D01*
Y04745D01*
X03375Y0475D01*
X0337Y04755D01*
Y0476D01*
X03375Y0475D02*
X03385D01*
X026999Y0442D02*
X026949Y04425D01*
X026849D01*
X026799Y0442D01*
Y044D01*
X026849Y04395D01*
X026949D01*
X026999Y044D01*
X027099Y04425D02*
X027299D01*
Y0442D01*
X027099Y044D01*
Y04395D01*
X0246Y04895D02*
X02455Y049D01*
X02445D01*
X0244Y04895D01*
Y04875D01*
X02445Y0487D01*
X02455D01*
X0246Y04875D01*
X0249Y049D02*
X0248Y04895D01*
X0247Y04885D01*
Y04875D01*
X02475Y0487D01*
X02485D01*
X0249Y04875D01*
Y0488D01*
X02485Y04885D01*
X0247D01*
X036345Y02536D02*
X036295Y02541D01*
X036195D01*
X036145Y02536D01*
Y02516D01*
X036195Y02511D01*
X036295D01*
X036345Y02516D01*
X036645Y02541D02*
X036445D01*
Y02526D01*
X036545Y02531D01*
X036595D01*
X036645Y02526D01*
Y02516D01*
X036595Y02511D01*
X036495D01*
X036445Y02516D01*
X02415Y0371D02*
X0241Y03715D01*
X024D01*
X02395Y0371D01*
Y0369D01*
X024Y03685D01*
X0241D01*
X02415Y0369D01*
X0244Y03685D02*
Y03715D01*
X02425Y037D01*
X02445D01*
X0305Y039754D02*
X03045Y039804D01*
X03035D01*
X0303Y039754D01*
Y039554D01*
X03035Y039504D01*
X03045D01*
X0305Y039554D01*
X0306Y039754D02*
X03065Y039804D01*
X03075D01*
X0308Y039754D01*
Y039704D01*
X03075Y039654D01*
X0307D01*
X03075D01*
X0308Y039604D01*
Y039554D01*
X03075Y039504D01*
X03065D01*
X0306Y039554D01*
X02001Y04817D02*
X01996Y04822D01*
X01986D01*
X01981Y04817D01*
Y04797D01*
X01986Y04792D01*
X01996D01*
X02001Y04797D01*
X02031Y04792D02*
X02011D01*
X02031Y04812D01*
Y04817D01*
X02026Y04822D01*
X02016D01*
X02011Y04817D01*
X01745Y0475D02*
X0174Y04755D01*
X0173D01*
X01725Y0475D01*
Y0473D01*
X0173Y04725D01*
X0174D01*
X01745Y0473D01*
X01755Y04725D02*
X01765D01*
X0176D01*
Y04755D01*
X01755Y0475D01*
X03765Y02935D02*
Y02905D01*
X0378D01*
X03785Y0291D01*
Y02915D01*
X0378Y0292D01*
X03765D01*
X0378D01*
X03785Y02925D01*
Y0293D01*
X0378Y02935D01*
X03765D01*
X03795D02*
X03815D01*
X03805D01*
Y02905D01*
X03825D02*
Y02935D01*
X03845Y02905D01*
Y02935D01*
X03855Y02905D02*
X03865D01*
X0386D01*
Y02935D01*
X03855Y0293D01*
X04135Y02934D02*
Y02904D01*
X0415D01*
X04155Y02909D01*
Y02914D01*
X0415Y02919D01*
X04135D01*
X0415D01*
X04155Y02924D01*
Y02929D01*
X0415Y02934D01*
X04135D01*
X04165D02*
X04185D01*
X04175D01*
Y02904D01*
X04195D02*
Y02934D01*
X04215Y02904D01*
Y02934D01*
X04225Y02929D02*
X0423Y02934D01*
X0424D01*
X04245Y02929D01*
Y02909D01*
X0424Y02904D01*
X0423D01*
X04225Y02909D01*
Y02929D01*
X0286Y04925D02*
X0284D01*
Y0491D01*
X0285Y04915D01*
X02855D01*
X0286Y0491D01*
Y049D01*
X02855Y04895D01*
X02845D01*
X0284Y049D01*
X0287Y04925D02*
Y04905D01*
X0288Y04895D01*
X0289Y04905D01*
Y04925D01*
X0309Y046785D02*
X03095Y046835D01*
X03105D01*
X0311Y046785D01*
Y046735D01*
X03105Y046685D01*
X031D01*
X03105D01*
X0311Y046635D01*
Y046585D01*
X03105Y046535D01*
X03095D01*
X0309Y046585D01*
X0312Y046535D02*
Y046585D01*
X03125D01*
Y046535D01*
X0312D01*
X03145Y046785D02*
X0315Y046835D01*
X0316D01*
X03165Y046785D01*
Y046735D01*
X0316Y046685D01*
X03155D01*
X0316D01*
X03165Y046635D01*
Y046585D01*
X0316Y046535D01*
X0315D01*
X03145Y046585D01*
X03175Y046835D02*
Y046635D01*
X03185Y046535D01*
X03195Y046635D01*
Y046835D01*
D18*
X01911Y045908D02*
Y046892D01*
X016984D02*
X01911D01*
X016984Y046498D02*
Y046892D01*
X016885Y0464D02*
X016984Y046498D01*
X016885Y0464D02*
X016885D01*
X016885D02*
X016984Y046302D01*
X016984D01*
Y045908D02*
Y046302D01*
Y045908D02*
X01911D01*
X0126Y0407D02*
Y04365D01*
X0101D02*
X0131D01*
Y040684D02*
Y04365D01*
X0101Y040684D02*
X0131D01*
X0101D02*
Y04365D01*
X01665Y048767D02*
X016717Y0487D01*
X01685D01*
X016917Y048767D01*
Y049033D01*
X01685Y0491D01*
X016717D01*
X01665Y049033D01*
Y048967D01*
X016717Y0489D01*
X016917D01*
X01705D02*
X017316D01*
X01745Y0487D02*
X017583D01*
X017516D01*
Y0491D01*
X01745Y049033D01*
X01805Y0487D02*
X017783D01*
X01805Y048967D01*
Y049033D01*
X017983Y0491D01*
X01785D01*
X017783Y049033D01*
X018183Y0491D02*
Y048833D01*
X018316Y0487D01*
X018449Y048833D01*
Y0491D01*
D19*
X019208Y046105D02*
X019366D01*
X019287Y046026D02*
Y046183D01*
D20*
X022396Y029857D02*
X0224Y029766D01*
X022409Y029662D01*
X022417Y029557D01*
X022873Y028332D02*
X023027Y028186D01*
X023144Y028091D01*
X023469Y027891D02*
X023692Y027789D01*
X022384Y030198D02*
X022396Y029857D01*
X022723Y028541D02*
X022802Y028424D01*
X022873Y028332D01*
X022652Y028711D02*
X022723Y028541D01*
X023692Y027789D02*
X023982Y027686D01*
X022515Y02912D02*
X022527Y029066D01*
X022652Y028711D01*
X022417Y029557D02*
X02244Y029457D01*
X023144Y028091D02*
X023469Y027891D01*
X022477Y029286D02*
X022515Y02912D01*
X02244Y029457D02*
X022477Y029286D01*
D21*
X033867Y023333D02*
X03375Y02345D01*
X033517D01*
X0334Y023333D01*
Y022867D01*
X033517Y02275D01*
X03375D01*
X033867Y022867D01*
X0341Y02345D02*
Y02275D01*
Y0231D01*
X034566D01*
Y02345D01*
Y02275D01*
X0348Y02345D02*
X035033D01*
X034916D01*
Y02275D01*
X0348D01*
X035033D01*
X035849Y023333D02*
X035733Y02345D01*
X035499D01*
X035383Y023333D01*
Y022867D01*
X035499Y02275D01*
X035733D01*
X035849Y022867D01*
X036082Y02345D02*
Y02275D01*
Y022983D01*
X036549Y02345D01*
X036199Y0231D01*
X036549Y02275D01*
X037249Y02345D02*
X036782D01*
Y02275D01*
X037249D01*
X036782Y0231D02*
X037016D01*
X037482Y02275D02*
Y02345D01*
X037949Y02275D01*
Y02345D01*
X038882D02*
Y02275D01*
X039231D01*
X039348Y022867D01*
Y022983D01*
X039231Y0231D01*
X038882D01*
X039231D01*
X039348Y023217D01*
Y023333D01*
X039231Y02345D01*
X038882D01*
X039931D02*
X039698D01*
X039581Y023333D01*
Y022867D01*
X039698Y02275D01*
X039931D01*
X040048Y022867D01*
Y023333D01*
X039931Y02345D01*
X040281Y02275D02*
Y023217D01*
X040514Y02345D01*
X040748Y023217D01*
Y02275D01*
Y0231D01*
X040281D01*
X040981Y02275D02*
Y02345D01*
X041331D01*
X041447Y023333D01*
Y0231D01*
X041331Y022983D01*
X040981D01*
X041214D02*
X041447Y02275D01*
X041681Y02345D02*
Y02275D01*
X042031D01*
X042147Y022867D01*
Y023333D01*
X042031Y02345D01*
X041681D01*
X043547Y023333D02*
X04343Y02345D01*
X043197D01*
X04308Y023333D01*
Y022867D01*
X043197Y02275D01*
X04343D01*
X043547Y022867D01*
X044247Y02275D02*
X04378D01*
X044247Y023217D01*
Y023333D01*
X04413Y02345D01*
X043897D01*
X04378Y023333D01*
X044946Y02275D02*
X04448D01*
X044946Y023217D01*
Y023333D01*
X04483Y02345D01*
X044596D01*
X04448Y023333D01*
M02*
