M48
;Layer_Color=9474304
;FILE_FORMAT=2:4
INCH,LZ
;TYPE=PLATED
T1F00S00C0.0157
T2F00S00C0.0300
T3F00S00C0.0315
T4F00S00C0.0320
T5F00S00C0.0350
T6F00S00C0.0354
T7F00S00C0.0360
T8F00S00C0.0394
T9F00S00C0.0450
T11F00S00C0.0550
T12F00S00C0.1181
%
T01
X032Y022
X034
X036
X038
X04
X042
X044
X045Y024
X043
X041
X039
X037
X035
X033
X034Y026
X032
X033Y028
X0348Y0274
X03616
X03875
X04
X0426
X04395
X045Y028
X045233Y030435
X044Y03
X04175Y0301
X041881Y031214
X04Y03
X038
X037936Y031214
X036621
X0367Y03
X035346Y030894
X034Y03
X032
X042Y026
X03Y022
X028
X026
X024
X022
X02
X018
X019Y024
X021
X023
X025
X024Y026
X022
X02
X01765Y02595
X016Y026
X017Y028
X016Y03
X018336Y030473
X019464Y030543
X019464Y029228
X021Y028
X023
X025
X026Y03
X024
X022
X017Y024
X015
X013
X014Y026
X012
X013Y028
X015
X014Y03
X013Y032
X015436Y031768
X014Y034
X012
Y038
X013Y04
X014742Y039541
X01555Y03869
X015Y036
X012Y042
X013Y044
X014Y046
X016
X018
X017921Y045298
X018165Y044006
X019391Y044481
X019562Y045785
X020875Y045861
X022146Y045523
X022836Y045378
X024Y046
X024019Y044211
X025Y044
X025214Y045283
X025989Y044921
X027217Y043966
X028452Y043949
X029767Y043966
X029548Y042586
X029322Y041807
X028178Y041797
X0281Y0426
X026918Y042586
X025604
X024444Y041672
X02515Y040015
X025491Y0394
X025592Y038635
X023536Y03865
X02189Y039192
X02282Y040122
X020894Y040892
X022Y042
X02275Y043117
X02335Y04315
X021Y044
X021665Y046747
X025214Y046598
X028Y046
X03035Y04615
X030697Y044895
X03074Y043142
X030056Y04125
X027404Y041179
X028393Y038783
X027889Y037512
X0281Y036216
X02975Y035862
X03Y034
X02855Y034056
X02735Y033526
X026Y034
X024
X022
X023Y032
X025
X027
X029
X031
X030737Y03785
X03015Y03775
X0251Y03685
X02175Y037042
X0197Y037886
X019182Y038886
X019Y04
X017
X015969Y040014
X016552Y038886
X017867
X018Y038
X016
X01673Y03557
X017414Y0361
X01905Y03636
X018Y034
X018326Y03277
X019Y032
X017819Y031682
X01677Y03146
X015933Y032986
X016Y034
X021Y032
X033
X035
X032Y034
X0325Y0369
X03175Y03745
X032Y038
X033481Y037921
X032947Y039123
Y040438
Y041753
X034076Y041488
Y042803
X035Y044
X03521Y044786
X036525
X037Y044
X039
X038653Y042905
X039968
X041283
X042598
X043913
X0449Y04305
X045Y044
X044405Y044847
X045264Y045585
X046107Y044575
X046114Y04326
Y041946
Y040631
Y039316
Y038001
Y036686
Y035371
Y034056
X044986Y0342
Y033
X045Y032
X044508Y031306
X046097Y031426
X046114Y032741
X045Y036
Y0375
X044Y038
X042
X0417Y036065
X042Y034
X04
X039Y036
X037
X03775Y0372
X03521Y037877
X03488Y039192
X035259Y040914
X036499Y040477
X037Y04
X037464Y042345
X039064Y04133
X041336Y040947
X042356Y041776
X043671
X044986Y041736
X045Y04
X043
Y044
X041
X040338Y045536
X039023Y045526
X037724Y045325
X037713Y046664
X036Y046
X035294Y046664
X033454Y046726
X032106Y04635
X03167Y044071
X032947Y044383
X034411Y036991
X041536Y046078
X042546Y046706
X043475Y045776
X044334Y046515
X043404Y047444
X042474Y048374
X041544Y049304
X041164Y047691
X039Y048
X037
X036814Y049136
X038129
X033454Y048041
X032213Y04884
X031Y048
X03101Y047121
X02915Y048512
X029846Y04965
X028224Y049663
X026797
X025398Y04945
X02595Y0471
X024019Y047538
X021Y048
X019
X017
X015
X013
T02
X03585Y03535
Y03635
Y03735
Y03835
Y03935
Y04035
Y04135
Y04235
Y04335
Y04435
Y04535
T03
X02685Y0298
X02785
X02885
X02985
Y0328
X02885
X02785
X02685
T04
X0148Y04175
Y04275
T05
X01895Y026
Y027
Y028
X01595Y031
X01495
X01395
X0377Y0389
X0387
X0397
X0407
X0417
X0427
X0437
X0447
T06
X0162Y022
Y024
X0137
Y022
X03945Y033566
Y03455
Y035534
X04075
Y03455
Y033566
T07
X010884Y03712
X011884
X012884
X013884
X014884
X015884
X0176
X01861
X01959
X0206
X01985Y0411
Y04211
Y04309
X0171Y04308
Y0421
Y04109
X04395Y037
Y036
Y035
Y034
Y033
Y032
X04166Y047
X04065
X04064Y0484
X04165
X03589Y049
X03488
X0339
X03289
T08
X03422Y026564
Y028336
X03678
X03812
Y026564
X03678
X04068
X041987
Y028336
X04068
X044546
Y026564
T09
X0116Y041472
Y04285
T11
X01795Y024375
Y029625
X01195
Y024375
T12
X04475Y0213
X0113
X04475Y04835
X0113
M30
