G04*
G04 #@! TF.GenerationSoftware,Altium Limited,Altium Designer,18.1.6 (161)*
G04*
G04 Layer_Color=2752767*
%FSTAX24Y24*%
%MOIN*%
G70*
G01*
G75*
%ADD94C,0.0020*%
%ADD95C,0.0027*%
%ADD96C,0.0013*%
D94*
X03414Y028256D02*
Y028416D01*
X0343D01*
Y028256D01*
X03414D01*
Y026484D02*
Y026644D01*
X0343D01*
Y026484D01*
X03414D01*
X0367Y028256D02*
Y028416D01*
X03686D01*
Y028256D01*
X0367D01*
Y026484D02*
Y026644D01*
X03686D01*
Y026484D01*
X0367D01*
X03804Y028206D02*
Y028366D01*
X0382D01*
Y028206D01*
X03804D01*
Y026434D02*
Y026594D01*
X0382D01*
Y026434D01*
X03804D01*
X0406Y028206D02*
Y028366D01*
X04076D01*
Y028206D01*
X0406D01*
Y026434D02*
Y026594D01*
X04076D01*
Y026434D01*
X0406D01*
X044466Y026484D02*
Y026644D01*
X044626D01*
Y026484D01*
X044466D01*
Y028256D02*
Y028416D01*
X044626D01*
Y028256D01*
X044466D01*
X041907Y026484D02*
Y026644D01*
X042067D01*
Y026484D01*
X041907D01*
Y028256D02*
Y028416D01*
X042067D01*
Y028256D01*
X041907D01*
X04395Y03592D02*
X04387Y03608D01*
X04403D01*
X04395Y03592D01*
Y03192D02*
X04387Y03208D01*
X04403D01*
X04395Y03192D01*
Y03292D02*
X04387Y03308D01*
X04403D01*
X04395Y03292D01*
Y03392D02*
X04387Y03408D01*
X04403D01*
X04395Y03392D01*
Y03492D02*
X04387Y03508D01*
X04403D01*
X04395Y03492D01*
Y03692D02*
X04387Y03708D01*
X04403D01*
X04395Y03692D01*
X04075Y033486D02*
X04079Y033526D01*
X04083D01*
X04079Y033566D01*
X04083Y033606D01*
X04079D01*
X04075Y033646D01*
X04071Y033606D01*
X04067D01*
X04071Y033566D01*
X04067Y033526D01*
X04071D01*
X04075Y033486D01*
Y03447D02*
X04079Y03451D01*
X04083D01*
X04079Y03455D01*
X04083Y03459D01*
X04079D01*
X04075Y03463D01*
X04071Y03459D01*
X04067D01*
X04071Y03455D01*
X04067Y03451D01*
X04071D01*
X04075Y03447D01*
Y035454D02*
X04079Y035494D01*
X04083D01*
X04079Y035534D01*
X04083Y035574D01*
X04079D01*
X04075Y035614D01*
X04071Y035574D01*
X04067D01*
X04071Y035534D01*
X04067Y035494D01*
X04071D01*
X04075Y035454D01*
X03945Y033486D02*
X03949Y033526D01*
X03953D01*
X03949Y033566D01*
X03953Y033606D01*
X03949D01*
X03945Y033646D01*
X03941Y033606D01*
X03937D01*
X03941Y033566D01*
X03937Y033526D01*
X03941D01*
X03945Y033486D01*
Y03447D02*
X03949Y03451D01*
X03953D01*
X03949Y03455D01*
X03953Y03459D01*
X03949D01*
X03945Y03463D01*
X03941Y03459D01*
X03937D01*
X03941Y03455D01*
X03937Y03451D01*
X03941D01*
X03945Y03447D01*
Y035454D02*
X03949Y035494D01*
X03953D01*
X03949Y035534D01*
X03953Y035574D01*
X03949D01*
X03945Y035614D01*
X03941Y035574D01*
X03937D01*
X03941Y035534D01*
X03937Y035494D01*
X03941D01*
X03945Y035454D01*
X04065Y04692D02*
X04057Y04708D01*
X04073D01*
X04065Y04692D01*
X04166D02*
X04158Y04708D01*
X04174D01*
X04166Y04692D01*
X04064Y04832D02*
X04056Y04848D01*
X04072D01*
X04064Y04832D01*
X04165D02*
X04157Y04848D01*
X04173D01*
X04165Y04832D01*
X03289Y04892D02*
X03281Y04908D01*
X03297D01*
X03289Y04892D01*
X0339D02*
X03382Y04908D01*
X03398D01*
X0339Y04892D01*
X03488D02*
X0348Y04908D01*
X03496D01*
X03488Y04892D01*
X03589D02*
X03581Y04908D01*
X03597D01*
X03589Y04892D01*
X02129Y03704D02*
X02121Y0372D01*
X02137D01*
X02129Y03704D01*
X02028D02*
X0202Y0372D01*
X02036D01*
X02028Y03704D01*
X0193D02*
X01922Y0372D01*
X01938D01*
X0193Y03704D01*
X01829D02*
X01821Y0372D01*
X01837D01*
X01829Y03704D01*
X01472Y04167D02*
X01476Y04175D01*
X01472Y04183D01*
X0148Y04179D01*
X01488Y04183D01*
X01484Y04175D01*
X01488Y04167D01*
X0148Y04171D01*
X01472Y04167D01*
Y04267D02*
X01476Y04275D01*
X01472Y04283D01*
X0148Y04279D01*
X01488Y04283D01*
X01484Y04275D01*
X01488Y04267D01*
X0148Y04271D01*
X01472Y04267D01*
X01105Y03704D02*
X01097Y0372D01*
X01113D01*
X01105Y03704D01*
X01205D02*
X01197Y0372D01*
X01213D01*
X01205Y03704D01*
X01305D02*
X01297Y0372D01*
X01313D01*
X01305Y03704D01*
X01405D02*
X01397Y0372D01*
X01413D01*
X01405Y03704D01*
X01505D02*
X01497Y0372D01*
X01513D01*
X01505Y03704D01*
X01605D02*
X01597Y0372D01*
X01613D01*
X01605Y03704D01*
X020425Y04101D02*
X020345Y04117D01*
X020505D01*
X020425Y04101D01*
Y04202D02*
X020345Y04218D01*
X020505D01*
X020425Y04202D01*
Y043D02*
X020345Y04316D01*
X020505D01*
X020425Y043D01*
X0171Y04101D02*
X01702Y04117D01*
X01718D01*
X0171Y04101D01*
Y04202D02*
X01702Y04218D01*
X01718D01*
X0171Y04202D01*
Y043D02*
X01702Y04316D01*
X01718D01*
X0171Y043D01*
X03581Y04531D02*
Y04527D01*
X03589D01*
Y04531D01*
X03593D01*
Y04539D01*
X03589D01*
Y04543D01*
X03581D01*
Y04539D01*
X03577D01*
Y04531D01*
X03581D01*
Y04431D02*
Y04427D01*
X03589D01*
Y04431D01*
X03593D01*
Y04439D01*
X03589D01*
Y04443D01*
X03581D01*
Y04439D01*
X03577D01*
Y04431D01*
X03581D01*
Y04331D02*
Y04327D01*
X03589D01*
Y04331D01*
X03593D01*
Y04339D01*
X03589D01*
Y04343D01*
X03581D01*
Y04339D01*
X03577D01*
Y04331D01*
X03581D01*
Y04231D02*
Y04227D01*
X03589D01*
Y04231D01*
X03593D01*
Y04239D01*
X03589D01*
Y04243D01*
X03581D01*
Y04239D01*
X03577D01*
Y04231D01*
X03581D01*
Y04131D02*
Y04127D01*
X03589D01*
Y04131D01*
X03593D01*
Y04139D01*
X03589D01*
Y04143D01*
X03581D01*
Y04139D01*
X03577D01*
Y04131D01*
X03581D01*
Y04031D02*
Y04027D01*
X03589D01*
Y04031D01*
X03593D01*
Y04039D01*
X03589D01*
Y04043D01*
X03581D01*
Y04039D01*
X03577D01*
Y04031D01*
X03581D01*
Y03931D02*
Y03927D01*
X03589D01*
Y03931D01*
X03593D01*
Y03939D01*
X03589D01*
Y03943D01*
X03581D01*
Y03939D01*
X03577D01*
Y03931D01*
X03581D01*
Y03831D02*
Y03827D01*
X03589D01*
Y03831D01*
X03593D01*
Y03839D01*
X03589D01*
Y03843D01*
X03581D01*
Y03839D01*
X03577D01*
Y03831D01*
X03581D01*
Y03731D02*
Y03727D01*
X03589D01*
Y03731D01*
X03593D01*
Y03739D01*
X03589D01*
Y03743D01*
X03581D01*
Y03739D01*
X03577D01*
Y03731D01*
X03581D01*
Y03631D02*
Y03627D01*
X03589D01*
Y03631D01*
X03593D01*
Y03639D01*
X03589D01*
Y03643D01*
X03581D01*
Y03639D01*
X03577D01*
Y03631D01*
X03581D01*
Y03531D02*
Y03527D01*
X03589D01*
Y03531D01*
X03593D01*
Y03539D01*
X03589D01*
Y03543D01*
X03581D01*
Y03539D01*
X03577D01*
Y03531D01*
X03581D01*
X01152Y041392D02*
X01156D01*
X0116Y041432D01*
X01164Y041392D01*
X01168D01*
Y041432D01*
X01164Y041472D01*
X01168Y041512D01*
Y041552D01*
X01164D01*
X0116Y041512D01*
X01156Y041552D01*
X01152D01*
Y041512D01*
X01156Y041472D01*
X01152Y041432D01*
Y041392D01*
Y04277D02*
X01156D01*
X0116Y04281D01*
X01164Y04277D01*
X01168D01*
Y04281D01*
X01164Y04285D01*
X01168Y04289D01*
Y04293D01*
X01164D01*
X0116Y04289D01*
X01156Y04293D01*
X01152D01*
Y04289D01*
X01156Y04285D01*
X01152Y04281D01*
Y04277D01*
X01257Y04575D02*
X01265Y04583D01*
X01273Y04575D01*
X01265Y04567D01*
X01257Y04575D01*
X01457Y04725D02*
X01465Y04733D01*
X01473Y04725D01*
X01465Y04717D01*
X01457Y04725D01*
Y04475D02*
X01465Y04483D01*
X01473Y04475D01*
X01465Y04467D01*
X01457Y04475D01*
X03762Y03882D02*
Y03898D01*
X03778D01*
Y03882D01*
X03762D01*
X03766Y03886D02*
Y03894D01*
X03774D01*
Y03886D01*
X03766D01*
X03862Y03882D02*
Y03898D01*
X03878D01*
Y03882D01*
X03862D01*
X03866Y03886D02*
Y03894D01*
X03874D01*
Y03886D01*
X03866D01*
X03962Y03882D02*
Y03898D01*
X03978D01*
Y03882D01*
X03962D01*
X03966Y03886D02*
Y03894D01*
X03974D01*
Y03886D01*
X03966D01*
X04062Y03882D02*
Y03898D01*
X04078D01*
Y03882D01*
X04062D01*
X04066Y03886D02*
Y03894D01*
X04074D01*
Y03886D01*
X04066D01*
X04162Y03882D02*
Y03898D01*
X04178D01*
Y03882D01*
X04162D01*
X04166Y03886D02*
Y03894D01*
X04174D01*
Y03886D01*
X04166D01*
X04262Y03882D02*
Y03898D01*
X04278D01*
Y03882D01*
X04262D01*
X04266Y03886D02*
Y03894D01*
X04274D01*
Y03886D01*
X04266D01*
X04362Y03882D02*
Y03898D01*
X04378D01*
Y03882D01*
X04362D01*
X04366Y03886D02*
Y03894D01*
X04374D01*
Y03886D01*
X04366D01*
X04462Y03882D02*
Y03898D01*
X04478D01*
Y03882D01*
X04462D01*
X04466Y03886D02*
Y03894D01*
X04474D01*
Y03886D01*
X04466D01*
X01887Y02792D02*
Y02808D01*
X01903D01*
Y02792D01*
X01887D01*
X01891Y02796D02*
Y02804D01*
X01899D01*
Y02796D01*
X01891D01*
X01887Y02692D02*
Y02708D01*
X01903D01*
Y02692D01*
X01887D01*
X01891Y02696D02*
Y02704D01*
X01899D01*
Y02696D01*
X01891D01*
X01887Y02592D02*
Y02608D01*
X01903D01*
Y02592D01*
X01887D01*
X01891Y02596D02*
Y02604D01*
X01899D01*
Y02596D01*
X01891D01*
X01387Y03092D02*
Y03108D01*
X01403D01*
Y03092D01*
X01387D01*
X01391Y03096D02*
Y03104D01*
X01399D01*
Y03096D01*
X01391D01*
X01487Y03092D02*
Y03108D01*
X01503D01*
Y03092D01*
X01487D01*
X01491Y03096D02*
Y03104D01*
X01499D01*
Y03096D01*
X01491D01*
X01587Y03092D02*
Y03108D01*
X01603D01*
Y03092D01*
X01587D01*
X01591Y03096D02*
Y03104D01*
X01599D01*
Y03096D01*
X01591D01*
X0137Y02392D02*
X01374Y02396D01*
X01378D01*
X01374Y024D01*
X01378Y02404D01*
X01374D01*
X0137Y02408D01*
X01366Y02404D01*
X01362D01*
X01366Y024D01*
X01362Y02396D01*
X01366D01*
X0137Y02392D01*
X0162D02*
X01624Y02396D01*
X01628D01*
X01624Y024D01*
X01628Y02404D01*
X01624D01*
X0162Y02408D01*
X01616Y02404D01*
X01612D01*
X01616Y024D01*
X01612Y02396D01*
X01616D01*
X0162Y02392D01*
X0137Y02192D02*
X01374Y02196D01*
X01378D01*
X01374Y022D01*
X01378Y02204D01*
X01374D01*
X0137Y02208D01*
X01366Y02204D01*
X01362D01*
X01366Y022D01*
X01362Y02196D01*
X01366D01*
X0137Y02192D01*
X0162D02*
X01624Y02196D01*
X01628D01*
X01624Y022D01*
X01628Y02204D01*
X01624D01*
X0162Y02208D01*
X01616Y02204D01*
X01612D01*
X01616Y022D01*
X01612Y02196D01*
X01616D01*
X0162Y02192D01*
X0113Y02122D02*
X01122Y02138D01*
X01138D01*
X0113Y02122D01*
Y02126D02*
X01126Y02134D01*
X01134D01*
X0113Y02126D01*
X04475Y02122D02*
X04467Y02138D01*
X04483D01*
X04475Y02122D01*
Y02126D02*
X04471Y02134D01*
X04479D01*
X04475Y02126D01*
Y04827D02*
X04467Y04843D01*
X04483D01*
X04475Y04827D01*
Y04831D02*
X04471Y04839D01*
X04479D01*
X04475Y04831D01*
X0113Y04827D02*
X01122Y04843D01*
X01138D01*
X0113Y04827D01*
Y04831D02*
X01126Y04839D01*
X01134D01*
X0113Y04831D01*
X0281Y036136D02*
X02814Y036176D01*
X02818D01*
X02814Y036216D01*
X02818Y036256D01*
X02814D01*
X0281Y036296D01*
X02806Y036256D01*
X02802D01*
X02806Y036216D01*
X02802Y036176D01*
X02806D01*
X0281Y036136D01*
Y036176D02*
X02812Y036196D01*
X02814D01*
X02812Y036216D01*
X02814Y036236D01*
X02812D01*
X0281Y036256D01*
X02808Y036236D01*
X02806D01*
X02808Y036216D01*
X02806Y036196D01*
X02808D01*
X0281Y036176D01*
X028393Y038703D02*
X028433Y038743D01*
X028473D01*
X028433Y038783D01*
X028473Y038823D01*
X028433D01*
X028393Y038863D01*
X028353Y038823D01*
X028313D01*
X028353Y038783D01*
X028313Y038743D01*
X028353D01*
X028393Y038703D01*
Y038743D02*
X028413Y038763D01*
X028433D01*
X028413Y038783D01*
X028433Y038803D01*
X028413D01*
X028393Y038823D01*
X028373Y038803D01*
X028353D01*
X028373Y038783D01*
X028353Y038763D01*
X028373D01*
X028393Y038743D01*
X0256Y040435D02*
X02564Y040475D01*
X02568D01*
X02564Y040515D01*
X02568Y040555D01*
X02564D01*
X0256Y040595D01*
X02556Y040555D01*
X02552D01*
X02556Y040515D01*
X02552Y040475D01*
X02556D01*
X0256Y040435D01*
Y040475D02*
X02562Y040495D01*
X02564D01*
X02562Y040515D01*
X02564Y040535D01*
X02562D01*
X0256Y040555D01*
X02558Y040535D01*
X02556D01*
X02558Y040515D01*
X02556Y040495D01*
X02558D01*
X0256Y040475D01*
X02583Y04967D02*
X02587Y04971D01*
X02591D01*
X02587Y04975D01*
X02591Y04979D01*
X02587D01*
X02583Y04983D01*
X02579Y04979D01*
X02575D01*
X02579Y04975D01*
X02575Y04971D01*
X02579D01*
X02583Y04967D01*
Y04971D02*
X02585Y04973D01*
X02587D01*
X02585Y04975D01*
X02587Y04977D01*
X02585D01*
X02583Y04979D01*
X02581Y04977D01*
X02579D01*
X02581Y04975D01*
X02579Y04973D01*
X02581D01*
X02583Y04971D01*
X025146Y048899D02*
X025186Y048939D01*
X025226D01*
X025186Y048979D01*
X025226Y049019D01*
X025186D01*
X025146Y049059D01*
X025106Y049019D01*
X025066D01*
X025106Y048979D01*
X025066Y048939D01*
X025106D01*
X025146Y048899D01*
Y048939D02*
X025166Y048959D01*
X025186D01*
X025166Y048979D01*
X025186Y048999D01*
X025166D01*
X025146Y049019D01*
X025126Y048999D01*
X025106D01*
X025126Y048979D01*
X025106Y048959D01*
X025126D01*
X025146Y048939D01*
X02358Y046799D02*
X02362Y046839D01*
X02366D01*
X02362Y046879D01*
X02366Y046919D01*
X02362D01*
X02358Y046959D01*
X02354Y046919D01*
X0235D01*
X02354Y046879D01*
X0235Y046839D01*
X02354D01*
X02358Y046799D01*
Y046839D02*
X0236Y046859D01*
X02362D01*
X0236Y046879D01*
X02362Y046899D01*
X0236D01*
X02358Y046919D01*
X02356Y046899D01*
X02354D01*
X02356Y046879D01*
X02354Y046859D01*
X02356D01*
X02358Y046839D01*
X022836Y045715D02*
X022876Y045755D01*
X022916D01*
X022876Y045795D01*
X022916Y045835D01*
X022876D01*
X022836Y045875D01*
X022796Y045835D01*
X022756D01*
X022796Y045795D01*
X022756Y045755D01*
X022796D01*
X022836Y045715D01*
Y045755D02*
X022856Y045775D01*
X022876D01*
X022856Y045795D01*
X022876Y045815D01*
X022856D01*
X022836Y045835D01*
X022816Y045815D01*
X022796D01*
X022816Y045795D01*
X022796Y045775D01*
X022816D01*
X022836Y045755D01*
X022786Y043089D02*
X022826Y043129D01*
X022866D01*
X022826Y043169D01*
X022866Y043209D01*
X022826D01*
X022786Y043249D01*
X022746Y043209D01*
X022706D01*
X022746Y043169D01*
X022706Y043129D01*
X022746D01*
X022786Y043089D01*
Y043129D02*
X022806Y043149D01*
X022826D01*
X022806Y043169D01*
X022826Y043189D01*
X022806D01*
X022786Y043209D01*
X022766Y043189D01*
X022746D01*
X022766Y043169D01*
X022746Y043149D01*
X022766D01*
X022786Y043129D01*
X021139Y041057D02*
X021179Y041097D01*
X021219D01*
X021179Y041137D01*
X021219Y041177D01*
X021179D01*
X021139Y041217D01*
X021099Y041177D01*
X021059D01*
X021099Y041137D01*
X021059Y041097D01*
X021099D01*
X021139Y041057D01*
Y041097D02*
X021159Y041117D01*
X021179D01*
X021159Y041137D01*
X021179Y041157D01*
X021159D01*
X021139Y041177D01*
X021119Y041157D01*
X021099D01*
X021119Y041137D01*
X021099Y041117D01*
X021119D01*
X021139Y041097D01*
X020209Y040127D02*
X020249Y040167D01*
X020289D01*
X020249Y040207D01*
X020289Y040247D01*
X020249D01*
X020209Y040287D01*
X020169Y040247D01*
X020129D01*
X020169Y040207D01*
X020129Y040167D01*
X020169D01*
X020209Y040127D01*
Y040167D02*
X020229Y040187D01*
X020249D01*
X020229Y040207D01*
X020249Y040227D01*
X020229D01*
X020209Y040247D01*
X020189Y040227D01*
X020169D01*
X020189Y040207D01*
X020169Y040187D01*
X020189D01*
X020209Y040167D01*
X017593Y039934D02*
X017633Y039974D01*
X017673D01*
X017633Y040014D01*
X017673Y040054D01*
X017633D01*
X017593Y040094D01*
X017553Y040054D01*
X017513D01*
X017553Y040014D01*
X017513Y039974D01*
X017553D01*
X017593Y039934D01*
Y039974D02*
X017613Y039994D01*
X017633D01*
X017613Y040014D01*
X017633Y040034D01*
X017613D01*
X017593Y040054D01*
X017573Y040034D01*
X017553D01*
X017573Y040014D01*
X017553Y039994D01*
X017573D01*
X017593Y039974D01*
X016278Y039934D02*
X016318Y039974D01*
X016358D01*
X016318Y040014D01*
X016358Y040054D01*
X016318D01*
X016278Y040094D01*
X016238Y040054D01*
X016198D01*
X016238Y040014D01*
X016198Y039974D01*
X016238D01*
X016278Y039934D01*
Y039974D02*
X016298Y039994D01*
X016318D01*
X016298Y040014D01*
X016318Y040034D01*
X016298D01*
X016278Y040054D01*
X016258Y040034D01*
X016238D01*
X016258Y040014D01*
X016238Y039994D01*
X016258D01*
X016278Y039974D01*
X015101Y03935D02*
X015141Y03939D01*
X015181D01*
X015141Y03943D01*
X015181Y03947D01*
X015141D01*
X015101Y03951D01*
X015061Y03947D01*
X015021D01*
X015061Y03943D01*
X015021Y03939D01*
X015061D01*
X015101Y03935D01*
Y03939D02*
X015121Y03941D01*
X015141D01*
X015121Y03943D01*
X015141Y03945D01*
X015121D01*
X015101Y03947D01*
X015081Y03945D01*
X015061D01*
X015081Y03943D01*
X015061Y03941D01*
X015081D01*
X015101Y03939D01*
X015637Y038105D02*
X015677Y038145D01*
X015717D01*
X015677Y038185D01*
X015717Y038225D01*
X015677D01*
X015637Y038265D01*
X015597Y038225D01*
X015557D01*
X015597Y038185D01*
X015557Y038145D01*
X015597D01*
X015637Y038105D01*
Y038145D02*
X015657Y038165D01*
X015677D01*
X015657Y038185D01*
X015677Y038205D01*
X015657D01*
X015637Y038225D01*
X015617Y038205D01*
X015597D01*
X015617Y038185D01*
X015597Y038165D01*
X015617D01*
X015637Y038145D01*
X01675Y038806D02*
X01679Y038846D01*
X01683D01*
X01679Y038886D01*
X01683Y038926D01*
X01679D01*
X01675Y038966D01*
X01671Y038926D01*
X01667D01*
X01671Y038886D01*
X01667Y038846D01*
X01671D01*
X01675Y038806D01*
Y038846D02*
X01677Y038866D01*
X01679D01*
X01677Y038886D01*
X01679Y038906D01*
X01677D01*
X01675Y038926D01*
X01673Y038906D01*
X01671D01*
X01673Y038886D01*
X01671Y038866D01*
X01673D01*
X01675Y038846D01*
X025889Y042506D02*
X025929Y042546D01*
X025969D01*
X025929Y042586D01*
X025969Y042626D01*
X025929D01*
X025889Y042666D01*
X025849Y042626D01*
X025809D01*
X025849Y042586D01*
X025809Y042546D01*
X025849D01*
X025889Y042506D01*
Y042546D02*
X025909Y042566D01*
X025929D01*
X025909Y042586D01*
X025929Y042606D01*
X025909D01*
X025889Y042626D01*
X025869Y042606D01*
X025849D01*
X025869Y042586D01*
X025849Y042566D01*
X025869D01*
X025889Y042546D01*
X027204Y042506D02*
X027244Y042546D01*
X027284D01*
X027244Y042586D01*
X027284Y042626D01*
X027244D01*
X027204Y042666D01*
X027164Y042626D01*
X027124D01*
X027164Y042586D01*
X027124Y042546D01*
X027164D01*
X027204Y042506D01*
Y042546D02*
X027224Y042566D01*
X027244D01*
X027224Y042586D01*
X027244Y042606D01*
X027224D01*
X027204Y042626D01*
X027184Y042606D01*
X027164D01*
X027184Y042586D01*
X027164Y042566D01*
X027184D01*
X027204Y042546D01*
X029834Y042506D02*
X029874Y042546D01*
X029914D01*
X029874Y042586D01*
X029914Y042626D01*
X029874D01*
X029834Y042666D01*
X029794Y042626D01*
X029754D01*
X029794Y042586D01*
X029754Y042546D01*
X029794D01*
X029834Y042506D01*
Y042546D02*
X029854Y042566D01*
X029874D01*
X029854Y042586D01*
X029874Y042606D01*
X029854D01*
X029834Y042626D01*
X029814Y042606D01*
X029794D01*
X029814Y042586D01*
X029794Y042566D01*
X029814D01*
X029834Y042546D01*
X030922Y043244D02*
X030962Y043284D01*
X031002D01*
X030962Y043324D01*
X031002Y043364D01*
X030962D01*
X030922Y043404D01*
X030882Y043364D01*
X030842D01*
X030882Y043324D01*
X030842Y043284D01*
X030882D01*
X030922Y043244D01*
Y043284D02*
X030942Y043304D01*
X030962D01*
X030942Y043324D01*
X030962Y043344D01*
X030942D01*
X030922Y043364D01*
X030902Y043344D01*
X030882D01*
X030902Y043324D01*
X030882Y043304D01*
X030902D01*
X030922Y043284D01*
X031852Y044174D02*
X031892Y044214D01*
X031932D01*
X031892Y044254D01*
X031932Y044294D01*
X031892D01*
X031852Y044334D01*
X031812Y044294D01*
X031772D01*
X031812Y044254D01*
X031772Y044214D01*
X031812D01*
X031852Y044174D01*
Y044214D02*
X031872Y044234D01*
X031892D01*
X031872Y044254D01*
X031892Y044274D01*
X031872D01*
X031852Y044294D01*
X031832Y044274D01*
X031812D01*
X031832Y044254D01*
X031812Y044234D01*
X031832D01*
X031852Y044214D01*
X033054Y044706D02*
X033094Y044746D01*
X033134D01*
X033094Y044786D01*
X033134Y044826D01*
X033094D01*
X033054Y044866D01*
X033014Y044826D01*
X032974D01*
X033014Y044786D01*
X032974Y044746D01*
X033014D01*
X033054Y044706D01*
Y044746D02*
X033074Y044766D01*
X033094D01*
X033074Y044786D01*
X033094Y044806D01*
X033074D01*
X033054Y044826D01*
X033034Y044806D01*
X033014D01*
X033034Y044786D01*
X033014Y044766D01*
X033034D01*
X033054Y044746D01*
X034386Y038687D02*
X034426Y038727D01*
X034466D01*
X034426Y038767D01*
X034466Y038807D01*
X034426D01*
X034386Y038847D01*
X034346Y038807D01*
X034306D01*
X034346Y038767D01*
X034306Y038727D01*
X034346D01*
X034386Y038687D01*
Y038727D02*
X034406Y038747D01*
X034426D01*
X034406Y038767D01*
X034426Y038787D01*
X034406D01*
X034386Y038807D01*
X034366Y038787D01*
X034346D01*
X034366Y038767D01*
X034346Y038747D01*
X034366D01*
X034386Y038727D01*
Y037372D02*
X034426Y037412D01*
X034466D01*
X034426Y037452D01*
X034466Y037492D01*
X034426D01*
X034386Y037532D01*
X034346Y037492D01*
X034306D01*
X034346Y037452D01*
X034306Y037412D01*
X034346D01*
X034386Y037372D01*
Y037412D02*
X034406Y037432D01*
X034426D01*
X034406Y037452D01*
X034426Y037472D01*
X034406D01*
X034386Y037492D01*
X034366Y037472D01*
X034346D01*
X034366Y037452D01*
X034346Y037432D01*
X034366D01*
X034386Y037412D01*
X036904Y040425D02*
X036944Y040465D01*
X036984D01*
X036944Y040505D01*
X036984Y040545D01*
X036944D01*
X036904Y040585D01*
X036864Y040545D01*
X036824D01*
X036864Y040505D01*
X036824Y040465D01*
X036864D01*
X036904Y040425D01*
Y040465D02*
X036924Y040485D01*
X036944D01*
X036924Y040505D01*
X036944Y040525D01*
X036924D01*
X036904Y040545D01*
X036884Y040525D01*
X036864D01*
X036884Y040505D01*
X036864Y040485D01*
X036884D01*
X036904Y040465D01*
X037314Y042989D02*
X037354Y043029D01*
X037394D01*
X037354Y043069D01*
X037394Y043109D01*
X037354D01*
X037314Y043149D01*
X037274Y043109D01*
X037234D01*
X037274Y043069D01*
X037234Y043029D01*
X037274D01*
X037314Y042989D01*
Y043029D02*
X037334Y043049D01*
X037354D01*
X037334Y043069D01*
X037354Y043089D01*
X037334D01*
X037314Y043109D01*
X037294Y043089D01*
X037274D01*
X037294Y043069D01*
X037274Y043049D01*
X037294D01*
X037314Y043029D01*
Y044304D02*
X037354Y044344D01*
X037394D01*
X037354Y044384D01*
X037394Y044424D01*
X037354D01*
X037314Y044464D01*
X037274Y044424D01*
X037234D01*
X037274Y044384D01*
X037234Y044344D01*
X037274D01*
X037314Y044304D01*
Y044344D02*
X037334Y044364D01*
X037354D01*
X037334Y044384D01*
X037354Y044404D01*
X037334D01*
X037314Y044424D01*
X037294Y044404D01*
X037274D01*
X037294Y044384D01*
X037274Y044364D01*
X037294D01*
X037314Y044344D01*
X03795Y045456D02*
X03799Y045496D01*
X03803D01*
X03799Y045536D01*
X03803Y045576D01*
X03799D01*
X03795Y045616D01*
X03791Y045576D01*
X03787D01*
X03791Y045536D01*
X03787Y045496D01*
X03791D01*
X03795Y045456D01*
Y045496D02*
X03797Y045516D01*
X03799D01*
X03797Y045536D01*
X03799Y045556D01*
X03797D01*
X03795Y045576D01*
X03793Y045556D01*
X03791D01*
X03793Y045536D01*
X03791Y045516D01*
X03793D01*
X03795Y045496D01*
X039264Y045409D02*
X039304Y045449D01*
X039344D01*
X039304Y045489D01*
X039344Y045529D01*
X039304D01*
X039264Y045569D01*
X039224Y045529D01*
X039184D01*
X039224Y045489D01*
X039184Y045449D01*
X039224D01*
X039264Y045409D01*
Y045449D02*
X039284Y045469D01*
X039304D01*
X039284Y045489D01*
X039304Y045509D01*
X039284D01*
X039264Y045529D01*
X039244Y045509D01*
X039224D01*
X039244Y045489D01*
X039224Y045469D01*
X039244D01*
X039264Y045449D01*
X040578Y045456D02*
X040618Y045496D01*
X040658D01*
X040618Y045536D01*
X040658Y045576D01*
X040618D01*
X040578Y045616D01*
X040538Y045576D01*
X040498D01*
X040538Y045536D01*
X040498Y045496D01*
X040538D01*
X040578Y045456D01*
Y045496D02*
X040598Y045516D01*
X040618D01*
X040598Y045536D01*
X040618Y045556D01*
X040598D01*
X040578Y045576D01*
X040558Y045556D01*
X040538D01*
X040558Y045536D01*
X040538Y045516D01*
X040558D01*
X040578Y045496D01*
X041048Y047508D02*
X041088Y047548D01*
X041128D01*
X041088Y047588D01*
X041128Y047628D01*
X041088D01*
X041048Y047668D01*
X041008Y047628D01*
X040968D01*
X041008Y047588D01*
X040968Y047548D01*
X041008D01*
X041048Y047508D01*
Y047548D02*
X041068Y047568D01*
X041088D01*
X041068Y047588D01*
X041088Y047608D01*
X041068D01*
X041048Y047628D01*
X041028Y047608D01*
X041008D01*
X041028Y047588D01*
X041008Y047568D01*
X041028D01*
X041048Y047548D01*
X040112Y046584D02*
X040152Y046624D01*
X040192D01*
X040152Y046664D01*
X040192Y046704D01*
X040152D01*
X040112Y046744D01*
X040072Y046704D01*
X040032D01*
X040072Y046664D01*
X040032Y046624D01*
X040072D01*
X040112Y046584D01*
Y046624D02*
X040132Y046644D01*
X040152D01*
X040132Y046664D01*
X040152Y046684D01*
X040132D01*
X040112Y046704D01*
X040092Y046684D01*
X040072D01*
X040092Y046664D01*
X040072Y046644D01*
X040092D01*
X040112Y046624D01*
X038797Y046584D02*
X038837Y046624D01*
X038877D01*
X038837Y046664D01*
X038877Y046704D01*
X038837D01*
X038797Y046744D01*
X038757Y046704D01*
X038717D01*
X038757Y046664D01*
X038717Y046624D01*
X038757D01*
X038797Y046584D01*
Y046624D02*
X038817Y046644D01*
X038837D01*
X038817Y046664D01*
X038837Y046684D01*
X038817D01*
X038797Y046704D01*
X038777Y046684D01*
X038757D01*
X038777Y046664D01*
X038757Y046644D01*
X038777D01*
X038797Y046624D01*
X037483Y046539D02*
X037523Y046579D01*
X037563D01*
X037523Y046619D01*
X037563Y046659D01*
X037523D01*
X037483Y046699D01*
X037443Y046659D01*
X037403D01*
X037443Y046619D01*
X037403Y046579D01*
X037443D01*
X037483Y046539D01*
Y046579D02*
X037503Y046599D01*
X037523D01*
X037503Y046619D01*
X037523Y046639D01*
X037503D01*
X037483Y046659D01*
X037463Y046639D01*
X037443D01*
X037463Y046619D01*
X037443Y046599D01*
X037463D01*
X037483Y046579D01*
X036372Y045834D02*
X036412Y045874D01*
X036452D01*
X036412Y045914D01*
X036452Y045954D01*
X036412D01*
X036372Y045994D01*
X036332Y045954D01*
X036292D01*
X036332Y045914D01*
X036292Y045874D01*
X036332D01*
X036372Y045834D01*
Y045874D02*
X036392Y045894D01*
X036412D01*
X036392Y045914D01*
X036412Y045934D01*
X036392D01*
X036372Y045954D01*
X036352Y045934D01*
X036332D01*
X036352Y045914D01*
X036332Y045894D01*
X036352D01*
X036372Y045874D01*
X02396Y043892D02*
X024Y043932D01*
X02404D01*
X024Y043972D01*
X02404Y044012D01*
X024D01*
X02396Y044052D01*
X02392Y044012D01*
X02388D01*
X02392Y043972D01*
X02388Y043932D01*
X02392D01*
X02396Y043892D01*
Y043932D02*
X02398Y043952D01*
X024D01*
X02398Y043972D01*
X024Y043992D01*
X02398D01*
X02396Y044012D01*
X02394Y043992D01*
X02392D01*
X02394Y043972D01*
X02392Y043952D01*
X02394D01*
X02396Y043932D01*
X023964Y045207D02*
X024004Y045247D01*
X024044D01*
X024004Y045287D01*
X024044Y045327D01*
X024004D01*
X023964Y045367D01*
X023924Y045327D01*
X023884D01*
X023924Y045287D01*
X023884Y045247D01*
X023924D01*
X023964Y045207D01*
Y045247D02*
X023984Y045267D01*
X024004D01*
X023984Y045287D01*
X024004Y045307D01*
X023984D01*
X023964Y045327D01*
X023944Y045307D01*
X023924D01*
X023944Y045287D01*
X023924Y045267D01*
X023944D01*
X023964Y045247D01*
X024685Y046307D02*
X024725Y046347D01*
X024765D01*
X024725Y046387D01*
X024765Y046427D01*
X024725D01*
X024685Y046467D01*
X024645Y046427D01*
X024605D01*
X024645Y046387D01*
X024605Y046347D01*
X024645D01*
X024685Y046307D01*
Y046347D02*
X024705Y046367D01*
X024725D01*
X024705Y046387D01*
X024725Y046407D01*
X024705D01*
X024685Y046427D01*
X024665Y046407D01*
X024645D01*
X024665Y046387D01*
X024645Y046367D01*
X024665D01*
X024685Y046347D01*
X0287Y048857D02*
X02874Y048897D01*
X02878D01*
X02874Y048937D01*
X02878Y048977D01*
X02874D01*
X0287Y049017D01*
X02866Y048977D01*
X02862D01*
X02866Y048937D01*
X02862Y048897D01*
X02866D01*
X0287Y048857D01*
Y048897D02*
X02872Y048917D01*
X02874D01*
X02872Y048937D01*
X02874Y048957D01*
X02872D01*
X0287Y048977D01*
X02868Y048957D01*
X02866D01*
X02868Y048937D01*
X02866Y048917D01*
X02868D01*
X0287Y048897D01*
X0239Y039156D02*
X02394Y039196D01*
X02398D01*
X02394Y039236D01*
X02398Y039276D01*
X02394D01*
X0239Y039316D01*
X02386Y039276D01*
X02382D01*
X02386Y039236D01*
X02382Y039196D01*
X02386D01*
X0239Y039156D01*
Y039196D02*
X02392Y039216D01*
X02394D01*
X02392Y039236D01*
X02394Y039256D01*
X02392D01*
X0239Y039276D01*
X02388Y039256D01*
X02386D01*
X02388Y039236D01*
X02386Y039216D01*
X02388D01*
X0239Y039196D01*
Y040341D02*
X02394Y040381D01*
X02398D01*
X02394Y040421D01*
X02398Y040461D01*
X02394D01*
X0239Y040501D01*
X02386Y040461D01*
X02382D01*
X02386Y040421D01*
X02382Y040381D01*
X02386D01*
X0239Y040341D01*
Y040381D02*
X02392Y040401D01*
X02394D01*
X02392Y040421D01*
X02394Y040441D01*
X02392D01*
X0239Y040461D01*
X02388Y040441D01*
X02386D01*
X02388Y040421D01*
X02386Y040401D01*
X02388D01*
X0239Y040381D01*
X02585Y038727D02*
X02589Y038767D01*
X02593D01*
X02589Y038807D01*
X02593Y038847D01*
X02589D01*
X02585Y038887D01*
X02581Y038847D01*
X02577D01*
X02581Y038807D01*
X02577Y038767D01*
X02581D01*
X02585Y038727D01*
Y038767D02*
X02587Y038787D01*
X02589D01*
X02587Y038807D01*
X02589Y038827D01*
X02587D01*
X02585Y038847D01*
X02583Y038827D01*
X02581D01*
X02583Y038807D01*
X02581Y038787D01*
X02583D01*
X02585Y038767D01*
X032213Y04876D02*
X032253Y0488D01*
X032293D01*
X032253Y04884D01*
X032293Y04888D01*
X032253D01*
X032213Y04892D01*
X032173Y04888D01*
X032133D01*
X032173Y04884D01*
X032133Y0488D01*
X032173D01*
X032213Y04876D01*
Y0488D02*
X032233Y04882D01*
X032253D01*
X032233Y04884D01*
X032253Y04886D01*
X032233D01*
X032213Y04888D01*
X032193Y04886D01*
X032173D01*
X032193Y04884D01*
X032173Y04882D01*
X032193D01*
X032213Y0488D01*
X031982Y046156D02*
X032022Y046196D01*
X032062D01*
X032022Y046236D01*
X032062Y046276D01*
X032022D01*
X031982Y046316D01*
X031942Y046276D01*
X031902D01*
X031942Y046236D01*
X031902Y046196D01*
X031942D01*
X031982Y046156D01*
Y046196D02*
X032002Y046216D01*
X032022D01*
X032002Y046236D01*
X032022Y046256D01*
X032002D01*
X031982Y046276D01*
X031962Y046256D01*
X031942D01*
X031962Y046236D01*
X031942Y046216D01*
X031962D01*
X031982Y046196D01*
X03101Y047041D02*
X03105Y047081D01*
X03109D01*
X03105Y047121D01*
X03109Y047161D01*
X03105D01*
X03101Y047201D01*
X03097Y047161D01*
X03093D01*
X03097Y047121D01*
X03093Y047081D01*
X03097D01*
X03101Y047041D01*
Y047081D02*
X03103Y047101D01*
X03105D01*
X03103Y047121D01*
X03105Y047141D01*
X03103D01*
X03101Y047161D01*
X03099Y047141D01*
X03097D01*
X03099Y047121D01*
X03097Y047101D01*
X03099D01*
X03101Y047081D01*
X030177Y046023D02*
X030217Y046063D01*
X030257D01*
X030217Y046103D01*
X030257Y046143D01*
X030217D01*
X030177Y046183D01*
X030137Y046143D01*
X030097D01*
X030137Y046103D01*
X030097Y046063D01*
X030137D01*
X030177Y046023D01*
Y046063D02*
X030197Y046083D01*
X030217D01*
X030197Y046103D01*
X030217Y046123D01*
X030197D01*
X030177Y046143D01*
X030157Y046123D01*
X030137D01*
X030157Y046103D01*
X030137Y046083D01*
X030157D01*
X030177Y046063D01*
X030697Y044815D02*
X030737Y044855D01*
X030777D01*
X030737Y044895D01*
X030777Y044935D01*
X030737D01*
X030697Y044975D01*
X030657Y044935D01*
X030617D01*
X030657Y044895D01*
X030617Y044855D01*
X030657D01*
X030697Y044815D01*
Y044855D02*
X030717Y044875D01*
X030737D01*
X030717Y044895D01*
X030737Y044915D01*
X030717D01*
X030697Y044935D01*
X030677Y044915D01*
X030657D01*
X030677Y044895D01*
X030657Y044875D01*
X030677D01*
X030697Y044855D01*
X029767Y043886D02*
X029807Y043926D01*
X029847D01*
X029807Y043966D01*
X029847Y044006D01*
X029807D01*
X029767Y044046D01*
X029727Y044006D01*
X029687D01*
X029727Y043966D01*
X029687Y043926D01*
X029727D01*
X029767Y043886D01*
Y043926D02*
X029787Y043946D01*
X029807D01*
X029787Y043966D01*
X029807Y043986D01*
X029787D01*
X029767Y044006D01*
X029747Y043986D01*
X029727D01*
X029747Y043966D01*
X029727Y043946D01*
X029747D01*
X029767Y043926D01*
X028452Y043869D02*
X028492Y043909D01*
X028532D01*
X028492Y043949D01*
X028532Y043989D01*
X028492D01*
X028452Y044029D01*
X028412Y043989D01*
X028372D01*
X028412Y043949D01*
X028372Y043909D01*
X028412D01*
X028452Y043869D01*
Y043909D02*
X028472Y043929D01*
X028492D01*
X028472Y043949D01*
X028492Y043969D01*
X028472D01*
X028452Y043989D01*
X028432Y043969D01*
X028412D01*
X028432Y043949D01*
X028412Y043929D01*
X028432D01*
X028452Y043909D01*
X027164Y044134D02*
X027204Y044174D01*
X027244D01*
X027204Y044214D01*
X027244Y044254D01*
X027204D01*
X027164Y044294D01*
X027124Y044254D01*
X027084D01*
X027124Y044214D01*
X027084Y044174D01*
X027124D01*
X027164Y044134D01*
Y044174D02*
X027184Y044194D01*
X027204D01*
X027184Y044214D01*
X027204Y044234D01*
X027184D01*
X027164Y044254D01*
X027144Y044234D01*
X027124D01*
X027144Y044214D01*
X027124Y044194D01*
X027144D01*
X027164Y044174D01*
X027538Y045395D02*
X027578Y045435D01*
X027618D01*
X027578Y045475D01*
X027618Y045515D01*
X027578D01*
X027538Y045555D01*
X027498Y045515D01*
X027458D01*
X027498Y045475D01*
X027458Y045435D01*
X027498D01*
X027538Y045395D01*
Y045435D02*
X027558Y045455D01*
X027578D01*
X027558Y045475D01*
X027578Y045495D01*
X027558D01*
X027538Y045515D01*
X027518Y045495D01*
X027498D01*
X027518Y045475D01*
X027498Y045455D01*
X027518D01*
X027538Y045435D01*
X027571Y046709D02*
X027611Y046749D01*
X027651D01*
X027611Y046789D01*
X027651Y046829D01*
X027611D01*
X027571Y046869D01*
X027531Y046829D01*
X027491D01*
X027531Y046789D01*
X027491Y046749D01*
X027531D01*
X027571Y046709D01*
Y046749D02*
X027591Y046769D01*
X027611D01*
X027591Y046789D01*
X027611Y046809D01*
X027591D01*
X027571Y046829D01*
X027551Y046809D01*
X027531D01*
X027551Y046789D01*
X027531Y046769D01*
X027551D01*
X027571Y046749D01*
X02595Y04702D02*
X02599Y04706D01*
X02603D01*
X02599Y0471D01*
X02603Y04714D01*
X02599D01*
X02595Y04718D01*
X02591Y04714D01*
X02587D01*
X02591Y0471D01*
X02587Y04706D01*
X02591D01*
X02595Y04702D01*
Y04706D02*
X02597Y04708D01*
X02599D01*
X02597Y0471D01*
X02599Y04712D01*
X02597D01*
X02595Y04714D01*
X02593Y04712D01*
X02591D01*
X02593Y0471D01*
X02591Y04708D01*
X02593D01*
X02595Y04706D01*
X02559Y046094D02*
X02563Y046134D01*
X02567D01*
X02563Y046174D01*
X02567Y046214D01*
X02563D01*
X02559Y046254D01*
X02555Y046214D01*
X02551D01*
X02555Y046174D01*
X02551Y046134D01*
X02555D01*
X02559Y046094D01*
Y046134D02*
X02561Y046154D01*
X02563D01*
X02561Y046174D01*
X02563Y046194D01*
X02561D01*
X02559Y046214D01*
X02557Y046194D01*
X02555D01*
X02557Y046174D01*
X02555Y046154D01*
X02557D01*
X02559Y046134D01*
X025989Y044841D02*
X026029Y044881D01*
X026069D01*
X026029Y044921D01*
X026069Y044961D01*
X026029D01*
X025989Y045001D01*
X025949Y044961D01*
X025909D01*
X025949Y044921D01*
X025909Y044881D01*
X025949D01*
X025989Y044841D01*
Y044881D02*
X026009Y044901D01*
X026029D01*
X026009Y044921D01*
X026029Y044941D01*
X026009D01*
X025989Y044961D01*
X025969Y044941D01*
X025949D01*
X025969Y044921D01*
X025949Y044901D01*
X025969D01*
X025989Y044881D01*
X017846Y038806D02*
X017886Y038846D01*
X017926D01*
X017886Y038886D01*
X017926Y038926D01*
X017886D01*
X017846Y038966D01*
X017806Y038926D01*
X017766D01*
X017806Y038886D01*
X017766Y038846D01*
X017806D01*
X017846Y038806D01*
Y038846D02*
X017866Y038866D01*
X017886D01*
X017866Y038886D01*
X017886Y038906D01*
X017866D01*
X017846Y038926D01*
X017826Y038906D01*
X017806D01*
X017826Y038886D01*
X017806Y038866D01*
X017826D01*
X017846Y038846D01*
X016912Y03788D02*
X016952Y03792D01*
X016992D01*
X016952Y03796D01*
X016992Y038D01*
X016952D01*
X016912Y03804D01*
X016872Y038D01*
X016832D01*
X016872Y03796D01*
X016832Y03792D01*
X016872D01*
X016912Y03788D01*
Y03792D02*
X016932Y03794D01*
X016952D01*
X016932Y03796D01*
X016952Y03798D01*
X016932D01*
X016912Y038D01*
X016892Y03798D01*
X016872D01*
X016892Y03796D01*
X016872Y03794D01*
X016892D01*
X016912Y03792D01*
X016736Y036577D02*
X016776Y036617D01*
X016816D01*
X016776Y036657D01*
X016816Y036697D01*
X016776D01*
X016736Y036737D01*
X016696Y036697D01*
X016656D01*
X016696Y036657D01*
X016656Y036617D01*
X016696D01*
X016736Y036577D01*
Y036617D02*
X016756Y036637D01*
X016776D01*
X016756Y036657D01*
X016776Y036677D01*
X016756D01*
X016736Y036697D01*
X016716Y036677D01*
X016696D01*
X016716Y036657D01*
X016696Y036637D01*
X016716D01*
X016736Y036617D01*
X015933Y032906D02*
X015973Y032946D01*
X016013D01*
X015973Y032986D01*
X016013Y033026D01*
X015973D01*
X015933Y033066D01*
X015893Y033026D01*
X015853D01*
X015893Y032986D01*
X015853Y032946D01*
X015893D01*
X015933Y032906D01*
Y032946D02*
X015953Y032966D01*
X015973D01*
X015953Y032986D01*
X015973Y033006D01*
X015953D01*
X015933Y033026D01*
X015913Y033006D01*
X015893D01*
X015913Y032986D01*
X015893Y032966D01*
X015913D01*
X015933Y032946D01*
X015436Y031688D02*
X015476Y031728D01*
X015516D01*
X015476Y031768D01*
X015516Y031808D01*
X015476D01*
X015436Y031848D01*
X015396Y031808D01*
X015356D01*
X015396Y031768D01*
X015356Y031728D01*
X015396D01*
X015436Y031688D01*
Y031728D02*
X015456Y031748D01*
X015476D01*
X015456Y031768D01*
X015476Y031788D01*
X015456D01*
X015436Y031808D01*
X015416Y031788D01*
X015396D01*
X015416Y031768D01*
X015396Y031748D01*
X015416D01*
X015436Y031728D01*
X015494Y030375D02*
X015534Y030415D01*
X015574D01*
X015534Y030455D01*
X015574Y030495D01*
X015534D01*
X015494Y030535D01*
X015454Y030495D01*
X015414D01*
X015454Y030455D01*
X015414Y030415D01*
X015454D01*
X015494Y030375D01*
Y030415D02*
X015514Y030435D01*
X015534D01*
X015514Y030455D01*
X015534Y030475D01*
X015514D01*
X015494Y030495D01*
X015474Y030475D01*
X015454D01*
X015474Y030455D01*
X015454Y030435D01*
X015474D01*
X015494Y030415D01*
X016658Y030985D02*
X016698Y031025D01*
X016738D01*
X016698Y031065D01*
X016738Y031105D01*
X016698D01*
X016658Y031145D01*
X016618Y031105D01*
X016578D01*
X016618Y031065D01*
X016578Y031025D01*
X016618D01*
X016658Y030985D01*
Y031025D02*
X016678Y031045D01*
X016698D01*
X016678Y031065D01*
X016698Y031085D01*
X016678D01*
X016658Y031105D01*
X016638Y031085D01*
X016618D01*
X016638Y031065D01*
X016618Y031045D01*
X016638D01*
X016658Y031025D01*
X017819Y031602D02*
X017859Y031642D01*
X017899D01*
X017859Y031682D01*
X017899Y031722D01*
X017859D01*
X017819Y031762D01*
X017779Y031722D01*
X017739D01*
X017779Y031682D01*
X017739Y031642D01*
X017779D01*
X017819Y031602D01*
Y031642D02*
X017839Y031662D01*
X017859D01*
X017839Y031682D01*
X017859Y031702D01*
X017839D01*
X017819Y031722D01*
X017799Y031702D01*
X017779D01*
X017799Y031682D01*
X017779Y031662D01*
X017799D01*
X017819Y031642D01*
X018336Y030393D02*
X018376Y030433D01*
X018416D01*
X018376Y030473D01*
X018416Y030513D01*
X018376D01*
X018336Y030553D01*
X018296Y030513D01*
X018256D01*
X018296Y030473D01*
X018256Y030433D01*
X018296D01*
X018336Y030393D01*
Y030433D02*
X018356Y030453D01*
X018376D01*
X018356Y030473D01*
X018376Y030493D01*
X018356D01*
X018336Y030513D01*
X018316Y030493D01*
X018296D01*
X018316Y030473D01*
X018296Y030453D01*
X018316D01*
X018336Y030433D01*
X017636Y027861D02*
X017676Y027901D01*
X017716D01*
X017676Y027941D01*
X017716Y027981D01*
X017676D01*
X017636Y028021D01*
X017596Y027981D01*
X017556D01*
X017596Y027941D01*
X017556Y027901D01*
X017596D01*
X017636Y027861D01*
Y027901D02*
X017656Y027921D01*
X017676D01*
X017656Y027941D01*
X017676Y027961D01*
X017656D01*
X017636Y027981D01*
X017616Y027961D01*
X017596D01*
X017616Y027941D01*
X017596Y027921D01*
X017616D01*
X017636Y027901D01*
Y026546D02*
X017676Y026586D01*
X017716D01*
X017676Y026626D01*
X017716Y026666D01*
X017676D01*
X017636Y026706D01*
X017596Y026666D01*
X017556D01*
X017596Y026626D01*
X017556Y026586D01*
X017596D01*
X017636Y026546D01*
Y026586D02*
X017656Y026606D01*
X017676D01*
X017656Y026626D01*
X017676Y026646D01*
X017656D01*
X017636Y026666D01*
X017616Y026646D01*
X017596D01*
X017616Y026626D01*
X017596Y026606D01*
X017616D01*
X017636Y026586D01*
X018353Y025444D02*
X018393Y025484D01*
X018433D01*
X018393Y025524D01*
X018433Y025564D01*
X018393D01*
X018353Y025604D01*
X018313Y025564D01*
X018273D01*
X018313Y025524D01*
X018273Y025484D01*
X018313D01*
X018353Y025444D01*
Y025484D02*
X018373Y025504D01*
X018393D01*
X018373Y025524D01*
X018393Y025544D01*
X018373D01*
X018353Y025564D01*
X018333Y025544D01*
X018313D01*
X018333Y025524D01*
X018313Y025504D01*
X018333D01*
X018353Y025484D01*
X019636Y025734D02*
X019676Y025774D01*
X019716D01*
X019676Y025814D01*
X019716Y025854D01*
X019676D01*
X019636Y025894D01*
X019596Y025854D01*
X019556D01*
X019596Y025814D01*
X019556Y025774D01*
X019596D01*
X019636Y025734D01*
Y025774D02*
X019656Y025794D01*
X019676D01*
X019656Y025814D01*
X019676Y025834D01*
X019656D01*
X019636Y025854D01*
X019616Y025834D01*
X019596D01*
X019616Y025814D01*
X019596Y025794D01*
X019616D01*
X019636Y025774D01*
X019464Y029148D02*
X019504Y029188D01*
X019544D01*
X019504Y029228D01*
X019544Y029268D01*
X019504D01*
X019464Y029308D01*
X019424Y029268D01*
X019384D01*
X019424Y029228D01*
X019384Y029188D01*
X019424D01*
X019464Y029148D01*
Y029188D02*
X019484Y029208D01*
X019504D01*
X019484Y029228D01*
X019504Y029248D01*
X019484D01*
X019464Y029268D01*
X019444Y029248D01*
X019424D01*
X019444Y029228D01*
X019424Y029208D01*
X019444D01*
X019464Y029188D01*
X019464Y030463D02*
X019504Y030503D01*
X019544D01*
X019504Y030543D01*
X019544Y030583D01*
X019504D01*
X019464Y030623D01*
X019424Y030583D01*
X019384D01*
X019424Y030543D01*
X019384Y030503D01*
X019424D01*
X019464Y030463D01*
Y030503D02*
X019484Y030523D01*
X019504D01*
X019484Y030543D01*
X019504Y030563D01*
X019484D01*
X019464Y030583D01*
X019444Y030563D01*
X019424D01*
X019444Y030543D01*
X019424Y030523D01*
X019444D01*
X019464Y030503D01*
X018326Y03269D02*
X018366Y03273D01*
X018406D01*
X018366Y03277D01*
X018406Y03281D01*
X018366D01*
X018326Y03285D01*
X018286Y03281D01*
X018246D01*
X018286Y03277D01*
X018246Y03273D01*
X018286D01*
X018326Y03269D01*
Y03273D02*
X018346Y03275D01*
X018366D01*
X018346Y03277D01*
X018366Y03279D01*
X018346D01*
X018326Y03281D01*
X018306Y03279D01*
X018286D01*
X018306Y03277D01*
X018286Y03275D01*
X018306D01*
X018326Y03273D01*
X017864Y036551D02*
X017904Y036591D01*
X017944D01*
X017904Y036631D01*
X017944Y036671D01*
X017904D01*
X017864Y036711D01*
X017824Y036671D01*
X017784D01*
X017824Y036631D01*
X017784Y036591D01*
X017824D01*
X017864Y036551D01*
Y036591D02*
X017884Y036611D01*
X017904D01*
X017884Y036631D01*
X017904Y036651D01*
X017884D01*
X017864Y036671D01*
X017844Y036651D01*
X017824D01*
X017844Y036631D01*
X017824Y036611D01*
X017844D01*
X017864Y036591D01*
X018386Y037758D02*
X018426Y037798D01*
X018466D01*
X018426Y037838D01*
X018466Y037878D01*
X018426D01*
X018386Y037918D01*
X018346Y037878D01*
X018306D01*
X018346Y037838D01*
X018306Y037798D01*
X018346D01*
X018386Y037758D01*
Y037798D02*
X018406Y037818D01*
X018426D01*
X018406Y037838D01*
X018426Y037858D01*
X018406D01*
X018386Y037878D01*
X018366Y037858D01*
X018346D01*
X018366Y037838D01*
X018346Y037818D01*
X018366D01*
X018386Y037798D01*
X0197Y037806D02*
X01974Y037846D01*
X01978D01*
X01974Y037886D01*
X01978Y037926D01*
X01974D01*
X0197Y037966D01*
X01966Y037926D01*
X01962D01*
X01966Y037886D01*
X01962Y037846D01*
X01966D01*
X0197Y037806D01*
Y037846D02*
X01972Y037866D01*
X01974D01*
X01972Y037886D01*
X01974Y037906D01*
X01972D01*
X0197Y037926D01*
X01968Y037906D01*
X01966D01*
X01968Y037886D01*
X01966Y037866D01*
X01968D01*
X0197Y037846D01*
X02096Y038182D02*
X021Y038222D01*
X02104D01*
X021Y038262D01*
X02104Y038302D01*
X021D01*
X02096Y038342D01*
X02092Y038302D01*
X02088D01*
X02092Y038262D01*
X02088Y038222D01*
X02092D01*
X02096Y038182D01*
Y038222D02*
X02098Y038242D01*
X021D01*
X02098Y038262D01*
X021Y038282D01*
X02098D01*
X02096Y038302D01*
X02094Y038282D01*
X02092D01*
X02094Y038262D01*
X02092Y038242D01*
X02094D01*
X02096Y038222D01*
X02189Y039112D02*
X02193Y039152D01*
X02197D01*
X02193Y039192D01*
X02197Y039232D01*
X02193D01*
X02189Y039272D01*
X02185Y039232D01*
X02181D01*
X02185Y039192D01*
X02181Y039152D01*
X02185D01*
X02189Y039112D01*
Y039152D02*
X02191Y039172D01*
X02193D01*
X02191Y039192D01*
X02193Y039212D01*
X02191D01*
X02189Y039232D01*
X02187Y039212D01*
X02185D01*
X02187Y039192D01*
X02185Y039172D01*
X02187D01*
X02189Y039152D01*
X02282Y040042D02*
X02286Y040082D01*
X0229D01*
X02286Y040122D01*
X0229Y040162D01*
X02286D01*
X02282Y040202D01*
X02278Y040162D01*
X02274D01*
X02278Y040122D01*
X02274Y040082D01*
X02278D01*
X02282Y040042D01*
Y040082D02*
X02284Y040102D01*
X02286D01*
X02284Y040122D01*
X02286Y040142D01*
X02284D01*
X02282Y040162D01*
X0228Y040142D01*
X02278D01*
X0228Y040122D01*
X02278Y040102D01*
X0228D01*
X02282Y040082D01*
X027404Y041099D02*
X027444Y041139D01*
X027484D01*
X027444Y041179D01*
X027484Y041219D01*
X027444D01*
X027404Y041259D01*
X027364Y041219D01*
X027324D01*
X027364Y041179D01*
X027324Y041139D01*
X027364D01*
X027404Y041099D01*
Y041139D02*
X027424Y041159D01*
X027444D01*
X027424Y041179D01*
X027444Y041199D01*
X027424D01*
X027404Y041219D01*
X027384Y041199D01*
X027364D01*
X027384Y041179D01*
X027364Y041159D01*
X027384D01*
X027404Y041139D01*
X027889Y037432D02*
X027929Y037472D01*
X027969D01*
X027929Y037512D01*
X027969Y037552D01*
X027929D01*
X027889Y037592D01*
X027849Y037552D01*
X027809D01*
X027849Y037512D01*
X027809Y037472D01*
X027849D01*
X027889Y037432D01*
Y037472D02*
X027909Y037492D01*
X027929D01*
X027909Y037512D01*
X027929Y037532D01*
X027909D01*
X027889Y037552D01*
X027869Y037532D01*
X027849D01*
X027869Y037512D01*
X027849Y037492D01*
X027869D01*
X027889Y037472D01*
X029753Y041465D02*
X029793Y041505D01*
X029833D01*
X029793Y041545D01*
X029833Y041585D01*
X029793D01*
X029753Y041625D01*
X029713Y041585D01*
X029673D01*
X029713Y041545D01*
X029673Y041505D01*
X029713D01*
X029753Y041465D01*
Y041505D02*
X029773Y041525D01*
X029793D01*
X029773Y041545D01*
X029793Y041565D01*
X029773D01*
X029753Y041585D01*
X029733Y041565D01*
X029713D01*
X029733Y041545D01*
X029713Y041525D01*
X029733D01*
X029753Y041505D01*
X033454Y046646D02*
X033494Y046686D01*
X033534D01*
X033494Y046726D01*
X033534Y046766D01*
X033494D01*
X033454Y046806D01*
X033414Y046766D01*
X033374D01*
X033414Y046726D01*
X033374Y046686D01*
X033414D01*
X033454Y046646D01*
Y046686D02*
X033474Y046706D01*
X033494D01*
X033474Y046726D01*
X033494Y046746D01*
X033474D01*
X033454Y046766D01*
X033434Y046746D01*
X033414D01*
X033434Y046726D01*
X033414Y046706D01*
X033434D01*
X033454Y046686D01*
Y047961D02*
X033494Y048001D01*
X033534D01*
X033494Y048041D01*
X033534Y048081D01*
X033494D01*
X033454Y048121D01*
X033414Y048081D01*
X033374D01*
X033414Y048041D01*
X033374Y048001D01*
X033414D01*
X033454Y047961D01*
Y048001D02*
X033474Y048021D01*
X033494D01*
X033474Y048041D01*
X033494Y048061D01*
X033474D01*
X033454Y048081D01*
X033434Y048061D01*
X033414D01*
X033434Y048041D01*
X033414Y048021D01*
X033434D01*
X033454Y048001D01*
X036814Y049056D02*
X036854Y049096D01*
X036894D01*
X036854Y049136D01*
X036894Y049176D01*
X036854D01*
X036814Y049216D01*
X036774Y049176D01*
X036734D01*
X036774Y049136D01*
X036734Y049096D01*
X036774D01*
X036814Y049056D01*
Y049096D02*
X036834Y049116D01*
X036854D01*
X036834Y049136D01*
X036854Y049156D01*
X036834D01*
X036814Y049176D01*
X036794Y049156D01*
X036774D01*
X036794Y049136D01*
X036774Y049116D01*
X036794D01*
X036814Y049096D01*
X038129Y049056D02*
X038169Y049096D01*
X038209D01*
X038169Y049136D01*
X038209Y049176D01*
X038169D01*
X038129Y049216D01*
X038089Y049176D01*
X038049D01*
X038089Y049136D01*
X038049Y049096D01*
X038089D01*
X038129Y049056D01*
Y049096D02*
X038149Y049116D01*
X038169D01*
X038149Y049136D01*
X038169Y049156D01*
X038149D01*
X038129Y049176D01*
X038109Y049156D01*
X038089D01*
X038109Y049136D01*
X038089Y049116D01*
X038109D01*
X038129Y049096D01*
X041616Y047556D02*
X041656Y047596D01*
X041696D01*
X041656Y047636D01*
X041696Y047676D01*
X041656D01*
X041616Y047716D01*
X041576Y047676D01*
X041536D01*
X041576Y047636D01*
X041536Y047596D01*
X041576D01*
X041616Y047556D01*
Y047596D02*
X041636Y047616D01*
X041656D01*
X041636Y047636D01*
X041656Y047656D01*
X041636D01*
X041616Y047676D01*
X041596Y047656D01*
X041576D01*
X041596Y047636D01*
X041576Y047616D01*
X041596D01*
X041616Y047596D01*
X042546Y046626D02*
X042586Y046666D01*
X042626D01*
X042586Y046706D01*
X042626Y046746D01*
X042586D01*
X042546Y046786D01*
X042506Y046746D01*
X042466D01*
X042506Y046706D01*
X042466Y046666D01*
X042506D01*
X042546Y046626D01*
Y046666D02*
X042566Y046686D01*
X042586D01*
X042566Y046706D01*
X042586Y046726D01*
X042566D01*
X042546Y046746D01*
X042526Y046726D01*
X042506D01*
X042526Y046706D01*
X042506Y046686D01*
X042526D01*
X042546Y046666D01*
X043475Y045696D02*
X043515Y045736D01*
X043555D01*
X043515Y045776D01*
X043555Y045816D01*
X043515D01*
X043475Y045856D01*
X043435Y045816D01*
X043395D01*
X043435Y045776D01*
X043395Y045736D01*
X043435D01*
X043475Y045696D01*
Y045736D02*
X043495Y045756D01*
X043515D01*
X043495Y045776D01*
X043515Y045796D01*
X043495D01*
X043475Y045816D01*
X043455Y045796D01*
X043435D01*
X043455Y045776D01*
X043435Y045756D01*
X043455D01*
X043475Y045736D01*
X044405Y044767D02*
X044445Y044806D01*
X044485D01*
X044445Y044847D01*
X044485Y044886D01*
X044445D01*
X044405Y044927D01*
X044365Y044886D01*
X044325D01*
X044365Y044847D01*
X044325Y044806D01*
X044365D01*
X044405Y044767D01*
Y044806D02*
X044425Y044826D01*
X044445D01*
X044425Y044847D01*
X044445Y044866D01*
X044425D01*
X044405Y044886D01*
X044385Y044866D01*
X044365D01*
X044385Y044847D01*
X044365Y044826D01*
X044385D01*
X044405Y044806D01*
X044986Y043587D02*
X045026Y043627D01*
X045066D01*
X045026Y043667D01*
X045066Y043707D01*
X045026D01*
X044986Y043747D01*
X044946Y043707D01*
X044906D01*
X044946Y043667D01*
X044906Y043627D01*
X044946D01*
X044986Y043587D01*
Y043627D02*
X045006Y043647D01*
X045026D01*
X045006Y043667D01*
X045026Y043687D01*
X045006D01*
X044986Y043707D01*
X044966Y043687D01*
X044946D01*
X044966Y043667D01*
X044946Y043647D01*
X044966D01*
X044986Y043627D01*
X043913Y042825D02*
X043953Y042865D01*
X043993D01*
X043953Y042905D01*
X043993Y042945D01*
X043953D01*
X043913Y042985D01*
X043873Y042945D01*
X043833D01*
X043873Y042905D01*
X043833Y042865D01*
X043873D01*
X043913Y042825D01*
Y042865D02*
X043933Y042885D01*
X043953D01*
X043933Y042905D01*
X043953Y042925D01*
X043933D01*
X043913Y042945D01*
X043893Y042925D01*
X043873D01*
X043893Y042905D01*
X043873Y042885D01*
X043893D01*
X043913Y042865D01*
X042598Y042825D02*
X042638Y042865D01*
X042678D01*
X042638Y042905D01*
X042678Y042945D01*
X042638D01*
X042598Y042985D01*
X042558Y042945D01*
X042518D01*
X042558Y042905D01*
X042518Y042865D01*
X042558D01*
X042598Y042825D01*
Y042865D02*
X042618Y042885D01*
X042638D01*
X042618Y042905D01*
X042638Y042925D01*
X042618D01*
X042598Y042945D01*
X042578Y042925D01*
X042558D01*
X042578Y042905D01*
X042558Y042885D01*
X042578D01*
X042598Y042865D01*
X041283Y042825D02*
X041323Y042865D01*
X041363D01*
X041323Y042905D01*
X041363Y042945D01*
X041323D01*
X041283Y042985D01*
X041243Y042945D01*
X041203D01*
X041243Y042905D01*
X041203Y042865D01*
X041243D01*
X041283Y042825D01*
Y042865D02*
X041303Y042885D01*
X041323D01*
X041303Y042905D01*
X041323Y042925D01*
X041303D01*
X041283Y042945D01*
X041263Y042925D01*
X041243D01*
X041263Y042905D01*
X041243Y042885D01*
X041263D01*
X041283Y042865D01*
X039968Y042825D02*
X040008Y042865D01*
X040048D01*
X040008Y042905D01*
X040048Y042945D01*
X040008D01*
X039968Y042985D01*
X039928Y042945D01*
X039888D01*
X039928Y042905D01*
X039888Y042865D01*
X039928D01*
X039968Y042825D01*
Y042865D02*
X039988Y042885D01*
X040008D01*
X039988Y042905D01*
X040008Y042925D01*
X039988D01*
X039968Y042945D01*
X039948Y042925D01*
X039928D01*
X039948Y042905D01*
X039928Y042885D01*
X039948D01*
X039968Y042865D01*
X038653Y042825D02*
X038693Y042865D01*
X038733D01*
X038693Y042905D01*
X038733Y042945D01*
X038693D01*
X038653Y042985D01*
X038613Y042945D01*
X038573D01*
X038613Y042905D01*
X038573Y042865D01*
X038613D01*
X038653Y042825D01*
Y042865D02*
X038673Y042885D01*
X038693D01*
X038673Y042905D01*
X038693Y042925D01*
X038673D01*
X038653Y042945D01*
X038633Y042925D01*
X038613D01*
X038633Y042905D01*
X038613Y042885D01*
X038633D01*
X038653Y042865D01*
X037464Y042265D02*
X037504Y042305D01*
X037544D01*
X037504Y042345D01*
X037544Y042385D01*
X037504D01*
X037464Y042425D01*
X037424Y042385D01*
X037384D01*
X037424Y042345D01*
X037384Y042305D01*
X037424D01*
X037464Y042265D01*
Y042305D02*
X037484Y042325D01*
X037504D01*
X037484Y042345D01*
X037504Y042365D01*
X037484D01*
X037464Y042385D01*
X037444Y042365D01*
X037424D01*
X037444Y042345D01*
X037424Y042325D01*
X037444D01*
X037464Y042305D01*
X039064Y04125D02*
X039104Y04129D01*
X039144D01*
X039104Y04133D01*
X039144Y04137D01*
X039104D01*
X039064Y04141D01*
X039024Y04137D01*
X038984D01*
X039024Y04133D01*
X038984Y04129D01*
X039024D01*
X039064Y04125D01*
Y04129D02*
X039084Y04131D01*
X039104D01*
X039084Y04133D01*
X039104Y04135D01*
X039084D01*
X039064Y04137D01*
X039044Y04135D01*
X039024D01*
X039044Y04133D01*
X039024Y04131D01*
X039044D01*
X039064Y04129D01*
X041336Y040867D02*
X041376Y040907D01*
X041416D01*
X041376Y040947D01*
X041416Y040987D01*
X041376D01*
X041336Y041027D01*
X041296Y040987D01*
X041256D01*
X041296Y040947D01*
X041256Y040907D01*
X041296D01*
X041336Y040867D01*
Y040907D02*
X041356Y040927D01*
X041376D01*
X041356Y040947D01*
X041376Y040967D01*
X041356D01*
X041336Y040987D01*
X041316Y040967D01*
X041296D01*
X041316Y040947D01*
X041296Y040927D01*
X041316D01*
X041336Y040907D01*
X042356Y041696D02*
X042396Y041736D01*
X042436D01*
X042396Y041776D01*
X042436Y041816D01*
X042396D01*
X042356Y041856D01*
X042316Y041816D01*
X042276D01*
X042316Y041776D01*
X042276Y041736D01*
X042316D01*
X042356Y041696D01*
Y041736D02*
X042376Y041756D01*
X042396D01*
X042376Y041776D01*
X042396Y041796D01*
X042376D01*
X042356Y041816D01*
X042336Y041796D01*
X042316D01*
X042336Y041776D01*
X042316Y041756D01*
X042336D01*
X042356Y041736D01*
X043671Y041696D02*
X043711Y041736D01*
X043751D01*
X043711Y041776D01*
X043751Y041816D01*
X043711D01*
X043671Y041856D01*
X043631Y041816D01*
X043591D01*
X043631Y041776D01*
X043591Y041736D01*
X043631D01*
X043671Y041696D01*
Y041736D02*
X043691Y041756D01*
X043711D01*
X043691Y041776D01*
X043711Y041796D01*
X043691D01*
X043671Y041816D01*
X043651Y041796D01*
X043631D01*
X043651Y041776D01*
X043631Y041756D01*
X043651D01*
X043671Y041736D01*
X044986Y041656D02*
X045026Y041696D01*
X045066D01*
X045026Y041736D01*
X045066Y041776D01*
X045026D01*
X044986Y041816D01*
X044946Y041776D01*
X044906D01*
X044946Y041736D01*
X044906Y041696D01*
X044946D01*
X044986Y041656D01*
Y041696D02*
X045006Y041716D01*
X045026D01*
X045006Y041736D01*
X045026Y041756D01*
X045006D01*
X044986Y041776D01*
X044966Y041756D01*
X044946D01*
X044966Y041736D01*
X044946Y041716D01*
X044966D01*
X044986Y041696D01*
Y040341D02*
X045026Y040381D01*
X045066D01*
X045026Y040421D01*
X045066Y040461D01*
X045026D01*
X044986Y040501D01*
X044946Y040461D01*
X044906D01*
X044946Y040421D01*
X044906Y040381D01*
X044946D01*
X044986Y040341D01*
Y040381D02*
X045006Y040401D01*
X045026D01*
X045006Y040421D01*
X045026Y040441D01*
X045006D01*
X044986Y040461D01*
X044966Y040441D01*
X044946D01*
X044966Y040421D01*
X044946Y040401D01*
X044966D01*
X044986Y040381D01*
Y037711D02*
X045026Y037751D01*
X045066D01*
X045026Y037791D01*
X045066Y037831D01*
X045026D01*
X044986Y037871D01*
X044946Y037831D01*
X044906D01*
X044946Y037791D01*
X044906Y037751D01*
X044946D01*
X044986Y037711D01*
Y037751D02*
X045006Y037771D01*
X045026D01*
X045006Y037791D01*
X045026Y037811D01*
X045006D01*
X044986Y037831D01*
X044966Y037811D01*
X044946D01*
X044966Y037791D01*
X044946Y037771D01*
X044966D01*
X044986Y037751D01*
Y036396D02*
X045026Y036436D01*
X045066D01*
X045026Y036476D01*
X045066Y036516D01*
X045026D01*
X044986Y036556D01*
X044946Y036516D01*
X044906D01*
X044946Y036476D01*
X044906Y036436D01*
X044946D01*
X044986Y036396D01*
Y036436D02*
X045006Y036456D01*
X045026D01*
X045006Y036476D01*
X045026Y036496D01*
X045006D01*
X044986Y036516D01*
X044966Y036496D01*
X044946D01*
X044966Y036476D01*
X044946Y036456D01*
X044966D01*
X044986Y036436D01*
Y035081D02*
X045026Y035121D01*
X045066D01*
X045026Y035161D01*
X045066Y035201D01*
X045026D01*
X044986Y035241D01*
X044946Y035201D01*
X044906D01*
X044946Y035161D01*
X044906Y035121D01*
X044946D01*
X044986Y035081D01*
Y035121D02*
X045006Y035141D01*
X045026D01*
X045006Y035161D01*
X045026Y035181D01*
X045006D01*
X044986Y035201D01*
X044966Y035181D01*
X044946D01*
X044966Y035161D01*
X044946Y035141D01*
X044966D01*
X044986Y035121D01*
Y033766D02*
X045026Y033806D01*
X045066D01*
X045026Y033846D01*
X045066Y033886D01*
X045026D01*
X044986Y033926D01*
X044946Y033886D01*
X044906D01*
X044946Y033846D01*
X044906Y033806D01*
X044946D01*
X044986Y033766D01*
Y033806D02*
X045006Y033826D01*
X045026D01*
X045006Y033846D01*
X045026Y033866D01*
X045006D01*
X044986Y033886D01*
X044966Y033866D01*
X044946D01*
X044966Y033846D01*
X044946Y033826D01*
X044966D01*
X044986Y033806D01*
Y032451D02*
X045026Y032491D01*
X045066D01*
X045026Y032531D01*
X045066Y032571D01*
X045026D01*
X044986Y032611D01*
X044946Y032571D01*
X044906D01*
X044946Y032531D01*
X044906Y032491D01*
X044946D01*
X044986Y032451D01*
Y032491D02*
X045006Y032511D01*
X045026D01*
X045006Y032531D01*
X045026Y032551D01*
X045006D01*
X044986Y032571D01*
X044966Y032551D01*
X044946D01*
X044966Y032531D01*
X044946Y032511D01*
X044966D01*
X044986Y032491D01*
X044508Y031226D02*
X044548Y031266D01*
X044588D01*
X044548Y031306D01*
X044588Y031346D01*
X044548D01*
X044508Y031386D01*
X044468Y031346D01*
X044428D01*
X044468Y031306D01*
X044428Y031266D01*
X044468D01*
X044508Y031226D01*
Y031266D02*
X044528Y031286D01*
X044548D01*
X044528Y031306D01*
X044548Y031326D01*
X044528D01*
X044508Y031346D01*
X044488Y031326D01*
X044468D01*
X044488Y031306D01*
X044468Y031286D01*
X044488D01*
X044508Y031266D01*
X043196Y031134D02*
X043236Y031174D01*
X043276D01*
X043236Y031214D01*
X043276Y031254D01*
X043236D01*
X043196Y031294D01*
X043156Y031254D01*
X043116D01*
X043156Y031214D01*
X043116Y031174D01*
X043156D01*
X043196Y031134D01*
Y031174D02*
X043216Y031194D01*
X043236D01*
X043216Y031214D01*
X043236Y031234D01*
X043216D01*
X043196Y031254D01*
X043176Y031234D01*
X043156D01*
X043176Y031214D01*
X043156Y031194D01*
X043176D01*
X043196Y031174D01*
X041881Y031134D02*
X041921Y031174D01*
X041961D01*
X041921Y031214D01*
X041961Y031254D01*
X041921D01*
X041881Y031294D01*
X041841Y031254D01*
X041801D01*
X041841Y031214D01*
X041801Y031174D01*
X041841D01*
X041881Y031134D01*
Y031174D02*
X041901Y031194D01*
X041921D01*
X041901Y031214D01*
X041921Y031234D01*
X041901D01*
X041881Y031254D01*
X041861Y031234D01*
X041841D01*
X041861Y031214D01*
X041841Y031194D01*
X041861D01*
X041881Y031174D01*
X037936Y031134D02*
X037976Y031174D01*
X038016D01*
X037976Y031214D01*
X038016Y031254D01*
X037976D01*
X037936Y031294D01*
X037896Y031254D01*
X037856D01*
X037896Y031214D01*
X037856Y031174D01*
X037896D01*
X037936Y031134D01*
Y031174D02*
X037956Y031194D01*
X037976D01*
X037956Y031214D01*
X037976Y031234D01*
X037956D01*
X037936Y031254D01*
X037916Y031234D01*
X037896D01*
X037916Y031214D01*
X037896Y031194D01*
X037916D01*
X037936Y031174D01*
X036621Y031134D02*
X036661Y031174D01*
X036701D01*
X036661Y031214D01*
X036701Y031254D01*
X036661D01*
X036621Y031294D01*
X036581Y031254D01*
X036541D01*
X036581Y031214D01*
X036541Y031174D01*
X036581D01*
X036621Y031134D01*
Y031174D02*
X036641Y031194D01*
X036661D01*
X036641Y031214D01*
X036661Y031234D01*
X036641D01*
X036621Y031254D01*
X036601Y031234D01*
X036581D01*
X036601Y031214D01*
X036581Y031194D01*
X036601D01*
X036621Y031174D01*
X035346Y030814D02*
X035386Y030854D01*
X035426D01*
X035386Y030894D01*
X035426Y030934D01*
X035386D01*
X035346Y030974D01*
X035306Y030934D01*
X035266D01*
X035306Y030894D01*
X035266Y030854D01*
X035306D01*
X035346Y030814D01*
Y030854D02*
X035366Y030874D01*
X035386D01*
X035366Y030894D01*
X035386Y030914D01*
X035366D01*
X035346Y030934D01*
X035326Y030914D01*
X035306D01*
X035326Y030894D01*
X035306Y030874D01*
X035326D01*
X035346Y030854D01*
X036399Y030006D02*
X036439Y030046D01*
X036479D01*
X036439Y030086D01*
X036479Y030126D01*
X036439D01*
X036399Y030166D01*
X036359Y030126D01*
X036319D01*
X036359Y030086D01*
X036319Y030046D01*
X036359D01*
X036399Y030006D01*
Y030046D02*
X036419Y030066D01*
X036439D01*
X036419Y030086D01*
X036439Y030106D01*
X036419D01*
X036399Y030126D01*
X036379Y030106D01*
X036359D01*
X036379Y030086D01*
X036359Y030066D01*
X036379D01*
X036399Y030046D01*
X04175Y03002D02*
X04179Y03006D01*
X04183D01*
X04179Y0301D01*
X04183Y03014D01*
X04179D01*
X04175Y03018D01*
X04171Y03014D01*
X04167D01*
X04171Y0301D01*
X04167Y03006D01*
X04171D01*
X04175Y03002D01*
Y03006D02*
X04177Y03008D01*
X04179D01*
X04177Y0301D01*
X04179Y03012D01*
X04177D01*
X04175Y03014D01*
X04173Y03012D01*
X04171D01*
X04173Y0301D01*
X04171Y03008D01*
X04173D01*
X04175Y03006D01*
X045233Y030355D02*
X045273Y030395D01*
X045313D01*
X045273Y030435D01*
X045313Y030475D01*
X045273D01*
X045233Y030515D01*
X045193Y030475D01*
X045153D01*
X045193Y030435D01*
X045153Y030395D01*
X045193D01*
X045233Y030355D01*
Y030395D02*
X045253Y030415D01*
X045273D01*
X045253Y030435D01*
X045273Y030455D01*
X045253D01*
X045233Y030475D01*
X045213Y030455D01*
X045193D01*
X045213Y030435D01*
X045193Y030415D01*
X045213D01*
X045233Y030395D01*
X046097Y031346D02*
X046137Y031386D01*
X046177D01*
X046137Y031426D01*
X046177Y031466D01*
X046137D01*
X046097Y031506D01*
X046057Y031466D01*
X046017D01*
X046057Y031426D01*
X046017Y031386D01*
X046057D01*
X046097Y031346D01*
Y031386D02*
X046117Y031406D01*
X046137D01*
X046117Y031426D01*
X046137Y031446D01*
X046117D01*
X046097Y031466D01*
X046077Y031446D01*
X046057D01*
X046077Y031426D01*
X046057Y031406D01*
X046077D01*
X046097Y031386D01*
X046114Y032661D02*
X046154Y032701D01*
X046194D01*
X046154Y032741D01*
X046194Y032781D01*
X046154D01*
X046114Y032821D01*
X046074Y032781D01*
X046034D01*
X046074Y032741D01*
X046034Y032701D01*
X046074D01*
X046114Y032661D01*
Y032701D02*
X046134Y032721D01*
X046154D01*
X046134Y032741D01*
X046154Y032761D01*
X046134D01*
X046114Y032781D01*
X046094Y032761D01*
X046074D01*
X046094Y032741D01*
X046074Y032721D01*
X046094D01*
X046114Y032701D01*
Y033976D02*
X046154Y034016D01*
X046194D01*
X046154Y034056D01*
X046194Y034096D01*
X046154D01*
X046114Y034136D01*
X046074Y034096D01*
X046034D01*
X046074Y034056D01*
X046034Y034016D01*
X046074D01*
X046114Y033976D01*
Y034016D02*
X046134Y034036D01*
X046154D01*
X046134Y034056D01*
X046154Y034076D01*
X046134D01*
X046114Y034096D01*
X046094Y034076D01*
X046074D01*
X046094Y034056D01*
X046074Y034036D01*
X046094D01*
X046114Y034016D01*
Y035291D02*
X046154Y035331D01*
X046194D01*
X046154Y035371D01*
X046194Y035411D01*
X046154D01*
X046114Y035451D01*
X046074Y035411D01*
X046034D01*
X046074Y035371D01*
X046034Y035331D01*
X046074D01*
X046114Y035291D01*
Y035331D02*
X046134Y035351D01*
X046154D01*
X046134Y035371D01*
X046154Y035391D01*
X046134D01*
X046114Y035411D01*
X046094Y035391D01*
X046074D01*
X046094Y035371D01*
X046074Y035351D01*
X046094D01*
X046114Y035331D01*
Y036606D02*
X046154Y036646D01*
X046194D01*
X046154Y036686D01*
X046194Y036726D01*
X046154D01*
X046114Y036766D01*
X046074Y036726D01*
X046034D01*
X046074Y036686D01*
X046034Y036646D01*
X046074D01*
X046114Y036606D01*
Y036646D02*
X046134Y036666D01*
X046154D01*
X046134Y036686D01*
X046154Y036706D01*
X046134D01*
X046114Y036726D01*
X046094Y036706D01*
X046074D01*
X046094Y036686D01*
X046074Y036666D01*
X046094D01*
X046114Y036646D01*
Y037921D02*
X046154Y037961D01*
X046194D01*
X046154Y038001D01*
X046194Y038041D01*
X046154D01*
X046114Y038081D01*
X046074Y038041D01*
X046034D01*
X046074Y038001D01*
X046034Y037961D01*
X046074D01*
X046114Y037921D01*
Y037961D02*
X046134Y037981D01*
X046154D01*
X046134Y038001D01*
X046154Y038021D01*
X046134D01*
X046114Y038041D01*
X046094Y038021D01*
X046074D01*
X046094Y038001D01*
X046074Y037981D01*
X046094D01*
X046114Y037961D01*
Y039236D02*
X046154Y039276D01*
X046194D01*
X046154Y039316D01*
X046194Y039356D01*
X046154D01*
X046114Y039396D01*
X046074Y039356D01*
X046034D01*
X046074Y039316D01*
X046034Y039276D01*
X046074D01*
X046114Y039236D01*
Y039276D02*
X046134Y039296D01*
X046154D01*
X046134Y039316D01*
X046154Y039336D01*
X046134D01*
X046114Y039356D01*
X046094Y039336D01*
X046074D01*
X046094Y039316D01*
X046074Y039296D01*
X046094D01*
X046114Y039276D01*
Y040551D02*
X046154Y040591D01*
X046194D01*
X046154Y040631D01*
X046194Y040671D01*
X046154D01*
X046114Y040711D01*
X046074Y040671D01*
X046034D01*
X046074Y040631D01*
X046034Y040591D01*
X046074D01*
X046114Y040551D01*
Y040591D02*
X046134Y040611D01*
X046154D01*
X046134Y040631D01*
X046154Y040651D01*
X046134D01*
X046114Y040671D01*
X046094Y040651D01*
X046074D01*
X046094Y040631D01*
X046074Y040611D01*
X046094D01*
X046114Y040591D01*
Y041866D02*
X046154Y041906D01*
X046194D01*
X046154Y041946D01*
X046194Y041986D01*
X046154D01*
X046114Y042026D01*
X046074Y041986D01*
X046034D01*
X046074Y041946D01*
X046034Y041906D01*
X046074D01*
X046114Y041866D01*
Y041906D02*
X046134Y041926D01*
X046154D01*
X046134Y041946D01*
X046154Y041966D01*
X046134D01*
X046114Y041986D01*
X046094Y041966D01*
X046074D01*
X046094Y041946D01*
X046074Y041926D01*
X046094D01*
X046114Y041906D01*
Y04318D02*
X046154Y04322D01*
X046194D01*
X046154Y04326D01*
X046194Y0433D01*
X046154D01*
X046114Y04334D01*
X046074Y0433D01*
X046034D01*
X046074Y04326D01*
X046034Y04322D01*
X046074D01*
X046114Y04318D01*
Y04322D02*
X046134Y04324D01*
X046154D01*
X046134Y04326D01*
X046154Y04328D01*
X046134D01*
X046114Y0433D01*
X046094Y04328D01*
X046074D01*
X046094Y04326D01*
X046074Y04324D01*
X046094D01*
X046114Y04322D01*
X046107Y044495D02*
X046147Y044535D01*
X046187D01*
X046147Y044575D01*
X046187Y044615D01*
X046147D01*
X046107Y044655D01*
X046067Y044615D01*
X046027D01*
X046067Y044575D01*
X046027Y044535D01*
X046067D01*
X046107Y044495D01*
Y044535D02*
X046127Y044555D01*
X046147D01*
X046127Y044575D01*
X046147Y044595D01*
X046127D01*
X046107Y044615D01*
X046087Y044595D01*
X046067D01*
X046087Y044575D01*
X046067Y044555D01*
X046087D01*
X046107Y044535D01*
X045264Y045505D02*
X045304Y045545D01*
X045344D01*
X045304Y045585D01*
X045344Y045625D01*
X045304D01*
X045264Y045665D01*
X045224Y045625D01*
X045184D01*
X045224Y045585D01*
X045184Y045545D01*
X045224D01*
X045264Y045505D01*
Y045545D02*
X045284Y045565D01*
X045304D01*
X045284Y045585D01*
X045304Y045605D01*
X045284D01*
X045264Y045625D01*
X045244Y045605D01*
X045224D01*
X045244Y045585D01*
X045224Y045565D01*
X045244D01*
X045264Y045545D01*
X044334Y046434D02*
X044374Y046474D01*
X044414D01*
X044374Y046515D01*
X044414Y046554D01*
X044374D01*
X044334Y046595D01*
X044294Y046554D01*
X044254D01*
X044294Y046515D01*
X044254Y046474D01*
X044294D01*
X044334Y046434D01*
Y046474D02*
X044354Y046494D01*
X044374D01*
X044354Y046515D01*
X044374Y046535D01*
X044354D01*
X044334Y046554D01*
X044314Y046535D01*
X044294D01*
X044314Y046515D01*
X044294Y046494D01*
X044314D01*
X044334Y046474D01*
X043404Y047364D02*
X043444Y047404D01*
X043484D01*
X043444Y047444D01*
X043484Y047484D01*
X043444D01*
X043404Y047524D01*
X043364Y047484D01*
X043324D01*
X043364Y047444D01*
X043324Y047404D01*
X043364D01*
X043404Y047364D01*
Y047404D02*
X043424Y047424D01*
X043444D01*
X043424Y047444D01*
X043444Y047464D01*
X043424D01*
X043404Y047484D01*
X043384Y047464D01*
X043364D01*
X043384Y047444D01*
X043364Y047424D01*
X043384D01*
X043404Y047404D01*
X042474Y048294D02*
X042514Y048334D01*
X042554D01*
X042514Y048374D01*
X042554Y048414D01*
X042514D01*
X042474Y048454D01*
X042434Y048414D01*
X042394D01*
X042434Y048374D01*
X042394Y048334D01*
X042434D01*
X042474Y048294D01*
Y048334D02*
X042494Y048354D01*
X042514D01*
X042494Y048374D01*
X042514Y048394D01*
X042494D01*
X042474Y048414D01*
X042454Y048394D01*
X042434D01*
X042454Y048374D01*
X042434Y048354D01*
X042454D01*
X042474Y048334D01*
X041544Y049224D02*
X041584Y049264D01*
X041624D01*
X041584Y049304D01*
X041624Y049344D01*
X041584D01*
X041544Y049384D01*
X041504Y049344D01*
X041464D01*
X041504Y049304D01*
X041464Y049264D01*
X041504D01*
X041544Y049224D01*
Y049264D02*
X041564Y049284D01*
X041584D01*
X041564Y049304D01*
X041584Y049324D01*
X041564D01*
X041544Y049344D01*
X041524Y049324D01*
X041504D01*
X041524Y049304D01*
X041504Y049284D01*
X041524D01*
X041544Y049264D01*
X045Y04392D02*
X04504Y04396D01*
X04508D01*
X04504Y044D01*
X04508Y04404D01*
X04504D01*
X045Y04408D01*
X04496Y04404D01*
X04492D01*
X04496Y044D01*
X04492Y04396D01*
X04496D01*
X045Y04392D01*
Y04396D02*
X04502Y04398D01*
X04504D01*
X04502Y044D01*
X04504Y04402D01*
X04502D01*
X045Y04404D01*
X04498Y04402D01*
X04496D01*
X04498Y044D01*
X04496Y04398D01*
X04498D01*
X045Y04396D01*
Y03992D02*
X04504Y03996D01*
X04508D01*
X04504Y04D01*
X04508Y04004D01*
X04504D01*
X045Y04008D01*
X04496Y04004D01*
X04492D01*
X04496Y04D01*
X04492Y03996D01*
X04496D01*
X045Y03992D01*
Y03996D02*
X04502Y03998D01*
X04504D01*
X04502Y04D01*
X04504Y04002D01*
X04502D01*
X045Y04004D01*
X04498Y04002D01*
X04496D01*
X04498Y04D01*
X04496Y03998D01*
X04498D01*
X045Y03996D01*
X044Y03792D02*
X04404Y03796D01*
X04408D01*
X04404Y038D01*
X04408Y03804D01*
X04404D01*
X044Y03808D01*
X04396Y03804D01*
X04392D01*
X04396Y038D01*
X04392Y03796D01*
X04396D01*
X044Y03792D01*
Y03796D02*
X04402Y03798D01*
X04404D01*
X04402Y038D01*
X04404Y03802D01*
X04402D01*
X044Y03804D01*
X04398Y03802D01*
X04396D01*
X04398Y038D01*
X04396Y03798D01*
X04398D01*
X044Y03796D01*
X045Y03592D02*
X04504Y03596D01*
X04508D01*
X04504Y036D01*
X04508Y03604D01*
X04504D01*
X045Y03608D01*
X04496Y03604D01*
X04492D01*
X04496Y036D01*
X04492Y03596D01*
X04496D01*
X045Y03592D01*
Y03596D02*
X04502Y03598D01*
X04504D01*
X04502Y036D01*
X04504Y03602D01*
X04502D01*
X045Y03604D01*
X04498Y03602D01*
X04496D01*
X04498Y036D01*
X04496Y03598D01*
X04498D01*
X045Y03596D01*
Y03192D02*
X04504Y03196D01*
X04508D01*
X04504Y032D01*
X04508Y03204D01*
X04504D01*
X045Y03208D01*
X04496Y03204D01*
X04492D01*
X04496Y032D01*
X04492Y03196D01*
X04496D01*
X045Y03192D01*
Y03196D02*
X04502Y03198D01*
X04504D01*
X04502Y032D01*
X04504Y03202D01*
X04502D01*
X045Y03204D01*
X04498Y03202D01*
X04496D01*
X04498Y032D01*
X04496Y03198D01*
X04498D01*
X045Y03196D01*
X044Y02992D02*
X04404Y02996D01*
X04408D01*
X04404Y03D01*
X04408Y03004D01*
X04404D01*
X044Y03008D01*
X04396Y03004D01*
X04392D01*
X04396Y03D01*
X04392Y02996D01*
X04396D01*
X044Y02992D01*
Y02996D02*
X04402Y02998D01*
X04404D01*
X04402Y03D01*
X04404Y03002D01*
X04402D01*
X044Y03004D01*
X04398Y03002D01*
X04396D01*
X04398Y03D01*
X04396Y02998D01*
X04398D01*
X044Y02996D01*
X045Y02392D02*
X04504Y02396D01*
X04508D01*
X04504Y024D01*
X04508Y02404D01*
X04504D01*
X045Y02408D01*
X04496Y02404D01*
X04492D01*
X04496Y024D01*
X04492Y02396D01*
X04496D01*
X045Y02392D01*
Y02396D02*
X04502Y02398D01*
X04504D01*
X04502Y024D01*
X04504Y02402D01*
X04502D01*
X045Y02404D01*
X04498Y02402D01*
X04496D01*
X04498Y024D01*
X04496Y02398D01*
X04498D01*
X045Y02396D01*
X044Y02192D02*
X04404Y02196D01*
X04408D01*
X04404Y022D01*
X04408Y02204D01*
X04404D01*
X044Y02208D01*
X04396Y02204D01*
X04392D01*
X04396Y022D01*
X04392Y02196D01*
X04396D01*
X044Y02192D01*
Y02196D02*
X04402Y02198D01*
X04404D01*
X04402Y022D01*
X04404Y02202D01*
X04402D01*
X044Y02204D01*
X04398Y02202D01*
X04396D01*
X04398Y022D01*
X04396Y02198D01*
X04398D01*
X044Y02196D01*
X043Y04792D02*
X04304Y04796D01*
X04308D01*
X04304Y048D01*
X04308Y04804D01*
X04304D01*
X043Y04808D01*
X04296Y04804D01*
X04292D01*
X04296Y048D01*
X04292Y04796D01*
X04296D01*
X043Y04792D01*
Y04796D02*
X04302Y04798D01*
X04304D01*
X04302Y048D01*
X04304Y04802D01*
X04302D01*
X043Y04804D01*
X04298Y04802D01*
X04296D01*
X04298Y048D01*
X04296Y04798D01*
X04298D01*
X043Y04796D01*
X042Y04592D02*
X04204Y04596D01*
X04208D01*
X04204Y046D01*
X04208Y04604D01*
X04204D01*
X042Y04608D01*
X04196Y04604D01*
X04192D01*
X04196Y046D01*
X04192Y04596D01*
X04196D01*
X042Y04592D01*
Y04596D02*
X04202Y04598D01*
X04204D01*
X04202Y046D01*
X04204Y04602D01*
X04202D01*
X042Y04604D01*
X04198Y04602D01*
X04196D01*
X04198Y046D01*
X04196Y04598D01*
X04198D01*
X042Y04596D01*
X043Y04392D02*
X04304Y04396D01*
X04308D01*
X04304Y044D01*
X04308Y04404D01*
X04304D01*
X043Y04408D01*
X04296Y04404D01*
X04292D01*
X04296Y044D01*
X04292Y04396D01*
X04296D01*
X043Y04392D01*
Y04396D02*
X04302Y04398D01*
X04304D01*
X04302Y044D01*
X04304Y04402D01*
X04302D01*
X043Y04404D01*
X04298Y04402D01*
X04296D01*
X04298Y044D01*
X04296Y04398D01*
X04298D01*
X043Y04396D01*
Y03992D02*
X04304Y03996D01*
X04308D01*
X04304Y04D01*
X04308Y04004D01*
X04304D01*
X043Y04008D01*
X04296Y04004D01*
X04292D01*
X04296Y04D01*
X04292Y03996D01*
X04296D01*
X043Y03992D01*
Y03996D02*
X04302Y03998D01*
X04304D01*
X04302Y04D01*
X04304Y04002D01*
X04302D01*
X043Y04004D01*
X04298Y04002D01*
X04296D01*
X04298Y04D01*
X04296Y03998D01*
X04298D01*
X043Y03996D01*
X042Y03792D02*
X04204Y03796D01*
X04208D01*
X04204Y038D01*
X04208Y03804D01*
X04204D01*
X042Y03808D01*
X04196Y03804D01*
X04192D01*
X04196Y038D01*
X04192Y03796D01*
X04196D01*
X042Y03792D01*
Y03796D02*
X04202Y03798D01*
X04204D01*
X04202Y038D01*
X04204Y03802D01*
X04202D01*
X042Y03804D01*
X04198Y03802D01*
X04196D01*
X04198Y038D01*
X04196Y03798D01*
X04198D01*
X042Y03796D01*
Y03392D02*
X04204Y03396D01*
X04208D01*
X04204Y034D01*
X04208Y03404D01*
X04204D01*
X042Y03408D01*
X04196Y03404D01*
X04192D01*
X04196Y034D01*
X04192Y03396D01*
X04196D01*
X042Y03392D01*
Y03396D02*
X04202Y03398D01*
X04204D01*
X04202Y034D01*
X04204Y03402D01*
X04202D01*
X042Y03404D01*
X04198Y03402D01*
X04196D01*
X04198Y034D01*
X04196Y03398D01*
X04198D01*
X042Y03396D01*
Y02592D02*
X04204Y02596D01*
X04208D01*
X04204Y026D01*
X04208Y02604D01*
X04204D01*
X042Y02608D01*
X04196Y02604D01*
X04192D01*
X04196Y026D01*
X04192Y02596D01*
X04196D01*
X042Y02592D01*
Y02596D02*
X04202Y02598D01*
X04204D01*
X04202Y026D01*
X04204Y02602D01*
X04202D01*
X042Y02604D01*
X04198Y02602D01*
X04196D01*
X04198Y026D01*
X04196Y02598D01*
X04198D01*
X042Y02596D01*
X043Y02392D02*
X04304Y02396D01*
X04308D01*
X04304Y024D01*
X04308Y02404D01*
X04304D01*
X043Y02408D01*
X04296Y02404D01*
X04292D01*
X04296Y024D01*
X04292Y02396D01*
X04296D01*
X043Y02392D01*
Y02396D02*
X04302Y02398D01*
X04304D01*
X04302Y024D01*
X04304Y02402D01*
X04302D01*
X043Y02404D01*
X04298Y02402D01*
X04296D01*
X04298Y024D01*
X04296Y02398D01*
X04298D01*
X043Y02396D01*
X042Y02192D02*
X04204Y02196D01*
X04208D01*
X04204Y022D01*
X04208Y02204D01*
X04204D01*
X042Y02208D01*
X04196Y02204D01*
X04192D01*
X04196Y022D01*
X04192Y02196D01*
X04196D01*
X042Y02192D01*
Y02196D02*
X04202Y02198D01*
X04204D01*
X04202Y022D01*
X04204Y02202D01*
X04202D01*
X042Y02204D01*
X04198Y02202D01*
X04196D01*
X04198Y022D01*
X04196Y02198D01*
X04198D01*
X042Y02196D01*
X041Y04392D02*
X04104Y04396D01*
X04108D01*
X04104Y044D01*
X04108Y04404D01*
X04104D01*
X041Y04408D01*
X04096Y04404D01*
X04092D01*
X04096Y044D01*
X04092Y04396D01*
X04096D01*
X041Y04392D01*
Y04396D02*
X04102Y04398D01*
X04104D01*
X04102Y044D01*
X04104Y04402D01*
X04102D01*
X041Y04404D01*
X04098Y04402D01*
X04096D01*
X04098Y044D01*
X04096Y04398D01*
X04098D01*
X041Y04396D01*
X04Y03392D02*
X04004Y03396D01*
X04008D01*
X04004Y034D01*
X04008Y03404D01*
X04004D01*
X04Y03408D01*
X03996Y03404D01*
X03992D01*
X03996Y034D01*
X03992Y03396D01*
X03996D01*
X04Y03392D01*
Y03396D02*
X04002Y03398D01*
X04004D01*
X04002Y034D01*
X04004Y03402D01*
X04002D01*
X04Y03404D01*
X03998Y03402D01*
X03996D01*
X03998Y034D01*
X03996Y03398D01*
X03998D01*
X04Y03396D01*
Y02992D02*
X04004Y02996D01*
X04008D01*
X04004Y03D01*
X04008Y03004D01*
X04004D01*
X04Y03008D01*
X03996Y03004D01*
X03992D01*
X03996Y03D01*
X03992Y02996D01*
X03996D01*
X04Y02992D01*
Y02996D02*
X04002Y02998D01*
X04004D01*
X04002Y03D01*
X04004Y03002D01*
X04002D01*
X04Y03004D01*
X03998Y03002D01*
X03996D01*
X03998Y03D01*
X03996Y02998D01*
X03998D01*
X04Y02996D01*
X041Y02392D02*
X04104Y02396D01*
X04108D01*
X04104Y024D01*
X04108Y02404D01*
X04104D01*
X041Y02408D01*
X04096Y02404D01*
X04092D01*
X04096Y024D01*
X04092Y02396D01*
X04096D01*
X041Y02392D01*
Y02396D02*
X04102Y02398D01*
X04104D01*
X04102Y024D01*
X04104Y02402D01*
X04102D01*
X041Y02404D01*
X04098Y02402D01*
X04096D01*
X04098Y024D01*
X04096Y02398D01*
X04098D01*
X041Y02396D01*
X04Y02192D02*
X04004Y02196D01*
X04008D01*
X04004Y022D01*
X04008Y02204D01*
X04004D01*
X04Y02208D01*
X03996Y02204D01*
X03992D01*
X03996Y022D01*
X03992Y02196D01*
X03996D01*
X04Y02192D01*
Y02196D02*
X04002Y02198D01*
X04004D01*
X04002Y022D01*
X04004Y02202D01*
X04002D01*
X04Y02204D01*
X03998Y02202D01*
X03996D01*
X03998Y022D01*
X03996Y02198D01*
X03998D01*
X04Y02196D01*
X039Y04792D02*
X03904Y04796D01*
X03908D01*
X03904Y048D01*
X03908Y04804D01*
X03904D01*
X039Y04808D01*
X03896Y04804D01*
X03892D01*
X03896Y048D01*
X03892Y04796D01*
X03896D01*
X039Y04792D01*
Y04796D02*
X03902Y04798D01*
X03904D01*
X03902Y048D01*
X03904Y04802D01*
X03902D01*
X039Y04804D01*
X03898Y04802D01*
X03896D01*
X03898Y048D01*
X03896Y04798D01*
X03898D01*
X039Y04796D01*
Y04392D02*
X03904Y04396D01*
X03908D01*
X03904Y044D01*
X03908Y04404D01*
X03904D01*
X039Y04408D01*
X03896Y04404D01*
X03892D01*
X03896Y044D01*
X03892Y04396D01*
X03896D01*
X039Y04392D01*
Y04396D02*
X03902Y04398D01*
X03904D01*
X03902Y044D01*
X03904Y04402D01*
X03902D01*
X039Y04404D01*
X03898Y04402D01*
X03896D01*
X03898Y044D01*
X03896Y04398D01*
X03898D01*
X039Y04396D01*
Y03592D02*
X03904Y03596D01*
X03908D01*
X03904Y036D01*
X03908Y03604D01*
X03904D01*
X039Y03608D01*
X03896Y03604D01*
X03892D01*
X03896Y036D01*
X03892Y03596D01*
X03896D01*
X039Y03592D01*
Y03596D02*
X03902Y03598D01*
X03904D01*
X03902Y036D01*
X03904Y03602D01*
X03902D01*
X039Y03604D01*
X03898Y03602D01*
X03896D01*
X03898Y036D01*
X03896Y03598D01*
X03898D01*
X039Y03596D01*
X038Y02992D02*
X03804Y02996D01*
X03808D01*
X03804Y03D01*
X03808Y03004D01*
X03804D01*
X038Y03008D01*
X03796Y03004D01*
X03792D01*
X03796Y03D01*
X03792Y02996D01*
X03796D01*
X038Y02992D01*
Y02996D02*
X03802Y02998D01*
X03804D01*
X03802Y03D01*
X03804Y03002D01*
X03802D01*
X038Y03004D01*
X03798Y03002D01*
X03796D01*
X03798Y03D01*
X03796Y02998D01*
X03798D01*
X038Y02996D01*
Y02592D02*
X03804Y02596D01*
X03808D01*
X03804Y026D01*
X03808Y02604D01*
X03804D01*
X038Y02608D01*
X03796Y02604D01*
X03792D01*
X03796Y026D01*
X03792Y02596D01*
X03796D01*
X038Y02592D01*
Y02596D02*
X03802Y02598D01*
X03804D01*
X03802Y026D01*
X03804Y02602D01*
X03802D01*
X038Y02604D01*
X03798Y02602D01*
X03796D01*
X03798Y026D01*
X03796Y02598D01*
X03798D01*
X038Y02596D01*
X039Y02392D02*
X03904Y02396D01*
X03908D01*
X03904Y024D01*
X03908Y02404D01*
X03904D01*
X039Y02408D01*
X03896Y02404D01*
X03892D01*
X03896Y024D01*
X03892Y02396D01*
X03896D01*
X039Y02392D01*
Y02396D02*
X03902Y02398D01*
X03904D01*
X03902Y024D01*
X03904Y02402D01*
X03902D01*
X039Y02404D01*
X03898Y02402D01*
X03896D01*
X03898Y024D01*
X03896Y02398D01*
X03898D01*
X039Y02396D01*
X038Y02192D02*
X03804Y02196D01*
X03808D01*
X03804Y022D01*
X03808Y02204D01*
X03804D01*
X038Y02208D01*
X03796Y02204D01*
X03792D01*
X03796Y022D01*
X03792Y02196D01*
X03796D01*
X038Y02192D01*
Y02196D02*
X03802Y02198D01*
X03804D01*
X03802Y022D01*
X03804Y02202D01*
X03802D01*
X038Y02204D01*
X03798Y02202D01*
X03796D01*
X03798Y022D01*
X03796Y02198D01*
X03798D01*
X038Y02196D01*
X037Y04792D02*
X03704Y04796D01*
X03708D01*
X03704Y048D01*
X03708Y04804D01*
X03704D01*
X037Y04808D01*
X03696Y04804D01*
X03692D01*
X03696Y048D01*
X03692Y04796D01*
X03696D01*
X037Y04792D01*
Y04796D02*
X03702Y04798D01*
X03704D01*
X03702Y048D01*
X03704Y04802D01*
X03702D01*
X037Y04804D01*
X03698Y04802D01*
X03696D01*
X03698Y048D01*
X03696Y04798D01*
X03698D01*
X037Y04796D01*
X036Y04592D02*
X03604Y04596D01*
X03608D01*
X03604Y046D01*
X03608Y04604D01*
X03604D01*
X036Y04608D01*
X03596Y04604D01*
X03592D01*
X03596Y046D01*
X03592Y04596D01*
X03596D01*
X036Y04592D01*
Y04596D02*
X03602Y04598D01*
X03604D01*
X03602Y046D01*
X03604Y04602D01*
X03602D01*
X036Y04604D01*
X03598Y04602D01*
X03596D01*
X03598Y046D01*
X03596Y04598D01*
X03598D01*
X036Y04596D01*
X037Y03992D02*
X03704Y03996D01*
X03708D01*
X03704Y04D01*
X03708Y04004D01*
X03704D01*
X037Y04008D01*
X03696Y04004D01*
X03692D01*
X03696Y04D01*
X03692Y03996D01*
X03696D01*
X037Y03992D01*
Y03996D02*
X03702Y03998D01*
X03704D01*
X03702Y04D01*
X03704Y04002D01*
X03702D01*
X037Y04004D01*
X03698Y04002D01*
X03696D01*
X03698Y04D01*
X03696Y03998D01*
X03698D01*
X037Y03996D01*
Y03592D02*
X03704Y03596D01*
X03708D01*
X03704Y036D01*
X03708Y03604D01*
X03704D01*
X037Y03608D01*
X03696Y03604D01*
X03692D01*
X03696Y036D01*
X03692Y03596D01*
X03696D01*
X037Y03592D01*
Y03596D02*
X03702Y03598D01*
X03704D01*
X03702Y036D01*
X03704Y03602D01*
X03702D01*
X037Y03604D01*
X03698Y03602D01*
X03696D01*
X03698Y036D01*
X03696Y03598D01*
X03698D01*
X037Y03596D01*
X036Y02992D02*
X03604Y02996D01*
X03608D01*
X03604Y03D01*
X03608Y03004D01*
X03604D01*
X036Y03008D01*
X03596Y03004D01*
X03592D01*
X03596Y03D01*
X03592Y02996D01*
X03596D01*
X036Y02992D01*
Y02996D02*
X03602Y02998D01*
X03604D01*
X03602Y03D01*
X03604Y03002D01*
X03602D01*
X036Y03004D01*
X03598Y03002D01*
X03596D01*
X03598Y03D01*
X03596Y02998D01*
X03598D01*
X036Y02996D01*
X037Y02392D02*
X03704Y02396D01*
X03708D01*
X03704Y024D01*
X03708Y02404D01*
X03704D01*
X037Y02408D01*
X03696Y02404D01*
X03692D01*
X03696Y024D01*
X03692Y02396D01*
X03696D01*
X037Y02392D01*
Y02396D02*
X03702Y02398D01*
X03704D01*
X03702Y024D01*
X03704Y02402D01*
X03702D01*
X037Y02404D01*
X03698Y02402D01*
X03696D01*
X03698Y024D01*
X03696Y02398D01*
X03698D01*
X037Y02396D01*
X036Y02192D02*
X03604Y02196D01*
X03608D01*
X03604Y022D01*
X03608Y02204D01*
X03604D01*
X036Y02208D01*
X03596Y02204D01*
X03592D01*
X03596Y022D01*
X03592Y02196D01*
X03596D01*
X036Y02192D01*
Y02196D02*
X03602Y02198D01*
X03604D01*
X03602Y022D01*
X03604Y02202D01*
X03602D01*
X036Y02204D01*
X03598Y02202D01*
X03596D01*
X03598Y022D01*
X03596Y02198D01*
X03598D01*
X036Y02196D01*
X035Y04392D02*
X03504Y04396D01*
X03508D01*
X03504Y044D01*
X03508Y04404D01*
X03504D01*
X035Y04408D01*
X03496Y04404D01*
X03492D01*
X03496Y044D01*
X03492Y04396D01*
X03496D01*
X035Y04392D01*
Y04396D02*
X03502Y04398D01*
X03504D01*
X03502Y044D01*
X03504Y04402D01*
X03502D01*
X035Y04404D01*
X03498Y04402D01*
X03496D01*
X03498Y044D01*
X03496Y04398D01*
X03498D01*
X035Y04396D01*
X034Y04192D02*
X03404Y04196D01*
X03408D01*
X03404Y042D01*
X03408Y04204D01*
X03404D01*
X034Y04208D01*
X03396Y04204D01*
X03392D01*
X03396Y042D01*
X03392Y04196D01*
X03396D01*
X034Y04192D01*
Y04196D02*
X03402Y04198D01*
X03404D01*
X03402Y042D01*
X03404Y04202D01*
X03402D01*
X034Y04204D01*
X03398Y04202D01*
X03396D01*
X03398Y042D01*
X03396Y04198D01*
X03398D01*
X034Y04196D01*
X035Y03192D02*
X03504Y03196D01*
X03508D01*
X03504Y032D01*
X03508Y03204D01*
X03504D01*
X035Y03208D01*
X03496Y03204D01*
X03492D01*
X03496Y032D01*
X03492Y03196D01*
X03496D01*
X035Y03192D01*
Y03196D02*
X03502Y03198D01*
X03504D01*
X03502Y032D01*
X03504Y03202D01*
X03502D01*
X035Y03204D01*
X03498Y03202D01*
X03496D01*
X03498Y032D01*
X03496Y03198D01*
X03498D01*
X035Y03196D01*
X034Y02992D02*
X03404Y02996D01*
X03408D01*
X03404Y03D01*
X03408Y03004D01*
X03404D01*
X034Y03008D01*
X03396Y03004D01*
X03392D01*
X03396Y03D01*
X03392Y02996D01*
X03396D01*
X034Y02992D01*
Y02996D02*
X03402Y02998D01*
X03404D01*
X03402Y03D01*
X03404Y03002D01*
X03402D01*
X034Y03004D01*
X03398Y03002D01*
X03396D01*
X03398Y03D01*
X03396Y02998D01*
X03398D01*
X034Y02996D01*
Y02592D02*
X03404Y02596D01*
X03408D01*
X03404Y026D01*
X03408Y02604D01*
X03404D01*
X034Y02608D01*
X03396Y02604D01*
X03392D01*
X03396Y026D01*
X03392Y02596D01*
X03396D01*
X034Y02592D01*
Y02596D02*
X03402Y02598D01*
X03404D01*
X03402Y026D01*
X03404Y02602D01*
X03402D01*
X034Y02604D01*
X03398Y02602D01*
X03396D01*
X03398Y026D01*
X03396Y02598D01*
X03398D01*
X034Y02596D01*
X035Y02392D02*
X03504Y02396D01*
X03508D01*
X03504Y024D01*
X03508Y02404D01*
X03504D01*
X035Y02408D01*
X03496Y02404D01*
X03492D01*
X03496Y024D01*
X03492Y02396D01*
X03496D01*
X035Y02392D01*
Y02396D02*
X03502Y02398D01*
X03504D01*
X03502Y024D01*
X03504Y02402D01*
X03502D01*
X035Y02404D01*
X03498Y02402D01*
X03496D01*
X03498Y024D01*
X03496Y02398D01*
X03498D01*
X035Y02396D01*
X034Y02192D02*
X03404Y02196D01*
X03408D01*
X03404Y022D01*
X03408Y02204D01*
X03404D01*
X034Y02208D01*
X03396Y02204D01*
X03392D01*
X03396Y022D01*
X03392Y02196D01*
X03396D01*
X034Y02192D01*
Y02196D02*
X03402Y02198D01*
X03404D01*
X03402Y022D01*
X03404Y02202D01*
X03402D01*
X034Y02204D01*
X03398Y02202D01*
X03396D01*
X03398Y022D01*
X03396Y02198D01*
X03398D01*
X034Y02196D01*
X033Y03992D02*
X03304Y03996D01*
X03308D01*
X03304Y04D01*
X03308Y04004D01*
X03304D01*
X033Y04008D01*
X03296Y04004D01*
X03292D01*
X03296Y04D01*
X03292Y03996D01*
X03296D01*
X033Y03992D01*
Y03996D02*
X03302Y03998D01*
X03304D01*
X03302Y04D01*
X03304Y04002D01*
X03302D01*
X033Y04004D01*
X03298Y04002D01*
X03296D01*
X03298Y04D01*
X03296Y03998D01*
X03298D01*
X033Y03996D01*
X032Y03792D02*
X03204Y03796D01*
X03208D01*
X03204Y038D01*
X03208Y03804D01*
X03204D01*
X032Y03808D01*
X03196Y03804D01*
X03192D01*
X03196Y038D01*
X03192Y03796D01*
X03196D01*
X032Y03792D01*
Y03796D02*
X03202Y03798D01*
X03204D01*
X03202Y038D01*
X03204Y03802D01*
X03202D01*
X032Y03804D01*
X03198Y03802D01*
X03196D01*
X03198Y038D01*
X03196Y03798D01*
X03198D01*
X032Y03796D01*
Y03392D02*
X03204Y03396D01*
X03208D01*
X03204Y034D01*
X03208Y03404D01*
X03204D01*
X032Y03408D01*
X03196Y03404D01*
X03192D01*
X03196Y034D01*
X03192Y03396D01*
X03196D01*
X032Y03392D01*
Y03396D02*
X03202Y03398D01*
X03204D01*
X03202Y034D01*
X03204Y03402D01*
X03202D01*
X032Y03404D01*
X03198Y03402D01*
X03196D01*
X03198Y034D01*
X03196Y03398D01*
X03198D01*
X032Y03396D01*
X033Y03192D02*
X03304Y03196D01*
X03308D01*
X03304Y032D01*
X03308Y03204D01*
X03304D01*
X033Y03208D01*
X03296Y03204D01*
X03292D01*
X03296Y032D01*
X03292Y03196D01*
X03296D01*
X033Y03192D01*
Y03196D02*
X03302Y03198D01*
X03304D01*
X03302Y032D01*
X03304Y03202D01*
X03302D01*
X033Y03204D01*
X03298Y03202D01*
X03296D01*
X03298Y032D01*
X03296Y03198D01*
X03298D01*
X033Y03196D01*
X032Y02992D02*
X03204Y02996D01*
X03208D01*
X03204Y03D01*
X03208Y03004D01*
X03204D01*
X032Y03008D01*
X03196Y03004D01*
X03192D01*
X03196Y03D01*
X03192Y02996D01*
X03196D01*
X032Y02992D01*
Y02996D02*
X03202Y02998D01*
X03204D01*
X03202Y03D01*
X03204Y03002D01*
X03202D01*
X032Y03004D01*
X03198Y03002D01*
X03196D01*
X03198Y03D01*
X03196Y02998D01*
X03198D01*
X032Y02996D01*
X033Y02792D02*
X03304Y02796D01*
X03308D01*
X03304Y028D01*
X03308Y02804D01*
X03304D01*
X033Y02808D01*
X03296Y02804D01*
X03292D01*
X03296Y028D01*
X03292Y02796D01*
X03296D01*
X033Y02792D01*
Y02796D02*
X03302Y02798D01*
X03304D01*
X03302Y028D01*
X03304Y02802D01*
X03302D01*
X033Y02804D01*
X03298Y02802D01*
X03296D01*
X03298Y028D01*
X03296Y02798D01*
X03298D01*
X033Y02796D01*
X032Y02592D02*
X03204Y02596D01*
X03208D01*
X03204Y026D01*
X03208Y02604D01*
X03204D01*
X032Y02608D01*
X03196Y02604D01*
X03192D01*
X03196Y026D01*
X03192Y02596D01*
X03196D01*
X032Y02592D01*
Y02596D02*
X03202Y02598D01*
X03204D01*
X03202Y026D01*
X03204Y02602D01*
X03202D01*
X032Y02604D01*
X03198Y02602D01*
X03196D01*
X03198Y026D01*
X03196Y02598D01*
X03198D01*
X032Y02596D01*
X033Y02392D02*
X03304Y02396D01*
X03308D01*
X03304Y024D01*
X03308Y02404D01*
X03304D01*
X033Y02408D01*
X03296Y02404D01*
X03292D01*
X03296Y024D01*
X03292Y02396D01*
X03296D01*
X033Y02392D01*
Y02396D02*
X03302Y02398D01*
X03304D01*
X03302Y024D01*
X03304Y02402D01*
X03302D01*
X033Y02404D01*
X03298Y02402D01*
X03296D01*
X03298Y024D01*
X03296Y02398D01*
X03298D01*
X033Y02396D01*
X032Y02192D02*
X03204Y02196D01*
X03208D01*
X03204Y022D01*
X03208Y02204D01*
X03204D01*
X032Y02208D01*
X03196Y02204D01*
X03192D01*
X03196Y022D01*
X03192Y02196D01*
X03196D01*
X032Y02192D01*
Y02196D02*
X03202Y02198D01*
X03204D01*
X03202Y022D01*
X03204Y02202D01*
X03202D01*
X032Y02204D01*
X03198Y02202D01*
X03196D01*
X03198Y022D01*
X03196Y02198D01*
X03198D01*
X032Y02196D01*
X031Y04792D02*
X03104Y04796D01*
X03108D01*
X03104Y048D01*
X03108Y04804D01*
X03104D01*
X031Y04808D01*
X03096Y04804D01*
X03092D01*
X03096Y048D01*
X03092Y04796D01*
X03096D01*
X031Y04792D01*
Y04796D02*
X03102Y04798D01*
X03104D01*
X03102Y048D01*
X03104Y04802D01*
X03102D01*
X031Y04804D01*
X03098Y04802D01*
X03096D01*
X03098Y048D01*
X03096Y04798D01*
X03098D01*
X031Y04796D01*
X03Y03392D02*
X03004Y03396D01*
X03008D01*
X03004Y034D01*
X03008Y03404D01*
X03004D01*
X03Y03408D01*
X02996Y03404D01*
X02992D01*
X02996Y034D01*
X02992Y03396D01*
X02996D01*
X03Y03392D01*
Y03396D02*
X03002Y03398D01*
X03004D01*
X03002Y034D01*
X03004Y03402D01*
X03002D01*
X03Y03404D01*
X02998Y03402D01*
X02996D01*
X02998Y034D01*
X02996Y03398D01*
X02998D01*
X03Y03396D01*
X031Y03192D02*
X03104Y03196D01*
X03108D01*
X03104Y032D01*
X03108Y03204D01*
X03104D01*
X031Y03208D01*
X03096Y03204D01*
X03092D01*
X03096Y032D01*
X03092Y03196D01*
X03096D01*
X031Y03192D01*
Y03196D02*
X03102Y03198D01*
X03104D01*
X03102Y032D01*
X03104Y03202D01*
X03102D01*
X031Y03204D01*
X03098Y03202D01*
X03096D01*
X03098Y032D01*
X03096Y03198D01*
X03098D01*
X031Y03196D01*
X03Y02592D02*
X03004Y02596D01*
X03008D01*
X03004Y026D01*
X03008Y02604D01*
X03004D01*
X03Y02608D01*
X02996Y02604D01*
X02992D01*
X02996Y026D01*
X02992Y02596D01*
X02996D01*
X03Y02592D01*
Y02596D02*
X03002Y02598D01*
X03004D01*
X03002Y026D01*
X03004Y02602D01*
X03002D01*
X03Y02604D01*
X02998Y02602D01*
X02996D01*
X02998Y026D01*
X02996Y02598D01*
X02998D01*
X03Y02596D01*
Y02192D02*
X03004Y02196D01*
X03008D01*
X03004Y022D01*
X03008Y02204D01*
X03004D01*
X03Y02208D01*
X02996Y02204D01*
X02992D01*
X02996Y022D01*
X02992Y02196D01*
X02996D01*
X03Y02192D01*
Y02196D02*
X03002Y02198D01*
X03004D01*
X03002Y022D01*
X03004Y02202D01*
X03002D01*
X03Y02204D01*
X02998Y02202D01*
X02996D01*
X02998Y022D01*
X02996Y02198D01*
X02998D01*
X03Y02196D01*
X028Y04592D02*
X02804Y04596D01*
X02808D01*
X02804Y046D01*
X02808Y04604D01*
X02804D01*
X028Y04608D01*
X02796Y04604D01*
X02792D01*
X02796Y046D01*
X02792Y04596D01*
X02796D01*
X028Y04592D01*
Y04596D02*
X02802Y04598D01*
X02804D01*
X02802Y046D01*
X02804Y04602D01*
X02802D01*
X028Y04604D01*
X02798Y04602D01*
X02796D01*
X02798Y046D01*
X02796Y04598D01*
X02798D01*
X028Y04596D01*
Y04192D02*
X02804Y04196D01*
X02808D01*
X02804Y042D01*
X02808Y04204D01*
X02804D01*
X028Y04208D01*
X02796Y04204D01*
X02792D01*
X02796Y042D01*
X02792Y04196D01*
X02796D01*
X028Y04192D01*
Y04196D02*
X02802Y04198D01*
X02804D01*
X02802Y042D01*
X02804Y04202D01*
X02802D01*
X028Y04204D01*
X02798Y04202D01*
X02796D01*
X02798Y042D01*
X02796Y04198D01*
X02798D01*
X028Y04196D01*
X029Y03192D02*
X02904Y03196D01*
X02908D01*
X02904Y032D01*
X02908Y03204D01*
X02904D01*
X029Y03208D01*
X02896Y03204D01*
X02892D01*
X02896Y032D01*
X02892Y03196D01*
X02896D01*
X029Y03192D01*
Y03196D02*
X02902Y03198D01*
X02904D01*
X02902Y032D01*
X02904Y03202D01*
X02902D01*
X029Y03204D01*
X02898Y03202D01*
X02896D01*
X02898Y032D01*
X02896Y03198D01*
X02898D01*
X029Y03196D01*
X028Y02592D02*
X02804Y02596D01*
X02808D01*
X02804Y026D01*
X02808Y02604D01*
X02804D01*
X028Y02608D01*
X02796Y02604D01*
X02792D01*
X02796Y026D01*
X02792Y02596D01*
X02796D01*
X028Y02592D01*
Y02596D02*
X02802Y02598D01*
X02804D01*
X02802Y026D01*
X02804Y02602D01*
X02802D01*
X028Y02604D01*
X02798Y02602D01*
X02796D01*
X02798Y026D01*
X02796Y02598D01*
X02798D01*
X028Y02596D01*
Y02192D02*
X02804Y02196D01*
X02808D01*
X02804Y022D01*
X02808Y02204D01*
X02804D01*
X028Y02208D01*
X02796Y02204D01*
X02792D01*
X02796Y022D01*
X02792Y02196D01*
X02796D01*
X028Y02192D01*
Y02196D02*
X02802Y02198D01*
X02804D01*
X02802Y022D01*
X02804Y02202D01*
X02802D01*
X028Y02204D01*
X02798Y02202D01*
X02796D01*
X02798Y022D01*
X02796Y02198D01*
X02798D01*
X028Y02196D01*
X027Y03192D02*
X02704Y03196D01*
X02708D01*
X02704Y032D01*
X02708Y03204D01*
X02704D01*
X027Y03208D01*
X02696Y03204D01*
X02692D01*
X02696Y032D01*
X02692Y03196D01*
X02696D01*
X027Y03192D01*
Y03196D02*
X02702Y03198D01*
X02704D01*
X02702Y032D01*
X02704Y03202D01*
X02702D01*
X027Y03204D01*
X02698Y03202D01*
X02696D01*
X02698Y032D01*
X02696Y03198D01*
X02698D01*
X027Y03196D01*
X026Y02992D02*
X02604Y02996D01*
X02608D01*
X02604Y03D01*
X02608Y03004D01*
X02604D01*
X026Y03008D01*
X02596Y03004D01*
X02592D01*
X02596Y03D01*
X02592Y02996D01*
X02596D01*
X026Y02992D01*
Y02996D02*
X02602Y02998D01*
X02604D01*
X02602Y03D01*
X02604Y03002D01*
X02602D01*
X026Y03004D01*
X02598Y03002D01*
X02596D01*
X02598Y03D01*
X02596Y02998D01*
X02598D01*
X026Y02996D01*
X027Y02792D02*
X02704Y02796D01*
X02708D01*
X02704Y028D01*
X02708Y02804D01*
X02704D01*
X027Y02808D01*
X02696Y02804D01*
X02692D01*
X02696Y028D01*
X02692Y02796D01*
X02696D01*
X027Y02792D01*
Y02796D02*
X02702Y02798D01*
X02704D01*
X02702Y028D01*
X02704Y02802D01*
X02702D01*
X027Y02804D01*
X02698Y02802D01*
X02696D01*
X02698Y028D01*
X02696Y02798D01*
X02698D01*
X027Y02796D01*
X026Y02192D02*
X02604Y02196D01*
X02608D01*
X02604Y022D01*
X02608Y02204D01*
X02604D01*
X026Y02208D01*
X02596Y02204D01*
X02592D01*
X02596Y022D01*
X02592Y02196D01*
X02596D01*
X026Y02192D01*
Y02196D02*
X02602Y02198D01*
X02604D01*
X02602Y022D01*
X02604Y02202D01*
X02602D01*
X026Y02204D01*
X02598Y02202D01*
X02596D01*
X02598Y022D01*
X02596Y02198D01*
X02598D01*
X026Y02196D01*
X025Y04392D02*
X02504Y04396D01*
X02508D01*
X02504Y044D01*
X02508Y04404D01*
X02504D01*
X025Y04408D01*
X02496Y04404D01*
X02492D01*
X02496Y044D01*
X02492Y04396D01*
X02496D01*
X025Y04392D01*
Y04396D02*
X02502Y04398D01*
X02504D01*
X02502Y044D01*
X02504Y04402D01*
X02502D01*
X025Y04404D01*
X02498Y04402D01*
X02496D01*
X02498Y044D01*
X02496Y04398D01*
X02498D01*
X025Y04396D01*
X024Y03792D02*
X02404Y03796D01*
X02408D01*
X02404Y038D01*
X02408Y03804D01*
X02404D01*
X024Y03808D01*
X02396Y03804D01*
X02392D01*
X02396Y038D01*
X02392Y03796D01*
X02396D01*
X024Y03792D01*
Y03796D02*
X02402Y03798D01*
X02404D01*
X02402Y038D01*
X02404Y03802D01*
X02402D01*
X024Y03804D01*
X02398Y03802D01*
X02396D01*
X02398Y038D01*
X02396Y03798D01*
X02398D01*
X024Y03796D01*
Y03392D02*
X02404Y03396D01*
X02408D01*
X02404Y034D01*
X02408Y03404D01*
X02404D01*
X024Y03408D01*
X02396Y03404D01*
X02392D01*
X02396Y034D01*
X02392Y03396D01*
X02396D01*
X024Y03392D01*
Y03396D02*
X02402Y03398D01*
X02404D01*
X02402Y034D01*
X02404Y03402D01*
X02402D01*
X024Y03404D01*
X02398Y03402D01*
X02396D01*
X02398Y034D01*
X02396Y03398D01*
X02398D01*
X024Y03396D01*
X025Y03192D02*
X02504Y03196D01*
X02508D01*
X02504Y032D01*
X02508Y03204D01*
X02504D01*
X025Y03208D01*
X02496Y03204D01*
X02492D01*
X02496Y032D01*
X02492Y03196D01*
X02496D01*
X025Y03192D01*
Y03196D02*
X02502Y03198D01*
X02504D01*
X02502Y032D01*
X02504Y03202D01*
X02502D01*
X025Y03204D01*
X02498Y03202D01*
X02496D01*
X02498Y032D01*
X02496Y03198D01*
X02498D01*
X025Y03196D01*
X024Y02992D02*
X02404Y02996D01*
X02408D01*
X02404Y03D01*
X02408Y03004D01*
X02404D01*
X024Y03008D01*
X02396Y03004D01*
X02392D01*
X02396Y03D01*
X02392Y02996D01*
X02396D01*
X024Y02992D01*
Y02996D02*
X02402Y02998D01*
X02404D01*
X02402Y03D01*
X02404Y03002D01*
X02402D01*
X024Y03004D01*
X02398Y03002D01*
X02396D01*
X02398Y03D01*
X02396Y02998D01*
X02398D01*
X024Y02996D01*
X025Y02792D02*
X02504Y02796D01*
X02508D01*
X02504Y028D01*
X02508Y02804D01*
X02504D01*
X025Y02808D01*
X02496Y02804D01*
X02492D01*
X02496Y028D01*
X02492Y02796D01*
X02496D01*
X025Y02792D01*
Y02796D02*
X02502Y02798D01*
X02504D01*
X02502Y028D01*
X02504Y02802D01*
X02502D01*
X025Y02804D01*
X02498Y02802D01*
X02496D01*
X02498Y028D01*
X02496Y02798D01*
X02498D01*
X025Y02796D01*
X024Y02592D02*
X02404Y02596D01*
X02408D01*
X02404Y026D01*
X02408Y02604D01*
X02404D01*
X024Y02608D01*
X02396Y02604D01*
X02392D01*
X02396Y026D01*
X02392Y02596D01*
X02396D01*
X024Y02592D01*
Y02596D02*
X02402Y02598D01*
X02404D01*
X02402Y026D01*
X02404Y02602D01*
X02402D01*
X024Y02604D01*
X02398Y02602D01*
X02396D01*
X02398Y026D01*
X02396Y02598D01*
X02398D01*
X024Y02596D01*
X025Y02392D02*
X02504Y02396D01*
X02508D01*
X02504Y024D01*
X02508Y02404D01*
X02504D01*
X025Y02408D01*
X02496Y02404D01*
X02492D01*
X02496Y024D01*
X02492Y02396D01*
X02496D01*
X025Y02392D01*
Y02396D02*
X02502Y02398D01*
X02504D01*
X02502Y024D01*
X02504Y02402D01*
X02502D01*
X025Y02404D01*
X02498Y02402D01*
X02496D01*
X02498Y024D01*
X02496Y02398D01*
X02498D01*
X025Y02396D01*
X024Y02192D02*
X02404Y02196D01*
X02408D01*
X02404Y022D01*
X02408Y02204D01*
X02404D01*
X024Y02208D01*
X02396Y02204D01*
X02392D01*
X02396Y022D01*
X02392Y02196D01*
X02396D01*
X024Y02192D01*
Y02196D02*
X02402Y02198D01*
X02404D01*
X02402Y022D01*
X02404Y02202D01*
X02402D01*
X024Y02204D01*
X02398Y02202D01*
X02396D01*
X02398Y022D01*
X02396Y02198D01*
X02398D01*
X024Y02196D01*
X022Y04192D02*
X02204Y04196D01*
X02208D01*
X02204Y042D01*
X02208Y04204D01*
X02204D01*
X022Y04208D01*
X02196Y04204D01*
X02192D01*
X02196Y042D01*
X02192Y04196D01*
X02196D01*
X022Y04192D01*
Y04196D02*
X02202Y04198D01*
X02204D01*
X02202Y042D01*
X02204Y04202D01*
X02202D01*
X022Y04204D01*
X02198Y04202D01*
X02196D01*
X02198Y042D01*
X02196Y04198D01*
X02198D01*
X022Y04196D01*
Y03392D02*
X02204Y03396D01*
X02208D01*
X02204Y034D01*
X02208Y03404D01*
X02204D01*
X022Y03408D01*
X02196Y03404D01*
X02192D01*
X02196Y034D01*
X02192Y03396D01*
X02196D01*
X022Y03392D01*
Y03396D02*
X02202Y03398D01*
X02204D01*
X02202Y034D01*
X02204Y03402D01*
X02202D01*
X022Y03404D01*
X02198Y03402D01*
X02196D01*
X02198Y034D01*
X02196Y03398D01*
X02198D01*
X022Y03396D01*
X023Y03192D02*
X02304Y03196D01*
X02308D01*
X02304Y032D01*
X02308Y03204D01*
X02304D01*
X023Y03208D01*
X02296Y03204D01*
X02292D01*
X02296Y032D01*
X02292Y03196D01*
X02296D01*
X023Y03192D01*
Y03196D02*
X02302Y03198D01*
X02304D01*
X02302Y032D01*
X02304Y03202D01*
X02302D01*
X023Y03204D01*
X02298Y03202D01*
X02296D01*
X02298Y032D01*
X02296Y03198D01*
X02298D01*
X023Y03196D01*
X022Y02992D02*
X02204Y02996D01*
X02208D01*
X02204Y03D01*
X02208Y03004D01*
X02204D01*
X022Y03008D01*
X02196Y03004D01*
X02192D01*
X02196Y03D01*
X02192Y02996D01*
X02196D01*
X022Y02992D01*
Y02996D02*
X02202Y02998D01*
X02204D01*
X02202Y03D01*
X02204Y03002D01*
X02202D01*
X022Y03004D01*
X02198Y03002D01*
X02196D01*
X02198Y03D01*
X02196Y02998D01*
X02198D01*
X022Y02996D01*
X023Y02792D02*
X02304Y02796D01*
X02308D01*
X02304Y028D01*
X02308Y02804D01*
X02304D01*
X023Y02808D01*
X02296Y02804D01*
X02292D01*
X02296Y028D01*
X02292Y02796D01*
X02296D01*
X023Y02792D01*
Y02796D02*
X02302Y02798D01*
X02304D01*
X02302Y028D01*
X02304Y02802D01*
X02302D01*
X023Y02804D01*
X02298Y02802D01*
X02296D01*
X02298Y028D01*
X02296Y02798D01*
X02298D01*
X023Y02796D01*
X022Y02592D02*
X02204Y02596D01*
X02208D01*
X02204Y026D01*
X02208Y02604D01*
X02204D01*
X022Y02608D01*
X02196Y02604D01*
X02192D01*
X02196Y026D01*
X02192Y02596D01*
X02196D01*
X022Y02592D01*
Y02596D02*
X02202Y02598D01*
X02204D01*
X02202Y026D01*
X02204Y02602D01*
X02202D01*
X022Y02604D01*
X02198Y02602D01*
X02196D01*
X02198Y026D01*
X02196Y02598D01*
X02198D01*
X022Y02596D01*
X023Y02392D02*
X02304Y02396D01*
X02308D01*
X02304Y024D01*
X02308Y02404D01*
X02304D01*
X023Y02408D01*
X02296Y02404D01*
X02292D01*
X02296Y024D01*
X02292Y02396D01*
X02296D01*
X023Y02392D01*
Y02396D02*
X02302Y02398D01*
X02304D01*
X02302Y024D01*
X02304Y02402D01*
X02302D01*
X023Y02404D01*
X02298Y02402D01*
X02296D01*
X02298Y024D01*
X02296Y02398D01*
X02298D01*
X023Y02396D01*
X022Y02192D02*
X02204Y02196D01*
X02208D01*
X02204Y022D01*
X02208Y02204D01*
X02204D01*
X022Y02208D01*
X02196Y02204D01*
X02192D01*
X02196Y022D01*
X02192Y02196D01*
X02196D01*
X022Y02192D01*
Y02196D02*
X02202Y02198D01*
X02204D01*
X02202Y022D01*
X02204Y02202D01*
X02202D01*
X022Y02204D01*
X02198Y02202D01*
X02196D01*
X02198Y022D01*
X02196Y02198D01*
X02198D01*
X022Y02196D01*
X021Y04792D02*
X02104Y04796D01*
X02108D01*
X02104Y048D01*
X02108Y04804D01*
X02104D01*
X021Y04808D01*
X02096Y04804D01*
X02092D01*
X02096Y048D01*
X02092Y04796D01*
X02096D01*
X021Y04792D01*
Y04796D02*
X02102Y04798D01*
X02104D01*
X02102Y048D01*
X02104Y04802D01*
X02102D01*
X021Y04804D01*
X02098Y04802D01*
X02096D01*
X02098Y048D01*
X02096Y04798D01*
X02098D01*
X021Y04796D01*
Y04392D02*
X02104Y04396D01*
X02108D01*
X02104Y044D01*
X02108Y04404D01*
X02104D01*
X021Y04408D01*
X02096Y04404D01*
X02092D01*
X02096Y044D01*
X02092Y04396D01*
X02096D01*
X021Y04392D01*
Y04396D02*
X02102Y04398D01*
X02104D01*
X02102Y044D01*
X02104Y04402D01*
X02102D01*
X021Y04404D01*
X02098Y04402D01*
X02096D01*
X02098Y044D01*
X02096Y04398D01*
X02098D01*
X021Y04396D01*
Y03192D02*
X02104Y03196D01*
X02108D01*
X02104Y032D01*
X02108Y03204D01*
X02104D01*
X021Y03208D01*
X02096Y03204D01*
X02092D01*
X02096Y032D01*
X02092Y03196D01*
X02096D01*
X021Y03192D01*
Y03196D02*
X02102Y03198D01*
X02104D01*
X02102Y032D01*
X02104Y03202D01*
X02102D01*
X021Y03204D01*
X02098Y03202D01*
X02096D01*
X02098Y032D01*
X02096Y03198D01*
X02098D01*
X021Y03196D01*
Y02792D02*
X02104Y02796D01*
X02108D01*
X02104Y028D01*
X02108Y02804D01*
X02104D01*
X021Y02808D01*
X02096Y02804D01*
X02092D01*
X02096Y028D01*
X02092Y02796D01*
X02096D01*
X021Y02792D01*
Y02796D02*
X02102Y02798D01*
X02104D01*
X02102Y028D01*
X02104Y02802D01*
X02102D01*
X021Y02804D01*
X02098Y02802D01*
X02096D01*
X02098Y028D01*
X02096Y02798D01*
X02098D01*
X021Y02796D01*
Y02392D02*
X02104Y02396D01*
X02108D01*
X02104Y024D01*
X02108Y02404D01*
X02104D01*
X021Y02408D01*
X02096Y02404D01*
X02092D01*
X02096Y024D01*
X02092Y02396D01*
X02096D01*
X021Y02392D01*
Y02396D02*
X02102Y02398D01*
X02104D01*
X02102Y024D01*
X02104Y02402D01*
X02102D01*
X021Y02404D01*
X02098Y02402D01*
X02096D01*
X02098Y024D01*
X02096Y02398D01*
X02098D01*
X021Y02396D01*
X02Y02192D02*
X02004Y02196D01*
X02008D01*
X02004Y022D01*
X02008Y02204D01*
X02004D01*
X02Y02208D01*
X01996Y02204D01*
X01992D01*
X01996Y022D01*
X01992Y02196D01*
X01996D01*
X02Y02192D01*
Y02196D02*
X02002Y02198D01*
X02004D01*
X02002Y022D01*
X02004Y02202D01*
X02002D01*
X02Y02204D01*
X01998Y02202D01*
X01996D01*
X01998Y022D01*
X01996Y02198D01*
X01998D01*
X02Y02196D01*
X019Y04792D02*
X01904Y04796D01*
X01908D01*
X01904Y048D01*
X01908Y04804D01*
X01904D01*
X019Y04808D01*
X01896Y04804D01*
X01892D01*
X01896Y048D01*
X01892Y04796D01*
X01896D01*
X019Y04792D01*
Y04796D02*
X01902Y04798D01*
X01904D01*
X01902Y048D01*
X01904Y04802D01*
X01902D01*
X019Y04804D01*
X01898Y04802D01*
X01896D01*
X01898Y048D01*
X01896Y04798D01*
X01898D01*
X019Y04796D01*
X018Y04592D02*
X01804Y04596D01*
X01808D01*
X01804Y046D01*
X01808Y04604D01*
X01804D01*
X018Y04608D01*
X01796Y04604D01*
X01792D01*
X01796Y046D01*
X01792Y04596D01*
X01796D01*
X018Y04592D01*
Y04596D02*
X01802Y04598D01*
X01804D01*
X01802Y046D01*
X01804Y04602D01*
X01802D01*
X018Y04604D01*
X01798Y04602D01*
X01796D01*
X01798Y046D01*
X01796Y04598D01*
X01798D01*
X018Y04596D01*
X019Y04392D02*
X01904Y04396D01*
X01908D01*
X01904Y044D01*
X01908Y04404D01*
X01904D01*
X019Y04408D01*
X01896Y04404D01*
X01892D01*
X01896Y044D01*
X01892Y04396D01*
X01896D01*
X019Y04392D01*
Y04396D02*
X01902Y04398D01*
X01904D01*
X01902Y044D01*
X01904Y04402D01*
X01902D01*
X019Y04404D01*
X01898Y04402D01*
X01896D01*
X01898Y044D01*
X01896Y04398D01*
X01898D01*
X019Y04396D01*
Y03992D02*
X01904Y03996D01*
X01908D01*
X01904Y04D01*
X01908Y04004D01*
X01904D01*
X019Y04008D01*
X01896Y04004D01*
X01892D01*
X01896Y04D01*
X01892Y03996D01*
X01896D01*
X019Y03992D01*
Y03996D02*
X01902Y03998D01*
X01904D01*
X01902Y04D01*
X01904Y04002D01*
X01902D01*
X019Y04004D01*
X01898Y04002D01*
X01896D01*
X01898Y04D01*
X01896Y03998D01*
X01898D01*
X019Y03996D01*
X018Y03392D02*
X01804Y03396D01*
X01808D01*
X01804Y034D01*
X01808Y03404D01*
X01804D01*
X018Y03408D01*
X01796Y03404D01*
X01792D01*
X01796Y034D01*
X01792Y03396D01*
X01796D01*
X018Y03392D01*
Y03396D02*
X01802Y03398D01*
X01804D01*
X01802Y034D01*
X01804Y03402D01*
X01802D01*
X018Y03404D01*
X01798Y03402D01*
X01796D01*
X01798Y034D01*
X01796Y03398D01*
X01798D01*
X018Y03396D01*
X019Y03192D02*
X01904Y03196D01*
X01908D01*
X01904Y032D01*
X01908Y03204D01*
X01904D01*
X019Y03208D01*
X01896Y03204D01*
X01892D01*
X01896Y032D01*
X01892Y03196D01*
X01896D01*
X019Y03192D01*
Y03196D02*
X01902Y03198D01*
X01904D01*
X01902Y032D01*
X01904Y03202D01*
X01902D01*
X019Y03204D01*
X01898Y03202D01*
X01896D01*
X01898Y032D01*
X01896Y03198D01*
X01898D01*
X019Y03196D01*
Y02392D02*
X01904Y02396D01*
X01908D01*
X01904Y024D01*
X01908Y02404D01*
X01904D01*
X019Y02408D01*
X01896Y02404D01*
X01892D01*
X01896Y024D01*
X01892Y02396D01*
X01896D01*
X019Y02392D01*
Y02396D02*
X01902Y02398D01*
X01904D01*
X01902Y024D01*
X01904Y02402D01*
X01902D01*
X019Y02404D01*
X01898Y02402D01*
X01896D01*
X01898Y024D01*
X01896Y02398D01*
X01898D01*
X019Y02396D01*
X018Y02192D02*
X01804Y02196D01*
X01808D01*
X01804Y022D01*
X01808Y02204D01*
X01804D01*
X018Y02208D01*
X01796Y02204D01*
X01792D01*
X01796Y022D01*
X01792Y02196D01*
X01796D01*
X018Y02192D01*
Y02196D02*
X01802Y02198D01*
X01804D01*
X01802Y022D01*
X01804Y02202D01*
X01802D01*
X018Y02204D01*
X01798Y02202D01*
X01796D01*
X01798Y022D01*
X01796Y02198D01*
X01798D01*
X018Y02196D01*
X017Y04792D02*
X01704Y04796D01*
X01708D01*
X01704Y048D01*
X01708Y04804D01*
X01704D01*
X017Y04808D01*
X01696Y04804D01*
X01692D01*
X01696Y048D01*
X01692Y04796D01*
X01696D01*
X017Y04792D01*
Y04796D02*
X01702Y04798D01*
X01704D01*
X01702Y048D01*
X01704Y04802D01*
X01702D01*
X017Y04804D01*
X01698Y04802D01*
X01696D01*
X01698Y048D01*
X01696Y04798D01*
X01698D01*
X017Y04796D01*
X016Y04592D02*
X01604Y04596D01*
X01608D01*
X01604Y046D01*
X01608Y04604D01*
X01604D01*
X016Y04608D01*
X01596Y04604D01*
X01592D01*
X01596Y046D01*
X01592Y04596D01*
X01596D01*
X016Y04592D01*
Y04596D02*
X01602Y04598D01*
X01604D01*
X01602Y046D01*
X01604Y04602D01*
X01602D01*
X016Y04604D01*
X01598Y04602D01*
X01596D01*
X01598Y046D01*
X01596Y04598D01*
X01598D01*
X016Y04596D01*
Y03392D02*
X01604Y03396D01*
X01608D01*
X01604Y034D01*
X01608Y03404D01*
X01604D01*
X016Y03408D01*
X01596Y03404D01*
X01592D01*
X01596Y034D01*
X01592Y03396D01*
X01596D01*
X016Y03392D01*
Y03396D02*
X01602Y03398D01*
X01604D01*
X01602Y034D01*
X01604Y03402D01*
X01602D01*
X016Y03404D01*
X01598Y03402D01*
X01596D01*
X01598Y034D01*
X01596Y03398D01*
X01598D01*
X016Y03396D01*
Y02992D02*
X01604Y02996D01*
X01608D01*
X01604Y03D01*
X01608Y03004D01*
X01604D01*
X016Y03008D01*
X01596Y03004D01*
X01592D01*
X01596Y03D01*
X01592Y02996D01*
X01596D01*
X016Y02992D01*
Y02996D02*
X01602Y02998D01*
X01604D01*
X01602Y03D01*
X01604Y03002D01*
X01602D01*
X016Y03004D01*
X01598Y03002D01*
X01596D01*
X01598Y03D01*
X01596Y02998D01*
X01598D01*
X016Y02996D01*
X017Y02792D02*
X01704Y02796D01*
X01708D01*
X01704Y028D01*
X01708Y02804D01*
X01704D01*
X017Y02808D01*
X01696Y02804D01*
X01692D01*
X01696Y028D01*
X01692Y02796D01*
X01696D01*
X017Y02792D01*
Y02796D02*
X01702Y02798D01*
X01704D01*
X01702Y028D01*
X01704Y02802D01*
X01702D01*
X017Y02804D01*
X01698Y02802D01*
X01696D01*
X01698Y028D01*
X01696Y02798D01*
X01698D01*
X017Y02796D01*
X016Y02592D02*
X01604Y02596D01*
X01608D01*
X01604Y026D01*
X01608Y02604D01*
X01604D01*
X016Y02608D01*
X01596Y02604D01*
X01592D01*
X01596Y026D01*
X01592Y02596D01*
X01596D01*
X016Y02592D01*
Y02596D02*
X01602Y02598D01*
X01604D01*
X01602Y026D01*
X01604Y02602D01*
X01602D01*
X016Y02604D01*
X01598Y02602D01*
X01596D01*
X01598Y026D01*
X01596Y02598D01*
X01598D01*
X016Y02596D01*
X017Y02392D02*
X01704Y02396D01*
X01708D01*
X01704Y024D01*
X01708Y02404D01*
X01704D01*
X017Y02408D01*
X01696Y02404D01*
X01692D01*
X01696Y024D01*
X01692Y02396D01*
X01696D01*
X017Y02392D01*
Y02396D02*
X01702Y02398D01*
X01704D01*
X01702Y024D01*
X01704Y02402D01*
X01702D01*
X017Y02404D01*
X01698Y02402D01*
X01696D01*
X01698Y024D01*
X01696Y02398D01*
X01698D01*
X017Y02396D01*
X015Y04792D02*
X01504Y04796D01*
X01508D01*
X01504Y048D01*
X01508Y04804D01*
X01504D01*
X015Y04808D01*
X01496Y04804D01*
X01492D01*
X01496Y048D01*
X01492Y04796D01*
X01496D01*
X015Y04792D01*
Y04796D02*
X01502Y04798D01*
X01504D01*
X01502Y048D01*
X01504Y04802D01*
X01502D01*
X015Y04804D01*
X01498Y04802D01*
X01496D01*
X01498Y048D01*
X01496Y04798D01*
X01498D01*
X015Y04796D01*
X014Y04592D02*
X01404Y04596D01*
X01408D01*
X01404Y046D01*
X01408Y04604D01*
X01404D01*
X014Y04608D01*
X01396Y04604D01*
X01392D01*
X01396Y046D01*
X01392Y04596D01*
X01396D01*
X014Y04592D01*
Y04596D02*
X01402Y04598D01*
X01404D01*
X01402Y046D01*
X01404Y04602D01*
X01402D01*
X014Y04604D01*
X01398Y04602D01*
X01396D01*
X01398Y046D01*
X01396Y04598D01*
X01398D01*
X014Y04596D01*
X015Y03992D02*
X01504Y03996D01*
X01508D01*
X01504Y04D01*
X01508Y04004D01*
X01504D01*
X015Y04008D01*
X01496Y04004D01*
X01492D01*
X01496Y04D01*
X01492Y03996D01*
X01496D01*
X015Y03992D01*
Y03996D02*
X01502Y03998D01*
X01504D01*
X01502Y04D01*
X01504Y04002D01*
X01502D01*
X015Y04004D01*
X01498Y04002D01*
X01496D01*
X01498Y04D01*
X01496Y03998D01*
X01498D01*
X015Y03996D01*
X014Y03792D02*
X01404Y03796D01*
X01408D01*
X01404Y038D01*
X01408Y03804D01*
X01404D01*
X014Y03808D01*
X01396Y03804D01*
X01392D01*
X01396Y038D01*
X01392Y03796D01*
X01396D01*
X014Y03792D01*
Y03796D02*
X01402Y03798D01*
X01404D01*
X01402Y038D01*
X01404Y03802D01*
X01402D01*
X014Y03804D01*
X01398Y03802D01*
X01396D01*
X01398Y038D01*
X01396Y03798D01*
X01398D01*
X014Y03796D01*
X015Y03592D02*
X01504Y03596D01*
X01508D01*
X01504Y036D01*
X01508Y03604D01*
X01504D01*
X015Y03608D01*
X01496Y03604D01*
X01492D01*
X01496Y036D01*
X01492Y03596D01*
X01496D01*
X015Y03592D01*
Y03596D02*
X01502Y03598D01*
X01504D01*
X01502Y036D01*
X01504Y03602D01*
X01502D01*
X015Y03604D01*
X01498Y03602D01*
X01496D01*
X01498Y036D01*
X01496Y03598D01*
X01498D01*
X015Y03596D01*
X014Y03392D02*
X01404Y03396D01*
X01408D01*
X01404Y034D01*
X01408Y03404D01*
X01404D01*
X014Y03408D01*
X01396Y03404D01*
X01392D01*
X01396Y034D01*
X01392Y03396D01*
X01396D01*
X014Y03392D01*
Y03396D02*
X01402Y03398D01*
X01404D01*
X01402Y034D01*
X01404Y03402D01*
X01402D01*
X014Y03404D01*
X01398Y03402D01*
X01396D01*
X01398Y034D01*
X01396Y03398D01*
X01398D01*
X014Y03396D01*
Y02992D02*
X01404Y02996D01*
X01408D01*
X01404Y03D01*
X01408Y03004D01*
X01404D01*
X014Y03008D01*
X01396Y03004D01*
X01392D01*
X01396Y03D01*
X01392Y02996D01*
X01396D01*
X014Y02992D01*
Y02996D02*
X01402Y02998D01*
X01404D01*
X01402Y03D01*
X01404Y03002D01*
X01402D01*
X014Y03004D01*
X01398Y03002D01*
X01396D01*
X01398Y03D01*
X01396Y02998D01*
X01398D01*
X014Y02996D01*
X015Y02792D02*
X01504Y02796D01*
X01508D01*
X01504Y028D01*
X01508Y02804D01*
X01504D01*
X015Y02808D01*
X01496Y02804D01*
X01492D01*
X01496Y028D01*
X01492Y02796D01*
X01496D01*
X015Y02792D01*
Y02796D02*
X01502Y02798D01*
X01504D01*
X01502Y028D01*
X01504Y02802D01*
X01502D01*
X015Y02804D01*
X01498Y02802D01*
X01496D01*
X01498Y028D01*
X01496Y02798D01*
X01498D01*
X015Y02796D01*
X014Y02592D02*
X01404Y02596D01*
X01408D01*
X01404Y026D01*
X01408Y02604D01*
X01404D01*
X014Y02608D01*
X01396Y02604D01*
X01392D01*
X01396Y026D01*
X01392Y02596D01*
X01396D01*
X014Y02592D01*
Y02596D02*
X01402Y02598D01*
X01404D01*
X01402Y026D01*
X01404Y02602D01*
X01402D01*
X014Y02604D01*
X01398Y02602D01*
X01396D01*
X01398Y026D01*
X01396Y02598D01*
X01398D01*
X014Y02596D01*
X015Y02392D02*
X01504Y02396D01*
X01508D01*
X01504Y024D01*
X01508Y02404D01*
X01504D01*
X015Y02408D01*
X01496Y02404D01*
X01492D01*
X01496Y024D01*
X01492Y02396D01*
X01496D01*
X015Y02392D01*
Y02396D02*
X01502Y02398D01*
X01504D01*
X01502Y024D01*
X01504Y02402D01*
X01502D01*
X015Y02404D01*
X01498Y02402D01*
X01496D01*
X01498Y024D01*
X01496Y02398D01*
X01498D01*
X015Y02396D01*
X013Y04792D02*
X01304Y04796D01*
X01308D01*
X01304Y048D01*
X01308Y04804D01*
X01304D01*
X013Y04808D01*
X01296Y04804D01*
X01292D01*
X01296Y048D01*
X01292Y04796D01*
X01296D01*
X013Y04792D01*
Y04796D02*
X01302Y04798D01*
X01304D01*
X01302Y048D01*
X01304Y04802D01*
X01302D01*
X013Y04804D01*
X01298Y04802D01*
X01296D01*
X01298Y048D01*
X01296Y04798D01*
X01298D01*
X013Y04796D01*
Y04392D02*
X01304Y04396D01*
X01308D01*
X01304Y044D01*
X01308Y04404D01*
X01304D01*
X013Y04408D01*
X01296Y04404D01*
X01292D01*
X01296Y044D01*
X01292Y04396D01*
X01296D01*
X013Y04392D01*
Y04396D02*
X01302Y04398D01*
X01304D01*
X01302Y044D01*
X01304Y04402D01*
X01302D01*
X013Y04404D01*
X01298Y04402D01*
X01296D01*
X01298Y044D01*
X01296Y04398D01*
X01298D01*
X013Y04396D01*
X012Y04192D02*
X01204Y04196D01*
X01208D01*
X01204Y042D01*
X01208Y04204D01*
X01204D01*
X012Y04208D01*
X01196Y04204D01*
X01192D01*
X01196Y042D01*
X01192Y04196D01*
X01196D01*
X012Y04192D01*
Y04196D02*
X01202Y04198D01*
X01204D01*
X01202Y042D01*
X01204Y04202D01*
X01202D01*
X012Y04204D01*
X01198Y04202D01*
X01196D01*
X01198Y042D01*
X01196Y04198D01*
X01198D01*
X012Y04196D01*
X013Y03992D02*
X01304Y03996D01*
X01308D01*
X01304Y04D01*
X01308Y04004D01*
X01304D01*
X013Y04008D01*
X01296Y04004D01*
X01292D01*
X01296Y04D01*
X01292Y03996D01*
X01296D01*
X013Y03992D01*
Y03996D02*
X01302Y03998D01*
X01304D01*
X01302Y04D01*
X01304Y04002D01*
X01302D01*
X013Y04004D01*
X01298Y04002D01*
X01296D01*
X01298Y04D01*
X01296Y03998D01*
X01298D01*
X013Y03996D01*
X012Y03792D02*
X01204Y03796D01*
X01208D01*
X01204Y038D01*
X01208Y03804D01*
X01204D01*
X012Y03808D01*
X01196Y03804D01*
X01192D01*
X01196Y038D01*
X01192Y03796D01*
X01196D01*
X012Y03792D01*
Y03796D02*
X01202Y03798D01*
X01204D01*
X01202Y038D01*
X01204Y03802D01*
X01202D01*
X012Y03804D01*
X01198Y03802D01*
X01196D01*
X01198Y038D01*
X01196Y03798D01*
X01198D01*
X012Y03796D01*
Y03392D02*
X01204Y03396D01*
X01208D01*
X01204Y034D01*
X01208Y03404D01*
X01204D01*
X012Y03408D01*
X01196Y03404D01*
X01192D01*
X01196Y034D01*
X01192Y03396D01*
X01196D01*
X012Y03392D01*
Y03396D02*
X01202Y03398D01*
X01204D01*
X01202Y034D01*
X01204Y03402D01*
X01202D01*
X012Y03404D01*
X01198Y03402D01*
X01196D01*
X01198Y034D01*
X01196Y03398D01*
X01198D01*
X012Y03396D01*
X013Y03192D02*
X01304Y03196D01*
X01308D01*
X01304Y032D01*
X01308Y03204D01*
X01304D01*
X013Y03208D01*
X01296Y03204D01*
X01292D01*
X01296Y032D01*
X01292Y03196D01*
X01296D01*
X013Y03192D01*
Y03196D02*
X01302Y03198D01*
X01304D01*
X01302Y032D01*
X01304Y03202D01*
X01302D01*
X013Y03204D01*
X01298Y03202D01*
X01296D01*
X01298Y032D01*
X01296Y03198D01*
X01298D01*
X013Y03196D01*
Y02792D02*
X01304Y02796D01*
X01308D01*
X01304Y028D01*
X01308Y02804D01*
X01304D01*
X013Y02808D01*
X01296Y02804D01*
X01292D01*
X01296Y028D01*
X01292Y02796D01*
X01296D01*
X013Y02792D01*
Y02796D02*
X01302Y02798D01*
X01304D01*
X01302Y028D01*
X01304Y02802D01*
X01302D01*
X013Y02804D01*
X01298Y02802D01*
X01296D01*
X01298Y028D01*
X01296Y02798D01*
X01298D01*
X013Y02796D01*
X012Y02592D02*
X01204Y02596D01*
X01208D01*
X01204Y026D01*
X01208Y02604D01*
X01204D01*
X012Y02608D01*
X01196Y02604D01*
X01192D01*
X01196Y026D01*
X01192Y02596D01*
X01196D01*
X012Y02592D01*
Y02596D02*
X01202Y02598D01*
X01204D01*
X01202Y026D01*
X01204Y02602D01*
X01202D01*
X012Y02604D01*
X01198Y02602D01*
X01196D01*
X01198Y026D01*
X01196Y02598D01*
X01198D01*
X012Y02596D01*
X013Y02392D02*
X01304Y02396D01*
X01308D01*
X01304Y024D01*
X01308Y02404D01*
X01304D01*
X013Y02408D01*
X01296Y02404D01*
X01292D01*
X01296Y024D01*
X01292Y02396D01*
X01296D01*
X013Y02392D01*
Y02396D02*
X01302Y02398D01*
X01304D01*
X01302Y024D01*
X01304Y02402D01*
X01302D01*
X013Y02404D01*
X01298Y02402D01*
X01296D01*
X01298Y024D01*
X01296Y02398D01*
X01298D01*
X013Y02396D01*
X012Y02192D02*
X01204Y02196D01*
X01208D01*
X01204Y022D01*
X01208Y02204D01*
X01204D01*
X012Y02208D01*
X01196Y02204D01*
X01192D01*
X01196Y022D01*
X01192Y02196D01*
X01196D01*
X012Y02192D01*
Y02196D02*
X01202Y02198D01*
X01204D01*
X01202Y022D01*
X01204Y02202D01*
X01202D01*
X012Y02204D01*
X01198Y02202D01*
X01196D01*
X01198Y022D01*
X01196Y02198D01*
X01198D01*
X012Y02196D01*
X02335Y04307D02*
X02339Y04311D01*
X02343D01*
X02339Y04315D01*
X02343Y04319D01*
X02339D01*
X02335Y04323D01*
X02331Y04319D01*
X02327D01*
X02331Y04315D01*
X02327Y04311D01*
X02331D01*
X02335Y04307D01*
Y04311D02*
X02337Y04313D01*
X02339D01*
X02337Y04315D01*
X02339Y04317D01*
X02337D01*
X02335Y04319D01*
X02333Y04317D01*
X02331D01*
X02333Y04315D01*
X02331Y04313D01*
X02333D01*
X02335Y04311D01*
X0173Y03557D02*
X01734Y03561D01*
X01738D01*
X01734Y03565D01*
X01738Y03569D01*
X01734D01*
X0173Y03573D01*
X01726Y03569D01*
X01722D01*
X01726Y03565D01*
X01722Y03561D01*
X01726D01*
X0173Y03557D01*
Y03561D02*
X01732Y03563D01*
X01734D01*
X01732Y03565D01*
X01734Y03567D01*
X01732D01*
X0173Y03569D01*
X01728Y03567D01*
X01726D01*
X01728Y03565D01*
X01726Y03563D01*
X01728D01*
X0173Y03561D01*
X030737Y03777D02*
X030777Y03781D01*
X030817D01*
X030777Y03785D01*
X030817Y03789D01*
X030777D01*
X030737Y03793D01*
X030697Y03789D01*
X030657D01*
X030697Y03785D01*
X030657Y03781D01*
X030697D01*
X030737Y03777D01*
Y03781D02*
X030757Y03783D01*
X030777D01*
X030757Y03785D01*
X030777Y03787D01*
X030757D01*
X030737Y03789D01*
X030717Y03787D01*
X030697D01*
X030717Y03785D01*
X030697Y03783D01*
X030717D01*
X030737Y03781D01*
X03015Y03777D02*
X03019Y03781D01*
X03023D01*
X03019Y03785D01*
X03023Y03789D01*
X03019D01*
X03015Y03793D01*
X03011Y03789D01*
X03007D01*
X03011Y03785D01*
X03007Y03781D01*
X03011D01*
X03015Y03777D01*
Y03781D02*
X03017Y03783D01*
X03019D01*
X03017Y03785D01*
X03019Y03787D01*
X03017D01*
X03015Y03789D01*
X03013Y03787D01*
X03011D01*
X03013Y03785D01*
X03011Y03783D01*
X03013D01*
X03015Y03781D01*
X03175Y03737D02*
X03179Y03741D01*
X03183D01*
X03179Y03745D01*
X03183Y03749D01*
X03179D01*
X03175Y03753D01*
X03171Y03749D01*
X03167D01*
X03171Y03745D01*
X03167Y03741D01*
X03171D01*
X03175Y03737D01*
Y03741D02*
X03177Y03743D01*
X03179D01*
X03177Y03745D01*
X03179Y03747D01*
X03177D01*
X03175Y03749D01*
X03173Y03747D01*
X03171D01*
X03173Y03745D01*
X03171Y03743D01*
X03173D01*
X03175Y03741D01*
X0325Y03682D02*
X03254Y03686D01*
X03258D01*
X03254Y0369D01*
X03258Y03694D01*
X03254D01*
X0325Y03698D01*
X03246Y03694D01*
X03242D01*
X03246Y0369D01*
X03242Y03686D01*
X03246D01*
X0325Y03682D01*
Y03686D02*
X03252Y03688D01*
X03254D01*
X03252Y0369D01*
X03254Y03692D01*
X03252D01*
X0325Y03694D01*
X03248Y03692D01*
X03246D01*
X03248Y0369D01*
X03246Y03688D01*
X03248D01*
X0325Y03686D01*
X02585Y03752D02*
X02589Y03756D01*
X02593D01*
X02589Y0376D01*
X02593Y03764D01*
X02589D01*
X02585Y03768D01*
X02581Y03764D01*
X02577D01*
X02581Y0376D01*
X02577Y03756D01*
X02581D01*
X02585Y03752D01*
Y03756D02*
X02587Y03758D01*
X02589D01*
X02587Y0376D01*
X02589Y03762D01*
X02587D01*
X02585Y03764D01*
X02583Y03762D01*
X02581D01*
X02583Y0376D01*
X02581Y03758D01*
X02583D01*
X02585Y03756D01*
D95*
X02893Y0298D02*
G03*
X02893Y0298I-00008J0D01*
G01*
X02793D02*
G03*
X02793Y0298I-00008J0D01*
G01*
X02693D02*
G03*
X02693Y0298I-00008J0D01*
G01*
X02993D02*
G03*
X02993Y0298I-00008J0D01*
G01*
Y0328D02*
G03*
X02993Y0328I-00008J0D01*
G01*
X02893D02*
G03*
X02893Y0328I-00008J0D01*
G01*
X02793D02*
G03*
X02793Y0328I-00008J0D01*
G01*
X02693D02*
G03*
X02693Y0328I-00008J0D01*
G01*
X01203Y024375D02*
G03*
X01203Y024375I-00008J0D01*
G01*
Y029625D02*
G03*
X01203Y029625I-00008J0D01*
G01*
X01803D02*
G03*
X01803Y029625I-00008J0D01*
G01*
Y024375D02*
G03*
X01803Y024375I-00008J0D01*
G01*
D96*
X01199D02*
G03*
X01199Y024375I-00004J0D01*
G01*
Y029625D02*
G03*
X01199Y029625I-00004J0D01*
G01*
X01799D02*
G03*
X01799Y029625I-00004J0D01*
G01*
Y024375D02*
G03*
X01799Y024375I-00004J0D01*
G01*
M02*
