G04*
G04 #@! TF.GenerationSoftware,Altium Limited,Altium Designer,18.1.6 (161)*
G04*
G04 Layer_Color=16711935*
%FSTAX24Y24*%
%MOIN*%
G70*
G01*
G75*
%ADD10C,0.0079*%
%ADD15C,0.0050*%
%ADD16C,0.0060*%
%ADD19C,0.0039*%
%ADD91C,0.0000*%
%ADD92C,0.0010*%
%ADD93C,0.0030*%
D10*
X024209Y040028D02*
G03*
X024209Y040028I-000039J0D01*
G01*
X017371Y021744D02*
G03*
X017371Y021744I-000039J0D01*
G01*
D15*
X017073Y022207D02*
G03*
X012827Y022207I-002123J004769D01*
G01*
X023993Y039713D02*
X024977D01*
Y038453D02*
Y039713D01*
X023993Y038453D02*
X024977D01*
X023993D02*
Y039713D01*
X01808Y028929D02*
Y03011D01*
Y02385D02*
Y025071D01*
X01932D02*
Y028929D01*
X01808D02*
X01932D01*
X01808Y025071D02*
X01932D01*
X017096Y02137D02*
Y02385D01*
X012804Y02137D02*
Y02385D01*
X017096D02*
X01808D01*
X01182D02*
X012804D01*
X01121Y028575D02*
X01182D01*
X01121Y025386D02*
X01182D01*
Y028575D02*
Y03011D01*
Y02385D02*
Y025386D01*
X01121D02*
Y028575D01*
X016859Y03011D02*
X01808D01*
X01182D02*
X013041D01*
X016859D02*
Y03137D01*
X013041Y03011D02*
Y03137D01*
X016859D01*
X012804Y02137D02*
X017096D01*
D16*
X027723Y030502D02*
Y030521D01*
X027742Y030559D01*
X027761Y030579D01*
X0278Y030598D01*
X027876D01*
X027914Y030579D01*
X027933Y030559D01*
X027952Y030521D01*
Y030483D01*
X027933Y030445D01*
X027895Y030388D01*
X027704Y030198D01*
X027971D01*
X026649Y032409D02*
X026611Y03239D01*
X026573Y032351D01*
X026554Y032313D01*
X026535Y032256D01*
Y032161D01*
X026554Y032104D01*
X026573Y032066D01*
X026611Y032028D01*
X026649Y032009D01*
X026725D01*
X026764Y032028D01*
X026802Y032066D01*
X026821Y032104D01*
X02684Y032161D01*
Y032256D01*
X026821Y032313D01*
X026802Y032351D01*
X026764Y03239D01*
X026725Y032409D01*
X026649D01*
X026933D02*
Y032009D01*
Y032409D02*
X0272Y032009D01*
Y032409D02*
Y032009D01*
X026759Y030521D02*
X026798Y03054D01*
X026855Y030598D01*
Y030198D01*
X028742Y030598D02*
X028952D01*
X028838Y030445D01*
X028895D01*
X028933Y030426D01*
X028952Y030407D01*
X028971Y03035D01*
Y030312D01*
X028952Y030255D01*
X028914Y030217D01*
X028857Y030198D01*
X0288D01*
X028742Y030217D01*
X028723Y030236D01*
X028704Y030274D01*
X029895Y030598D02*
X029704Y030331D01*
X02999D01*
X029895Y030598D02*
Y030198D01*
D19*
X03428Y02623D02*
X03672D01*
X03428D02*
Y02867D01*
X03672D01*
Y02623D02*
Y02867D01*
X03818Y02623D02*
X04062D01*
X03818D02*
Y02867D01*
X04062D01*
Y02623D02*
Y02867D01*
X044487Y02623D02*
Y02867D01*
X042046D02*
X044487D01*
X042046Y02623D02*
Y02867D01*
Y02623D02*
X044487D01*
X026153Y033249D02*
X030547D01*
Y029351D02*
Y033249D01*
X026153Y029351D02*
X030547D01*
X026153D02*
Y033249D01*
X040789Y032778D02*
Y036322D01*
X039411Y032778D02*
X040789D01*
X039411D02*
Y036322D01*
X040789D01*
X029437Y048834D02*
Y049366D01*
X030263Y048834D02*
Y049366D01*
X029437D02*
X030263D01*
X029437Y048834D02*
X030263D01*
X030521Y02715D02*
X031052D01*
X030521Y026323D02*
X031052D01*
Y02715D01*
X030521Y026323D02*
Y02715D01*
X028859D02*
X02939D01*
X028859Y026323D02*
X02939D01*
Y02715D01*
X028859Y026323D02*
Y02715D01*
X025534D02*
X026066D01*
X025534Y026323D02*
X026066D01*
Y02715D01*
X025534Y026323D02*
Y02715D01*
X011663Y039484D02*
Y040016D01*
X010837Y039484D02*
Y040016D01*
Y039484D02*
X011663D01*
X010837Y040016D02*
X011663D01*
X030313Y046434D02*
Y046966D01*
X029487Y046434D02*
Y046966D01*
Y046434D02*
X030313D01*
X029487Y046966D02*
X030313D01*
X027196Y02715D02*
X027728D01*
X027196Y026323D02*
X027728D01*
Y02715D01*
X027196Y026323D02*
Y02715D01*
D91*
X02823Y03895D02*
G03*
X02847Y03895I00012J0D01*
G01*
D92*
X02747Y038742D02*
Y038862D01*
X02705D02*
X02747D01*
X02705Y038742D02*
Y038862D01*
Y038742D02*
X02747D01*
X02747Y038486D02*
X02747Y038606D01*
X02705D02*
X02747D01*
X02705Y038486D02*
Y038606D01*
Y038486D02*
X02747Y038486D01*
X02747Y03823D02*
Y03835D01*
X02705D02*
X02747D01*
X02705Y03823D02*
Y03835D01*
Y03823D02*
X02747D01*
X02747Y037974D02*
X02747Y038094D01*
X02705D02*
X02747D01*
X02705Y037974D02*
Y038094D01*
Y037974D02*
X02747Y037974D01*
X02747Y037718D02*
Y037838D01*
X02705D02*
X02747D01*
X02705Y037718D02*
Y037838D01*
Y037718D02*
X02747D01*
Y037462D02*
Y037582D01*
X02705Y037582D02*
X02747Y037582D01*
X02705Y037462D02*
X02705Y037582D01*
X02705Y037462D02*
X02747D01*
Y037206D02*
Y037326D01*
X02705D02*
X02747D01*
X02705Y037206D02*
Y037326D01*
Y037206D02*
X02747D01*
Y03695D02*
Y03707D01*
X02705Y03707D02*
X02747Y03707D01*
X02705Y03695D02*
X02705Y03707D01*
X02705Y03695D02*
X02747D01*
Y036694D02*
Y036814D01*
X02705D02*
X02747D01*
X02705Y036694D02*
Y036814D01*
Y036694D02*
X02747D01*
Y036438D02*
Y036558D01*
X02705Y036558D02*
X02747Y036558D01*
X02705Y036438D02*
X02705Y036558D01*
X02705Y036438D02*
X02747D01*
X02923Y036438D02*
Y036558D01*
Y036438D02*
X02965Y036438D01*
Y036558D01*
X02923D02*
X02965D01*
X02923Y036694D02*
X02923Y036814D01*
X02923Y036694D02*
X02965Y036694D01*
Y036814D01*
X02923Y036814D02*
X02965Y036814D01*
X02923Y03695D02*
X02923Y03707D01*
X02923Y03695D02*
X02965D01*
Y03707D01*
X02923D02*
X02965D01*
X02923Y037206D02*
X02923Y037326D01*
X02923Y037206D02*
X02965Y037206D01*
Y037326D01*
X02923Y037326D02*
X02965Y037326D01*
X02923Y037462D02*
X02923Y037582D01*
X02923Y037462D02*
X02965D01*
X02965Y037582D02*
X02965Y037462D01*
X02923Y037582D02*
X02965D01*
X02923Y037838D02*
X02923Y037718D01*
X02965D01*
X02965Y037838D01*
X02923D02*
X02965D01*
X02923Y037974D02*
X02923Y038094D01*
X02923Y037974D02*
X02965D01*
Y038094D01*
X02923Y038094D02*
X02965Y038094D01*
X02923Y03835D02*
X02923Y03823D01*
X02965D01*
X02965Y03835D01*
X02923D02*
X02965D01*
X02923Y038486D02*
X02923Y038606D01*
X02923Y038486D02*
X02965D01*
Y038606D01*
X02923Y038606D02*
X02965Y038606D01*
X02923Y038862D02*
X02923Y038742D01*
X02965D01*
X02965Y038862D01*
X02923D02*
X02965D01*
X02747Y03635D02*
X02923Y03635D01*
X02923Y03895D01*
X02747D02*
X02923D01*
X02747Y03635D02*
X02747Y03895D01*
D93*
X027495Y038837D02*
X027828Y038503D01*
X027495D02*
X027828Y038837D01*
X027495Y03867D02*
X027828D01*
X027662Y038503D02*
Y038837D01*
M02*
