G04*
G04 #@! TF.GenerationSoftware,Altium Limited,Altium Designer,18.1.6 (161)*
G04*
G04 Layer_Color=8388736*
%FSTAX24Y24*%
%MOIN*%
G70*
G01*
G75*
%ADD25R,0.0580X0.0140*%
%ADD27R,0.0370X0.0980*%
%ADD28R,0.2190X0.2480*%
%ADD34R,0.0630X0.0580*%
%ADD35R,0.0580X0.0630*%
%ADD36R,0.0533X0.0631*%
%ADD37R,0.0513X0.0552*%
%ADD38R,0.0552X0.0513*%
%ADD39R,0.0749X0.0789*%
%ADD40R,0.0474X0.1025*%
%ADD41R,0.1379X0.1025*%
%ADD42R,0.0867X0.0867*%
%ADD43C,0.0671*%
%ADD44C,0.0592*%
%ADD45O,0.0930X0.0730*%
%ADD46R,0.0930X0.0730*%
%ADD47C,0.0631*%
%ADD48O,0.0730X0.0830*%
%ADD49R,0.0730X0.0830*%
%ADD50R,0.1080X0.0780*%
%ADD51O,0.1080X0.0780*%
%ADD52C,0.0730*%
%ADD53R,0.0830X0.0730*%
%ADD54O,0.0830X0.0730*%
%ADD55C,0.0680*%
%ADD56C,0.0880*%
%ADD57R,0.0880X0.0880*%
%ADD58R,0.1080X0.1680*%
%ADD59R,0.1680X0.1080*%
%ADD60C,0.0780*%
%ADD61C,0.0980*%
%ADD62C,0.1460*%
D25*
X0272Y038802D02*
D03*
X0272Y038546D02*
D03*
X0272Y03829D02*
D03*
X0272Y038034D02*
D03*
X0272Y037778D02*
D03*
Y037522D02*
D03*
Y037266D02*
D03*
Y03701D02*
D03*
Y036754D02*
D03*
Y036498D02*
D03*
X0295D02*
D03*
Y036754D02*
D03*
Y03701D02*
D03*
Y037266D02*
D03*
Y037522D02*
D03*
X0295Y037778D02*
D03*
X0295Y038034D02*
D03*
X0295Y03829D02*
D03*
X0295Y038546D02*
D03*
X0295Y038802D02*
D03*
D27*
X0216Y045485D02*
D03*
X0234D02*
D03*
D28*
X0225Y048695D02*
D03*
D34*
X043262Y02561D02*
D03*
Y02471D02*
D03*
X039395Y02561D02*
D03*
Y02471D02*
D03*
X035495D02*
D03*
Y02561D02*
D03*
X03945Y0461D02*
D03*
Y047D02*
D03*
Y04935D02*
D03*
Y04845D02*
D03*
X02465Y04725D02*
D03*
Y04815D02*
D03*
X027442Y02395D02*
D03*
Y02305D02*
D03*
X02578Y02395D02*
D03*
Y02305D02*
D03*
X0201Y0473D02*
D03*
Y0464D02*
D03*
X035495Y0293D02*
D03*
Y0302D02*
D03*
X029104Y02305D02*
D03*
Y02395D02*
D03*
X030767Y02305D02*
D03*
Y02395D02*
D03*
X039395Y0293D02*
D03*
Y0302D02*
D03*
X043262Y0293D02*
D03*
Y0302D02*
D03*
X0397Y0402D02*
D03*
Y0411D02*
D03*
X0407Y0402D02*
D03*
Y0411D02*
D03*
D35*
X02515Y03775D02*
D03*
X02425D02*
D03*
X0242Y04055D02*
D03*
X0251D02*
D03*
X027874Y0397D02*
D03*
X026974D02*
D03*
X027874Y04055D02*
D03*
X026974D02*
D03*
X02965Y0397D02*
D03*
X02875D02*
D03*
X02965Y04055D02*
D03*
X02875D02*
D03*
X03033Y047947D02*
D03*
X02943D02*
D03*
X0266Y04485D02*
D03*
X0275D02*
D03*
X01485Y03845D02*
D03*
X01395D02*
D03*
X01075Y03875D02*
D03*
X01165D02*
D03*
X02245Y04425D02*
D03*
X02335D02*
D03*
X03285Y04755D02*
D03*
X03195D02*
D03*
X02942Y0456D02*
D03*
X03032D02*
D03*
X03765Y04015D02*
D03*
X03855D02*
D03*
D36*
X02417Y039516D02*
D03*
Y03865D02*
D03*
X0248D02*
D03*
Y039516D02*
D03*
D37*
X029437Y0491D02*
D03*
X030263D02*
D03*
X011663Y03975D02*
D03*
X010837D02*
D03*
X030313Y0467D02*
D03*
X029487D02*
D03*
D38*
X030787Y02715D02*
D03*
Y026323D02*
D03*
X029124Y02715D02*
D03*
Y026323D02*
D03*
X0258Y02715D02*
D03*
Y026323D02*
D03*
X027462Y02715D02*
D03*
Y026323D02*
D03*
D39*
X018637Y0464D02*
D03*
X017437D02*
D03*
D40*
X027506Y048442D02*
D03*
X0266D02*
D03*
X025694D02*
D03*
D41*
X0266Y046158D02*
D03*
D42*
X018637Y04475D02*
D03*
X017063D02*
D03*
D43*
X03422Y028336D02*
D03*
Y026564D02*
D03*
X03678Y028336D02*
D03*
Y026564D02*
D03*
X03812Y028336D02*
D03*
Y026564D02*
D03*
X04068Y028336D02*
D03*
Y026564D02*
D03*
X044546D02*
D03*
Y028336D02*
D03*
X041987Y026564D02*
D03*
Y028336D02*
D03*
D44*
X02885Y0298D02*
D03*
X02785D02*
D03*
X02685D02*
D03*
X02985D02*
D03*
Y0328D02*
D03*
X02885D02*
D03*
X02785D02*
D03*
X02685D02*
D03*
D45*
X04395Y036D02*
D03*
Y033D02*
D03*
Y034D02*
D03*
Y035D02*
D03*
Y037D02*
D03*
D46*
Y032D02*
D03*
D47*
X04075Y033566D02*
D03*
Y03455D02*
D03*
Y035534D02*
D03*
X03945Y033566D02*
D03*
Y03455D02*
D03*
Y035534D02*
D03*
D48*
X04065Y047D02*
D03*
X04064Y0484D02*
D03*
X03289Y049D02*
D03*
X0339D02*
D03*
X03488D02*
D03*
X03589D02*
D03*
X0206Y03712D02*
D03*
X01959D02*
D03*
X01861D02*
D03*
X0176D02*
D03*
D49*
X04166Y047D02*
D03*
X04165Y0484D02*
D03*
D50*
X0148Y04175D02*
D03*
D51*
Y04275D02*
D03*
D52*
X010884Y03712D02*
D03*
X011884D02*
D03*
X012884D02*
D03*
X013884D02*
D03*
X014884D02*
D03*
X015884D02*
D03*
X0377Y0389D02*
D03*
X0387D02*
D03*
X0397D02*
D03*
X0407D02*
D03*
X0417D02*
D03*
X0427D02*
D03*
X0437D02*
D03*
X0447D02*
D03*
D53*
X01985Y0411D02*
D03*
X0171Y04109D02*
D03*
D54*
X01985Y04211D02*
D03*
Y04309D02*
D03*
X0171Y0421D02*
D03*
Y04308D02*
D03*
D55*
X03585Y04535D02*
D03*
Y04435D02*
D03*
Y04335D02*
D03*
Y04235D02*
D03*
Y04135D02*
D03*
Y04035D02*
D03*
Y03935D02*
D03*
Y03835D02*
D03*
Y03735D02*
D03*
Y03635D02*
D03*
Y03535D02*
D03*
D56*
X0116Y041472D02*
D03*
D57*
Y04285D02*
D03*
D58*
X01265Y04575D02*
D03*
D59*
X01465Y04725D02*
D03*
Y04475D02*
D03*
D60*
X01895Y028D02*
D03*
Y027D02*
D03*
Y026D02*
D03*
X01395Y031D02*
D03*
X01495D02*
D03*
X01595D02*
D03*
X0137Y024D02*
D03*
X0162D02*
D03*
X0137Y022D02*
D03*
X0162D02*
D03*
D61*
X01195Y024375D02*
D03*
Y029625D02*
D03*
X01795D02*
D03*
Y024375D02*
D03*
D62*
X0113Y0213D02*
D03*
X04475D02*
D03*
Y04835D02*
D03*
X0113D02*
D03*
M02*
