G04*
G04 #@! TF.GenerationSoftware,Altium Limited,Altium Designer,18.1.6 (161)*
G04*
G04 Layer_Color=16711935*
%FSTAX24Y24*%
%MOIN*%
G70*
G01*
G75*
%ADD34R,0.0630X0.0580*%
%ADD35R,0.0580X0.0630*%
%ADD43R,0.1680X0.1080*%
%ADD44R,0.1080X0.1680*%
%ADD45C,0.0671*%
%ADD46C,0.0592*%
%ADD47O,0.0930X0.0730*%
%ADD48R,0.0930X0.0730*%
%ADD49C,0.0631*%
%ADD50O,0.0830X0.0730*%
%ADD51R,0.0830X0.0730*%
%ADD52O,0.0730X0.0830*%
%ADD53R,0.1080X0.0780*%
%ADD54O,0.1080X0.0780*%
%ADD55C,0.0730*%
%ADD56C,0.0680*%
%ADD57C,0.0880*%
%ADD58R,0.0880X0.0880*%
%ADD59C,0.0780*%
%ADD60C,0.0980*%
%ADD61C,0.1460*%
D34*
X03445Y04445D02*
D03*
Y04535D02*
D03*
D35*
X0198Y02985D02*
D03*
X0189D02*
D03*
X0151Y03235D02*
D03*
X016D02*
D03*
D43*
X01465Y04475D02*
D03*
Y04725D02*
D03*
D44*
X01265Y04575D02*
D03*
D45*
X03422Y028336D02*
D03*
Y026564D02*
D03*
X03678Y028336D02*
D03*
Y026564D02*
D03*
X03812Y028336D02*
D03*
Y026564D02*
D03*
X04068Y028336D02*
D03*
Y026564D02*
D03*
X044546D02*
D03*
Y028336D02*
D03*
X041987Y026564D02*
D03*
Y028336D02*
D03*
D46*
X02885Y0298D02*
D03*
X02785D02*
D03*
X02685D02*
D03*
X02985D02*
D03*
Y0328D02*
D03*
X02885D02*
D03*
X02785D02*
D03*
X02685D02*
D03*
D47*
X04395Y036D02*
D03*
Y033D02*
D03*
Y034D02*
D03*
Y035D02*
D03*
Y037D02*
D03*
D48*
Y032D02*
D03*
D49*
X04075Y033566D02*
D03*
Y03455D02*
D03*
Y035534D02*
D03*
X03945Y033566D02*
D03*
Y03455D02*
D03*
Y035534D02*
D03*
D50*
X0389Y04614D02*
D03*
X04065Y04615D02*
D03*
X01985Y04211D02*
D03*
Y04309D02*
D03*
X0171Y0421D02*
D03*
Y04308D02*
D03*
D51*
X0389Y04715D02*
D03*
X04065Y04716D02*
D03*
X01985Y0411D02*
D03*
X0171Y04109D02*
D03*
D52*
X03189Y04765D02*
D03*
X0329D02*
D03*
X03388D02*
D03*
X03489D02*
D03*
X0206Y03712D02*
D03*
X01959D02*
D03*
X01861D02*
D03*
X0176D02*
D03*
D53*
X0148Y04175D02*
D03*
D54*
Y04275D02*
D03*
D55*
X010884Y03712D02*
D03*
X011884D02*
D03*
X012884D02*
D03*
X013884D02*
D03*
X014884D02*
D03*
X015884D02*
D03*
X0377Y0389D02*
D03*
X0387D02*
D03*
X0397D02*
D03*
X0407D02*
D03*
X0417D02*
D03*
X0427D02*
D03*
X0437D02*
D03*
X0447D02*
D03*
D56*
X03585Y04535D02*
D03*
Y04435D02*
D03*
Y04335D02*
D03*
Y04235D02*
D03*
Y04135D02*
D03*
Y04035D02*
D03*
Y03935D02*
D03*
Y03835D02*
D03*
Y03735D02*
D03*
Y03635D02*
D03*
Y03535D02*
D03*
D57*
X0116Y041472D02*
D03*
D58*
Y04285D02*
D03*
D59*
X01895Y028D02*
D03*
Y027D02*
D03*
Y026D02*
D03*
X01395Y031D02*
D03*
X01495D02*
D03*
X01595D02*
D03*
X0137Y024D02*
D03*
X0162D02*
D03*
X0137Y022D02*
D03*
X0162D02*
D03*
D60*
X01195Y024375D02*
D03*
Y029625D02*
D03*
X01795D02*
D03*
Y024375D02*
D03*
D61*
X0113Y0213D02*
D03*
X04475D02*
D03*
Y04835D02*
D03*
X0113D02*
D03*
M02*
