G04*
G04 #@! TF.GenerationSoftware,Altium Limited,Altium Designer,18.1.6 (161)*
G04*
G04 Layer_Color=32768*
%FSTAX24Y24*%
%MOIN*%
G70*
G01*
G75*
%ADD19C,0.0039*%
%ADD93C,0.0020*%
D19*
X0291Y04875D02*
Y04945D01*
X03065Y04875D02*
Y04945D01*
X0291D02*
X03065D01*
X0291Y04875D02*
X03065D01*
X029653Y0491D02*
X030047D01*
X02985Y048903D02*
Y049297D01*
X030437Y027487D02*
X031137D01*
X030437Y025937D02*
X031137D01*
Y027487D01*
X030437Y025937D02*
Y027487D01*
X030787Y02654D02*
Y026933D01*
X03059Y026737D02*
X030984D01*
X028774Y027487D02*
X029474D01*
X028774Y025937D02*
X029474D01*
Y027487D01*
X028774Y025937D02*
Y027487D01*
X029124Y02654D02*
Y026933D01*
X028928Y026737D02*
X029321D01*
X02545Y027487D02*
X02615D01*
X02545Y025937D02*
X02615D01*
Y027487D01*
X02545Y025937D02*
Y027487D01*
X0258Y02654D02*
Y026933D01*
X025603Y026737D02*
X025997D01*
X012Y0394D02*
Y0401D01*
X01045Y0394D02*
Y0401D01*
Y0394D02*
X012D01*
X01045Y0401D02*
X012D01*
X011053Y03975D02*
X011447D01*
X01125Y039553D02*
Y039947D01*
X025183Y049013D02*
X028017D01*
X025183Y045587D02*
X028017D01*
Y049013D01*
X025183Y045587D02*
Y049013D01*
X0266Y047103D02*
Y047497D01*
X026403Y0473D02*
X026797D01*
X03065Y04635D02*
Y04705D01*
X0291Y04635D02*
Y04705D01*
Y04635D02*
X03065D01*
X0291Y04705D02*
X03065D01*
X029703Y0467D02*
X030097D01*
X0299Y046503D02*
Y046897D01*
X027112Y027487D02*
X027812D01*
X027112Y025937D02*
X027812D01*
Y027487D01*
X027112Y025937D02*
Y027487D01*
X027462Y02654D02*
Y026933D01*
X027265Y026737D02*
X027659D01*
D93*
X017222Y022132D02*
G03*
X012718Y022132I-002252J004829D01*
G01*
X0355Y027253D02*
Y027647D01*
X035303Y02745D02*
X035697D01*
X037154Y026151D02*
Y028749D01*
X033846D02*
X037154D01*
X033846Y026151D02*
Y028749D01*
Y026151D02*
X037154D01*
X0394Y027203D02*
Y027597D01*
X039203Y0274D02*
X039597D01*
X041054Y026101D02*
Y028699D01*
X037746D02*
X041054D01*
X037746Y026101D02*
Y028699D01*
Y026101D02*
X041054D01*
X041613Y026151D02*
X04492D01*
X041613D02*
Y028749D01*
X04492D01*
Y026151D02*
Y028749D01*
X04307Y02745D02*
X043463D01*
X043267Y027253D02*
Y027647D01*
X026035Y033347D02*
X030665D01*
Y029253D02*
Y033347D01*
X026035Y029253D02*
X030665D01*
X026035D02*
Y033347D01*
X028153Y0313D02*
X028547D01*
X02835Y031103D02*
Y031497D01*
X024297Y04039D02*
X025573D01*
Y038776D02*
Y04039D01*
X024297Y038776D02*
X025573D01*
X024297D02*
Y04039D01*
X041104Y0327D02*
Y0364D01*
X039096Y0327D02*
X041104D01*
X039096D02*
Y0364D01*
X041104D01*
X0401Y034353D02*
Y034747D01*
X039903Y03455D02*
X040297D01*
X012706Y021252D02*
Y022138D01*
Y021252D02*
X017233D01*
Y022138D01*
M02*
