M48
;Layer_Color=9474304
;FILE_FORMAT=2:4
INCH,LZ
;TYPE=PLATED
T1F00S00C0.0157
T2F00S00C0.0300
T3F00S00C0.0315
T4F00S00C0.0320
T5F00S00C0.0350
T6F00S00C0.0354
T7F00S00C0.0360
T8F00S00C0.0394
T9F00S00C0.0450
T11F00S00C0.0550
T12F00S00C0.1181
%
T01
X03195Y022
X03395
X03595
X03795
X03995
X04195
X04395
X04495Y024
X04295
X04095
X03895
X03695
X03495
X03295
X03195Y026
X03295Y028
X0348Y0274
X03616
X03875
X04
X0426
X04395
Y03
X04195
X03995
X038453Y030211
X03795Y03
X036638Y030211
X03395Y03
X03195
X045588Y030826
X02595Y03
X02395
X02195
X02295Y028
X02495
X02395Y026
X02195
X019654Y025902
X01795Y026
X01595
X01695Y028
X01595Y03
X019426Y029149
X019439Y030964
X02095Y028
Y024
X02295
X02495
X02595Y022
X02795
X02995
X02395
X02195
X01995
X01795
X01895Y024
X01695
X01495
X01395Y026
X01195
X01295Y028
X01495
X01195Y022
Y034
X01495Y036
X015449Y037632
X01432Y037613
X014294Y038927
X01495Y04
X01295
X01323Y040882
X012482Y042062
X01295Y044
X014066Y04385
X01395Y046
X011137Y040843
X012211Y03938
X01285Y0383
X015844Y038886
X017159
X01695Y04
X01895
X018993Y038989
X0201Y039001
X01995Y038
X019153Y037911
X01795Y038
X01673Y03594
X015844Y036319
X01595Y034
X01795
X018528Y032534
X018176Y031362
X02095Y032
X02295
X02495
X02695
X02895
X03095
Y036
X030737Y03785
X03015Y03775
X02834Y037783
X028393Y038783
X02725Y039139
X025491Y0394
X025592Y038635
X02515Y040015
X024444Y041672
X024782Y04212
X02595Y042
X027Y042635
X028211Y042422
X028178Y041797
X029322Y041807
X02995Y042
X030114Y041119
X029503Y04265
X030743Y043145
X03005Y0442
X02895Y044
X028Y04405
X028507Y0447
X02785Y0452
X026544Y045157
X0267Y0441
X02551
X024215Y044864
X02395Y046
X025088Y0462
X026549Y046472
X02785Y04655
X02995Y046
X0294Y0452
X022914Y045058
X021786Y045322
X02115
X0205Y0463
X01995Y046
X01985Y044814
X01895Y044
X017695Y04385
X017875Y042664
X018617Y041536
X02115Y041431
X0213Y04015
X0228
X022216Y039553
X0216Y038927
X02105Y0383
X02175Y037042
X02275Y0378
X0236Y037042
X023536Y03865
X0251Y03685
X02779Y036856
X02695Y036
X0273Y0346
X028377
X029373
X02595Y034
X02395
X02195
X0225Y041339
X02285Y0426
X02375
X02345Y0442
X021786Y043823
X02235Y04315
X021786Y042509
X022434Y046282
X0185Y0455
X017326Y045644
X01595Y046
X01588Y04385
X015773Y04109
X032947Y040454
Y041769
X034076Y041484
Y042799
X03495Y044
X035207Y044786
X035112Y045914
X03685Y046394
X038142Y046637
X03995Y046
X04195
X042634Y046653
X04432Y046492
X043918Y04537
X045603Y045209
X04495Y044
X046089Y04346
Y041645
X045011Y041431
X04495Y04
X046089Y03983
Y038015
X045011Y037801
X04395Y038
X04195
X0417Y036065
X04195Y034
X03995
X039913Y031289
X041728
X043543
X045011Y032356
X046089Y03257
Y034385
X045011Y034171
X04495Y036
X046089Y0362
X04295Y04
X043234Y041802
X043524Y04288
X04295Y044
X04095
X041709Y04288
X041419Y041802
X039Y041635
Y040973
X03835Y040976
X037161Y040912
X0365Y040874
X035262Y040914
X03488Y039192
X03521Y037877
X034399Y037003
X033469Y037932
X03195Y038
X03175Y03745
X0325Y0369
X032947Y039139
X03695Y04
X038239Y039452
X03775Y0372
X03695Y036
X03895
X038098Y031289
X03495Y032
X03295
X03195Y034
X031817Y0443
X031314Y045312
X032482Y045914
X032526Y046615
X03695Y044
X03895
X039895Y04288
X038133Y042445
X03823Y048411
X03895Y048
X03695
X036415Y048411
X03636Y049489
X038175
X03999
X041753Y049059
X041351Y047937
X04295Y048
X03594Y046936
X0346Y048411
X034545Y049489
X03273
X032785Y048411
X030938Y049201
X030161Y04756
X02895Y0477
X0279Y0487
X02665Y047742
X02595Y048135
X024545Y047794
X02295Y048
X024074Y049547
X01954Y047065
X018307Y04697
X0183Y0483
X016785Y047479
X0149Y0486
X01295Y048
T02
X03585Y03535
Y03635
Y03735
Y03835
Y03935
Y04035
Y04135
Y04235
Y04335
Y04435
Y04535
T03
X02685Y0298
X02785
X02885
X02985
Y0328
X02885
X02785
X02685
T04
X0148Y04175
Y04275
T05
X01895Y026
Y027
Y028
X01595Y031
X01495
X01395
X0377Y0389
X0387
X0397
X0407
X0417
X0427
X0437
X0447
T06
X0162Y022
Y024
X0137
Y022
X03945Y033566
Y03455
Y035534
X04075
Y03455
Y033566
T07
X010884Y03712
X011884
X012884
X013884
X014884
X015884
X0176
X01861
X01959
X0206
X01985Y0411
Y04211
Y04309
X0171Y04308
Y0421
Y04109
X0389Y04614
X04065Y04615
X04395Y037
Y036
Y035
Y034
Y033
Y032
X04065Y04716
X0389Y04715
X03489Y04765
X03388
X0329
X03189
T08
X03422Y026564
Y028336
X03678
X03812
Y026564
X03678
X04068
X041987
Y028336
X04068
X044546
Y026564
T09
X0116Y041472
Y04285
T11
X01795Y024375
Y029625
X01195
Y024375
T12
X04475Y0213
X0113
X04475Y04835
X0113
M30
