G04*
G04 #@! TF.GenerationSoftware,Altium Limited,Altium Designer,18.1.6 (161)*
G04*
G04 Layer_Color=2752767*
%FSTAX24Y24*%
%MOIN*%
G70*
G01*
G75*
%ADD92C,0.0020*%
%ADD93C,0.0027*%
%ADD94C,0.0013*%
D92*
X01457Y04467D02*
Y04483D01*
X01473D01*
Y04467D01*
X01457D01*
Y04717D02*
Y04733D01*
X01473D01*
Y04717D01*
X01457D01*
X01257Y04567D02*
Y04583D01*
X01273D01*
Y04567D01*
X01257D01*
X02885Y02972D02*
X02877Y02988D01*
X02893D01*
X02885Y02972D01*
X02785D02*
X02777Y02988D01*
X02793D01*
X02785Y02972D01*
X02685D02*
X02677Y02988D01*
X02693D01*
X02685Y02972D01*
X02985D02*
X02977Y02988D01*
X02993D01*
X02985Y02972D01*
Y03272D02*
X02977Y03288D01*
X02993D01*
X02985Y03272D01*
X02885D02*
X02877Y03288D01*
X02893D01*
X02885Y03272D01*
X02785D02*
X02777Y03288D01*
X02793D01*
X02785Y03272D01*
X02685D02*
X02677Y03288D01*
X02693D01*
X02685Y03272D01*
X04395Y03592D02*
X04399Y03596D01*
X04403D01*
X04399Y036D01*
X04403Y03604D01*
X04399D01*
X04395Y03608D01*
X04391Y03604D01*
X04387D01*
X04391Y036D01*
X04387Y03596D01*
X04391D01*
X04395Y03592D01*
Y03192D02*
X04399Y03196D01*
X04403D01*
X04399Y032D01*
X04403Y03204D01*
X04399D01*
X04395Y03208D01*
X04391Y03204D01*
X04387D01*
X04391Y032D01*
X04387Y03196D01*
X04391D01*
X04395Y03192D01*
Y03292D02*
X04399Y03296D01*
X04403D01*
X04399Y033D01*
X04403Y03304D01*
X04399D01*
X04395Y03308D01*
X04391Y03304D01*
X04387D01*
X04391Y033D01*
X04387Y03296D01*
X04391D01*
X04395Y03292D01*
Y03392D02*
X04399Y03396D01*
X04403D01*
X04399Y034D01*
X04403Y03404D01*
X04399D01*
X04395Y03408D01*
X04391Y03404D01*
X04387D01*
X04391Y034D01*
X04387Y03396D01*
X04391D01*
X04395Y03392D01*
Y03492D02*
X04399Y03496D01*
X04403D01*
X04399Y035D01*
X04403Y03504D01*
X04399D01*
X04395Y03508D01*
X04391Y03504D01*
X04387D01*
X04391Y035D01*
X04387Y03496D01*
X04391D01*
X04395Y03492D01*
Y03692D02*
X04399Y03696D01*
X04403D01*
X04399Y037D01*
X04403Y03704D01*
X04399D01*
X04395Y03708D01*
X04391Y03704D01*
X04387D01*
X04391Y037D01*
X04387Y03696D01*
X04391D01*
X04395Y03692D01*
X04067Y033486D02*
X04071Y033566D01*
X04067Y033646D01*
X04075Y033606D01*
X04083Y033646D01*
X04079Y033566D01*
X04083Y033486D01*
X04075Y033526D01*
X04067Y033486D01*
Y03447D02*
X04071Y03455D01*
X04067Y03463D01*
X04075Y03459D01*
X04083Y03463D01*
X04079Y03455D01*
X04083Y03447D01*
X04075Y03451D01*
X04067Y03447D01*
Y035454D02*
X04071Y035534D01*
X04067Y035614D01*
X04075Y035574D01*
X04083Y035614D01*
X04079Y035534D01*
X04083Y035454D01*
X04075Y035494D01*
X04067Y035454D01*
X03937Y033486D02*
X03941Y033566D01*
X03937Y033646D01*
X03945Y033606D01*
X03953Y033646D01*
X03949Y033566D01*
X03953Y033486D01*
X03945Y033526D01*
X03937Y033486D01*
Y03447D02*
X03941Y03455D01*
X03937Y03463D01*
X03945Y03459D01*
X03953Y03463D01*
X03949Y03455D01*
X03953Y03447D01*
X03945Y03451D01*
X03937Y03447D01*
Y035454D02*
X03941Y035534D01*
X03937Y035614D01*
X03945Y035574D01*
X03953Y035614D01*
X03949Y035534D01*
X03953Y035454D01*
X03945Y035494D01*
X03937Y035454D01*
X0389Y04606D02*
X03894Y0461D01*
X03898D01*
X03894Y04614D01*
X03898Y04618D01*
X03894D01*
X0389Y04622D01*
X03886Y04618D01*
X03882D01*
X03886Y04614D01*
X03882Y0461D01*
X03886D01*
X0389Y04606D01*
Y04707D02*
X03894Y04711D01*
X03898D01*
X03894Y04715D01*
X03898Y04719D01*
X03894D01*
X0389Y04723D01*
X03886Y04719D01*
X03882D01*
X03886Y04715D01*
X03882Y04711D01*
X03886D01*
X0389Y04707D01*
X04065Y04607D02*
X04069Y04611D01*
X04073D01*
X04069Y04615D01*
X04073Y04619D01*
X04069D01*
X04065Y04623D01*
X04061Y04619D01*
X04057D01*
X04061Y04615D01*
X04057Y04611D01*
X04061D01*
X04065Y04607D01*
Y04708D02*
X04069Y04712D01*
X04073D01*
X04069Y04716D01*
X04073Y0472D01*
X04069D01*
X04065Y04724D01*
X04061Y0472D01*
X04057D01*
X04061Y04716D01*
X04057Y04712D01*
X04061D01*
X04065Y04708D01*
X03189Y04757D02*
X03193Y04761D01*
X03197D01*
X03193Y04765D01*
X03197Y04769D01*
X03193D01*
X03189Y04773D01*
X03185Y04769D01*
X03181D01*
X03185Y04765D01*
X03181Y04761D01*
X03185D01*
X03189Y04757D01*
X0329D02*
X03294Y04761D01*
X03298D01*
X03294Y04765D01*
X03298Y04769D01*
X03294D01*
X0329Y04773D01*
X03286Y04769D01*
X03282D01*
X03286Y04765D01*
X03282Y04761D01*
X03286D01*
X0329Y04757D01*
X03388D02*
X03392Y04761D01*
X03396D01*
X03392Y04765D01*
X03396Y04769D01*
X03392D01*
X03388Y04773D01*
X03384Y04769D01*
X0338D01*
X03384Y04765D01*
X0338Y04761D01*
X03384D01*
X03388Y04757D01*
X03489D02*
X03493Y04761D01*
X03497D01*
X03493Y04765D01*
X03497Y04769D01*
X03493D01*
X03489Y04773D01*
X03485Y04769D01*
X03481D01*
X03485Y04765D01*
X03481Y04761D01*
X03485D01*
X03489Y04757D01*
X0206Y03704D02*
X02064Y03708D01*
X02068D01*
X02064Y03712D01*
X02068Y03716D01*
X02064D01*
X0206Y0372D01*
X02056Y03716D01*
X02052D01*
X02056Y03712D01*
X02052Y03708D01*
X02056D01*
X0206Y03704D01*
X01959D02*
X01963Y03708D01*
X01967D01*
X01963Y03712D01*
X01967Y03716D01*
X01963D01*
X01959Y0372D01*
X01955Y03716D01*
X01951D01*
X01955Y03712D01*
X01951Y03708D01*
X01955D01*
X01959Y03704D01*
X01861D02*
X01865Y03708D01*
X01869D01*
X01865Y03712D01*
X01869Y03716D01*
X01865D01*
X01861Y0372D01*
X01857Y03716D01*
X01853D01*
X01857Y03712D01*
X01853Y03708D01*
X01857D01*
X01861Y03704D01*
X0176D02*
X01764Y03708D01*
X01768D01*
X01764Y03712D01*
X01768Y03716D01*
X01764D01*
X0176Y0372D01*
X01756Y03716D01*
X01752D01*
X01756Y03712D01*
X01752Y03708D01*
X01756D01*
X0176Y03704D01*
X01476Y04171D02*
Y04167D01*
X01484D01*
Y04171D01*
X01488D01*
Y04179D01*
X01484D01*
Y04183D01*
X01476D01*
Y04179D01*
X01472D01*
Y04171D01*
X01476D01*
Y04271D02*
Y04267D01*
X01484D01*
Y04271D01*
X01488D01*
Y04279D01*
X01484D01*
Y04283D01*
X01476D01*
Y04279D01*
X01472D01*
Y04271D01*
X01476D01*
X010884Y03704D02*
X010924Y03708D01*
X010964D01*
X010924Y03712D01*
X010964Y03716D01*
X010924D01*
X010884Y0372D01*
X010844Y03716D01*
X010804D01*
X010844Y03712D01*
X010804Y03708D01*
X010844D01*
X010884Y03704D01*
X011884D02*
X011924Y03708D01*
X011964D01*
X011924Y03712D01*
X011964Y03716D01*
X011924D01*
X011884Y0372D01*
X011844Y03716D01*
X011804D01*
X011844Y03712D01*
X011804Y03708D01*
X011844D01*
X011884Y03704D01*
X012884D02*
X012924Y03708D01*
X012964D01*
X012924Y03712D01*
X012964Y03716D01*
X012924D01*
X012884Y0372D01*
X012844Y03716D01*
X012804D01*
X012844Y03712D01*
X012804Y03708D01*
X012844D01*
X012884Y03704D01*
X013884D02*
X013924Y03708D01*
X013964D01*
X013924Y03712D01*
X013964Y03716D01*
X013924D01*
X013884Y0372D01*
X013844Y03716D01*
X013804D01*
X013844Y03712D01*
X013804Y03708D01*
X013844D01*
X013884Y03704D01*
X014884D02*
X014924Y03708D01*
X014964D01*
X014924Y03712D01*
X014964Y03716D01*
X014924D01*
X014884Y0372D01*
X014844Y03716D01*
X014804D01*
X014844Y03712D01*
X014804Y03708D01*
X014844D01*
X014884Y03704D01*
X015884D02*
X015924Y03708D01*
X015964D01*
X015924Y03712D01*
X015964Y03716D01*
X015924D01*
X015884Y0372D01*
X015844Y03716D01*
X015804D01*
X015844Y03712D01*
X015804Y03708D01*
X015844D01*
X015884Y03704D01*
X01985Y04102D02*
X01989Y04106D01*
X01993D01*
X01989Y0411D01*
X01993Y04114D01*
X01989D01*
X01985Y04118D01*
X01981Y04114D01*
X01977D01*
X01981Y0411D01*
X01977Y04106D01*
X01981D01*
X01985Y04102D01*
Y04203D02*
X01989Y04207D01*
X01993D01*
X01989Y04211D01*
X01993Y04215D01*
X01989D01*
X01985Y04219D01*
X01981Y04215D01*
X01977D01*
X01981Y04211D01*
X01977Y04207D01*
X01981D01*
X01985Y04203D01*
Y04301D02*
X01989Y04305D01*
X01993D01*
X01989Y04309D01*
X01993Y04313D01*
X01989D01*
X01985Y04317D01*
X01981Y04313D01*
X01977D01*
X01981Y04309D01*
X01977Y04305D01*
X01981D01*
X01985Y04301D01*
X0171Y04101D02*
X01714Y04105D01*
X01718D01*
X01714Y04109D01*
X01718Y04113D01*
X01714D01*
X0171Y04117D01*
X01706Y04113D01*
X01702D01*
X01706Y04109D01*
X01702Y04105D01*
X01706D01*
X0171Y04101D01*
Y04202D02*
X01714Y04206D01*
X01718D01*
X01714Y0421D01*
X01718Y04214D01*
X01714D01*
X0171Y04218D01*
X01706Y04214D01*
X01702D01*
X01706Y0421D01*
X01702Y04206D01*
X01706D01*
X0171Y04202D01*
Y043D02*
X01714Y04304D01*
X01718D01*
X01714Y04308D01*
X01718Y04312D01*
X01714D01*
X0171Y04316D01*
X01706Y04312D01*
X01702D01*
X01706Y04308D01*
X01702Y04304D01*
X01706D01*
X0171Y043D01*
X03577Y04527D02*
X03581D01*
X03585Y04531D01*
X03589Y04527D01*
X03593D01*
Y04531D01*
X03589Y04535D01*
X03593Y04539D01*
Y04543D01*
X03589D01*
X03585Y04539D01*
X03581Y04543D01*
X03577D01*
Y04539D01*
X03581Y04535D01*
X03577Y04531D01*
Y04527D01*
Y04427D02*
X03581D01*
X03585Y04431D01*
X03589Y04427D01*
X03593D01*
Y04431D01*
X03589Y04435D01*
X03593Y04439D01*
Y04443D01*
X03589D01*
X03585Y04439D01*
X03581Y04443D01*
X03577D01*
Y04439D01*
X03581Y04435D01*
X03577Y04431D01*
Y04427D01*
Y04327D02*
X03581D01*
X03585Y04331D01*
X03589Y04327D01*
X03593D01*
Y04331D01*
X03589Y04335D01*
X03593Y04339D01*
Y04343D01*
X03589D01*
X03585Y04339D01*
X03581Y04343D01*
X03577D01*
Y04339D01*
X03581Y04335D01*
X03577Y04331D01*
Y04327D01*
Y04227D02*
X03581D01*
X03585Y04231D01*
X03589Y04227D01*
X03593D01*
Y04231D01*
X03589Y04235D01*
X03593Y04239D01*
Y04243D01*
X03589D01*
X03585Y04239D01*
X03581Y04243D01*
X03577D01*
Y04239D01*
X03581Y04235D01*
X03577Y04231D01*
Y04227D01*
Y04127D02*
X03581D01*
X03585Y04131D01*
X03589Y04127D01*
X03593D01*
Y04131D01*
X03589Y04135D01*
X03593Y04139D01*
Y04143D01*
X03589D01*
X03585Y04139D01*
X03581Y04143D01*
X03577D01*
Y04139D01*
X03581Y04135D01*
X03577Y04131D01*
Y04127D01*
Y04027D02*
X03581D01*
X03585Y04031D01*
X03589Y04027D01*
X03593D01*
Y04031D01*
X03589Y04035D01*
X03593Y04039D01*
Y04043D01*
X03589D01*
X03585Y04039D01*
X03581Y04043D01*
X03577D01*
Y04039D01*
X03581Y04035D01*
X03577Y04031D01*
Y04027D01*
Y03927D02*
X03581D01*
X03585Y03931D01*
X03589Y03927D01*
X03593D01*
Y03931D01*
X03589Y03935D01*
X03593Y03939D01*
Y03943D01*
X03589D01*
X03585Y03939D01*
X03581Y03943D01*
X03577D01*
Y03939D01*
X03581Y03935D01*
X03577Y03931D01*
Y03927D01*
Y03827D02*
X03581D01*
X03585Y03831D01*
X03589Y03827D01*
X03593D01*
Y03831D01*
X03589Y03835D01*
X03593Y03839D01*
Y03843D01*
X03589D01*
X03585Y03839D01*
X03581Y03843D01*
X03577D01*
Y03839D01*
X03581Y03835D01*
X03577Y03831D01*
Y03827D01*
Y03727D02*
X03581D01*
X03585Y03731D01*
X03589Y03727D01*
X03593D01*
Y03731D01*
X03589Y03735D01*
X03593Y03739D01*
Y03743D01*
X03589D01*
X03585Y03739D01*
X03581Y03743D01*
X03577D01*
Y03739D01*
X03581Y03735D01*
X03577Y03731D01*
Y03727D01*
Y03627D02*
X03581D01*
X03585Y03631D01*
X03589Y03627D01*
X03593D01*
Y03631D01*
X03589Y03635D01*
X03593Y03639D01*
Y03643D01*
X03589D01*
X03585Y03639D01*
X03581Y03643D01*
X03577D01*
Y03639D01*
X03581Y03635D01*
X03577Y03631D01*
Y03627D01*
Y03527D02*
X03581D01*
X03585Y03531D01*
X03589Y03527D01*
X03593D01*
Y03531D01*
X03589Y03535D01*
X03593Y03539D01*
Y03543D01*
X03589D01*
X03585Y03539D01*
X03581Y03543D01*
X03577D01*
Y03539D01*
X03581Y03535D01*
X03577Y03531D01*
Y03527D01*
X01152Y041472D02*
X0116Y041552D01*
X01168Y041472D01*
X0116Y041392D01*
X01152Y041472D01*
Y04285D02*
X0116Y04293D01*
X01168Y04285D01*
X0116Y04277D01*
X01152Y04285D01*
X03762Y03882D02*
Y03898D01*
X03778D01*
Y03882D01*
X03762D01*
X03766Y03886D02*
Y03894D01*
X03774D01*
Y03886D01*
X03766D01*
X03862Y03882D02*
Y03898D01*
X03878D01*
Y03882D01*
X03862D01*
X03866Y03886D02*
Y03894D01*
X03874D01*
Y03886D01*
X03866D01*
X03962Y03882D02*
Y03898D01*
X03978D01*
Y03882D01*
X03962D01*
X03966Y03886D02*
Y03894D01*
X03974D01*
Y03886D01*
X03966D01*
X04062Y03882D02*
Y03898D01*
X04078D01*
Y03882D01*
X04062D01*
X04066Y03886D02*
Y03894D01*
X04074D01*
Y03886D01*
X04066D01*
X04162Y03882D02*
Y03898D01*
X04178D01*
Y03882D01*
X04162D01*
X04166Y03886D02*
Y03894D01*
X04174D01*
Y03886D01*
X04166D01*
X04262Y03882D02*
Y03898D01*
X04278D01*
Y03882D01*
X04262D01*
X04266Y03886D02*
Y03894D01*
X04274D01*
Y03886D01*
X04266D01*
X04362Y03882D02*
Y03898D01*
X04378D01*
Y03882D01*
X04362D01*
X04366Y03886D02*
Y03894D01*
X04374D01*
Y03886D01*
X04366D01*
X04462Y03882D02*
Y03898D01*
X04478D01*
Y03882D01*
X04462D01*
X04466Y03886D02*
Y03894D01*
X04474D01*
Y03886D01*
X04466D01*
X01887Y02792D02*
Y02808D01*
X01903D01*
Y02792D01*
X01887D01*
X01891Y02796D02*
Y02804D01*
X01899D01*
Y02796D01*
X01891D01*
X01887Y02692D02*
Y02708D01*
X01903D01*
Y02692D01*
X01887D01*
X01891Y02696D02*
Y02704D01*
X01899D01*
Y02696D01*
X01891D01*
X01887Y02592D02*
Y02608D01*
X01903D01*
Y02592D01*
X01887D01*
X01891Y02596D02*
Y02604D01*
X01899D01*
Y02596D01*
X01891D01*
X01387Y03092D02*
Y03108D01*
X01403D01*
Y03092D01*
X01387D01*
X01391Y03096D02*
Y03104D01*
X01399D01*
Y03096D01*
X01391D01*
X01487Y03092D02*
Y03108D01*
X01503D01*
Y03092D01*
X01487D01*
X01491Y03096D02*
Y03104D01*
X01499D01*
Y03096D01*
X01491D01*
X01587Y03092D02*
Y03108D01*
X01603D01*
Y03092D01*
X01587D01*
X01591Y03096D02*
Y03104D01*
X01599D01*
Y03096D01*
X01591D01*
X01362Y02392D02*
X01366Y024D01*
X01362Y02408D01*
X0137Y02404D01*
X01378Y02408D01*
X01374Y024D01*
X01378Y02392D01*
X0137Y02396D01*
X01362Y02392D01*
X01612D02*
X01616Y024D01*
X01612Y02408D01*
X0162Y02404D01*
X01628Y02408D01*
X01624Y024D01*
X01628Y02392D01*
X0162Y02396D01*
X01612Y02392D01*
X01362Y02192D02*
X01366Y022D01*
X01362Y02208D01*
X0137Y02204D01*
X01378Y02208D01*
X01374Y022D01*
X01378Y02192D01*
X0137Y02196D01*
X01362Y02192D01*
X01612D02*
X01616Y022D01*
X01612Y02208D01*
X0162Y02204D01*
X01628Y02208D01*
X01624Y022D01*
X01628Y02192D01*
X0162Y02196D01*
X01612Y02192D01*
X0113Y02122D02*
X01122Y02138D01*
X01138D01*
X0113Y02122D01*
Y02126D02*
X01126Y02134D01*
X01134D01*
X0113Y02126D01*
X04475Y02122D02*
X04467Y02138D01*
X04483D01*
X04475Y02122D01*
Y02126D02*
X04471Y02134D01*
X04479D01*
X04475Y02126D01*
Y04827D02*
X04467Y04843D01*
X04483D01*
X04475Y04827D01*
Y04831D02*
X04471Y04839D01*
X04479D01*
X04475Y04831D01*
X0113Y04827D02*
X01122Y04843D01*
X01138D01*
X0113Y04827D01*
Y04831D02*
X01126Y04839D01*
X01134D01*
X0113Y04831D01*
X0183Y04822D02*
X01834Y04826D01*
X01838D01*
X01834Y0483D01*
X01838Y04834D01*
X01834D01*
X0183Y04838D01*
X01826Y04834D01*
X01822D01*
X01826Y0483D01*
X01822Y04826D01*
X01826D01*
X0183Y04822D01*
Y04826D02*
X01832Y04828D01*
X01834D01*
X01832Y0483D01*
X01834Y04832D01*
X01832D01*
X0183Y04834D01*
X01828Y04832D01*
X01826D01*
X01828Y0483D01*
X01826Y04828D01*
X01828D01*
X0183Y04826D01*
X02595Y048055D02*
X02599Y048095D01*
X02603D01*
X02599Y048135D01*
X02603Y048175D01*
X02599D01*
X02595Y048215D01*
X02591Y048175D01*
X02587D01*
X02591Y048135D01*
X02587Y048095D01*
X02591D01*
X02595Y048055D01*
Y048095D02*
X02597Y048115D01*
X02599D01*
X02597Y048135D01*
X02599Y048155D01*
X02597D01*
X02595Y048175D01*
X02593Y048155D01*
X02591D01*
X02593Y048135D01*
X02591Y048115D01*
X02593D01*
X02595Y048095D01*
X017326Y045564D02*
X017366Y045604D01*
X017406D01*
X017366Y045644D01*
X017406Y045684D01*
X017366D01*
X017326Y045724D01*
X017286Y045684D01*
X017246D01*
X017286Y045644D01*
X017246Y045604D01*
X017286D01*
X017326Y045564D01*
Y045604D02*
X017346Y045624D01*
X017366D01*
X017346Y045644D01*
X017366Y045664D01*
X017346D01*
X017326Y045684D01*
X017306Y045664D01*
X017286D01*
X017306Y045644D01*
X017286Y045624D01*
X017306D01*
X017326Y045604D01*
X014066Y04377D02*
X014105Y04381D01*
X014145D01*
X014105Y04385D01*
X014145Y04389D01*
X014105D01*
X014066Y04393D01*
X014025Y04389D01*
X013986D01*
X014025Y04385D01*
X013986Y04381D01*
X014025D01*
X014066Y04377D01*
Y04381D02*
X014086Y04383D01*
X014105D01*
X014086Y04385D01*
X014105Y04387D01*
X014086D01*
X014066Y04389D01*
X014045Y04387D01*
X014025D01*
X014045Y04385D01*
X014025Y04383D01*
X014045D01*
X014066Y04381D01*
X01588Y04377D02*
X01592Y04381D01*
X01596D01*
X01592Y04385D01*
X01596Y04389D01*
X01592D01*
X01588Y04393D01*
X01584Y04389D01*
X0158D01*
X01584Y04385D01*
X0158Y04381D01*
X01584D01*
X01588Y04377D01*
Y04381D02*
X0159Y04383D01*
X01592D01*
X0159Y04385D01*
X01592Y04387D01*
X0159D01*
X01588Y04389D01*
X01586Y04387D01*
X01584D01*
X01586Y04385D01*
X01584Y04383D01*
X01586D01*
X01588Y04381D01*
X017695Y04377D02*
X017735Y04381D01*
X017775D01*
X017735Y04385D01*
X017775Y04389D01*
X017735D01*
X017695Y04393D01*
X017655Y04389D01*
X017615D01*
X017655Y04385D01*
X017615Y04381D01*
X017655D01*
X017695Y04377D01*
Y04381D02*
X017715Y04383D01*
X017735D01*
X017715Y04385D01*
X017735Y04387D01*
X017715D01*
X017695Y04389D01*
X017675Y04387D01*
X017655D01*
X017675Y04385D01*
X017655Y04383D01*
X017675D01*
X017695Y04381D01*
X01285Y03822D02*
X01289Y03826D01*
X01293D01*
X01289Y0383D01*
X01293Y03834D01*
X01289D01*
X01285Y03838D01*
X01281Y03834D01*
X01277D01*
X01281Y0383D01*
X01277Y03826D01*
X01281D01*
X01285Y03822D01*
Y03826D02*
X01287Y03828D01*
X01289D01*
X01287Y0383D01*
X01289Y03832D01*
X01287D01*
X01285Y03834D01*
X01283Y03832D01*
X01281D01*
X01283Y0383D01*
X01281Y03828D01*
X01283D01*
X01285Y03826D01*
X0225Y041259D02*
X02254Y041299D01*
X02258D01*
X02254Y041339D01*
X02258Y041379D01*
X02254D01*
X0225Y041419D01*
X02246Y041379D01*
X02242D01*
X02246Y041339D01*
X02242Y041299D01*
X02246D01*
X0225Y041259D01*
Y041299D02*
X02252Y041319D01*
X02254D01*
X02252Y041339D01*
X02254Y041359D01*
X02252D01*
X0225Y041379D01*
X02248Y041359D01*
X02246D01*
X02248Y041339D01*
X02246Y041319D01*
X02248D01*
X0225Y041299D01*
X0213Y04007D02*
X02134Y04011D01*
X02138D01*
X02134Y04015D01*
X02138Y04019D01*
X02134D01*
X0213Y04023D01*
X02126Y04019D01*
X02122D01*
X02126Y04015D01*
X02122Y04011D01*
X02126D01*
X0213Y04007D01*
Y04011D02*
X02132Y04013D01*
X02134D01*
X02132Y04015D01*
X02134Y04017D01*
X02132D01*
X0213Y04019D01*
X02128Y04017D01*
X02126D01*
X02128Y04015D01*
X02126Y04013D01*
X02128D01*
X0213Y04011D01*
X029373Y03452D02*
X029413Y03456D01*
X029453D01*
X029413Y0346D01*
X029453Y03464D01*
X029413D01*
X029373Y03468D01*
X029333Y03464D01*
X029293D01*
X029333Y0346D01*
X029293Y03456D01*
X029333D01*
X029373Y03452D01*
Y03456D02*
X029393Y03458D01*
X029413D01*
X029393Y0346D01*
X029413Y03462D01*
X029393D01*
X029373Y03464D01*
X029353Y03462D01*
X029333D01*
X029353Y0346D01*
X029333Y03458D01*
X029353D01*
X029373Y03456D01*
X028377Y03452D02*
X028417Y03456D01*
X028457D01*
X028417Y0346D01*
X028457Y03464D01*
X028417D01*
X028377Y03468D01*
X028337Y03464D01*
X028297D01*
X028337Y0346D01*
X028297Y03456D01*
X028337D01*
X028377Y03452D01*
Y03456D02*
X028397Y03458D01*
X028417D01*
X028397Y0346D01*
X028417Y03462D01*
X028397D01*
X028377Y03464D01*
X028357Y03462D01*
X028337D01*
X028357Y0346D01*
X028337Y03458D01*
X028357D01*
X028377Y03456D01*
X0273Y03452D02*
X02734Y03456D01*
X02738D01*
X02734Y0346D01*
X02738Y03464D01*
X02734D01*
X0273Y03468D01*
X02726Y03464D01*
X02722D01*
X02726Y0346D01*
X02722Y03456D01*
X02726D01*
X0273Y03452D01*
Y03456D02*
X02732Y03458D01*
X02734D01*
X02732Y0346D01*
X02734Y03462D01*
X02732D01*
X0273Y03464D01*
X02728Y03462D01*
X02726D01*
X02728Y0346D01*
X02726Y03458D01*
X02728D01*
X0273Y03456D01*
X02779Y036776D02*
X02783Y036816D01*
X02787D01*
X02783Y036856D01*
X02787Y036896D01*
X02783D01*
X02779Y036936D01*
X02775Y036896D01*
X02771D01*
X02775Y036856D01*
X02771Y036816D01*
X02775D01*
X02779Y036776D01*
Y036816D02*
X02781Y036836D01*
X02783D01*
X02781Y036856D01*
X02783Y036876D01*
X02781D01*
X02779Y036896D01*
X02777Y036876D01*
X02775D01*
X02777Y036856D01*
X02775Y036836D01*
X02777D01*
X02779Y036816D01*
X02834Y037703D02*
X02838Y037743D01*
X02842D01*
X02838Y037783D01*
X02842Y037823D01*
X02838D01*
X02834Y037863D01*
X0283Y037823D01*
X02826D01*
X0283Y037783D01*
X02826Y037743D01*
X0283D01*
X02834Y037703D01*
Y037743D02*
X02836Y037763D01*
X02838D01*
X02836Y037783D01*
X02838Y037803D01*
X02836D01*
X02834Y037823D01*
X02832Y037803D01*
X0283D01*
X02832Y037783D01*
X0283Y037763D01*
X02832D01*
X02834Y037743D01*
X02795Y047834D02*
X02799Y047874D01*
X02803D01*
X02799Y047914D01*
X02803Y047954D01*
X02799D01*
X02795Y047994D01*
X02791Y047954D01*
X02787D01*
X02791Y047914D01*
X02787Y047874D01*
X02791D01*
X02795Y047834D01*
Y047874D02*
X02797Y047894D01*
X02799D01*
X02797Y047914D01*
X02799Y047934D01*
X02797D01*
X02795Y047954D01*
X02793Y047934D01*
X02791D01*
X02793Y047914D01*
X02791Y047894D01*
X02793D01*
X02795Y047874D01*
X02891Y046707D02*
X02895Y046747D01*
X02899D01*
X02895Y046787D01*
X02899Y046827D01*
X02895D01*
X02891Y046867D01*
X02887Y046827D01*
X02883D01*
X02887Y046787D01*
X02883Y046747D01*
X02887D01*
X02891Y046707D01*
Y046747D02*
X02893Y046767D01*
X02895D01*
X02893Y046787D01*
X02895Y046807D01*
X02893D01*
X02891Y046827D01*
X02889Y046807D01*
X02887D01*
X02889Y046787D01*
X02887Y046767D01*
X02889D01*
X02891Y046747D01*
X04495Y04392D02*
X04499Y04396D01*
X04503D01*
X04499Y044D01*
X04503Y04404D01*
X04499D01*
X04495Y04408D01*
X04491Y04404D01*
X04487D01*
X04491Y044D01*
X04487Y04396D01*
X04491D01*
X04495Y04392D01*
Y04396D02*
X04497Y04398D01*
X04499D01*
X04497Y044D01*
X04499Y04402D01*
X04497D01*
X04495Y04404D01*
X04493Y04402D01*
X04491D01*
X04493Y044D01*
X04491Y04398D01*
X04493D01*
X04495Y04396D01*
Y03992D02*
X04499Y03996D01*
X04503D01*
X04499Y04D01*
X04503Y04004D01*
X04499D01*
X04495Y04008D01*
X04491Y04004D01*
X04487D01*
X04491Y04D01*
X04487Y03996D01*
X04491D01*
X04495Y03992D01*
Y03996D02*
X04497Y03998D01*
X04499D01*
X04497Y04D01*
X04499Y04002D01*
X04497D01*
X04495Y04004D01*
X04493Y04002D01*
X04491D01*
X04493Y04D01*
X04491Y03998D01*
X04493D01*
X04495Y03996D01*
X04395Y03792D02*
X04399Y03796D01*
X04403D01*
X04399Y038D01*
X04403Y03804D01*
X04399D01*
X04395Y03808D01*
X04391Y03804D01*
X04387D01*
X04391Y038D01*
X04387Y03796D01*
X04391D01*
X04395Y03792D01*
Y03796D02*
X04397Y03798D01*
X04399D01*
X04397Y038D01*
X04399Y03802D01*
X04397D01*
X04395Y03804D01*
X04393Y03802D01*
X04391D01*
X04393Y038D01*
X04391Y03798D01*
X04393D01*
X04395Y03796D01*
X04495Y03592D02*
X04499Y03596D01*
X04503D01*
X04499Y036D01*
X04503Y03604D01*
X04499D01*
X04495Y03608D01*
X04491Y03604D01*
X04487D01*
X04491Y036D01*
X04487Y03596D01*
X04491D01*
X04495Y03592D01*
Y03596D02*
X04497Y03598D01*
X04499D01*
X04497Y036D01*
X04499Y03602D01*
X04497D01*
X04495Y03604D01*
X04493Y03602D01*
X04491D01*
X04493Y036D01*
X04491Y03598D01*
X04493D01*
X04495Y03596D01*
X04395Y02992D02*
X04399Y02996D01*
X04403D01*
X04399Y03D01*
X04403Y03004D01*
X04399D01*
X04395Y03008D01*
X04391Y03004D01*
X04387D01*
X04391Y03D01*
X04387Y02996D01*
X04391D01*
X04395Y02992D01*
Y02996D02*
X04397Y02998D01*
X04399D01*
X04397Y03D01*
X04399Y03002D01*
X04397D01*
X04395Y03004D01*
X04393Y03002D01*
X04391D01*
X04393Y03D01*
X04391Y02998D01*
X04393D01*
X04395Y02996D01*
X04495Y02392D02*
X04499Y02396D01*
X04503D01*
X04499Y024D01*
X04503Y02404D01*
X04499D01*
X04495Y02408D01*
X04491Y02404D01*
X04487D01*
X04491Y024D01*
X04487Y02396D01*
X04491D01*
X04495Y02392D01*
Y02396D02*
X04497Y02398D01*
X04499D01*
X04497Y024D01*
X04499Y02402D01*
X04497D01*
X04495Y02404D01*
X04493Y02402D01*
X04491D01*
X04493Y024D01*
X04491Y02398D01*
X04493D01*
X04495Y02396D01*
X04395Y02192D02*
X04399Y02196D01*
X04403D01*
X04399Y022D01*
X04403Y02204D01*
X04399D01*
X04395Y02208D01*
X04391Y02204D01*
X04387D01*
X04391Y022D01*
X04387Y02196D01*
X04391D01*
X04395Y02192D01*
Y02196D02*
X04397Y02198D01*
X04399D01*
X04397Y022D01*
X04399Y02202D01*
X04397D01*
X04395Y02204D01*
X04393Y02202D01*
X04391D01*
X04393Y022D01*
X04391Y02198D01*
X04393D01*
X04395Y02196D01*
X04295Y04792D02*
X04299Y04796D01*
X04303D01*
X04299Y048D01*
X04303Y04804D01*
X04299D01*
X04295Y04808D01*
X04291Y04804D01*
X04287D01*
X04291Y048D01*
X04287Y04796D01*
X04291D01*
X04295Y04792D01*
Y04796D02*
X04297Y04798D01*
X04299D01*
X04297Y048D01*
X04299Y04802D01*
X04297D01*
X04295Y04804D01*
X04293Y04802D01*
X04291D01*
X04293Y048D01*
X04291Y04798D01*
X04293D01*
X04295Y04796D01*
X04195Y04592D02*
X04199Y04596D01*
X04203D01*
X04199Y046D01*
X04203Y04604D01*
X04199D01*
X04195Y04608D01*
X04191Y04604D01*
X04187D01*
X04191Y046D01*
X04187Y04596D01*
X04191D01*
X04195Y04592D01*
Y04596D02*
X04197Y04598D01*
X04199D01*
X04197Y046D01*
X04199Y04602D01*
X04197D01*
X04195Y04604D01*
X04193Y04602D01*
X04191D01*
X04193Y046D01*
X04191Y04598D01*
X04193D01*
X04195Y04596D01*
X04295Y04392D02*
X04299Y04396D01*
X04303D01*
X04299Y044D01*
X04303Y04404D01*
X04299D01*
X04295Y04408D01*
X04291Y04404D01*
X04287D01*
X04291Y044D01*
X04287Y04396D01*
X04291D01*
X04295Y04392D01*
Y04396D02*
X04297Y04398D01*
X04299D01*
X04297Y044D01*
X04299Y04402D01*
X04297D01*
X04295Y04404D01*
X04293Y04402D01*
X04291D01*
X04293Y044D01*
X04291Y04398D01*
X04293D01*
X04295Y04396D01*
Y03992D02*
X04299Y03996D01*
X04303D01*
X04299Y04D01*
X04303Y04004D01*
X04299D01*
X04295Y04008D01*
X04291Y04004D01*
X04287D01*
X04291Y04D01*
X04287Y03996D01*
X04291D01*
X04295Y03992D01*
Y03996D02*
X04297Y03998D01*
X04299D01*
X04297Y04D01*
X04299Y04002D01*
X04297D01*
X04295Y04004D01*
X04293Y04002D01*
X04291D01*
X04293Y04D01*
X04291Y03998D01*
X04293D01*
X04295Y03996D01*
X04195Y03792D02*
X04199Y03796D01*
X04203D01*
X04199Y038D01*
X04203Y03804D01*
X04199D01*
X04195Y03808D01*
X04191Y03804D01*
X04187D01*
X04191Y038D01*
X04187Y03796D01*
X04191D01*
X04195Y03792D01*
Y03796D02*
X04197Y03798D01*
X04199D01*
X04197Y038D01*
X04199Y03802D01*
X04197D01*
X04195Y03804D01*
X04193Y03802D01*
X04191D01*
X04193Y038D01*
X04191Y03798D01*
X04193D01*
X04195Y03796D01*
Y03392D02*
X04199Y03396D01*
X04203D01*
X04199Y034D01*
X04203Y03404D01*
X04199D01*
X04195Y03408D01*
X04191Y03404D01*
X04187D01*
X04191Y034D01*
X04187Y03396D01*
X04191D01*
X04195Y03392D01*
Y03396D02*
X04197Y03398D01*
X04199D01*
X04197Y034D01*
X04199Y03402D01*
X04197D01*
X04195Y03404D01*
X04193Y03402D01*
X04191D01*
X04193Y034D01*
X04191Y03398D01*
X04193D01*
X04195Y03396D01*
Y02992D02*
X04199Y02996D01*
X04203D01*
X04199Y03D01*
X04203Y03004D01*
X04199D01*
X04195Y03008D01*
X04191Y03004D01*
X04187D01*
X04191Y03D01*
X04187Y02996D01*
X04191D01*
X04195Y02992D01*
Y02996D02*
X04197Y02998D01*
X04199D01*
X04197Y03D01*
X04199Y03002D01*
X04197D01*
X04195Y03004D01*
X04193Y03002D01*
X04191D01*
X04193Y03D01*
X04191Y02998D01*
X04193D01*
X04195Y02996D01*
X04295Y02392D02*
X04299Y02396D01*
X04303D01*
X04299Y024D01*
X04303Y02404D01*
X04299D01*
X04295Y02408D01*
X04291Y02404D01*
X04287D01*
X04291Y024D01*
X04287Y02396D01*
X04291D01*
X04295Y02392D01*
Y02396D02*
X04297Y02398D01*
X04299D01*
X04297Y024D01*
X04299Y02402D01*
X04297D01*
X04295Y02404D01*
X04293Y02402D01*
X04291D01*
X04293Y024D01*
X04291Y02398D01*
X04293D01*
X04295Y02396D01*
X04195Y02192D02*
X04199Y02196D01*
X04203D01*
X04199Y022D01*
X04203Y02204D01*
X04199D01*
X04195Y02208D01*
X04191Y02204D01*
X04187D01*
X04191Y022D01*
X04187Y02196D01*
X04191D01*
X04195Y02192D01*
Y02196D02*
X04197Y02198D01*
X04199D01*
X04197Y022D01*
X04199Y02202D01*
X04197D01*
X04195Y02204D01*
X04193Y02202D01*
X04191D01*
X04193Y022D01*
X04191Y02198D01*
X04193D01*
X04195Y02196D01*
X03995Y04592D02*
X03999Y04596D01*
X04003D01*
X03999Y046D01*
X04003Y04604D01*
X03999D01*
X03995Y04608D01*
X03991Y04604D01*
X03987D01*
X03991Y046D01*
X03987Y04596D01*
X03991D01*
X03995Y04592D01*
Y04596D02*
X03997Y04598D01*
X03999D01*
X03997Y046D01*
X03999Y04602D01*
X03997D01*
X03995Y04604D01*
X03993Y04602D01*
X03991D01*
X03993Y046D01*
X03991Y04598D01*
X03993D01*
X03995Y04596D01*
X04095Y04392D02*
X04099Y04396D01*
X04103D01*
X04099Y044D01*
X04103Y04404D01*
X04099D01*
X04095Y04408D01*
X04091Y04404D01*
X04087D01*
X04091Y044D01*
X04087Y04396D01*
X04091D01*
X04095Y04392D01*
Y04396D02*
X04097Y04398D01*
X04099D01*
X04097Y044D01*
X04099Y04402D01*
X04097D01*
X04095Y04404D01*
X04093Y04402D01*
X04091D01*
X04093Y044D01*
X04091Y04398D01*
X04093D01*
X04095Y04396D01*
X03995Y03392D02*
X03999Y03396D01*
X04003D01*
X03999Y034D01*
X04003Y03404D01*
X03999D01*
X03995Y03408D01*
X03991Y03404D01*
X03987D01*
X03991Y034D01*
X03987Y03396D01*
X03991D01*
X03995Y03392D01*
Y03396D02*
X03997Y03398D01*
X03999D01*
X03997Y034D01*
X03999Y03402D01*
X03997D01*
X03995Y03404D01*
X03993Y03402D01*
X03991D01*
X03993Y034D01*
X03991Y03398D01*
X03993D01*
X03995Y03396D01*
Y02992D02*
X03999Y02996D01*
X04003D01*
X03999Y03D01*
X04003Y03004D01*
X03999D01*
X03995Y03008D01*
X03991Y03004D01*
X03987D01*
X03991Y03D01*
X03987Y02996D01*
X03991D01*
X03995Y02992D01*
Y02996D02*
X03997Y02998D01*
X03999D01*
X03997Y03D01*
X03999Y03002D01*
X03997D01*
X03995Y03004D01*
X03993Y03002D01*
X03991D01*
X03993Y03D01*
X03991Y02998D01*
X03993D01*
X03995Y02996D01*
X04095Y02392D02*
X04099Y02396D01*
X04103D01*
X04099Y024D01*
X04103Y02404D01*
X04099D01*
X04095Y02408D01*
X04091Y02404D01*
X04087D01*
X04091Y024D01*
X04087Y02396D01*
X04091D01*
X04095Y02392D01*
Y02396D02*
X04097Y02398D01*
X04099D01*
X04097Y024D01*
X04099Y02402D01*
X04097D01*
X04095Y02404D01*
X04093Y02402D01*
X04091D01*
X04093Y024D01*
X04091Y02398D01*
X04093D01*
X04095Y02396D01*
X03995Y02192D02*
X03999Y02196D01*
X04003D01*
X03999Y022D01*
X04003Y02204D01*
X03999D01*
X03995Y02208D01*
X03991Y02204D01*
X03987D01*
X03991Y022D01*
X03987Y02196D01*
X03991D01*
X03995Y02192D01*
Y02196D02*
X03997Y02198D01*
X03999D01*
X03997Y022D01*
X03999Y02202D01*
X03997D01*
X03995Y02204D01*
X03993Y02202D01*
X03991D01*
X03993Y022D01*
X03991Y02198D01*
X03993D01*
X03995Y02196D01*
X03895Y04792D02*
X03899Y04796D01*
X03903D01*
X03899Y048D01*
X03903Y04804D01*
X03899D01*
X03895Y04808D01*
X03891Y04804D01*
X03887D01*
X03891Y048D01*
X03887Y04796D01*
X03891D01*
X03895Y04792D01*
Y04796D02*
X03897Y04798D01*
X03899D01*
X03897Y048D01*
X03899Y04802D01*
X03897D01*
X03895Y04804D01*
X03893Y04802D01*
X03891D01*
X03893Y048D01*
X03891Y04798D01*
X03893D01*
X03895Y04796D01*
Y04392D02*
X03899Y04396D01*
X03903D01*
X03899Y044D01*
X03903Y04404D01*
X03899D01*
X03895Y04408D01*
X03891Y04404D01*
X03887D01*
X03891Y044D01*
X03887Y04396D01*
X03891D01*
X03895Y04392D01*
Y04396D02*
X03897Y04398D01*
X03899D01*
X03897Y044D01*
X03899Y04402D01*
X03897D01*
X03895Y04404D01*
X03893Y04402D01*
X03891D01*
X03893Y044D01*
X03891Y04398D01*
X03893D01*
X03895Y04396D01*
Y03592D02*
X03899Y03596D01*
X03903D01*
X03899Y036D01*
X03903Y03604D01*
X03899D01*
X03895Y03608D01*
X03891Y03604D01*
X03887D01*
X03891Y036D01*
X03887Y03596D01*
X03891D01*
X03895Y03592D01*
Y03596D02*
X03897Y03598D01*
X03899D01*
X03897Y036D01*
X03899Y03602D01*
X03897D01*
X03895Y03604D01*
X03893Y03602D01*
X03891D01*
X03893Y036D01*
X03891Y03598D01*
X03893D01*
X03895Y03596D01*
X03795Y02992D02*
X03799Y02996D01*
X03803D01*
X03799Y03D01*
X03803Y03004D01*
X03799D01*
X03795Y03008D01*
X03791Y03004D01*
X03787D01*
X03791Y03D01*
X03787Y02996D01*
X03791D01*
X03795Y02992D01*
Y02996D02*
X03797Y02998D01*
X03799D01*
X03797Y03D01*
X03799Y03002D01*
X03797D01*
X03795Y03004D01*
X03793Y03002D01*
X03791D01*
X03793Y03D01*
X03791Y02998D01*
X03793D01*
X03795Y02996D01*
X03895Y02392D02*
X03899Y02396D01*
X03903D01*
X03899Y024D01*
X03903Y02404D01*
X03899D01*
X03895Y02408D01*
X03891Y02404D01*
X03887D01*
X03891Y024D01*
X03887Y02396D01*
X03891D01*
X03895Y02392D01*
Y02396D02*
X03897Y02398D01*
X03899D01*
X03897Y024D01*
X03899Y02402D01*
X03897D01*
X03895Y02404D01*
X03893Y02402D01*
X03891D01*
X03893Y024D01*
X03891Y02398D01*
X03893D01*
X03895Y02396D01*
X03795Y02192D02*
X03799Y02196D01*
X03803D01*
X03799Y022D01*
X03803Y02204D01*
X03799D01*
X03795Y02208D01*
X03791Y02204D01*
X03787D01*
X03791Y022D01*
X03787Y02196D01*
X03791D01*
X03795Y02192D01*
Y02196D02*
X03797Y02198D01*
X03799D01*
X03797Y022D01*
X03799Y02202D01*
X03797D01*
X03795Y02204D01*
X03793Y02202D01*
X03791D01*
X03793Y022D01*
X03791Y02198D01*
X03793D01*
X03795Y02196D01*
X03695Y04792D02*
X03699Y04796D01*
X03703D01*
X03699Y048D01*
X03703Y04804D01*
X03699D01*
X03695Y04808D01*
X03691Y04804D01*
X03687D01*
X03691Y048D01*
X03687Y04796D01*
X03691D01*
X03695Y04792D01*
Y04796D02*
X03697Y04798D01*
X03699D01*
X03697Y048D01*
X03699Y04802D01*
X03697D01*
X03695Y04804D01*
X03693Y04802D01*
X03691D01*
X03693Y048D01*
X03691Y04798D01*
X03693D01*
X03695Y04796D01*
Y04392D02*
X03699Y04396D01*
X03703D01*
X03699Y044D01*
X03703Y04404D01*
X03699D01*
X03695Y04408D01*
X03691Y04404D01*
X03687D01*
X03691Y044D01*
X03687Y04396D01*
X03691D01*
X03695Y04392D01*
Y04396D02*
X03697Y04398D01*
X03699D01*
X03697Y044D01*
X03699Y04402D01*
X03697D01*
X03695Y04404D01*
X03693Y04402D01*
X03691D01*
X03693Y044D01*
X03691Y04398D01*
X03693D01*
X03695Y04396D01*
Y03992D02*
X03699Y03996D01*
X03703D01*
X03699Y04D01*
X03703Y04004D01*
X03699D01*
X03695Y04008D01*
X03691Y04004D01*
X03687D01*
X03691Y04D01*
X03687Y03996D01*
X03691D01*
X03695Y03992D01*
Y03996D02*
X03697Y03998D01*
X03699D01*
X03697Y04D01*
X03699Y04002D01*
X03697D01*
X03695Y04004D01*
X03693Y04002D01*
X03691D01*
X03693Y04D01*
X03691Y03998D01*
X03693D01*
X03695Y03996D01*
Y03592D02*
X03699Y03596D01*
X03703D01*
X03699Y036D01*
X03703Y03604D01*
X03699D01*
X03695Y03608D01*
X03691Y03604D01*
X03687D01*
X03691Y036D01*
X03687Y03596D01*
X03691D01*
X03695Y03592D01*
Y03596D02*
X03697Y03598D01*
X03699D01*
X03697Y036D01*
X03699Y03602D01*
X03697D01*
X03695Y03604D01*
X03693Y03602D01*
X03691D01*
X03693Y036D01*
X03691Y03598D01*
X03693D01*
X03695Y03596D01*
Y02392D02*
X03699Y02396D01*
X03703D01*
X03699Y024D01*
X03703Y02404D01*
X03699D01*
X03695Y02408D01*
X03691Y02404D01*
X03687D01*
X03691Y024D01*
X03687Y02396D01*
X03691D01*
X03695Y02392D01*
Y02396D02*
X03697Y02398D01*
X03699D01*
X03697Y024D01*
X03699Y02402D01*
X03697D01*
X03695Y02404D01*
X03693Y02402D01*
X03691D01*
X03693Y024D01*
X03691Y02398D01*
X03693D01*
X03695Y02396D01*
X03595Y02192D02*
X03599Y02196D01*
X03603D01*
X03599Y022D01*
X03603Y02204D01*
X03599D01*
X03595Y02208D01*
X03591Y02204D01*
X03587D01*
X03591Y022D01*
X03587Y02196D01*
X03591D01*
X03595Y02192D01*
Y02196D02*
X03597Y02198D01*
X03599D01*
X03597Y022D01*
X03599Y02202D01*
X03597D01*
X03595Y02204D01*
X03593Y02202D01*
X03591D01*
X03593Y022D01*
X03591Y02198D01*
X03593D01*
X03595Y02196D01*
X03495Y04392D02*
X03499Y04396D01*
X03503D01*
X03499Y044D01*
X03503Y04404D01*
X03499D01*
X03495Y04408D01*
X03491Y04404D01*
X03487D01*
X03491Y044D01*
X03487Y04396D01*
X03491D01*
X03495Y04392D01*
Y04396D02*
X03497Y04398D01*
X03499D01*
X03497Y044D01*
X03499Y04402D01*
X03497D01*
X03495Y04404D01*
X03493Y04402D01*
X03491D01*
X03493Y044D01*
X03491Y04398D01*
X03493D01*
X03495Y04396D01*
Y03192D02*
X03499Y03196D01*
X03503D01*
X03499Y032D01*
X03503Y03204D01*
X03499D01*
X03495Y03208D01*
X03491Y03204D01*
X03487D01*
X03491Y032D01*
X03487Y03196D01*
X03491D01*
X03495Y03192D01*
Y03196D02*
X03497Y03198D01*
X03499D01*
X03497Y032D01*
X03499Y03202D01*
X03497D01*
X03495Y03204D01*
X03493Y03202D01*
X03491D01*
X03493Y032D01*
X03491Y03198D01*
X03493D01*
X03495Y03196D01*
X03395Y02992D02*
X03399Y02996D01*
X03403D01*
X03399Y03D01*
X03403Y03004D01*
X03399D01*
X03395Y03008D01*
X03391Y03004D01*
X03387D01*
X03391Y03D01*
X03387Y02996D01*
X03391D01*
X03395Y02992D01*
Y02996D02*
X03397Y02998D01*
X03399D01*
X03397Y03D01*
X03399Y03002D01*
X03397D01*
X03395Y03004D01*
X03393Y03002D01*
X03391D01*
X03393Y03D01*
X03391Y02998D01*
X03393D01*
X03395Y02996D01*
X03495Y02392D02*
X03499Y02396D01*
X03503D01*
X03499Y024D01*
X03503Y02404D01*
X03499D01*
X03495Y02408D01*
X03491Y02404D01*
X03487D01*
X03491Y024D01*
X03487Y02396D01*
X03491D01*
X03495Y02392D01*
Y02396D02*
X03497Y02398D01*
X03499D01*
X03497Y024D01*
X03499Y02402D01*
X03497D01*
X03495Y02404D01*
X03493Y02402D01*
X03491D01*
X03493Y024D01*
X03491Y02398D01*
X03493D01*
X03495Y02396D01*
X03395Y02192D02*
X03399Y02196D01*
X03403D01*
X03399Y022D01*
X03403Y02204D01*
X03399D01*
X03395Y02208D01*
X03391Y02204D01*
X03387D01*
X03391Y022D01*
X03387Y02196D01*
X03391D01*
X03395Y02192D01*
Y02196D02*
X03397Y02198D01*
X03399D01*
X03397Y022D01*
X03399Y02202D01*
X03397D01*
X03395Y02204D01*
X03393Y02202D01*
X03391D01*
X03393Y022D01*
X03391Y02198D01*
X03393D01*
X03395Y02196D01*
X03195Y03792D02*
X03199Y03796D01*
X03203D01*
X03199Y038D01*
X03203Y03804D01*
X03199D01*
X03195Y03808D01*
X03191Y03804D01*
X03187D01*
X03191Y038D01*
X03187Y03796D01*
X03191D01*
X03195Y03792D01*
Y03796D02*
X03197Y03798D01*
X03199D01*
X03197Y038D01*
X03199Y03802D01*
X03197D01*
X03195Y03804D01*
X03193Y03802D01*
X03191D01*
X03193Y038D01*
X03191Y03798D01*
X03193D01*
X03195Y03796D01*
Y03392D02*
X03199Y03396D01*
X03203D01*
X03199Y034D01*
X03203Y03404D01*
X03199D01*
X03195Y03408D01*
X03191Y03404D01*
X03187D01*
X03191Y034D01*
X03187Y03396D01*
X03191D01*
X03195Y03392D01*
Y03396D02*
X03197Y03398D01*
X03199D01*
X03197Y034D01*
X03199Y03402D01*
X03197D01*
X03195Y03404D01*
X03193Y03402D01*
X03191D01*
X03193Y034D01*
X03191Y03398D01*
X03193D01*
X03195Y03396D01*
X03295Y03192D02*
X03299Y03196D01*
X03303D01*
X03299Y032D01*
X03303Y03204D01*
X03299D01*
X03295Y03208D01*
X03291Y03204D01*
X03287D01*
X03291Y032D01*
X03287Y03196D01*
X03291D01*
X03295Y03192D01*
Y03196D02*
X03297Y03198D01*
X03299D01*
X03297Y032D01*
X03299Y03202D01*
X03297D01*
X03295Y03204D01*
X03293Y03202D01*
X03291D01*
X03293Y032D01*
X03291Y03198D01*
X03293D01*
X03295Y03196D01*
X03195Y02992D02*
X03199Y02996D01*
X03203D01*
X03199Y03D01*
X03203Y03004D01*
X03199D01*
X03195Y03008D01*
X03191Y03004D01*
X03187D01*
X03191Y03D01*
X03187Y02996D01*
X03191D01*
X03195Y02992D01*
Y02996D02*
X03197Y02998D01*
X03199D01*
X03197Y03D01*
X03199Y03002D01*
X03197D01*
X03195Y03004D01*
X03193Y03002D01*
X03191D01*
X03193Y03D01*
X03191Y02998D01*
X03193D01*
X03195Y02996D01*
X03295Y02792D02*
X03299Y02796D01*
X03303D01*
X03299Y028D01*
X03303Y02804D01*
X03299D01*
X03295Y02808D01*
X03291Y02804D01*
X03287D01*
X03291Y028D01*
X03287Y02796D01*
X03291D01*
X03295Y02792D01*
Y02796D02*
X03297Y02798D01*
X03299D01*
X03297Y028D01*
X03299Y02802D01*
X03297D01*
X03295Y02804D01*
X03293Y02802D01*
X03291D01*
X03293Y028D01*
X03291Y02798D01*
X03293D01*
X03295Y02796D01*
X03195Y02592D02*
X03199Y02596D01*
X03203D01*
X03199Y026D01*
X03203Y02604D01*
X03199D01*
X03195Y02608D01*
X03191Y02604D01*
X03187D01*
X03191Y026D01*
X03187Y02596D01*
X03191D01*
X03195Y02592D01*
Y02596D02*
X03197Y02598D01*
X03199D01*
X03197Y026D01*
X03199Y02602D01*
X03197D01*
X03195Y02604D01*
X03193Y02602D01*
X03191D01*
X03193Y026D01*
X03191Y02598D01*
X03193D01*
X03195Y02596D01*
X03295Y02392D02*
X03299Y02396D01*
X03303D01*
X03299Y024D01*
X03303Y02404D01*
X03299D01*
X03295Y02408D01*
X03291Y02404D01*
X03287D01*
X03291Y024D01*
X03287Y02396D01*
X03291D01*
X03295Y02392D01*
Y02396D02*
X03297Y02398D01*
X03299D01*
X03297Y024D01*
X03299Y02402D01*
X03297D01*
X03295Y02404D01*
X03293Y02402D01*
X03291D01*
X03293Y024D01*
X03291Y02398D01*
X03293D01*
X03295Y02396D01*
X03195Y02192D02*
X03199Y02196D01*
X03203D01*
X03199Y022D01*
X03203Y02204D01*
X03199D01*
X03195Y02208D01*
X03191Y02204D01*
X03187D01*
X03191Y022D01*
X03187Y02196D01*
X03191D01*
X03195Y02192D01*
Y02196D02*
X03197Y02198D01*
X03199D01*
X03197Y022D01*
X03199Y02202D01*
X03197D01*
X03195Y02204D01*
X03193Y02202D01*
X03191D01*
X03193Y022D01*
X03191Y02198D01*
X03193D01*
X03195Y02196D01*
X02995Y04592D02*
X02999Y04596D01*
X03003D01*
X02999Y046D01*
X03003Y04604D01*
X02999D01*
X02995Y04608D01*
X02991Y04604D01*
X02987D01*
X02991Y046D01*
X02987Y04596D01*
X02991D01*
X02995Y04592D01*
Y04596D02*
X02997Y04598D01*
X02999D01*
X02997Y046D01*
X02999Y04602D01*
X02997D01*
X02995Y04604D01*
X02993Y04602D01*
X02991D01*
X02993Y046D01*
X02991Y04598D01*
X02993D01*
X02995Y04596D01*
Y04192D02*
X02999Y04196D01*
X03003D01*
X02999Y042D01*
X03003Y04204D01*
X02999D01*
X02995Y04208D01*
X02991Y04204D01*
X02987D01*
X02991Y042D01*
X02987Y04196D01*
X02991D01*
X02995Y04192D01*
Y04196D02*
X02997Y04198D01*
X02999D01*
X02997Y042D01*
X02999Y04202D01*
X02997D01*
X02995Y04204D01*
X02993Y04202D01*
X02991D01*
X02993Y042D01*
X02991Y04198D01*
X02993D01*
X02995Y04196D01*
X03095Y03592D02*
X03099Y03596D01*
X03103D01*
X03099Y036D01*
X03103Y03604D01*
X03099D01*
X03095Y03608D01*
X03091Y03604D01*
X03087D01*
X03091Y036D01*
X03087Y03596D01*
X03091D01*
X03095Y03592D01*
Y03596D02*
X03097Y03598D01*
X03099D01*
X03097Y036D01*
X03099Y03602D01*
X03097D01*
X03095Y03604D01*
X03093Y03602D01*
X03091D01*
X03093Y036D01*
X03091Y03598D01*
X03093D01*
X03095Y03596D01*
Y03192D02*
X03099Y03196D01*
X03103D01*
X03099Y032D01*
X03103Y03204D01*
X03099D01*
X03095Y03208D01*
X03091Y03204D01*
X03087D01*
X03091Y032D01*
X03087Y03196D01*
X03091D01*
X03095Y03192D01*
Y03196D02*
X03097Y03198D01*
X03099D01*
X03097Y032D01*
X03099Y03202D01*
X03097D01*
X03095Y03204D01*
X03093Y03202D01*
X03091D01*
X03093Y032D01*
X03091Y03198D01*
X03093D01*
X03095Y03196D01*
X02995Y02192D02*
X02999Y02196D01*
X03003D01*
X02999Y022D01*
X03003Y02204D01*
X02999D01*
X02995Y02208D01*
X02991Y02204D01*
X02987D01*
X02991Y022D01*
X02987Y02196D01*
X02991D01*
X02995Y02192D01*
Y02196D02*
X02997Y02198D01*
X02999D01*
X02997Y022D01*
X02999Y02202D01*
X02997D01*
X02995Y02204D01*
X02993Y02202D01*
X02991D01*
X02993Y022D01*
X02991Y02198D01*
X02993D01*
X02995Y02196D01*
X02895Y04392D02*
X02899Y04396D01*
X02903D01*
X02899Y044D01*
X02903Y04404D01*
X02899D01*
X02895Y04408D01*
X02891Y04404D01*
X02887D01*
X02891Y044D01*
X02887Y04396D01*
X02891D01*
X02895Y04392D01*
Y04396D02*
X02897Y04398D01*
X02899D01*
X02897Y044D01*
X02899Y04402D01*
X02897D01*
X02895Y04404D01*
X02893Y04402D01*
X02891D01*
X02893Y044D01*
X02891Y04398D01*
X02893D01*
X02895Y04396D01*
Y03192D02*
X02899Y03196D01*
X02903D01*
X02899Y032D01*
X02903Y03204D01*
X02899D01*
X02895Y03208D01*
X02891Y03204D01*
X02887D01*
X02891Y032D01*
X02887Y03196D01*
X02891D01*
X02895Y03192D01*
Y03196D02*
X02897Y03198D01*
X02899D01*
X02897Y032D01*
X02899Y03202D01*
X02897D01*
X02895Y03204D01*
X02893Y03202D01*
X02891D01*
X02893Y032D01*
X02891Y03198D01*
X02893D01*
X02895Y03196D01*
X02795Y02192D02*
X02799Y02196D01*
X02803D01*
X02799Y022D01*
X02803Y02204D01*
X02799D01*
X02795Y02208D01*
X02791Y02204D01*
X02787D01*
X02791Y022D01*
X02787Y02196D01*
X02791D01*
X02795Y02192D01*
Y02196D02*
X02797Y02198D01*
X02799D01*
X02797Y022D01*
X02799Y02202D01*
X02797D01*
X02795Y02204D01*
X02793Y02202D01*
X02791D01*
X02793Y022D01*
X02791Y02198D01*
X02793D01*
X02795Y02196D01*
X02695Y04392D02*
X02699Y04396D01*
X02703D01*
X02699Y044D01*
X02703Y04404D01*
X02699D01*
X02695Y04408D01*
X02691Y04404D01*
X02687D01*
X02691Y044D01*
X02687Y04396D01*
X02691D01*
X02695Y04392D01*
Y04396D02*
X02697Y04398D01*
X02699D01*
X02697Y044D01*
X02699Y04402D01*
X02697D01*
X02695Y04404D01*
X02693Y04402D01*
X02691D01*
X02693Y044D01*
X02691Y04398D01*
X02693D01*
X02695Y04396D01*
X02595Y04192D02*
X02599Y04196D01*
X02603D01*
X02599Y042D01*
X02603Y04204D01*
X02599D01*
X02595Y04208D01*
X02591Y04204D01*
X02587D01*
X02591Y042D01*
X02587Y04196D01*
X02591D01*
X02595Y04192D01*
Y04196D02*
X02597Y04198D01*
X02599D01*
X02597Y042D01*
X02599Y04202D01*
X02597D01*
X02595Y04204D01*
X02593Y04202D01*
X02591D01*
X02593Y042D01*
X02591Y04198D01*
X02593D01*
X02595Y04196D01*
X02695Y03592D02*
X02699Y03596D01*
X02703D01*
X02699Y036D01*
X02703Y03604D01*
X02699D01*
X02695Y03608D01*
X02691Y03604D01*
X02687D01*
X02691Y036D01*
X02687Y03596D01*
X02691D01*
X02695Y03592D01*
Y03596D02*
X02697Y03598D01*
X02699D01*
X02697Y036D01*
X02699Y03602D01*
X02697D01*
X02695Y03604D01*
X02693Y03602D01*
X02691D01*
X02693Y036D01*
X02691Y03598D01*
X02693D01*
X02695Y03596D01*
X02595Y03392D02*
X02599Y03396D01*
X02603D01*
X02599Y034D01*
X02603Y03404D01*
X02599D01*
X02595Y03408D01*
X02591Y03404D01*
X02587D01*
X02591Y034D01*
X02587Y03396D01*
X02591D01*
X02595Y03392D01*
Y03396D02*
X02597Y03398D01*
X02599D01*
X02597Y034D01*
X02599Y03402D01*
X02597D01*
X02595Y03404D01*
X02593Y03402D01*
X02591D01*
X02593Y034D01*
X02591Y03398D01*
X02593D01*
X02595Y03396D01*
X02695Y03192D02*
X02699Y03196D01*
X02703D01*
X02699Y032D01*
X02703Y03204D01*
X02699D01*
X02695Y03208D01*
X02691Y03204D01*
X02687D01*
X02691Y032D01*
X02687Y03196D01*
X02691D01*
X02695Y03192D01*
Y03196D02*
X02697Y03198D01*
X02699D01*
X02697Y032D01*
X02699Y03202D01*
X02697D01*
X02695Y03204D01*
X02693Y03202D01*
X02691D01*
X02693Y032D01*
X02691Y03198D01*
X02693D01*
X02695Y03196D01*
X02595Y02992D02*
X02599Y02996D01*
X02603D01*
X02599Y03D01*
X02603Y03004D01*
X02599D01*
X02595Y03008D01*
X02591Y03004D01*
X02587D01*
X02591Y03D01*
X02587Y02996D01*
X02591D01*
X02595Y02992D01*
Y02996D02*
X02597Y02998D01*
X02599D01*
X02597Y03D01*
X02599Y03002D01*
X02597D01*
X02595Y03004D01*
X02593Y03002D01*
X02591D01*
X02593Y03D01*
X02591Y02998D01*
X02593D01*
X02595Y02996D01*
Y02192D02*
X02599Y02196D01*
X02603D01*
X02599Y022D01*
X02603Y02204D01*
X02599D01*
X02595Y02208D01*
X02591Y02204D01*
X02587D01*
X02591Y022D01*
X02587Y02196D01*
X02591D01*
X02595Y02192D01*
Y02196D02*
X02597Y02198D01*
X02599D01*
X02597Y022D01*
X02599Y02202D01*
X02597D01*
X02595Y02204D01*
X02593Y02202D01*
X02591D01*
X02593Y022D01*
X02591Y02198D01*
X02593D01*
X02595Y02196D01*
X02395Y04592D02*
X02399Y04596D01*
X02403D01*
X02399Y046D01*
X02403Y04604D01*
X02399D01*
X02395Y04608D01*
X02391Y04604D01*
X02387D01*
X02391Y046D01*
X02387Y04596D01*
X02391D01*
X02395Y04592D01*
Y04596D02*
X02397Y04598D01*
X02399D01*
X02397Y046D01*
X02399Y04602D01*
X02397D01*
X02395Y04604D01*
X02393Y04602D01*
X02391D01*
X02393Y046D01*
X02391Y04598D01*
X02393D01*
X02395Y04596D01*
Y03392D02*
X02399Y03396D01*
X02403D01*
X02399Y034D01*
X02403Y03404D01*
X02399D01*
X02395Y03408D01*
X02391Y03404D01*
X02387D01*
X02391Y034D01*
X02387Y03396D01*
X02391D01*
X02395Y03392D01*
Y03396D02*
X02397Y03398D01*
X02399D01*
X02397Y034D01*
X02399Y03402D01*
X02397D01*
X02395Y03404D01*
X02393Y03402D01*
X02391D01*
X02393Y034D01*
X02391Y03398D01*
X02393D01*
X02395Y03396D01*
X02495Y03192D02*
X02499Y03196D01*
X02503D01*
X02499Y032D01*
X02503Y03204D01*
X02499D01*
X02495Y03208D01*
X02491Y03204D01*
X02487D01*
X02491Y032D01*
X02487Y03196D01*
X02491D01*
X02495Y03192D01*
Y03196D02*
X02497Y03198D01*
X02499D01*
X02497Y032D01*
X02499Y03202D01*
X02497D01*
X02495Y03204D01*
X02493Y03202D01*
X02491D01*
X02493Y032D01*
X02491Y03198D01*
X02493D01*
X02495Y03196D01*
X02395Y02992D02*
X02399Y02996D01*
X02403D01*
X02399Y03D01*
X02403Y03004D01*
X02399D01*
X02395Y03008D01*
X02391Y03004D01*
X02387D01*
X02391Y03D01*
X02387Y02996D01*
X02391D01*
X02395Y02992D01*
Y02996D02*
X02397Y02998D01*
X02399D01*
X02397Y03D01*
X02399Y03002D01*
X02397D01*
X02395Y03004D01*
X02393Y03002D01*
X02391D01*
X02393Y03D01*
X02391Y02998D01*
X02393D01*
X02395Y02996D01*
X02495Y02792D02*
X02499Y02796D01*
X02503D01*
X02499Y028D01*
X02503Y02804D01*
X02499D01*
X02495Y02808D01*
X02491Y02804D01*
X02487D01*
X02491Y028D01*
X02487Y02796D01*
X02491D01*
X02495Y02792D01*
Y02796D02*
X02497Y02798D01*
X02499D01*
X02497Y028D01*
X02499Y02802D01*
X02497D01*
X02495Y02804D01*
X02493Y02802D01*
X02491D01*
X02493Y028D01*
X02491Y02798D01*
X02493D01*
X02495Y02796D01*
X02395Y02592D02*
X02399Y02596D01*
X02403D01*
X02399Y026D01*
X02403Y02604D01*
X02399D01*
X02395Y02608D01*
X02391Y02604D01*
X02387D01*
X02391Y026D01*
X02387Y02596D01*
X02391D01*
X02395Y02592D01*
Y02596D02*
X02397Y02598D01*
X02399D01*
X02397Y026D01*
X02399Y02602D01*
X02397D01*
X02395Y02604D01*
X02393Y02602D01*
X02391D01*
X02393Y026D01*
X02391Y02598D01*
X02393D01*
X02395Y02596D01*
X02495Y02392D02*
X02499Y02396D01*
X02503D01*
X02499Y024D01*
X02503Y02404D01*
X02499D01*
X02495Y02408D01*
X02491Y02404D01*
X02487D01*
X02491Y024D01*
X02487Y02396D01*
X02491D01*
X02495Y02392D01*
Y02396D02*
X02497Y02398D01*
X02499D01*
X02497Y024D01*
X02499Y02402D01*
X02497D01*
X02495Y02404D01*
X02493Y02402D01*
X02491D01*
X02493Y024D01*
X02491Y02398D01*
X02493D01*
X02495Y02396D01*
X02395Y02192D02*
X02399Y02196D01*
X02403D01*
X02399Y022D01*
X02403Y02204D01*
X02399D01*
X02395Y02208D01*
X02391Y02204D01*
X02387D01*
X02391Y022D01*
X02387Y02196D01*
X02391D01*
X02395Y02192D01*
Y02196D02*
X02397Y02198D01*
X02399D01*
X02397Y022D01*
X02399Y02202D01*
X02397D01*
X02395Y02204D01*
X02393Y02202D01*
X02391D01*
X02393Y022D01*
X02391Y02198D01*
X02393D01*
X02395Y02196D01*
X02295Y04792D02*
X02299Y04796D01*
X02303D01*
X02299Y048D01*
X02303Y04804D01*
X02299D01*
X02295Y04808D01*
X02291Y04804D01*
X02287D01*
X02291Y048D01*
X02287Y04796D01*
X02291D01*
X02295Y04792D01*
Y04796D02*
X02297Y04798D01*
X02299D01*
X02297Y048D01*
X02299Y04802D01*
X02297D01*
X02295Y04804D01*
X02293Y04802D01*
X02291D01*
X02293Y048D01*
X02291Y04798D01*
X02293D01*
X02295Y04796D01*
X02195Y03392D02*
X02199Y03396D01*
X02203D01*
X02199Y034D01*
X02203Y03404D01*
X02199D01*
X02195Y03408D01*
X02191Y03404D01*
X02187D01*
X02191Y034D01*
X02187Y03396D01*
X02191D01*
X02195Y03392D01*
Y03396D02*
X02197Y03398D01*
X02199D01*
X02197Y034D01*
X02199Y03402D01*
X02197D01*
X02195Y03404D01*
X02193Y03402D01*
X02191D01*
X02193Y034D01*
X02191Y03398D01*
X02193D01*
X02195Y03396D01*
X02295Y03192D02*
X02299Y03196D01*
X02303D01*
X02299Y032D01*
X02303Y03204D01*
X02299D01*
X02295Y03208D01*
X02291Y03204D01*
X02287D01*
X02291Y032D01*
X02287Y03196D01*
X02291D01*
X02295Y03192D01*
Y03196D02*
X02297Y03198D01*
X02299D01*
X02297Y032D01*
X02299Y03202D01*
X02297D01*
X02295Y03204D01*
X02293Y03202D01*
X02291D01*
X02293Y032D01*
X02291Y03198D01*
X02293D01*
X02295Y03196D01*
X02195Y02992D02*
X02199Y02996D01*
X02203D01*
X02199Y03D01*
X02203Y03004D01*
X02199D01*
X02195Y03008D01*
X02191Y03004D01*
X02187D01*
X02191Y03D01*
X02187Y02996D01*
X02191D01*
X02195Y02992D01*
Y02996D02*
X02197Y02998D01*
X02199D01*
X02197Y03D01*
X02199Y03002D01*
X02197D01*
X02195Y03004D01*
X02193Y03002D01*
X02191D01*
X02193Y03D01*
X02191Y02998D01*
X02193D01*
X02195Y02996D01*
X02295Y02792D02*
X02299Y02796D01*
X02303D01*
X02299Y028D01*
X02303Y02804D01*
X02299D01*
X02295Y02808D01*
X02291Y02804D01*
X02287D01*
X02291Y028D01*
X02287Y02796D01*
X02291D01*
X02295Y02792D01*
Y02796D02*
X02297Y02798D01*
X02299D01*
X02297Y028D01*
X02299Y02802D01*
X02297D01*
X02295Y02804D01*
X02293Y02802D01*
X02291D01*
X02293Y028D01*
X02291Y02798D01*
X02293D01*
X02295Y02796D01*
X02195Y02592D02*
X02199Y02596D01*
X02203D01*
X02199Y026D01*
X02203Y02604D01*
X02199D01*
X02195Y02608D01*
X02191Y02604D01*
X02187D01*
X02191Y026D01*
X02187Y02596D01*
X02191D01*
X02195Y02592D01*
Y02596D02*
X02197Y02598D01*
X02199D01*
X02197Y026D01*
X02199Y02602D01*
X02197D01*
X02195Y02604D01*
X02193Y02602D01*
X02191D01*
X02193Y026D01*
X02191Y02598D01*
X02193D01*
X02195Y02596D01*
X02295Y02392D02*
X02299Y02396D01*
X02303D01*
X02299Y024D01*
X02303Y02404D01*
X02299D01*
X02295Y02408D01*
X02291Y02404D01*
X02287D01*
X02291Y024D01*
X02287Y02396D01*
X02291D01*
X02295Y02392D01*
Y02396D02*
X02297Y02398D01*
X02299D01*
X02297Y024D01*
X02299Y02402D01*
X02297D01*
X02295Y02404D01*
X02293Y02402D01*
X02291D01*
X02293Y024D01*
X02291Y02398D01*
X02293D01*
X02295Y02396D01*
X02195Y02192D02*
X02199Y02196D01*
X02203D01*
X02199Y022D01*
X02203Y02204D01*
X02199D01*
X02195Y02208D01*
X02191Y02204D01*
X02187D01*
X02191Y022D01*
X02187Y02196D01*
X02191D01*
X02195Y02192D01*
Y02196D02*
X02197Y02198D01*
X02199D01*
X02197Y022D01*
X02199Y02202D01*
X02197D01*
X02195Y02204D01*
X02193Y02202D01*
X02191D01*
X02193Y022D01*
X02191Y02198D01*
X02193D01*
X02195Y02196D01*
X01995Y04592D02*
X01999Y04596D01*
X02003D01*
X01999Y046D01*
X02003Y04604D01*
X01999D01*
X01995Y04608D01*
X01991Y04604D01*
X01987D01*
X01991Y046D01*
X01987Y04596D01*
X01991D01*
X01995Y04592D01*
Y04596D02*
X01997Y04598D01*
X01999D01*
X01997Y046D01*
X01999Y04602D01*
X01997D01*
X01995Y04604D01*
X01993Y04602D01*
X01991D01*
X01993Y046D01*
X01991Y04598D01*
X01993D01*
X01995Y04596D01*
Y03792D02*
X01999Y03796D01*
X02003D01*
X01999Y038D01*
X02003Y03804D01*
X01999D01*
X01995Y03808D01*
X01991Y03804D01*
X01987D01*
X01991Y038D01*
X01987Y03796D01*
X01991D01*
X01995Y03792D01*
Y03796D02*
X01997Y03798D01*
X01999D01*
X01997Y038D01*
X01999Y03802D01*
X01997D01*
X01995Y03804D01*
X01993Y03802D01*
X01991D01*
X01993Y038D01*
X01991Y03798D01*
X01993D01*
X01995Y03796D01*
X02095Y03192D02*
X02099Y03196D01*
X02103D01*
X02099Y032D01*
X02103Y03204D01*
X02099D01*
X02095Y03208D01*
X02091Y03204D01*
X02087D01*
X02091Y032D01*
X02087Y03196D01*
X02091D01*
X02095Y03192D01*
Y03196D02*
X02097Y03198D01*
X02099D01*
X02097Y032D01*
X02099Y03202D01*
X02097D01*
X02095Y03204D01*
X02093Y03202D01*
X02091D01*
X02093Y032D01*
X02091Y03198D01*
X02093D01*
X02095Y03196D01*
Y02792D02*
X02099Y02796D01*
X02103D01*
X02099Y028D01*
X02103Y02804D01*
X02099D01*
X02095Y02808D01*
X02091Y02804D01*
X02087D01*
X02091Y028D01*
X02087Y02796D01*
X02091D01*
X02095Y02792D01*
Y02796D02*
X02097Y02798D01*
X02099D01*
X02097Y028D01*
X02099Y02802D01*
X02097D01*
X02095Y02804D01*
X02093Y02802D01*
X02091D01*
X02093Y028D01*
X02091Y02798D01*
X02093D01*
X02095Y02796D01*
Y02392D02*
X02099Y02396D01*
X02103D01*
X02099Y024D01*
X02103Y02404D01*
X02099D01*
X02095Y02408D01*
X02091Y02404D01*
X02087D01*
X02091Y024D01*
X02087Y02396D01*
X02091D01*
X02095Y02392D01*
Y02396D02*
X02097Y02398D01*
X02099D01*
X02097Y024D01*
X02099Y02402D01*
X02097D01*
X02095Y02404D01*
X02093Y02402D01*
X02091D01*
X02093Y024D01*
X02091Y02398D01*
X02093D01*
X02095Y02396D01*
X01995Y02192D02*
X01999Y02196D01*
X02003D01*
X01999Y022D01*
X02003Y02204D01*
X01999D01*
X01995Y02208D01*
X01991Y02204D01*
X01987D01*
X01991Y022D01*
X01987Y02196D01*
X01991D01*
X01995Y02192D01*
Y02196D02*
X01997Y02198D01*
X01999D01*
X01997Y022D01*
X01999Y02202D01*
X01997D01*
X01995Y02204D01*
X01993Y02202D01*
X01991D01*
X01993Y022D01*
X01991Y02198D01*
X01993D01*
X01995Y02196D01*
X01895Y04392D02*
X01899Y04396D01*
X01903D01*
X01899Y044D01*
X01903Y04404D01*
X01899D01*
X01895Y04408D01*
X01891Y04404D01*
X01887D01*
X01891Y044D01*
X01887Y04396D01*
X01891D01*
X01895Y04392D01*
Y04396D02*
X01897Y04398D01*
X01899D01*
X01897Y044D01*
X01899Y04402D01*
X01897D01*
X01895Y04404D01*
X01893Y04402D01*
X01891D01*
X01893Y044D01*
X01891Y04398D01*
X01893D01*
X01895Y04396D01*
Y03992D02*
X01899Y03996D01*
X01903D01*
X01899Y04D01*
X01903Y04004D01*
X01899D01*
X01895Y04008D01*
X01891Y04004D01*
X01887D01*
X01891Y04D01*
X01887Y03996D01*
X01891D01*
X01895Y03992D01*
Y03996D02*
X01897Y03998D01*
X01899D01*
X01897Y04D01*
X01899Y04002D01*
X01897D01*
X01895Y04004D01*
X01893Y04002D01*
X01891D01*
X01893Y04D01*
X01891Y03998D01*
X01893D01*
X01895Y03996D01*
X01795Y03792D02*
X01799Y03796D01*
X01803D01*
X01799Y038D01*
X01803Y03804D01*
X01799D01*
X01795Y03808D01*
X01791Y03804D01*
X01787D01*
X01791Y038D01*
X01787Y03796D01*
X01791D01*
X01795Y03792D01*
Y03796D02*
X01797Y03798D01*
X01799D01*
X01797Y038D01*
X01799Y03802D01*
X01797D01*
X01795Y03804D01*
X01793Y03802D01*
X01791D01*
X01793Y038D01*
X01791Y03798D01*
X01793D01*
X01795Y03796D01*
Y03392D02*
X01799Y03396D01*
X01803D01*
X01799Y034D01*
X01803Y03404D01*
X01799D01*
X01795Y03408D01*
X01791Y03404D01*
X01787D01*
X01791Y034D01*
X01787Y03396D01*
X01791D01*
X01795Y03392D01*
Y03396D02*
X01797Y03398D01*
X01799D01*
X01797Y034D01*
X01799Y03402D01*
X01797D01*
X01795Y03404D01*
X01793Y03402D01*
X01791D01*
X01793Y034D01*
X01791Y03398D01*
X01793D01*
X01795Y03396D01*
Y02592D02*
X01799Y02596D01*
X01803D01*
X01799Y026D01*
X01803Y02604D01*
X01799D01*
X01795Y02608D01*
X01791Y02604D01*
X01787D01*
X01791Y026D01*
X01787Y02596D01*
X01791D01*
X01795Y02592D01*
Y02596D02*
X01797Y02598D01*
X01799D01*
X01797Y026D01*
X01799Y02602D01*
X01797D01*
X01795Y02604D01*
X01793Y02602D01*
X01791D01*
X01793Y026D01*
X01791Y02598D01*
X01793D01*
X01795Y02596D01*
X01895Y02392D02*
X01899Y02396D01*
X01903D01*
X01899Y024D01*
X01903Y02404D01*
X01899D01*
X01895Y02408D01*
X01891Y02404D01*
X01887D01*
X01891Y024D01*
X01887Y02396D01*
X01891D01*
X01895Y02392D01*
Y02396D02*
X01897Y02398D01*
X01899D01*
X01897Y024D01*
X01899Y02402D01*
X01897D01*
X01895Y02404D01*
X01893Y02402D01*
X01891D01*
X01893Y024D01*
X01891Y02398D01*
X01893D01*
X01895Y02396D01*
X01795Y02192D02*
X01799Y02196D01*
X01803D01*
X01799Y022D01*
X01803Y02204D01*
X01799D01*
X01795Y02208D01*
X01791Y02204D01*
X01787D01*
X01791Y022D01*
X01787Y02196D01*
X01791D01*
X01795Y02192D01*
Y02196D02*
X01797Y02198D01*
X01799D01*
X01797Y022D01*
X01799Y02202D01*
X01797D01*
X01795Y02204D01*
X01793Y02202D01*
X01791D01*
X01793Y022D01*
X01791Y02198D01*
X01793D01*
X01795Y02196D01*
X01595Y04592D02*
X01599Y04596D01*
X01603D01*
X01599Y046D01*
X01603Y04604D01*
X01599D01*
X01595Y04608D01*
X01591Y04604D01*
X01587D01*
X01591Y046D01*
X01587Y04596D01*
X01591D01*
X01595Y04592D01*
Y04596D02*
X01597Y04598D01*
X01599D01*
X01597Y046D01*
X01599Y04602D01*
X01597D01*
X01595Y04604D01*
X01593Y04602D01*
X01591D01*
X01593Y046D01*
X01591Y04598D01*
X01593D01*
X01595Y04596D01*
X01695Y03992D02*
X01699Y03996D01*
X01703D01*
X01699Y04D01*
X01703Y04004D01*
X01699D01*
X01695Y04008D01*
X01691Y04004D01*
X01687D01*
X01691Y04D01*
X01687Y03996D01*
X01691D01*
X01695Y03992D01*
Y03996D02*
X01697Y03998D01*
X01699D01*
X01697Y04D01*
X01699Y04002D01*
X01697D01*
X01695Y04004D01*
X01693Y04002D01*
X01691D01*
X01693Y04D01*
X01691Y03998D01*
X01693D01*
X01695Y03996D01*
X01595Y03392D02*
X01599Y03396D01*
X01603D01*
X01599Y034D01*
X01603Y03404D01*
X01599D01*
X01595Y03408D01*
X01591Y03404D01*
X01587D01*
X01591Y034D01*
X01587Y03396D01*
X01591D01*
X01595Y03392D01*
Y03396D02*
X01597Y03398D01*
X01599D01*
X01597Y034D01*
X01599Y03402D01*
X01597D01*
X01595Y03404D01*
X01593Y03402D01*
X01591D01*
X01593Y034D01*
X01591Y03398D01*
X01593D01*
X01595Y03396D01*
Y02992D02*
X01599Y02996D01*
X01603D01*
X01599Y03D01*
X01603Y03004D01*
X01599D01*
X01595Y03008D01*
X01591Y03004D01*
X01587D01*
X01591Y03D01*
X01587Y02996D01*
X01591D01*
X01595Y02992D01*
Y02996D02*
X01597Y02998D01*
X01599D01*
X01597Y03D01*
X01599Y03002D01*
X01597D01*
X01595Y03004D01*
X01593Y03002D01*
X01591D01*
X01593Y03D01*
X01591Y02998D01*
X01593D01*
X01595Y02996D01*
X01695Y02792D02*
X01699Y02796D01*
X01703D01*
X01699Y028D01*
X01703Y02804D01*
X01699D01*
X01695Y02808D01*
X01691Y02804D01*
X01687D01*
X01691Y028D01*
X01687Y02796D01*
X01691D01*
X01695Y02792D01*
Y02796D02*
X01697Y02798D01*
X01699D01*
X01697Y028D01*
X01699Y02802D01*
X01697D01*
X01695Y02804D01*
X01693Y02802D01*
X01691D01*
X01693Y028D01*
X01691Y02798D01*
X01693D01*
X01695Y02796D01*
X01595Y02592D02*
X01599Y02596D01*
X01603D01*
X01599Y026D01*
X01603Y02604D01*
X01599D01*
X01595Y02608D01*
X01591Y02604D01*
X01587D01*
X01591Y026D01*
X01587Y02596D01*
X01591D01*
X01595Y02592D01*
Y02596D02*
X01597Y02598D01*
X01599D01*
X01597Y026D01*
X01599Y02602D01*
X01597D01*
X01595Y02604D01*
X01593Y02602D01*
X01591D01*
X01593Y026D01*
X01591Y02598D01*
X01593D01*
X01595Y02596D01*
X01695Y02392D02*
X01699Y02396D01*
X01703D01*
X01699Y024D01*
X01703Y02404D01*
X01699D01*
X01695Y02408D01*
X01691Y02404D01*
X01687D01*
X01691Y024D01*
X01687Y02396D01*
X01691D01*
X01695Y02392D01*
Y02396D02*
X01697Y02398D01*
X01699D01*
X01697Y024D01*
X01699Y02402D01*
X01697D01*
X01695Y02404D01*
X01693Y02402D01*
X01691D01*
X01693Y024D01*
X01691Y02398D01*
X01693D01*
X01695Y02396D01*
X01495Y04792D02*
X01499Y04796D01*
X01503D01*
X01499Y048D01*
X01503Y04804D01*
X01499D01*
X01495Y04808D01*
X01491Y04804D01*
X01487D01*
X01491Y048D01*
X01487Y04796D01*
X01491D01*
X01495Y04792D01*
Y04796D02*
X01497Y04798D01*
X01499D01*
X01497Y048D01*
X01499Y04802D01*
X01497D01*
X01495Y04804D01*
X01493Y04802D01*
X01491D01*
X01493Y048D01*
X01491Y04798D01*
X01493D01*
X01495Y04796D01*
X01395Y04592D02*
X01399Y04596D01*
X01403D01*
X01399Y046D01*
X01403Y04604D01*
X01399D01*
X01395Y04608D01*
X01391Y04604D01*
X01387D01*
X01391Y046D01*
X01387Y04596D01*
X01391D01*
X01395Y04592D01*
Y04596D02*
X01397Y04598D01*
X01399D01*
X01397Y046D01*
X01399Y04602D01*
X01397D01*
X01395Y04604D01*
X01393Y04602D01*
X01391D01*
X01393Y046D01*
X01391Y04598D01*
X01393D01*
X01395Y04596D01*
X01495Y03992D02*
X01499Y03996D01*
X01503D01*
X01499Y04D01*
X01503Y04004D01*
X01499D01*
X01495Y04008D01*
X01491Y04004D01*
X01487D01*
X01491Y04D01*
X01487Y03996D01*
X01491D01*
X01495Y03992D01*
Y03996D02*
X01497Y03998D01*
X01499D01*
X01497Y04D01*
X01499Y04002D01*
X01497D01*
X01495Y04004D01*
X01493Y04002D01*
X01491D01*
X01493Y04D01*
X01491Y03998D01*
X01493D01*
X01495Y03996D01*
Y03592D02*
X01499Y03596D01*
X01503D01*
X01499Y036D01*
X01503Y03604D01*
X01499D01*
X01495Y03608D01*
X01491Y03604D01*
X01487D01*
X01491Y036D01*
X01487Y03596D01*
X01491D01*
X01495Y03592D01*
Y03596D02*
X01497Y03598D01*
X01499D01*
X01497Y036D01*
X01499Y03602D01*
X01497D01*
X01495Y03604D01*
X01493Y03602D01*
X01491D01*
X01493Y036D01*
X01491Y03598D01*
X01493D01*
X01495Y03596D01*
Y02792D02*
X01499Y02796D01*
X01503D01*
X01499Y028D01*
X01503Y02804D01*
X01499D01*
X01495Y02808D01*
X01491Y02804D01*
X01487D01*
X01491Y028D01*
X01487Y02796D01*
X01491D01*
X01495Y02792D01*
Y02796D02*
X01497Y02798D01*
X01499D01*
X01497Y028D01*
X01499Y02802D01*
X01497D01*
X01495Y02804D01*
X01493Y02802D01*
X01491D01*
X01493Y028D01*
X01491Y02798D01*
X01493D01*
X01495Y02796D01*
X01395Y02592D02*
X01399Y02596D01*
X01403D01*
X01399Y026D01*
X01403Y02604D01*
X01399D01*
X01395Y02608D01*
X01391Y02604D01*
X01387D01*
X01391Y026D01*
X01387Y02596D01*
X01391D01*
X01395Y02592D01*
Y02596D02*
X01397Y02598D01*
X01399D01*
X01397Y026D01*
X01399Y02602D01*
X01397D01*
X01395Y02604D01*
X01393Y02602D01*
X01391D01*
X01393Y026D01*
X01391Y02598D01*
X01393D01*
X01395Y02596D01*
X01495Y02392D02*
X01499Y02396D01*
X01503D01*
X01499Y024D01*
X01503Y02404D01*
X01499D01*
X01495Y02408D01*
X01491Y02404D01*
X01487D01*
X01491Y024D01*
X01487Y02396D01*
X01491D01*
X01495Y02392D01*
Y02396D02*
X01497Y02398D01*
X01499D01*
X01497Y024D01*
X01499Y02402D01*
X01497D01*
X01495Y02404D01*
X01493Y02402D01*
X01491D01*
X01493Y024D01*
X01491Y02398D01*
X01493D01*
X01495Y02396D01*
X01295Y04792D02*
X01299Y04796D01*
X01303D01*
X01299Y048D01*
X01303Y04804D01*
X01299D01*
X01295Y04808D01*
X01291Y04804D01*
X01287D01*
X01291Y048D01*
X01287Y04796D01*
X01291D01*
X01295Y04792D01*
Y04796D02*
X01297Y04798D01*
X01299D01*
X01297Y048D01*
X01299Y04802D01*
X01297D01*
X01295Y04804D01*
X01293Y04802D01*
X01291D01*
X01293Y048D01*
X01291Y04798D01*
X01293D01*
X01295Y04796D01*
Y04392D02*
X01299Y04396D01*
X01303D01*
X01299Y044D01*
X01303Y04404D01*
X01299D01*
X01295Y04408D01*
X01291Y04404D01*
X01287D01*
X01291Y044D01*
X01287Y04396D01*
X01291D01*
X01295Y04392D01*
Y04396D02*
X01297Y04398D01*
X01299D01*
X01297Y044D01*
X01299Y04402D01*
X01297D01*
X01295Y04404D01*
X01293Y04402D01*
X01291D01*
X01293Y044D01*
X01291Y04398D01*
X01293D01*
X01295Y04396D01*
Y03992D02*
X01299Y03996D01*
X01303D01*
X01299Y04D01*
X01303Y04004D01*
X01299D01*
X01295Y04008D01*
X01291Y04004D01*
X01287D01*
X01291Y04D01*
X01287Y03996D01*
X01291D01*
X01295Y03992D01*
Y03996D02*
X01297Y03998D01*
X01299D01*
X01297Y04D01*
X01299Y04002D01*
X01297D01*
X01295Y04004D01*
X01293Y04002D01*
X01291D01*
X01293Y04D01*
X01291Y03998D01*
X01293D01*
X01295Y03996D01*
X01195Y03392D02*
X01199Y03396D01*
X01203D01*
X01199Y034D01*
X01203Y03404D01*
X01199D01*
X01195Y03408D01*
X01191Y03404D01*
X01187D01*
X01191Y034D01*
X01187Y03396D01*
X01191D01*
X01195Y03392D01*
Y03396D02*
X01197Y03398D01*
X01199D01*
X01197Y034D01*
X01199Y03402D01*
X01197D01*
X01195Y03404D01*
X01193Y03402D01*
X01191D01*
X01193Y034D01*
X01191Y03398D01*
X01193D01*
X01195Y03396D01*
X01295Y02792D02*
X01299Y02796D01*
X01303D01*
X01299Y028D01*
X01303Y02804D01*
X01299D01*
X01295Y02808D01*
X01291Y02804D01*
X01287D01*
X01291Y028D01*
X01287Y02796D01*
X01291D01*
X01295Y02792D01*
Y02796D02*
X01297Y02798D01*
X01299D01*
X01297Y028D01*
X01299Y02802D01*
X01297D01*
X01295Y02804D01*
X01293Y02802D01*
X01291D01*
X01293Y028D01*
X01291Y02798D01*
X01293D01*
X01295Y02796D01*
X01195Y02592D02*
X01199Y02596D01*
X01203D01*
X01199Y026D01*
X01203Y02604D01*
X01199D01*
X01195Y02608D01*
X01191Y02604D01*
X01187D01*
X01191Y026D01*
X01187Y02596D01*
X01191D01*
X01195Y02592D01*
Y02596D02*
X01197Y02598D01*
X01199D01*
X01197Y026D01*
X01199Y02602D01*
X01197D01*
X01195Y02604D01*
X01193Y02602D01*
X01191D01*
X01193Y026D01*
X01191Y02598D01*
X01193D01*
X01195Y02596D01*
Y02192D02*
X01199Y02196D01*
X01203D01*
X01199Y022D01*
X01203Y02204D01*
X01199D01*
X01195Y02208D01*
X01191Y02204D01*
X01187D01*
X01191Y022D01*
X01187Y02196D01*
X01191D01*
X01195Y02192D01*
Y02196D02*
X01197Y02198D01*
X01199D01*
X01197Y022D01*
X01199Y02202D01*
X01197D01*
X01195Y02204D01*
X01193Y02202D01*
X01191D01*
X01193Y022D01*
X01191Y02198D01*
X01193D01*
X01195Y02196D01*
X024074Y049467D02*
X024114Y049507D01*
X024154D01*
X024114Y049547D01*
X024154Y049587D01*
X024114D01*
X024074Y049627D01*
X024034Y049587D01*
X023994D01*
X024034Y049547D01*
X023994Y049507D01*
X024034D01*
X024074Y049467D01*
Y049507D02*
X024094Y049527D01*
X024114D01*
X024094Y049547D01*
X024114Y049567D01*
X024094D01*
X024074Y049587D01*
X024054Y049567D01*
X024034D01*
X024054Y049547D01*
X024034Y049527D01*
X024054D01*
X024074Y049507D01*
X024545Y047714D02*
X024585Y047754D01*
X024625D01*
X024585Y047794D01*
X024625Y047834D01*
X024585D01*
X024545Y047874D01*
X024505Y047834D01*
X024465D01*
X024505Y047794D01*
X024465Y047754D01*
X024505D01*
X024545Y047714D01*
Y047754D02*
X024565Y047774D01*
X024585D01*
X024565Y047794D01*
X024585Y047814D01*
X024565D01*
X024545Y047834D01*
X024525Y047814D01*
X024505D01*
X024525Y047794D01*
X024505Y047774D01*
X024525D01*
X024545Y047754D01*
X025088Y04612D02*
X025128Y04616D01*
X025168D01*
X025128Y0462D01*
X025168Y04624D01*
X025128D01*
X025088Y04628D01*
X025048Y04624D01*
X025008D01*
X025048Y0462D01*
X025008Y04616D01*
X025048D01*
X025088Y04612D01*
Y04616D02*
X025108Y04618D01*
X025128D01*
X025108Y0462D01*
X025128Y04622D01*
X025108D01*
X025088Y04624D01*
X025068Y04622D01*
X025048D01*
X025068Y0462D01*
X025048Y04618D01*
X025068D01*
X025088Y04616D01*
X0267Y04867D02*
X02674Y04871D01*
X02678D01*
X02674Y04875D01*
X02678Y04879D01*
X02674D01*
X0267Y04883D01*
X02666Y04879D01*
X02662D01*
X02666Y04875D01*
X02662Y04871D01*
X02666D01*
X0267Y04867D01*
Y04871D02*
X02672Y04873D01*
X02674D01*
X02672Y04875D01*
X02674Y04877D01*
X02672D01*
X0267Y04879D01*
X02668Y04877D01*
X02666D01*
X02668Y04875D01*
X02666Y04873D01*
X02668D01*
X0267Y04871D01*
X02375Y04252D02*
X02379Y04256D01*
X02383D01*
X02379Y0426D01*
X02383Y04264D01*
X02379D01*
X02375Y04268D01*
X02371Y04264D01*
X02367D01*
X02371Y0426D01*
X02367Y04256D01*
X02371D01*
X02375Y04252D01*
Y04256D02*
X02377Y04258D01*
X02379D01*
X02377Y0426D01*
X02379Y04262D01*
X02377D01*
X02375Y04264D01*
X02373Y04262D01*
X02371D01*
X02373Y0426D01*
X02371Y04258D01*
X02373D01*
X02375Y04256D01*
X018993Y038909D02*
X019033Y038949D01*
X019073D01*
X019033Y038989D01*
X019073Y039029D01*
X019033D01*
X018993Y039069D01*
X018953Y039029D01*
X018913D01*
X018953Y038989D01*
X018913Y038949D01*
X018953D01*
X018993Y038909D01*
Y038949D02*
X019013Y038969D01*
X019033D01*
X019013Y038989D01*
X019033Y039009D01*
X019013D01*
X018993Y039029D01*
X018973Y039009D01*
X018953D01*
X018973Y038989D01*
X018953Y038969D01*
X018973D01*
X018993Y038949D01*
X018176Y031282D02*
X018216Y031322D01*
X018256D01*
X018216Y031362D01*
X018256Y031402D01*
X018216D01*
X018176Y031442D01*
X018136Y031402D01*
X018096D01*
X018136Y031362D01*
X018096Y031322D01*
X018136D01*
X018176Y031282D01*
Y031322D02*
X018196Y031342D01*
X018216D01*
X018196Y031362D01*
X018216Y031382D01*
X018196D01*
X018176Y031402D01*
X018156Y031382D01*
X018136D01*
X018156Y031362D01*
X018136Y031342D01*
X018156D01*
X018176Y031322D01*
X019654Y025822D02*
X019694Y025862D01*
X019734D01*
X019694Y025902D01*
X019734Y025942D01*
X019694D01*
X019654Y025982D01*
X019614Y025942D01*
X019574D01*
X019614Y025902D01*
X019574Y025862D01*
X019614D01*
X019654Y025822D01*
Y025862D02*
X019674Y025882D01*
X019694D01*
X019674Y025902D01*
X019694Y025922D01*
X019674D01*
X019654Y025942D01*
X019634Y025922D01*
X019614D01*
X019634Y025902D01*
X019614Y025882D01*
X019634D01*
X019654Y025862D01*
X019426Y029069D02*
X019466Y029109D01*
X019506D01*
X019466Y029149D01*
X019506Y029189D01*
X019466D01*
X019426Y029229D01*
X019386Y029189D01*
X019346D01*
X019386Y029149D01*
X019346Y029109D01*
X019386D01*
X019426Y029069D01*
Y029109D02*
X019446Y029129D01*
X019466D01*
X019446Y029149D01*
X019466Y029169D01*
X019446D01*
X019426Y029189D01*
X019406Y029169D01*
X019386D01*
X019406Y029149D01*
X019386Y029129D01*
X019406D01*
X019426Y029109D01*
X019439Y030884D02*
X019479Y030924D01*
X019519D01*
X019479Y030964D01*
X019519Y031004D01*
X019479D01*
X019439Y031044D01*
X019399Y031004D01*
X019359D01*
X019399Y030964D01*
X019359Y030924D01*
X019399D01*
X019439Y030884D01*
Y030924D02*
X019459Y030944D01*
X019479D01*
X019459Y030964D01*
X019479Y030984D01*
X019459D01*
X019439Y031004D01*
X019419Y030984D01*
X019399D01*
X019419Y030964D01*
X019399Y030944D01*
X019419D01*
X019439Y030924D01*
X018528Y032454D02*
X018568Y032494D01*
X018608D01*
X018568Y032534D01*
X018608Y032574D01*
X018568D01*
X018528Y032614D01*
X018488Y032574D01*
X018448D01*
X018488Y032534D01*
X018448Y032494D01*
X018488D01*
X018528Y032454D01*
Y032494D02*
X018548Y032514D01*
X018568D01*
X018548Y032534D01*
X018568Y032554D01*
X018548D01*
X018528Y032574D01*
X018508Y032554D01*
X018488D01*
X018508Y032534D01*
X018488Y032514D01*
X018508D01*
X018528Y032494D01*
X019153Y037831D02*
X019193Y037871D01*
X019233D01*
X019193Y037911D01*
X019233Y037951D01*
X019193D01*
X019153Y037991D01*
X019113Y037951D01*
X019073D01*
X019113Y037911D01*
X019073Y037871D01*
X019113D01*
X019153Y037831D01*
Y037871D02*
X019173Y037891D01*
X019193D01*
X019173Y037911D01*
X019193Y037931D01*
X019173D01*
X019153Y037951D01*
X019133Y037931D01*
X019113D01*
X019133Y037911D01*
X019113Y037891D01*
X019133D01*
X019153Y037871D01*
X02105Y03822D02*
X02109Y03826D01*
X02113D01*
X02109Y0383D01*
X02113Y03834D01*
X02109D01*
X02105Y03838D01*
X02101Y03834D01*
X02097D01*
X02101Y0383D01*
X02097Y03826D01*
X02101D01*
X02105Y03822D01*
Y03826D02*
X02107Y03828D01*
X02109D01*
X02107Y0383D01*
X02109Y03832D01*
X02107D01*
X02105Y03834D01*
X02103Y03832D01*
X02101D01*
X02103Y0383D01*
X02101Y03828D01*
X02103D01*
X02105Y03826D01*
X022216Y039474D02*
X022256Y039513D01*
X022296D01*
X022256Y039553D01*
X022296Y039594D01*
X022256D01*
X022216Y039634D01*
X022176Y039594D01*
X022136D01*
X022176Y039553D01*
X022136Y039513D01*
X022176D01*
X022216Y039474D01*
Y039513D02*
X022236Y039534D01*
X022256D01*
X022236Y039553D01*
X022256Y039574D01*
X022236D01*
X022216Y039594D01*
X022196Y039574D01*
X022176D01*
X022196Y039553D01*
X022176Y039534D01*
X022196D01*
X022216Y039513D01*
X024782Y04204D02*
X024822Y04208D01*
X024862D01*
X024822Y04212D01*
X024862Y04216D01*
X024822D01*
X024782Y0422D01*
X024742Y04216D01*
X024702D01*
X024742Y04212D01*
X024702Y04208D01*
X024742D01*
X024782Y04204D01*
Y04208D02*
X024802Y0421D01*
X024822D01*
X024802Y04212D01*
X024822Y04214D01*
X024802D01*
X024782Y04216D01*
X024762Y04214D01*
X024742D01*
X024762Y04212D01*
X024742Y0421D01*
X024762D01*
X024782Y04208D01*
X028211Y042342D02*
X028251Y042382D01*
X028291D01*
X028251Y042422D01*
X028291Y042462D01*
X028251D01*
X028211Y042502D01*
X028171Y042462D01*
X028131D01*
X028171Y042422D01*
X028131Y042382D01*
X028171D01*
X028211Y042342D01*
Y042382D02*
X028231Y042402D01*
X028251D01*
X028231Y042422D01*
X028251Y042442D01*
X028231D01*
X028211Y042462D01*
X028191Y042442D01*
X028171D01*
X028191Y042422D01*
X028171Y042402D01*
X028191D01*
X028211Y042382D01*
X02725Y039059D02*
X02729Y039099D01*
X02733D01*
X02729Y039139D01*
X02733Y039179D01*
X02729D01*
X02725Y039219D01*
X02721Y039179D01*
X02717D01*
X02721Y039139D01*
X02717Y039099D01*
X02721D01*
X02725Y039059D01*
Y039099D02*
X02727Y039119D01*
X02729D01*
X02727Y039139D01*
X02729Y039159D01*
X02727D01*
X02725Y039179D01*
X02723Y039159D01*
X02721D01*
X02723Y039139D01*
X02721Y039119D01*
X02723D01*
X02725Y039099D01*
X030114Y041039D02*
X030154Y041079D01*
X030194D01*
X030154Y041119D01*
X030194Y041159D01*
X030154D01*
X030114Y041199D01*
X030074Y041159D01*
X030034D01*
X030074Y041119D01*
X030034Y041079D01*
X030074D01*
X030114Y041039D01*
Y041079D02*
X030134Y041099D01*
X030154D01*
X030134Y041119D01*
X030154Y041139D01*
X030134D01*
X030114Y041159D01*
X030094Y041139D01*
X030074D01*
X030094Y041119D01*
X030074Y041099D01*
X030094D01*
X030114Y041079D01*
X032526Y046535D02*
X032566Y046575D01*
X032606D01*
X032566Y046615D01*
X032606Y046655D01*
X032566D01*
X032526Y046695D01*
X032486Y046655D01*
X032446D01*
X032486Y046615D01*
X032446Y046575D01*
X032486D01*
X032526Y046535D01*
Y046575D02*
X032546Y046595D01*
X032566D01*
X032546Y046615D01*
X032566Y046635D01*
X032546D01*
X032526Y046655D01*
X032506Y046635D01*
X032486D01*
X032506Y046615D01*
X032486Y046595D01*
X032506D01*
X032526Y046575D01*
X032785Y048331D02*
X032825Y048371D01*
X032865D01*
X032825Y048411D01*
X032865Y048451D01*
X032825D01*
X032785Y048491D01*
X032745Y048451D01*
X032705D01*
X032745Y048411D01*
X032705Y048371D01*
X032745D01*
X032785Y048331D01*
Y048371D02*
X032805Y048391D01*
X032825D01*
X032805Y048411D01*
X032825Y048431D01*
X032805D01*
X032785Y048451D01*
X032765Y048431D01*
X032745D01*
X032765Y048411D01*
X032745Y048391D01*
X032765D01*
X032785Y048371D01*
X0346Y048331D02*
X03464Y048371D01*
X03468D01*
X03464Y048411D01*
X03468Y048451D01*
X03464D01*
X0346Y048491D01*
X03456Y048451D01*
X03452D01*
X03456Y048411D01*
X03452Y048371D01*
X03456D01*
X0346Y048331D01*
Y048371D02*
X03462Y048391D01*
X03464D01*
X03462Y048411D01*
X03464Y048431D01*
X03462D01*
X0346Y048451D01*
X03458Y048431D01*
X03456D01*
X03458Y048411D01*
X03456Y048391D01*
X03458D01*
X0346Y048371D01*
X036415Y048331D02*
X036455Y048371D01*
X036495D01*
X036455Y048411D01*
X036495Y048451D01*
X036455D01*
X036415Y048491D01*
X036375Y048451D01*
X036335D01*
X036375Y048411D01*
X036335Y048371D01*
X036375D01*
X036415Y048331D01*
Y048371D02*
X036435Y048391D01*
X036455D01*
X036435Y048411D01*
X036455Y048431D01*
X036435D01*
X036415Y048451D01*
X036395Y048431D01*
X036375D01*
X036395Y048411D01*
X036375Y048391D01*
X036395D01*
X036415Y048371D01*
X03823Y048331D02*
X03827Y048371D01*
X03831D01*
X03827Y048411D01*
X03831Y048451D01*
X03827D01*
X03823Y048491D01*
X03819Y048451D01*
X03815D01*
X03819Y048411D01*
X03815Y048371D01*
X03819D01*
X03823Y048331D01*
Y048371D02*
X03825Y048391D01*
X03827D01*
X03825Y048411D01*
X03827Y048431D01*
X03825D01*
X03823Y048451D01*
X03821Y048431D01*
X03819D01*
X03821Y048411D01*
X03819Y048391D01*
X03821D01*
X03823Y048371D01*
X041351Y047857D02*
X041391Y047897D01*
X041431D01*
X041391Y047937D01*
X041431Y047977D01*
X041391D01*
X041351Y048017D01*
X041311Y047977D01*
X041271D01*
X041311Y047937D01*
X041271Y047897D01*
X041311D01*
X041351Y047857D01*
Y047897D02*
X041371Y047917D01*
X041391D01*
X041371Y047937D01*
X041391Y047957D01*
X041371D01*
X041351Y047977D01*
X041331Y047957D01*
X041311D01*
X041331Y047937D01*
X041311Y047917D01*
X041331D01*
X041351Y047897D01*
X042634Y046573D02*
X042674Y046613D01*
X042714D01*
X042674Y046653D01*
X042714Y046693D01*
X042674D01*
X042634Y046733D01*
X042594Y046693D01*
X042554D01*
X042594Y046653D01*
X042554Y046613D01*
X042594D01*
X042634Y046573D01*
Y046613D02*
X042654Y046633D01*
X042674D01*
X042654Y046653D01*
X042674Y046673D01*
X042654D01*
X042634Y046693D01*
X042614Y046673D01*
X042594D01*
X042614Y046653D01*
X042594Y046633D01*
X042614D01*
X042634Y046613D01*
X043918Y04529D02*
X043958Y04533D01*
X043998D01*
X043958Y04537D01*
X043998Y04541D01*
X043958D01*
X043918Y04545D01*
X043878Y04541D01*
X043838D01*
X043878Y04537D01*
X043838Y04533D01*
X043878D01*
X043918Y04529D01*
Y04533D02*
X043938Y04535D01*
X043958D01*
X043938Y04537D01*
X043958Y04539D01*
X043938D01*
X043918Y04541D01*
X043898Y04539D01*
X043878D01*
X043898Y04537D01*
X043878Y04535D01*
X043898D01*
X043918Y04533D01*
X043524Y0428D02*
X043564Y04284D01*
X043604D01*
X043564Y04288D01*
X043604Y04292D01*
X043564D01*
X043524Y04296D01*
X043484Y04292D01*
X043444D01*
X043484Y04288D01*
X043444Y04284D01*
X043484D01*
X043524Y0428D01*
Y04284D02*
X043544Y04286D01*
X043564D01*
X043544Y04288D01*
X043564Y0429D01*
X043544D01*
X043524Y04292D01*
X043504Y0429D01*
X043484D01*
X043504Y04288D01*
X043484Y04286D01*
X043504D01*
X043524Y04284D01*
X041709Y0428D02*
X04175Y04284D01*
X041789D01*
X04175Y04288D01*
X041789Y04292D01*
X04175D01*
X041709Y04296D01*
X04167Y04292D01*
X04163D01*
X04167Y04288D01*
X04163Y04284D01*
X04167D01*
X041709Y0428D01*
Y04284D02*
X041729Y04286D01*
X04175D01*
X041729Y04288D01*
X04175Y0429D01*
X041729D01*
X041709Y04292D01*
X04169Y0429D01*
X04167D01*
X04169Y04288D01*
X04167Y04286D01*
X04169D01*
X041709Y04284D01*
X039895Y0428D02*
X039935Y04284D01*
X039975D01*
X039935Y04288D01*
X039975Y04292D01*
X039935D01*
X039895Y04296D01*
X039855Y04292D01*
X039815D01*
X039855Y04288D01*
X039815Y04284D01*
X039855D01*
X039895Y0428D01*
Y04284D02*
X039915Y04286D01*
X039935D01*
X039915Y04288D01*
X039935Y0429D01*
X039915D01*
X039895Y04292D01*
X039875Y0429D01*
X039855D01*
X039875Y04288D01*
X039855Y04286D01*
X039875D01*
X039895Y04284D01*
X038133Y042365D02*
X038173Y042405D01*
X038213D01*
X038173Y042445D01*
X038213Y042485D01*
X038173D01*
X038133Y042525D01*
X038093Y042485D01*
X038053D01*
X038093Y042445D01*
X038053Y042405D01*
X038093D01*
X038133Y042365D01*
Y042405D02*
X038153Y042425D01*
X038173D01*
X038153Y042445D01*
X038173Y042465D01*
X038153D01*
X038133Y042485D01*
X038113Y042465D01*
X038093D01*
X038113Y042445D01*
X038093Y042425D01*
X038113D01*
X038133Y042405D01*
X037161Y040832D02*
X037201Y040872D01*
X037241D01*
X037201Y040912D01*
X037241Y040952D01*
X037201D01*
X037161Y040992D01*
X037121Y040952D01*
X037081D01*
X037121Y040912D01*
X037081Y040872D01*
X037121D01*
X037161Y040832D01*
Y040872D02*
X037181Y040892D01*
X037201D01*
X037181Y040912D01*
X037201Y040932D01*
X037181D01*
X037161Y040952D01*
X037141Y040932D01*
X037121D01*
X037141Y040912D01*
X037121Y040892D01*
X037141D01*
X037161Y040872D01*
X038239Y039372D02*
X038279Y039412D01*
X038319D01*
X038279Y039452D01*
X038319Y039492D01*
X038279D01*
X038239Y039532D01*
X038199Y039492D01*
X038159D01*
X038199Y039452D01*
X038159Y039412D01*
X038199D01*
X038239Y039372D01*
Y039412D02*
X038259Y039432D01*
X038279D01*
X038259Y039452D01*
X038279Y039472D01*
X038259D01*
X038239Y039492D01*
X038219Y039472D01*
X038199D01*
X038219Y039452D01*
X038199Y039432D01*
X038219D01*
X038239Y039412D01*
X041419Y041722D02*
X041459Y041762D01*
X041499D01*
X041459Y041802D01*
X041499Y041842D01*
X041459D01*
X041419Y041882D01*
X041379Y041842D01*
X041339D01*
X041379Y041802D01*
X041339Y041762D01*
X041379D01*
X041419Y041722D01*
Y041762D02*
X041439Y041782D01*
X041459D01*
X041439Y041802D01*
X041459Y041822D01*
X041439D01*
X041419Y041842D01*
X041399Y041822D01*
X041379D01*
X041399Y041802D01*
X041379Y041782D01*
X041399D01*
X041419Y041762D01*
X043234Y041722D02*
X043274Y041762D01*
X043314D01*
X043274Y041802D01*
X043314Y041842D01*
X043274D01*
X043234Y041882D01*
X043194Y041842D01*
X043154D01*
X043194Y041802D01*
X043154Y041762D01*
X043194D01*
X043234Y041722D01*
Y041762D02*
X043254Y041782D01*
X043274D01*
X043254Y041802D01*
X043274Y041822D01*
X043254D01*
X043234Y041842D01*
X043214Y041822D01*
X043194D01*
X043214Y041802D01*
X043194Y041782D01*
X043214D01*
X043234Y041762D01*
X045011Y041351D02*
X045051Y041391D01*
X045091D01*
X045051Y041431D01*
X045091Y041471D01*
X045051D01*
X045011Y041511D01*
X044971Y041471D01*
X044931D01*
X044971Y041431D01*
X044931Y041391D01*
X044971D01*
X045011Y041351D01*
Y041391D02*
X045031Y041411D01*
X045051D01*
X045031Y041431D01*
X045051Y041451D01*
X045031D01*
X045011Y041471D01*
X044991Y041451D01*
X044971D01*
X044991Y041431D01*
X044971Y041411D01*
X044991D01*
X045011Y041391D01*
Y037721D02*
X045051Y037761D01*
X045091D01*
X045051Y037801D01*
X045091Y037841D01*
X045051D01*
X045011Y037881D01*
X044971Y037841D01*
X044931D01*
X044971Y037801D01*
X044931Y037761D01*
X044971D01*
X045011Y037721D01*
Y037761D02*
X045031Y037781D01*
X045051D01*
X045031Y037801D01*
X045051Y037821D01*
X045031D01*
X045011Y037841D01*
X044991Y037821D01*
X044971D01*
X044991Y037801D01*
X044971Y037781D01*
X044991D01*
X045011Y037761D01*
Y034091D02*
X045051Y034131D01*
X045091D01*
X045051Y034171D01*
X045091Y034211D01*
X045051D01*
X045011Y034251D01*
X044971Y034211D01*
X044931D01*
X044971Y034171D01*
X044931Y034131D01*
X044971D01*
X045011Y034091D01*
Y034131D02*
X045031Y034151D01*
X045051D01*
X045031Y034171D01*
X045051Y034191D01*
X045031D01*
X045011Y034211D01*
X044991Y034191D01*
X044971D01*
X044991Y034171D01*
X044971Y034151D01*
X044991D01*
X045011Y034131D01*
Y032276D02*
X045051Y032316D01*
X045091D01*
X045051Y032356D01*
X045091Y032396D01*
X045051D01*
X045011Y032436D01*
X044971Y032396D01*
X044931D01*
X044971Y032356D01*
X044931Y032316D01*
X044971D01*
X045011Y032276D01*
Y032316D02*
X045031Y032336D01*
X045051D01*
X045031Y032356D01*
X045051Y032376D01*
X045031D01*
X045011Y032396D01*
X044991Y032376D01*
X044971D01*
X044991Y032356D01*
X044971Y032336D01*
X044991D01*
X045011Y032316D01*
X043543Y031209D02*
X043583Y031249D01*
X043623D01*
X043583Y031289D01*
X043623Y031329D01*
X043583D01*
X043543Y031369D01*
X043503Y031329D01*
X043463D01*
X043503Y031289D01*
X043463Y031249D01*
X043503D01*
X043543Y031209D01*
Y031249D02*
X043563Y031269D01*
X043583D01*
X043563Y031289D01*
X043583Y031309D01*
X043563D01*
X043543Y031329D01*
X043523Y031309D01*
X043503D01*
X043523Y031289D01*
X043503Y031269D01*
X043523D01*
X043543Y031249D01*
X041728Y031209D02*
X041768Y031249D01*
X041808D01*
X041768Y031289D01*
X041808Y031329D01*
X041768D01*
X041728Y031369D01*
X041688Y031329D01*
X041648D01*
X041688Y031289D01*
X041648Y031249D01*
X041688D01*
X041728Y031209D01*
Y031249D02*
X041748Y031269D01*
X041768D01*
X041748Y031289D01*
X041768Y031309D01*
X041748D01*
X041728Y031329D01*
X041708Y031309D01*
X041688D01*
X041708Y031289D01*
X041688Y031269D01*
X041708D01*
X041728Y031249D01*
X039913Y031209D02*
X039953Y031249D01*
X039993D01*
X039953Y031289D01*
X039993Y031329D01*
X039953D01*
X039913Y031369D01*
X039873Y031329D01*
X039833D01*
X039873Y031289D01*
X039833Y031249D01*
X039873D01*
X039913Y031209D01*
Y031249D02*
X039933Y031269D01*
X039953D01*
X039933Y031289D01*
X039953Y031309D01*
X039933D01*
X039913Y031329D01*
X039893Y031309D01*
X039873D01*
X039893Y031289D01*
X039873Y031269D01*
X039893D01*
X039913Y031249D01*
X038098Y031209D02*
X038138Y031249D01*
X038178D01*
X038138Y031289D01*
X038178Y031329D01*
X038138D01*
X038098Y031369D01*
X038058Y031329D01*
X038018D01*
X038058Y031289D01*
X038018Y031249D01*
X038058D01*
X038098Y031209D01*
Y031249D02*
X038118Y031269D01*
X038138D01*
X038118Y031289D01*
X038138Y031309D01*
X038118D01*
X038098Y031329D01*
X038078Y031309D01*
X038058D01*
X038078Y031289D01*
X038058Y031269D01*
X038078D01*
X038098Y031249D01*
X036638Y030131D02*
X036678Y030171D01*
X036718D01*
X036678Y030211D01*
X036718Y030251D01*
X036678D01*
X036638Y030291D01*
X036598Y030251D01*
X036558D01*
X036598Y030211D01*
X036558Y030171D01*
X036598D01*
X036638Y030131D01*
Y030171D02*
X036658Y030191D01*
X036678D01*
X036658Y030211D01*
X036678Y030231D01*
X036658D01*
X036638Y030251D01*
X036618Y030231D01*
X036598D01*
X036618Y030211D01*
X036598Y030191D01*
X036618D01*
X036638Y030171D01*
X038453Y030131D02*
X038493Y030171D01*
X038533D01*
X038493Y030211D01*
X038533Y030251D01*
X038493D01*
X038453Y030291D01*
X038413Y030251D01*
X038373D01*
X038413Y030211D01*
X038373Y030171D01*
X038413D01*
X038453Y030131D01*
Y030171D02*
X038473Y030191D01*
X038493D01*
X038473Y030211D01*
X038493Y030231D01*
X038473D01*
X038453Y030251D01*
X038433Y030231D01*
X038413D01*
X038433Y030211D01*
X038413Y030191D01*
X038433D01*
X038453Y030171D01*
X045588Y030746D02*
X045628Y030786D01*
X045668D01*
X045628Y030826D01*
X045668Y030866D01*
X045628D01*
X045588Y030906D01*
X045548Y030866D01*
X045508D01*
X045548Y030826D01*
X045508Y030786D01*
X045548D01*
X045588Y030746D01*
Y030786D02*
X045608Y030806D01*
X045628D01*
X045608Y030826D01*
X045628Y030846D01*
X045608D01*
X045588Y030866D01*
X045568Y030846D01*
X045548D01*
X045568Y030826D01*
X045548Y030806D01*
X045568D01*
X045588Y030786D01*
X046089Y03249D02*
X046129Y03253D01*
X046169D01*
X046129Y03257D01*
X046169Y03261D01*
X046129D01*
X046089Y03265D01*
X046049Y03261D01*
X046009D01*
X046049Y03257D01*
X046009Y03253D01*
X046049D01*
X046089Y03249D01*
Y03253D02*
X046109Y03255D01*
X046129D01*
X046109Y03257D01*
X046129Y03259D01*
X046109D01*
X046089Y03261D01*
X046069Y03259D01*
X046049D01*
X046069Y03257D01*
X046049Y03255D01*
X046069D01*
X046089Y03253D01*
Y034305D02*
X046129Y034345D01*
X046169D01*
X046129Y034385D01*
X046169Y034425D01*
X046129D01*
X046089Y034465D01*
X046049Y034425D01*
X046009D01*
X046049Y034385D01*
X046009Y034345D01*
X046049D01*
X046089Y034305D01*
Y034345D02*
X046109Y034365D01*
X046129D01*
X046109Y034385D01*
X046129Y034405D01*
X046109D01*
X046089Y034425D01*
X046069Y034405D01*
X046049D01*
X046069Y034385D01*
X046049Y034365D01*
X046069D01*
X046089Y034345D01*
Y03612D02*
X046129Y03616D01*
X046169D01*
X046129Y0362D01*
X046169Y03624D01*
X046129D01*
X046089Y03628D01*
X046049Y03624D01*
X046009D01*
X046049Y0362D01*
X046009Y03616D01*
X046049D01*
X046089Y03612D01*
Y03616D02*
X046109Y03618D01*
X046129D01*
X046109Y0362D01*
X046129Y03622D01*
X046109D01*
X046089Y03624D01*
X046069Y03622D01*
X046049D01*
X046069Y0362D01*
X046049Y03618D01*
X046069D01*
X046089Y03616D01*
Y037935D02*
X046129Y037975D01*
X046169D01*
X046129Y038015D01*
X046169Y038055D01*
X046129D01*
X046089Y038095D01*
X046049Y038055D01*
X046009D01*
X046049Y038015D01*
X046009Y037975D01*
X046049D01*
X046089Y037935D01*
Y037975D02*
X046109Y037995D01*
X046129D01*
X046109Y038015D01*
X046129Y038035D01*
X046109D01*
X046089Y038055D01*
X046069Y038035D01*
X046049D01*
X046069Y038015D01*
X046049Y037995D01*
X046069D01*
X046089Y037975D01*
Y03975D02*
X046129Y03979D01*
X046169D01*
X046129Y03983D01*
X046169Y03987D01*
X046129D01*
X046089Y03991D01*
X046049Y03987D01*
X046009D01*
X046049Y03983D01*
X046009Y03979D01*
X046049D01*
X046089Y03975D01*
Y03979D02*
X046109Y03981D01*
X046129D01*
X046109Y03983D01*
X046129Y03985D01*
X046109D01*
X046089Y03987D01*
X046069Y03985D01*
X046049D01*
X046069Y03983D01*
X046049Y03981D01*
X046069D01*
X046089Y03979D01*
Y041565D02*
X046129Y041605D01*
X046169D01*
X046129Y041645D01*
X046169Y041685D01*
X046129D01*
X046089Y041725D01*
X046049Y041685D01*
X046009D01*
X046049Y041645D01*
X046009Y041605D01*
X046049D01*
X046089Y041565D01*
Y041605D02*
X046109Y041625D01*
X046129D01*
X046109Y041645D01*
X046129Y041665D01*
X046109D01*
X046089Y041685D01*
X046069Y041665D01*
X046049D01*
X046069Y041645D01*
X046049Y041625D01*
X046069D01*
X046089Y041605D01*
Y04338D02*
X046129Y04342D01*
X046169D01*
X046129Y04346D01*
X046169Y0435D01*
X046129D01*
X046089Y04354D01*
X046049Y0435D01*
X046009D01*
X046049Y04346D01*
X046009Y04342D01*
X046049D01*
X046089Y04338D01*
Y04342D02*
X046109Y04344D01*
X046129D01*
X046109Y04346D01*
X046129Y04348D01*
X046109D01*
X046089Y0435D01*
X046069Y04348D01*
X046049D01*
X046069Y04346D01*
X046049Y04344D01*
X046069D01*
X046089Y04342D01*
X045603Y045129D02*
X045643Y045169D01*
X045683D01*
X045643Y045209D01*
X045683Y045249D01*
X045643D01*
X045603Y045289D01*
X045563Y045249D01*
X045523D01*
X045563Y045209D01*
X045523Y045169D01*
X045563D01*
X045603Y045129D01*
Y045169D02*
X045623Y045189D01*
X045643D01*
X045623Y045209D01*
X045643Y045229D01*
X045623D01*
X045603Y045249D01*
X045583Y045229D01*
X045563D01*
X045583Y045209D01*
X045563Y045189D01*
X045583D01*
X045603Y045169D01*
X04432Y046412D02*
X04436Y046452D01*
X0444D01*
X04436Y046492D01*
X0444Y046532D01*
X04436D01*
X04432Y046572D01*
X04428Y046532D01*
X04424D01*
X04428Y046492D01*
X04424Y046452D01*
X04428D01*
X04432Y046412D01*
Y046452D02*
X04434Y046472D01*
X04436D01*
X04434Y046492D01*
X04436Y046512D01*
X04434D01*
X04432Y046532D01*
X0443Y046512D01*
X04428D01*
X0443Y046492D01*
X04428Y046472D01*
X0443D01*
X04432Y046452D01*
X041753Y048979D02*
X041793Y049019D01*
X041833D01*
X041793Y049059D01*
X041833Y049099D01*
X041793D01*
X041753Y049139D01*
X041713Y049099D01*
X041673D01*
X041713Y049059D01*
X041673Y049019D01*
X041713D01*
X041753Y048979D01*
Y049019D02*
X041773Y049039D01*
X041793D01*
X041773Y049059D01*
X041793Y049079D01*
X041773D01*
X041753Y049099D01*
X041733Y049079D01*
X041713D01*
X041733Y049059D01*
X041713Y049039D01*
X041733D01*
X041753Y049019D01*
X03999Y049409D02*
X04003Y049449D01*
X04007D01*
X04003Y049489D01*
X04007Y049529D01*
X04003D01*
X03999Y049569D01*
X03995Y049529D01*
X03991D01*
X03995Y049489D01*
X03991Y049449D01*
X03995D01*
X03999Y049409D01*
Y049449D02*
X04001Y049469D01*
X04003D01*
X04001Y049489D01*
X04003Y049509D01*
X04001D01*
X03999Y049529D01*
X03997Y049509D01*
X03995D01*
X03997Y049489D01*
X03995Y049469D01*
X03997D01*
X03999Y049449D01*
X038175Y049409D02*
X038215Y049449D01*
X038255D01*
X038215Y049489D01*
X038255Y049529D01*
X038215D01*
X038175Y049569D01*
X038135Y049529D01*
X038095D01*
X038135Y049489D01*
X038095Y049449D01*
X038135D01*
X038175Y049409D01*
Y049449D02*
X038195Y049469D01*
X038215D01*
X038195Y049489D01*
X038215Y049509D01*
X038195D01*
X038175Y049529D01*
X038155Y049509D01*
X038135D01*
X038155Y049489D01*
X038135Y049469D01*
X038155D01*
X038175Y049449D01*
X03636Y049409D02*
X0364Y049449D01*
X03644D01*
X0364Y049489D01*
X03644Y049529D01*
X0364D01*
X03636Y049569D01*
X03632Y049529D01*
X03628D01*
X03632Y049489D01*
X03628Y049449D01*
X03632D01*
X03636Y049409D01*
Y049449D02*
X03638Y049469D01*
X0364D01*
X03638Y049489D01*
X0364Y049509D01*
X03638D01*
X03636Y049529D01*
X03634Y049509D01*
X03632D01*
X03634Y049489D01*
X03632Y049469D01*
X03634D01*
X03636Y049449D01*
X034545Y049409D02*
X034585Y049449D01*
X034625D01*
X034585Y049489D01*
X034625Y049529D01*
X034585D01*
X034545Y049569D01*
X034505Y049529D01*
X034465D01*
X034505Y049489D01*
X034465Y049449D01*
X034505D01*
X034545Y049409D01*
Y049449D02*
X034565Y049469D01*
X034585D01*
X034565Y049489D01*
X034585Y049509D01*
X034565D01*
X034545Y049529D01*
X034525Y049509D01*
X034505D01*
X034525Y049489D01*
X034505Y049469D01*
X034525D01*
X034545Y049449D01*
X03273Y049409D02*
X03277Y049449D01*
X03281D01*
X03277Y049489D01*
X03281Y049529D01*
X03277D01*
X03273Y049569D01*
X03269Y049529D01*
X03265D01*
X03269Y049489D01*
X03265Y049449D01*
X03269D01*
X03273Y049409D01*
Y049449D02*
X03275Y049469D01*
X03277D01*
X03275Y049489D01*
X03277Y049509D01*
X03275D01*
X03273Y049529D01*
X03271Y049509D01*
X03269D01*
X03271Y049489D01*
X03269Y049469D01*
X03271D01*
X03273Y049449D01*
X030938Y049121D02*
X030978Y049161D01*
X031018D01*
X030978Y049201D01*
X031018Y049241D01*
X030978D01*
X030938Y049281D01*
X030898Y049241D01*
X030858D01*
X030898Y049201D01*
X030858Y049161D01*
X030898D01*
X030938Y049121D01*
Y049161D02*
X030958Y049181D01*
X030978D01*
X030958Y049201D01*
X030978Y049221D01*
X030958D01*
X030938Y049241D01*
X030918Y049221D01*
X030898D01*
X030918Y049201D01*
X030898Y049181D01*
X030918D01*
X030938Y049161D01*
X030161Y04748D02*
X030201Y04752D01*
X030241D01*
X030201Y04756D01*
X030241Y0476D01*
X030201D01*
X030161Y04764D01*
X030121Y0476D01*
X030081D01*
X030121Y04756D01*
X030081Y04752D01*
X030121D01*
X030161Y04748D01*
Y04752D02*
X030181Y04754D01*
X030201D01*
X030181Y04756D01*
X030201Y04758D01*
X030181D01*
X030161Y0476D01*
X030141Y04758D01*
X030121D01*
X030141Y04756D01*
X030121Y04754D01*
X030141D01*
X030161Y04752D01*
X03005Y04412D02*
X03009Y04416D01*
X03013D01*
X03009Y0442D01*
X03013Y04424D01*
X03009D01*
X03005Y04428D01*
X03001Y04424D01*
X02997D01*
X03001Y0442D01*
X02997Y04416D01*
X03001D01*
X03005Y04412D01*
Y04416D02*
X03007Y04418D01*
X03009D01*
X03007Y0442D01*
X03009Y04422D01*
X03007D01*
X03005Y04424D01*
X03003Y04422D01*
X03001D01*
X03003Y0442D01*
X03001Y04418D01*
X03003D01*
X03005Y04416D01*
X028Y04397D02*
X02804Y04401D01*
X02808D01*
X02804Y04405D01*
X02808Y04409D01*
X02804D01*
X028Y04413D01*
X02796Y04409D01*
X02792D01*
X02796Y04405D01*
X02792Y04401D01*
X02796D01*
X028Y04397D01*
Y04401D02*
X02802Y04403D01*
X02804D01*
X02802Y04405D01*
X02804Y04407D01*
X02802D01*
X028Y04409D01*
X02798Y04407D01*
X02796D01*
X02798Y04405D01*
X02796Y04403D01*
X02798D01*
X028Y04401D01*
X02275Y03772D02*
X02279Y03776D01*
X02283D01*
X02279Y0378D01*
X02283Y03784D01*
X02279D01*
X02275Y03788D01*
X02271Y03784D01*
X02267D01*
X02271Y0378D01*
X02267Y03776D01*
X02271D01*
X02275Y03772D01*
Y03776D02*
X02277Y03778D01*
X02279D01*
X02277Y0378D01*
X02279Y03782D01*
X02277D01*
X02275Y03784D01*
X02273Y03782D01*
X02271D01*
X02273Y0378D01*
X02271Y03778D01*
X02273D01*
X02275Y03776D01*
X0236Y036962D02*
X02364Y037002D01*
X02368D01*
X02364Y037042D01*
X02368Y037082D01*
X02364D01*
X0236Y037122D01*
X02356Y037082D01*
X02352D01*
X02356Y037042D01*
X02352Y037002D01*
X02356D01*
X0236Y036962D01*
Y037002D02*
X02362Y037022D01*
X02364D01*
X02362Y037042D01*
X02364Y037062D01*
X02362D01*
X0236Y037082D01*
X02358Y037062D01*
X02356D01*
X02358Y037042D01*
X02356Y037022D01*
X02358D01*
X0236Y037002D01*
X0216Y038847D02*
X02164Y038887D01*
X02168D01*
X02164Y038927D01*
X02168Y038967D01*
X02164D01*
X0216Y039007D01*
X02156Y038967D01*
X02152D01*
X02156Y038927D01*
X02152Y038887D01*
X02156D01*
X0216Y038847D01*
Y038887D02*
X02162Y038907D01*
X02164D01*
X02162Y038927D01*
X02164Y038947D01*
X02162D01*
X0216Y038967D01*
X02158Y038947D01*
X02156D01*
X02158Y038927D01*
X02156Y038907D01*
X02158D01*
X0216Y038887D01*
X0228Y04007D02*
X02284Y04011D01*
X02288D01*
X02284Y04015D01*
X02288Y04019D01*
X02284D01*
X0228Y04023D01*
X02276Y04019D01*
X02272D01*
X02276Y04015D01*
X02272Y04011D01*
X02276D01*
X0228Y04007D01*
Y04011D02*
X02282Y04013D01*
X02284D01*
X02282Y04015D01*
X02284Y04017D01*
X02282D01*
X0228Y04019D01*
X02278Y04017D01*
X02276D01*
X02278Y04015D01*
X02276Y04013D01*
X02278D01*
X0228Y04011D01*
X034076Y041404D02*
X034116Y041444D01*
X034156D01*
X034116Y041484D01*
X034156Y041524D01*
X034116D01*
X034076Y041564D01*
X034036Y041524D01*
X033996D01*
X034036Y041484D01*
X033996Y041444D01*
X034036D01*
X034076Y041404D01*
Y041444D02*
X034096Y041464D01*
X034116D01*
X034096Y041484D01*
X034116Y041504D01*
X034096D01*
X034076Y041524D01*
X034056Y041504D01*
X034036D01*
X034056Y041484D01*
X034036Y041464D01*
X034056D01*
X034076Y041444D01*
X03594Y046856D02*
X03598Y046896D01*
X03602D01*
X03598Y046936D01*
X03602Y046976D01*
X03598D01*
X03594Y047016D01*
X0359Y046976D01*
X03586D01*
X0359Y046936D01*
X03586Y046896D01*
X0359D01*
X03594Y046856D01*
Y046896D02*
X03596Y046916D01*
X03598D01*
X03596Y046936D01*
X03598Y046956D01*
X03596D01*
X03594Y046976D01*
X03592Y046956D01*
X0359D01*
X03592Y046936D01*
X0359Y046916D01*
X03592D01*
X03594Y046896D01*
X035112Y045834D02*
X035152Y045874D01*
X035192D01*
X035152Y045914D01*
X035192Y045954D01*
X035152D01*
X035112Y045994D01*
X035072Y045954D01*
X035032D01*
X035072Y045914D01*
X035032Y045874D01*
X035072D01*
X035112Y045834D01*
Y045874D02*
X035132Y045894D01*
X035152D01*
X035132Y045914D01*
X035152Y045934D01*
X035132D01*
X035112Y045954D01*
X035092Y045934D01*
X035072D01*
X035092Y045914D01*
X035072Y045894D01*
X035092D01*
X035112Y045874D01*
X032482Y045834D02*
X032522Y045874D01*
X032562D01*
X032522Y045914D01*
X032562Y045954D01*
X032522D01*
X032482Y045994D01*
X032442Y045954D01*
X032402D01*
X032442Y045914D01*
X032402Y045874D01*
X032442D01*
X032482Y045834D01*
Y045874D02*
X032502Y045894D01*
X032522D01*
X032502Y045914D01*
X032522Y045934D01*
X032502D01*
X032482Y045954D01*
X032462Y045934D01*
X032442D01*
X032462Y045914D01*
X032442Y045894D01*
X032462D01*
X032482Y045874D01*
X031314Y045232D02*
X031354Y045272D01*
X031394D01*
X031354Y045312D01*
X031394Y045352D01*
X031354D01*
X031314Y045392D01*
X031274Y045352D01*
X031234D01*
X031274Y045312D01*
X031234Y045272D01*
X031274D01*
X031314Y045232D01*
Y045272D02*
X031334Y045292D01*
X031354D01*
X031334Y045312D01*
X031354Y045332D01*
X031334D01*
X031314Y045352D01*
X031294Y045332D01*
X031274D01*
X031294Y045312D01*
X031274Y045292D01*
X031294D01*
X031314Y045272D01*
X02877Y045661D02*
X028811Y045701D01*
X028851D01*
X028811Y045741D01*
X028851Y045781D01*
X028811D01*
X02877Y045821D01*
X02873Y045781D01*
X028691D01*
X02873Y045741D01*
X028691Y045701D01*
X02873D01*
X02877Y045661D01*
Y045701D02*
X028791Y045721D01*
X028811D01*
X028791Y045741D01*
X028811Y045761D01*
X028791D01*
X02877Y045781D01*
X028751Y045761D01*
X02873D01*
X028751Y045741D01*
X02873Y045721D01*
X028751D01*
X02877Y045701D01*
X023149Y043656D02*
X023189Y043696D01*
X023229D01*
X023189Y043736D01*
X023229Y043776D01*
X023189D01*
X023149Y043816D01*
X023109Y043776D01*
X023069D01*
X023109Y043736D01*
X023069Y043696D01*
X023109D01*
X023149Y043656D01*
Y043696D02*
X023169Y043716D01*
X023189D01*
X023169Y043736D01*
X023189Y043756D01*
X023169D01*
X023149Y043776D01*
X023129Y043756D01*
X023109D01*
X023129Y043736D01*
X023109Y043716D01*
X023129D01*
X023149Y043696D01*
X024464Y043656D02*
X024504Y043696D01*
X024544D01*
X024504Y043736D01*
X024544Y043776D01*
X024504D01*
X024464Y043816D01*
X024424Y043776D01*
X024384D01*
X024424Y043736D01*
X024384Y043696D01*
X024424D01*
X024464Y043656D01*
Y043696D02*
X024484Y043716D01*
X024504D01*
X024484Y043736D01*
X024504Y043756D01*
X024484D01*
X024464Y043776D01*
X024444Y043756D01*
X024424D01*
X024444Y043736D01*
X024424Y043716D01*
X024444D01*
X024464Y043696D01*
X025717Y044054D02*
X025757Y044094D01*
X025797D01*
X025757Y044134D01*
X025797Y044174D01*
X025757D01*
X025717Y044214D01*
X025677Y044174D01*
X025637D01*
X025677Y044134D01*
X025637Y044094D01*
X025677D01*
X025717Y044054D01*
Y044094D02*
X025737Y044114D01*
X025757D01*
X025737Y044134D01*
X025757Y044154D01*
X025737D01*
X025717Y044174D01*
X025697Y044154D01*
X025677D01*
X025697Y044134D01*
X025677Y044114D01*
X025697D01*
X025717Y044094D01*
X026544Y045077D02*
X026584Y045117D01*
X026624D01*
X026584Y045157D01*
X026624Y045197D01*
X026584D01*
X026544Y045237D01*
X026504Y045197D01*
X026464D01*
X026504Y045157D01*
X026464Y045117D01*
X026504D01*
X026544Y045077D01*
Y045117D02*
X026564Y045137D01*
X026584D01*
X026564Y045157D01*
X026584Y045177D01*
X026564D01*
X026544Y045197D01*
X026524Y045177D01*
X026504D01*
X026524Y045157D01*
X026504Y045137D01*
X026524D01*
X026544Y045117D01*
X026549Y046392D02*
X026589Y046432D01*
X026629D01*
X026589Y046472D01*
X026629Y046512D01*
X026589D01*
X026549Y046552D01*
X026509Y046512D01*
X026469D01*
X026509Y046472D01*
X026469Y046432D01*
X026509D01*
X026549Y046392D01*
Y046432D02*
X026569Y046452D01*
X026589D01*
X026569Y046472D01*
X026589Y046492D01*
X026569D01*
X026549Y046512D01*
X026529Y046492D01*
X026509D01*
X026529Y046472D01*
X026509Y046452D01*
X026529D01*
X026549Y046432D01*
X02665Y047662D02*
X02669Y047702D01*
X02673D01*
X02669Y047742D01*
X02673Y047782D01*
X02669D01*
X02665Y047822D01*
X02661Y047782D01*
X02657D01*
X02661Y047742D01*
X02657Y047702D01*
X02661D01*
X02665Y047662D01*
Y047702D02*
X02667Y047722D01*
X02669D01*
X02667Y047742D01*
X02669Y047762D01*
X02667D01*
X02665Y047782D01*
X02663Y047762D01*
X02661D01*
X02663Y047742D01*
X02661Y047722D01*
X02663D01*
X02665Y047702D01*
X024215Y044784D02*
X024255Y044824D01*
X024295D01*
X024255Y044864D01*
X024295Y044904D01*
X024255D01*
X024215Y044944D01*
X024175Y044904D01*
X024135D01*
X024175Y044864D01*
X024135Y044824D01*
X024175D01*
X024215Y044784D01*
Y044824D02*
X024235Y044844D01*
X024255D01*
X024235Y044864D01*
X024255Y044884D01*
X024235D01*
X024215Y044904D01*
X024195Y044884D01*
X024175D01*
X024195Y044864D01*
X024175Y044844D01*
X024195D01*
X024215Y044824D01*
X022914Y044978D02*
X022954Y045018D01*
X022994D01*
X022954Y045058D01*
X022994Y045098D01*
X022954D01*
X022914Y045138D01*
X022874Y045098D01*
X022834D01*
X022874Y045058D01*
X022834Y045018D01*
X022874D01*
X022914Y044978D01*
Y045018D02*
X022934Y045038D01*
X022954D01*
X022934Y045058D01*
X022954Y045078D01*
X022934D01*
X022914Y045098D01*
X022894Y045078D01*
X022874D01*
X022894Y045058D01*
X022874Y045038D01*
X022894D01*
X022914Y045018D01*
X022434Y046202D02*
X022474Y046242D01*
X022514D01*
X022474Y046282D01*
X022514Y046322D01*
X022474D01*
X022434Y046362D01*
X022394Y046322D01*
X022354D01*
X022394Y046282D01*
X022354Y046242D01*
X022394D01*
X022434Y046202D01*
Y046242D02*
X022454Y046262D01*
X022474D01*
X022454Y046282D01*
X022474Y046302D01*
X022454D01*
X022434Y046322D01*
X022414Y046302D01*
X022394D01*
X022414Y046282D01*
X022394Y046262D01*
X022414D01*
X022434Y046242D01*
X021786Y045242D02*
X021826Y045282D01*
X021866D01*
X021826Y045322D01*
X021866Y045362D01*
X021826D01*
X021786Y045402D01*
X021746Y045362D01*
X021706D01*
X021746Y045322D01*
X021706Y045282D01*
X021746D01*
X021786Y045242D01*
Y045282D02*
X021806Y045302D01*
X021826D01*
X021806Y045322D01*
X021826Y045342D01*
X021806D01*
X021786Y045362D01*
X021766Y045342D01*
X021746D01*
X021766Y045322D01*
X021746Y045302D01*
X021766D01*
X021786Y045282D01*
Y043743D02*
X021826Y043783D01*
X021866D01*
X021826Y043823D01*
X021866Y043863D01*
X021826D01*
X021786Y043903D01*
X021746Y043863D01*
X021706D01*
X021746Y043823D01*
X021706Y043783D01*
X021746D01*
X021786Y043743D01*
Y043783D02*
X021806Y043803D01*
X021826D01*
X021806Y043823D01*
X021826Y043843D01*
X021806D01*
X021786Y043863D01*
X021766Y043843D01*
X021746D01*
X021766Y043823D01*
X021746Y043803D01*
X021766D01*
X021786Y043783D01*
Y042429D02*
X021826Y042469D01*
X021866D01*
X021826Y042509D01*
X021866Y042549D01*
X021826D01*
X021786Y042589D01*
X021746Y042549D01*
X021706D01*
X021746Y042509D01*
X021706Y042469D01*
X021746D01*
X021786Y042429D01*
Y042469D02*
X021806Y042489D01*
X021826D01*
X021806Y042509D01*
X021826Y042529D01*
X021806D01*
X021786Y042549D01*
X021766Y042529D01*
X021746D01*
X021766Y042509D01*
X021746Y042489D01*
X021766D01*
X021786Y042469D01*
X02115Y041351D02*
X02119Y041391D01*
X02123D01*
X02119Y041431D01*
X02123Y041471D01*
X02119D01*
X02115Y041511D01*
X02111Y041471D01*
X02107D01*
X02111Y041431D01*
X02107Y041391D01*
X02111D01*
X02115Y041351D01*
Y041391D02*
X02117Y041411D01*
X02119D01*
X02117Y041431D01*
X02119Y041451D01*
X02117D01*
X02115Y041471D01*
X02113Y041451D01*
X02111D01*
X02113Y041431D01*
X02111Y041411D01*
X02113D01*
X02115Y041391D01*
X014294Y038847D02*
X014334Y038887D01*
X014374D01*
X014334Y038927D01*
X014374Y038967D01*
X014334D01*
X014294Y039007D01*
X014254Y038967D01*
X014214D01*
X014254Y038927D01*
X014214Y038887D01*
X014254D01*
X014294Y038847D01*
Y038887D02*
X014314Y038907D01*
X014334D01*
X014314Y038927D01*
X014334Y038947D01*
X014314D01*
X014294Y038967D01*
X014274Y038947D01*
X014254D01*
X014274Y038927D01*
X014254Y038907D01*
X014274D01*
X014294Y038887D01*
X01432Y037533D02*
X01436Y037573D01*
X0144D01*
X01436Y037613D01*
X0144Y037653D01*
X01436D01*
X01432Y037693D01*
X01428Y037653D01*
X01424D01*
X01428Y037613D01*
X01424Y037573D01*
X01428D01*
X01432Y037533D01*
Y037573D02*
X01434Y037593D01*
X01436D01*
X01434Y037613D01*
X01436Y037633D01*
X01434D01*
X01432Y037653D01*
X0143Y037633D01*
X01428D01*
X0143Y037613D01*
X01428Y037593D01*
X0143D01*
X01432Y037573D01*
X015844Y036239D02*
X015884Y036279D01*
X015924D01*
X015884Y036319D01*
X015924Y036359D01*
X015884D01*
X015844Y036399D01*
X015804Y036359D01*
X015764D01*
X015804Y036319D01*
X015764Y036279D01*
X015804D01*
X015844Y036239D01*
Y036279D02*
X015864Y036299D01*
X015884D01*
X015864Y036319D01*
X015884Y036339D01*
X015864D01*
X015844Y036359D01*
X015824Y036339D01*
X015804D01*
X015824Y036319D01*
X015804Y036299D01*
X015824D01*
X015844Y036279D01*
X015449Y037552D02*
X015489Y037592D01*
X015529D01*
X015489Y037632D01*
X015529Y037672D01*
X015489D01*
X015449Y037712D01*
X015409Y037672D01*
X015369D01*
X015409Y037632D01*
X015369Y037592D01*
X015409D01*
X015449Y037552D01*
Y037592D02*
X015469Y037612D01*
X015489D01*
X015469Y037632D01*
X015489Y037652D01*
X015469D01*
X015449Y037672D01*
X015429Y037652D01*
X015409D01*
X015429Y037632D01*
X015409Y037612D01*
X015429D01*
X015449Y037592D01*
X015844Y038806D02*
X015884Y038846D01*
X015924D01*
X015884Y038886D01*
X015924Y038926D01*
X015884D01*
X015844Y038966D01*
X015804Y038926D01*
X015764D01*
X015804Y038886D01*
X015764Y038846D01*
X015804D01*
X015844Y038806D01*
Y038846D02*
X015864Y038866D01*
X015884D01*
X015864Y038886D01*
X015884Y038906D01*
X015864D01*
X015844Y038926D01*
X015824Y038906D01*
X015804D01*
X015824Y038886D01*
X015804Y038866D01*
X015824D01*
X015844Y038846D01*
X017159Y038806D02*
X017199Y038846D01*
X017239D01*
X017199Y038886D01*
X017239Y038926D01*
X017199D01*
X017159Y038966D01*
X017119Y038926D01*
X017079D01*
X017119Y038886D01*
X017079Y038846D01*
X017119D01*
X017159Y038806D01*
Y038846D02*
X017179Y038866D01*
X017199D01*
X017179Y038886D01*
X017199Y038906D01*
X017179D01*
X017159Y038926D01*
X017139Y038906D01*
X017119D01*
X017139Y038886D01*
X017119Y038866D01*
X017139D01*
X017159Y038846D01*
X0201Y038921D02*
X02014Y038961D01*
X02018D01*
X02014Y039001D01*
X02018Y039041D01*
X02014D01*
X0201Y039081D01*
X02006Y039041D01*
X02002D01*
X02006Y039001D01*
X02002Y038961D01*
X02006D01*
X0201Y038921D01*
Y038961D02*
X02012Y038981D01*
X02014D01*
X02012Y039001D01*
X02014Y039021D01*
X02012D01*
X0201Y039041D01*
X02008Y039021D01*
X02006D01*
X02008Y039001D01*
X02006Y038981D01*
X02008D01*
X0201Y038961D01*
X02285Y04252D02*
X02289Y04256D01*
X02293D01*
X02289Y0426D01*
X02293Y04264D01*
X02289D01*
X02285Y04268D01*
X02281Y04264D01*
X02277D01*
X02281Y0426D01*
X02277Y04256D01*
X02281D01*
X02285Y04252D01*
Y04256D02*
X02287Y04258D01*
X02289D01*
X02287Y0426D01*
X02289Y04262D01*
X02287D01*
X02285Y04264D01*
X02283Y04262D01*
X02281D01*
X02283Y0426D01*
X02281Y04258D01*
X02283D01*
X02285Y04256D01*
X027Y042555D02*
X02704Y042595D01*
X02708D01*
X02704Y042635D01*
X02708Y042675D01*
X02704D01*
X027Y042715D01*
X02696Y042675D01*
X02692D01*
X02696Y042635D01*
X02692Y042595D01*
X02696D01*
X027Y042555D01*
Y042595D02*
X02702Y042615D01*
X02704D01*
X02702Y042635D01*
X02704Y042655D01*
X02702D01*
X027Y042675D01*
X02698Y042655D01*
X02696D01*
X02698Y042635D01*
X02696Y042615D01*
X02698D01*
X027Y042595D01*
X029503Y04257D02*
X029543Y04261D01*
X029583D01*
X029543Y04265D01*
X029583Y04269D01*
X029543D01*
X029503Y04273D01*
X029463Y04269D01*
X029423D01*
X029463Y04265D01*
X029423Y04261D01*
X029463D01*
X029503Y04257D01*
Y04261D02*
X029523Y04263D01*
X029543D01*
X029523Y04265D01*
X029543Y04267D01*
X029523D01*
X029503Y04269D01*
X029483Y04267D01*
X029463D01*
X029483Y04265D01*
X029463Y04263D01*
X029483D01*
X029503Y04261D01*
X030743Y043065D02*
X030783Y043105D01*
X030823D01*
X030783Y043145D01*
X030823Y043185D01*
X030783D01*
X030743Y043225D01*
X030703Y043185D01*
X030663D01*
X030703Y043145D01*
X030663Y043105D01*
X030703D01*
X030743Y043065D01*
Y043105D02*
X030763Y043125D01*
X030783D01*
X030763Y043145D01*
X030783Y043165D01*
X030763D01*
X030743Y043185D01*
X030723Y043165D01*
X030703D01*
X030723Y043145D01*
X030703Y043125D01*
X030723D01*
X030743Y043105D01*
X031817Y04422D02*
X031857Y04426D01*
X031897D01*
X031857Y0443D01*
X031897Y04434D01*
X031857D01*
X031817Y04438D01*
X031777Y04434D01*
X031737D01*
X031777Y0443D01*
X031737Y04426D01*
X031777D01*
X031817Y04422D01*
Y04426D02*
X031837Y04428D01*
X031857D01*
X031837Y0443D01*
X031857Y04432D01*
X031837D01*
X031817Y04434D01*
X031797Y04432D01*
X031777D01*
X031797Y0443D01*
X031777Y04428D01*
X031797D01*
X031817Y04426D01*
X032947Y041689D02*
X032987Y041729D01*
X033027D01*
X032987Y041769D01*
X033027Y041809D01*
X032987D01*
X032947Y041849D01*
X032907Y041809D01*
X032867D01*
X032907Y041769D01*
X032867Y041729D01*
X032907D01*
X032947Y041689D01*
Y041729D02*
X032967Y041749D01*
X032987D01*
X032967Y041769D01*
X032987Y041789D01*
X032967D01*
X032947Y041809D01*
X032927Y041789D01*
X032907D01*
X032927Y041769D01*
X032907Y041749D01*
X032927D01*
X032947Y041729D01*
Y040374D02*
X032987Y040414D01*
X033027D01*
X032987Y040454D01*
X033027Y040494D01*
X032987D01*
X032947Y040534D01*
X032907Y040494D01*
X032867D01*
X032907Y040454D01*
X032867Y040414D01*
X032907D01*
X032947Y040374D01*
Y040414D02*
X032967Y040434D01*
X032987D01*
X032967Y040454D01*
X032987Y040474D01*
X032967D01*
X032947Y040494D01*
X032927Y040474D01*
X032907D01*
X032927Y040454D01*
X032907Y040434D01*
X032927D01*
X032947Y040414D01*
Y039059D02*
X032987Y039099D01*
X033027D01*
X032987Y039139D01*
X033027Y039179D01*
X032987D01*
X032947Y039219D01*
X032907Y039179D01*
X032867D01*
X032907Y039139D01*
X032867Y039099D01*
X032907D01*
X032947Y039059D01*
Y039099D02*
X032967Y039119D01*
X032987D01*
X032967Y039139D01*
X032987Y039159D01*
X032967D01*
X032947Y039179D01*
X032927Y039159D01*
X032907D01*
X032927Y039139D01*
X032907Y039119D01*
X032927D01*
X032947Y039099D01*
X033469Y037852D02*
X033509Y037892D01*
X033549D01*
X033509Y037932D01*
X033549Y037972D01*
X033509D01*
X033469Y038012D01*
X033429Y037972D01*
X033389D01*
X033429Y037932D01*
X033389Y037892D01*
X033429D01*
X033469Y037852D01*
Y037892D02*
X033489Y037912D01*
X033509D01*
X033489Y037932D01*
X033509Y037952D01*
X033489D01*
X033469Y037972D01*
X033449Y037952D01*
X033429D01*
X033449Y037932D01*
X033429Y037912D01*
X033449D01*
X033469Y037892D01*
X034399Y036923D02*
X034439Y036963D01*
X034479D01*
X034439Y037003D01*
X034479Y037043D01*
X034439D01*
X034399Y037083D01*
X034359Y037043D01*
X034319D01*
X034359Y037003D01*
X034319Y036963D01*
X034359D01*
X034399Y036923D01*
Y036963D02*
X034419Y036983D01*
X034439D01*
X034419Y037003D01*
X034439Y037023D01*
X034419D01*
X034399Y037043D01*
X034379Y037023D01*
X034359D01*
X034379Y037003D01*
X034359Y036983D01*
X034379D01*
X034399Y036963D01*
X0365Y040794D02*
X03654Y040834D01*
X03658D01*
X03654Y040874D01*
X03658Y040914D01*
X03654D01*
X0365Y040954D01*
X03646Y040914D01*
X03642D01*
X03646Y040874D01*
X03642Y040834D01*
X03646D01*
X0365Y040794D01*
Y040834D02*
X03652Y040854D01*
X03654D01*
X03652Y040874D01*
X03654Y040894D01*
X03652D01*
X0365Y040914D01*
X03648Y040894D01*
X03646D01*
X03648Y040874D01*
X03646Y040854D01*
X03648D01*
X0365Y040834D01*
X035262Y040834D02*
X035302Y040874D01*
X035342D01*
X035302Y040914D01*
X035342Y040954D01*
X035302D01*
X035262Y040994D01*
X035222Y040954D01*
X035182D01*
X035222Y040914D01*
X035182Y040874D01*
X035222D01*
X035262Y040834D01*
Y040874D02*
X035282Y040894D01*
X035302D01*
X035282Y040914D01*
X035302Y040934D01*
X035282D01*
X035262Y040954D01*
X035242Y040934D01*
X035222D01*
X035242Y040914D01*
X035222Y040894D01*
X035242D01*
X035262Y040874D01*
X034076Y042719D02*
X034116Y042759D01*
X034156D01*
X034116Y042799D01*
X034156Y042839D01*
X034116D01*
X034076Y042879D01*
X034036Y042839D01*
X033996D01*
X034036Y042799D01*
X033996Y042759D01*
X034036D01*
X034076Y042719D01*
Y042759D02*
X034096Y042779D01*
X034116D01*
X034096Y042799D01*
X034116Y042819D01*
X034096D01*
X034076Y042839D01*
X034056Y042819D01*
X034036D01*
X034056Y042799D01*
X034036Y042779D01*
X034056D01*
X034076Y042759D01*
X035207Y044706D02*
X035247Y044746D01*
X035287D01*
X035247Y044786D01*
X035287Y044826D01*
X035247D01*
X035207Y044866D01*
X035167Y044826D01*
X035127D01*
X035167Y044786D01*
X035127Y044746D01*
X035167D01*
X035207Y044706D01*
Y044746D02*
X035227Y044766D01*
X035247D01*
X035227Y044786D01*
X035247Y044806D01*
X035227D01*
X035207Y044826D01*
X035187Y044806D01*
X035167D01*
X035187Y044786D01*
X035167Y044766D01*
X035187D01*
X035207Y044746D01*
X03685Y046314D02*
X03689Y046354D01*
X03693D01*
X03689Y046394D01*
X03693Y046434D01*
X03689D01*
X03685Y046474D01*
X03681Y046434D01*
X03677D01*
X03681Y046394D01*
X03677Y046354D01*
X03681D01*
X03685Y046314D01*
Y046354D02*
X03687Y046374D01*
X03689D01*
X03687Y046394D01*
X03689Y046414D01*
X03687D01*
X03685Y046434D01*
X03683Y046414D01*
X03681D01*
X03683Y046394D01*
X03681Y046374D01*
X03683D01*
X03685Y046354D01*
X038142Y046557D02*
X038182Y046596D01*
X038222D01*
X038182Y046637D01*
X038222Y046677D01*
X038182D01*
X038142Y046716D01*
X038102Y046677D01*
X038062D01*
X038102Y046637D01*
X038062Y046596D01*
X038102D01*
X038142Y046557D01*
Y046596D02*
X038162Y046617D01*
X038182D01*
X038162Y046637D01*
X038182Y046656D01*
X038162D01*
X038142Y046677D01*
X038122Y046656D01*
X038102D01*
X038122Y046637D01*
X038102Y046617D01*
X038122D01*
X038142Y046596D01*
X016785Y047399D02*
X016825Y047439D01*
X016865D01*
X016825Y047479D01*
X016865Y047519D01*
X016825D01*
X016785Y047559D01*
X016745Y047519D01*
X016705D01*
X016745Y047479D01*
X016705Y047439D01*
X016745D01*
X016785Y047399D01*
Y047439D02*
X016805Y047459D01*
X016825D01*
X016805Y047479D01*
X016825Y047499D01*
X016805D01*
X016785Y047519D01*
X016765Y047499D01*
X016745D01*
X016765Y047479D01*
X016745Y047459D01*
X016765D01*
X016785Y047439D01*
X018307Y04689D02*
X018347Y04693D01*
X018387D01*
X018347Y04697D01*
X018387Y04701D01*
X018347D01*
X018307Y04705D01*
X018267Y04701D01*
X018227D01*
X018267Y04697D01*
X018227Y04693D01*
X018267D01*
X018307Y04689D01*
Y04693D02*
X018327Y04695D01*
X018347D01*
X018327Y04697D01*
X018347Y04699D01*
X018327D01*
X018307Y04701D01*
X018287Y04699D01*
X018267D01*
X018287Y04697D01*
X018267Y04695D01*
X018287D01*
X018307Y04693D01*
X0185Y04542D02*
X01854Y04546D01*
X01858D01*
X01854Y0455D01*
X01858Y04554D01*
X01854D01*
X0185Y04558D01*
X01846Y04554D01*
X01842D01*
X01846Y0455D01*
X01842Y04546D01*
X01846D01*
X0185Y04542D01*
Y04546D02*
X01852Y04548D01*
X01854D01*
X01852Y0455D01*
X01854Y04552D01*
X01852D01*
X0185Y04554D01*
X01848Y04552D01*
X01846D01*
X01848Y0455D01*
X01846Y04548D01*
X01848D01*
X0185Y04546D01*
X01985Y044734D02*
X01989Y044774D01*
X01993D01*
X01989Y044814D01*
X01993Y044854D01*
X01989D01*
X01985Y044894D01*
X01981Y044854D01*
X01977D01*
X01981Y044814D01*
X01977Y044774D01*
X01981D01*
X01985Y044734D01*
Y044774D02*
X01987Y044794D01*
X01989D01*
X01987Y044814D01*
X01989Y044834D01*
X01987D01*
X01985Y044854D01*
X01983Y044834D01*
X01981D01*
X01983Y044814D01*
X01981Y044794D01*
X01983D01*
X01985Y044774D01*
X02115Y045242D02*
X02119Y045282D01*
X02123D01*
X02119Y045322D01*
X02123Y045362D01*
X02119D01*
X02115Y045402D01*
X02111Y045362D01*
X02107D01*
X02111Y045322D01*
X02107Y045282D01*
X02111D01*
X02115Y045242D01*
Y045282D02*
X02117Y045302D01*
X02119D01*
X02117Y045322D01*
X02119Y045342D01*
X02117D01*
X02115Y045362D01*
X02113Y045342D01*
X02111D01*
X02113Y045322D01*
X02111Y045302D01*
X02113D01*
X02115Y045282D01*
X0205Y04622D02*
X02054Y04626D01*
X02058D01*
X02054Y0463D01*
X02058Y04634D01*
X02054D01*
X0205Y04638D01*
X02046Y04634D01*
X02042D01*
X02046Y0463D01*
X02042Y04626D01*
X02046D01*
X0205Y04622D01*
Y04626D02*
X02052Y04628D01*
X02054D01*
X02052Y0463D01*
X02054Y04632D01*
X02052D01*
X0205Y04634D01*
X02048Y04632D01*
X02046D01*
X02048Y0463D01*
X02046Y04628D01*
X02048D01*
X0205Y04626D01*
X01954Y046985D02*
X01958Y047025D01*
X01962D01*
X01958Y047065D01*
X01962Y047105D01*
X01958D01*
X01954Y047145D01*
X0195Y047105D01*
X01946D01*
X0195Y047065D01*
X01946Y047025D01*
X0195D01*
X01954Y046985D01*
Y047025D02*
X01956Y047045D01*
X01958D01*
X01956Y047065D01*
X01958Y047085D01*
X01956D01*
X01954Y047105D01*
X01952Y047085D01*
X0195D01*
X01952Y047065D01*
X0195Y047045D01*
X01952D01*
X01954Y047025D01*
X039Y040893D02*
X03904Y040933D01*
X03908D01*
X03904Y040973D01*
X03908Y041013D01*
X03904D01*
X039Y041053D01*
X03896Y041013D01*
X03892D01*
X03896Y040973D01*
X03892Y040933D01*
X03896D01*
X039Y040893D01*
Y040933D02*
X03902Y040953D01*
X03904D01*
X03902Y040973D01*
X03904Y040993D01*
X03902D01*
X039Y041013D01*
X03898Y040993D01*
X03896D01*
X03898Y040973D01*
X03896Y040953D01*
X03898D01*
X039Y040933D01*
X03835Y040896D02*
X03839Y040936D01*
X03843D01*
X03839Y040976D01*
X03843Y041016D01*
X03839D01*
X03835Y041056D01*
X03831Y041016D01*
X03827D01*
X03831Y040976D01*
X03827Y040936D01*
X03831D01*
X03835Y040896D01*
Y040936D02*
X03837Y040956D01*
X03839D01*
X03837Y040976D01*
X03839Y040996D01*
X03837D01*
X03835Y041016D01*
X03833Y040996D01*
X03831D01*
X03833Y040976D01*
X03831Y040956D01*
X03833D01*
X03835Y040936D01*
X039Y041555D02*
X03904Y041595D01*
X03908D01*
X03904Y041635D01*
X03908Y041675D01*
X03904D01*
X039Y041715D01*
X03896Y041675D01*
X03892D01*
X03896Y041635D01*
X03892Y041595D01*
X03896D01*
X039Y041555D01*
Y041595D02*
X03902Y041615D01*
X03904D01*
X03902Y041635D01*
X03904Y041655D01*
X03902D01*
X039Y041675D01*
X03898Y041655D01*
X03896D01*
X03898Y041635D01*
X03896Y041615D01*
X03898D01*
X039Y041595D01*
X01673Y03586D02*
X01677Y0359D01*
X01681D01*
X01677Y03594D01*
X01681Y03598D01*
X01677D01*
X01673Y03602D01*
X01669Y03598D01*
X01665D01*
X01669Y03594D01*
X01665Y0359D01*
X01669D01*
X01673Y03586D01*
Y0359D02*
X01675Y03592D01*
X01677D01*
X01675Y03594D01*
X01677Y03596D01*
X01675D01*
X01673Y03598D01*
X01671Y03596D01*
X01669D01*
X01671Y03594D01*
X01669Y03592D01*
X01671D01*
X01673Y0359D01*
X028507Y044463D02*
X028547Y044503D01*
X028587D01*
X028547Y044543D01*
X028587Y044583D01*
X028547D01*
X028507Y044623D01*
X028467Y044583D01*
X028427D01*
X028467Y044543D01*
X028427Y044503D01*
X028467D01*
X028507Y044463D01*
Y044503D02*
X028527Y044523D01*
X028547D01*
X028527Y044543D01*
X028547Y044563D01*
X028527D01*
X028507Y044583D01*
X028487Y044563D01*
X028467D01*
X028487Y044543D01*
X028467Y044523D01*
X028487D01*
X028507Y044503D01*
X02235Y04307D02*
X02239Y04311D01*
X02243D01*
X02239Y04315D01*
X02243Y04319D01*
X02239D01*
X02235Y04323D01*
X02231Y04319D01*
X02227D01*
X02231Y04315D01*
X02227Y04311D01*
X02231D01*
X02235Y04307D01*
Y04311D02*
X02237Y04313D01*
X02239D01*
X02237Y04315D01*
X02239Y04317D01*
X02237D01*
X02235Y04319D01*
X02233Y04317D01*
X02231D01*
X02233Y04315D01*
X02231Y04313D01*
X02233D01*
X02235Y04311D01*
X02175Y036962D02*
X02179Y037002D01*
X02183D01*
X02179Y037042D01*
X02183Y037082D01*
X02179D01*
X02175Y037122D01*
X02171Y037082D01*
X02167D01*
X02171Y037042D01*
X02167Y037002D01*
X02171D01*
X02175Y036962D01*
Y037002D02*
X02177Y037022D01*
X02179D01*
X02177Y037042D01*
X02179Y037062D01*
X02177D01*
X02175Y037082D01*
X02173Y037062D01*
X02171D01*
X02173Y037042D01*
X02171Y037022D01*
X02173D01*
X02175Y037002D01*
X024444Y041592D02*
X024484Y041632D01*
X024524D01*
X024484Y041672D01*
X024524Y041712D01*
X024484D01*
X024444Y041752D01*
X024404Y041712D01*
X024364D01*
X024404Y041672D01*
X024364Y041632D01*
X024404D01*
X024444Y041592D01*
Y041632D02*
X024464Y041652D01*
X024484D01*
X024464Y041672D01*
X024484Y041692D01*
X024464D01*
X024444Y041712D01*
X024424Y041692D01*
X024404D01*
X024424Y041672D01*
X024404Y041652D01*
X024424D01*
X024444Y041632D01*
X028178Y041717D02*
X028218Y041757D01*
X028258D01*
X028218Y041797D01*
X028258Y041837D01*
X028218D01*
X028178Y041877D01*
X028138Y041837D01*
X028098D01*
X028138Y041797D01*
X028098Y041757D01*
X028138D01*
X028178Y041717D01*
Y041757D02*
X028198Y041777D01*
X028218D01*
X028198Y041797D01*
X028218Y041817D01*
X028198D01*
X028178Y041837D01*
X028158Y041817D01*
X028138D01*
X028158Y041797D01*
X028138Y041777D01*
X028158D01*
X028178Y041757D01*
X029322Y041727D02*
X029362Y041767D01*
X029402D01*
X029362Y041807D01*
X029402Y041847D01*
X029362D01*
X029322Y041887D01*
X029282Y041847D01*
X029242D01*
X029282Y041807D01*
X029242Y041767D01*
X029282D01*
X029322Y041727D01*
Y041767D02*
X029342Y041787D01*
X029362D01*
X029342Y041807D01*
X029362Y041827D01*
X029342D01*
X029322Y041847D01*
X029302Y041827D01*
X029282D01*
X029302Y041807D01*
X029282Y041787D01*
X029302D01*
X029322Y041767D01*
X0417Y035985D02*
X04174Y036025D01*
X04178D01*
X04174Y036065D01*
X04178Y036105D01*
X04174D01*
X0417Y036145D01*
X04166Y036105D01*
X04162D01*
X04166Y036065D01*
X04162Y036025D01*
X04166D01*
X0417Y035985D01*
Y036025D02*
X04172Y036045D01*
X04174D01*
X04172Y036065D01*
X04174Y036085D01*
X04172D01*
X0417Y036105D01*
X04168Y036085D01*
X04166D01*
X04168Y036065D01*
X04166Y036045D01*
X04168D01*
X0417Y036025D01*
X03775Y03712D02*
X03779Y03716D01*
X03783D01*
X03779Y0372D01*
X03783Y03724D01*
X03779D01*
X03775Y03728D01*
X03771Y03724D01*
X03767D01*
X03771Y0372D01*
X03767Y03716D01*
X03771D01*
X03775Y03712D01*
Y03716D02*
X03777Y03718D01*
X03779D01*
X03777Y0372D01*
X03779Y03722D01*
X03777D01*
X03775Y03724D01*
X03773Y03722D01*
X03771D01*
X03773Y0372D01*
X03771Y03718D01*
X03773D01*
X03775Y03716D01*
X03521Y037797D02*
X03525Y037837D01*
X03529D01*
X03525Y037877D01*
X03529Y037917D01*
X03525D01*
X03521Y037957D01*
X03517Y037917D01*
X03513D01*
X03517Y037877D01*
X03513Y037837D01*
X03517D01*
X03521Y037797D01*
Y037837D02*
X03523Y037857D01*
X03525D01*
X03523Y037877D01*
X03525Y037897D01*
X03523D01*
X03521Y037917D01*
X03519Y037897D01*
X03517D01*
X03519Y037877D01*
X03517Y037857D01*
X03519D01*
X03521Y037837D01*
X03488Y039112D02*
X03492Y039152D01*
X03496D01*
X03492Y039192D01*
X03496Y039232D01*
X03492D01*
X03488Y039272D01*
X03484Y039232D01*
X0348D01*
X03484Y039192D01*
X0348Y039152D01*
X03484D01*
X03488Y039112D01*
Y039152D02*
X0349Y039172D01*
X03492D01*
X0349Y039192D01*
X03492Y039212D01*
X0349D01*
X03488Y039232D01*
X03486Y039212D01*
X03484D01*
X03486Y039192D01*
X03484Y039172D01*
X03486D01*
X03488Y039152D01*
X04395Y02732D02*
X04399Y02736D01*
X04403D01*
X04399Y0274D01*
X04403Y02744D01*
X04399D01*
X04395Y02748D01*
X04391Y02744D01*
X04387D01*
X04391Y0274D01*
X04387Y02736D01*
X04391D01*
X04395Y02732D01*
Y02736D02*
X04397Y02738D01*
X04399D01*
X04397Y0274D01*
X04399Y02742D01*
X04397D01*
X04395Y02744D01*
X04393Y02742D01*
X04391D01*
X04393Y0274D01*
X04391Y02738D01*
X04393D01*
X04395Y02736D01*
X0426Y02732D02*
X04264Y02736D01*
X04268D01*
X04264Y0274D01*
X04268Y02744D01*
X04264D01*
X0426Y02748D01*
X04256Y02744D01*
X04252D01*
X04256Y0274D01*
X04252Y02736D01*
X04256D01*
X0426Y02732D01*
Y02736D02*
X04262Y02738D01*
X04264D01*
X04262Y0274D01*
X04264Y02742D01*
X04262D01*
X0426Y02744D01*
X04258Y02742D01*
X04256D01*
X04258Y0274D01*
X04256Y02738D01*
X04258D01*
X0426Y02736D01*
X0348Y02732D02*
X03484Y02736D01*
X03488D01*
X03484Y0274D01*
X03488Y02744D01*
X03484D01*
X0348Y02748D01*
X03476Y02744D01*
X03472D01*
X03476Y0274D01*
X03472Y02736D01*
X03476D01*
X0348Y02732D01*
Y02736D02*
X03482Y02738D01*
X03484D01*
X03482Y0274D01*
X03484Y02742D01*
X03482D01*
X0348Y02744D01*
X03478Y02742D01*
X03476D01*
X03478Y0274D01*
X03476Y02738D01*
X03478D01*
X0348Y02736D01*
X03616Y02732D02*
X0362Y02736D01*
X03624D01*
X0362Y0274D01*
X03624Y02744D01*
X0362D01*
X03616Y02748D01*
X03612Y02744D01*
X03608D01*
X03612Y0274D01*
X03608Y02736D01*
X03612D01*
X03616Y02732D01*
Y02736D02*
X03618Y02738D01*
X0362D01*
X03618Y0274D01*
X0362Y02742D01*
X03618D01*
X03616Y02744D01*
X03614Y02742D01*
X03612D01*
X03614Y0274D01*
X03612Y02738D01*
X03614D01*
X03616Y02736D01*
X03875Y02732D02*
X03879Y02736D01*
X03883D01*
X03879Y0274D01*
X03883Y02744D01*
X03879D01*
X03875Y02748D01*
X03871Y02744D01*
X03867D01*
X03871Y0274D01*
X03867Y02736D01*
X03871D01*
X03875Y02732D01*
Y02736D02*
X03877Y02738D01*
X03879D01*
X03877Y0274D01*
X03879Y02742D01*
X03877D01*
X03875Y02744D01*
X03873Y02742D01*
X03871D01*
X03873Y0274D01*
X03871Y02738D01*
X03873D01*
X03875Y02736D01*
X04Y02732D02*
X04004Y02736D01*
X04008D01*
X04004Y0274D01*
X04008Y02744D01*
X04004D01*
X04Y02748D01*
X03996Y02744D01*
X03992D01*
X03996Y0274D01*
X03992Y02736D01*
X03996D01*
X04Y02732D01*
Y02736D02*
X04002Y02738D01*
X04004D01*
X04002Y0274D01*
X04004Y02742D01*
X04002D01*
X04Y02744D01*
X03998Y02742D01*
X03996D01*
X03998Y0274D01*
X03996Y02738D01*
X03998D01*
X04Y02736D01*
X025592Y038555D02*
X025632Y038595D01*
X025672D01*
X025632Y038635D01*
X025672Y038675D01*
X025632D01*
X025592Y038715D01*
X025552Y038675D01*
X025512D01*
X025552Y038635D01*
X025512Y038595D01*
X025552D01*
X025592Y038555D01*
Y038595D02*
X025612Y038615D01*
X025632D01*
X025612Y038635D01*
X025632Y038655D01*
X025612D01*
X025592Y038675D01*
X025572Y038655D01*
X025552D01*
X025572Y038635D01*
X025552Y038615D01*
X025572D01*
X025592Y038595D01*
X025491Y03932D02*
X025531Y03936D01*
X025571D01*
X025531Y0394D01*
X025571Y03944D01*
X025531D01*
X025491Y03948D01*
X025451Y03944D01*
X025411D01*
X025451Y0394D01*
X025411Y03936D01*
X025451D01*
X025491Y03932D01*
Y03936D02*
X025511Y03938D01*
X025531D01*
X025511Y0394D01*
X025531Y03942D01*
X025511D01*
X025491Y03944D01*
X025471Y03942D01*
X025451D01*
X025471Y0394D01*
X025451Y03938D01*
X025471D01*
X025491Y03936D01*
X023536Y03857D02*
X023576Y03861D01*
X023616D01*
X023576Y03865D01*
X023616Y03869D01*
X023576D01*
X023536Y03873D01*
X023496Y03869D01*
X023456D01*
X023496Y03865D01*
X023456Y03861D01*
X023496D01*
X023536Y03857D01*
Y03861D02*
X023556Y03863D01*
X023576D01*
X023556Y03865D01*
X023576Y03867D01*
X023556D01*
X023536Y03869D01*
X023516Y03867D01*
X023496D01*
X023516Y03865D01*
X023496Y03863D01*
X023516D01*
X023536Y03861D01*
X0251Y03677D02*
X02514Y03681D01*
X02518D01*
X02514Y03685D01*
X02518Y03689D01*
X02514D01*
X0251Y03693D01*
X02506Y03689D01*
X02502D01*
X02506Y03685D01*
X02502Y03681D01*
X02506D01*
X0251Y03677D01*
Y03681D02*
X02512Y03683D01*
X02514D01*
X02512Y03685D01*
X02514Y03687D01*
X02512D01*
X0251Y03689D01*
X02508Y03687D01*
X02506D01*
X02508Y03685D01*
X02506Y03683D01*
X02508D01*
X0251Y03681D01*
X03015Y03767D02*
X03019Y03771D01*
X03023D01*
X03019Y03775D01*
X03023Y03779D01*
X03019D01*
X03015Y03783D01*
X03011Y03779D01*
X03007D01*
X03011Y03775D01*
X03007Y03771D01*
X03011D01*
X03015Y03767D01*
Y03771D02*
X03017Y03773D01*
X03019D01*
X03017Y03775D01*
X03019Y03777D01*
X03017D01*
X03015Y03779D01*
X03013Y03777D01*
X03011D01*
X03013Y03775D01*
X03011Y03773D01*
X03013D01*
X03015Y03771D01*
X028393Y038703D02*
X028433Y038743D01*
X028473D01*
X028433Y038783D01*
X028473Y038823D01*
X028433D01*
X028393Y038863D01*
X028353Y038823D01*
X028313D01*
X028353Y038783D01*
X028313Y038743D01*
X028353D01*
X028393Y038703D01*
Y038743D02*
X028413Y038763D01*
X028433D01*
X028413Y038783D01*
X028433Y038803D01*
X028413D01*
X028393Y038823D01*
X028373Y038803D01*
X028353D01*
X028373Y038783D01*
X028353Y038763D01*
X028373D01*
X028393Y038743D01*
X02515Y039935D02*
X02519Y039975D01*
X02523D01*
X02519Y040015D01*
X02523Y040055D01*
X02519D01*
X02515Y040095D01*
X02511Y040055D01*
X02507D01*
X02511Y040015D01*
X02507Y039975D01*
X02511D01*
X02515Y039935D01*
Y039975D02*
X02517Y039995D01*
X02519D01*
X02517Y040015D01*
X02519Y040035D01*
X02517D01*
X02515Y040055D01*
X02513Y040035D01*
X02511D01*
X02513Y040015D01*
X02511Y039995D01*
X02513D01*
X02515Y039975D01*
X030737Y03777D02*
X030777Y03781D01*
X030817D01*
X030777Y03785D01*
X030817Y03789D01*
X030777D01*
X030737Y03793D01*
X030697Y03789D01*
X030657D01*
X030697Y03785D01*
X030657Y03781D01*
X030697D01*
X030737Y03777D01*
Y03781D02*
X030757Y03783D01*
X030777D01*
X030757Y03785D01*
X030777Y03787D01*
X030757D01*
X030737Y03789D01*
X030717Y03787D01*
X030697D01*
X030717Y03785D01*
X030697Y03783D01*
X030717D01*
X030737Y03781D01*
X03175Y03737D02*
X03179Y03741D01*
X03183D01*
X03179Y03745D01*
X03183Y03749D01*
X03179D01*
X03175Y03753D01*
X03171Y03749D01*
X03167D01*
X03171Y03745D01*
X03167Y03741D01*
X03171D01*
X03175Y03737D01*
Y03741D02*
X03177Y03743D01*
X03179D01*
X03177Y03745D01*
X03179Y03747D01*
X03177D01*
X03175Y03749D01*
X03173Y03747D01*
X03171D01*
X03173Y03745D01*
X03171Y03743D01*
X03173D01*
X03175Y03741D01*
X0325Y03682D02*
X03254Y03686D01*
X03258D01*
X03254Y0369D01*
X03258Y03694D01*
X03254D01*
X0325Y03698D01*
X03246Y03694D01*
X03242D01*
X03246Y0369D01*
X03242Y03686D01*
X03246D01*
X0325Y03682D01*
Y03686D02*
X03252Y03688D01*
X03254D01*
X03252Y0369D01*
X03254Y03692D01*
X03252D01*
X0325Y03694D01*
X03248Y03692D01*
X03246D01*
X03248Y0369D01*
X03246Y03688D01*
X03248D01*
X0325Y03686D01*
D93*
X0343Y028336D02*
G03*
X0343Y028336I-00008J0D01*
G01*
Y026564D02*
G03*
X0343Y026564I-00008J0D01*
G01*
X03686Y028336D02*
G03*
X03686Y028336I-00008J0D01*
G01*
Y026564D02*
G03*
X03686Y026564I-00008J0D01*
G01*
X0382Y028336D02*
G03*
X0382Y028336I-00008J0D01*
G01*
Y026564D02*
G03*
X0382Y026564I-00008J0D01*
G01*
X04076Y028336D02*
G03*
X04076Y028336I-00008J0D01*
G01*
Y026564D02*
G03*
X04076Y026564I-00008J0D01*
G01*
X044626D02*
G03*
X044626Y026564I-00008J0D01*
G01*
Y028336D02*
G03*
X044626Y028336I-00008J0D01*
G01*
X042067Y026564D02*
G03*
X042067Y026564I-00008J0D01*
G01*
Y028336D02*
G03*
X042067Y028336I-00008J0D01*
G01*
X01203Y024375D02*
G03*
X01203Y024375I-00008J0D01*
G01*
Y029625D02*
G03*
X01203Y029625I-00008J0D01*
G01*
X01803D02*
G03*
X01803Y029625I-00008J0D01*
G01*
Y024375D02*
G03*
X01803Y024375I-00008J0D01*
G01*
D94*
X01199D02*
G03*
X01199Y024375I-00004J0D01*
G01*
Y029625D02*
G03*
X01199Y029625I-00004J0D01*
G01*
X01799D02*
G03*
X01799Y029625I-00004J0D01*
G01*
Y024375D02*
G03*
X01799Y024375I-00004J0D01*
G01*
M02*
