G04*
G04 #@! TF.GenerationSoftware,Altium Limited,Altium Designer,18.1.6 (161)*
G04*
G04 Layer_Color=2752767*
%FSTAX24Y24*%
%MOIN*%
G70*
G01*
G75*
%ADD95C,0.0020*%
%ADD96C,0.0027*%
%ADD97C,0.0013*%
D95*
X03414Y028256D02*
Y028416D01*
X0343D01*
Y028256D01*
X03414D01*
Y026484D02*
Y026644D01*
X0343D01*
Y026484D01*
X03414D01*
X0367Y028256D02*
Y028416D01*
X03686D01*
Y028256D01*
X0367D01*
Y026484D02*
Y026644D01*
X03686D01*
Y026484D01*
X0367D01*
X03804Y028256D02*
Y028416D01*
X0382D01*
Y028256D01*
X03804D01*
Y026484D02*
Y026644D01*
X0382D01*
Y026484D01*
X03804D01*
X0406Y028256D02*
Y028416D01*
X04076D01*
Y028256D01*
X0406D01*
Y026484D02*
Y026644D01*
X04076D01*
Y026484D01*
X0406D01*
X044466D02*
Y026644D01*
X044626D01*
Y026484D01*
X044466D01*
Y028256D02*
Y028416D01*
X044626D01*
Y028256D01*
X044466D01*
X041907Y026484D02*
Y026644D01*
X042067D01*
Y026484D01*
X041907D01*
Y028256D02*
Y028416D01*
X042067D01*
Y028256D01*
X041907D01*
X04395Y03592D02*
X04387Y03608D01*
X04403D01*
X04395Y03592D01*
Y03192D02*
X04387Y03208D01*
X04403D01*
X04395Y03192D01*
Y03292D02*
X04387Y03308D01*
X04403D01*
X04395Y03292D01*
Y03392D02*
X04387Y03408D01*
X04403D01*
X04395Y03392D01*
Y03492D02*
X04387Y03508D01*
X04403D01*
X04395Y03492D01*
Y03692D02*
X04387Y03708D01*
X04403D01*
X04395Y03692D01*
X04075Y033486D02*
X04079Y033526D01*
X04083D01*
X04079Y033566D01*
X04083Y033606D01*
X04079D01*
X04075Y033646D01*
X04071Y033606D01*
X04067D01*
X04071Y033566D01*
X04067Y033526D01*
X04071D01*
X04075Y033486D01*
Y03447D02*
X04079Y03451D01*
X04083D01*
X04079Y03455D01*
X04083Y03459D01*
X04079D01*
X04075Y03463D01*
X04071Y03459D01*
X04067D01*
X04071Y03455D01*
X04067Y03451D01*
X04071D01*
X04075Y03447D01*
Y035454D02*
X04079Y035494D01*
X04083D01*
X04079Y035534D01*
X04083Y035574D01*
X04079D01*
X04075Y035614D01*
X04071Y035574D01*
X04067D01*
X04071Y035534D01*
X04067Y035494D01*
X04071D01*
X04075Y035454D01*
X03945Y033486D02*
X03949Y033526D01*
X03953D01*
X03949Y033566D01*
X03953Y033606D01*
X03949D01*
X03945Y033646D01*
X03941Y033606D01*
X03937D01*
X03941Y033566D01*
X03937Y033526D01*
X03941D01*
X03945Y033486D01*
Y03447D02*
X03949Y03451D01*
X03953D01*
X03949Y03455D01*
X03953Y03459D01*
X03949D01*
X03945Y03463D01*
X03941Y03459D01*
X03937D01*
X03941Y03455D01*
X03937Y03451D01*
X03941D01*
X03945Y03447D01*
Y035454D02*
X03949Y035494D01*
X03953D01*
X03949Y035534D01*
X03953Y035574D01*
X03949D01*
X03945Y035614D01*
X03941Y035574D01*
X03937D01*
X03941Y035534D01*
X03937Y035494D01*
X03941D01*
X03945Y035454D01*
X04065Y04692D02*
X04057Y04708D01*
X04073D01*
X04065Y04692D01*
X04166D02*
X04158Y04708D01*
X04174D01*
X04166Y04692D01*
X04064Y04832D02*
X04056Y04848D01*
X04072D01*
X04064Y04832D01*
X04165D02*
X04157Y04848D01*
X04173D01*
X04165Y04832D01*
X03289Y04892D02*
X03281Y04908D01*
X03297D01*
X03289Y04892D01*
X0339D02*
X03382Y04908D01*
X03398D01*
X0339Y04892D01*
X03488D02*
X0348Y04908D01*
X03496D01*
X03488Y04892D01*
X03589D02*
X03581Y04908D01*
X03597D01*
X03589Y04892D01*
X0206Y03704D02*
X02052Y0372D01*
X02068D01*
X0206Y03704D01*
X01959D02*
X01951Y0372D01*
X01967D01*
X01959Y03704D01*
X01861D02*
X01853Y0372D01*
X01869D01*
X01861Y03704D01*
X0176D02*
X01752Y0372D01*
X01768D01*
X0176Y03704D01*
X01472Y04167D02*
X01476Y04175D01*
X01472Y04183D01*
X0148Y04179D01*
X01488Y04183D01*
X01484Y04175D01*
X01488Y04167D01*
X0148Y04171D01*
X01472Y04167D01*
Y04267D02*
X01476Y04275D01*
X01472Y04283D01*
X0148Y04279D01*
X01488Y04283D01*
X01484Y04275D01*
X01488Y04267D01*
X0148Y04271D01*
X01472Y04267D01*
X010884Y03704D02*
X010804Y0372D01*
X010964D01*
X010884Y03704D01*
X011884D02*
X011804Y0372D01*
X011964D01*
X011884Y03704D01*
X012884D02*
X012804Y0372D01*
X012964D01*
X012884Y03704D01*
X013884D02*
X013804Y0372D01*
X013964D01*
X013884Y03704D01*
X014884D02*
X014804Y0372D01*
X014964D01*
X014884Y03704D01*
X015884D02*
X015804Y0372D01*
X015964D01*
X015884Y03704D01*
X01985Y04102D02*
X01977Y04118D01*
X01993D01*
X01985Y04102D01*
Y04203D02*
X01977Y04219D01*
X01993D01*
X01985Y04203D01*
Y04301D02*
X01977Y04317D01*
X01993D01*
X01985Y04301D01*
X0171Y04101D02*
X01702Y04117D01*
X01718D01*
X0171Y04101D01*
Y04202D02*
X01702Y04218D01*
X01718D01*
X0171Y04202D01*
Y043D02*
X01702Y04316D01*
X01718D01*
X0171Y043D01*
X03581Y04531D02*
Y04527D01*
X03589D01*
Y04531D01*
X03593D01*
Y04539D01*
X03589D01*
Y04543D01*
X03581D01*
Y04539D01*
X03577D01*
Y04531D01*
X03581D01*
Y04431D02*
Y04427D01*
X03589D01*
Y04431D01*
X03593D01*
Y04439D01*
X03589D01*
Y04443D01*
X03581D01*
Y04439D01*
X03577D01*
Y04431D01*
X03581D01*
Y04331D02*
Y04327D01*
X03589D01*
Y04331D01*
X03593D01*
Y04339D01*
X03589D01*
Y04343D01*
X03581D01*
Y04339D01*
X03577D01*
Y04331D01*
X03581D01*
Y04231D02*
Y04227D01*
X03589D01*
Y04231D01*
X03593D01*
Y04239D01*
X03589D01*
Y04243D01*
X03581D01*
Y04239D01*
X03577D01*
Y04231D01*
X03581D01*
Y04131D02*
Y04127D01*
X03589D01*
Y04131D01*
X03593D01*
Y04139D01*
X03589D01*
Y04143D01*
X03581D01*
Y04139D01*
X03577D01*
Y04131D01*
X03581D01*
Y04031D02*
Y04027D01*
X03589D01*
Y04031D01*
X03593D01*
Y04039D01*
X03589D01*
Y04043D01*
X03581D01*
Y04039D01*
X03577D01*
Y04031D01*
X03581D01*
Y03931D02*
Y03927D01*
X03589D01*
Y03931D01*
X03593D01*
Y03939D01*
X03589D01*
Y03943D01*
X03581D01*
Y03939D01*
X03577D01*
Y03931D01*
X03581D01*
Y03831D02*
Y03827D01*
X03589D01*
Y03831D01*
X03593D01*
Y03839D01*
X03589D01*
Y03843D01*
X03581D01*
Y03839D01*
X03577D01*
Y03831D01*
X03581D01*
Y03731D02*
Y03727D01*
X03589D01*
Y03731D01*
X03593D01*
Y03739D01*
X03589D01*
Y03743D01*
X03581D01*
Y03739D01*
X03577D01*
Y03731D01*
X03581D01*
Y03631D02*
Y03627D01*
X03589D01*
Y03631D01*
X03593D01*
Y03639D01*
X03589D01*
Y03643D01*
X03581D01*
Y03639D01*
X03577D01*
Y03631D01*
X03581D01*
Y03531D02*
Y03527D01*
X03589D01*
Y03531D01*
X03593D01*
Y03539D01*
X03589D01*
Y03543D01*
X03581D01*
Y03539D01*
X03577D01*
Y03531D01*
X03581D01*
X01152Y041392D02*
X01156D01*
X0116Y041432D01*
X01164Y041392D01*
X01168D01*
Y041432D01*
X01164Y041472D01*
X01168Y041512D01*
Y041552D01*
X01164D01*
X0116Y041512D01*
X01156Y041552D01*
X01152D01*
Y041512D01*
X01156Y041472D01*
X01152Y041432D01*
Y041392D01*
Y04277D02*
X01156D01*
X0116Y04281D01*
X01164Y04277D01*
X01168D01*
Y04281D01*
X01164Y04285D01*
X01168Y04289D01*
Y04293D01*
X01164D01*
X0116Y04289D01*
X01156Y04293D01*
X01152D01*
Y04289D01*
X01156Y04285D01*
X01152Y04281D01*
Y04277D01*
X01257Y04575D02*
X01265Y04583D01*
X01273Y04575D01*
X01265Y04567D01*
X01257Y04575D01*
X01457Y04725D02*
X01465Y04733D01*
X01473Y04725D01*
X01465Y04717D01*
X01457Y04725D01*
Y04475D02*
X01465Y04483D01*
X01473Y04475D01*
X01465Y04467D01*
X01457Y04475D01*
X03762Y03882D02*
Y03898D01*
X03778D01*
Y03882D01*
X03762D01*
X03766Y03886D02*
Y03894D01*
X03774D01*
Y03886D01*
X03766D01*
X03862Y03882D02*
Y03898D01*
X03878D01*
Y03882D01*
X03862D01*
X03866Y03886D02*
Y03894D01*
X03874D01*
Y03886D01*
X03866D01*
X03962Y03882D02*
Y03898D01*
X03978D01*
Y03882D01*
X03962D01*
X03966Y03886D02*
Y03894D01*
X03974D01*
Y03886D01*
X03966D01*
X04062Y03882D02*
Y03898D01*
X04078D01*
Y03882D01*
X04062D01*
X04066Y03886D02*
Y03894D01*
X04074D01*
Y03886D01*
X04066D01*
X04162Y03882D02*
Y03898D01*
X04178D01*
Y03882D01*
X04162D01*
X04166Y03886D02*
Y03894D01*
X04174D01*
Y03886D01*
X04166D01*
X04262Y03882D02*
Y03898D01*
X04278D01*
Y03882D01*
X04262D01*
X04266Y03886D02*
Y03894D01*
X04274D01*
Y03886D01*
X04266D01*
X04362Y03882D02*
Y03898D01*
X04378D01*
Y03882D01*
X04362D01*
X04366Y03886D02*
Y03894D01*
X04374D01*
Y03886D01*
X04366D01*
X04462Y03882D02*
Y03898D01*
X04478D01*
Y03882D01*
X04462D01*
X04466Y03886D02*
Y03894D01*
X04474D01*
Y03886D01*
X04466D01*
X01887Y02792D02*
Y02808D01*
X01903D01*
Y02792D01*
X01887D01*
X01891Y02796D02*
Y02804D01*
X01899D01*
Y02796D01*
X01891D01*
X01887Y02692D02*
Y02708D01*
X01903D01*
Y02692D01*
X01887D01*
X01891Y02696D02*
Y02704D01*
X01899D01*
Y02696D01*
X01891D01*
X01887Y02592D02*
Y02608D01*
X01903D01*
Y02592D01*
X01887D01*
X01891Y02596D02*
Y02604D01*
X01899D01*
Y02596D01*
X01891D01*
X01387Y03092D02*
Y03108D01*
X01403D01*
Y03092D01*
X01387D01*
X01391Y03096D02*
Y03104D01*
X01399D01*
Y03096D01*
X01391D01*
X01487Y03092D02*
Y03108D01*
X01503D01*
Y03092D01*
X01487D01*
X01491Y03096D02*
Y03104D01*
X01499D01*
Y03096D01*
X01491D01*
X01587Y03092D02*
Y03108D01*
X01603D01*
Y03092D01*
X01587D01*
X01591Y03096D02*
Y03104D01*
X01599D01*
Y03096D01*
X01591D01*
X0137Y02392D02*
X01374Y02396D01*
X01378D01*
X01374Y024D01*
X01378Y02404D01*
X01374D01*
X0137Y02408D01*
X01366Y02404D01*
X01362D01*
X01366Y024D01*
X01362Y02396D01*
X01366D01*
X0137Y02392D01*
X0162D02*
X01624Y02396D01*
X01628D01*
X01624Y024D01*
X01628Y02404D01*
X01624D01*
X0162Y02408D01*
X01616Y02404D01*
X01612D01*
X01616Y024D01*
X01612Y02396D01*
X01616D01*
X0162Y02392D01*
X0137Y02192D02*
X01374Y02196D01*
X01378D01*
X01374Y022D01*
X01378Y02204D01*
X01374D01*
X0137Y02208D01*
X01366Y02204D01*
X01362D01*
X01366Y022D01*
X01362Y02196D01*
X01366D01*
X0137Y02192D01*
X0162D02*
X01624Y02196D01*
X01628D01*
X01624Y022D01*
X01628Y02204D01*
X01624D01*
X0162Y02208D01*
X01616Y02204D01*
X01612D01*
X01616Y022D01*
X01612Y02196D01*
X01616D01*
X0162Y02192D01*
X0113Y02122D02*
X01122Y02138D01*
X01138D01*
X0113Y02122D01*
Y02126D02*
X01126Y02134D01*
X01134D01*
X0113Y02126D01*
X04475Y02122D02*
X04467Y02138D01*
X04483D01*
X04475Y02122D01*
Y02126D02*
X04471Y02134D01*
X04479D01*
X04475Y02126D01*
Y04827D02*
X04467Y04843D01*
X04483D01*
X04475Y04827D01*
Y04831D02*
X04471Y04839D01*
X04479D01*
X04475Y04831D01*
X0113Y04827D02*
X01122Y04843D01*
X01138D01*
X0113Y04827D01*
Y04831D02*
X01126Y04839D01*
X01134D01*
X0113Y04831D01*
X01905Y03628D02*
X01909Y03632D01*
X01913D01*
X01909Y03636D01*
X01913Y0364D01*
X01909D01*
X01905Y03644D01*
X01901Y0364D01*
X01897D01*
X01901Y03636D01*
X01897Y03632D01*
X01901D01*
X01905Y03628D01*
Y03632D02*
X01907Y03634D01*
X01909D01*
X01907Y03636D01*
X01909Y03638D01*
X01907D01*
X01905Y0364D01*
X01903Y03638D01*
X01901D01*
X01903Y03636D01*
X01901Y03634D01*
X01903D01*
X01905Y03632D01*
X017414Y03602D02*
X017454Y03606D01*
X017494D01*
X017454Y0361D01*
X017494Y03614D01*
X017454D01*
X017414Y03618D01*
X017374Y03614D01*
X017334D01*
X017374Y0361D01*
X017334Y03606D01*
X017374D01*
X017414Y03602D01*
Y03606D02*
X017434Y03608D01*
X017454D01*
X017434Y0361D01*
X017454Y03612D01*
X017434D01*
X017414Y03614D01*
X017394Y03612D01*
X017374D01*
X017394Y0361D01*
X017374Y03608D01*
X017394D01*
X017414Y03606D01*
X02175Y036962D02*
X02179Y037002D01*
X02183D01*
X02179Y037042D01*
X02183Y037082D01*
X02179D01*
X02175Y037122D01*
X02171Y037082D01*
X02167D01*
X02171Y037042D01*
X02167Y037002D01*
X02171D01*
X02175Y036962D01*
Y037002D02*
X02177Y037022D01*
X02179D01*
X02177Y037042D01*
X02179Y037062D01*
X02177D01*
X02175Y037082D01*
X02173Y037062D01*
X02171D01*
X02173Y037042D01*
X02171Y037022D01*
X02173D01*
X02175Y037002D01*
X024444Y041592D02*
X024484Y041632D01*
X024524D01*
X024484Y041672D01*
X024524Y041712D01*
X024484D01*
X024444Y041752D01*
X024404Y041712D01*
X024364D01*
X024404Y041672D01*
X024364Y041632D01*
X024404D01*
X024444Y041592D01*
Y041632D02*
X024464Y041652D01*
X024484D01*
X024464Y041672D01*
X024484Y041692D01*
X024464D01*
X024444Y041712D01*
X024424Y041692D01*
X024404D01*
X024424Y041672D01*
X024404Y041652D01*
X024424D01*
X024444Y041632D01*
X028178Y041717D02*
X028218Y041757D01*
X028258D01*
X028218Y041797D01*
X028258Y041837D01*
X028218D01*
X028178Y041877D01*
X028138Y041837D01*
X028098D01*
X028138Y041797D01*
X028098Y041757D01*
X028138D01*
X028178Y041717D01*
Y041757D02*
X028198Y041777D01*
X028218D01*
X028198Y041797D01*
X028218Y041817D01*
X028198D01*
X028178Y041837D01*
X028158Y041817D01*
X028138D01*
X028158Y041797D01*
X028138Y041777D01*
X028158D01*
X028178Y041757D01*
X029322Y041727D02*
X029362Y041767D01*
X029402D01*
X029362Y041807D01*
X029402Y041847D01*
X029362D01*
X029322Y041887D01*
X029282Y041847D01*
X029242D01*
X029282Y041807D01*
X029242Y041767D01*
X029282D01*
X029322Y041727D01*
Y041767D02*
X029342Y041787D01*
X029362D01*
X029342Y041807D01*
X029362Y041827D01*
X029342D01*
X029322Y041847D01*
X029302Y041827D01*
X029282D01*
X029302Y041807D01*
X029282Y041787D01*
X029302D01*
X029322Y041767D01*
X02975Y035782D02*
X02979Y035822D01*
X02983D01*
X02979Y035862D01*
X02983Y035902D01*
X02979D01*
X02975Y035942D01*
X02971Y035902D01*
X02967D01*
X02971Y035862D01*
X02967Y035822D01*
X02971D01*
X02975Y035782D01*
Y035822D02*
X02977Y035842D01*
X02979D01*
X02977Y035862D01*
X02979Y035882D01*
X02977D01*
X02975Y035902D01*
X02973Y035882D01*
X02971D01*
X02973Y035862D01*
X02971Y035842D01*
X02973D01*
X02975Y035822D01*
X02735Y033446D02*
X02739Y033486D01*
X02743D01*
X02739Y033526D01*
X02743Y033566D01*
X02739D01*
X02735Y033606D01*
X02731Y033566D01*
X02727D01*
X02731Y033526D01*
X02727Y033486D01*
X02731D01*
X02735Y033446D01*
Y033486D02*
X02737Y033506D01*
X02739D01*
X02737Y033526D01*
X02739Y033546D01*
X02737D01*
X02735Y033566D01*
X02733Y033546D01*
X02731D01*
X02733Y033526D01*
X02731Y033506D01*
X02733D01*
X02735Y033486D01*
X02855Y033976D02*
X02859Y034016D01*
X02863D01*
X02859Y034056D01*
X02863Y034096D01*
X02859D01*
X02855Y034136D01*
X02851Y034096D01*
X02847D01*
X02851Y034056D01*
X02847Y034016D01*
X02851D01*
X02855Y033976D01*
Y034016D02*
X02857Y034036D01*
X02859D01*
X02857Y034056D01*
X02859Y034076D01*
X02857D01*
X02855Y034096D01*
X02853Y034076D01*
X02851D01*
X02853Y034056D01*
X02851Y034036D01*
X02853D01*
X02855Y034016D01*
X0417Y035985D02*
X04174Y036025D01*
X04178D01*
X04174Y036065D01*
X04178Y036105D01*
X04174D01*
X0417Y036145D01*
X04166Y036105D01*
X04162D01*
X04166Y036065D01*
X04162Y036025D01*
X04166D01*
X0417Y035985D01*
Y036025D02*
X04172Y036045D01*
X04174D01*
X04172Y036065D01*
X04174Y036085D01*
X04172D01*
X0417Y036105D01*
X04168Y036085D01*
X04166D01*
X04168Y036065D01*
X04166Y036045D01*
X04168D01*
X0417Y036025D01*
X03775Y03712D02*
X03779Y03716D01*
X03783D01*
X03779Y0372D01*
X03783Y03724D01*
X03779D01*
X03775Y03728D01*
X03771Y03724D01*
X03767D01*
X03771Y0372D01*
X03767Y03716D01*
X03771D01*
X03775Y03712D01*
Y03716D02*
X03777Y03718D01*
X03779D01*
X03777Y0372D01*
X03779Y03722D01*
X03777D01*
X03775Y03724D01*
X03773Y03722D01*
X03771D01*
X03773Y0372D01*
X03771Y03718D01*
X03773D01*
X03775Y03716D01*
X03521Y037797D02*
X03525Y037837D01*
X03529D01*
X03525Y037877D01*
X03529Y037917D01*
X03525D01*
X03521Y037957D01*
X03517Y037917D01*
X03513D01*
X03517Y037877D01*
X03513Y037837D01*
X03517D01*
X03521Y037797D01*
Y037837D02*
X03523Y037857D01*
X03525D01*
X03523Y037877D01*
X03525Y037897D01*
X03523D01*
X03521Y037917D01*
X03519Y037897D01*
X03517D01*
X03519Y037877D01*
X03517Y037857D01*
X03519D01*
X03521Y037837D01*
X03488Y039112D02*
X03492Y039152D01*
X03496D01*
X03492Y039192D01*
X03496Y039232D01*
X03492D01*
X03488Y039272D01*
X03484Y039232D01*
X0348D01*
X03484Y039192D01*
X0348Y039152D01*
X03484D01*
X03488Y039112D01*
Y039152D02*
X0349Y039172D01*
X03492D01*
X0349Y039192D01*
X03492Y039212D01*
X0349D01*
X03488Y039232D01*
X03486Y039212D01*
X03484D01*
X03486Y039192D01*
X03484Y039172D01*
X03486D01*
X03488Y039152D01*
X017921Y045218D02*
X017961Y045258D01*
X018001D01*
X017961Y045298D01*
X018001Y045338D01*
X017961D01*
X017921Y045378D01*
X017881Y045338D01*
X017841D01*
X017881Y045298D01*
X017841Y045258D01*
X017881D01*
X017921Y045218D01*
Y045258D02*
X017941Y045278D01*
X017961D01*
X017941Y045298D01*
X017961Y045318D01*
X017941D01*
X017921Y045338D01*
X017901Y045318D01*
X017881D01*
X017901Y045298D01*
X017881Y045278D01*
X017901D01*
X017921Y045258D01*
X018165Y043926D02*
X018205Y043966D01*
X018245D01*
X018205Y044006D01*
X018245Y044046D01*
X018205D01*
X018165Y044086D01*
X018125Y044046D01*
X018085D01*
X018125Y044006D01*
X018085Y043966D01*
X018125D01*
X018165Y043926D01*
Y043966D02*
X018185Y043986D01*
X018205D01*
X018185Y044006D01*
X018205Y044026D01*
X018185D01*
X018165Y044046D01*
X018145Y044026D01*
X018125D01*
X018145Y044006D01*
X018125Y043986D01*
X018145D01*
X018165Y043966D01*
X019391Y044401D02*
X019431Y044441D01*
X019471D01*
X019431Y044481D01*
X019471Y044521D01*
X019431D01*
X019391Y044561D01*
X019351Y044521D01*
X019311D01*
X019351Y044481D01*
X019311Y044441D01*
X019351D01*
X019391Y044401D01*
Y044441D02*
X019411Y044461D01*
X019431D01*
X019411Y044481D01*
X019431Y044501D01*
X019411D01*
X019391Y044521D01*
X019371Y044501D01*
X019351D01*
X019371Y044481D01*
X019351Y044461D01*
X019371D01*
X019391Y044441D01*
X019562Y045705D02*
X019602Y045745D01*
X019642D01*
X019602Y045785D01*
X019642Y045825D01*
X019602D01*
X019562Y045865D01*
X019522Y045825D01*
X019482D01*
X019522Y045785D01*
X019482Y045745D01*
X019522D01*
X019562Y045705D01*
Y045745D02*
X019582Y045765D01*
X019602D01*
X019582Y045785D01*
X019602Y045805D01*
X019582D01*
X019562Y045825D01*
X019542Y045805D01*
X019522D01*
X019542Y045785D01*
X019522Y045765D01*
X019542D01*
X019562Y045745D01*
X020875Y045781D02*
X020915Y045821D01*
X020955D01*
X020915Y045861D01*
X020955Y045901D01*
X020915D01*
X020875Y045941D01*
X020835Y045901D01*
X020795D01*
X020835Y045861D01*
X020795Y045821D01*
X020835D01*
X020875Y045781D01*
Y045821D02*
X020895Y045841D01*
X020915D01*
X020895Y045861D01*
X020915Y045881D01*
X020895D01*
X020875Y045901D01*
X020855Y045881D01*
X020835D01*
X020855Y045861D01*
X020835Y045841D01*
X020855D01*
X020875Y045821D01*
X022146Y045443D02*
X022186Y045483D01*
X022226D01*
X022186Y045523D01*
X022226Y045563D01*
X022186D01*
X022146Y045603D01*
X022106Y045563D01*
X022066D01*
X022106Y045523D01*
X022066Y045483D01*
X022106D01*
X022146Y045443D01*
Y045483D02*
X022166Y045503D01*
X022186D01*
X022166Y045523D01*
X022186Y045543D01*
X022166D01*
X022146Y045563D01*
X022126Y045543D01*
X022106D01*
X022126Y045523D01*
X022106Y045503D01*
X022126D01*
X022146Y045483D01*
X021665Y046667D02*
X021705Y046707D01*
X021745D01*
X021705Y046747D01*
X021745Y046787D01*
X021705D01*
X021665Y046827D01*
X021625Y046787D01*
X021585D01*
X021625Y046747D01*
X021585Y046707D01*
X021625D01*
X021665Y046667D01*
Y046707D02*
X021685Y046727D01*
X021705D01*
X021685Y046747D01*
X021705Y046767D01*
X021685D01*
X021665Y046787D01*
X021645Y046767D01*
X021625D01*
X021645Y046747D01*
X021625Y046727D01*
X021645D01*
X021665Y046707D01*
X04395Y02732D02*
X04399Y02736D01*
X04403D01*
X04399Y0274D01*
X04403Y02744D01*
X04399D01*
X04395Y02748D01*
X04391Y02744D01*
X04387D01*
X04391Y0274D01*
X04387Y02736D01*
X04391D01*
X04395Y02732D01*
Y02736D02*
X04397Y02738D01*
X04399D01*
X04397Y0274D01*
X04399Y02742D01*
X04397D01*
X04395Y02744D01*
X04393Y02742D01*
X04391D01*
X04393Y0274D01*
X04391Y02738D01*
X04393D01*
X04395Y02736D01*
X0426Y02732D02*
X04264Y02736D01*
X04268D01*
X04264Y0274D01*
X04268Y02744D01*
X04264D01*
X0426Y02748D01*
X04256Y02744D01*
X04252D01*
X04256Y0274D01*
X04252Y02736D01*
X04256D01*
X0426Y02732D01*
Y02736D02*
X04262Y02738D01*
X04264D01*
X04262Y0274D01*
X04264Y02742D01*
X04262D01*
X0426Y02744D01*
X04258Y02742D01*
X04256D01*
X04258Y0274D01*
X04256Y02738D01*
X04258D01*
X0426Y02736D01*
X0348Y02732D02*
X03484Y02736D01*
X03488D01*
X03484Y0274D01*
X03488Y02744D01*
X03484D01*
X0348Y02748D01*
X03476Y02744D01*
X03472D01*
X03476Y0274D01*
X03472Y02736D01*
X03476D01*
X0348Y02732D01*
Y02736D02*
X03482Y02738D01*
X03484D01*
X03482Y0274D01*
X03484Y02742D01*
X03482D01*
X0348Y02744D01*
X03478Y02742D01*
X03476D01*
X03478Y0274D01*
X03476Y02738D01*
X03478D01*
X0348Y02736D01*
X03616Y02732D02*
X0362Y02736D01*
X03624D01*
X0362Y0274D01*
X03624Y02744D01*
X0362D01*
X03616Y02748D01*
X03612Y02744D01*
X03608D01*
X03612Y0274D01*
X03608Y02736D01*
X03612D01*
X03616Y02732D01*
Y02736D02*
X03618Y02738D01*
X0362D01*
X03618Y0274D01*
X0362Y02742D01*
X03618D01*
X03616Y02744D01*
X03614Y02742D01*
X03612D01*
X03614Y0274D01*
X03612Y02738D01*
X03614D01*
X03616Y02736D01*
X03875Y02732D02*
X03879Y02736D01*
X03883D01*
X03879Y0274D01*
X03883Y02744D01*
X03879D01*
X03875Y02748D01*
X03871Y02744D01*
X03867D01*
X03871Y0274D01*
X03867Y02736D01*
X03871D01*
X03875Y02732D01*
Y02736D02*
X03877Y02738D01*
X03879D01*
X03877Y0274D01*
X03879Y02742D01*
X03877D01*
X03875Y02744D01*
X03873Y02742D01*
X03871D01*
X03873Y0274D01*
X03871Y02738D01*
X03873D01*
X03875Y02736D01*
X04Y02732D02*
X04004Y02736D01*
X04008D01*
X04004Y0274D01*
X04008Y02744D01*
X04004D01*
X04Y02748D01*
X03996Y02744D01*
X03992D01*
X03996Y0274D01*
X03992Y02736D01*
X03996D01*
X04Y02732D01*
Y02736D02*
X04002Y02738D01*
X04004D01*
X04002Y0274D01*
X04004Y02742D01*
X04002D01*
X04Y02744D01*
X03998Y02742D01*
X03996D01*
X03998Y0274D01*
X03996Y02738D01*
X03998D01*
X04Y02736D01*
X025592Y038555D02*
X025632Y038595D01*
X025672D01*
X025632Y038635D01*
X025672Y038675D01*
X025632D01*
X025592Y038715D01*
X025552Y038675D01*
X025512D01*
X025552Y038635D01*
X025512Y038595D01*
X025552D01*
X025592Y038555D01*
Y038595D02*
X025612Y038615D01*
X025632D01*
X025612Y038635D01*
X025632Y038655D01*
X025612D01*
X025592Y038675D01*
X025572Y038655D01*
X025552D01*
X025572Y038635D01*
X025552Y038615D01*
X025572D01*
X025592Y038595D01*
X028224Y049583D02*
X028264Y049623D01*
X028304D01*
X028264Y049663D01*
X028304Y049703D01*
X028264D01*
X028224Y049743D01*
X028184Y049703D01*
X028144D01*
X028184Y049663D01*
X028144Y049623D01*
X028184D01*
X028224Y049583D01*
Y049623D02*
X028244Y049643D01*
X028264D01*
X028244Y049663D01*
X028264Y049683D01*
X028244D01*
X028224Y049703D01*
X028204Y049683D01*
X028184D01*
X028204Y049663D01*
X028184Y049643D01*
X028204D01*
X028224Y049623D01*
X026797Y049583D02*
X026837Y049623D01*
X026877D01*
X026837Y049663D01*
X026877Y049703D01*
X026837D01*
X026797Y049743D01*
X026757Y049703D01*
X026717D01*
X026757Y049663D01*
X026717Y049623D01*
X026757D01*
X026797Y049583D01*
Y049623D02*
X026817Y049643D01*
X026837D01*
X026817Y049663D01*
X026837Y049683D01*
X026817D01*
X026797Y049703D01*
X026777Y049683D01*
X026757D01*
X026777Y049663D01*
X026757Y049643D01*
X026777D01*
X026797Y049623D01*
X025398Y04937D02*
X025438Y04941D01*
X025478D01*
X025438Y04945D01*
X025478Y04949D01*
X025438D01*
X025398Y04953D01*
X025358Y04949D01*
X025318D01*
X025358Y04945D01*
X025318Y04941D01*
X025358D01*
X025398Y04937D01*
Y04941D02*
X025418Y04943D01*
X025438D01*
X025418Y04945D01*
X025438Y04947D01*
X025418D01*
X025398Y04949D01*
X025378Y04947D01*
X025358D01*
X025378Y04945D01*
X025358Y04943D01*
X025378D01*
X025398Y04941D01*
X024019Y047458D02*
X024059Y047498D01*
X024099D01*
X024059Y047538D01*
X024099Y047578D01*
X024059D01*
X024019Y047618D01*
X023979Y047578D01*
X023939D01*
X023979Y047538D01*
X023939Y047498D01*
X023979D01*
X024019Y047458D01*
Y047498D02*
X024039Y047518D01*
X024059D01*
X024039Y047538D01*
X024059Y047558D01*
X024039D01*
X024019Y047578D01*
X023999Y047558D01*
X023979D01*
X023999Y047538D01*
X023979Y047518D01*
X023999D01*
X024019Y047498D01*
X022836Y045298D02*
X022876Y045338D01*
X022916D01*
X022876Y045378D01*
X022916Y045418D01*
X022876D01*
X022836Y045458D01*
X022796Y045418D01*
X022756D01*
X022796Y045378D01*
X022756Y045338D01*
X022796D01*
X022836Y045298D01*
Y045338D02*
X022856Y045358D01*
X022876D01*
X022856Y045378D01*
X022876Y045398D01*
X022856D01*
X022836Y045418D01*
X022816Y045398D01*
X022796D01*
X022816Y045378D01*
X022796Y045358D01*
X022816D01*
X022836Y045338D01*
X02275Y043037D02*
X02279Y043077D01*
X02283D01*
X02279Y043117D01*
X02283Y043157D01*
X02279D01*
X02275Y043197D01*
X02271Y043157D01*
X02267D01*
X02271Y043117D01*
X02267Y043077D01*
X02271D01*
X02275Y043037D01*
Y043077D02*
X02277Y043097D01*
X02279D01*
X02277Y043117D01*
X02279Y043137D01*
X02277D01*
X02275Y043157D01*
X02273Y043137D01*
X02271D01*
X02273Y043117D01*
X02271Y043097D01*
X02273D01*
X02275Y043077D01*
X020894Y040812D02*
X020934Y040852D01*
X020974D01*
X020934Y040892D01*
X020974Y040932D01*
X020934D01*
X020894Y040972D01*
X020854Y040932D01*
X020814D01*
X020854Y040892D01*
X020814Y040852D01*
X020854D01*
X020894Y040812D01*
Y040852D02*
X020914Y040872D01*
X020934D01*
X020914Y040892D01*
X020934Y040912D01*
X020914D01*
X020894Y040932D01*
X020874Y040912D01*
X020854D01*
X020874Y040892D01*
X020854Y040872D01*
X020874D01*
X020894Y040852D01*
X015969Y039934D02*
X016009Y039974D01*
X016049D01*
X016009Y040014D01*
X016049Y040054D01*
X016009D01*
X015969Y040094D01*
X015929Y040054D01*
X015889D01*
X015929Y040014D01*
X015889Y039974D01*
X015929D01*
X015969Y039934D01*
Y039974D02*
X015989Y039994D01*
X016009D01*
X015989Y040014D01*
X016009Y040034D01*
X015989D01*
X015969Y040054D01*
X015949Y040034D01*
X015929D01*
X015949Y040014D01*
X015929Y039994D01*
X015949D01*
X015969Y039974D01*
X014742Y039461D02*
X014782Y039501D01*
X014822D01*
X014782Y039541D01*
X014822Y039581D01*
X014782D01*
X014742Y039621D01*
X014702Y039581D01*
X014662D01*
X014702Y039541D01*
X014662Y039501D01*
X014702D01*
X014742Y039461D01*
Y039501D02*
X014762Y039521D01*
X014782D01*
X014762Y039541D01*
X014782Y039561D01*
X014762D01*
X014742Y039581D01*
X014722Y039561D01*
X014702D01*
X014722Y039541D01*
X014702Y039521D01*
X014722D01*
X014742Y039501D01*
X01555Y03861D02*
X01559Y03865D01*
X01563D01*
X01559Y03869D01*
X01563Y03873D01*
X01559D01*
X01555Y03877D01*
X01551Y03873D01*
X01547D01*
X01551Y03869D01*
X01547Y03865D01*
X01551D01*
X01555Y03861D01*
Y03865D02*
X01557Y03867D01*
X01559D01*
X01557Y03869D01*
X01559Y03871D01*
X01557D01*
X01555Y03873D01*
X01553Y03871D01*
X01551D01*
X01553Y03869D01*
X01551Y03867D01*
X01553D01*
X01555Y03865D01*
X016552Y038806D02*
X016592Y038846D01*
X016632D01*
X016592Y038886D01*
X016632Y038926D01*
X016592D01*
X016552Y038966D01*
X016512Y038926D01*
X016472D01*
X016512Y038886D01*
X016472Y038846D01*
X016512D01*
X016552Y038806D01*
Y038846D02*
X016572Y038866D01*
X016592D01*
X016572Y038886D01*
X016592Y038906D01*
X016572D01*
X016552Y038926D01*
X016532Y038906D01*
X016512D01*
X016532Y038886D01*
X016512Y038866D01*
X016532D01*
X016552Y038846D01*
X017867Y038806D02*
X017907Y038846D01*
X017947D01*
X017907Y038886D01*
X017947Y038926D01*
X017907D01*
X017867Y038966D01*
X017827Y038926D01*
X017787D01*
X017827Y038886D01*
X017787Y038846D01*
X017827D01*
X017867Y038806D01*
Y038846D02*
X017887Y038866D01*
X017907D01*
X017887Y038886D01*
X017907Y038906D01*
X017887D01*
X017867Y038926D01*
X017847Y038906D01*
X017827D01*
X017847Y038886D01*
X017827Y038866D01*
X017847D01*
X017867Y038846D01*
X019182Y038806D02*
X019222Y038846D01*
X019262D01*
X019222Y038886D01*
X019262Y038926D01*
X019222D01*
X019182Y038966D01*
X019142Y038926D01*
X019102D01*
X019142Y038886D01*
X019102Y038846D01*
X019142D01*
X019182Y038806D01*
Y038846D02*
X019202Y038866D01*
X019222D01*
X019202Y038886D01*
X019222Y038906D01*
X019202D01*
X019182Y038926D01*
X019162Y038906D01*
X019142D01*
X019162Y038886D01*
X019142Y038866D01*
X019162D01*
X019182Y038846D01*
X025604Y042506D02*
X025644Y042546D01*
X025684D01*
X025644Y042586D01*
X025684Y042626D01*
X025644D01*
X025604Y042666D01*
X025564Y042626D01*
X025524D01*
X025564Y042586D01*
X025524Y042546D01*
X025564D01*
X025604Y042506D01*
Y042546D02*
X025624Y042566D01*
X025644D01*
X025624Y042586D01*
X025644Y042606D01*
X025624D01*
X025604Y042626D01*
X025584Y042606D01*
X025564D01*
X025584Y042586D01*
X025564Y042566D01*
X025584D01*
X025604Y042546D01*
X026918Y042506D02*
X026958Y042546D01*
X026999D01*
X026958Y042586D01*
X026999Y042626D01*
X026958D01*
X026918Y042666D01*
X026878Y042626D01*
X026839D01*
X026878Y042586D01*
X026839Y042546D01*
X026878D01*
X026918Y042506D01*
Y042546D02*
X026939Y042566D01*
X026958D01*
X026939Y042586D01*
X026958Y042606D01*
X026939D01*
X026918Y042626D01*
X026899Y042606D01*
X026878D01*
X026899Y042586D01*
X026878Y042566D01*
X026899D01*
X026918Y042546D01*
X0281Y04252D02*
X02814Y04256D01*
X02818D01*
X02814Y0426D01*
X02818Y04264D01*
X02814D01*
X0281Y04268D01*
X02806Y04264D01*
X02802D01*
X02806Y0426D01*
X02802Y04256D01*
X02806D01*
X0281Y04252D01*
Y04256D02*
X02812Y04258D01*
X02814D01*
X02812Y0426D01*
X02814Y04262D01*
X02812D01*
X0281Y04264D01*
X02808Y04262D01*
X02806D01*
X02808Y0426D01*
X02806Y04258D01*
X02808D01*
X0281Y04256D01*
X029548Y042506D02*
X029588Y042546D01*
X029628D01*
X029588Y042586D01*
X029628Y042626D01*
X029588D01*
X029548Y042666D01*
X029508Y042626D01*
X029468D01*
X029508Y042586D01*
X029468Y042546D01*
X029508D01*
X029548Y042506D01*
Y042546D02*
X029568Y042566D01*
X029588D01*
X029568Y042586D01*
X029588Y042606D01*
X029568D01*
X029548Y042626D01*
X029528Y042606D01*
X029508D01*
X029528Y042586D01*
X029508Y042566D01*
X029528D01*
X029548Y042546D01*
X03074Y043062D02*
X03078Y043102D01*
X03082D01*
X03078Y043142D01*
X03082Y043182D01*
X03078D01*
X03074Y043222D01*
X0307Y043182D01*
X03066D01*
X0307Y043142D01*
X03066Y043102D01*
X0307D01*
X03074Y043062D01*
Y043102D02*
X03076Y043122D01*
X03078D01*
X03076Y043142D01*
X03078Y043162D01*
X03076D01*
X03074Y043182D01*
X03072Y043162D01*
X0307D01*
X03072Y043142D01*
X0307Y043122D01*
X03072D01*
X03074Y043102D01*
X03167Y043991D02*
X03171Y044031D01*
X03175D01*
X03171Y044071D01*
X03175Y044111D01*
X03171D01*
X03167Y044151D01*
X03163Y044111D01*
X03159D01*
X03163Y044071D01*
X03159Y044031D01*
X03163D01*
X03167Y043991D01*
Y044031D02*
X03169Y044051D01*
X03171D01*
X03169Y044071D01*
X03171Y044091D01*
X03169D01*
X03167Y044111D01*
X03165Y044091D01*
X03163D01*
X03165Y044071D01*
X03163Y044051D01*
X03165D01*
X03167Y044031D01*
X032947Y044303D02*
X032987Y044343D01*
X033027D01*
X032987Y044383D01*
X033027Y044423D01*
X032987D01*
X032947Y044463D01*
X032907Y044423D01*
X032867D01*
X032907Y044383D01*
X032867Y044343D01*
X032907D01*
X032947Y044303D01*
Y044343D02*
X032967Y044363D01*
X032987D01*
X032967Y044383D01*
X032987Y044403D01*
X032967D01*
X032947Y044423D01*
X032927Y044403D01*
X032907D01*
X032927Y044383D01*
X032907Y044363D01*
X032927D01*
X032947Y044343D01*
Y041673D02*
X032987Y041713D01*
X033027D01*
X032987Y041753D01*
X033027Y041793D01*
X032987D01*
X032947Y041833D01*
X032907Y041793D01*
X032867D01*
X032907Y041753D01*
X032867Y041713D01*
X032907D01*
X032947Y041673D01*
Y041713D02*
X032967Y041733D01*
X032987D01*
X032967Y041753D01*
X032987Y041773D01*
X032967D01*
X032947Y041793D01*
X032927Y041773D01*
X032907D01*
X032927Y041753D01*
X032907Y041733D01*
X032927D01*
X032947Y041713D01*
Y040358D02*
X032987Y040398D01*
X033027D01*
X032987Y040438D01*
X033027Y040478D01*
X032987D01*
X032947Y040518D01*
X032907Y040478D01*
X032867D01*
X032907Y040438D01*
X032867Y040398D01*
X032907D01*
X032947Y040358D01*
Y040398D02*
X032967Y040418D01*
X032987D01*
X032967Y040438D01*
X032987Y040458D01*
X032967D01*
X032947Y040478D01*
X032927Y040458D01*
X032907D01*
X032927Y040438D01*
X032907Y040418D01*
X032927D01*
X032947Y040398D01*
Y039043D02*
X032987Y039083D01*
X033027D01*
X032987Y039123D01*
X033027Y039163D01*
X032987D01*
X032947Y039203D01*
X032907Y039163D01*
X032867D01*
X032907Y039123D01*
X032867Y039083D01*
X032907D01*
X032947Y039043D01*
Y039083D02*
X032967Y039103D01*
X032987D01*
X032967Y039123D01*
X032987Y039143D01*
X032967D01*
X032947Y039163D01*
X032927Y039143D01*
X032907D01*
X032927Y039123D01*
X032907Y039103D01*
X032927D01*
X032947Y039083D01*
X033481Y037841D02*
X033521Y037881D01*
X033561D01*
X033521Y037921D01*
X033561Y037961D01*
X033521D01*
X033481Y038001D01*
X033441Y037961D01*
X033401D01*
X033441Y037921D01*
X033401Y037881D01*
X033441D01*
X033481Y037841D01*
Y037881D02*
X033501Y037901D01*
X033521D01*
X033501Y037921D01*
X033521Y037941D01*
X033501D01*
X033481Y037961D01*
X033461Y037941D01*
X033441D01*
X033461Y037921D01*
X033441Y037901D01*
X033461D01*
X033481Y037881D01*
X034411Y036911D02*
X034451Y036951D01*
X034491D01*
X034451Y036991D01*
X034491Y037031D01*
X034451D01*
X034411Y037071D01*
X034371Y037031D01*
X034331D01*
X034371Y036991D01*
X034331Y036951D01*
X034371D01*
X034411Y036911D01*
Y036951D02*
X034431Y036971D01*
X034451D01*
X034431Y036991D01*
X034451Y037011D01*
X034431D01*
X034411Y037031D01*
X034391Y037011D01*
X034371D01*
X034391Y036991D01*
X034371Y036971D01*
X034391D01*
X034411Y036951D01*
X036499Y040397D02*
X036539Y040437D01*
X036579D01*
X036539Y040477D01*
X036579Y040517D01*
X036539D01*
X036499Y040557D01*
X036459Y040517D01*
X036419D01*
X036459Y040477D01*
X036419Y040437D01*
X036459D01*
X036499Y040397D01*
Y040437D02*
X036519Y040457D01*
X036539D01*
X036519Y040477D01*
X036539Y040497D01*
X036519D01*
X036499Y040517D01*
X036479Y040497D01*
X036459D01*
X036479Y040477D01*
X036459Y040457D01*
X036479D01*
X036499Y040437D01*
X035259Y040834D02*
X035299Y040874D01*
X035339D01*
X035299Y040914D01*
X035339Y040954D01*
X035299D01*
X035259Y040994D01*
X035219Y040954D01*
X035179D01*
X035219Y040914D01*
X035179Y040874D01*
X035219D01*
X035259Y040834D01*
Y040874D02*
X035279Y040894D01*
X035299D01*
X035279Y040914D01*
X035299Y040934D01*
X035279D01*
X035259Y040954D01*
X035239Y040934D01*
X035219D01*
X035239Y040914D01*
X035219Y040894D01*
X035239D01*
X035259Y040874D01*
X034076Y041408D02*
X034116Y041448D01*
X034156D01*
X034116Y041488D01*
X034156Y041528D01*
X034116D01*
X034076Y041568D01*
X034036Y041528D01*
X033996D01*
X034036Y041488D01*
X033996Y041448D01*
X034036D01*
X034076Y041408D01*
Y041448D02*
X034096Y041468D01*
X034116D01*
X034096Y041488D01*
X034116Y041508D01*
X034096D01*
X034076Y041528D01*
X034056Y041508D01*
X034036D01*
X034056Y041488D01*
X034036Y041468D01*
X034056D01*
X034076Y041448D01*
Y042723D02*
X034116Y042763D01*
X034156D01*
X034116Y042803D01*
X034156Y042843D01*
X034116D01*
X034076Y042883D01*
X034036Y042843D01*
X033996D01*
X034036Y042803D01*
X033996Y042763D01*
X034036D01*
X034076Y042723D01*
Y042763D02*
X034096Y042783D01*
X034116D01*
X034096Y042803D01*
X034116Y042823D01*
X034096D01*
X034076Y042843D01*
X034056Y042823D01*
X034036D01*
X034056Y042803D01*
X034036Y042783D01*
X034056D01*
X034076Y042763D01*
X03521Y044706D02*
X03525Y044746D01*
X03529D01*
X03525Y044786D01*
X03529Y044826D01*
X03525D01*
X03521Y044866D01*
X03517Y044826D01*
X03513D01*
X03517Y044786D01*
X03513Y044746D01*
X03517D01*
X03521Y044706D01*
Y044746D02*
X03523Y044766D01*
X03525D01*
X03523Y044786D01*
X03525Y044806D01*
X03523D01*
X03521Y044826D01*
X03519Y044806D01*
X03517D01*
X03519Y044786D01*
X03517Y044766D01*
X03519D01*
X03521Y044746D01*
X036525Y044706D02*
X036565Y044746D01*
X036605D01*
X036565Y044786D01*
X036605Y044826D01*
X036565D01*
X036525Y044866D01*
X036485Y044826D01*
X036445D01*
X036485Y044786D01*
X036445Y044746D01*
X036485D01*
X036525Y044706D01*
Y044746D02*
X036545Y044766D01*
X036565D01*
X036545Y044786D01*
X036565Y044806D01*
X036545D01*
X036525Y044826D01*
X036505Y044806D01*
X036485D01*
X036505Y044786D01*
X036485Y044766D01*
X036505D01*
X036525Y044746D01*
X037724Y045245D02*
X037764Y045285D01*
X037804D01*
X037764Y045325D01*
X037804Y045365D01*
X037764D01*
X037724Y045405D01*
X037684Y045365D01*
X037644D01*
X037684Y045325D01*
X037644Y045285D01*
X037684D01*
X037724Y045245D01*
Y045285D02*
X037744Y045305D01*
X037764D01*
X037744Y045325D01*
X037764Y045345D01*
X037744D01*
X037724Y045365D01*
X037704Y045345D01*
X037684D01*
X037704Y045325D01*
X037684Y045305D01*
X037704D01*
X037724Y045285D01*
X039023Y045446D02*
X039063Y045486D01*
X039103D01*
X039063Y045526D01*
X039103Y045566D01*
X039063D01*
X039023Y045606D01*
X038983Y045566D01*
X038943D01*
X038983Y045526D01*
X038943Y045486D01*
X038983D01*
X039023Y045446D01*
Y045486D02*
X039043Y045506D01*
X039063D01*
X039043Y045526D01*
X039063Y045546D01*
X039043D01*
X039023Y045566D01*
X039003Y045546D01*
X038983D01*
X039003Y045526D01*
X038983Y045506D01*
X039003D01*
X039023Y045486D01*
X040338Y045456D02*
X040378Y045496D01*
X040418D01*
X040378Y045536D01*
X040418Y045576D01*
X040378D01*
X040338Y045616D01*
X040298Y045576D01*
X040258D01*
X040298Y045536D01*
X040258Y045496D01*
X040298D01*
X040338Y045456D01*
Y045496D02*
X040358Y045516D01*
X040378D01*
X040358Y045536D01*
X040378Y045556D01*
X040358D01*
X040338Y045576D01*
X040318Y045556D01*
X040298D01*
X040318Y045536D01*
X040298Y045516D01*
X040318D01*
X040338Y045496D01*
X041536Y045998D02*
X041576Y046038D01*
X041616D01*
X041576Y046078D01*
X041616Y046118D01*
X041576D01*
X041536Y046158D01*
X041496Y046118D01*
X041456D01*
X041496Y046078D01*
X041456Y046038D01*
X041496D01*
X041536Y045998D01*
Y046038D02*
X041556Y046058D01*
X041576D01*
X041556Y046078D01*
X041576Y046098D01*
X041556D01*
X041536Y046118D01*
X041516Y046098D01*
X041496D01*
X041516Y046078D01*
X041496Y046058D01*
X041516D01*
X041536Y046038D01*
X041164Y047611D02*
X041204Y047651D01*
X041244D01*
X041204Y047691D01*
X041244Y047731D01*
X041204D01*
X041164Y047771D01*
X041124Y047731D01*
X041084D01*
X041124Y047691D01*
X041084Y047651D01*
X041124D01*
X041164Y047611D01*
Y047651D02*
X041184Y047671D01*
X041204D01*
X041184Y047691D01*
X041204Y047711D01*
X041184D01*
X041164Y047731D01*
X041144Y047711D01*
X041124D01*
X041144Y047691D01*
X041124Y047671D01*
X041144D01*
X041164Y047651D01*
X037713Y046584D02*
X037753Y046624D01*
X037793D01*
X037753Y046664D01*
X037793Y046704D01*
X037753D01*
X037713Y046744D01*
X037673Y046704D01*
X037633D01*
X037673Y046664D01*
X037633Y046624D01*
X037673D01*
X037713Y046584D01*
Y046624D02*
X037733Y046644D01*
X037753D01*
X037733Y046664D01*
X037753Y046684D01*
X037733D01*
X037713Y046704D01*
X037693Y046684D01*
X037673D01*
X037693Y046664D01*
X037673Y046644D01*
X037693D01*
X037713Y046624D01*
X035294Y046584D02*
X035334Y046624D01*
X035374D01*
X035334Y046664D01*
X035374Y046704D01*
X035334D01*
X035294Y046744D01*
X035254Y046704D01*
X035214D01*
X035254Y046664D01*
X035214Y046624D01*
X035254D01*
X035294Y046584D01*
Y046624D02*
X035314Y046644D01*
X035334D01*
X035314Y046664D01*
X035334Y046684D01*
X035314D01*
X035294Y046704D01*
X035274Y046684D01*
X035254D01*
X035274Y046664D01*
X035254Y046644D01*
X035274D01*
X035294Y046624D01*
X024019Y044131D02*
X024059Y044171D01*
X024099D01*
X024059Y044211D01*
X024099Y044251D01*
X024059D01*
X024019Y044291D01*
X023979Y044251D01*
X023939D01*
X023979Y044211D01*
X023939Y044171D01*
X023979D01*
X024019Y044131D01*
Y044171D02*
X024039Y044191D01*
X024059D01*
X024039Y044211D01*
X024059Y044231D01*
X024039D01*
X024019Y044251D01*
X023999Y044231D01*
X023979D01*
X023999Y044211D01*
X023979Y044191D01*
X023999D01*
X024019Y044171D01*
X025214Y045203D02*
X025254Y045243D01*
X025294D01*
X025254Y045283D01*
X025294Y045323D01*
X025254D01*
X025214Y045363D01*
X025174Y045323D01*
X025134D01*
X025174Y045283D01*
X025134Y045243D01*
X025174D01*
X025214Y045203D01*
Y045243D02*
X025234Y045263D01*
X025254D01*
X025234Y045283D01*
X025254Y045303D01*
X025234D01*
X025214Y045323D01*
X025194Y045303D01*
X025174D01*
X025194Y045283D01*
X025174Y045263D01*
X025194D01*
X025214Y045243D01*
Y046518D02*
X025254Y046558D01*
X025294D01*
X025254Y046598D01*
X025294Y046638D01*
X025254D01*
X025214Y046678D01*
X025174Y046638D01*
X025134D01*
X025174Y046598D01*
X025134Y046558D01*
X025174D01*
X025214Y046518D01*
Y046558D02*
X025234Y046578D01*
X025254D01*
X025234Y046598D01*
X025254Y046618D01*
X025234D01*
X025214Y046638D01*
X025194Y046618D01*
X025174D01*
X025194Y046598D01*
X025174Y046578D01*
X025194D01*
X025214Y046558D01*
X02915Y048432D02*
X02919Y048472D01*
X02923D01*
X02919Y048512D01*
X02923Y048552D01*
X02919D01*
X02915Y048592D01*
X02911Y048552D01*
X02907D01*
X02911Y048512D01*
X02907Y048472D01*
X02911D01*
X02915Y048432D01*
Y048472D02*
X02917Y048492D01*
X02919D01*
X02917Y048512D01*
X02919Y048532D01*
X02917D01*
X02915Y048552D01*
X02913Y048532D01*
X02911D01*
X02913Y048512D01*
X02911Y048492D01*
X02913D01*
X02915Y048472D01*
X029846Y04957D02*
X029886Y04961D01*
X029926D01*
X029886Y04965D01*
X029926Y04969D01*
X029886D01*
X029846Y04973D01*
X029806Y04969D01*
X029766D01*
X029806Y04965D01*
X029766Y04961D01*
X029806D01*
X029846Y04957D01*
Y04961D02*
X029866Y04963D01*
X029886D01*
X029866Y04965D01*
X029886Y04967D01*
X029866D01*
X029846Y04969D01*
X029826Y04967D01*
X029806D01*
X029826Y04965D01*
X029806Y04963D01*
X029826D01*
X029846Y04961D01*
X045Y04392D02*
X04504Y04396D01*
X04508D01*
X04504Y044D01*
X04508Y04404D01*
X04504D01*
X045Y04408D01*
X04496Y04404D01*
X04492D01*
X04496Y044D01*
X04492Y04396D01*
X04496D01*
X045Y04392D01*
Y04396D02*
X04502Y04398D01*
X04504D01*
X04502Y044D01*
X04504Y04402D01*
X04502D01*
X045Y04404D01*
X04498Y04402D01*
X04496D01*
X04498Y044D01*
X04496Y04398D01*
X04498D01*
X045Y04396D01*
Y03992D02*
X04504Y03996D01*
X04508D01*
X04504Y04D01*
X04508Y04004D01*
X04504D01*
X045Y04008D01*
X04496Y04004D01*
X04492D01*
X04496Y04D01*
X04492Y03996D01*
X04496D01*
X045Y03992D01*
Y03996D02*
X04502Y03998D01*
X04504D01*
X04502Y04D01*
X04504Y04002D01*
X04502D01*
X045Y04004D01*
X04498Y04002D01*
X04496D01*
X04498Y04D01*
X04496Y03998D01*
X04498D01*
X045Y03996D01*
X044Y03792D02*
X04404Y03796D01*
X04408D01*
X04404Y038D01*
X04408Y03804D01*
X04404D01*
X044Y03808D01*
X04396Y03804D01*
X04392D01*
X04396Y038D01*
X04392Y03796D01*
X04396D01*
X044Y03792D01*
Y03796D02*
X04402Y03798D01*
X04404D01*
X04402Y038D01*
X04404Y03802D01*
X04402D01*
X044Y03804D01*
X04398Y03802D01*
X04396D01*
X04398Y038D01*
X04396Y03798D01*
X04398D01*
X044Y03796D01*
X045Y03592D02*
X04504Y03596D01*
X04508D01*
X04504Y036D01*
X04508Y03604D01*
X04504D01*
X045Y03608D01*
X04496Y03604D01*
X04492D01*
X04496Y036D01*
X04492Y03596D01*
X04496D01*
X045Y03592D01*
Y03596D02*
X04502Y03598D01*
X04504D01*
X04502Y036D01*
X04504Y03602D01*
X04502D01*
X045Y03604D01*
X04498Y03602D01*
X04496D01*
X04498Y036D01*
X04496Y03598D01*
X04498D01*
X045Y03596D01*
Y03192D02*
X04504Y03196D01*
X04508D01*
X04504Y032D01*
X04508Y03204D01*
X04504D01*
X045Y03208D01*
X04496Y03204D01*
X04492D01*
X04496Y032D01*
X04492Y03196D01*
X04496D01*
X045Y03192D01*
Y03196D02*
X04502Y03198D01*
X04504D01*
X04502Y032D01*
X04504Y03202D01*
X04502D01*
X045Y03204D01*
X04498Y03202D01*
X04496D01*
X04498Y032D01*
X04496Y03198D01*
X04498D01*
X045Y03196D01*
X044Y02992D02*
X04404Y02996D01*
X04408D01*
X04404Y03D01*
X04408Y03004D01*
X04404D01*
X044Y03008D01*
X04396Y03004D01*
X04392D01*
X04396Y03D01*
X04392Y02996D01*
X04396D01*
X044Y02992D01*
Y02996D02*
X04402Y02998D01*
X04404D01*
X04402Y03D01*
X04404Y03002D01*
X04402D01*
X044Y03004D01*
X04398Y03002D01*
X04396D01*
X04398Y03D01*
X04396Y02998D01*
X04398D01*
X044Y02996D01*
X045Y02792D02*
X04504Y02796D01*
X04508D01*
X04504Y028D01*
X04508Y02804D01*
X04504D01*
X045Y02808D01*
X04496Y02804D01*
X04492D01*
X04496Y028D01*
X04492Y02796D01*
X04496D01*
X045Y02792D01*
Y02796D02*
X04502Y02798D01*
X04504D01*
X04502Y028D01*
X04504Y02802D01*
X04502D01*
X045Y02804D01*
X04498Y02802D01*
X04496D01*
X04498Y028D01*
X04496Y02798D01*
X04498D01*
X045Y02796D01*
Y02392D02*
X04504Y02396D01*
X04508D01*
X04504Y024D01*
X04508Y02404D01*
X04504D01*
X045Y02408D01*
X04496Y02404D01*
X04492D01*
X04496Y024D01*
X04492Y02396D01*
X04496D01*
X045Y02392D01*
Y02396D02*
X04502Y02398D01*
X04504D01*
X04502Y024D01*
X04504Y02402D01*
X04502D01*
X045Y02404D01*
X04498Y02402D01*
X04496D01*
X04498Y024D01*
X04496Y02398D01*
X04498D01*
X045Y02396D01*
X044Y02192D02*
X04404Y02196D01*
X04408D01*
X04404Y022D01*
X04408Y02204D01*
X04404D01*
X044Y02208D01*
X04396Y02204D01*
X04392D01*
X04396Y022D01*
X04392Y02196D01*
X04396D01*
X044Y02192D01*
Y02196D02*
X04402Y02198D01*
X04404D01*
X04402Y022D01*
X04404Y02202D01*
X04402D01*
X044Y02204D01*
X04398Y02202D01*
X04396D01*
X04398Y022D01*
X04396Y02198D01*
X04398D01*
X044Y02196D01*
X043Y04392D02*
X04304Y04396D01*
X04308D01*
X04304Y044D01*
X04308Y04404D01*
X04304D01*
X043Y04408D01*
X04296Y04404D01*
X04292D01*
X04296Y044D01*
X04292Y04396D01*
X04296D01*
X043Y04392D01*
Y04396D02*
X04302Y04398D01*
X04304D01*
X04302Y044D01*
X04304Y04402D01*
X04302D01*
X043Y04404D01*
X04298Y04402D01*
X04296D01*
X04298Y044D01*
X04296Y04398D01*
X04298D01*
X043Y04396D01*
Y03992D02*
X04304Y03996D01*
X04308D01*
X04304Y04D01*
X04308Y04004D01*
X04304D01*
X043Y04008D01*
X04296Y04004D01*
X04292D01*
X04296Y04D01*
X04292Y03996D01*
X04296D01*
X043Y03992D01*
Y03996D02*
X04302Y03998D01*
X04304D01*
X04302Y04D01*
X04304Y04002D01*
X04302D01*
X043Y04004D01*
X04298Y04002D01*
X04296D01*
X04298Y04D01*
X04296Y03998D01*
X04298D01*
X043Y03996D01*
X042Y03792D02*
X04204Y03796D01*
X04208D01*
X04204Y038D01*
X04208Y03804D01*
X04204D01*
X042Y03808D01*
X04196Y03804D01*
X04192D01*
X04196Y038D01*
X04192Y03796D01*
X04196D01*
X042Y03792D01*
Y03796D02*
X04202Y03798D01*
X04204D01*
X04202Y038D01*
X04204Y03802D01*
X04202D01*
X042Y03804D01*
X04198Y03802D01*
X04196D01*
X04198Y038D01*
X04196Y03798D01*
X04198D01*
X042Y03796D01*
Y03392D02*
X04204Y03396D01*
X04208D01*
X04204Y034D01*
X04208Y03404D01*
X04204D01*
X042Y03408D01*
X04196Y03404D01*
X04192D01*
X04196Y034D01*
X04192Y03396D01*
X04196D01*
X042Y03392D01*
Y03396D02*
X04202Y03398D01*
X04204D01*
X04202Y034D01*
X04204Y03402D01*
X04202D01*
X042Y03404D01*
X04198Y03402D01*
X04196D01*
X04198Y034D01*
X04196Y03398D01*
X04198D01*
X042Y03396D01*
Y02592D02*
X04204Y02596D01*
X04208D01*
X04204Y026D01*
X04208Y02604D01*
X04204D01*
X042Y02608D01*
X04196Y02604D01*
X04192D01*
X04196Y026D01*
X04192Y02596D01*
X04196D01*
X042Y02592D01*
Y02596D02*
X04202Y02598D01*
X04204D01*
X04202Y026D01*
X04204Y02602D01*
X04202D01*
X042Y02604D01*
X04198Y02602D01*
X04196D01*
X04198Y026D01*
X04196Y02598D01*
X04198D01*
X042Y02596D01*
X043Y02392D02*
X04304Y02396D01*
X04308D01*
X04304Y024D01*
X04308Y02404D01*
X04304D01*
X043Y02408D01*
X04296Y02404D01*
X04292D01*
X04296Y024D01*
X04292Y02396D01*
X04296D01*
X043Y02392D01*
Y02396D02*
X04302Y02398D01*
X04304D01*
X04302Y024D01*
X04304Y02402D01*
X04302D01*
X043Y02404D01*
X04298Y02402D01*
X04296D01*
X04298Y024D01*
X04296Y02398D01*
X04298D01*
X043Y02396D01*
X042Y02192D02*
X04204Y02196D01*
X04208D01*
X04204Y022D01*
X04208Y02204D01*
X04204D01*
X042Y02208D01*
X04196Y02204D01*
X04192D01*
X04196Y022D01*
X04192Y02196D01*
X04196D01*
X042Y02192D01*
Y02196D02*
X04202Y02198D01*
X04204D01*
X04202Y022D01*
X04204Y02202D01*
X04202D01*
X042Y02204D01*
X04198Y02202D01*
X04196D01*
X04198Y022D01*
X04196Y02198D01*
X04198D01*
X042Y02196D01*
X041Y04392D02*
X04104Y04396D01*
X04108D01*
X04104Y044D01*
X04108Y04404D01*
X04104D01*
X041Y04408D01*
X04096Y04404D01*
X04092D01*
X04096Y044D01*
X04092Y04396D01*
X04096D01*
X041Y04392D01*
Y04396D02*
X04102Y04398D01*
X04104D01*
X04102Y044D01*
X04104Y04402D01*
X04102D01*
X041Y04404D01*
X04098Y04402D01*
X04096D01*
X04098Y044D01*
X04096Y04398D01*
X04098D01*
X041Y04396D01*
X04Y03392D02*
X04004Y03396D01*
X04008D01*
X04004Y034D01*
X04008Y03404D01*
X04004D01*
X04Y03408D01*
X03996Y03404D01*
X03992D01*
X03996Y034D01*
X03992Y03396D01*
X03996D01*
X04Y03392D01*
Y03396D02*
X04002Y03398D01*
X04004D01*
X04002Y034D01*
X04004Y03402D01*
X04002D01*
X04Y03404D01*
X03998Y03402D01*
X03996D01*
X03998Y034D01*
X03996Y03398D01*
X03998D01*
X04Y03396D01*
Y02992D02*
X04004Y02996D01*
X04008D01*
X04004Y03D01*
X04008Y03004D01*
X04004D01*
X04Y03008D01*
X03996Y03004D01*
X03992D01*
X03996Y03D01*
X03992Y02996D01*
X03996D01*
X04Y02992D01*
Y02996D02*
X04002Y02998D01*
X04004D01*
X04002Y03D01*
X04004Y03002D01*
X04002D01*
X04Y03004D01*
X03998Y03002D01*
X03996D01*
X03998Y03D01*
X03996Y02998D01*
X03998D01*
X04Y02996D01*
X041Y02392D02*
X04104Y02396D01*
X04108D01*
X04104Y024D01*
X04108Y02404D01*
X04104D01*
X041Y02408D01*
X04096Y02404D01*
X04092D01*
X04096Y024D01*
X04092Y02396D01*
X04096D01*
X041Y02392D01*
Y02396D02*
X04102Y02398D01*
X04104D01*
X04102Y024D01*
X04104Y02402D01*
X04102D01*
X041Y02404D01*
X04098Y02402D01*
X04096D01*
X04098Y024D01*
X04096Y02398D01*
X04098D01*
X041Y02396D01*
X04Y02192D02*
X04004Y02196D01*
X04008D01*
X04004Y022D01*
X04008Y02204D01*
X04004D01*
X04Y02208D01*
X03996Y02204D01*
X03992D01*
X03996Y022D01*
X03992Y02196D01*
X03996D01*
X04Y02192D01*
Y02196D02*
X04002Y02198D01*
X04004D01*
X04002Y022D01*
X04004Y02202D01*
X04002D01*
X04Y02204D01*
X03998Y02202D01*
X03996D01*
X03998Y022D01*
X03996Y02198D01*
X03998D01*
X04Y02196D01*
X039Y04792D02*
X03904Y04796D01*
X03908D01*
X03904Y048D01*
X03908Y04804D01*
X03904D01*
X039Y04808D01*
X03896Y04804D01*
X03892D01*
X03896Y048D01*
X03892Y04796D01*
X03896D01*
X039Y04792D01*
Y04796D02*
X03902Y04798D01*
X03904D01*
X03902Y048D01*
X03904Y04802D01*
X03902D01*
X039Y04804D01*
X03898Y04802D01*
X03896D01*
X03898Y048D01*
X03896Y04798D01*
X03898D01*
X039Y04796D01*
Y04392D02*
X03904Y04396D01*
X03908D01*
X03904Y044D01*
X03908Y04404D01*
X03904D01*
X039Y04408D01*
X03896Y04404D01*
X03892D01*
X03896Y044D01*
X03892Y04396D01*
X03896D01*
X039Y04392D01*
Y04396D02*
X03902Y04398D01*
X03904D01*
X03902Y044D01*
X03904Y04402D01*
X03902D01*
X039Y04404D01*
X03898Y04402D01*
X03896D01*
X03898Y044D01*
X03896Y04398D01*
X03898D01*
X039Y04396D01*
Y03592D02*
X03904Y03596D01*
X03908D01*
X03904Y036D01*
X03908Y03604D01*
X03904D01*
X039Y03608D01*
X03896Y03604D01*
X03892D01*
X03896Y036D01*
X03892Y03596D01*
X03896D01*
X039Y03592D01*
Y03596D02*
X03902Y03598D01*
X03904D01*
X03902Y036D01*
X03904Y03602D01*
X03902D01*
X039Y03604D01*
X03898Y03602D01*
X03896D01*
X03898Y036D01*
X03896Y03598D01*
X03898D01*
X039Y03596D01*
X038Y02992D02*
X03804Y02996D01*
X03808D01*
X03804Y03D01*
X03808Y03004D01*
X03804D01*
X038Y03008D01*
X03796Y03004D01*
X03792D01*
X03796Y03D01*
X03792Y02996D01*
X03796D01*
X038Y02992D01*
Y02996D02*
X03802Y02998D01*
X03804D01*
X03802Y03D01*
X03804Y03002D01*
X03802D01*
X038Y03004D01*
X03798Y03002D01*
X03796D01*
X03798Y03D01*
X03796Y02998D01*
X03798D01*
X038Y02996D01*
X039Y02392D02*
X03904Y02396D01*
X03908D01*
X03904Y024D01*
X03908Y02404D01*
X03904D01*
X039Y02408D01*
X03896Y02404D01*
X03892D01*
X03896Y024D01*
X03892Y02396D01*
X03896D01*
X039Y02392D01*
Y02396D02*
X03902Y02398D01*
X03904D01*
X03902Y024D01*
X03904Y02402D01*
X03902D01*
X039Y02404D01*
X03898Y02402D01*
X03896D01*
X03898Y024D01*
X03896Y02398D01*
X03898D01*
X039Y02396D01*
X038Y02192D02*
X03804Y02196D01*
X03808D01*
X03804Y022D01*
X03808Y02204D01*
X03804D01*
X038Y02208D01*
X03796Y02204D01*
X03792D01*
X03796Y022D01*
X03792Y02196D01*
X03796D01*
X038Y02192D01*
Y02196D02*
X03802Y02198D01*
X03804D01*
X03802Y022D01*
X03804Y02202D01*
X03802D01*
X038Y02204D01*
X03798Y02202D01*
X03796D01*
X03798Y022D01*
X03796Y02198D01*
X03798D01*
X038Y02196D01*
X037Y04792D02*
X03704Y04796D01*
X03708D01*
X03704Y048D01*
X03708Y04804D01*
X03704D01*
X037Y04808D01*
X03696Y04804D01*
X03692D01*
X03696Y048D01*
X03692Y04796D01*
X03696D01*
X037Y04792D01*
Y04796D02*
X03702Y04798D01*
X03704D01*
X03702Y048D01*
X03704Y04802D01*
X03702D01*
X037Y04804D01*
X03698Y04802D01*
X03696D01*
X03698Y048D01*
X03696Y04798D01*
X03698D01*
X037Y04796D01*
X036Y04592D02*
X03604Y04596D01*
X03608D01*
X03604Y046D01*
X03608Y04604D01*
X03604D01*
X036Y04608D01*
X03596Y04604D01*
X03592D01*
X03596Y046D01*
X03592Y04596D01*
X03596D01*
X036Y04592D01*
Y04596D02*
X03602Y04598D01*
X03604D01*
X03602Y046D01*
X03604Y04602D01*
X03602D01*
X036Y04604D01*
X03598Y04602D01*
X03596D01*
X03598Y046D01*
X03596Y04598D01*
X03598D01*
X036Y04596D01*
X037Y04392D02*
X03704Y04396D01*
X03708D01*
X03704Y044D01*
X03708Y04404D01*
X03704D01*
X037Y04408D01*
X03696Y04404D01*
X03692D01*
X03696Y044D01*
X03692Y04396D01*
X03696D01*
X037Y04392D01*
Y04396D02*
X03702Y04398D01*
X03704D01*
X03702Y044D01*
X03704Y04402D01*
X03702D01*
X037Y04404D01*
X03698Y04402D01*
X03696D01*
X03698Y044D01*
X03696Y04398D01*
X03698D01*
X037Y04396D01*
Y03992D02*
X03704Y03996D01*
X03708D01*
X03704Y04D01*
X03708Y04004D01*
X03704D01*
X037Y04008D01*
X03696Y04004D01*
X03692D01*
X03696Y04D01*
X03692Y03996D01*
X03696D01*
X037Y03992D01*
Y03996D02*
X03702Y03998D01*
X03704D01*
X03702Y04D01*
X03704Y04002D01*
X03702D01*
X037Y04004D01*
X03698Y04002D01*
X03696D01*
X03698Y04D01*
X03696Y03998D01*
X03698D01*
X037Y03996D01*
Y03592D02*
X03704Y03596D01*
X03708D01*
X03704Y036D01*
X03708Y03604D01*
X03704D01*
X037Y03608D01*
X03696Y03604D01*
X03692D01*
X03696Y036D01*
X03692Y03596D01*
X03696D01*
X037Y03592D01*
Y03596D02*
X03702Y03598D01*
X03704D01*
X03702Y036D01*
X03704Y03602D01*
X03702D01*
X037Y03604D01*
X03698Y03602D01*
X03696D01*
X03698Y036D01*
X03696Y03598D01*
X03698D01*
X037Y03596D01*
Y02392D02*
X03704Y02396D01*
X03708D01*
X03704Y024D01*
X03708Y02404D01*
X03704D01*
X037Y02408D01*
X03696Y02404D01*
X03692D01*
X03696Y024D01*
X03692Y02396D01*
X03696D01*
X037Y02392D01*
Y02396D02*
X03702Y02398D01*
X03704D01*
X03702Y024D01*
X03704Y02402D01*
X03702D01*
X037Y02404D01*
X03698Y02402D01*
X03696D01*
X03698Y024D01*
X03696Y02398D01*
X03698D01*
X037Y02396D01*
X036Y02192D02*
X03604Y02196D01*
X03608D01*
X03604Y022D01*
X03608Y02204D01*
X03604D01*
X036Y02208D01*
X03596Y02204D01*
X03592D01*
X03596Y022D01*
X03592Y02196D01*
X03596D01*
X036Y02192D01*
Y02196D02*
X03602Y02198D01*
X03604D01*
X03602Y022D01*
X03604Y02202D01*
X03602D01*
X036Y02204D01*
X03598Y02202D01*
X03596D01*
X03598Y022D01*
X03596Y02198D01*
X03598D01*
X036Y02196D01*
X035Y04392D02*
X03504Y04396D01*
X03508D01*
X03504Y044D01*
X03508Y04404D01*
X03504D01*
X035Y04408D01*
X03496Y04404D01*
X03492D01*
X03496Y044D01*
X03492Y04396D01*
X03496D01*
X035Y04392D01*
Y04396D02*
X03502Y04398D01*
X03504D01*
X03502Y044D01*
X03504Y04402D01*
X03502D01*
X035Y04404D01*
X03498Y04402D01*
X03496D01*
X03498Y044D01*
X03496Y04398D01*
X03498D01*
X035Y04396D01*
Y03192D02*
X03504Y03196D01*
X03508D01*
X03504Y032D01*
X03508Y03204D01*
X03504D01*
X035Y03208D01*
X03496Y03204D01*
X03492D01*
X03496Y032D01*
X03492Y03196D01*
X03496D01*
X035Y03192D01*
Y03196D02*
X03502Y03198D01*
X03504D01*
X03502Y032D01*
X03504Y03202D01*
X03502D01*
X035Y03204D01*
X03498Y03202D01*
X03496D01*
X03498Y032D01*
X03496Y03198D01*
X03498D01*
X035Y03196D01*
X034Y02992D02*
X03404Y02996D01*
X03408D01*
X03404Y03D01*
X03408Y03004D01*
X03404D01*
X034Y03008D01*
X03396Y03004D01*
X03392D01*
X03396Y03D01*
X03392Y02996D01*
X03396D01*
X034Y02992D01*
Y02996D02*
X03402Y02998D01*
X03404D01*
X03402Y03D01*
X03404Y03002D01*
X03402D01*
X034Y03004D01*
X03398Y03002D01*
X03396D01*
X03398Y03D01*
X03396Y02998D01*
X03398D01*
X034Y02996D01*
Y02592D02*
X03404Y02596D01*
X03408D01*
X03404Y026D01*
X03408Y02604D01*
X03404D01*
X034Y02608D01*
X03396Y02604D01*
X03392D01*
X03396Y026D01*
X03392Y02596D01*
X03396D01*
X034Y02592D01*
Y02596D02*
X03402Y02598D01*
X03404D01*
X03402Y026D01*
X03404Y02602D01*
X03402D01*
X034Y02604D01*
X03398Y02602D01*
X03396D01*
X03398Y026D01*
X03396Y02598D01*
X03398D01*
X034Y02596D01*
X035Y02392D02*
X03504Y02396D01*
X03508D01*
X03504Y024D01*
X03508Y02404D01*
X03504D01*
X035Y02408D01*
X03496Y02404D01*
X03492D01*
X03496Y024D01*
X03492Y02396D01*
X03496D01*
X035Y02392D01*
Y02396D02*
X03502Y02398D01*
X03504D01*
X03502Y024D01*
X03504Y02402D01*
X03502D01*
X035Y02404D01*
X03498Y02402D01*
X03496D01*
X03498Y024D01*
X03496Y02398D01*
X03498D01*
X035Y02396D01*
X034Y02192D02*
X03404Y02196D01*
X03408D01*
X03404Y022D01*
X03408Y02204D01*
X03404D01*
X034Y02208D01*
X03396Y02204D01*
X03392D01*
X03396Y022D01*
X03392Y02196D01*
X03396D01*
X034Y02192D01*
Y02196D02*
X03402Y02198D01*
X03404D01*
X03402Y022D01*
X03404Y02202D01*
X03402D01*
X034Y02204D01*
X03398Y02202D01*
X03396D01*
X03398Y022D01*
X03396Y02198D01*
X03398D01*
X034Y02196D01*
X032Y03792D02*
X03204Y03796D01*
X03208D01*
X03204Y038D01*
X03208Y03804D01*
X03204D01*
X032Y03808D01*
X03196Y03804D01*
X03192D01*
X03196Y038D01*
X03192Y03796D01*
X03196D01*
X032Y03792D01*
Y03796D02*
X03202Y03798D01*
X03204D01*
X03202Y038D01*
X03204Y03802D01*
X03202D01*
X032Y03804D01*
X03198Y03802D01*
X03196D01*
X03198Y038D01*
X03196Y03798D01*
X03198D01*
X032Y03796D01*
Y03392D02*
X03204Y03396D01*
X03208D01*
X03204Y034D01*
X03208Y03404D01*
X03204D01*
X032Y03408D01*
X03196Y03404D01*
X03192D01*
X03196Y034D01*
X03192Y03396D01*
X03196D01*
X032Y03392D01*
Y03396D02*
X03202Y03398D01*
X03204D01*
X03202Y034D01*
X03204Y03402D01*
X03202D01*
X032Y03404D01*
X03198Y03402D01*
X03196D01*
X03198Y034D01*
X03196Y03398D01*
X03198D01*
X032Y03396D01*
X033Y03192D02*
X03304Y03196D01*
X03308D01*
X03304Y032D01*
X03308Y03204D01*
X03304D01*
X033Y03208D01*
X03296Y03204D01*
X03292D01*
X03296Y032D01*
X03292Y03196D01*
X03296D01*
X033Y03192D01*
Y03196D02*
X03302Y03198D01*
X03304D01*
X03302Y032D01*
X03304Y03202D01*
X03302D01*
X033Y03204D01*
X03298Y03202D01*
X03296D01*
X03298Y032D01*
X03296Y03198D01*
X03298D01*
X033Y03196D01*
X032Y02992D02*
X03204Y02996D01*
X03208D01*
X03204Y03D01*
X03208Y03004D01*
X03204D01*
X032Y03008D01*
X03196Y03004D01*
X03192D01*
X03196Y03D01*
X03192Y02996D01*
X03196D01*
X032Y02992D01*
Y02996D02*
X03202Y02998D01*
X03204D01*
X03202Y03D01*
X03204Y03002D01*
X03202D01*
X032Y03004D01*
X03198Y03002D01*
X03196D01*
X03198Y03D01*
X03196Y02998D01*
X03198D01*
X032Y02996D01*
X033Y02792D02*
X03304Y02796D01*
X03308D01*
X03304Y028D01*
X03308Y02804D01*
X03304D01*
X033Y02808D01*
X03296Y02804D01*
X03292D01*
X03296Y028D01*
X03292Y02796D01*
X03296D01*
X033Y02792D01*
Y02796D02*
X03302Y02798D01*
X03304D01*
X03302Y028D01*
X03304Y02802D01*
X03302D01*
X033Y02804D01*
X03298Y02802D01*
X03296D01*
X03298Y028D01*
X03296Y02798D01*
X03298D01*
X033Y02796D01*
X032Y02592D02*
X03204Y02596D01*
X03208D01*
X03204Y026D01*
X03208Y02604D01*
X03204D01*
X032Y02608D01*
X03196Y02604D01*
X03192D01*
X03196Y026D01*
X03192Y02596D01*
X03196D01*
X032Y02592D01*
Y02596D02*
X03202Y02598D01*
X03204D01*
X03202Y026D01*
X03204Y02602D01*
X03202D01*
X032Y02604D01*
X03198Y02602D01*
X03196D01*
X03198Y026D01*
X03196Y02598D01*
X03198D01*
X032Y02596D01*
X033Y02392D02*
X03304Y02396D01*
X03308D01*
X03304Y024D01*
X03308Y02404D01*
X03304D01*
X033Y02408D01*
X03296Y02404D01*
X03292D01*
X03296Y024D01*
X03292Y02396D01*
X03296D01*
X033Y02392D01*
Y02396D02*
X03302Y02398D01*
X03304D01*
X03302Y024D01*
X03304Y02402D01*
X03302D01*
X033Y02404D01*
X03298Y02402D01*
X03296D01*
X03298Y024D01*
X03296Y02398D01*
X03298D01*
X033Y02396D01*
X032Y02192D02*
X03204Y02196D01*
X03208D01*
X03204Y022D01*
X03208Y02204D01*
X03204D01*
X032Y02208D01*
X03196Y02204D01*
X03192D01*
X03196Y022D01*
X03192Y02196D01*
X03196D01*
X032Y02192D01*
Y02196D02*
X03202Y02198D01*
X03204D01*
X03202Y022D01*
X03204Y02202D01*
X03202D01*
X032Y02204D01*
X03198Y02202D01*
X03196D01*
X03198Y022D01*
X03196Y02198D01*
X03198D01*
X032Y02196D01*
X031Y04792D02*
X03104Y04796D01*
X03108D01*
X03104Y048D01*
X03108Y04804D01*
X03104D01*
X031Y04808D01*
X03096Y04804D01*
X03092D01*
X03096Y048D01*
X03092Y04796D01*
X03096D01*
X031Y04792D01*
Y04796D02*
X03102Y04798D01*
X03104D01*
X03102Y048D01*
X03104Y04802D01*
X03102D01*
X031Y04804D01*
X03098Y04802D01*
X03096D01*
X03098Y048D01*
X03096Y04798D01*
X03098D01*
X031Y04796D01*
X03Y03392D02*
X03004Y03396D01*
X03008D01*
X03004Y034D01*
X03008Y03404D01*
X03004D01*
X03Y03408D01*
X02996Y03404D01*
X02992D01*
X02996Y034D01*
X02992Y03396D01*
X02996D01*
X03Y03392D01*
Y03396D02*
X03002Y03398D01*
X03004D01*
X03002Y034D01*
X03004Y03402D01*
X03002D01*
X03Y03404D01*
X02998Y03402D01*
X02996D01*
X02998Y034D01*
X02996Y03398D01*
X02998D01*
X03Y03396D01*
X031Y03192D02*
X03104Y03196D01*
X03108D01*
X03104Y032D01*
X03108Y03204D01*
X03104D01*
X031Y03208D01*
X03096Y03204D01*
X03092D01*
X03096Y032D01*
X03092Y03196D01*
X03096D01*
X031Y03192D01*
Y03196D02*
X03102Y03198D01*
X03104D01*
X03102Y032D01*
X03104Y03202D01*
X03102D01*
X031Y03204D01*
X03098Y03202D01*
X03096D01*
X03098Y032D01*
X03096Y03198D01*
X03098D01*
X031Y03196D01*
X03Y02192D02*
X03004Y02196D01*
X03008D01*
X03004Y022D01*
X03008Y02204D01*
X03004D01*
X03Y02208D01*
X02996Y02204D01*
X02992D01*
X02996Y022D01*
X02992Y02196D01*
X02996D01*
X03Y02192D01*
Y02196D02*
X03002Y02198D01*
X03004D01*
X03002Y022D01*
X03004Y02202D01*
X03002D01*
X03Y02204D01*
X02998Y02202D01*
X02996D01*
X02998Y022D01*
X02996Y02198D01*
X02998D01*
X03Y02196D01*
X028Y04592D02*
X02804Y04596D01*
X02808D01*
X02804Y046D01*
X02808Y04604D01*
X02804D01*
X028Y04608D01*
X02796Y04604D01*
X02792D01*
X02796Y046D01*
X02792Y04596D01*
X02796D01*
X028Y04592D01*
Y04596D02*
X02802Y04598D01*
X02804D01*
X02802Y046D01*
X02804Y04602D01*
X02802D01*
X028Y04604D01*
X02798Y04602D01*
X02796D01*
X02798Y046D01*
X02796Y04598D01*
X02798D01*
X028Y04596D01*
X029Y03192D02*
X02904Y03196D01*
X02908D01*
X02904Y032D01*
X02908Y03204D01*
X02904D01*
X029Y03208D01*
X02896Y03204D01*
X02892D01*
X02896Y032D01*
X02892Y03196D01*
X02896D01*
X029Y03192D01*
Y03196D02*
X02902Y03198D01*
X02904D01*
X02902Y032D01*
X02904Y03202D01*
X02902D01*
X029Y03204D01*
X02898Y03202D01*
X02896D01*
X02898Y032D01*
X02896Y03198D01*
X02898D01*
X029Y03196D01*
X028Y02192D02*
X02804Y02196D01*
X02808D01*
X02804Y022D01*
X02808Y02204D01*
X02804D01*
X028Y02208D01*
X02796Y02204D01*
X02792D01*
X02796Y022D01*
X02792Y02196D01*
X02796D01*
X028Y02192D01*
Y02196D02*
X02802Y02198D01*
X02804D01*
X02802Y022D01*
X02804Y02202D01*
X02802D01*
X028Y02204D01*
X02798Y02202D01*
X02796D01*
X02798Y022D01*
X02796Y02198D01*
X02798D01*
X028Y02196D01*
X026Y03392D02*
X02604Y03396D01*
X02608D01*
X02604Y034D01*
X02608Y03404D01*
X02604D01*
X026Y03408D01*
X02596Y03404D01*
X02592D01*
X02596Y034D01*
X02592Y03396D01*
X02596D01*
X026Y03392D01*
Y03396D02*
X02602Y03398D01*
X02604D01*
X02602Y034D01*
X02604Y03402D01*
X02602D01*
X026Y03404D01*
X02598Y03402D01*
X02596D01*
X02598Y034D01*
X02596Y03398D01*
X02598D01*
X026Y03396D01*
X027Y03192D02*
X02704Y03196D01*
X02708D01*
X02704Y032D01*
X02708Y03204D01*
X02704D01*
X027Y03208D01*
X02696Y03204D01*
X02692D01*
X02696Y032D01*
X02692Y03196D01*
X02696D01*
X027Y03192D01*
Y03196D02*
X02702Y03198D01*
X02704D01*
X02702Y032D01*
X02704Y03202D01*
X02702D01*
X027Y03204D01*
X02698Y03202D01*
X02696D01*
X02698Y032D01*
X02696Y03198D01*
X02698D01*
X027Y03196D01*
X026Y02992D02*
X02604Y02996D01*
X02608D01*
X02604Y03D01*
X02608Y03004D01*
X02604D01*
X026Y03008D01*
X02596Y03004D01*
X02592D01*
X02596Y03D01*
X02592Y02996D01*
X02596D01*
X026Y02992D01*
Y02996D02*
X02602Y02998D01*
X02604D01*
X02602Y03D01*
X02604Y03002D01*
X02602D01*
X026Y03004D01*
X02598Y03002D01*
X02596D01*
X02598Y03D01*
X02596Y02998D01*
X02598D01*
X026Y02996D01*
Y02192D02*
X02604Y02196D01*
X02608D01*
X02604Y022D01*
X02608Y02204D01*
X02604D01*
X026Y02208D01*
X02596Y02204D01*
X02592D01*
X02596Y022D01*
X02592Y02196D01*
X02596D01*
X026Y02192D01*
Y02196D02*
X02602Y02198D01*
X02604D01*
X02602Y022D01*
X02604Y02202D01*
X02602D01*
X026Y02204D01*
X02598Y02202D01*
X02596D01*
X02598Y022D01*
X02596Y02198D01*
X02598D01*
X026Y02196D01*
X024Y04592D02*
X02404Y04596D01*
X02408D01*
X02404Y046D01*
X02408Y04604D01*
X02404D01*
X024Y04608D01*
X02396Y04604D01*
X02392D01*
X02396Y046D01*
X02392Y04596D01*
X02396D01*
X024Y04592D01*
Y04596D02*
X02402Y04598D01*
X02404D01*
X02402Y046D01*
X02404Y04602D01*
X02402D01*
X024Y04604D01*
X02398Y04602D01*
X02396D01*
X02398Y046D01*
X02396Y04598D01*
X02398D01*
X024Y04596D01*
X025Y04392D02*
X02504Y04396D01*
X02508D01*
X02504Y044D01*
X02508Y04404D01*
X02504D01*
X025Y04408D01*
X02496Y04404D01*
X02492D01*
X02496Y044D01*
X02492Y04396D01*
X02496D01*
X025Y04392D01*
Y04396D02*
X02502Y04398D01*
X02504D01*
X02502Y044D01*
X02504Y04402D01*
X02502D01*
X025Y04404D01*
X02498Y04402D01*
X02496D01*
X02498Y044D01*
X02496Y04398D01*
X02498D01*
X025Y04396D01*
X024Y03392D02*
X02404Y03396D01*
X02408D01*
X02404Y034D01*
X02408Y03404D01*
X02404D01*
X024Y03408D01*
X02396Y03404D01*
X02392D01*
X02396Y034D01*
X02392Y03396D01*
X02396D01*
X024Y03392D01*
Y03396D02*
X02402Y03398D01*
X02404D01*
X02402Y034D01*
X02404Y03402D01*
X02402D01*
X024Y03404D01*
X02398Y03402D01*
X02396D01*
X02398Y034D01*
X02396Y03398D01*
X02398D01*
X024Y03396D01*
X025Y03192D02*
X02504Y03196D01*
X02508D01*
X02504Y032D01*
X02508Y03204D01*
X02504D01*
X025Y03208D01*
X02496Y03204D01*
X02492D01*
X02496Y032D01*
X02492Y03196D01*
X02496D01*
X025Y03192D01*
Y03196D02*
X02502Y03198D01*
X02504D01*
X02502Y032D01*
X02504Y03202D01*
X02502D01*
X025Y03204D01*
X02498Y03202D01*
X02496D01*
X02498Y032D01*
X02496Y03198D01*
X02498D01*
X025Y03196D01*
X024Y02992D02*
X02404Y02996D01*
X02408D01*
X02404Y03D01*
X02408Y03004D01*
X02404D01*
X024Y03008D01*
X02396Y03004D01*
X02392D01*
X02396Y03D01*
X02392Y02996D01*
X02396D01*
X024Y02992D01*
Y02996D02*
X02402Y02998D01*
X02404D01*
X02402Y03D01*
X02404Y03002D01*
X02402D01*
X024Y03004D01*
X02398Y03002D01*
X02396D01*
X02398Y03D01*
X02396Y02998D01*
X02398D01*
X024Y02996D01*
X025Y02792D02*
X02504Y02796D01*
X02508D01*
X02504Y028D01*
X02508Y02804D01*
X02504D01*
X025Y02808D01*
X02496Y02804D01*
X02492D01*
X02496Y028D01*
X02492Y02796D01*
X02496D01*
X025Y02792D01*
Y02796D02*
X02502Y02798D01*
X02504D01*
X02502Y028D01*
X02504Y02802D01*
X02502D01*
X025Y02804D01*
X02498Y02802D01*
X02496D01*
X02498Y028D01*
X02496Y02798D01*
X02498D01*
X025Y02796D01*
X024Y02592D02*
X02404Y02596D01*
X02408D01*
X02404Y026D01*
X02408Y02604D01*
X02404D01*
X024Y02608D01*
X02396Y02604D01*
X02392D01*
X02396Y026D01*
X02392Y02596D01*
X02396D01*
X024Y02592D01*
Y02596D02*
X02402Y02598D01*
X02404D01*
X02402Y026D01*
X02404Y02602D01*
X02402D01*
X024Y02604D01*
X02398Y02602D01*
X02396D01*
X02398Y026D01*
X02396Y02598D01*
X02398D01*
X024Y02596D01*
X025Y02392D02*
X02504Y02396D01*
X02508D01*
X02504Y024D01*
X02508Y02404D01*
X02504D01*
X025Y02408D01*
X02496Y02404D01*
X02492D01*
X02496Y024D01*
X02492Y02396D01*
X02496D01*
X025Y02392D01*
Y02396D02*
X02502Y02398D01*
X02504D01*
X02502Y024D01*
X02504Y02402D01*
X02502D01*
X025Y02404D01*
X02498Y02402D01*
X02496D01*
X02498Y024D01*
X02496Y02398D01*
X02498D01*
X025Y02396D01*
X024Y02192D02*
X02404Y02196D01*
X02408D01*
X02404Y022D01*
X02408Y02204D01*
X02404D01*
X024Y02208D01*
X02396Y02204D01*
X02392D01*
X02396Y022D01*
X02392Y02196D01*
X02396D01*
X024Y02192D01*
Y02196D02*
X02402Y02198D01*
X02404D01*
X02402Y022D01*
X02404Y02202D01*
X02402D01*
X024Y02204D01*
X02398Y02202D01*
X02396D01*
X02398Y022D01*
X02396Y02198D01*
X02398D01*
X024Y02196D01*
X022Y04192D02*
X02204Y04196D01*
X02208D01*
X02204Y042D01*
X02208Y04204D01*
X02204D01*
X022Y04208D01*
X02196Y04204D01*
X02192D01*
X02196Y042D01*
X02192Y04196D01*
X02196D01*
X022Y04192D01*
Y04196D02*
X02202Y04198D01*
X02204D01*
X02202Y042D01*
X02204Y04202D01*
X02202D01*
X022Y04204D01*
X02198Y04202D01*
X02196D01*
X02198Y042D01*
X02196Y04198D01*
X02198D01*
X022Y04196D01*
Y03392D02*
X02204Y03396D01*
X02208D01*
X02204Y034D01*
X02208Y03404D01*
X02204D01*
X022Y03408D01*
X02196Y03404D01*
X02192D01*
X02196Y034D01*
X02192Y03396D01*
X02196D01*
X022Y03392D01*
Y03396D02*
X02202Y03398D01*
X02204D01*
X02202Y034D01*
X02204Y03402D01*
X02202D01*
X022Y03404D01*
X02198Y03402D01*
X02196D01*
X02198Y034D01*
X02196Y03398D01*
X02198D01*
X022Y03396D01*
X023Y03192D02*
X02304Y03196D01*
X02308D01*
X02304Y032D01*
X02308Y03204D01*
X02304D01*
X023Y03208D01*
X02296Y03204D01*
X02292D01*
X02296Y032D01*
X02292Y03196D01*
X02296D01*
X023Y03192D01*
Y03196D02*
X02302Y03198D01*
X02304D01*
X02302Y032D01*
X02304Y03202D01*
X02302D01*
X023Y03204D01*
X02298Y03202D01*
X02296D01*
X02298Y032D01*
X02296Y03198D01*
X02298D01*
X023Y03196D01*
X022Y02992D02*
X02204Y02996D01*
X02208D01*
X02204Y03D01*
X02208Y03004D01*
X02204D01*
X022Y03008D01*
X02196Y03004D01*
X02192D01*
X02196Y03D01*
X02192Y02996D01*
X02196D01*
X022Y02992D01*
Y02996D02*
X02202Y02998D01*
X02204D01*
X02202Y03D01*
X02204Y03002D01*
X02202D01*
X022Y03004D01*
X02198Y03002D01*
X02196D01*
X02198Y03D01*
X02196Y02998D01*
X02198D01*
X022Y02996D01*
X023Y02792D02*
X02304Y02796D01*
X02308D01*
X02304Y028D01*
X02308Y02804D01*
X02304D01*
X023Y02808D01*
X02296Y02804D01*
X02292D01*
X02296Y028D01*
X02292Y02796D01*
X02296D01*
X023Y02792D01*
Y02796D02*
X02302Y02798D01*
X02304D01*
X02302Y028D01*
X02304Y02802D01*
X02302D01*
X023Y02804D01*
X02298Y02802D01*
X02296D01*
X02298Y028D01*
X02296Y02798D01*
X02298D01*
X023Y02796D01*
X022Y02592D02*
X02204Y02596D01*
X02208D01*
X02204Y026D01*
X02208Y02604D01*
X02204D01*
X022Y02608D01*
X02196Y02604D01*
X02192D01*
X02196Y026D01*
X02192Y02596D01*
X02196D01*
X022Y02592D01*
Y02596D02*
X02202Y02598D01*
X02204D01*
X02202Y026D01*
X02204Y02602D01*
X02202D01*
X022Y02604D01*
X02198Y02602D01*
X02196D01*
X02198Y026D01*
X02196Y02598D01*
X02198D01*
X022Y02596D01*
X023Y02392D02*
X02304Y02396D01*
X02308D01*
X02304Y024D01*
X02308Y02404D01*
X02304D01*
X023Y02408D01*
X02296Y02404D01*
X02292D01*
X02296Y024D01*
X02292Y02396D01*
X02296D01*
X023Y02392D01*
Y02396D02*
X02302Y02398D01*
X02304D01*
X02302Y024D01*
X02304Y02402D01*
X02302D01*
X023Y02404D01*
X02298Y02402D01*
X02296D01*
X02298Y024D01*
X02296Y02398D01*
X02298D01*
X023Y02396D01*
X022Y02192D02*
X02204Y02196D01*
X02208D01*
X02204Y022D01*
X02208Y02204D01*
X02204D01*
X022Y02208D01*
X02196Y02204D01*
X02192D01*
X02196Y022D01*
X02192Y02196D01*
X02196D01*
X022Y02192D01*
Y02196D02*
X02202Y02198D01*
X02204D01*
X02202Y022D01*
X02204Y02202D01*
X02202D01*
X022Y02204D01*
X02198Y02202D01*
X02196D01*
X02198Y022D01*
X02196Y02198D01*
X02198D01*
X022Y02196D01*
X021Y04792D02*
X02104Y04796D01*
X02108D01*
X02104Y048D01*
X02108Y04804D01*
X02104D01*
X021Y04808D01*
X02096Y04804D01*
X02092D01*
X02096Y048D01*
X02092Y04796D01*
X02096D01*
X021Y04792D01*
Y04796D02*
X02102Y04798D01*
X02104D01*
X02102Y048D01*
X02104Y04802D01*
X02102D01*
X021Y04804D01*
X02098Y04802D01*
X02096D01*
X02098Y048D01*
X02096Y04798D01*
X02098D01*
X021Y04796D01*
Y04392D02*
X02104Y04396D01*
X02108D01*
X02104Y044D01*
X02108Y04404D01*
X02104D01*
X021Y04408D01*
X02096Y04404D01*
X02092D01*
X02096Y044D01*
X02092Y04396D01*
X02096D01*
X021Y04392D01*
Y04396D02*
X02102Y04398D01*
X02104D01*
X02102Y044D01*
X02104Y04402D01*
X02102D01*
X021Y04404D01*
X02098Y04402D01*
X02096D01*
X02098Y044D01*
X02096Y04398D01*
X02098D01*
X021Y04396D01*
Y03192D02*
X02104Y03196D01*
X02108D01*
X02104Y032D01*
X02108Y03204D01*
X02104D01*
X021Y03208D01*
X02096Y03204D01*
X02092D01*
X02096Y032D01*
X02092Y03196D01*
X02096D01*
X021Y03192D01*
Y03196D02*
X02102Y03198D01*
X02104D01*
X02102Y032D01*
X02104Y03202D01*
X02102D01*
X021Y03204D01*
X02098Y03202D01*
X02096D01*
X02098Y032D01*
X02096Y03198D01*
X02098D01*
X021Y03196D01*
Y02792D02*
X02104Y02796D01*
X02108D01*
X02104Y028D01*
X02108Y02804D01*
X02104D01*
X021Y02808D01*
X02096Y02804D01*
X02092D01*
X02096Y028D01*
X02092Y02796D01*
X02096D01*
X021Y02792D01*
Y02796D02*
X02102Y02798D01*
X02104D01*
X02102Y028D01*
X02104Y02802D01*
X02102D01*
X021Y02804D01*
X02098Y02802D01*
X02096D01*
X02098Y028D01*
X02096Y02798D01*
X02098D01*
X021Y02796D01*
X02Y02592D02*
X02004Y02596D01*
X02008D01*
X02004Y026D01*
X02008Y02604D01*
X02004D01*
X02Y02608D01*
X01996Y02604D01*
X01992D01*
X01996Y026D01*
X01992Y02596D01*
X01996D01*
X02Y02592D01*
Y02596D02*
X02002Y02598D01*
X02004D01*
X02002Y026D01*
X02004Y02602D01*
X02002D01*
X02Y02604D01*
X01998Y02602D01*
X01996D01*
X01998Y026D01*
X01996Y02598D01*
X01998D01*
X02Y02596D01*
X021Y02392D02*
X02104Y02396D01*
X02108D01*
X02104Y024D01*
X02108Y02404D01*
X02104D01*
X021Y02408D01*
X02096Y02404D01*
X02092D01*
X02096Y024D01*
X02092Y02396D01*
X02096D01*
X021Y02392D01*
Y02396D02*
X02102Y02398D01*
X02104D01*
X02102Y024D01*
X02104Y02402D01*
X02102D01*
X021Y02404D01*
X02098Y02402D01*
X02096D01*
X02098Y024D01*
X02096Y02398D01*
X02098D01*
X021Y02396D01*
X02Y02192D02*
X02004Y02196D01*
X02008D01*
X02004Y022D01*
X02008Y02204D01*
X02004D01*
X02Y02208D01*
X01996Y02204D01*
X01992D01*
X01996Y022D01*
X01992Y02196D01*
X01996D01*
X02Y02192D01*
Y02196D02*
X02002Y02198D01*
X02004D01*
X02002Y022D01*
X02004Y02202D01*
X02002D01*
X02Y02204D01*
X01998Y02202D01*
X01996D01*
X01998Y022D01*
X01996Y02198D01*
X01998D01*
X02Y02196D01*
X019Y04792D02*
X01904Y04796D01*
X01908D01*
X01904Y048D01*
X01908Y04804D01*
X01904D01*
X019Y04808D01*
X01896Y04804D01*
X01892D01*
X01896Y048D01*
X01892Y04796D01*
X01896D01*
X019Y04792D01*
Y04796D02*
X01902Y04798D01*
X01904D01*
X01902Y048D01*
X01904Y04802D01*
X01902D01*
X019Y04804D01*
X01898Y04802D01*
X01896D01*
X01898Y048D01*
X01896Y04798D01*
X01898D01*
X019Y04796D01*
X018Y04592D02*
X01804Y04596D01*
X01808D01*
X01804Y046D01*
X01808Y04604D01*
X01804D01*
X018Y04608D01*
X01796Y04604D01*
X01792D01*
X01796Y046D01*
X01792Y04596D01*
X01796D01*
X018Y04592D01*
Y04596D02*
X01802Y04598D01*
X01804D01*
X01802Y046D01*
X01804Y04602D01*
X01802D01*
X018Y04604D01*
X01798Y04602D01*
X01796D01*
X01798Y046D01*
X01796Y04598D01*
X01798D01*
X018Y04596D01*
X019Y03992D02*
X01904Y03996D01*
X01908D01*
X01904Y04D01*
X01908Y04004D01*
X01904D01*
X019Y04008D01*
X01896Y04004D01*
X01892D01*
X01896Y04D01*
X01892Y03996D01*
X01896D01*
X019Y03992D01*
Y03996D02*
X01902Y03998D01*
X01904D01*
X01902Y04D01*
X01904Y04002D01*
X01902D01*
X019Y04004D01*
X01898Y04002D01*
X01896D01*
X01898Y04D01*
X01896Y03998D01*
X01898D01*
X019Y03996D01*
X018Y03792D02*
X01804Y03796D01*
X01808D01*
X01804Y038D01*
X01808Y03804D01*
X01804D01*
X018Y03808D01*
X01796Y03804D01*
X01792D01*
X01796Y038D01*
X01792Y03796D01*
X01796D01*
X018Y03792D01*
Y03796D02*
X01802Y03798D01*
X01804D01*
X01802Y038D01*
X01804Y03802D01*
X01802D01*
X018Y03804D01*
X01798Y03802D01*
X01796D01*
X01798Y038D01*
X01796Y03798D01*
X01798D01*
X018Y03796D01*
Y03392D02*
X01804Y03396D01*
X01808D01*
X01804Y034D01*
X01808Y03404D01*
X01804D01*
X018Y03408D01*
X01796Y03404D01*
X01792D01*
X01796Y034D01*
X01792Y03396D01*
X01796D01*
X018Y03392D01*
Y03396D02*
X01802Y03398D01*
X01804D01*
X01802Y034D01*
X01804Y03402D01*
X01802D01*
X018Y03404D01*
X01798Y03402D01*
X01796D01*
X01798Y034D01*
X01796Y03398D01*
X01798D01*
X018Y03396D01*
X019Y03192D02*
X01904Y03196D01*
X01908D01*
X01904Y032D01*
X01908Y03204D01*
X01904D01*
X019Y03208D01*
X01896Y03204D01*
X01892D01*
X01896Y032D01*
X01892Y03196D01*
X01896D01*
X019Y03192D01*
Y03196D02*
X01902Y03198D01*
X01904D01*
X01902Y032D01*
X01904Y03202D01*
X01902D01*
X019Y03204D01*
X01898Y03202D01*
X01896D01*
X01898Y032D01*
X01896Y03198D01*
X01898D01*
X019Y03196D01*
Y02392D02*
X01904Y02396D01*
X01908D01*
X01904Y024D01*
X01908Y02404D01*
X01904D01*
X019Y02408D01*
X01896Y02404D01*
X01892D01*
X01896Y024D01*
X01892Y02396D01*
X01896D01*
X019Y02392D01*
Y02396D02*
X01902Y02398D01*
X01904D01*
X01902Y024D01*
X01904Y02402D01*
X01902D01*
X019Y02404D01*
X01898Y02402D01*
X01896D01*
X01898Y024D01*
X01896Y02398D01*
X01898D01*
X019Y02396D01*
X018Y02192D02*
X01804Y02196D01*
X01808D01*
X01804Y022D01*
X01808Y02204D01*
X01804D01*
X018Y02208D01*
X01796Y02204D01*
X01792D01*
X01796Y022D01*
X01792Y02196D01*
X01796D01*
X018Y02192D01*
Y02196D02*
X01802Y02198D01*
X01804D01*
X01802Y022D01*
X01804Y02202D01*
X01802D01*
X018Y02204D01*
X01798Y02202D01*
X01796D01*
X01798Y022D01*
X01796Y02198D01*
X01798D01*
X018Y02196D01*
X017Y04792D02*
X01704Y04796D01*
X01708D01*
X01704Y048D01*
X01708Y04804D01*
X01704D01*
X017Y04808D01*
X01696Y04804D01*
X01692D01*
X01696Y048D01*
X01692Y04796D01*
X01696D01*
X017Y04792D01*
Y04796D02*
X01702Y04798D01*
X01704D01*
X01702Y048D01*
X01704Y04802D01*
X01702D01*
X017Y04804D01*
X01698Y04802D01*
X01696D01*
X01698Y048D01*
X01696Y04798D01*
X01698D01*
X017Y04796D01*
X016Y04592D02*
X01604Y04596D01*
X01608D01*
X01604Y046D01*
X01608Y04604D01*
X01604D01*
X016Y04608D01*
X01596Y04604D01*
X01592D01*
X01596Y046D01*
X01592Y04596D01*
X01596D01*
X016Y04592D01*
Y04596D02*
X01602Y04598D01*
X01604D01*
X01602Y046D01*
X01604Y04602D01*
X01602D01*
X016Y04604D01*
X01598Y04602D01*
X01596D01*
X01598Y046D01*
X01596Y04598D01*
X01598D01*
X016Y04596D01*
X017Y03992D02*
X01704Y03996D01*
X01708D01*
X01704Y04D01*
X01708Y04004D01*
X01704D01*
X017Y04008D01*
X01696Y04004D01*
X01692D01*
X01696Y04D01*
X01692Y03996D01*
X01696D01*
X017Y03992D01*
Y03996D02*
X01702Y03998D01*
X01704D01*
X01702Y04D01*
X01704Y04002D01*
X01702D01*
X017Y04004D01*
X01698Y04002D01*
X01696D01*
X01698Y04D01*
X01696Y03998D01*
X01698D01*
X017Y03996D01*
X016Y03792D02*
X01604Y03796D01*
X01608D01*
X01604Y038D01*
X01608Y03804D01*
X01604D01*
X016Y03808D01*
X01596Y03804D01*
X01592D01*
X01596Y038D01*
X01592Y03796D01*
X01596D01*
X016Y03792D01*
Y03796D02*
X01602Y03798D01*
X01604D01*
X01602Y038D01*
X01604Y03802D01*
X01602D01*
X016Y03804D01*
X01598Y03802D01*
X01596D01*
X01598Y038D01*
X01596Y03798D01*
X01598D01*
X016Y03796D01*
Y03392D02*
X01604Y03396D01*
X01608D01*
X01604Y034D01*
X01608Y03404D01*
X01604D01*
X016Y03408D01*
X01596Y03404D01*
X01592D01*
X01596Y034D01*
X01592Y03396D01*
X01596D01*
X016Y03392D01*
Y03396D02*
X01602Y03398D01*
X01604D01*
X01602Y034D01*
X01604Y03402D01*
X01602D01*
X016Y03404D01*
X01598Y03402D01*
X01596D01*
X01598Y034D01*
X01596Y03398D01*
X01598D01*
X016Y03396D01*
Y02992D02*
X01604Y02996D01*
X01608D01*
X01604Y03D01*
X01608Y03004D01*
X01604D01*
X016Y03008D01*
X01596Y03004D01*
X01592D01*
X01596Y03D01*
X01592Y02996D01*
X01596D01*
X016Y02992D01*
Y02996D02*
X01602Y02998D01*
X01604D01*
X01602Y03D01*
X01604Y03002D01*
X01602D01*
X016Y03004D01*
X01598Y03002D01*
X01596D01*
X01598Y03D01*
X01596Y02998D01*
X01598D01*
X016Y02996D01*
X017Y02792D02*
X01704Y02796D01*
X01708D01*
X01704Y028D01*
X01708Y02804D01*
X01704D01*
X017Y02808D01*
X01696Y02804D01*
X01692D01*
X01696Y028D01*
X01692Y02796D01*
X01696D01*
X017Y02792D01*
Y02796D02*
X01702Y02798D01*
X01704D01*
X01702Y028D01*
X01704Y02802D01*
X01702D01*
X017Y02804D01*
X01698Y02802D01*
X01696D01*
X01698Y028D01*
X01696Y02798D01*
X01698D01*
X017Y02796D01*
X016Y02592D02*
X01604Y02596D01*
X01608D01*
X01604Y026D01*
X01608Y02604D01*
X01604D01*
X016Y02608D01*
X01596Y02604D01*
X01592D01*
X01596Y026D01*
X01592Y02596D01*
X01596D01*
X016Y02592D01*
Y02596D02*
X01602Y02598D01*
X01604D01*
X01602Y026D01*
X01604Y02602D01*
X01602D01*
X016Y02604D01*
X01598Y02602D01*
X01596D01*
X01598Y026D01*
X01596Y02598D01*
X01598D01*
X016Y02596D01*
X017Y02392D02*
X01704Y02396D01*
X01708D01*
X01704Y024D01*
X01708Y02404D01*
X01704D01*
X017Y02408D01*
X01696Y02404D01*
X01692D01*
X01696Y024D01*
X01692Y02396D01*
X01696D01*
X017Y02392D01*
Y02396D02*
X01702Y02398D01*
X01704D01*
X01702Y024D01*
X01704Y02402D01*
X01702D01*
X017Y02404D01*
X01698Y02402D01*
X01696D01*
X01698Y024D01*
X01696Y02398D01*
X01698D01*
X017Y02396D01*
X015Y04792D02*
X01504Y04796D01*
X01508D01*
X01504Y048D01*
X01508Y04804D01*
X01504D01*
X015Y04808D01*
X01496Y04804D01*
X01492D01*
X01496Y048D01*
X01492Y04796D01*
X01496D01*
X015Y04792D01*
Y04796D02*
X01502Y04798D01*
X01504D01*
X01502Y048D01*
X01504Y04802D01*
X01502D01*
X015Y04804D01*
X01498Y04802D01*
X01496D01*
X01498Y048D01*
X01496Y04798D01*
X01498D01*
X015Y04796D01*
X014Y04592D02*
X01404Y04596D01*
X01408D01*
X01404Y046D01*
X01408Y04604D01*
X01404D01*
X014Y04608D01*
X01396Y04604D01*
X01392D01*
X01396Y046D01*
X01392Y04596D01*
X01396D01*
X014Y04592D01*
Y04596D02*
X01402Y04598D01*
X01404D01*
X01402Y046D01*
X01404Y04602D01*
X01402D01*
X014Y04604D01*
X01398Y04602D01*
X01396D01*
X01398Y046D01*
X01396Y04598D01*
X01398D01*
X014Y04596D01*
X015Y03592D02*
X01504Y03596D01*
X01508D01*
X01504Y036D01*
X01508Y03604D01*
X01504D01*
X015Y03608D01*
X01496Y03604D01*
X01492D01*
X01496Y036D01*
X01492Y03596D01*
X01496D01*
X015Y03592D01*
Y03596D02*
X01502Y03598D01*
X01504D01*
X01502Y036D01*
X01504Y03602D01*
X01502D01*
X015Y03604D01*
X01498Y03602D01*
X01496D01*
X01498Y036D01*
X01496Y03598D01*
X01498D01*
X015Y03596D01*
X014Y03392D02*
X01404Y03396D01*
X01408D01*
X01404Y034D01*
X01408Y03404D01*
X01404D01*
X014Y03408D01*
X01396Y03404D01*
X01392D01*
X01396Y034D01*
X01392Y03396D01*
X01396D01*
X014Y03392D01*
Y03396D02*
X01402Y03398D01*
X01404D01*
X01402Y034D01*
X01404Y03402D01*
X01402D01*
X014Y03404D01*
X01398Y03402D01*
X01396D01*
X01398Y034D01*
X01396Y03398D01*
X01398D01*
X014Y03396D01*
Y02992D02*
X01404Y02996D01*
X01408D01*
X01404Y03D01*
X01408Y03004D01*
X01404D01*
X014Y03008D01*
X01396Y03004D01*
X01392D01*
X01396Y03D01*
X01392Y02996D01*
X01396D01*
X014Y02992D01*
Y02996D02*
X01402Y02998D01*
X01404D01*
X01402Y03D01*
X01404Y03002D01*
X01402D01*
X014Y03004D01*
X01398Y03002D01*
X01396D01*
X01398Y03D01*
X01396Y02998D01*
X01398D01*
X014Y02996D01*
X015Y02792D02*
X01504Y02796D01*
X01508D01*
X01504Y028D01*
X01508Y02804D01*
X01504D01*
X015Y02808D01*
X01496Y02804D01*
X01492D01*
X01496Y028D01*
X01492Y02796D01*
X01496D01*
X015Y02792D01*
Y02796D02*
X01502Y02798D01*
X01504D01*
X01502Y028D01*
X01504Y02802D01*
X01502D01*
X015Y02804D01*
X01498Y02802D01*
X01496D01*
X01498Y028D01*
X01496Y02798D01*
X01498D01*
X015Y02796D01*
X014Y02592D02*
X01404Y02596D01*
X01408D01*
X01404Y026D01*
X01408Y02604D01*
X01404D01*
X014Y02608D01*
X01396Y02604D01*
X01392D01*
X01396Y026D01*
X01392Y02596D01*
X01396D01*
X014Y02592D01*
Y02596D02*
X01402Y02598D01*
X01404D01*
X01402Y026D01*
X01404Y02602D01*
X01402D01*
X014Y02604D01*
X01398Y02602D01*
X01396D01*
X01398Y026D01*
X01396Y02598D01*
X01398D01*
X014Y02596D01*
X015Y02392D02*
X01504Y02396D01*
X01508D01*
X01504Y024D01*
X01508Y02404D01*
X01504D01*
X015Y02408D01*
X01496Y02404D01*
X01492D01*
X01496Y024D01*
X01492Y02396D01*
X01496D01*
X015Y02392D01*
Y02396D02*
X01502Y02398D01*
X01504D01*
X01502Y024D01*
X01504Y02402D01*
X01502D01*
X015Y02404D01*
X01498Y02402D01*
X01496D01*
X01498Y024D01*
X01496Y02398D01*
X01498D01*
X015Y02396D01*
X013Y04792D02*
X01304Y04796D01*
X01308D01*
X01304Y048D01*
X01308Y04804D01*
X01304D01*
X013Y04808D01*
X01296Y04804D01*
X01292D01*
X01296Y048D01*
X01292Y04796D01*
X01296D01*
X013Y04792D01*
Y04796D02*
X01302Y04798D01*
X01304D01*
X01302Y048D01*
X01304Y04802D01*
X01302D01*
X013Y04804D01*
X01298Y04802D01*
X01296D01*
X01298Y048D01*
X01296Y04798D01*
X01298D01*
X013Y04796D01*
Y04392D02*
X01304Y04396D01*
X01308D01*
X01304Y044D01*
X01308Y04404D01*
X01304D01*
X013Y04408D01*
X01296Y04404D01*
X01292D01*
X01296Y044D01*
X01292Y04396D01*
X01296D01*
X013Y04392D01*
Y04396D02*
X01302Y04398D01*
X01304D01*
X01302Y044D01*
X01304Y04402D01*
X01302D01*
X013Y04404D01*
X01298Y04402D01*
X01296D01*
X01298Y044D01*
X01296Y04398D01*
X01298D01*
X013Y04396D01*
X012Y04192D02*
X01204Y04196D01*
X01208D01*
X01204Y042D01*
X01208Y04204D01*
X01204D01*
X012Y04208D01*
X01196Y04204D01*
X01192D01*
X01196Y042D01*
X01192Y04196D01*
X01196D01*
X012Y04192D01*
Y04196D02*
X01202Y04198D01*
X01204D01*
X01202Y042D01*
X01204Y04202D01*
X01202D01*
X012Y04204D01*
X01198Y04202D01*
X01196D01*
X01198Y042D01*
X01196Y04198D01*
X01198D01*
X012Y04196D01*
X013Y03992D02*
X01304Y03996D01*
X01308D01*
X01304Y04D01*
X01308Y04004D01*
X01304D01*
X013Y04008D01*
X01296Y04004D01*
X01292D01*
X01296Y04D01*
X01292Y03996D01*
X01296D01*
X013Y03992D01*
Y03996D02*
X01302Y03998D01*
X01304D01*
X01302Y04D01*
X01304Y04002D01*
X01302D01*
X013Y04004D01*
X01298Y04002D01*
X01296D01*
X01298Y04D01*
X01296Y03998D01*
X01298D01*
X013Y03996D01*
X012Y03792D02*
X01204Y03796D01*
X01208D01*
X01204Y038D01*
X01208Y03804D01*
X01204D01*
X012Y03808D01*
X01196Y03804D01*
X01192D01*
X01196Y038D01*
X01192Y03796D01*
X01196D01*
X012Y03792D01*
Y03796D02*
X01202Y03798D01*
X01204D01*
X01202Y038D01*
X01204Y03802D01*
X01202D01*
X012Y03804D01*
X01198Y03802D01*
X01196D01*
X01198Y038D01*
X01196Y03798D01*
X01198D01*
X012Y03796D01*
Y03392D02*
X01204Y03396D01*
X01208D01*
X01204Y034D01*
X01208Y03404D01*
X01204D01*
X012Y03408D01*
X01196Y03404D01*
X01192D01*
X01196Y034D01*
X01192Y03396D01*
X01196D01*
X012Y03392D01*
Y03396D02*
X01202Y03398D01*
X01204D01*
X01202Y034D01*
X01204Y03402D01*
X01202D01*
X012Y03404D01*
X01198Y03402D01*
X01196D01*
X01198Y034D01*
X01196Y03398D01*
X01198D01*
X012Y03396D01*
X013Y03192D02*
X01304Y03196D01*
X01308D01*
X01304Y032D01*
X01308Y03204D01*
X01304D01*
X013Y03208D01*
X01296Y03204D01*
X01292D01*
X01296Y032D01*
X01292Y03196D01*
X01296D01*
X013Y03192D01*
Y03196D02*
X01302Y03198D01*
X01304D01*
X01302Y032D01*
X01304Y03202D01*
X01302D01*
X013Y03204D01*
X01298Y03202D01*
X01296D01*
X01298Y032D01*
X01296Y03198D01*
X01298D01*
X013Y03196D01*
Y02792D02*
X01304Y02796D01*
X01308D01*
X01304Y028D01*
X01308Y02804D01*
X01304D01*
X013Y02808D01*
X01296Y02804D01*
X01292D01*
X01296Y028D01*
X01292Y02796D01*
X01296D01*
X013Y02792D01*
Y02796D02*
X01302Y02798D01*
X01304D01*
X01302Y028D01*
X01304Y02802D01*
X01302D01*
X013Y02804D01*
X01298Y02802D01*
X01296D01*
X01298Y028D01*
X01296Y02798D01*
X01298D01*
X013Y02796D01*
X012Y02592D02*
X01204Y02596D01*
X01208D01*
X01204Y026D01*
X01208Y02604D01*
X01204D01*
X012Y02608D01*
X01196Y02604D01*
X01192D01*
X01196Y026D01*
X01192Y02596D01*
X01196D01*
X012Y02592D01*
Y02596D02*
X01202Y02598D01*
X01204D01*
X01202Y026D01*
X01204Y02602D01*
X01202D01*
X012Y02604D01*
X01198Y02602D01*
X01196D01*
X01198Y026D01*
X01196Y02598D01*
X01198D01*
X012Y02596D01*
X013Y02392D02*
X01304Y02396D01*
X01308D01*
X01304Y024D01*
X01308Y02404D01*
X01304D01*
X013Y02408D01*
X01296Y02404D01*
X01292D01*
X01296Y024D01*
X01292Y02396D01*
X01296D01*
X013Y02392D01*
Y02396D02*
X01302Y02398D01*
X01304D01*
X01302Y024D01*
X01304Y02402D01*
X01302D01*
X013Y02404D01*
X01298Y02402D01*
X01296D01*
X01298Y024D01*
X01296Y02398D01*
X01298D01*
X013Y02396D01*
X025491Y03932D02*
X025531Y03936D01*
X025571D01*
X025531Y0394D01*
X025571Y03944D01*
X025531D01*
X025491Y03948D01*
X025451Y03944D01*
X025411D01*
X025451Y0394D01*
X025411Y03936D01*
X025451D01*
X025491Y03932D01*
Y03936D02*
X025511Y03938D01*
X025531D01*
X025511Y0394D01*
X025531Y03942D01*
X025511D01*
X025491Y03944D01*
X025471Y03942D01*
X025451D01*
X025471Y0394D01*
X025451Y03938D01*
X025471D01*
X025491Y03936D01*
X01673Y03549D02*
X01677Y03553D01*
X01681D01*
X01677Y03557D01*
X01681Y03561D01*
X01677D01*
X01673Y03565D01*
X01669Y03561D01*
X01665D01*
X01669Y03557D01*
X01665Y03553D01*
X01669D01*
X01673Y03549D01*
Y03553D02*
X01675Y03555D01*
X01677D01*
X01675Y03557D01*
X01677Y03559D01*
X01675D01*
X01673Y03561D01*
X01671Y03559D01*
X01669D01*
X01671Y03557D01*
X01669Y03555D01*
X01671D01*
X01673Y03553D01*
X023536Y03857D02*
X023576Y03861D01*
X023616D01*
X023576Y03865D01*
X023616Y03869D01*
X023576D01*
X023536Y03873D01*
X023496Y03869D01*
X023456D01*
X023496Y03865D01*
X023456Y03861D01*
X023496D01*
X023536Y03857D01*
Y03861D02*
X023556Y03863D01*
X023576D01*
X023556Y03865D01*
X023576Y03867D01*
X023556D01*
X023536Y03869D01*
X023516Y03867D01*
X023496D01*
X023516Y03865D01*
X023496Y03863D01*
X023516D01*
X023536Y03861D01*
X0251Y03677D02*
X02514Y03681D01*
X02518D01*
X02514Y03685D01*
X02518Y03689D01*
X02514D01*
X0251Y03693D01*
X02506Y03689D01*
X02502D01*
X02506Y03685D01*
X02502Y03681D01*
X02506D01*
X0251Y03677D01*
Y03681D02*
X02512Y03683D01*
X02514D01*
X02512Y03685D01*
X02514Y03687D01*
X02512D01*
X0251Y03689D01*
X02508Y03687D01*
X02506D01*
X02508Y03685D01*
X02506Y03683D01*
X02508D01*
X0251Y03681D01*
X03015Y03767D02*
X03019Y03771D01*
X03023D01*
X03019Y03775D01*
X03023Y03779D01*
X03019D01*
X03015Y03783D01*
X03011Y03779D01*
X03007D01*
X03011Y03775D01*
X03007Y03771D01*
X03011D01*
X03015Y03767D01*
Y03771D02*
X03017Y03773D01*
X03019D01*
X03017Y03775D01*
X03019Y03777D01*
X03017D01*
X03015Y03779D01*
X03013Y03777D01*
X03011D01*
X03013Y03775D01*
X03011Y03773D01*
X03013D01*
X03015Y03771D01*
X0281Y036136D02*
X02814Y036176D01*
X02818D01*
X02814Y036216D01*
X02818Y036256D01*
X02814D01*
X0281Y036296D01*
X02806Y036256D01*
X02802D01*
X02806Y036216D01*
X02802Y036176D01*
X02806D01*
X0281Y036136D01*
Y036176D02*
X02812Y036196D01*
X02814D01*
X02812Y036216D01*
X02814Y036236D01*
X02812D01*
X0281Y036256D01*
X02808Y036236D01*
X02806D01*
X02808Y036216D01*
X02806Y036196D01*
X02808D01*
X0281Y036176D01*
X028393Y038703D02*
X028433Y038743D01*
X028473D01*
X028433Y038783D01*
X028473Y038823D01*
X028433D01*
X028393Y038863D01*
X028353Y038823D01*
X028313D01*
X028353Y038783D01*
X028313Y038743D01*
X028353D01*
X028393Y038703D01*
Y038743D02*
X028413Y038763D01*
X028433D01*
X028413Y038783D01*
X028433Y038803D01*
X028413D01*
X028393Y038823D01*
X028373Y038803D01*
X028353D01*
X028373Y038783D01*
X028353Y038763D01*
X028373D01*
X028393Y038743D01*
X02515Y039935D02*
X02519Y039975D01*
X02523D01*
X02519Y040015D01*
X02523Y040055D01*
X02519D01*
X02515Y040095D01*
X02511Y040055D01*
X02507D01*
X02511Y040015D01*
X02507Y039975D01*
X02511D01*
X02515Y039935D01*
Y039975D02*
X02517Y039995D01*
X02519D01*
X02517Y040015D01*
X02519Y040035D01*
X02517D01*
X02515Y040055D01*
X02513Y040035D01*
X02511D01*
X02513Y040015D01*
X02511Y039995D01*
X02513D01*
X02515Y039975D01*
X032213Y04876D02*
X032253Y0488D01*
X032293D01*
X032253Y04884D01*
X032293Y04888D01*
X032253D01*
X032213Y04892D01*
X032173Y04888D01*
X032133D01*
X032173Y04884D01*
X032133Y0488D01*
X032173D01*
X032213Y04876D01*
Y0488D02*
X032233Y04882D01*
X032253D01*
X032233Y04884D01*
X032253Y04886D01*
X032233D01*
X032213Y04888D01*
X032193Y04886D01*
X032173D01*
X032193Y04884D01*
X032173Y04882D01*
X032193D01*
X032213Y0488D01*
X032106Y04627D02*
X032146Y04631D01*
X032186D01*
X032146Y04635D01*
X032186Y04639D01*
X032146D01*
X032106Y04643D01*
X032066Y04639D01*
X032026D01*
X032066Y04635D01*
X032026Y04631D01*
X032066D01*
X032106Y04627D01*
Y04631D02*
X032126Y04633D01*
X032146D01*
X032126Y04635D01*
X032146Y04637D01*
X032126D01*
X032106Y04639D01*
X032086Y04637D01*
X032066D01*
X032086Y04635D01*
X032066Y04633D01*
X032086D01*
X032106Y04631D01*
X03101Y047041D02*
X03105Y047081D01*
X03109D01*
X03105Y047121D01*
X03109Y047161D01*
X03105D01*
X03101Y047201D01*
X03097Y047161D01*
X03093D01*
X03097Y047121D01*
X03093Y047081D01*
X03097D01*
X03101Y047041D01*
Y047081D02*
X03103Y047101D01*
X03105D01*
X03103Y047121D01*
X03105Y047141D01*
X03103D01*
X03101Y047161D01*
X03099Y047141D01*
X03097D01*
X03099Y047121D01*
X03097Y047101D01*
X03099D01*
X03101Y047081D01*
X03035Y04607D02*
X03039Y04611D01*
X03043D01*
X03039Y04615D01*
X03043Y04619D01*
X03039D01*
X03035Y04623D01*
X03031Y04619D01*
X03027D01*
X03031Y04615D01*
X03027Y04611D01*
X03031D01*
X03035Y04607D01*
Y04611D02*
X03037Y04613D01*
X03039D01*
X03037Y04615D01*
X03039Y04617D01*
X03037D01*
X03035Y04619D01*
X03033Y04617D01*
X03031D01*
X03033Y04615D01*
X03031Y04613D01*
X03033D01*
X03035Y04611D01*
X030697Y044815D02*
X030737Y044855D01*
X030777D01*
X030737Y044895D01*
X030777Y044935D01*
X030737D01*
X030697Y044975D01*
X030657Y044935D01*
X030617D01*
X030657Y044895D01*
X030617Y044855D01*
X030657D01*
X030697Y044815D01*
Y044855D02*
X030717Y044875D01*
X030737D01*
X030717Y044895D01*
X030737Y044915D01*
X030717D01*
X030697Y044935D01*
X030677Y044915D01*
X030657D01*
X030677Y044895D01*
X030657Y044875D01*
X030677D01*
X030697Y044855D01*
X029767Y043886D02*
X029807Y043926D01*
X029847D01*
X029807Y043966D01*
X029847Y044006D01*
X029807D01*
X029767Y044046D01*
X029727Y044006D01*
X029687D01*
X029727Y043966D01*
X029687Y043926D01*
X029727D01*
X029767Y043886D01*
Y043926D02*
X029787Y043946D01*
X029807D01*
X029787Y043966D01*
X029807Y043986D01*
X029787D01*
X029767Y044006D01*
X029747Y043986D01*
X029727D01*
X029747Y043966D01*
X029727Y043946D01*
X029747D01*
X029767Y043926D01*
X028452Y043869D02*
X028492Y043909D01*
X028532D01*
X028492Y043949D01*
X028532Y043989D01*
X028492D01*
X028452Y044029D01*
X028412Y043989D01*
X028372D01*
X028412Y043949D01*
X028372Y043909D01*
X028412D01*
X028452Y043869D01*
Y043909D02*
X028472Y043929D01*
X028492D01*
X028472Y043949D01*
X028492Y043969D01*
X028472D01*
X028452Y043989D01*
X028432Y043969D01*
X028412D01*
X028432Y043949D01*
X028412Y043929D01*
X028432D01*
X028452Y043909D01*
X027217Y043886D02*
X027257Y043926D01*
X027297D01*
X027257Y043966D01*
X027297Y044006D01*
X027257D01*
X027217Y044046D01*
X027177Y044006D01*
X027137D01*
X027177Y043966D01*
X027137Y043926D01*
X027177D01*
X027217Y043886D01*
Y043926D02*
X027237Y043946D01*
X027257D01*
X027237Y043966D01*
X027257Y043986D01*
X027237D01*
X027217Y044006D01*
X027197Y043986D01*
X027177D01*
X027197Y043966D01*
X027177Y043946D01*
X027197D01*
X027217Y043926D01*
X02595Y04702D02*
X02599Y04706D01*
X02603D01*
X02599Y0471D01*
X02603Y04714D01*
X02599D01*
X02595Y04718D01*
X02591Y04714D01*
X02587D01*
X02591Y0471D01*
X02587Y04706D01*
X02591D01*
X02595Y04702D01*
Y04706D02*
X02597Y04708D01*
X02599D01*
X02597Y0471D01*
X02599Y04712D01*
X02597D01*
X02595Y04714D01*
X02593Y04712D01*
X02591D01*
X02593Y0471D01*
X02591Y04708D01*
X02593D01*
X02595Y04706D01*
X025989Y044841D02*
X026029Y044881D01*
X026069D01*
X026029Y044921D01*
X026069Y044961D01*
X026029D01*
X025989Y045001D01*
X025949Y044961D01*
X025909D01*
X025949Y044921D01*
X025909Y044881D01*
X025949D01*
X025989Y044841D01*
Y044881D02*
X026009Y044901D01*
X026029D01*
X026009Y044921D01*
X026029Y044941D01*
X026009D01*
X025989Y044961D01*
X025969Y044941D01*
X025949D01*
X025969Y044921D01*
X025949Y044901D01*
X025969D01*
X025989Y044881D01*
X015933Y032906D02*
X015973Y032946D01*
X016013D01*
X015973Y032986D01*
X016013Y033026D01*
X015973D01*
X015933Y033066D01*
X015893Y033026D01*
X015853D01*
X015893Y032986D01*
X015853Y032946D01*
X015893D01*
X015933Y032906D01*
Y032946D02*
X015953Y032966D01*
X015973D01*
X015953Y032986D01*
X015973Y033006D01*
X015953D01*
X015933Y033026D01*
X015913Y033006D01*
X015893D01*
X015913Y032986D01*
X015893Y032966D01*
X015913D01*
X015933Y032946D01*
X015436Y031688D02*
X015476Y031728D01*
X015516D01*
X015476Y031768D01*
X015516Y031808D01*
X015476D01*
X015436Y031848D01*
X015396Y031808D01*
X015356D01*
X015396Y031768D01*
X015356Y031728D01*
X015396D01*
X015436Y031688D01*
Y031728D02*
X015456Y031748D01*
X015476D01*
X015456Y031768D01*
X015476Y031788D01*
X015456D01*
X015436Y031808D01*
X015416Y031788D01*
X015396D01*
X015416Y031768D01*
X015396Y031748D01*
X015416D01*
X015436Y031728D01*
X01677Y03138D02*
X01681Y03142D01*
X01685D01*
X01681Y03146D01*
X01685Y0315D01*
X01681D01*
X01677Y03154D01*
X01673Y0315D01*
X01669D01*
X01673Y03146D01*
X01669Y03142D01*
X01673D01*
X01677Y03138D01*
Y03142D02*
X01679Y03144D01*
X01681D01*
X01679Y03146D01*
X01681Y03148D01*
X01679D01*
X01677Y0315D01*
X01675Y03148D01*
X01673D01*
X01675Y03146D01*
X01673Y03144D01*
X01675D01*
X01677Y03142D01*
X017819Y031602D02*
X017859Y031642D01*
X017899D01*
X017859Y031682D01*
X017899Y031722D01*
X017859D01*
X017819Y031762D01*
X017779Y031722D01*
X017739D01*
X017779Y031682D01*
X017739Y031642D01*
X017779D01*
X017819Y031602D01*
Y031642D02*
X017839Y031662D01*
X017859D01*
X017839Y031682D01*
X017859Y031702D01*
X017839D01*
X017819Y031722D01*
X017799Y031702D01*
X017779D01*
X017799Y031682D01*
X017779Y031662D01*
X017799D01*
X017819Y031642D01*
X018336Y030393D02*
X018376Y030433D01*
X018416D01*
X018376Y030473D01*
X018416Y030513D01*
X018376D01*
X018336Y030553D01*
X018296Y030513D01*
X018256D01*
X018296Y030473D01*
X018256Y030433D01*
X018296D01*
X018336Y030393D01*
Y030433D02*
X018356Y030453D01*
X018376D01*
X018356Y030473D01*
X018376Y030493D01*
X018356D01*
X018336Y030513D01*
X018316Y030493D01*
X018296D01*
X018316Y030473D01*
X018296Y030453D01*
X018316D01*
X018336Y030433D01*
X01765Y02587D02*
X01769Y02591D01*
X01773D01*
X01769Y02595D01*
X01773Y02599D01*
X01769D01*
X01765Y02603D01*
X01761Y02599D01*
X01757D01*
X01761Y02595D01*
X01757Y02591D01*
X01761D01*
X01765Y02587D01*
Y02591D02*
X01767Y02593D01*
X01769D01*
X01767Y02595D01*
X01769Y02597D01*
X01767D01*
X01765Y02599D01*
X01763Y02597D01*
X01761D01*
X01763Y02595D01*
X01761Y02593D01*
X01763D01*
X01765Y02591D01*
X019464Y029148D02*
X019504Y029188D01*
X019544D01*
X019504Y029228D01*
X019544Y029268D01*
X019504D01*
X019464Y029308D01*
X019424Y029268D01*
X019384D01*
X019424Y029228D01*
X019384Y029188D01*
X019424D01*
X019464Y029148D01*
Y029188D02*
X019484Y029208D01*
X019504D01*
X019484Y029228D01*
X019504Y029248D01*
X019484D01*
X019464Y029268D01*
X019444Y029248D01*
X019424D01*
X019444Y029228D01*
X019424Y029208D01*
X019444D01*
X019464Y029188D01*
X019464Y030463D02*
X019504Y030503D01*
X019544D01*
X019504Y030543D01*
X019544Y030583D01*
X019504D01*
X019464Y030623D01*
X019424Y030583D01*
X019384D01*
X019424Y030543D01*
X019384Y030503D01*
X019424D01*
X019464Y030463D01*
Y030503D02*
X019484Y030523D01*
X019504D01*
X019484Y030543D01*
X019504Y030563D01*
X019484D01*
X019464Y030583D01*
X019444Y030563D01*
X019424D01*
X019444Y030543D01*
X019424Y030523D01*
X019444D01*
X019464Y030503D01*
X018326Y03269D02*
X018366Y03273D01*
X018406D01*
X018366Y03277D01*
X018406Y03281D01*
X018366D01*
X018326Y03285D01*
X018286Y03281D01*
X018246D01*
X018286Y03277D01*
X018246Y03273D01*
X018286D01*
X018326Y03269D01*
Y03273D02*
X018346Y03275D01*
X018366D01*
X018346Y03277D01*
X018366Y03279D01*
X018346D01*
X018326Y03281D01*
X018306Y03279D01*
X018286D01*
X018306Y03277D01*
X018286Y03275D01*
X018306D01*
X018326Y03273D01*
X0197Y037806D02*
X01974Y037846D01*
X01978D01*
X01974Y037886D01*
X01978Y037926D01*
X01974D01*
X0197Y037966D01*
X01966Y037926D01*
X01962D01*
X01966Y037886D01*
X01962Y037846D01*
X01966D01*
X0197Y037806D01*
Y037846D02*
X01972Y037866D01*
X01974D01*
X01972Y037886D01*
X01974Y037906D01*
X01972D01*
X0197Y037926D01*
X01968Y037906D01*
X01966D01*
X01968Y037886D01*
X01966Y037866D01*
X01968D01*
X0197Y037846D01*
X02189Y039112D02*
X02193Y039152D01*
X02197D01*
X02193Y039192D01*
X02197Y039232D01*
X02193D01*
X02189Y039272D01*
X02185Y039232D01*
X02181D01*
X02185Y039192D01*
X02181Y039152D01*
X02185D01*
X02189Y039112D01*
Y039152D02*
X02191Y039172D01*
X02193D01*
X02191Y039192D01*
X02193Y039212D01*
X02191D01*
X02189Y039232D01*
X02187Y039212D01*
X02185D01*
X02187Y039192D01*
X02185Y039172D01*
X02187D01*
X02189Y039152D01*
X02282Y040042D02*
X02286Y040082D01*
X0229D01*
X02286Y040122D01*
X0229Y040162D01*
X02286D01*
X02282Y040202D01*
X02278Y040162D01*
X02274D01*
X02278Y040122D01*
X02274Y040082D01*
X02278D01*
X02282Y040042D01*
Y040082D02*
X02284Y040102D01*
X02286D01*
X02284Y040122D01*
X02286Y040142D01*
X02284D01*
X02282Y040162D01*
X0228Y040142D01*
X02278D01*
X0228Y040122D01*
X02278Y040102D01*
X0228D01*
X02282Y040082D01*
X027404Y041099D02*
X027444Y041139D01*
X027484D01*
X027444Y041179D01*
X027484Y041219D01*
X027444D01*
X027404Y041259D01*
X027364Y041219D01*
X027324D01*
X027364Y041179D01*
X027324Y041139D01*
X027364D01*
X027404Y041099D01*
Y041139D02*
X027424Y041159D01*
X027444D01*
X027424Y041179D01*
X027444Y041199D01*
X027424D01*
X027404Y041219D01*
X027384Y041199D01*
X027364D01*
X027384Y041179D01*
X027364Y041159D01*
X027384D01*
X027404Y041139D01*
X027889Y037432D02*
X027929Y037472D01*
X027969D01*
X027929Y037512D01*
X027969Y037552D01*
X027929D01*
X027889Y037592D01*
X027849Y037552D01*
X027809D01*
X027849Y037512D01*
X027809Y037472D01*
X027849D01*
X027889Y037432D01*
Y037472D02*
X027909Y037492D01*
X027929D01*
X027909Y037512D01*
X027929Y037532D01*
X027909D01*
X027889Y037552D01*
X027869Y037532D01*
X027849D01*
X027869Y037512D01*
X027849Y037492D01*
X027869D01*
X027889Y037472D01*
X030056Y04117D02*
X030096Y04121D01*
X030136D01*
X030096Y04125D01*
X030136Y04129D01*
X030096D01*
X030056Y04133D01*
X030016Y04129D01*
X029976D01*
X030016Y04125D01*
X029976Y04121D01*
X030016D01*
X030056Y04117D01*
Y04121D02*
X030076Y04123D01*
X030096D01*
X030076Y04125D01*
X030096Y04127D01*
X030076D01*
X030056Y04129D01*
X030036Y04127D01*
X030016D01*
X030036Y04125D01*
X030016Y04123D01*
X030036D01*
X030056Y04121D01*
X033454Y046646D02*
X033494Y046686D01*
X033534D01*
X033494Y046726D01*
X033534Y046766D01*
X033494D01*
X033454Y046806D01*
X033414Y046766D01*
X033374D01*
X033414Y046726D01*
X033374Y046686D01*
X033414D01*
X033454Y046646D01*
Y046686D02*
X033474Y046706D01*
X033494D01*
X033474Y046726D01*
X033494Y046746D01*
X033474D01*
X033454Y046766D01*
X033434Y046746D01*
X033414D01*
X033434Y046726D01*
X033414Y046706D01*
X033434D01*
X033454Y046686D01*
Y047961D02*
X033494Y048001D01*
X033534D01*
X033494Y048041D01*
X033534Y048081D01*
X033494D01*
X033454Y048121D01*
X033414Y048081D01*
X033374D01*
X033414Y048041D01*
X033374Y048001D01*
X033414D01*
X033454Y047961D01*
Y048001D02*
X033474Y048021D01*
X033494D01*
X033474Y048041D01*
X033494Y048061D01*
X033474D01*
X033454Y048081D01*
X033434Y048061D01*
X033414D01*
X033434Y048041D01*
X033414Y048021D01*
X033434D01*
X033454Y048001D01*
X036814Y049056D02*
X036854Y049096D01*
X036894D01*
X036854Y049136D01*
X036894Y049176D01*
X036854D01*
X036814Y049216D01*
X036774Y049176D01*
X036734D01*
X036774Y049136D01*
X036734Y049096D01*
X036774D01*
X036814Y049056D01*
Y049096D02*
X036834Y049116D01*
X036854D01*
X036834Y049136D01*
X036854Y049156D01*
X036834D01*
X036814Y049176D01*
X036794Y049156D01*
X036774D01*
X036794Y049136D01*
X036774Y049116D01*
X036794D01*
X036814Y049096D01*
X038129Y049056D02*
X038169Y049096D01*
X038209D01*
X038169Y049136D01*
X038209Y049176D01*
X038169D01*
X038129Y049216D01*
X038089Y049176D01*
X038049D01*
X038089Y049136D01*
X038049Y049096D01*
X038089D01*
X038129Y049056D01*
Y049096D02*
X038149Y049116D01*
X038169D01*
X038149Y049136D01*
X038169Y049156D01*
X038149D01*
X038129Y049176D01*
X038109Y049156D01*
X038089D01*
X038109Y049136D01*
X038089Y049116D01*
X038109D01*
X038129Y049096D01*
X042546Y046626D02*
X042586Y046666D01*
X042626D01*
X042586Y046706D01*
X042626Y046746D01*
X042586D01*
X042546Y046786D01*
X042506Y046746D01*
X042466D01*
X042506Y046706D01*
X042466Y046666D01*
X042506D01*
X042546Y046626D01*
Y046666D02*
X042566Y046686D01*
X042586D01*
X042566Y046706D01*
X042586Y046726D01*
X042566D01*
X042546Y046746D01*
X042526Y046726D01*
X042506D01*
X042526Y046706D01*
X042506Y046686D01*
X042526D01*
X042546Y046666D01*
X043475Y045696D02*
X043515Y045736D01*
X043555D01*
X043515Y045776D01*
X043555Y045816D01*
X043515D01*
X043475Y045856D01*
X043435Y045816D01*
X043395D01*
X043435Y045776D01*
X043395Y045736D01*
X043435D01*
X043475Y045696D01*
Y045736D02*
X043495Y045756D01*
X043515D01*
X043495Y045776D01*
X043515Y045796D01*
X043495D01*
X043475Y045816D01*
X043455Y045796D01*
X043435D01*
X043455Y045776D01*
X043435Y045756D01*
X043455D01*
X043475Y045736D01*
X044405Y044767D02*
X044445Y044806D01*
X044485D01*
X044445Y044847D01*
X044485Y044886D01*
X044445D01*
X044405Y044927D01*
X044365Y044886D01*
X044325D01*
X044365Y044847D01*
X044325Y044806D01*
X044365D01*
X044405Y044767D01*
Y044806D02*
X044425Y044826D01*
X044445D01*
X044425Y044847D01*
X044445Y044866D01*
X044425D01*
X044405Y044886D01*
X044385Y044866D01*
X044365D01*
X044385Y044847D01*
X044365Y044826D01*
X044385D01*
X044405Y044806D01*
X0449Y04297D02*
X04494Y04301D01*
X04498D01*
X04494Y04305D01*
X04498Y04309D01*
X04494D01*
X0449Y04313D01*
X04486Y04309D01*
X04482D01*
X04486Y04305D01*
X04482Y04301D01*
X04486D01*
X0449Y04297D01*
Y04301D02*
X04492Y04303D01*
X04494D01*
X04492Y04305D01*
X04494Y04307D01*
X04492D01*
X0449Y04309D01*
X04488Y04307D01*
X04486D01*
X04488Y04305D01*
X04486Y04303D01*
X04488D01*
X0449Y04301D01*
X043913Y042825D02*
X043953Y042865D01*
X043993D01*
X043953Y042905D01*
X043993Y042945D01*
X043953D01*
X043913Y042985D01*
X043873Y042945D01*
X043833D01*
X043873Y042905D01*
X043833Y042865D01*
X043873D01*
X043913Y042825D01*
Y042865D02*
X043933Y042885D01*
X043953D01*
X043933Y042905D01*
X043953Y042925D01*
X043933D01*
X043913Y042945D01*
X043893Y042925D01*
X043873D01*
X043893Y042905D01*
X043873Y042885D01*
X043893D01*
X043913Y042865D01*
X042598Y042825D02*
X042638Y042865D01*
X042678D01*
X042638Y042905D01*
X042678Y042945D01*
X042638D01*
X042598Y042985D01*
X042558Y042945D01*
X042518D01*
X042558Y042905D01*
X042518Y042865D01*
X042558D01*
X042598Y042825D01*
Y042865D02*
X042618Y042885D01*
X042638D01*
X042618Y042905D01*
X042638Y042925D01*
X042618D01*
X042598Y042945D01*
X042578Y042925D01*
X042558D01*
X042578Y042905D01*
X042558Y042885D01*
X042578D01*
X042598Y042865D01*
X041283Y042825D02*
X041323Y042865D01*
X041363D01*
X041323Y042905D01*
X041363Y042945D01*
X041323D01*
X041283Y042985D01*
X041243Y042945D01*
X041203D01*
X041243Y042905D01*
X041203Y042865D01*
X041243D01*
X041283Y042825D01*
Y042865D02*
X041303Y042885D01*
X041323D01*
X041303Y042905D01*
X041323Y042925D01*
X041303D01*
X041283Y042945D01*
X041263Y042925D01*
X041243D01*
X041263Y042905D01*
X041243Y042885D01*
X041263D01*
X041283Y042865D01*
X039968Y042825D02*
X040008Y042865D01*
X040048D01*
X040008Y042905D01*
X040048Y042945D01*
X040008D01*
X039968Y042985D01*
X039928Y042945D01*
X039888D01*
X039928Y042905D01*
X039888Y042865D01*
X039928D01*
X039968Y042825D01*
Y042865D02*
X039988Y042885D01*
X040008D01*
X039988Y042905D01*
X040008Y042925D01*
X039988D01*
X039968Y042945D01*
X039948Y042925D01*
X039928D01*
X039948Y042905D01*
X039928Y042885D01*
X039948D01*
X039968Y042865D01*
X038653Y042825D02*
X038693Y042865D01*
X038733D01*
X038693Y042905D01*
X038733Y042945D01*
X038693D01*
X038653Y042985D01*
X038613Y042945D01*
X038573D01*
X038613Y042905D01*
X038573Y042865D01*
X038613D01*
X038653Y042825D01*
Y042865D02*
X038673Y042885D01*
X038693D01*
X038673Y042905D01*
X038693Y042925D01*
X038673D01*
X038653Y042945D01*
X038633Y042925D01*
X038613D01*
X038633Y042905D01*
X038613Y042885D01*
X038633D01*
X038653Y042865D01*
X037464Y042265D02*
X037504Y042305D01*
X037544D01*
X037504Y042345D01*
X037544Y042385D01*
X037504D01*
X037464Y042425D01*
X037424Y042385D01*
X037384D01*
X037424Y042345D01*
X037384Y042305D01*
X037424D01*
X037464Y042265D01*
Y042305D02*
X037484Y042325D01*
X037504D01*
X037484Y042345D01*
X037504Y042365D01*
X037484D01*
X037464Y042385D01*
X037444Y042365D01*
X037424D01*
X037444Y042345D01*
X037424Y042325D01*
X037444D01*
X037464Y042305D01*
X039064Y04125D02*
X039104Y04129D01*
X039144D01*
X039104Y04133D01*
X039144Y04137D01*
X039104D01*
X039064Y04141D01*
X039024Y04137D01*
X038984D01*
X039024Y04133D01*
X038984Y04129D01*
X039024D01*
X039064Y04125D01*
Y04129D02*
X039084Y04131D01*
X039104D01*
X039084Y04133D01*
X039104Y04135D01*
X039084D01*
X039064Y04137D01*
X039044Y04135D01*
X039024D01*
X039044Y04133D01*
X039024Y04131D01*
X039044D01*
X039064Y04129D01*
X041336Y040867D02*
X041376Y040907D01*
X041416D01*
X041376Y040947D01*
X041416Y040987D01*
X041376D01*
X041336Y041027D01*
X041296Y040987D01*
X041256D01*
X041296Y040947D01*
X041256Y040907D01*
X041296D01*
X041336Y040867D01*
Y040907D02*
X041356Y040927D01*
X041376D01*
X041356Y040947D01*
X041376Y040967D01*
X041356D01*
X041336Y040987D01*
X041316Y040967D01*
X041296D01*
X041316Y040947D01*
X041296Y040927D01*
X041316D01*
X041336Y040907D01*
X042356Y041696D02*
X042396Y041736D01*
X042436D01*
X042396Y041776D01*
X042436Y041816D01*
X042396D01*
X042356Y041856D01*
X042316Y041816D01*
X042276D01*
X042316Y041776D01*
X042276Y041736D01*
X042316D01*
X042356Y041696D01*
Y041736D02*
X042376Y041756D01*
X042396D01*
X042376Y041776D01*
X042396Y041796D01*
X042376D01*
X042356Y041816D01*
X042336Y041796D01*
X042316D01*
X042336Y041776D01*
X042316Y041756D01*
X042336D01*
X042356Y041736D01*
X043671Y041696D02*
X043711Y041736D01*
X043751D01*
X043711Y041776D01*
X043751Y041816D01*
X043711D01*
X043671Y041856D01*
X043631Y041816D01*
X043591D01*
X043631Y041776D01*
X043591Y041736D01*
X043631D01*
X043671Y041696D01*
Y041736D02*
X043691Y041756D01*
X043711D01*
X043691Y041776D01*
X043711Y041796D01*
X043691D01*
X043671Y041816D01*
X043651Y041796D01*
X043631D01*
X043651Y041776D01*
X043631Y041756D01*
X043651D01*
X043671Y041736D01*
X044986Y041656D02*
X045026Y041696D01*
X045066D01*
X045026Y041736D01*
X045066Y041776D01*
X045026D01*
X044986Y041816D01*
X044946Y041776D01*
X044906D01*
X044946Y041736D01*
X044906Y041696D01*
X044946D01*
X044986Y041656D01*
Y041696D02*
X045006Y041716D01*
X045026D01*
X045006Y041736D01*
X045026Y041756D01*
X045006D01*
X044986Y041776D01*
X044966Y041756D01*
X044946D01*
X044966Y041736D01*
X044946Y041716D01*
X044966D01*
X044986Y041696D01*
X045Y03742D02*
X04504Y03746D01*
X04508D01*
X04504Y0375D01*
X04508Y03754D01*
X04504D01*
X045Y03758D01*
X04496Y03754D01*
X04492D01*
X04496Y0375D01*
X04492Y03746D01*
X04496D01*
X045Y03742D01*
Y03746D02*
X04502Y03748D01*
X04504D01*
X04502Y0375D01*
X04504Y03752D01*
X04502D01*
X045Y03754D01*
X04498Y03752D01*
X04496D01*
X04498Y0375D01*
X04496Y03748D01*
X04498D01*
X045Y03746D01*
X044986Y03412D02*
X045026Y03416D01*
X045066D01*
X045026Y0342D01*
X045066Y03424D01*
X045026D01*
X044986Y03428D01*
X044946Y03424D01*
X044906D01*
X044946Y0342D01*
X044906Y03416D01*
X044946D01*
X044986Y03412D01*
Y03416D02*
X045006Y03418D01*
X045026D01*
X045006Y0342D01*
X045026Y03422D01*
X045006D01*
X044986Y03424D01*
X044966Y03422D01*
X044946D01*
X044966Y0342D01*
X044946Y03418D01*
X044966D01*
X044986Y03416D01*
Y03292D02*
X045026Y03296D01*
X045066D01*
X045026Y033D01*
X045066Y03304D01*
X045026D01*
X044986Y03308D01*
X044946Y03304D01*
X044906D01*
X044946Y033D01*
X044906Y03296D01*
X044946D01*
X044986Y03292D01*
Y03296D02*
X045006Y03298D01*
X045026D01*
X045006Y033D01*
X045026Y03302D01*
X045006D01*
X044986Y03304D01*
X044966Y03302D01*
X044946D01*
X044966Y033D01*
X044946Y03298D01*
X044966D01*
X044986Y03296D01*
X044508Y031226D02*
X044548Y031266D01*
X044588D01*
X044548Y031306D01*
X044588Y031346D01*
X044548D01*
X044508Y031386D01*
X044468Y031346D01*
X044428D01*
X044468Y031306D01*
X044428Y031266D01*
X044468D01*
X044508Y031226D01*
Y031266D02*
X044528Y031286D01*
X044548D01*
X044528Y031306D01*
X044548Y031326D01*
X044528D01*
X044508Y031346D01*
X044488Y031326D01*
X044468D01*
X044488Y031306D01*
X044468Y031286D01*
X044488D01*
X044508Y031266D01*
X041881Y031134D02*
X041921Y031174D01*
X041961D01*
X041921Y031214D01*
X041961Y031254D01*
X041921D01*
X041881Y031294D01*
X041841Y031254D01*
X041801D01*
X041841Y031214D01*
X041801Y031174D01*
X041841D01*
X041881Y031134D01*
Y031174D02*
X041901Y031194D01*
X041921D01*
X041901Y031214D01*
X041921Y031234D01*
X041901D01*
X041881Y031254D01*
X041861Y031234D01*
X041841D01*
X041861Y031214D01*
X041841Y031194D01*
X041861D01*
X041881Y031174D01*
X037936Y031134D02*
X037976Y031174D01*
X038016D01*
X037976Y031214D01*
X038016Y031254D01*
X037976D01*
X037936Y031294D01*
X037896Y031254D01*
X037856D01*
X037896Y031214D01*
X037856Y031174D01*
X037896D01*
X037936Y031134D01*
Y031174D02*
X037956Y031194D01*
X037976D01*
X037956Y031214D01*
X037976Y031234D01*
X037956D01*
X037936Y031254D01*
X037916Y031234D01*
X037896D01*
X037916Y031214D01*
X037896Y031194D01*
X037916D01*
X037936Y031174D01*
X036621Y031134D02*
X036661Y031174D01*
X036701D01*
X036661Y031214D01*
X036701Y031254D01*
X036661D01*
X036621Y031294D01*
X036581Y031254D01*
X036541D01*
X036581Y031214D01*
X036541Y031174D01*
X036581D01*
X036621Y031134D01*
Y031174D02*
X036641Y031194D01*
X036661D01*
X036641Y031214D01*
X036661Y031234D01*
X036641D01*
X036621Y031254D01*
X036601Y031234D01*
X036581D01*
X036601Y031214D01*
X036581Y031194D01*
X036601D01*
X036621Y031174D01*
X035346Y030814D02*
X035386Y030854D01*
X035426D01*
X035386Y030894D01*
X035426Y030934D01*
X035386D01*
X035346Y030974D01*
X035306Y030934D01*
X035266D01*
X035306Y030894D01*
X035266Y030854D01*
X035306D01*
X035346Y030814D01*
Y030854D02*
X035366Y030874D01*
X035386D01*
X035366Y030894D01*
X035386Y030914D01*
X035366D01*
X035346Y030934D01*
X035326Y030914D01*
X035306D01*
X035326Y030894D01*
X035306Y030874D01*
X035326D01*
X035346Y030854D01*
X0367Y02992D02*
X03674Y02996D01*
X03678D01*
X03674Y03D01*
X03678Y03004D01*
X03674D01*
X0367Y03008D01*
X03666Y03004D01*
X03662D01*
X03666Y03D01*
X03662Y02996D01*
X03666D01*
X0367Y02992D01*
Y02996D02*
X03672Y02998D01*
X03674D01*
X03672Y03D01*
X03674Y03002D01*
X03672D01*
X0367Y03004D01*
X03668Y03002D01*
X03666D01*
X03668Y03D01*
X03666Y02998D01*
X03668D01*
X0367Y02996D01*
X04175Y03002D02*
X04179Y03006D01*
X04183D01*
X04179Y0301D01*
X04183Y03014D01*
X04179D01*
X04175Y03018D01*
X04171Y03014D01*
X04167D01*
X04171Y0301D01*
X04167Y03006D01*
X04171D01*
X04175Y03002D01*
Y03006D02*
X04177Y03008D01*
X04179D01*
X04177Y0301D01*
X04179Y03012D01*
X04177D01*
X04175Y03014D01*
X04173Y03012D01*
X04171D01*
X04173Y0301D01*
X04171Y03008D01*
X04173D01*
X04175Y03006D01*
X045233Y030355D02*
X045273Y030395D01*
X045313D01*
X045273Y030435D01*
X045313Y030475D01*
X045273D01*
X045233Y030515D01*
X045193Y030475D01*
X045153D01*
X045193Y030435D01*
X045153Y030395D01*
X045193D01*
X045233Y030355D01*
Y030395D02*
X045253Y030415D01*
X045273D01*
X045253Y030435D01*
X045273Y030455D01*
X045253D01*
X045233Y030475D01*
X045213Y030455D01*
X045193D01*
X045213Y030435D01*
X045193Y030415D01*
X045213D01*
X045233Y030395D01*
X046097Y031346D02*
X046137Y031386D01*
X046177D01*
X046137Y031426D01*
X046177Y031466D01*
X046137D01*
X046097Y031506D01*
X046057Y031466D01*
X046017D01*
X046057Y031426D01*
X046017Y031386D01*
X046057D01*
X046097Y031346D01*
Y031386D02*
X046117Y031406D01*
X046137D01*
X046117Y031426D01*
X046137Y031446D01*
X046117D01*
X046097Y031466D01*
X046077Y031446D01*
X046057D01*
X046077Y031426D01*
X046057Y031406D01*
X046077D01*
X046097Y031386D01*
X046114Y032661D02*
X046154Y032701D01*
X046194D01*
X046154Y032741D01*
X046194Y032781D01*
X046154D01*
X046114Y032821D01*
X046074Y032781D01*
X046034D01*
X046074Y032741D01*
X046034Y032701D01*
X046074D01*
X046114Y032661D01*
Y032701D02*
X046134Y032721D01*
X046154D01*
X046134Y032741D01*
X046154Y032761D01*
X046134D01*
X046114Y032781D01*
X046094Y032761D01*
X046074D01*
X046094Y032741D01*
X046074Y032721D01*
X046094D01*
X046114Y032701D01*
Y033976D02*
X046154Y034016D01*
X046194D01*
X046154Y034056D01*
X046194Y034096D01*
X046154D01*
X046114Y034136D01*
X046074Y034096D01*
X046034D01*
X046074Y034056D01*
X046034Y034016D01*
X046074D01*
X046114Y033976D01*
Y034016D02*
X046134Y034036D01*
X046154D01*
X046134Y034056D01*
X046154Y034076D01*
X046134D01*
X046114Y034096D01*
X046094Y034076D01*
X046074D01*
X046094Y034056D01*
X046074Y034036D01*
X046094D01*
X046114Y034016D01*
Y035291D02*
X046154Y035331D01*
X046194D01*
X046154Y035371D01*
X046194Y035411D01*
X046154D01*
X046114Y035451D01*
X046074Y035411D01*
X046034D01*
X046074Y035371D01*
X046034Y035331D01*
X046074D01*
X046114Y035291D01*
Y035331D02*
X046134Y035351D01*
X046154D01*
X046134Y035371D01*
X046154Y035391D01*
X046134D01*
X046114Y035411D01*
X046094Y035391D01*
X046074D01*
X046094Y035371D01*
X046074Y035351D01*
X046094D01*
X046114Y035331D01*
Y036606D02*
X046154Y036646D01*
X046194D01*
X046154Y036686D01*
X046194Y036726D01*
X046154D01*
X046114Y036766D01*
X046074Y036726D01*
X046034D01*
X046074Y036686D01*
X046034Y036646D01*
X046074D01*
X046114Y036606D01*
Y036646D02*
X046134Y036666D01*
X046154D01*
X046134Y036686D01*
X046154Y036706D01*
X046134D01*
X046114Y036726D01*
X046094Y036706D01*
X046074D01*
X046094Y036686D01*
X046074Y036666D01*
X046094D01*
X046114Y036646D01*
Y037921D02*
X046154Y037961D01*
X046194D01*
X046154Y038001D01*
X046194Y038041D01*
X046154D01*
X046114Y038081D01*
X046074Y038041D01*
X046034D01*
X046074Y038001D01*
X046034Y037961D01*
X046074D01*
X046114Y037921D01*
Y037961D02*
X046134Y037981D01*
X046154D01*
X046134Y038001D01*
X046154Y038021D01*
X046134D01*
X046114Y038041D01*
X046094Y038021D01*
X046074D01*
X046094Y038001D01*
X046074Y037981D01*
X046094D01*
X046114Y037961D01*
Y039236D02*
X046154Y039276D01*
X046194D01*
X046154Y039316D01*
X046194Y039356D01*
X046154D01*
X046114Y039396D01*
X046074Y039356D01*
X046034D01*
X046074Y039316D01*
X046034Y039276D01*
X046074D01*
X046114Y039236D01*
Y039276D02*
X046134Y039296D01*
X046154D01*
X046134Y039316D01*
X046154Y039336D01*
X046134D01*
X046114Y039356D01*
X046094Y039336D01*
X046074D01*
X046094Y039316D01*
X046074Y039296D01*
X046094D01*
X046114Y039276D01*
Y040551D02*
X046154Y040591D01*
X046194D01*
X046154Y040631D01*
X046194Y040671D01*
X046154D01*
X046114Y040711D01*
X046074Y040671D01*
X046034D01*
X046074Y040631D01*
X046034Y040591D01*
X046074D01*
X046114Y040551D01*
Y040591D02*
X046134Y040611D01*
X046154D01*
X046134Y040631D01*
X046154Y040651D01*
X046134D01*
X046114Y040671D01*
X046094Y040651D01*
X046074D01*
X046094Y040631D01*
X046074Y040611D01*
X046094D01*
X046114Y040591D01*
Y041866D02*
X046154Y041906D01*
X046194D01*
X046154Y041946D01*
X046194Y041986D01*
X046154D01*
X046114Y042026D01*
X046074Y041986D01*
X046034D01*
X046074Y041946D01*
X046034Y041906D01*
X046074D01*
X046114Y041866D01*
Y041906D02*
X046134Y041926D01*
X046154D01*
X046134Y041946D01*
X046154Y041966D01*
X046134D01*
X046114Y041986D01*
X046094Y041966D01*
X046074D01*
X046094Y041946D01*
X046074Y041926D01*
X046094D01*
X046114Y041906D01*
Y04318D02*
X046154Y04322D01*
X046194D01*
X046154Y04326D01*
X046194Y0433D01*
X046154D01*
X046114Y04334D01*
X046074Y0433D01*
X046034D01*
X046074Y04326D01*
X046034Y04322D01*
X046074D01*
X046114Y04318D01*
Y04322D02*
X046134Y04324D01*
X046154D01*
X046134Y04326D01*
X046154Y04328D01*
X046134D01*
X046114Y0433D01*
X046094Y04328D01*
X046074D01*
X046094Y04326D01*
X046074Y04324D01*
X046094D01*
X046114Y04322D01*
X046107Y044495D02*
X046147Y044535D01*
X046187D01*
X046147Y044575D01*
X046187Y044615D01*
X046147D01*
X046107Y044655D01*
X046067Y044615D01*
X046027D01*
X046067Y044575D01*
X046027Y044535D01*
X046067D01*
X046107Y044495D01*
Y044535D02*
X046127Y044555D01*
X046147D01*
X046127Y044575D01*
X046147Y044595D01*
X046127D01*
X046107Y044615D01*
X046087Y044595D01*
X046067D01*
X046087Y044575D01*
X046067Y044555D01*
X046087D01*
X046107Y044535D01*
X045264Y045505D02*
X045304Y045545D01*
X045344D01*
X045304Y045585D01*
X045344Y045625D01*
X045304D01*
X045264Y045665D01*
X045224Y045625D01*
X045184D01*
X045224Y045585D01*
X045184Y045545D01*
X045224D01*
X045264Y045505D01*
Y045545D02*
X045284Y045565D01*
X045304D01*
X045284Y045585D01*
X045304Y045605D01*
X045284D01*
X045264Y045625D01*
X045244Y045605D01*
X045224D01*
X045244Y045585D01*
X045224Y045565D01*
X045244D01*
X045264Y045545D01*
X044334Y046434D02*
X044374Y046474D01*
X044414D01*
X044374Y046515D01*
X044414Y046554D01*
X044374D01*
X044334Y046595D01*
X044294Y046554D01*
X044254D01*
X044294Y046515D01*
X044254Y046474D01*
X044294D01*
X044334Y046434D01*
Y046474D02*
X044354Y046494D01*
X044374D01*
X044354Y046515D01*
X044374Y046535D01*
X044354D01*
X044334Y046554D01*
X044314Y046535D01*
X044294D01*
X044314Y046515D01*
X044294Y046494D01*
X044314D01*
X044334Y046474D01*
X043404Y047364D02*
X043444Y047404D01*
X043484D01*
X043444Y047444D01*
X043484Y047484D01*
X043444D01*
X043404Y047524D01*
X043364Y047484D01*
X043324D01*
X043364Y047444D01*
X043324Y047404D01*
X043364D01*
X043404Y047364D01*
Y047404D02*
X043424Y047424D01*
X043444D01*
X043424Y047444D01*
X043444Y047464D01*
X043424D01*
X043404Y047484D01*
X043384Y047464D01*
X043364D01*
X043384Y047444D01*
X043364Y047424D01*
X043384D01*
X043404Y047404D01*
X042474Y048294D02*
X042514Y048334D01*
X042554D01*
X042514Y048374D01*
X042554Y048414D01*
X042514D01*
X042474Y048454D01*
X042434Y048414D01*
X042394D01*
X042434Y048374D01*
X042394Y048334D01*
X042434D01*
X042474Y048294D01*
Y048334D02*
X042494Y048354D01*
X042514D01*
X042494Y048374D01*
X042514Y048394D01*
X042494D01*
X042474Y048414D01*
X042454Y048394D01*
X042434D01*
X042454Y048374D01*
X042434Y048354D01*
X042454D01*
X042474Y048334D01*
X041544Y049224D02*
X041584Y049264D01*
X041624D01*
X041584Y049304D01*
X041624Y049344D01*
X041584D01*
X041544Y049384D01*
X041504Y049344D01*
X041464D01*
X041504Y049304D01*
X041464Y049264D01*
X041504D01*
X041544Y049224D01*
Y049264D02*
X041564Y049284D01*
X041584D01*
X041564Y049304D01*
X041584Y049324D01*
X041564D01*
X041544Y049344D01*
X041524Y049324D01*
X041504D01*
X041524Y049304D01*
X041504Y049284D01*
X041524D01*
X041544Y049264D01*
X02335Y04307D02*
X02339Y04311D01*
X02343D01*
X02339Y04315D01*
X02343Y04319D01*
X02339D01*
X02335Y04323D01*
X02331Y04319D01*
X02327D01*
X02331Y04315D01*
X02327Y04311D01*
X02331D01*
X02335Y04307D01*
Y04311D02*
X02337Y04313D01*
X02339D01*
X02337Y04315D01*
X02339Y04317D01*
X02337D01*
X02335Y04319D01*
X02333Y04317D01*
X02331D01*
X02333Y04315D01*
X02331Y04313D01*
X02333D01*
X02335Y04311D01*
X030737Y03777D02*
X030777Y03781D01*
X030817D01*
X030777Y03785D01*
X030817Y03789D01*
X030777D01*
X030737Y03793D01*
X030697Y03789D01*
X030657D01*
X030697Y03785D01*
X030657Y03781D01*
X030697D01*
X030737Y03777D01*
Y03781D02*
X030757Y03783D01*
X030777D01*
X030757Y03785D01*
X030777Y03787D01*
X030757D01*
X030737Y03789D01*
X030717Y03787D01*
X030697D01*
X030717Y03785D01*
X030697Y03783D01*
X030717D01*
X030737Y03781D01*
X03175Y03737D02*
X03179Y03741D01*
X03183D01*
X03179Y03745D01*
X03183Y03749D01*
X03179D01*
X03175Y03753D01*
X03171Y03749D01*
X03167D01*
X03171Y03745D01*
X03167Y03741D01*
X03171D01*
X03175Y03737D01*
Y03741D02*
X03177Y03743D01*
X03179D01*
X03177Y03745D01*
X03179Y03747D01*
X03177D01*
X03175Y03749D01*
X03173Y03747D01*
X03171D01*
X03173Y03745D01*
X03171Y03743D01*
X03173D01*
X03175Y03741D01*
X0325Y03682D02*
X03254Y03686D01*
X03258D01*
X03254Y0369D01*
X03258Y03694D01*
X03254D01*
X0325Y03698D01*
X03246Y03694D01*
X03242D01*
X03246Y0369D01*
X03242Y03686D01*
X03246D01*
X0325Y03682D01*
Y03686D02*
X03252Y03688D01*
X03254D01*
X03252Y0369D01*
X03254Y03692D01*
X03252D01*
X0325Y03694D01*
X03248Y03692D01*
X03246D01*
X03248Y0369D01*
X03246Y03688D01*
X03248D01*
X0325Y03686D01*
D96*
X02893Y0298D02*
G03*
X02893Y0298I-00008J0D01*
G01*
X02793D02*
G03*
X02793Y0298I-00008J0D01*
G01*
X02693D02*
G03*
X02693Y0298I-00008J0D01*
G01*
X02993D02*
G03*
X02993Y0298I-00008J0D01*
G01*
Y0328D02*
G03*
X02993Y0328I-00008J0D01*
G01*
X02893D02*
G03*
X02893Y0328I-00008J0D01*
G01*
X02793D02*
G03*
X02793Y0328I-00008J0D01*
G01*
X02693D02*
G03*
X02693Y0328I-00008J0D01*
G01*
X01203Y024375D02*
G03*
X01203Y024375I-00008J0D01*
G01*
Y029625D02*
G03*
X01203Y029625I-00008J0D01*
G01*
X01803D02*
G03*
X01803Y029625I-00008J0D01*
G01*
Y024375D02*
G03*
X01803Y024375I-00008J0D01*
G01*
D97*
X01199D02*
G03*
X01199Y024375I-00004J0D01*
G01*
Y029625D02*
G03*
X01199Y029625I-00004J0D01*
G01*
X01799D02*
G03*
X01799Y029625I-00004J0D01*
G01*
Y024375D02*
G03*
X01799Y024375I-00004J0D01*
G01*
M02*
