M48
;Layer_Color=9474304
;FILE_FORMAT=2:4
INCH,LZ
;TYPE=PLATED
T1F00S00C0.0157
T2F00S00C0.0300
T3F00S00C0.0315
T4F00S00C0.0320
T5F00S00C0.0350
T6F00S00C0.0354
T7F00S00C0.0360
T8F00S00C0.0394
T9F00S00C0.0450
T11F00S00C0.0550
T12F00S00C0.1181
%
T01
X032Y022
X034
X036
X038
X04
X042
X044
X045Y024
X043
X041
X039
X037
X035
X033
X034Y026
X032
X033Y028
X034Y03
X036
X036399Y030086
X036621Y031214
X037936
X038Y03
X04
X04175Y0301
X041881Y031214
X043196
X044Y03
X045233Y030435
X042Y026
X038
X035346Y030894
X032Y03
X03Y026
X028
X027Y028
X025
X023
X021
X019464Y029228
X019464Y030543
X018336Y030473
X016658Y031065
X016Y03
X017Y028
X017636Y027941
Y026626
X018353Y025524
X019636Y025814
X019Y024
X021
X023
X025
X026Y022
X028
X03
X024
X022
X02
X018
X017Y024
X016Y026
X022
X024
Y03
X026
X022
X015494Y030455
X014Y03
X015Y028
X013
X014Y026
X012
X013Y024
X015
X012Y022
X013Y032
X015436Y031768
X014Y034
X012
Y038
X014
X015101Y03943
X015Y04
X013
X012Y042
X013Y044
X014Y046
X015Y036
X016736Y036657
X017864Y036631
X0173Y03565
X018Y034
X018326Y03277
X019Y032
X017819Y031682
X015933Y032986
X016Y034
X015637Y038185
X016912Y03796
X01675Y038886
X017846Y038886
X017593Y040014
X016278
X019Y04
X020209Y040207
X021139Y041137
X022Y042
X022786Y043169
X02335Y04315
X02396Y043972
X025Y044
X025989Y044921
X02559Y046174
X024685Y046387
X023964Y045287
X022836Y045795
X021Y044
X019
X018Y046
X016
X018386Y037838
X0197Y037886
X02096Y038262
X02189Y039192
X02282Y040122
X0239Y040421
Y039236
X024Y038
X02585Y0376
X02585Y038807
X0256Y040515
X025889Y042586
X027204
X028Y042
X027404Y041179
X029753Y041545
X029834Y042586
X029767Y043966
X028452Y043949
X027164Y044214
X027538Y045475
X028Y046
X027571Y046789
X030177Y046103
X030697Y044895
X030922Y043324
X030737Y03785
X03015
X027889Y037512
X0281Y036216
X028393Y038783
X03Y034
X031Y032
X029
X027
X025
X023
X021
X022Y034
X024
X032
X033Y032
X035
X037Y036
X039
X04Y034
X042
X044986Y033846
Y035161
X045Y036
X044986Y036476
Y037791
X044Y038
X042
X043Y04
X045
X044986Y040421
Y041736
X046114Y041946
Y040631
Y039316
Y038001
Y036686
Y035371
Y034056
Y032741
X046097Y031426
X045Y032
X044986Y032531
X044508Y031306
X043671Y041776
X042356
X042598Y042905
X043913
X044986Y043667
X045Y044
X044405Y044847
X045264Y045585
X046107Y044575
X046114Y04326
X043Y044
X041
X041283Y042905
X039968
X038653
X039Y044
X039264Y045489
X03795Y045536
X037483Y046619
X038797Y046664
X040112
X040578Y045536
X042Y046
X042546Y046706
X043475Y045776
X044334Y046515
X036372Y045914
X036Y046
X037314Y044384
Y043069
X037464Y042345
X036904Y040505
X037Y04
X039064Y04133
X041336Y040947
X034Y042
X035Y044
X033054Y044786
X031852Y044254
X031982Y046236
X033454Y046726
X033Y04
X034386Y038767
Y037452
X0325Y0369
X03175Y03745
X032Y038
X032213Y04884
X033454Y048041
X037Y048
X036814Y049136
X038129
X039Y048
X041048Y047588
X041616Y047636
X042474Y048374
X043Y048
X043404Y047444
X041544Y049304
X031Y048
X03101Y047121
X0287Y048937
X025146Y048979
X02583Y04975
X02595Y0471
X02358Y046879
X021Y048
X019
X017
X015
X013
T02
X03585Y03535
Y03635
Y03735
Y03835
Y03935
Y04035
Y04135
Y04235
Y04335
Y04435
Y04535
T03
X02685Y0298
X02785
X02885
X02985
Y0328
X02885
X02785
X02685
T04
X0148Y04175
Y04275
T05
X01895Y026
Y027
Y028
X01595Y031
X01495
X01395
X0377Y0389
X0387
X0397
X0407
X0417
X0427
X0437
X0447
T06
X0162Y022
Y024
X0137
Y022
X03945Y033566
Y03455
Y035534
X04075
Y03455
Y033566
T07
X01105Y03712
X01205
X01305
X01405
X01505
X01605
X01829
X0193
X02028
X02129
X020425Y04109
Y0421
Y04308
X0171
Y0421
Y04109
X04395Y037
Y036
Y035
Y034
Y033
Y032
X04166Y047
X04065
X04064Y0484
X04165
X03589Y049
X03488
X0339
X03289
T08
X03422Y026564
Y028336
X03678
X03812Y028286
Y026514
X03678Y026564
X04068Y026514
X041987Y026564
Y028336
X04068Y028286
X044546Y028336
Y026564
T09
X0116Y041472
Y04285
T11
X01795Y024375
Y029625
X01195
Y024375
T12
X04475Y0213
X0113
X04475Y04835
X0113
M30
